G04*
G04 #@! TF.GenerationSoftware,Altium Limited,Altium Designer,18.0.7 (293)*
G04*
G04 Layer_Color=16711935*
%FSLAX25Y25*%
%MOIN*%
G70*
G01*
G75*
%ADD27C,0.16548*%
%ADD28C,0.06706*%
%ADD29R,0.06706X0.06706*%
%ADD30R,0.06706X0.06706*%
%ADD31C,0.13398*%
%ADD32C,0.05800*%
%ADD50R,0.06800X0.06800*%
%ADD51R,0.06800X0.06800*%
D27*
X61024Y15748D02*
D03*
X80709D02*
D03*
X17717Y70866D02*
D03*
Y90551D02*
D03*
Y110236D02*
D03*
D28*
X238189Y127480D02*
D03*
Y137480D02*
D03*
Y147480D02*
D03*
Y157480D02*
D03*
X115984Y10000D02*
D03*
X125984D02*
D03*
X135984D02*
D03*
X145984D02*
D03*
X155984D02*
D03*
X165984D02*
D03*
X175984D02*
D03*
X206063D02*
D03*
X216063D02*
D03*
X226063D02*
D03*
X236063D02*
D03*
X246063D02*
D03*
X91063Y198819D02*
D03*
X161063D02*
D03*
X151063D02*
D03*
X141063D02*
D03*
X131063D02*
D03*
X121063D02*
D03*
X111063D02*
D03*
X101063D02*
D03*
X81063D02*
D03*
X186063D02*
D03*
X196063D02*
D03*
X206063D02*
D03*
X216063D02*
D03*
X226063D02*
D03*
X236063D02*
D03*
X246063D02*
D03*
D29*
X238189Y167480D02*
D03*
D30*
X105984Y10000D02*
D03*
X196063D02*
D03*
X71063Y198819D02*
D03*
X176063D02*
D03*
D31*
X257874Y137795D02*
D03*
Y27559D02*
D03*
X59055Y198819D02*
D03*
D32*
X115157Y94646D02*
D03*
X100394Y155512D02*
D03*
X90551Y157480D02*
D03*
X34449Y131890D02*
D03*
X63833Y48372D02*
D03*
X56102Y186024D02*
D03*
Y162402D02*
D03*
X206875Y59055D02*
D03*
X200373Y53150D02*
D03*
X244094Y42323D02*
D03*
X230315Y119379D02*
D03*
X171260Y97441D02*
D03*
X218789Y112490D02*
D03*
X217520Y87598D02*
D03*
X197835Y137795D02*
D03*
X42323Y26575D02*
D03*
X197835Y152559D02*
D03*
Y173228D02*
D03*
X175681Y39870D02*
D03*
X125984Y124016D02*
D03*
X141732Y92520D02*
D03*
X140748Y40354D02*
D03*
X96274Y70450D02*
D03*
X67913Y74803D02*
D03*
X48228Y66929D02*
D03*
X72835Y59055D02*
D03*
X90236Y148307D02*
D03*
D50*
X248031Y94488D02*
D03*
X240158D02*
D03*
X232283D02*
D03*
X248031Y110236D02*
D03*
X240158D02*
D03*
X232283D02*
D03*
X70866Y180118D02*
D03*
X78740D02*
D03*
X70866Y164370D02*
D03*
X78740D02*
D03*
D51*
X177165Y78740D02*
D03*
Y70866D02*
D03*
Y62992D02*
D03*
X222441Y76772D02*
D03*
Y68898D02*
D03*
Y61024D02*
D03*
X157480Y78740D02*
D03*
Y70866D02*
D03*
Y62992D02*
D03*
X195866Y77756D02*
D03*
Y69882D02*
D03*
Y62008D02*
D03*
X203740Y69882D02*
D03*
X254921Y46260D02*
D03*
Y54134D02*
D03*
Y62008D02*
D03*
X247047Y54134D02*
D03*
X207677Y124016D02*
D03*
Y131890D02*
D03*
X207677Y149606D02*
D03*
Y157480D02*
D03*
Y171260D02*
D03*
Y179134D02*
D03*
M02*
