G04*
G04 #@! TF.GenerationSoftware,Altium Limited,Altium Designer,18.0.7 (293)*
G04*
G04 Layer_Physical_Order=1*
G04 Layer_Color=255*
%FSLAX25Y25*%
%MOIN*%
G70*
G01*
G75*
%ADD11C,0.01000*%
%ADD13R,0.04331X0.10236*%
G04:AMPARAMS|DCode=14|XSize=78.35mil|YSize=24.8mil|CornerRadius=1.98mil|HoleSize=0mil|Usage=FLASHONLY|Rotation=90.000|XOffset=0mil|YOffset=0mil|HoleType=Round|Shape=RoundedRectangle|*
%AMROUNDEDRECTD14*
21,1,0.07835,0.02084,0,0,90.0*
21,1,0.07438,0.02480,0,0,90.0*
1,1,0.00397,0.01042,0.03719*
1,1,0.00397,0.01042,-0.03719*
1,1,0.00397,-0.01042,-0.03719*
1,1,0.00397,-0.01042,0.03719*
%
%ADD14ROUNDEDRECTD14*%
%ADD15R,0.05906X0.10236*%
%ADD16R,0.15748X0.07874*%
%ADD17R,0.06693X0.04331*%
%ADD18R,0.02756X0.03937*%
%ADD33R,0.15748X0.11417*%
%ADD34R,0.37795X0.23622*%
%ADD35C,0.01181*%
%ADD36C,0.03937*%
%ADD37C,0.01968*%
%ADD38C,0.00000*%
%ADD39C,0.02756*%
%ADD40C,0.03150*%
%ADD41C,0.02362*%
%ADD42C,0.15748*%
%ADD43C,0.05906*%
%ADD44R,0.05906X0.05906*%
%ADD45R,0.05906X0.05906*%
%ADD46C,0.12598*%
%ADD47C,0.05000*%
G36*
X52559Y204724D02*
X52796Y204224D01*
X52148Y203434D01*
X51380Y201998D01*
X50907Y200440D01*
X50747Y198819D01*
X50907Y197198D01*
X51380Y195640D01*
X52148Y194203D01*
X53181Y192945D01*
X54440Y191911D01*
X55876Y191144D01*
X56335Y191004D01*
X56229Y190514D01*
X56102Y190531D01*
X54936Y190377D01*
X53849Y189927D01*
X52915Y189211D01*
X52199Y188277D01*
X51749Y187190D01*
X51595Y186024D01*
X51695Y185266D01*
X50734Y184305D01*
X50324Y183771D01*
X50066Y183148D01*
X49978Y182480D01*
Y181299D01*
X48425D01*
Y167126D01*
X54525D01*
X54624Y166626D01*
X53849Y166305D01*
X52915Y165588D01*
X52199Y164655D01*
X51749Y163568D01*
X51615Y162548D01*
X50734Y161668D01*
X50324Y161133D01*
X50066Y160511D01*
X49978Y159843D01*
Y158661D01*
X48425D01*
Y144488D01*
X56693D01*
Y157972D01*
X57269Y158048D01*
X58356Y158498D01*
X59289Y159215D01*
X60006Y160148D01*
X60456Y161235D01*
X60609Y162402D01*
X60456Y163568D01*
X60006Y164655D01*
X59289Y165588D01*
X58356Y166305D01*
X57269Y166755D01*
X57051Y166784D01*
X56693Y167126D01*
X56693Y167335D01*
Y181299D01*
X57051Y181641D01*
X57269Y181670D01*
X58356Y182120D01*
X59289Y182837D01*
X60006Y183770D01*
X60456Y184857D01*
X60609Y186024D01*
X60456Y187190D01*
X60006Y188277D01*
X59289Y189211D01*
X58356Y189927D01*
X57878Y190125D01*
X58001Y190615D01*
X59055Y190511D01*
X60676Y190671D01*
X62234Y191144D01*
X63671Y191911D01*
X64929Y192945D01*
X65664Y193840D01*
X66142Y193898D01*
Y193898D01*
X66142Y193898D01*
X75984D01*
Y196914D01*
X76484Y197013D01*
X76764Y196337D01*
X77553Y195309D01*
X78581Y194520D01*
X79778Y194024D01*
X81063Y193855D01*
X82348Y194024D01*
X83545Y194520D01*
X84573Y195309D01*
X85362Y196337D01*
X85806Y197411D01*
X85807Y197411D01*
X86319D01*
X86320Y197411D01*
X86764Y196337D01*
X87553Y195309D01*
X88581Y194520D01*
X89778Y194024D01*
X91063Y193855D01*
X92348Y194024D01*
X93545Y194520D01*
X94573Y195309D01*
X95362Y196337D01*
X95858Y197534D01*
X96027Y198819D01*
X95858Y200104D01*
X95362Y201301D01*
X94573Y202329D01*
X93545Y203118D01*
X92348Y203613D01*
X91063Y203783D01*
X89778Y203613D01*
X88581Y203118D01*
X87553Y202329D01*
X86764Y201301D01*
X86320Y200227D01*
X86319Y200227D01*
X85807D01*
X85806Y200227D01*
X85362Y201301D01*
X84573Y202329D01*
X83545Y203118D01*
X82348Y203613D01*
X81063Y203783D01*
X79778Y203613D01*
X78581Y203118D01*
X77553Y202329D01*
X76764Y201301D01*
X76484Y200625D01*
X75984Y200724D01*
Y203740D01*
X66142D01*
X66142Y203740D01*
Y203740D01*
X65651Y203814D01*
X65314Y204224D01*
X65551Y204724D01*
X248031Y204724D01*
X251969Y200787D01*
Y153543D01*
X259019Y146493D01*
X258792Y146013D01*
X257874Y146103D01*
X256253Y145943D01*
X254695Y145471D01*
X253258Y144703D01*
X252000Y143670D01*
X250966Y142411D01*
X250199Y140975D01*
X249726Y139416D01*
X249566Y137795D01*
X249726Y136175D01*
X250199Y134616D01*
X250966Y133180D01*
X252000Y131921D01*
X253258Y130888D01*
X254695Y130120D01*
X256253Y129647D01*
X257874Y129488D01*
X259495Y129647D01*
X261053Y130120D01*
X262490Y130888D01*
X263280Y131536D01*
X263779Y131300D01*
Y34055D01*
X263280Y33819D01*
X262490Y34467D01*
X261053Y35234D01*
X259495Y35707D01*
X257874Y35867D01*
X256253Y35707D01*
X254695Y35234D01*
X253258Y34467D01*
X252000Y33434D01*
X250966Y32175D01*
X250199Y30738D01*
X249726Y29180D01*
X249566Y27559D01*
X249726Y25938D01*
X250199Y24380D01*
X250966Y22944D01*
X252000Y21685D01*
X253258Y20652D01*
X254695Y19884D01*
X256253Y19411D01*
X257874Y19251D01*
X259495Y19411D01*
X261053Y19884D01*
X262490Y20652D01*
X263280Y21300D01*
X263779Y21063D01*
Y19685D01*
X248031Y3937D01*
X70421Y3937D01*
X70230Y4399D01*
X71301Y5471D01*
X71736Y6122D01*
X71889Y6890D01*
Y22811D01*
X107027Y52127D01*
X132874D01*
X133642Y52280D01*
X134293Y52715D01*
X135277Y53699D01*
X135713Y54350D01*
X135865Y55118D01*
Y56630D01*
X136365Y57071D01*
X144382D01*
Y62008D01*
Y66945D01*
X137197D01*
X136951Y67445D01*
X137297Y67896D01*
X137694Y68854D01*
X137829Y69882D01*
Y80675D01*
X147638D01*
X148666Y80810D01*
X149623Y81207D01*
X150446Y81838D01*
X153398Y84790D01*
X153442Y84847D01*
X153915Y84686D01*
Y81693D01*
X154003Y81025D01*
X154261Y80402D01*
X154671Y79868D01*
X193057Y41482D01*
X193591Y41072D01*
X194214Y40814D01*
X194882Y40726D01*
X201772D01*
X202440Y40814D01*
X203062Y41072D01*
X203362Y40674D01*
X194797Y32109D01*
X165512D01*
X164844Y32021D01*
X164221Y31763D01*
X163687Y31353D01*
X147145Y14811D01*
X145984Y14964D01*
X144700Y14795D01*
X143502Y14299D01*
X142474Y13510D01*
X141685Y12482D01*
X141241Y11408D01*
X141240Y11408D01*
X140728D01*
X140728Y11408D01*
X140283Y12482D01*
X139494Y13510D01*
X138466Y14299D01*
X137269Y14795D01*
X135984Y14964D01*
X134699Y14795D01*
X133502Y14299D01*
X132474Y13510D01*
X131685Y12482D01*
X131241Y11408D01*
X131240Y11408D01*
X130728D01*
X130728Y11408D01*
X130283Y12482D01*
X129494Y13510D01*
X128466Y14299D01*
X127269Y14795D01*
X125984Y14964D01*
X124699Y14795D01*
X123502Y14299D01*
X122474Y13510D01*
X121686Y12482D01*
X121241Y11408D01*
X121240Y11408D01*
X120728D01*
X120728Y11408D01*
X120283Y12482D01*
X119494Y13510D01*
X118466Y14299D01*
X117269Y14795D01*
X115984Y14964D01*
X114699Y14795D01*
X113502Y14299D01*
X112474Y13510D01*
X111686Y12482D01*
X111406Y11806D01*
X110906Y11905D01*
Y14921D01*
X101063D01*
Y5079D01*
X110906D01*
Y8095D01*
X111406Y8194D01*
X111686Y7518D01*
X112474Y6490D01*
X113502Y5701D01*
X114699Y5205D01*
X115984Y5036D01*
X117269Y5205D01*
X118466Y5701D01*
X119494Y6490D01*
X120283Y7518D01*
X120728Y8592D01*
X120728Y8592D01*
X121240D01*
X121241Y8592D01*
X121686Y7518D01*
X122474Y6490D01*
X123502Y5701D01*
X124699Y5205D01*
X125984Y5036D01*
X127269Y5205D01*
X128466Y5701D01*
X129494Y6490D01*
X130283Y7518D01*
X130728Y8592D01*
X130728Y8592D01*
X131240D01*
X131241Y8592D01*
X131685Y7518D01*
X132474Y6490D01*
X133502Y5701D01*
X134699Y5205D01*
X135984Y5036D01*
X137269Y5205D01*
X138466Y5701D01*
X139494Y6490D01*
X140283Y7518D01*
X140728Y8592D01*
X140728Y8592D01*
X141240D01*
X141241Y8592D01*
X141685Y7518D01*
X142474Y6490D01*
X143502Y5701D01*
X144700Y5205D01*
X145984Y5036D01*
X147269Y5205D01*
X148466Y5701D01*
X149494Y6490D01*
X150283Y7518D01*
X150779Y8715D01*
X150948Y10000D01*
X150795Y11161D01*
X166581Y26946D01*
X195866D01*
X196534Y27034D01*
X197157Y27292D01*
X197691Y27702D01*
X226235Y56246D01*
X226645Y56780D01*
X226903Y57403D01*
X226991Y58071D01*
Y107283D01*
X226903Y107951D01*
X226645Y108574D01*
X226235Y109109D01*
X223245Y112099D01*
X223296Y112490D01*
X223234Y112960D01*
X223708Y113193D01*
X233639Y103262D01*
Y50197D01*
X233727Y49529D01*
X233985Y48906D01*
X234395Y48372D01*
X239687Y43080D01*
X239587Y42323D01*
X239741Y41156D01*
X240191Y40069D01*
X240908Y39136D01*
X241841Y38420D01*
X242928Y37969D01*
X244094Y37816D01*
X245261Y37969D01*
X246348Y38420D01*
X247281Y39136D01*
X247998Y40069D01*
X248448Y41156D01*
X248602Y42323D01*
X248448Y43489D01*
X247998Y44576D01*
X247281Y45510D01*
X246348Y46226D01*
X245261Y46676D01*
X244094Y46830D01*
X243337Y46730D01*
X238802Y51266D01*
Y104331D01*
X238714Y104999D01*
X238456Y105621D01*
X238046Y106156D01*
X229730Y114472D01*
X229951Y114920D01*
X230315Y114873D01*
X231482Y115026D01*
X232569Y115476D01*
X233502Y116192D01*
X234218Y117126D01*
X234668Y118213D01*
X234822Y119379D01*
X234668Y120546D01*
X234218Y121633D01*
X233502Y122566D01*
X232569Y123283D01*
X231482Y123733D01*
X230619Y123846D01*
X228644Y125822D01*
Y194596D01*
X229573Y195309D01*
X230362Y196337D01*
X230806Y197411D01*
X230807Y197411D01*
X231319D01*
X231320Y197411D01*
X231764Y196337D01*
X232553Y195309D01*
X233581Y194520D01*
X234778Y194024D01*
X236063Y193855D01*
X237348Y194024D01*
X238545Y194520D01*
X239573Y195309D01*
X240362Y196337D01*
X240806Y197411D01*
X240807Y197411D01*
X241319D01*
X241320Y197411D01*
X241764Y196337D01*
X242553Y195309D01*
X243581Y194520D01*
X244778Y194024D01*
X246063Y193855D01*
X247348Y194024D01*
X248545Y194520D01*
X249573Y195309D01*
X250362Y196337D01*
X250858Y197534D01*
X251027Y198819D01*
X250858Y200104D01*
X250362Y201301D01*
X249573Y202329D01*
X248545Y203118D01*
X247348Y203613D01*
X246063Y203783D01*
X244778Y203613D01*
X243581Y203118D01*
X242553Y202329D01*
X241764Y201301D01*
X241320Y200227D01*
X241319Y200227D01*
X240807D01*
X240806Y200227D01*
X240362Y201301D01*
X239573Y202329D01*
X238545Y203118D01*
X237348Y203613D01*
X236063Y203783D01*
X234778Y203613D01*
X233581Y203118D01*
X232553Y202329D01*
X231764Y201301D01*
X231320Y200227D01*
X231319Y200227D01*
X230807D01*
X230806Y200227D01*
X230362Y201301D01*
X229573Y202329D01*
X228545Y203118D01*
X227348Y203613D01*
X226063Y203783D01*
X224778Y203613D01*
X223581Y203118D01*
X222553Y202329D01*
X221764Y201301D01*
X221320Y200227D01*
X221319Y200227D01*
X220807D01*
X220806Y200227D01*
X220362Y201301D01*
X219573Y202329D01*
X218545Y203118D01*
X217348Y203613D01*
X216063Y203783D01*
X214778Y203613D01*
X213581Y203118D01*
X212553Y202329D01*
X211764Y201301D01*
X211320Y200227D01*
X211319Y200227D01*
X210807D01*
X210806Y200227D01*
X210362Y201301D01*
X209573Y202329D01*
X208545Y203118D01*
X207348Y203613D01*
X206063Y203783D01*
X204778Y203613D01*
X203581Y203118D01*
X202553Y202329D01*
X201764Y201301D01*
X201320Y200227D01*
X201319Y200227D01*
X200807D01*
X200806Y200227D01*
X200362Y201301D01*
X199573Y202329D01*
X198545Y203118D01*
X197348Y203613D01*
X196063Y203783D01*
X194778Y203613D01*
X193581Y203118D01*
X192553Y202329D01*
X191764Y201301D01*
X191320Y200227D01*
X191319Y200227D01*
X190807D01*
X190806Y200227D01*
X190362Y201301D01*
X189573Y202329D01*
X188545Y203118D01*
X187348Y203613D01*
X186063Y203783D01*
X184778Y203613D01*
X183581Y203118D01*
X182553Y202329D01*
X181764Y201301D01*
X181484Y200625D01*
X180984Y200724D01*
Y203740D01*
X171142D01*
Y193898D01*
X180984D01*
Y196914D01*
X181484Y197013D01*
X181764Y196337D01*
X182553Y195309D01*
X183581Y194520D01*
X184778Y194024D01*
X186063Y193855D01*
X187348Y194024D01*
X188545Y194520D01*
X189573Y195309D01*
X190362Y196337D01*
X190806Y197411D01*
X190807Y197411D01*
X191319D01*
X191320Y197411D01*
X191764Y196337D01*
X192553Y195309D01*
X193581Y194520D01*
X194778Y194024D01*
X196063Y193855D01*
X197348Y194024D01*
X198545Y194520D01*
X199573Y195309D01*
X200362Y196337D01*
X200806Y197411D01*
X200807Y197411D01*
X201319D01*
X201320Y197411D01*
X201764Y196337D01*
X202553Y195309D01*
X203581Y194520D01*
X204778Y194024D01*
X206063Y193855D01*
X206845Y193958D01*
X207078Y193484D01*
X205151Y191558D01*
X174213D01*
X173545Y191470D01*
X172922Y191212D01*
X172388Y190802D01*
X164120Y182534D01*
X164014Y182396D01*
X163350Y182352D01*
X154704Y190998D01*
X154170Y191409D01*
X153548Y191666D01*
X152879Y191754D01*
X145799D01*
X143566Y193988D01*
X143558Y194197D01*
X143655Y194605D01*
X144573Y195309D01*
X145362Y196337D01*
X145806Y197411D01*
X145807Y197411D01*
X146319D01*
X146320Y197411D01*
X146764Y196337D01*
X147553Y195309D01*
X148581Y194520D01*
X149778Y194024D01*
X151063Y193855D01*
X152348Y194024D01*
X153545Y194520D01*
X154573Y195309D01*
X155362Y196337D01*
X155806Y197411D01*
X155807Y197411D01*
X156319D01*
X156320Y197411D01*
X156764Y196337D01*
X157553Y195309D01*
X158581Y194520D01*
X159778Y194024D01*
X161063Y193855D01*
X162348Y194024D01*
X163545Y194520D01*
X164573Y195309D01*
X165362Y196337D01*
X165858Y197534D01*
X166027Y198819D01*
X165858Y200104D01*
X165362Y201301D01*
X164573Y202329D01*
X163545Y203118D01*
X162348Y203613D01*
X161063Y203783D01*
X159778Y203613D01*
X158581Y203118D01*
X157553Y202329D01*
X156764Y201301D01*
X156320Y200227D01*
X156319Y200227D01*
X155807D01*
X155806Y200227D01*
X155362Y201301D01*
X154573Y202329D01*
X153545Y203118D01*
X152348Y203613D01*
X151063Y203783D01*
X149778Y203613D01*
X148581Y203118D01*
X147553Y202329D01*
X146764Y201301D01*
X146320Y200227D01*
X146319Y200227D01*
X145807D01*
X145806Y200227D01*
X145362Y201301D01*
X144573Y202329D01*
X143545Y203118D01*
X142348Y203613D01*
X141063Y203783D01*
X139778Y203613D01*
X138581Y203118D01*
X137553Y202329D01*
X136764Y201301D01*
X136320Y200227D01*
X136319Y200227D01*
X135807D01*
X135806Y200227D01*
X135362Y201301D01*
X134573Y202329D01*
X133545Y203118D01*
X132348Y203613D01*
X131063Y203783D01*
X129778Y203613D01*
X128581Y203118D01*
X127553Y202329D01*
X126764Y201301D01*
X126320Y200227D01*
X126319Y200227D01*
X125807D01*
X125806Y200227D01*
X125362Y201301D01*
X124573Y202329D01*
X123545Y203118D01*
X122348Y203613D01*
X121063Y203783D01*
X119778Y203613D01*
X118581Y203118D01*
X117553Y202329D01*
X116764Y201301D01*
X116320Y200227D01*
X116319Y200227D01*
X115807D01*
X115806Y200227D01*
X115362Y201301D01*
X114573Y202329D01*
X113545Y203118D01*
X112348Y203613D01*
X111063Y203783D01*
X109778Y203613D01*
X108581Y203118D01*
X107553Y202329D01*
X106764Y201301D01*
X106268Y200104D01*
X106099Y198819D01*
X106268Y197534D01*
X106764Y196337D01*
X107553Y195309D01*
X108581Y194520D01*
X109778Y194024D01*
X111063Y193855D01*
X112224Y194008D01*
X121963Y184268D01*
X121617Y183912D01*
X121083Y184322D01*
X120460Y184580D01*
X119792Y184668D01*
X77756D01*
X77088Y184580D01*
X76465Y184322D01*
X75931Y183912D01*
X68057Y176038D01*
X67647Y175503D01*
X67389Y174881D01*
X67301Y174213D01*
Y149606D01*
X67389Y148938D01*
X67647Y148316D01*
X68057Y147781D01*
X72351Y143487D01*
X72528Y143228D01*
X72289Y142748D01*
X71746Y142643D01*
X71278Y142736D01*
X70736D01*
Y137795D01*
Y132854D01*
X71278D01*
X71746Y132948D01*
X72432Y132814D01*
X72632Y132514D01*
X72655Y132499D01*
Y132441D01*
X72743Y131773D01*
X73001Y131150D01*
X73411Y130616D01*
X77899Y126128D01*
X78434Y125717D01*
X79056Y125460D01*
X79724Y125372D01*
X111136D01*
X114317Y122191D01*
X114851Y121780D01*
X115474Y121523D01*
X116142Y121435D01*
X122332D01*
X122797Y120829D01*
X123731Y120113D01*
X124818Y119662D01*
X125984Y119509D01*
X127151Y119662D01*
X128238Y120113D01*
X129171Y120829D01*
X129887Y121762D01*
X130338Y122849D01*
X130491Y124016D01*
X130338Y125182D01*
X129887Y126269D01*
X129171Y127203D01*
X128238Y127919D01*
X127468Y128238D01*
X127567Y128738D01*
X132480D01*
Y128150D01*
X143110D01*
Y136417D01*
X132480D01*
Y133900D01*
X112645D01*
X112500Y134076D01*
Y137295D01*
X110236D01*
Y138295D01*
X112500D01*
Y141514D01*
X112499Y141517D01*
X112910Y142017D01*
X126293D01*
X126925Y141755D01*
X127953Y141620D01*
X146072D01*
X146619Y141072D01*
Y93463D01*
X146119Y93430D01*
X146086Y93686D01*
X145635Y94773D01*
X144919Y95707D01*
X144313Y96171D01*
Y97441D01*
X145079D01*
Y105315D01*
X141642D01*
X141142Y105315D01*
X141142Y105815D01*
Y113189D01*
X140376D01*
Y117520D01*
X143110D01*
Y125787D01*
X132480D01*
Y117520D01*
X135214D01*
Y113189D01*
X134449D01*
X134449Y105315D01*
X133949Y105315D01*
X130512D01*
Y101597D01*
X130483Y101378D01*
Y86714D01*
X130419Y86631D01*
X130023Y85673D01*
X129887Y84646D01*
X129952Y84154D01*
X129887Y83661D01*
Y72873D01*
X115989D01*
X108649Y80213D01*
X108605Y80436D01*
X108724Y80845D01*
X108806Y80884D01*
X109195Y80807D01*
X109736D01*
Y85748D01*
Y90689D01*
X109195D01*
X108727Y90596D01*
X108041Y90729D01*
X107840Y91029D01*
X107123Y91508D01*
X106840Y91564D01*
X106890Y92064D01*
X111506D01*
X111970Y91459D01*
X112904Y90742D01*
X113991Y90292D01*
X115157Y90139D01*
X116324Y90292D01*
X117411Y90742D01*
X118344Y91459D01*
X119061Y92392D01*
X119511Y93479D01*
X119665Y94646D01*
X119511Y95812D01*
X119061Y96899D01*
X118344Y97833D01*
X117411Y98549D01*
X116324Y98999D01*
X115157Y99153D01*
X113991Y98999D01*
X112904Y98549D01*
X111970Y97833D01*
X111506Y97227D01*
X101082D01*
X100629Y97414D01*
X99961Y97502D01*
X75236D01*
X74568Y97414D01*
X73946Y97157D01*
X73411Y96746D01*
X73001Y96212D01*
X72743Y95589D01*
X72655Y94921D01*
Y91044D01*
X72632Y91029D01*
X72432Y90729D01*
X71746Y90596D01*
X71278Y90689D01*
X70736D01*
Y85748D01*
Y80807D01*
X71278D01*
X71746Y80900D01*
X72432Y80767D01*
X72632Y80467D01*
X73349Y79988D01*
X74195Y79820D01*
X74442D01*
X74634Y79358D01*
X72660Y77384D01*
X71565D01*
X71100Y77990D01*
X70167Y78706D01*
X69080Y79157D01*
X67913Y79310D01*
X66747Y79157D01*
X65660Y78706D01*
X64726Y77990D01*
X64010Y77057D01*
X63560Y75970D01*
X63406Y74803D01*
X63560Y73637D01*
X64010Y72550D01*
X64726Y71616D01*
X65660Y70900D01*
X65890Y70805D01*
X65791Y70305D01*
X51170D01*
X50482Y70832D01*
X49395Y71283D01*
X48228Y71436D01*
X47062Y71283D01*
X45975Y70832D01*
X45041Y70116D01*
X44325Y69183D01*
X43875Y68096D01*
X43721Y66929D01*
X43875Y65763D01*
X44325Y64676D01*
X45041Y63742D01*
X45975Y63026D01*
X47062Y62576D01*
X48228Y62422D01*
X49395Y62576D01*
X50482Y63026D01*
X51170Y63554D01*
X70712D01*
X70811Y63054D01*
X70581Y62958D01*
X69648Y62242D01*
X68931Y61309D01*
X68481Y60222D01*
X68328Y59055D01*
X68481Y57889D01*
X68931Y56802D01*
X69648Y55868D01*
X70581Y55152D01*
X71668Y54702D01*
X72835Y54548D01*
X74001Y54702D01*
X75088Y55152D01*
X76022Y55868D01*
X76738Y56802D01*
X77188Y57889D01*
X77301Y58748D01*
X91953Y73400D01*
X92491Y73230D01*
X92548Y72933D01*
X92371Y72703D01*
X91921Y71616D01*
X91767Y70450D01*
X91921Y69283D01*
X92371Y68196D01*
X93088Y67263D01*
X94021Y66546D01*
X95108Y66096D01*
X96274Y65943D01*
X97441Y66096D01*
X98528Y66546D01*
X99461Y67263D01*
X100178Y68196D01*
X100628Y69283D01*
X100782Y70450D01*
X100628Y71616D01*
X100178Y72703D01*
X99461Y73637D01*
X98528Y74353D01*
X97817Y74647D01*
Y79813D01*
X98258Y80049D01*
X98349Y79988D01*
X99195Y79820D01*
X101278D01*
X101758Y79915D01*
X102258Y79522D01*
Y67844D01*
X68221Y40741D01*
X66784Y42178D01*
X65962Y42809D01*
X65004Y43206D01*
X63976Y43341D01*
X56693D01*
Y46457D01*
X48425D01*
Y32283D01*
X56693D01*
Y35399D01*
X60755D01*
X60920Y34927D01*
X49931Y26176D01*
X49857Y26089D01*
X49762Y26026D01*
X49606Y25793D01*
X49425Y25578D01*
X49390Y25469D01*
X49327Y25374D01*
X49272Y25099D01*
X49187Y24833D01*
X49196Y24719D01*
X49174Y24606D01*
Y6890D01*
X49327Y6122D01*
X49762Y5471D01*
X50833Y4399D01*
X50642Y3937D01*
X10827D01*
X7516Y7248D01*
Y68914D01*
X8016Y68938D01*
X8016Y68937D01*
X8579Y67081D01*
X9493Y65372D01*
X10723Y63873D01*
X12222Y62643D01*
X13932Y61729D01*
X15787Y61166D01*
X17717Y60976D01*
X19646Y61166D01*
X21501Y61729D01*
X23211Y62643D01*
X24710Y63873D01*
X25940Y65372D01*
X26854Y67081D01*
X27417Y68937D01*
X27607Y70866D01*
X27417Y72796D01*
X26854Y74651D01*
X25940Y76361D01*
X24710Y77859D01*
X23211Y79089D01*
X21501Y80003D01*
X20038Y80447D01*
Y80970D01*
X21501Y81414D01*
X23211Y82328D01*
X24710Y83558D01*
X25940Y85057D01*
X26854Y86766D01*
X27417Y88622D01*
X27607Y90551D01*
X27417Y92481D01*
X26854Y94336D01*
X25940Y96046D01*
X24710Y97545D01*
X23211Y98774D01*
X21501Y99689D01*
X20038Y100132D01*
Y100655D01*
X21501Y101099D01*
X23211Y102013D01*
X24710Y103243D01*
X25940Y104742D01*
X26854Y106451D01*
X27417Y108307D01*
X27607Y110236D01*
X27417Y112166D01*
X26854Y114021D01*
X25940Y115731D01*
X24710Y117230D01*
X23211Y118460D01*
X21501Y119374D01*
X19646Y119936D01*
X17717Y120126D01*
X15787Y119936D01*
X13932Y119374D01*
X12222Y118460D01*
X10723Y117230D01*
X9493Y115731D01*
X8579Y114021D01*
X8016Y112166D01*
X8016Y112164D01*
X7516Y112189D01*
Y200430D01*
X11811Y204724D01*
X52559Y204724D01*
D02*
G37*
G36*
X126320Y197411D02*
X126764Y196337D01*
X127553Y195309D01*
X128581Y194520D01*
X129778Y194024D01*
X131063Y193855D01*
X131841Y193958D01*
X140669Y185130D01*
X140478Y184668D01*
X128864D01*
X120048Y193484D01*
X120281Y193958D01*
X121063Y193855D01*
X122348Y194024D01*
X123545Y194520D01*
X124573Y195309D01*
X125362Y196337D01*
X125806Y197411D01*
X125807Y197411D01*
X126319D01*
X126320Y197411D01*
D02*
G37*
G36*
X126505Y179851D02*
X127127Y179593D01*
X127795Y179506D01*
X148537D01*
X153915Y174128D01*
Y145629D01*
X153442Y145468D01*
X153398Y145525D01*
X150524Y148399D01*
X149702Y149030D01*
X148744Y149426D01*
X147716Y149562D01*
X144711D01*
Y150984D01*
X147047D01*
Y159252D01*
X136417D01*
Y150984D01*
X138754D01*
Y149562D01*
X130931D01*
Y150984D01*
X133268D01*
Y159252D01*
X122638D01*
Y150984D01*
X124974D01*
Y149165D01*
X105236D01*
X104311Y149043D01*
X103449Y148686D01*
X103266Y148545D01*
X102817Y148766D01*
Y151739D01*
X103581Y152325D01*
X104046Y152931D01*
X106586D01*
X107254Y153019D01*
X107877Y153277D01*
X108411Y153687D01*
X111471Y156746D01*
X111881Y157281D01*
X112139Y157904D01*
X112227Y158572D01*
Y162205D01*
X113779D01*
Y176378D01*
X105512D01*
Y162205D01*
X107064D01*
Y159641D01*
X105517Y158093D01*
X104046D01*
X103581Y158699D01*
X102647Y159415D01*
X101560Y159865D01*
X100394Y160019D01*
X99227Y159865D01*
X98140Y159415D01*
X97207Y158699D01*
X96491Y157765D01*
X96040Y156678D01*
X95993Y156323D01*
X95520Y156162D01*
X94959Y156723D01*
X95058Y157480D01*
X94905Y158647D01*
X94454Y159734D01*
X93738Y160667D01*
X92805Y161383D01*
X91718Y161834D01*
X90551Y161987D01*
X89385Y161834D01*
X88298Y161383D01*
X87364Y160667D01*
X86648Y159734D01*
X86524Y159434D01*
X86024Y159533D01*
Y166142D01*
X75394D01*
Y157874D01*
X77143D01*
Y150591D01*
X77231Y149923D01*
X77489Y149300D01*
X77899Y148765D01*
X82487Y144178D01*
X82459Y143932D01*
X82385Y143849D01*
X81946Y143591D01*
X81278Y143723D01*
X79194D01*
X78349Y143555D01*
X78258Y143495D01*
X77817Y143730D01*
Y144252D01*
X77729Y144920D01*
X77472Y145543D01*
X77061Y146077D01*
X72463Y150675D01*
Y173143D01*
X78825Y179506D01*
X118723D01*
X125841Y172388D01*
X126375Y171977D01*
X126998Y171719D01*
X127666Y171632D01*
X132199D01*
X136417Y167413D01*
Y161614D01*
X147047D01*
Y169882D01*
X141249D01*
X135093Y176038D01*
X134558Y176448D01*
X133936Y176706D01*
X133268Y176794D01*
X128735D01*
X125624Y179905D01*
X125970Y180262D01*
X126505Y179851D01*
D02*
G37*
G36*
X86044Y157480D02*
X86056Y157388D01*
X86198Y156314D01*
X86648Y155227D01*
X87364Y154293D01*
X88298Y153577D01*
X89239Y153187D01*
X89171Y152674D01*
X89070Y152661D01*
X87983Y152210D01*
X87049Y151494D01*
X86333Y150561D01*
X85883Y149474D01*
X85803Y148869D01*
X85275Y148690D01*
X82306Y151660D01*
Y157874D01*
X85592D01*
X86044Y157480D01*
D02*
G37*
G36*
X221320Y197411D02*
X221764Y196337D01*
X222553Y195309D01*
X223482Y194596D01*
Y124753D01*
X223570Y124085D01*
X223828Y123462D01*
X224238Y122927D01*
X226154Y121011D01*
X225961Y120546D01*
X225808Y119379D01*
X225856Y119015D01*
X225407Y118794D01*
X218644Y125557D01*
Y194596D01*
X219573Y195309D01*
X220362Y196337D01*
X220806Y197411D01*
X220807Y197411D01*
X221319D01*
X221320Y197411D01*
D02*
G37*
G36*
X213482Y191934D02*
Y124488D01*
X213570Y123820D01*
X213828Y123198D01*
X214238Y122663D01*
X219492Y117409D01*
X219259Y116935D01*
X218789Y116997D01*
X218032Y116897D01*
X211057Y123872D01*
X210522Y124283D01*
X209899Y124540D01*
X209231Y124628D01*
X183156D01*
X180905Y126879D01*
Y139961D01*
X179353D01*
Y145473D01*
X180905D01*
Y159646D01*
X179459D01*
Y165657D01*
X181012D01*
Y179831D01*
X172744D01*
Y165657D01*
X174297D01*
Y159646D01*
X172638D01*
Y145473D01*
X174190D01*
Y139961D01*
X172638D01*
Y125787D01*
X174754D01*
X174946Y125537D01*
X180262Y120222D01*
X180796Y119812D01*
X181419Y119554D01*
X182087Y119466D01*
X208162D01*
X214382Y113247D01*
X214282Y112490D01*
X214436Y111323D01*
X214886Y110236D01*
X215602Y109303D01*
X216535Y108587D01*
X217622Y108136D01*
X218789Y107983D01*
X219912Y108131D01*
X221828Y106214D01*
Y90124D01*
X221328Y89975D01*
X220707Y90785D01*
X219773Y91502D01*
X218686Y91952D01*
X217520Y92106D01*
X216353Y91952D01*
X215266Y91502D01*
X214333Y90785D01*
X213868Y90180D01*
X170361D01*
X165376Y95164D01*
Y100005D01*
X165838Y100196D01*
X167059Y98976D01*
X166906Y98607D01*
X166753Y97441D01*
X166906Y96274D01*
X167357Y95187D01*
X168073Y94254D01*
X169006Y93538D01*
X170093Y93088D01*
X171260Y92934D01*
X172426Y93088D01*
X173513Y93538D01*
X174447Y94254D01*
X175163Y95187D01*
X175613Y96274D01*
X175767Y97441D01*
X175613Y98607D01*
X175163Y99695D01*
X174447Y100628D01*
X173513Y101344D01*
X172426Y101794D01*
X171407Y101929D01*
X168526Y104809D01*
Y179639D01*
X175282Y186395D01*
X206221D01*
X206889Y186483D01*
X207511Y186741D01*
X208046Y187151D01*
X213020Y192126D01*
X213482Y191934D01*
D02*
G37*
G36*
X8016Y108307D02*
X8579Y106451D01*
X9493Y104742D01*
X10723Y103243D01*
X12222Y102013D01*
X13932Y101099D01*
X15395Y100655D01*
Y100132D01*
X13932Y99689D01*
X12222Y98774D01*
X10723Y97545D01*
X9493Y96046D01*
X8579Y94336D01*
X8016Y92481D01*
X8016Y92479D01*
X7516Y92504D01*
Y108284D01*
X8016Y108308D01*
X8016Y108307D01*
D02*
G37*
G36*
X221828Y85073D02*
Y59140D01*
X209508Y46820D01*
X209110Y47120D01*
X209368Y47743D01*
X209456Y48411D01*
Y55403D01*
X210062Y55868D01*
X210778Y56802D01*
X211229Y57889D01*
X211382Y59055D01*
X211229Y60222D01*
X210778Y61309D01*
X210062Y62242D01*
X209129Y62958D01*
X208042Y63409D01*
X206875Y63562D01*
X205709Y63409D01*
X204622Y62958D01*
X203688Y62242D01*
X202972Y61309D01*
X202522Y60222D01*
X202368Y59055D01*
X202522Y57889D01*
X202647Y57586D01*
X202264Y57203D01*
X201540Y57503D01*
X200373Y57657D01*
X199207Y57503D01*
X198120Y57053D01*
X197815Y56819D01*
X170079Y84555D01*
X170271Y85017D01*
X213868D01*
X214333Y84412D01*
X215266Y83695D01*
X216353Y83245D01*
X217520Y83091D01*
X218686Y83245D01*
X219773Y83695D01*
X220707Y84412D01*
X221328Y85222D01*
X221828Y85073D01*
D02*
G37*
G36*
X8016Y88622D02*
X8579Y86766D01*
X9493Y85057D01*
X10723Y83558D01*
X12222Y82328D01*
X13932Y81414D01*
X15395Y80970D01*
Y80447D01*
X13932Y80003D01*
X12222Y79089D01*
X10723Y77859D01*
X9493Y76361D01*
X8579Y74651D01*
X8016Y72796D01*
X8016Y72794D01*
X7516Y72819D01*
Y88599D01*
X8016Y88623D01*
X8016Y88622D01*
D02*
G37*
G36*
X196010Y51324D02*
X196424Y51006D01*
X196470Y50896D01*
X197186Y49963D01*
X198120Y49246D01*
X199207Y48796D01*
X200373Y48643D01*
X201540Y48796D01*
X202627Y49246D01*
X203560Y49963D01*
X203794Y50267D01*
X204294Y50098D01*
Y49480D01*
X200703Y45888D01*
X195951D01*
X159077Y82762D01*
Y87603D01*
X159539Y87795D01*
X196010Y51324D01*
D02*
G37*
G36*
X106299Y79724D02*
X115157Y70866D01*
X133858D01*
X133858Y55118D01*
X132874Y54134D01*
X106299D01*
X69882Y23751D01*
Y6890D01*
X67756Y4764D01*
X53307D01*
X51181Y6890D01*
Y24606D01*
X104331Y66929D01*
X104331Y89567D01*
X106299D01*
X106299Y79724D01*
D02*
G37*
%LPC*%
G36*
X46063Y181299D02*
X37795D01*
Y167126D01*
X39348D01*
Y158661D01*
X37795D01*
Y153592D01*
X37545Y153400D01*
X32624Y148479D01*
X32214Y147944D01*
X31956Y147322D01*
X31868Y146653D01*
Y135542D01*
X31262Y135077D01*
X30546Y134143D01*
X30095Y133056D01*
X29942Y131890D01*
X30095Y130723D01*
X30546Y129636D01*
X31262Y128703D01*
X32195Y127987D01*
X33282Y127536D01*
X34449Y127383D01*
X35615Y127536D01*
X36702Y127987D01*
X37636Y128703D01*
X38352Y129636D01*
X38802Y130723D01*
X38956Y131890D01*
X38802Y133056D01*
X38352Y134143D01*
X37636Y135077D01*
X37030Y135542D01*
Y145538D01*
X37330Y145781D01*
X37795Y145577D01*
Y144488D01*
X46063D01*
Y158661D01*
X44510D01*
Y167126D01*
X46063D01*
Y181299D01*
D02*
G37*
G36*
X243110Y172402D02*
X233268D01*
Y162559D01*
X236284D01*
X236383Y162059D01*
X235707Y161779D01*
X234679Y160990D01*
X233890Y159962D01*
X233394Y158765D01*
X233225Y157480D01*
X233394Y156196D01*
X233890Y154999D01*
X234679Y153970D01*
X235707Y153182D01*
X236781Y152737D01*
X236781Y152736D01*
Y152225D01*
X236781Y152224D01*
X235707Y151779D01*
X234679Y150990D01*
X233890Y149962D01*
X233394Y148765D01*
X233225Y147480D01*
X233394Y146196D01*
X233890Y144999D01*
X234679Y143970D01*
X235707Y143182D01*
X236904Y142686D01*
X238189Y142517D01*
X239474Y142686D01*
X240671Y143182D01*
X241699Y143970D01*
X242488Y144999D01*
X242984Y146196D01*
X243153Y147480D01*
X242984Y148765D01*
X242488Y149962D01*
X241699Y150990D01*
X240671Y151779D01*
X239597Y152224D01*
X239597Y152225D01*
Y152736D01*
X239597Y152737D01*
X240671Y153182D01*
X241699Y153970D01*
X242488Y154999D01*
X242984Y156196D01*
X243153Y157480D01*
X242984Y158765D01*
X242488Y159962D01*
X241699Y160990D01*
X240671Y161779D01*
X239995Y162059D01*
X240094Y162559D01*
X243110D01*
Y172402D01*
D02*
G37*
G36*
X69736Y142736D02*
X69195D01*
X68727Y142643D01*
X68331Y142378D01*
X68066Y141982D01*
X67973Y141514D01*
X67500D01*
X67407Y141982D01*
X67142Y142378D01*
X66746Y142643D01*
X66278Y142736D01*
X65736D01*
Y137795D01*
Y132854D01*
X66278D01*
X66746Y132948D01*
X67142Y133212D01*
X67407Y133609D01*
X67500Y134076D01*
X67973D01*
X68066Y133609D01*
X68331Y133212D01*
X68727Y132948D01*
X69195Y132854D01*
X69736D01*
Y137795D01*
Y142736D01*
D02*
G37*
G36*
X64736D02*
X64195D01*
X63727Y142643D01*
X63331Y142378D01*
X63066Y141982D01*
X63023Y141766D01*
X51181D01*
X50153Y141631D01*
X49196Y141234D01*
X48373Y140603D01*
X42468Y134698D01*
X41837Y133875D01*
X41440Y132917D01*
X41305Y131890D01*
Y111221D01*
Y87275D01*
X35578Y81548D01*
X34947Y80726D01*
X34550Y79768D01*
X34415Y78740D01*
Y58096D01*
X22638D01*
X22638Y58096D01*
X21867Y57995D01*
X21149Y57697D01*
X20532Y57224D01*
X20532Y57224D01*
X13642Y50334D01*
X13169Y49718D01*
X12871Y48999D01*
X12770Y48228D01*
Y46472D01*
X11795D01*
Y40854D01*
X15748D01*
X19701D01*
Y46472D01*
X18726D01*
Y46995D01*
X23871Y52140D01*
X35800D01*
X36400Y51679D01*
X37358Y51282D01*
X38386Y51147D01*
X55442D01*
X59200Y47389D01*
X60022Y46758D01*
X60957Y46371D01*
X61337Y45875D01*
X62068Y45314D01*
X62919Y44962D01*
X63333Y44907D01*
Y48372D01*
X63833D01*
Y48872D01*
X67297D01*
X67243Y49285D01*
X66890Y50137D01*
X66329Y50868D01*
X65834Y51248D01*
X65447Y52182D01*
X64816Y53005D01*
X59895Y57926D01*
X59072Y58557D01*
X58114Y58954D01*
X57087Y59089D01*
X42357D01*
Y77095D01*
X47038Y81777D01*
X63023D01*
X63066Y81561D01*
X63331Y81165D01*
X63727Y80900D01*
X64195Y80807D01*
X64736D01*
Y85748D01*
Y90689D01*
X64195D01*
X63727Y90596D01*
X63331Y90331D01*
X63066Y89934D01*
X63023Y89719D01*
X49247D01*
Y107801D01*
X53764D01*
Y105063D01*
X62138D01*
Y111772D01*
Y118480D01*
X53764D01*
Y115743D01*
X49247D01*
Y130245D01*
X52826Y133824D01*
X63023D01*
X63066Y133609D01*
X63331Y133212D01*
X63727Y132948D01*
X64195Y132854D01*
X64736D01*
Y137795D01*
Y142736D01*
D02*
G37*
G36*
X238189Y132444D02*
X236904Y132275D01*
X235707Y131779D01*
X234679Y130990D01*
X233890Y129962D01*
X233394Y128765D01*
X233225Y127480D01*
X233394Y126196D01*
X233890Y124998D01*
X234679Y123970D01*
X234867Y123826D01*
X235065Y123569D01*
X235599Y123158D01*
X236222Y122900D01*
X236462Y122869D01*
X236904Y122686D01*
X238189Y122517D01*
X239474Y122686D01*
X240671Y123182D01*
X241699Y123970D01*
X242488Y124998D01*
X242984Y126196D01*
X243153Y127480D01*
X242984Y128765D01*
X242488Y129962D01*
X241699Y130990D01*
X240671Y131779D01*
X239474Y132275D01*
X238189Y132444D01*
D02*
G37*
G36*
X121709Y118480D02*
X113335D01*
Y112272D01*
X121709D01*
Y118480D01*
D02*
G37*
G36*
Y111272D02*
X113335D01*
Y105063D01*
X121709D01*
Y111272D01*
D02*
G37*
G36*
X107634Y124583D02*
X88236D01*
Y111772D01*
Y98961D01*
X107634D01*
Y105063D01*
X112335D01*
Y111772D01*
Y118480D01*
X107634D01*
Y124583D01*
D02*
G37*
G36*
X87236D02*
X67839D01*
Y118480D01*
X63138D01*
Y111772D01*
Y105063D01*
X67839D01*
Y98961D01*
X87236D01*
Y111772D01*
Y124583D01*
D02*
G37*
G36*
X69736Y90689D02*
X69195D01*
X68727Y90596D01*
X68331Y90331D01*
X68066Y89934D01*
X67973Y89467D01*
X67500D01*
X67407Y89934D01*
X67142Y90331D01*
X66746Y90596D01*
X66278Y90689D01*
X65736D01*
Y85748D01*
Y80807D01*
X66278D01*
X66746Y80900D01*
X67142Y81165D01*
X67407Y81561D01*
X67500Y82029D01*
X67973D01*
X68066Y81561D01*
X68331Y81165D01*
X68727Y80900D01*
X69195Y80807D01*
X69736D01*
Y85748D01*
Y90689D01*
D02*
G37*
G36*
X111278D02*
X110736D01*
Y86248D01*
X112500D01*
Y89467D01*
X112407Y89934D01*
X112142Y90331D01*
X111746Y90596D01*
X111278Y90689D01*
D02*
G37*
G36*
X112500Y85248D02*
X110736D01*
Y80807D01*
X111278D01*
X111746Y80900D01*
X112142Y81165D01*
X112407Y81561D01*
X112500Y82029D01*
Y85248D01*
D02*
G37*
G36*
X153756Y66945D02*
X145382D01*
Y62508D01*
X153756D01*
Y66945D01*
D02*
G37*
G36*
Y61508D02*
X145382D01*
Y57071D01*
X153756D01*
Y61508D01*
D02*
G37*
G36*
X67297Y47872D02*
X64333D01*
Y44907D01*
X64747Y44962D01*
X65598Y45314D01*
X66329Y45875D01*
X66890Y46607D01*
X67243Y47458D01*
X67297Y47872D01*
D02*
G37*
G36*
X141248Y43819D02*
Y40854D01*
X144212D01*
X144158Y41268D01*
X143805Y42119D01*
X143244Y42851D01*
X142513Y43412D01*
X141662Y43764D01*
X141248Y43819D01*
D02*
G37*
G36*
X140248D02*
X139834Y43764D01*
X138983Y43412D01*
X138252Y42851D01*
X137691Y42119D01*
X137338Y41268D01*
X137284Y40854D01*
X140248D01*
Y43819D01*
D02*
G37*
G36*
X176181Y43334D02*
Y40370D01*
X179146D01*
X179091Y40784D01*
X178738Y41635D01*
X178177Y42366D01*
X177446Y42927D01*
X176595Y43280D01*
X176181Y43334D01*
D02*
G37*
G36*
X175181D02*
X174767Y43280D01*
X173916Y42927D01*
X173185Y42366D01*
X172624Y41635D01*
X172271Y40784D01*
X172217Y40370D01*
X175181D01*
Y43334D01*
D02*
G37*
G36*
X144212Y39854D02*
X141248D01*
Y36890D01*
X141662Y36944D01*
X142513Y37297D01*
X143244Y37858D01*
X143805Y38589D01*
X144158Y39441D01*
X144212Y39854D01*
D02*
G37*
G36*
X140248D02*
X137284D01*
X137338Y39441D01*
X137691Y38589D01*
X138252Y37858D01*
X138983Y37297D01*
X139834Y36944D01*
X140248Y36890D01*
Y39854D01*
D02*
G37*
G36*
X179146Y39370D02*
X176181D01*
Y36406D01*
X176595Y36460D01*
X177446Y36813D01*
X178177Y37374D01*
X178738Y38105D01*
X179091Y38956D01*
X179146Y39370D01*
D02*
G37*
G36*
X175181D02*
X172217D01*
X172271Y38956D01*
X172624Y38105D01*
X173185Y37374D01*
X173916Y36813D01*
X174767Y36460D01*
X175181Y36406D01*
Y39370D01*
D02*
G37*
G36*
X19701Y39854D02*
X16248D01*
Y34236D01*
X19701D01*
Y39854D01*
D02*
G37*
G36*
X15248D02*
X11795D01*
Y34236D01*
X15248D01*
Y39854D01*
D02*
G37*
G36*
X32480Y47441D02*
X22638D01*
Y33268D01*
X32480D01*
Y36789D01*
X37795D01*
Y32283D01*
X46063D01*
Y37988D01*
X46133Y38080D01*
X46391Y38702D01*
X46479Y39370D01*
X46391Y40038D01*
X46133Y40661D01*
X46063Y40752D01*
Y46457D01*
X37795D01*
Y41951D01*
X32480D01*
Y47441D01*
D02*
G37*
G36*
X42823Y30039D02*
Y27075D01*
X45787D01*
X45733Y27488D01*
X45380Y28340D01*
X44819Y29071D01*
X44088Y29632D01*
X43237Y29985D01*
X42823Y30039D01*
D02*
G37*
G36*
X41823D02*
X41409Y29985D01*
X40558Y29632D01*
X39827Y29071D01*
X39266Y28340D01*
X38913Y27488D01*
X38859Y27075D01*
X41823D01*
Y30039D01*
D02*
G37*
G36*
X45787Y26075D02*
X42823D01*
Y23110D01*
X43237Y23165D01*
X44088Y23518D01*
X44819Y24079D01*
X45380Y24810D01*
X45733Y25661D01*
X45787Y26075D01*
D02*
G37*
G36*
X41823D02*
X38859D01*
X38913Y25661D01*
X39266Y24810D01*
X39827Y24079D01*
X40558Y23518D01*
X41409Y23165D01*
X41823Y23110D01*
Y26075D01*
D02*
G37*
G36*
X246063Y14964D02*
X244778Y14795D01*
X243581Y14299D01*
X242553Y13510D01*
X241764Y12482D01*
X241320Y11408D01*
X241319Y11408D01*
X240807D01*
X240806Y11408D01*
X240362Y12482D01*
X239573Y13510D01*
X238545Y14299D01*
X237348Y14795D01*
X236063Y14964D01*
X234778Y14795D01*
X233581Y14299D01*
X232553Y13510D01*
X231764Y12482D01*
X231320Y11408D01*
X231319Y11408D01*
X230807D01*
X230806Y11408D01*
X230362Y12482D01*
X229573Y13510D01*
X228545Y14299D01*
X227348Y14795D01*
X226063Y14964D01*
X224778Y14795D01*
X223581Y14299D01*
X222553Y13510D01*
X221764Y12482D01*
X221320Y11408D01*
X221319Y11408D01*
X220807D01*
X220806Y11408D01*
X220362Y12482D01*
X219573Y13510D01*
X218545Y14299D01*
X217348Y14795D01*
X216063Y14964D01*
X214778Y14795D01*
X213581Y14299D01*
X212553Y13510D01*
X211764Y12482D01*
X211320Y11408D01*
X211319Y11408D01*
X210807D01*
X210806Y11408D01*
X210362Y12482D01*
X209573Y13510D01*
X208545Y14299D01*
X207348Y14795D01*
X206063Y14964D01*
X204778Y14795D01*
X203581Y14299D01*
X202553Y13510D01*
X201764Y12482D01*
X201484Y11806D01*
X200984Y11905D01*
Y14921D01*
X191142D01*
Y5079D01*
X200984D01*
Y8095D01*
X201484Y8194D01*
X201764Y7518D01*
X202553Y6490D01*
X203581Y5701D01*
X204778Y5205D01*
X206063Y5036D01*
X207348Y5205D01*
X208545Y5701D01*
X209573Y6490D01*
X210362Y7518D01*
X210806Y8592D01*
X210807Y8592D01*
X211319D01*
X211320Y8592D01*
X211764Y7518D01*
X212553Y6490D01*
X213581Y5701D01*
X214778Y5205D01*
X216063Y5036D01*
X217348Y5205D01*
X218545Y5701D01*
X219573Y6490D01*
X220362Y7518D01*
X220806Y8592D01*
X220807Y8592D01*
X221319D01*
X221320Y8592D01*
X221764Y7518D01*
X222553Y6490D01*
X223581Y5701D01*
X224778Y5205D01*
X226063Y5036D01*
X227348Y5205D01*
X228545Y5701D01*
X229573Y6490D01*
X230362Y7518D01*
X230806Y8592D01*
X230807Y8592D01*
X231319D01*
X231320Y8592D01*
X231764Y7518D01*
X232553Y6490D01*
X233581Y5701D01*
X234778Y5205D01*
X236063Y5036D01*
X237348Y5205D01*
X238545Y5701D01*
X239573Y6490D01*
X240362Y7518D01*
X240806Y8592D01*
X240807Y8592D01*
X241319D01*
X241320Y8592D01*
X241764Y7518D01*
X242553Y6490D01*
X243581Y5701D01*
X244778Y5205D01*
X246063Y5036D01*
X247348Y5205D01*
X248545Y5701D01*
X249573Y6490D01*
X250362Y7518D01*
X250858Y8715D01*
X251027Y10000D01*
X250858Y11285D01*
X250362Y12482D01*
X249573Y13510D01*
X248545Y14299D01*
X247348Y14795D01*
X246063Y14964D01*
D02*
G37*
G36*
X175984D02*
X174699Y14795D01*
X173502Y14299D01*
X172474Y13510D01*
X171686Y12482D01*
X171190Y11285D01*
X171020Y10000D01*
X171190Y8715D01*
X171686Y7518D01*
X172474Y6490D01*
X173502Y5701D01*
X174699Y5205D01*
X175984Y5036D01*
X177269Y5205D01*
X178466Y5701D01*
X179494Y6490D01*
X180283Y7518D01*
X180779Y8715D01*
X180948Y10000D01*
X180779Y11285D01*
X180283Y12482D01*
X179494Y13510D01*
X178466Y14299D01*
X177269Y14795D01*
X175984Y14964D01*
D02*
G37*
G36*
X85055Y175803D02*
X81209D01*
Y173138D01*
X85055D01*
Y175803D01*
D02*
G37*
G36*
X80209D02*
X76362D01*
Y173138D01*
X80209D01*
Y175803D01*
D02*
G37*
G36*
X102181Y175409D02*
X99516D01*
Y169791D01*
X102181D01*
Y175409D01*
D02*
G37*
G36*
X98516D02*
X95850D01*
Y169791D01*
X98516D01*
Y175409D01*
D02*
G37*
G36*
X85055Y172138D02*
X81209D01*
Y169472D01*
X85055D01*
Y172138D01*
D02*
G37*
G36*
X80209D02*
X76362D01*
Y169472D01*
X80209D01*
Y172138D01*
D02*
G37*
G36*
X132299Y168913D02*
X128453D01*
Y166248D01*
X132299D01*
Y168913D01*
D02*
G37*
G36*
X127453D02*
X123606D01*
Y166248D01*
X127453D01*
Y168913D01*
D02*
G37*
G36*
X102181Y168791D02*
X99516D01*
Y163173D01*
X102181D01*
Y168791D01*
D02*
G37*
G36*
X98516D02*
X95850D01*
Y163173D01*
X98516D01*
Y168791D01*
D02*
G37*
G36*
X132299Y165248D02*
X128453D01*
Y162583D01*
X132299D01*
Y165248D01*
D02*
G37*
G36*
X127453D02*
X123606D01*
Y162583D01*
X127453D01*
Y165248D01*
D02*
G37*
G36*
X191642Y179831D02*
X183374D01*
Y165657D01*
X191642D01*
Y170647D01*
X194183D01*
X194648Y170041D01*
X195581Y169325D01*
X196668Y168875D01*
X197835Y168721D01*
X199001Y168875D01*
X200088Y169325D01*
X201022Y170041D01*
X201738Y170975D01*
X202188Y172062D01*
X202342Y173228D01*
X202188Y174395D01*
X201738Y175482D01*
X201022Y176415D01*
X200088Y177132D01*
X199001Y177582D01*
X197835Y177735D01*
X196668Y177582D01*
X195581Y177132D01*
X194648Y176415D01*
X194183Y175810D01*
X191642D01*
Y179831D01*
D02*
G37*
G36*
X191535Y159646D02*
X183268D01*
Y145473D01*
X191535D01*
Y149978D01*
X194183D01*
X194648Y149372D01*
X195581Y148656D01*
X196668Y148206D01*
X197835Y148052D01*
X199001Y148206D01*
X200088Y148656D01*
X201022Y149372D01*
X201738Y150305D01*
X202188Y151393D01*
X202342Y152559D01*
X202188Y153726D01*
X201738Y154813D01*
X201022Y155746D01*
X200088Y156462D01*
X199001Y156913D01*
X197835Y157066D01*
X196668Y156913D01*
X195581Y156462D01*
X194648Y155746D01*
X194183Y155140D01*
X191535D01*
Y159646D01*
D02*
G37*
G36*
X197835Y142302D02*
X196668Y142149D01*
X195581Y141699D01*
X194648Y140982D01*
X193931Y140049D01*
X193481Y138962D01*
X193347Y137942D01*
X191997Y136592D01*
X191535Y136784D01*
Y139961D01*
X183268D01*
Y125787D01*
X191535D01*
Y130293D01*
X191929D01*
X192597Y130381D01*
X193220Y130639D01*
X193754Y131049D01*
X196300Y133594D01*
X196668Y133442D01*
X197835Y133288D01*
X199001Y133442D01*
X200088Y133892D01*
X201022Y134608D01*
X201738Y135542D01*
X202188Y136629D01*
X202342Y137795D01*
X202188Y138962D01*
X201738Y140049D01*
X201022Y140982D01*
X200088Y141699D01*
X199001Y142149D01*
X197835Y142302D01*
D02*
G37*
%LPD*%
D11*
X17717Y70866D02*
X18032D01*
D13*
X99016Y169291D02*
D03*
X109646D02*
D03*
X41929Y39370D02*
D03*
X52559D02*
D03*
X41929Y151575D02*
D03*
X52559D02*
D03*
X41929Y174213D02*
D03*
X52559D02*
D03*
X176772Y132874D02*
D03*
X187402D02*
D03*
X176772Y152559D02*
D03*
X187402D02*
D03*
X176878Y172744D02*
D03*
X187508D02*
D03*
D14*
X65236Y137795D02*
D03*
X70236D02*
D03*
X75236D02*
D03*
X80236D02*
D03*
X85236D02*
D03*
X90236D02*
D03*
X95236D02*
D03*
X100236D02*
D03*
X105236D02*
D03*
X110236D02*
D03*
Y85748D02*
D03*
X105236D02*
D03*
X100236D02*
D03*
X95236D02*
D03*
X90236D02*
D03*
X85236D02*
D03*
X80236D02*
D03*
X75236D02*
D03*
X70236D02*
D03*
X65236D02*
D03*
D15*
X15748Y40354D02*
D03*
X27559D02*
D03*
D16*
X144882Y62008D02*
D03*
X125984D02*
D03*
D17*
X141732Y165748D02*
D03*
Y155118D02*
D03*
X80709Y172638D02*
D03*
Y162008D02*
D03*
X137795Y132283D02*
D03*
Y121653D02*
D03*
X127953Y165748D02*
D03*
Y155118D02*
D03*
D18*
X141732Y101378D02*
D03*
X133858D02*
D03*
X137795Y109252D02*
D03*
D33*
X112835Y111772D02*
D03*
X62638D02*
D03*
D34*
X87736D02*
D03*
D35*
X100236Y94646D02*
X115157D01*
X100394Y155512D02*
X106586D01*
X109646Y158572D01*
Y169291D01*
X100236Y85748D02*
Y94646D01*
X119792Y182087D02*
X127666Y174213D01*
X77756Y182087D02*
X119792D01*
X69882Y174213D02*
X77756Y182087D01*
X127666Y174213D02*
X133268D01*
X75236Y137795D02*
Y144252D01*
X69882Y149606D02*
X75236Y144252D01*
X69882Y149606D02*
Y174213D01*
X133268Y174213D02*
X141732Y165748D01*
X75236Y137795D02*
X75236Y137795D01*
X75236Y132441D02*
Y137795D01*
X90551Y157480D02*
X95295Y152736D01*
Y137854D02*
Y152736D01*
X90551Y157480D02*
X91535D01*
X34449Y131890D02*
Y146653D01*
X39370Y151575D01*
X41929D01*
X218996Y112697D02*
X224410Y107283D01*
X176772Y132874D02*
Y152559D01*
Y127362D02*
Y132874D01*
X70118Y85630D02*
X70236Y85748D01*
X52559Y182480D02*
X56102Y186024D01*
X52559Y174213D02*
Y182480D01*
X56102Y162402D02*
X57087D01*
X55118D02*
X56102D01*
X52559Y159843D02*
X55118Y162402D01*
X52559Y151575D02*
Y159843D01*
X41929Y153543D02*
Y174213D01*
X111063Y198819D02*
X127795Y182087D01*
X149606D01*
X156496Y175197D01*
Y81693D02*
Y175197D01*
Y81693D02*
X194882Y43307D01*
X201772D01*
X206875Y48411D01*
Y59055D01*
X197835Y53150D02*
X200373D01*
X159646Y91339D02*
X197835Y53150D01*
X162795Y94095D02*
Y179257D01*
X152879Y189173D02*
X162795Y179257D01*
X144730Y189173D02*
X152879D01*
X159646Y91339D02*
Y177953D01*
X151575Y186024D02*
X159646Y177953D01*
X143425Y186024D02*
X151575D01*
X187402Y132874D02*
X191929D01*
X196850Y137795D01*
X197835D01*
X176772Y127362D02*
X182087Y122047D01*
X209231D01*
X218789Y112490D01*
X236221Y50197D02*
X244094Y42323D01*
X236221Y50197D02*
Y104331D01*
X216063Y124488D02*
X236221Y104331D01*
X216063Y124488D02*
Y198819D01*
X226063Y124753D02*
Y198819D01*
Y124753D02*
X230315Y120501D01*
Y119379D02*
Y120501D01*
X171260Y97441D02*
Y98425D01*
X165945Y103740D02*
X171260Y98425D01*
X165945Y103740D02*
Y180709D01*
X174213Y188976D01*
X206221D01*
X216063Y198819D01*
X224410Y58071D02*
Y107283D01*
X195866Y29528D02*
X224410Y58071D01*
X145984Y10000D02*
X165512Y29528D01*
X195866D01*
X79725Y161024D02*
X80709Y162008D01*
X79725Y150591D02*
Y161024D01*
X236890Y125394D02*
X237795Y126299D01*
X176772Y152559D02*
X176878Y152665D01*
Y172744D01*
X140630Y193273D02*
Y198819D01*
Y193273D02*
X144730Y189173D01*
X162795Y94095D02*
X169291Y87598D01*
X217520D01*
X130630Y198819D02*
X143425Y186024D01*
X95236Y137795D02*
X95295Y137854D01*
X197835Y137402D02*
Y137795D01*
X187508Y155028D02*
X189976Y152559D01*
X197835D01*
X187508Y172744D02*
X187992Y173228D01*
X197835D01*
X27559Y40354D02*
X28543Y39370D01*
X43898D01*
X75236Y132441D02*
X79724Y127953D01*
X112205D01*
X116142Y124016D01*
X125984D01*
X141732Y92520D02*
Y101378D01*
X82264Y131319D02*
X137795D01*
X80236Y133346D02*
Y137795D01*
Y133346D02*
X82264Y131319D01*
X137795D02*
Y132283D01*
Y121653D02*
X137795Y121653D01*
Y109252D02*
Y121653D01*
X95236Y73071D02*
Y85748D01*
X67913Y74803D02*
X73729D01*
X80236Y81310D02*
Y85748D01*
X73729Y74803D02*
X80236Y81310D01*
X85236Y137795D02*
Y145079D01*
X79725Y150591D02*
X85236Y145079D01*
Y137795D02*
X85630Y138189D01*
X100236Y137795D02*
Y154370D01*
X95236Y137795D02*
X95295Y137854D01*
X75236Y94921D02*
X99961D01*
X75236Y85748D02*
Y94921D01*
D36*
X141732Y145591D02*
X147716D01*
X127953D02*
X141732D01*
X134843Y84646D02*
X147638D01*
X150591Y87598D01*
Y142717D01*
X147716Y145591D02*
X150591Y142717D01*
X45276Y111221D02*
Y131890D01*
Y85630D02*
Y111221D01*
X45827Y111772D02*
X62638D01*
X51181Y137795D02*
X65236D01*
X45276Y131890D02*
X51181Y137795D01*
X45394Y85748D02*
X65236D01*
X57087Y55118D02*
X62008Y50197D01*
X38386Y55118D02*
X57087D01*
X38386D02*
Y78740D01*
X45276Y85630D01*
X131890Y67913D02*
X133858Y69882D01*
X127953Y67913D02*
X131890D01*
X125984Y62008D02*
X127953Y63976D01*
Y67913D01*
X133858Y84646D02*
X134843D01*
X133858Y83661D02*
X134843Y84646D01*
X133858Y69882D02*
Y83661D01*
X63976Y39370D02*
X70374Y32972D01*
X52559Y39370D02*
X63976D01*
D37*
X141732Y145591D02*
Y155118D01*
X45276Y111221D02*
X45827Y111772D01*
X65236Y85748D02*
X70236D01*
X45276Y85630D02*
X45394Y85748D01*
X22638Y55118D02*
X38386D01*
X15748Y40354D02*
Y48228D01*
X22638Y55118D01*
X65236Y137795D02*
X70236D01*
X17717Y109252D02*
Y110236D01*
X105236Y61102D02*
Y85748D01*
X127953Y145591D02*
Y155118D01*
D38*
X218789Y110521D02*
Y112490D01*
D39*
X133858Y84646D02*
Y101378D01*
X73318Y66929D02*
X85236Y78847D01*
X48228Y66929D02*
X73318D01*
X72835Y59055D02*
X90236Y76457D01*
D40*
X105236Y145591D02*
X127953D01*
D41*
X105236Y137795D02*
Y145591D01*
X85236Y78847D02*
Y85748D01*
X90236Y76457D02*
Y85748D01*
Y137795D02*
Y148307D01*
D42*
X61024Y15748D02*
D03*
X80709D02*
D03*
X17717Y70866D02*
D03*
Y90551D02*
D03*
Y110236D02*
D03*
D43*
X238189Y127480D02*
D03*
Y137480D02*
D03*
Y147480D02*
D03*
Y157480D02*
D03*
X115984Y10000D02*
D03*
X125984D02*
D03*
X135984D02*
D03*
X145984D02*
D03*
X155984D02*
D03*
X165984D02*
D03*
X175984D02*
D03*
X206063D02*
D03*
X216063D02*
D03*
X226063D02*
D03*
X236063D02*
D03*
X246063D02*
D03*
X91063Y198819D02*
D03*
X161063D02*
D03*
X151063D02*
D03*
X141063D02*
D03*
X131063D02*
D03*
X121063D02*
D03*
X111063D02*
D03*
X101063D02*
D03*
X81063D02*
D03*
X186063D02*
D03*
X196063D02*
D03*
X206063D02*
D03*
X216063D02*
D03*
X226063D02*
D03*
X236063D02*
D03*
X246063D02*
D03*
D44*
X238189Y167480D02*
D03*
D45*
X105984Y10000D02*
D03*
X196063D02*
D03*
X71063Y198819D02*
D03*
X176063D02*
D03*
D46*
X257874Y137795D02*
D03*
Y27559D02*
D03*
X59055Y198819D02*
D03*
D47*
X115157Y94646D02*
D03*
X100394Y155512D02*
D03*
X90551Y157480D02*
D03*
X34449Y131890D02*
D03*
X63833Y48372D02*
D03*
X56102Y186024D02*
D03*
Y162402D02*
D03*
X206875Y59055D02*
D03*
X200373Y53150D02*
D03*
X244094Y42323D02*
D03*
X230315Y119379D02*
D03*
X171260Y97441D02*
D03*
X218789Y112490D02*
D03*
X217520Y87598D02*
D03*
X197835Y137795D02*
D03*
X42323Y26575D02*
D03*
X197835Y152559D02*
D03*
Y173228D02*
D03*
X175681Y39870D02*
D03*
X125984Y124016D02*
D03*
X141732Y92520D02*
D03*
X140748Y40354D02*
D03*
X96274Y70450D02*
D03*
X67913Y74803D02*
D03*
X48228Y66929D02*
D03*
X72835Y59055D02*
D03*
X90236Y148307D02*
D03*
M02*
