G04*
G04 #@! TF.GenerationSoftware,Altium Limited,Altium Designer,18.0.7 (293)*
G04*
G04 Layer_Color=32896*
%FSLAX25Y25*%
%MOIN*%
G70*
G01*
G75*
%ADD11C,0.01000*%
%ADD40C,0.00000*%
D11*
X208661Y64961D02*
X209646Y65945D01*
X208661Y74803D02*
X209646Y73819D01*
X201772Y64961D02*
X208661D01*
X209646Y65945D02*
Y73819D01*
X201772Y74803D02*
X206693D01*
X208661D01*
X190945Y81693D02*
X191929Y82677D01*
X190945Y69882D02*
Y81693D01*
X182087Y79724D02*
Y82677D01*
X171260Y59055D02*
X172244Y58071D01*
X253000Y111268D02*
Y114126D01*
X251969Y115157D02*
X253000Y114126D01*
X237862Y115157D02*
X251969D01*
X227315Y106346D02*
Y108574D01*
Y106346D02*
X228346Y105315D01*
X242126D01*
X227362Y90551D02*
Y93504D01*
Y90551D02*
X228346Y89567D01*
X242126D01*
X252953Y98425D02*
X252953D01*
X251969Y99410D02*
X252953Y98425D01*
X238189Y99410D02*
X251969D01*
X243110Y49213D02*
X249016D01*
X242126Y50197D02*
X243110Y49213D01*
X242126Y50197D02*
Y51181D01*
Y53150D01*
Y58071D01*
X243110Y59055D01*
X249016D01*
X251969Y66929D02*
X258858D01*
X259842Y65945D01*
Y56102D02*
Y65945D01*
X254969Y41291D02*
X258811D01*
X259890Y42370D01*
Y53707D01*
X155512Y83661D02*
X161417D01*
X162402Y82677D01*
Y81693D02*
Y82677D01*
X176181Y83661D02*
X181102D01*
X182087Y82677D01*
X191929Y82677D02*
X198819D01*
X153543Y58071D02*
X158465D01*
X152559Y59055D02*
X153543Y58071D01*
X152559Y59055D02*
Y60039D01*
X172244Y58071D02*
X177165D01*
X191929Y57087D02*
X197835D01*
X190945Y58071D02*
X191929Y57087D01*
X190945Y58071D02*
Y60039D01*
X218504Y56102D02*
X223425D01*
X217472Y57134D02*
X218504Y56102D01*
X217472Y57134D02*
Y57699D01*
X222441Y81693D02*
X226724D01*
X227362Y81055D01*
Y79087D02*
Y81055D01*
X252953Y94488D02*
Y98425D01*
X217472Y57699D02*
Y71479D01*
X190945Y60039D02*
Y67690D01*
X227362Y66929D02*
Y79087D01*
X182087Y68898D02*
Y81693D01*
X171260Y60039D02*
Y72835D01*
X152559Y60039D02*
Y72835D01*
X162402Y68898D02*
Y81693D01*
X177246Y177479D02*
X176590Y178135D01*
Y179446D01*
X177246Y180102D01*
X177902D01*
X178558Y179446D01*
Y178135D01*
X179214Y177479D01*
X179870D01*
X180526Y178135D01*
Y179446D01*
X179870Y180102D01*
X180526Y175511D02*
Y174199D01*
X179870Y173543D01*
X178558D01*
X177902Y174199D01*
Y175511D01*
X178558Y176167D01*
X179870D01*
X180526Y175511D01*
Y172231D02*
Y170919D01*
Y171575D01*
X176590D01*
Y172231D01*
Y166327D02*
X180526D01*
Y168295D01*
X179870Y168951D01*
X178558D01*
X177902Y168295D01*
Y166327D01*
X180526Y163048D02*
Y164359D01*
X179870Y165015D01*
X178558D01*
X177902Y164359D01*
Y163048D01*
X178558Y162391D01*
X179214D01*
Y165015D01*
X177902Y161080D02*
X180526D01*
X179214D01*
X178558Y160424D01*
X177902Y159768D01*
Y159112D01*
X177246Y152552D02*
X177902D01*
Y153208D01*
Y151896D01*
Y152552D01*
X179870D01*
X180526Y151896D01*
Y149272D02*
Y147960D01*
X179870Y147304D01*
X178558D01*
X177902Y147960D01*
Y149272D01*
X178558Y149928D01*
X179870D01*
X180526Y149272D01*
X187649Y178135D02*
Y179446D01*
X186993Y180102D01*
X185681D01*
X185025Y179446D01*
Y178135D01*
X185681Y177479D01*
X186337D01*
Y180102D01*
X187649Y176167D02*
X185025D01*
Y174199D01*
X185681Y173543D01*
X187649D01*
X185025Y171575D02*
Y170263D01*
X185681Y169607D01*
X187649D01*
Y171575D01*
X186993Y172231D01*
X186337Y171575D01*
Y169607D01*
X183713Y168295D02*
X187649D01*
Y166327D01*
X186993Y165671D01*
X186337D01*
X185681D01*
X185025Y166327D01*
Y168295D01*
X187649Y164359D02*
Y163048D01*
Y163703D01*
X183713D01*
Y164359D01*
X187649Y159112D02*
Y160424D01*
X186993Y161080D01*
X185681D01*
X185025Y160424D01*
Y159112D01*
X185681Y158456D01*
X186337D01*
Y161080D01*
X188961Y153208D02*
X185025D01*
Y151240D01*
X185681Y150584D01*
X186993D01*
X187649Y151240D01*
Y153208D01*
X185025Y149272D02*
X186993D01*
X187649Y148616D01*
Y146649D01*
X185025D01*
X187649Y145337D02*
Y144025D01*
Y144681D01*
X183713D01*
Y145337D01*
X187649Y142057D02*
Y140745D01*
Y141401D01*
X183713D01*
Y142057D01*
X185025Y138777D02*
X186993D01*
X187649Y138121D01*
Y136153D01*
X185025D01*
X188961Y134841D02*
X185025D01*
Y132873D01*
X185681Y132218D01*
X186993D01*
X187649Y132873D01*
Y134841D01*
Y130906D02*
Y128938D01*
X186993Y128282D01*
X186337Y128938D01*
Y130250D01*
X185681Y130906D01*
X185025Y130250D01*
Y128282D01*
X115142Y178165D02*
Y182101D01*
X113174D01*
X112518Y181445D01*
Y180133D01*
X113174Y179477D01*
X115142D01*
X111206Y180789D02*
Y178821D01*
X110550Y178165D01*
X108582D01*
Y180789D01*
X107270Y178165D02*
X105958D01*
X106614D01*
Y182101D01*
X107270D01*
X103990Y178165D02*
X102679D01*
X103334D01*
Y182101D01*
X103990D01*
X94151Y181445D02*
X94807Y182101D01*
X96119D01*
X96775Y181445D01*
Y180789D01*
X96119Y180133D01*
X94807D01*
X94151Y179477D01*
Y178821D01*
X94807Y178165D01*
X96119D01*
X96775Y178821D01*
X90215Y181445D02*
X90871Y182101D01*
X92183D01*
X92839Y181445D01*
Y178821D01*
X92183Y178165D01*
X90871D01*
X90215Y178821D01*
X88903Y182101D02*
Y178165D01*
X86280D01*
X226566Y129502D02*
Y133438D01*
X224598D01*
X223942Y132782D01*
Y131470D01*
X224598Y130814D01*
X226566D01*
X222630Y132126D02*
Y130158D01*
X221974Y129502D01*
X220006D01*
Y132126D01*
X218694Y129502D02*
X217382D01*
X218038D01*
Y133438D01*
X218694D01*
X215414Y129502D02*
X214102D01*
X214758D01*
Y133438D01*
X215414D01*
Y126315D02*
X214102D01*
X214758D01*
Y122379D01*
X215414D01*
X214102D01*
X264095Y97689D02*
X266719D01*
Y93753D01*
X264095D01*
X266719Y95721D02*
X265407D01*
X262783Y93753D02*
Y96377D01*
X260816D01*
X260159Y95721D01*
Y93753D01*
X256224Y96377D02*
X258192D01*
X258848Y95721D01*
Y94409D01*
X258192Y93753D01*
X256224D01*
X257536Y90566D02*
X256224D01*
X256880D01*
Y86630D01*
X257536D01*
X256224D01*
X137779Y88026D02*
Y84090D01*
Y86058D01*
X135156D01*
Y88026D01*
Y84090D01*
X133188Y86714D02*
X131876D01*
X131220Y86058D01*
Y84090D01*
X133188D01*
X133844Y84746D01*
X133188Y85402D01*
X131220D01*
X129908Y86714D02*
Y84090D01*
Y85402D01*
X129252Y86058D01*
X128596Y86714D01*
X127940D01*
X123348Y88026D02*
Y84090D01*
X125316D01*
X125972Y84746D01*
Y86058D01*
X125316Y86714D01*
X123348D01*
X122037D02*
Y84746D01*
X121381Y84090D01*
X120725Y84746D01*
X120069Y84090D01*
X119413Y84746D01*
Y86714D01*
X117445D02*
X116133D01*
X115477Y86058D01*
Y84090D01*
X117445D01*
X118101Y84746D01*
X117445Y85402D01*
X115477D01*
X114165Y86714D02*
Y84090D01*
Y85402D01*
X113509Y86058D01*
X112853Y86714D01*
X112197D01*
X108262Y84090D02*
X109573D01*
X110229Y84746D01*
Y86058D01*
X109573Y86714D01*
X108262D01*
X107606Y86058D01*
Y85402D01*
X110229D01*
X102358Y82779D02*
Y86714D01*
X100390D01*
X99734Y86058D01*
Y84746D01*
X100390Y84090D01*
X102358D01*
X98422D02*
X97110D01*
X97766D01*
Y86714D01*
X98422D01*
X95142Y84090D02*
Y86714D01*
X93174D01*
X92519Y86058D01*
Y84090D01*
X84647Y86714D02*
X86615D01*
X87271Y86058D01*
Y84746D01*
X86615Y84090D01*
X84647D01*
X82679D02*
X81367D01*
X80711Y84746D01*
Y86058D01*
X81367Y86714D01*
X82679D01*
X83335Y86058D01*
Y84746D01*
X82679Y84090D01*
X79399D02*
Y86714D01*
X77431D01*
X76776Y86058D01*
Y84090D01*
X74808D02*
Y87370D01*
Y86058D01*
X75464D01*
X74152D01*
X74808D01*
Y87370D01*
X74152Y88026D01*
X72184Y84090D02*
X70872D01*
X71528D01*
Y86714D01*
X72184D01*
X67592Y82779D02*
X66936D01*
X66280Y83434D01*
Y86714D01*
X68248D01*
X68904Y86058D01*
Y84746D01*
X68248Y84090D01*
X66280D01*
X64968Y86714D02*
Y84746D01*
X64312Y84090D01*
X62344D01*
Y86714D01*
X61033D02*
Y84090D01*
Y85402D01*
X60377Y86058D01*
X59721Y86714D01*
X59065D01*
X56441D02*
X55129D01*
X54473Y86058D01*
Y84090D01*
X56441D01*
X57097Y84746D01*
X56441Y85402D01*
X54473D01*
X52505Y87370D02*
Y86714D01*
X53161D01*
X51849D01*
X52505D01*
Y84746D01*
X51849Y84090D01*
X49881D02*
X48569D01*
X49225D01*
Y86714D01*
X49881D01*
X45946Y84090D02*
X44634D01*
X43978Y84746D01*
Y86058D01*
X44634Y86714D01*
X45946D01*
X46602Y86058D01*
Y84746D01*
X45946Y84090D01*
X42666D02*
Y86714D01*
X40698D01*
X40042Y86058D01*
Y84090D01*
X135156Y78935D02*
X135812Y79591D01*
X137124D01*
X137779Y78935D01*
Y78279D01*
X137124Y77623D01*
X135812D01*
X135156Y76968D01*
Y76311D01*
X135812Y75656D01*
X137124D01*
X137779Y76311D01*
X133188Y75656D02*
X131876D01*
X131220Y76311D01*
Y77623D01*
X131876Y78279D01*
X133188D01*
X133844Y77623D01*
Y76311D01*
X133188Y75656D01*
X129908D02*
X128596D01*
X129252D01*
Y79591D01*
X129908D01*
X124004D02*
Y75656D01*
X125972D01*
X126628Y76311D01*
Y77623D01*
X125972Y78279D01*
X124004D01*
X120725Y75656D02*
X122037D01*
X122693Y76311D01*
Y77623D01*
X122037Y78279D01*
X120725D01*
X120069Y77623D01*
Y76968D01*
X122693D01*
X118757Y78279D02*
Y75656D01*
Y76968D01*
X118101Y77623D01*
X117445Y78279D01*
X116789D01*
X110229Y78935D02*
Y78279D01*
X110885D01*
X109573D01*
X110229D01*
Y76311D01*
X109573Y75656D01*
X106950D02*
X105638D01*
X104982Y76311D01*
Y77623D01*
X105638Y78279D01*
X106950D01*
X107606Y77623D01*
Y76311D01*
X106950Y75656D01*
X99734D02*
X97766D01*
X97110Y76311D01*
X97766Y76968D01*
X99078D01*
X99734Y77623D01*
X99078Y78279D01*
X97110D01*
X93830Y75656D02*
X95142D01*
X95798Y76311D01*
Y77623D01*
X95142Y78279D01*
X93830D01*
X93174Y77623D01*
Y76968D01*
X95798D01*
X91863Y75656D02*
X90551D01*
X91207D01*
Y79591D01*
X91863D01*
X86615Y75656D02*
X87927D01*
X88583Y76311D01*
Y77623D01*
X87927Y78279D01*
X86615D01*
X85959Y77623D01*
Y76968D01*
X88583D01*
X82023Y78279D02*
X83991D01*
X84647Y77623D01*
Y76311D01*
X83991Y75656D01*
X82023D01*
X80055Y78935D02*
Y78279D01*
X80711D01*
X79399D01*
X80055D01*
Y76311D01*
X79399Y75656D01*
X137779Y67221D02*
Y71157D01*
X135812D01*
X135156Y70501D01*
Y69189D01*
X135812Y68533D01*
X137779D01*
X133844D02*
X132532D01*
X133188D01*
Y71157D01*
X133844D01*
X130564Y68533D02*
Y71157D01*
X128596D01*
X127940Y70501D01*
Y68533D01*
X122693D02*
Y71157D01*
X120725D01*
X120069Y70501D01*
Y68533D01*
X118757Y71157D02*
Y69189D01*
X118101Y68533D01*
X116133D01*
Y71157D01*
X114821Y68533D02*
Y71157D01*
X114165D01*
X113509Y70501D01*
Y68533D01*
Y70501D01*
X112853Y71157D01*
X112197Y70501D01*
Y68533D01*
X110885Y72468D02*
Y68533D01*
X108917D01*
X108262Y69189D01*
Y69845D01*
Y70501D01*
X108917Y71157D01*
X110885D01*
X104982Y68533D02*
X106294D01*
X106950Y69189D01*
Y70501D01*
X106294Y71157D01*
X104982D01*
X104326Y70501D01*
Y69845D01*
X106950D01*
X103014Y71157D02*
Y68533D01*
Y69845D01*
X102358Y70501D01*
X101702Y71157D01*
X101046D01*
X137779Y62066D02*
X135156D01*
X129908Y64034D02*
Y60098D01*
X127284D01*
X123348Y64034D02*
X124660Y63378D01*
X125972Y62066D01*
Y60754D01*
X125316Y60098D01*
X124004D01*
X123348Y60754D01*
Y61410D01*
X124004Y62066D01*
X125972D01*
X119413Y60098D02*
X122037D01*
X119413Y62722D01*
Y63378D01*
X120069Y64034D01*
X121381D01*
X122037Y63378D01*
X118101D02*
X117445Y64034D01*
X116133D01*
X115477Y63378D01*
Y62722D01*
X116133Y62066D01*
X116789D01*
X116133D01*
X115477Y61410D01*
Y60754D01*
X116133Y60098D01*
X117445D01*
X118101Y60754D01*
X112197Y60098D02*
Y64034D01*
X114165Y62066D01*
X111541D01*
X110229Y62722D02*
X109573D01*
Y62066D01*
X110229D01*
Y62722D01*
Y60754D02*
X109573D01*
Y60098D01*
X110229D01*
Y60754D01*
X129908Y52975D02*
Y56911D01*
X127940D01*
X127284Y56255D01*
Y54943D01*
X127940Y54287D01*
X129908D01*
X125972Y56911D02*
Y52975D01*
X124660Y54287D01*
X123348Y52975D01*
Y56911D01*
X122037Y52975D02*
Y56911D01*
X120725Y55599D01*
X119413Y56911D01*
Y52975D01*
X111541D02*
X112197Y53631D01*
X112853Y52975D01*
X113509D01*
X114165Y53631D01*
Y54287D01*
X113509Y54943D01*
X114165Y55599D01*
Y56255D01*
X113509Y56911D01*
X112853D01*
X112197Y56255D01*
Y55599D01*
X112853Y54943D01*
X112197Y54287D01*
Y53631D01*
X111541Y54943D02*
X112197Y54287D01*
X113509Y54943D02*
X112853D01*
X104326Y52975D02*
X105638D01*
X106294Y53631D01*
Y54943D01*
X105638Y55599D01*
X104326D01*
X103670Y54943D01*
Y54287D01*
X106294D01*
X102358Y52975D02*
Y55599D01*
X100390D01*
X99734Y54943D01*
Y52975D01*
X97766Y55599D02*
X96454D01*
X95798Y54943D01*
Y52975D01*
X97766D01*
X98422Y53631D01*
X97766Y54287D01*
X95798D01*
X94486Y56911D02*
Y52975D01*
X92519D01*
X91863Y53631D01*
Y54287D01*
Y54943D01*
X92519Y55599D01*
X94486D01*
X90551Y52975D02*
X89239D01*
X89895D01*
Y56911D01*
X90551D01*
X85303Y52975D02*
X86615D01*
X87271Y53631D01*
Y54943D01*
X86615Y55599D01*
X85303D01*
X84647Y54943D01*
Y54287D01*
X87271D01*
X137779Y47820D02*
X135156D01*
X127284Y49788D02*
X129908D01*
Y45852D01*
X127284D01*
X129908Y47820D02*
X128596D01*
X125972Y45852D02*
Y48476D01*
X124004D01*
X123348Y47820D01*
Y45852D01*
X119413Y48476D02*
X121381D01*
X122037Y47820D01*
Y46508D01*
X121381Y45852D01*
X119413D01*
X117445D02*
X116133D01*
X115477Y46508D01*
Y47820D01*
X116133Y48476D01*
X117445D01*
X118101Y47820D01*
Y46508D01*
X117445Y45852D01*
X111541Y49788D02*
Y45852D01*
X113509D01*
X114165Y46508D01*
Y47820D01*
X113509Y48476D01*
X111541D01*
X108262Y45852D02*
X109573D01*
X110229Y46508D01*
Y47820D01*
X109573Y48476D01*
X108262D01*
X107606Y47820D01*
Y47164D01*
X110229D01*
X106294Y48476D02*
Y45852D01*
Y47164D01*
X105638Y47820D01*
X104982Y48476D01*
X104326D01*
X102358D02*
X101702D01*
Y47820D01*
X102358D01*
Y48476D01*
Y46508D02*
X101702D01*
Y45852D01*
X102358D01*
Y46508D01*
X91207Y45852D02*
Y48476D01*
X89895Y49788D01*
X88583Y48476D01*
Y45852D01*
Y47820D01*
X91207D01*
X86615Y45196D02*
X85959Y45852D01*
Y46508D01*
X86615D01*
Y45852D01*
X85959D01*
X86615Y45196D01*
X87271Y44540D01*
X83335Y49788D02*
Y45852D01*
X81367D01*
X80711Y46508D01*
Y47164D01*
X81367Y47820D01*
X83335D01*
X81367D01*
X80711Y48476D01*
Y49132D01*
X81367Y49788D01*
X83335D01*
X78743Y45196D02*
X78088Y45852D01*
Y46508D01*
X78743D01*
Y45852D01*
X78088D01*
X78743Y45196D01*
X79399Y44540D01*
X75464Y49788D02*
X74152D01*
X74808D01*
Y45852D01*
X75464D01*
X74152D01*
X106294Y42665D02*
Y38729D01*
Y40697D01*
X103670D01*
Y42665D01*
Y38729D01*
X101702Y41353D02*
X100390D01*
X99734Y40697D01*
Y38729D01*
X101702D01*
X102358Y39385D01*
X101702Y40041D01*
X99734D01*
X98422Y38729D02*
X97110D01*
X97766D01*
Y42665D01*
X98422D01*
X95142Y38729D02*
X93830D01*
X94486D01*
Y42665D01*
X95142D01*
X91863Y41353D02*
X91207D01*
Y40697D01*
X91863D01*
Y41353D01*
Y39385D02*
X91207D01*
Y38729D01*
X91863D01*
Y39385D01*
X84647Y42665D02*
Y39385D01*
X83991Y38729D01*
X82679D01*
X82023Y39385D01*
Y42665D01*
X80055Y38073D02*
X79399Y38729D01*
Y39385D01*
X80055D01*
Y38729D01*
X79399D01*
X80055Y38073D01*
X80711Y37417D01*
X76776Y42665D02*
Y40041D01*
X75464Y38729D01*
X74152Y40041D01*
Y42665D01*
X72184Y38073D02*
X71528Y38729D01*
Y39385D01*
X72184D01*
Y38729D01*
X71528D01*
X72184Y38073D01*
X72840Y37417D01*
X68904Y42665D02*
Y38729D01*
X67592Y40041D01*
X66280Y38729D01*
Y42665D01*
X160417Y46244D02*
X156482D01*
Y44276D01*
X157138Y43620D01*
X158449D01*
X159105Y44276D01*
Y46244D01*
X156482Y42308D02*
X158449D01*
X159105Y41652D01*
X158449Y40996D01*
X159105Y40341D01*
X158449Y39685D01*
X156482D01*
X159105Y38373D02*
X156482D01*
Y37717D01*
X157138Y37061D01*
X159105D01*
X157138D01*
X156482Y36405D01*
X157138Y35749D01*
X159105D01*
Y30501D02*
X156482D01*
X155170Y29189D01*
X156482Y27877D01*
X159105D01*
X157138D01*
Y30501D01*
X79053Y154680D02*
X79709Y155336D01*
X81021D01*
X81677Y154680D01*
Y154024D01*
X81021Y153368D01*
X79709D01*
X79053Y152712D01*
Y152056D01*
X79709Y151400D01*
X81021D01*
X81677Y152056D01*
X77086Y151400D02*
X75774D01*
X75118Y152056D01*
Y153368D01*
X75774Y154024D01*
X77086D01*
X77741Y153368D01*
Y152056D01*
X77086Y151400D01*
X73806D02*
X72494D01*
X73150D01*
Y155336D01*
X73806D01*
X67902D02*
Y151400D01*
X69870D01*
X70526Y152056D01*
Y153368D01*
X69870Y154024D01*
X67902D01*
X64622Y151400D02*
X65934D01*
X66590Y152056D01*
Y153368D01*
X65934Y154024D01*
X64622D01*
X63966Y153368D01*
Y152712D01*
X66590D01*
X62654Y154024D02*
Y151400D01*
Y152712D01*
X61998Y153368D01*
X61343Y154024D01*
X60687D01*
X54127Y154680D02*
Y154024D01*
X54783D01*
X53471D01*
X54127D01*
Y152056D01*
X53471Y151400D01*
X50847D02*
X49535D01*
X48879Y152056D01*
Y153368D01*
X49535Y154024D01*
X50847D01*
X51503Y153368D01*
Y152056D01*
X50847Y151400D01*
X79709Y144277D02*
X81021D01*
X81677Y144933D01*
Y146245D01*
X81021Y146901D01*
X79709D01*
X79053Y146245D01*
Y145589D01*
X81677D01*
X77741Y144277D02*
Y146901D01*
X75774D01*
X75118Y146245D01*
Y144277D01*
X73150Y146901D02*
X71838D01*
X71182Y146245D01*
Y144277D01*
X73150D01*
X73806Y144933D01*
X73150Y145589D01*
X71182D01*
X69870Y148213D02*
Y144277D01*
X67902D01*
X67246Y144933D01*
Y145589D01*
Y146245D01*
X67902Y146901D01*
X69870D01*
X65934Y144277D02*
X64622D01*
X65278D01*
Y148213D01*
X65934D01*
X60687Y144277D02*
X61998D01*
X62654Y144933D01*
Y146245D01*
X61998Y146901D01*
X60687D01*
X60031Y146245D01*
Y145589D01*
X62654D01*
X54783Y148213D02*
X53471D01*
X54127D01*
Y144277D01*
X54783D01*
X53471D01*
X48879D02*
X51503D01*
X48879Y146901D01*
Y147557D01*
X49535Y148213D01*
X50847D01*
X51503Y147557D01*
X44944D02*
X45600Y148213D01*
X46911D01*
X47567Y147557D01*
Y144933D01*
X46911Y144277D01*
X45600D01*
X44944Y144933D01*
X81677Y135843D02*
Y139778D01*
X79709D01*
X79053Y139122D01*
Y137810D01*
X79709Y137154D01*
X81677D01*
X77741Y139778D02*
Y137810D01*
X77086Y137154D01*
X75118D01*
Y139778D01*
X73806Y137154D02*
X72494D01*
X73150D01*
Y141090D01*
X73806D01*
X70526Y137154D02*
X69214D01*
X69870D01*
Y141090D01*
X70526D01*
X67246Y139778D02*
Y137810D01*
X66590Y137154D01*
X64622D01*
Y139778D01*
X63310Y135843D02*
Y139778D01*
X61343D01*
X60687Y139122D01*
Y137810D01*
X61343Y137154D01*
X63310D01*
X59375D02*
X57407D01*
X56751Y137810D01*
X57407Y138466D01*
X58719D01*
X59375Y139122D01*
X58719Y139778D01*
X56751D01*
X201756Y46244D02*
X197820D01*
Y44276D01*
X198476Y43620D01*
X199788D01*
X200444Y44276D01*
Y46244D01*
X197820Y42308D02*
X199788D01*
X200444Y41652D01*
X199788Y40996D01*
X200444Y40341D01*
X199788Y39685D01*
X197820D01*
X200444Y38373D02*
X197820D01*
Y37717D01*
X198476Y37061D01*
X200444D01*
X198476D01*
X197820Y36405D01*
X198476Y35749D01*
X200444D01*
X197164Y27877D02*
X196508Y28533D01*
Y29845D01*
X197164Y30501D01*
X199788D01*
X200444Y29845D01*
Y28533D01*
X199788Y27877D01*
X226693Y176430D02*
Y180366D01*
X224725D01*
X224069Y179710D01*
Y178398D01*
X224725Y177742D01*
X226693D01*
X222757Y179054D02*
Y177086D01*
X222101Y176430D01*
X220133D01*
Y179054D01*
X218822Y176430D02*
X217510D01*
X218166D01*
Y180366D01*
X218822D01*
X215542Y176430D02*
X214230D01*
X214886D01*
Y180366D01*
X215542D01*
X216854Y169307D02*
Y171931D01*
X215542Y173243D01*
X214230Y171931D01*
Y169307D01*
Y171275D01*
X216854D01*
X226362Y46244D02*
X222427D01*
Y44276D01*
X223082Y43620D01*
X224394D01*
X225050Y44276D01*
Y46244D01*
X222427Y42308D02*
X224394D01*
X225050Y41652D01*
X224394Y40996D01*
X225050Y40341D01*
X224394Y39685D01*
X222427D01*
X225050Y38373D02*
X222427D01*
Y37717D01*
X223082Y37061D01*
X225050D01*
X223082D01*
X222427Y36405D01*
X223082Y35749D01*
X225050D01*
X221115Y30501D02*
X225050D01*
Y28533D01*
X224394Y27877D01*
X223738D01*
X223082Y28533D01*
Y30501D01*
Y28533D01*
X222427Y27877D01*
X221771D01*
X221115Y28533D01*
Y30501D01*
X264093Y117374D02*
X266717D01*
Y113438D01*
X264093D01*
X266717Y115406D02*
X265405D01*
X262781Y113438D02*
Y116062D01*
X260813D01*
X260157Y115406D01*
Y113438D01*
X256221Y116062D02*
X258189D01*
X258845Y115406D01*
Y114094D01*
X258189Y113438D01*
X256221D01*
X258845Y110251D02*
Y106315D01*
X256877D01*
X256221Y106971D01*
Y107627D01*
X256877Y108283D01*
X258845D01*
X256877D01*
X256221Y108939D01*
Y109595D01*
X256877Y110251D01*
X258845D01*
X225708Y154776D02*
Y158712D01*
X223740D01*
X223084Y158056D01*
Y156744D01*
X223740Y156088D01*
X225708D01*
X221772Y157400D02*
Y155432D01*
X221116Y154776D01*
X219148D01*
Y157400D01*
X217836Y154776D02*
X216524D01*
X217180D01*
Y158712D01*
X217836D01*
X214556Y154776D02*
X213244D01*
X213900D01*
Y158712D01*
X214556D01*
X215868Y151589D02*
Y147653D01*
X213900D01*
X213244Y148310D01*
Y148966D01*
X213900Y149621D01*
X215868D01*
X213900D01*
X213244Y150277D01*
Y150933D01*
X213900Y151589D01*
X215868D01*
X9267Y195195D02*
X13203D01*
Y197163D01*
X12547Y197819D01*
X11235D01*
X10579Y197163D01*
Y195195D01*
X13203Y193227D02*
Y191915D01*
X12547Y191259D01*
X11235D01*
X10579Y191915D01*
Y193227D01*
X11235Y193883D01*
X12547D01*
X13203Y193227D01*
X10579Y187324D02*
Y189292D01*
X11235Y189947D01*
X12547D01*
X13203Y189292D01*
Y187324D01*
Y186012D02*
Y184044D01*
X12547Y183388D01*
X11891Y184044D01*
Y185356D01*
X11235Y186012D01*
X10579Y185356D01*
Y183388D01*
X13203Y182076D02*
X12547D01*
Y181420D01*
X13203D01*
Y182076D01*
Y178796D02*
Y176828D01*
X12547Y176172D01*
X11891Y176828D01*
Y178140D01*
X11235Y178796D01*
X10579Y178140D01*
Y176172D01*
X13203Y174860D02*
Y173548D01*
Y174205D01*
X10579D01*
Y174860D01*
X13203Y171581D02*
X10579D01*
Y170925D01*
X11235Y170269D01*
X13203D01*
X11235D01*
X10579Y169613D01*
X11235Y168957D01*
X13203D01*
X14515Y167645D02*
X10579D01*
Y165677D01*
X11235Y165021D01*
X12547D01*
X13203Y165677D01*
Y167645D01*
Y163709D02*
Y162397D01*
Y163053D01*
X9267D01*
Y163709D01*
X13203Y158461D02*
Y159773D01*
X12547Y160429D01*
X11235D01*
X10579Y159773D01*
Y158461D01*
X11235Y157806D01*
X11891D01*
Y160429D01*
X13203Y155838D02*
X9923D01*
X11235D01*
Y156494D01*
Y155182D01*
Y155838D01*
X9923D01*
X9267Y155182D01*
X13203Y152558D02*
Y151246D01*
X12547Y150590D01*
X11235D01*
X10579Y151246D01*
Y152558D01*
X11235Y153214D01*
X12547D01*
X13203Y152558D01*
X10579Y146654D02*
Y148622D01*
X11235Y149278D01*
X12547D01*
X13203Y148622D01*
Y146654D01*
Y145342D02*
X12547D01*
Y144686D01*
X13203D01*
Y145342D01*
X10579Y139439D02*
Y141407D01*
X11235Y142063D01*
X12547D01*
X13203Y141407D01*
Y139439D01*
Y137471D02*
Y136159D01*
X12547Y135503D01*
X11235D01*
X10579Y136159D01*
Y137471D01*
X11235Y138127D01*
X12547D01*
X13203Y137471D01*
Y134191D02*
X10579D01*
Y133535D01*
X11235Y132879D01*
X13203D01*
X11235D01*
X10579Y132223D01*
X11235Y131567D01*
X13203D01*
X18358Y197819D02*
X17702Y197163D01*
Y195851D01*
X18358Y195195D01*
X20982D01*
X21638Y195851D01*
Y197163D01*
X20982Y197819D01*
X18358D01*
X20982Y193883D02*
X21638Y193227D01*
Y191915D01*
X20982Y191259D01*
X18358D01*
X17702Y191915D01*
Y193227D01*
X18358Y193883D01*
X19014D01*
X19670Y193227D01*
Y191259D01*
X21638Y189947D02*
X19014Y187324D01*
X21638Y183388D02*
Y186012D01*
X19014Y183388D01*
X18358D01*
X17702Y184044D01*
Y185356D01*
X18358Y186012D01*
Y182076D02*
X17702Y181420D01*
Y180108D01*
X18358Y179452D01*
X20982D01*
X21638Y180108D01*
Y181420D01*
X20982Y182076D01*
X18358D01*
X21638Y175516D02*
Y178140D01*
X19014Y175516D01*
X18358D01*
X17702Y176172D01*
Y177484D01*
X18358Y178140D01*
Y174205D02*
X17702Y173548D01*
Y172237D01*
X18358Y171581D01*
X20982D01*
X21638Y172237D01*
Y173548D01*
X20982Y174205D01*
X18358D01*
X115157Y163386D02*
Y167322D01*
X113190D01*
X112534Y166666D01*
Y165354D01*
X113190Y164698D01*
X115157D01*
X111222Y166010D02*
Y164042D01*
X110566Y163386D01*
X108598D01*
Y166010D01*
X107286Y163386D02*
X105974D01*
X106630D01*
Y167322D01*
X107286D01*
X104006Y163386D02*
X102694D01*
X103350D01*
Y167322D01*
X104006D01*
X94167Y166666D02*
X94823Y167322D01*
X96135D01*
X96791Y166666D01*
Y166010D01*
X96135Y165354D01*
X94823D01*
X94167Y164698D01*
Y164042D01*
X94823Y163386D01*
X96135D01*
X96791Y164042D01*
X92855Y167322D02*
Y163386D01*
X90887D01*
X90231Y164042D01*
Y166666D01*
X90887Y167322D01*
X92855D01*
X88919Y163386D02*
Y166010D01*
X87607Y167322D01*
X86295Y166010D01*
Y163386D01*
Y165354D01*
X88919D01*
X208661Y76772D02*
X207349D01*
X208005D01*
Y80707D01*
X208661Y80051D01*
X205382D02*
X204726Y80707D01*
X203414D01*
X202758Y80051D01*
Y79396D01*
X203414Y78740D01*
X204070D01*
X203414D01*
X202758Y78084D01*
Y77428D01*
X203414Y76772D01*
X204726D01*
X205382Y77428D01*
X194227Y89566D02*
X195538Y88910D01*
X196850Y87598D01*
Y86286D01*
X196194Y85630D01*
X194883D01*
X194227Y86286D01*
Y86942D01*
X194883Y87598D01*
X196850D01*
X239173Y55445D02*
X238517Y56101D01*
X237205D01*
X236549Y55445D01*
Y54789D01*
X237205Y54133D01*
X237861D01*
X237205D01*
X236549Y53477D01*
Y52821D01*
X237205Y52165D01*
X238517D01*
X239173Y52821D01*
X257874Y35867D02*
Y38491D01*
X256562Y39803D01*
X255250Y38491D01*
Y35867D01*
Y37835D01*
X257874D01*
X253938Y39147D02*
X253282Y39803D01*
X251970D01*
X251314Y39147D01*
Y38491D01*
X251970Y37835D01*
X252626D01*
X251970D01*
X251314Y37179D01*
Y36523D01*
X251970Y35867D01*
X253282D01*
X253938Y36523D01*
X257874Y68898D02*
Y71522D01*
X256562Y72833D01*
X255250Y71522D01*
Y68898D01*
Y70865D01*
X257874D01*
X251314Y68898D02*
X253938D01*
X251314Y71522D01*
Y72177D01*
X251970Y72833D01*
X253282D01*
X253938Y72177D01*
X223426Y90551D02*
Y94487D01*
X225394Y92519D01*
X222770D01*
X251969Y101378D02*
Y104002D01*
X250657Y105314D01*
X249345Y104002D01*
Y101378D01*
Y103346D01*
X251969D01*
X248033Y104658D02*
X247377Y105314D01*
X246065D01*
X245409Y104658D01*
Y102034D01*
X246065Y101378D01*
X247377D01*
X248033Y102034D01*
Y104658D01*
X250984Y117126D02*
Y119750D01*
X249672Y121062D01*
X248360Y119750D01*
Y117126D01*
Y119094D01*
X250984D01*
X247048Y117126D02*
X245737D01*
X246392D01*
Y121062D01*
X247048Y120406D01*
X222770Y106299D02*
X225394D01*
X222770Y108923D01*
Y109579D01*
X223426Y110235D01*
X224738D01*
X225394Y109579D01*
X266731Y46915D02*
Y44291D01*
X262795D01*
Y46915D01*
X264763Y44291D02*
Y45603D01*
X262795Y48227D02*
X265419D01*
Y50195D01*
X264763Y50851D01*
X262795D01*
X265419Y54787D02*
Y52819D01*
X264763Y52163D01*
X263451D01*
X262795Y52819D01*
Y54787D01*
Y60034D02*
X265419D01*
X266731Y61346D01*
X265419Y62658D01*
X262795D01*
X264763D01*
Y60034D01*
X150591Y63319D02*
X149935Y63975D01*
X148623D01*
X147967Y63319D01*
Y62663D01*
X148623Y62007D01*
X149279D01*
X148623D01*
X147967Y61351D01*
Y60695D01*
X148623Y60039D01*
X149935D01*
X150591Y60695D01*
X168307Y80380D02*
X167651Y79724D01*
X166339D01*
X165683Y80380D01*
Y83004D01*
X166339Y83660D01*
X167651D01*
X168307Y83004D01*
Y82348D01*
X167651Y81692D01*
X165683D01*
X169291Y63975D02*
X166667D01*
Y63319D01*
X169291Y60695D01*
Y60039D01*
X187008Y82020D02*
X186352Y82676D01*
X185040D01*
X184384Y82020D01*
Y81364D01*
X185040Y80708D01*
X184384Y80052D01*
Y79396D01*
X185040Y78740D01*
X186352D01*
X187008Y79396D01*
Y80052D01*
X186352Y80708D01*
X187008Y81364D01*
Y82020D01*
X186352Y80708D02*
X185040D01*
X194882Y50197D02*
X193570D01*
X194226D01*
Y54133D01*
X194882Y53477D01*
X191602Y50197D02*
X190290D01*
X190946D01*
Y54133D01*
X191602Y53477D01*
X212927Y62991D02*
X215551D01*
Y61023D01*
X214239Y61679D01*
X213583D01*
X212927Y61023D01*
Y59711D01*
X213583Y59055D01*
X214895D01*
X215551Y59711D01*
X236221Y74803D02*
X234909D01*
X235564D01*
Y78739D01*
X236221Y78083D01*
X232941D02*
X232285Y78739D01*
X230973D01*
X230317Y78083D01*
Y75459D01*
X230973Y74803D01*
X232285D01*
X232941Y75459D01*
Y78083D01*
X180118Y110237D02*
Y111549D01*
X179462Y112205D01*
X178150D01*
X177494Y111549D01*
Y110237D01*
X178150Y109581D01*
X178806D01*
Y112205D01*
X180118Y108269D02*
X177494D01*
Y106301D01*
X178150Y105645D01*
X180118D01*
X177494Y103677D02*
Y102365D01*
X178150Y101709D01*
X180118D01*
Y103677D01*
X179462Y104333D01*
X178806Y103677D01*
Y101709D01*
X176182Y100398D02*
X180118D01*
Y98430D01*
X179462Y97774D01*
X178806D01*
X178150D01*
X177494Y98430D01*
Y100398D01*
X180118Y96462D02*
Y95150D01*
Y95806D01*
X176182D01*
Y96462D01*
X180118Y91214D02*
Y92526D01*
X179462Y93182D01*
X178150D01*
X177494Y92526D01*
Y91214D01*
X178150Y90558D01*
X178806D01*
Y93182D01*
D40*
X152559Y58071D02*
Y60039D01*
M02*
