G04*
G04 #@! TF.GenerationSoftware,Altium Limited,Altium Designer,18.0.7 (293)*
G04*
G04 Layer_Color=16711935*
%FSLAX25Y25*%
%MOIN*%
G70*
G01*
G75*
%ADD27R,0.06706X0.06706*%
%ADD28C,0.06706*%
%ADD29R,0.06706X0.06706*%
%ADD30C,0.16548*%
%ADD31C,0.13398*%
%ADD32C,0.05800*%
%ADD50R,0.06800X0.06800*%
%ADD51R,0.06800X0.06800*%
D27*
X176063Y198819D02*
D03*
X90630D02*
D03*
X196063Y10000D02*
D03*
X125984D02*
D03*
D28*
X186063Y198819D02*
D03*
X196063D02*
D03*
X206063D02*
D03*
X216063D02*
D03*
X226063D02*
D03*
X236063D02*
D03*
X246063D02*
D03*
X100630D02*
D03*
X110630D02*
D03*
X120630D02*
D03*
X130630D02*
D03*
X140630D02*
D03*
X150630D02*
D03*
X160630D02*
D03*
X206063Y10000D02*
D03*
X216063D02*
D03*
X226063D02*
D03*
X236063D02*
D03*
X246063D02*
D03*
X135984D02*
D03*
X145984D02*
D03*
X155984D02*
D03*
X165984D02*
D03*
X175984D02*
D03*
X238189Y127480D02*
D03*
Y137480D02*
D03*
Y147480D02*
D03*
Y157480D02*
D03*
D29*
Y167480D02*
D03*
D30*
X17717Y70866D02*
D03*
Y90551D02*
D03*
Y110236D02*
D03*
X98032Y15748D02*
D03*
X78347D02*
D03*
D31*
X257874Y27559D02*
D03*
Y137795D02*
D03*
X59055Y198819D02*
D03*
D32*
X244094Y42323D02*
D03*
X230315Y119379D02*
D03*
X171260Y97441D02*
D03*
X206693Y50197D02*
D03*
X218789Y112490D02*
D03*
X54134Y182087D02*
D03*
X95472Y168307D02*
D03*
X217520Y87598D02*
D03*
X197835Y137795D02*
D03*
X49213Y21654D02*
D03*
X197835Y152559D02*
D03*
Y173228D02*
D03*
X177165Y41339D02*
D03*
X125984Y124016D02*
D03*
X141732Y92520D02*
D03*
X114173Y41339D02*
D03*
X96274Y70450D02*
D03*
X67913Y74803D02*
D03*
X48228Y66929D02*
D03*
X101378Y94488D02*
D03*
Y154528D02*
D03*
X72835Y59055D02*
D03*
X90236Y148307D02*
D03*
D50*
X248031Y94488D02*
D03*
X240158D02*
D03*
X232283D02*
D03*
Y110236D02*
D03*
X240158D02*
D03*
X248031D02*
D03*
D51*
X254921Y62008D02*
D03*
Y54134D02*
D03*
Y46260D02*
D03*
X247047Y54134D02*
D03*
X207677Y124016D02*
D03*
Y131890D02*
D03*
X170276Y62008D02*
D03*
Y69882D02*
D03*
Y77756D02*
D03*
X222441Y61024D02*
D03*
Y68898D02*
D03*
Y76772D02*
D03*
X205709Y76772D02*
D03*
Y68898D02*
D03*
Y61024D02*
D03*
X187992Y61024D02*
D03*
Y68898D02*
D03*
Y76772D02*
D03*
X207677Y171260D02*
D03*
Y179134D02*
D03*
Y149606D02*
D03*
Y157480D02*
D03*
M02*
