G04*
G04 #@! TF.GenerationSoftware,Altium Limited,Altium Designer,18.0.7 (293)*
G04*
G04 Layer_Color=32896*
%FSLAX25Y25*%
%MOIN*%
G70*
G01*
G75*
%ADD11C,0.01000*%
D11*
X168209Y25886D02*
X170276Y27953D01*
Y38976D01*
X160728Y50689D02*
X162303Y52264D01*
X160728Y39370D02*
Y50689D01*
X210531Y25886D02*
X212598Y27953D01*
Y38976D01*
X203051Y50689D02*
X204626Y52264D01*
X203051Y39370D02*
Y50689D01*
X191831Y25886D02*
X193898Y27953D01*
Y38976D01*
X184351Y50689D02*
X185925Y52264D01*
X184351Y39370D02*
Y50689D01*
X247638Y85630D02*
X249705Y83563D01*
X236614Y85630D02*
X247638D01*
X223327Y77658D02*
X224902Y76083D01*
X236221D01*
X152559Y176772D02*
X154626Y178839D01*
X152559Y165748D02*
Y176772D01*
X160531Y152461D02*
X162106Y154035D01*
Y165354D01*
X133858Y176772D02*
X135925Y178839D01*
X133858Y165748D02*
Y176772D01*
X141831Y152461D02*
X143405Y154035D01*
Y165354D01*
X172244Y176772D02*
X174311Y178839D01*
X172244Y165748D02*
Y176772D01*
X180217Y152461D02*
X181791Y154035D01*
Y165354D01*
X224902Y110236D02*
X225787D01*
X237205D02*
X247539D01*
X249016Y108760D01*
X225787Y110236D02*
X234941D01*
X223130Y108465D02*
X224902Y110236D01*
X231496Y93799D02*
X232579Y92716D01*
X239665D01*
X240945Y93996D01*
Y95177D01*
X231496Y93799D02*
Y94882D01*
X105315Y154035D02*
Y154921D01*
Y166339D02*
Y176673D01*
X106791Y178149D01*
X105315Y154921D02*
Y164075D01*
Y154035D02*
X107087Y152264D01*
X121752Y160630D02*
X122835Y161713D01*
Y168799D01*
X121555Y170079D02*
X122835Y168799D01*
X120374Y170079D02*
X121555D01*
X120669Y160630D02*
X121752D01*
X249016Y65551D02*
Y66437D01*
Y43799D02*
Y54134D01*
X247539Y42323D02*
X249016Y43799D01*
Y56398D02*
Y65551D01*
X247244Y68209D02*
X249016Y66437D01*
X231496Y58760D02*
X232579Y59842D01*
X231496Y51673D02*
Y58760D01*
Y51673D02*
X232776Y50394D01*
X233957D01*
X232579Y59842D02*
X233661D01*
X198629Y108376D02*
Y111000D01*
X202565D01*
Y108376D01*
X200597Y111000D02*
Y109688D01*
X202565Y107064D02*
X199941D01*
Y105096D01*
X200597Y104440D01*
X202565D01*
X199941Y100505D02*
Y102473D01*
X200597Y103129D01*
X201909D01*
X202565Y102473D01*
Y100505D01*
Y98537D02*
Y97225D01*
X201909Y96569D01*
X200597D01*
X199941Y97225D01*
Y98537D01*
X200597Y99193D01*
X201909D01*
X202565Y98537D01*
X198629Y92633D02*
X202565D01*
Y94601D01*
X201909Y95257D01*
X200597D01*
X199941Y94601D01*
Y92633D01*
X202565Y89353D02*
Y90665D01*
X201909Y91321D01*
X200597D01*
X199941Y90665D01*
Y89353D01*
X200597Y88697D01*
X201253D01*
Y91321D01*
X199941Y87386D02*
X202565D01*
X201253D01*
X200597Y86730D01*
X199941Y86074D01*
Y85418D01*
X202565Y83450D02*
X199941Y80826D01*
X198629Y79514D02*
X202565D01*
X200597D01*
Y76890D01*
X198629D01*
X202565D01*
X199941Y74922D02*
Y73611D01*
X200597Y72954D01*
X202565D01*
Y74922D01*
X201909Y75578D01*
X201253Y74922D01*
Y72954D01*
X202565Y71643D02*
Y70331D01*
Y70987D01*
X198629D01*
Y71643D01*
X202565Y68363D02*
Y67051D01*
Y67707D01*
X198629D01*
Y68363D01*
X211000Y111000D02*
X207064D01*
Y109032D01*
X207720Y108376D01*
X209032D01*
X209688Y109032D01*
Y111000D01*
Y107064D02*
Y105752D01*
Y106408D01*
X207064D01*
Y107064D01*
X209688Y103785D02*
X207064D01*
Y101817D01*
X207720Y101161D01*
X209688D01*
Y99193D02*
Y97881D01*
X209032Y97225D01*
X207720D01*
X207064Y97881D01*
Y99193D01*
X207720Y99849D01*
X209032D01*
X209688Y99193D01*
X207064Y95913D02*
X209032D01*
X209688Y95257D01*
Y93289D01*
X207064D01*
X206408Y91321D02*
X207064D01*
Y91977D01*
Y90665D01*
Y91321D01*
X209032D01*
X209688Y90665D01*
X207064Y82138D02*
Y84106D01*
X207720Y84762D01*
X209032D01*
X209688Y84106D01*
Y82138D01*
Y80170D02*
Y78858D01*
X209032Y78202D01*
X207720D01*
X207064Y78858D01*
Y80170D01*
X207720Y80826D01*
X209032D01*
X209688Y80170D01*
Y76890D02*
X207064D01*
Y74922D01*
X207720Y74266D01*
X209688D01*
Y72299D02*
X206408D01*
X207720D01*
Y72954D01*
Y71643D01*
Y72299D01*
X206408D01*
X205752Y71643D01*
X209688Y69675D02*
Y68363D01*
Y69019D01*
X207064D01*
Y69675D01*
X211000Y65083D02*
Y64427D01*
X210344Y63771D01*
X207064D01*
Y65739D01*
X207720Y66395D01*
X209032D01*
X209688Y65739D01*
Y63771D01*
X263794Y76551D02*
X259858D01*
Y78519D01*
X260514Y79175D01*
X261170D01*
X261826Y78519D01*
Y76551D01*
Y78519D01*
X262482Y79175D01*
X263138D01*
X263794Y78519D01*
Y76551D01*
X259858Y80487D02*
X262482Y83111D01*
X263794Y84423D02*
X261170D01*
X259858Y85735D01*
X261170Y87046D01*
X263794D01*
X170260Y175181D02*
X166324D01*
Y173213D01*
X166980Y172557D01*
X168292D01*
X168948Y173213D01*
Y175181D01*
X166324Y171245D02*
X168292D01*
X168948Y170589D01*
X168292Y169933D01*
X168948Y169278D01*
X168292Y168622D01*
X166324D01*
X168948Y167310D02*
X166324D01*
Y166654D01*
X166980Y165998D01*
X168948D01*
X166980D01*
X166324Y165342D01*
X166980Y164686D01*
X168948D01*
Y159438D02*
X166324D01*
X165012Y158126D01*
X166324Y156814D01*
X168948D01*
X166980D01*
Y159438D01*
X182465Y133351D02*
Y129415D01*
X179841D01*
X175905Y133351D02*
X177217Y132695D01*
X178529Y131383D01*
Y130071D01*
X177873Y129415D01*
X176561D01*
X175905Y130071D01*
Y130727D01*
X176561Y131383D01*
X178529D01*
X171969Y129415D02*
X174593D01*
X171969Y132039D01*
Y132695D01*
X172625Y133351D01*
X173937D01*
X174593Y132695D01*
X170657D02*
X170001Y133351D01*
X168690D01*
X168034Y132695D01*
Y132039D01*
X168690Y131383D01*
X169345D01*
X168690D01*
X168034Y130727D01*
Y130071D01*
X168690Y129415D01*
X170001D01*
X170657Y130071D01*
X164754Y129415D02*
Y133351D01*
X166722Y131383D01*
X164098D01*
X158850Y128103D02*
Y132039D01*
X156882D01*
X156226Y131383D01*
Y130071D01*
X156882Y129415D01*
X158850D01*
X154914D02*
X153603D01*
X154258D01*
Y132039D01*
X154914D01*
X151635Y129415D02*
Y132039D01*
X149667D01*
X149011Y131383D01*
Y129415D01*
X147043D02*
X145731D01*
X145075Y130071D01*
Y131383D01*
X145731Y132039D01*
X147043D01*
X147699Y131383D01*
Y130071D01*
X147043Y129415D01*
X143763Y132039D02*
Y130071D01*
X143107Y129415D01*
X141139D01*
Y132039D01*
X139171Y132695D02*
Y132039D01*
X139827D01*
X138515D01*
X139171D01*
Y130071D01*
X138515Y129415D01*
X129988Y132039D02*
X131956D01*
X132612Y131383D01*
Y130071D01*
X131956Y129415D01*
X129988D01*
X128020D02*
X126708D01*
X126052Y130071D01*
Y131383D01*
X126708Y132039D01*
X128020D01*
X128676Y131383D01*
Y130071D01*
X128020Y129415D01*
X124740D02*
Y132039D01*
X122773D01*
X122117Y131383D01*
Y129415D01*
X120149D02*
Y132695D01*
Y131383D01*
X120805D01*
X119493D01*
X120149D01*
Y132695D01*
X119493Y133351D01*
X117525Y129415D02*
X116213D01*
X116869D01*
Y132039D01*
X117525D01*
X112933Y128103D02*
X112277D01*
X111621Y128759D01*
Y132039D01*
X113589D01*
X114245Y131383D01*
Y130071D01*
X113589Y129415D01*
X111621D01*
X182465Y120980D02*
Y124916D01*
X180497D01*
X179841Y124260D01*
Y122948D01*
X180497Y122292D01*
X182465D01*
X178529Y124916D02*
Y120980D01*
X177217Y122292D01*
X175905Y120980D01*
Y124916D01*
X174593Y120980D02*
Y124916D01*
X173281Y123604D01*
X171969Y124916D01*
Y120980D01*
X164098D02*
X164754Y121636D01*
X165410Y120980D01*
X166066D01*
X166722Y121636D01*
Y122292D01*
X166066Y122948D01*
X166722Y123604D01*
Y124260D01*
X166066Y124916D01*
X165410D01*
X164754Y124260D01*
Y123604D01*
X165410Y122948D01*
X164754Y122292D01*
Y121636D01*
X164098Y122948D02*
X164754Y122292D01*
X166066Y122948D02*
X165410D01*
X156882Y120980D02*
X158194D01*
X158850Y121636D01*
Y122948D01*
X158194Y123604D01*
X156882D01*
X156226Y122948D01*
Y122292D01*
X158850D01*
X154914Y120980D02*
Y123604D01*
X152946D01*
X152291Y122948D01*
Y120980D01*
X150323Y123604D02*
X149011D01*
X148355Y122948D01*
Y120980D01*
X150323D01*
X150979Y121636D01*
X150323Y122292D01*
X148355D01*
X147043Y124916D02*
Y120980D01*
X145075D01*
X144419Y121636D01*
Y122292D01*
Y122948D01*
X145075Y123604D01*
X147043D01*
X143107Y120980D02*
X141795D01*
X142451D01*
Y124916D01*
X143107D01*
X137859Y120980D02*
X139171D01*
X139827Y121636D01*
Y122948D01*
X139171Y123604D01*
X137859D01*
X137204Y122948D01*
Y122292D01*
X139827D01*
X9267Y197164D02*
X13203D01*
Y199131D01*
X12547Y199787D01*
X11235D01*
X10579Y199131D01*
Y197164D01*
X13203Y195196D02*
Y193884D01*
X12547Y193228D01*
X11235D01*
X10579Y193884D01*
Y195196D01*
X11235Y195852D01*
X12547D01*
X13203Y195196D01*
X10579Y189292D02*
Y191260D01*
X11235Y191916D01*
X12547D01*
X13203Y191260D01*
Y189292D01*
Y187980D02*
Y186012D01*
X12547Y185356D01*
X11891Y186012D01*
Y187324D01*
X11235Y187980D01*
X10579Y187324D01*
Y185356D01*
X13203Y184044D02*
X12547D01*
Y183388D01*
X13203D01*
Y184044D01*
Y180765D02*
Y178797D01*
X12547Y178141D01*
X11891Y178797D01*
Y180109D01*
X11235Y180765D01*
X10579Y180109D01*
Y178141D01*
X13203Y176829D02*
Y175517D01*
Y176173D01*
X10579D01*
Y176829D01*
X13203Y173549D02*
X10579D01*
Y172893D01*
X11235Y172237D01*
X13203D01*
X11235D01*
X10579Y171581D01*
X11235Y170925D01*
X13203D01*
X14515Y169613D02*
X10579D01*
Y167646D01*
X11235Y166990D01*
X12547D01*
X13203Y167646D01*
Y169613D01*
Y165678D02*
Y164366D01*
Y165022D01*
X9267D01*
Y165678D01*
X13203Y160430D02*
Y161742D01*
X12547Y162398D01*
X11235D01*
X10579Y161742D01*
Y160430D01*
X11235Y159774D01*
X11891D01*
Y162398D01*
X13203Y157806D02*
X9923D01*
X11235D01*
Y158462D01*
Y157150D01*
Y157806D01*
X9923D01*
X9267Y157150D01*
X13203Y154526D02*
Y153215D01*
X12547Y152559D01*
X11235D01*
X10579Y153215D01*
Y154526D01*
X11235Y155182D01*
X12547D01*
X13203Y154526D01*
X10579Y148623D02*
Y150591D01*
X11235Y151247D01*
X12547D01*
X13203Y150591D01*
Y148623D01*
Y147311D02*
X12547D01*
Y146655D01*
X13203D01*
Y147311D01*
X10579Y141407D02*
Y143375D01*
X11235Y144031D01*
X12547D01*
X13203Y143375D01*
Y141407D01*
Y139439D02*
Y138128D01*
X12547Y137471D01*
X11235D01*
X10579Y138128D01*
Y139439D01*
X11235Y140095D01*
X12547D01*
X13203Y139439D01*
Y136160D02*
X10579D01*
Y135504D01*
X11235Y134848D01*
X13203D01*
X11235D01*
X10579Y134192D01*
X11235Y133536D01*
X13203D01*
X18358Y199787D02*
X17702Y199131D01*
Y197819D01*
X18358Y197164D01*
X20982D01*
X21638Y197819D01*
Y199131D01*
X20982Y199787D01*
X18358D01*
X21638Y193228D02*
Y195852D01*
X19014Y193228D01*
X18358D01*
X17702Y193884D01*
Y195196D01*
X18358Y195852D01*
X21638Y191916D02*
X19014Y189292D01*
X21638Y185356D02*
Y187980D01*
X19014Y185356D01*
X18358D01*
X17702Y186012D01*
Y187324D01*
X18358Y187980D01*
Y184044D02*
X17702Y183388D01*
Y182077D01*
X18358Y181421D01*
X20982D01*
X21638Y182077D01*
Y183388D01*
X20982Y184044D01*
X18358D01*
X21638Y177485D02*
Y180109D01*
X19014Y177485D01*
X18358D01*
X17702Y178141D01*
Y179453D01*
X18358Y180109D01*
X21638Y176173D02*
Y174861D01*
Y175517D01*
X17702D01*
X18358Y176173D01*
X171441Y23473D02*
X170785Y24129D01*
X169473D01*
X168817Y23473D01*
Y22817D01*
X169473Y22161D01*
X170129D01*
X169473D01*
X168817Y21505D01*
Y20849D01*
X169473Y20193D01*
X170785D01*
X171441Y20849D01*
X167505Y20193D02*
Y20849D01*
X166849D01*
Y20193D01*
X167505D01*
X164225Y23473D02*
X163569Y24129D01*
X162258D01*
X161602Y23473D01*
Y22817D01*
X162258Y22161D01*
X162914D01*
X162258D01*
X161602Y21505D01*
Y20849D01*
X162258Y20193D01*
X163569D01*
X164225Y20849D01*
X160290Y24129D02*
Y21505D01*
X158978Y20193D01*
X157666Y21505D01*
Y24129D01*
X263794Y99527D02*
Y100839D01*
Y100183D01*
X259858D01*
Y99527D01*
Y100839D01*
Y102807D02*
X262482Y105431D01*
X263794Y106743D02*
X259858D01*
X261170Y108055D01*
X259858Y109367D01*
X263794D01*
X91318Y51790D02*
Y54413D01*
X95253D01*
Y51790D01*
X93286Y54413D02*
Y53101D01*
X95253Y50478D02*
X92629D01*
Y48510D01*
X93286Y47854D01*
X95253D01*
X92629Y45886D02*
Y44574D01*
X93286Y43918D01*
X95253D01*
Y45886D01*
X94597Y46542D01*
X93941Y45886D01*
Y43918D01*
X91318Y42606D02*
X95253D01*
Y40638D01*
X94597Y39982D01*
X93941D01*
X93286D01*
X92629Y40638D01*
Y42606D01*
X95253Y38670D02*
Y37358D01*
Y38015D01*
X91318D01*
Y38670D01*
X95253Y33423D02*
Y34735D01*
X94597Y35391D01*
X93286D01*
X92629Y34735D01*
Y33423D01*
X93286Y32767D01*
X93941D01*
Y35391D01*
X91974Y27519D02*
X91318Y26863D01*
Y25551D01*
X91974Y24895D01*
X92629D01*
X93286Y25551D01*
X93941Y24895D01*
X94597D01*
X95253Y25551D01*
Y26863D01*
X94597Y27519D01*
X93941D01*
X93286Y26863D01*
X92629Y27519D01*
X91974D01*
X93286Y26863D02*
Y25551D01*
X91318Y23583D02*
X93941D01*
X95253Y22272D01*
X93941Y20960D01*
X91318D01*
X99752Y54413D02*
X102376D01*
X101064D01*
X100408Y53757D01*
X99752Y53101D01*
Y52446D01*
X102376Y48510D02*
Y49822D01*
X101720Y50478D01*
X100408D01*
X99752Y49822D01*
Y48510D01*
X100408Y47854D01*
X101064D01*
Y50478D01*
X103688Y45230D02*
Y44574D01*
X103032Y43918D01*
X99752D01*
Y45886D01*
X100408Y46542D01*
X101720D01*
X102376Y45886D01*
Y43918D01*
X99752Y42606D02*
X101720D01*
X102376Y41950D01*
Y39982D01*
X99752D01*
X102376Y38670D02*
Y37358D01*
Y38015D01*
X98440D01*
Y38670D01*
X99752Y34735D02*
Y33423D01*
X100408Y32767D01*
X102376D01*
Y34735D01*
X101720Y35391D01*
X101064Y34735D01*
Y32767D01*
X99096Y30799D02*
X99752D01*
Y31455D01*
Y30143D01*
Y30799D01*
X101720D01*
X102376Y30143D01*
Y27519D02*
Y26207D01*
X101720Y25551D01*
X100408D01*
X99752Y26207D01*
Y27519D01*
X100408Y28175D01*
X101720D01*
X102376Y27519D01*
X99752Y24239D02*
X102376D01*
X101064D01*
X100408Y23583D01*
X99752Y22928D01*
Y22272D01*
X106875Y54413D02*
X109499D01*
X110811Y53101D01*
X109499Y51790D01*
X106875D01*
Y50478D02*
Y49166D01*
Y49822D01*
X110811D01*
Y50478D01*
Y49166D01*
Y47198D02*
X106875D01*
X110811Y44574D01*
X106875D01*
X155399Y50378D02*
X158023D01*
X156711D01*
X156055Y49722D01*
X155399Y49066D01*
Y48410D01*
Y45786D02*
Y44474D01*
X156055Y43818D01*
X158023D01*
Y45786D01*
X157367Y46442D01*
X156711Y45786D01*
Y43818D01*
X158023Y42507D02*
X155399D01*
Y40539D01*
X156055Y39883D01*
X158023D01*
X159335Y37259D02*
Y36603D01*
X158679Y35947D01*
X155399D01*
Y37915D01*
X156055Y38571D01*
X157367D01*
X158023Y37915D01*
Y35947D01*
Y32667D02*
Y33979D01*
X157367Y34635D01*
X156055D01*
X155399Y33979D01*
Y32667D01*
X156055Y32011D01*
X156711D01*
Y34635D01*
X129292Y64290D02*
X128636Y64946D01*
Y66257D01*
X129292Y66913D01*
X131916D01*
X132572Y66257D01*
Y64946D01*
X131916Y64290D01*
X129948Y62978D02*
X131916D01*
X132572Y62322D01*
Y60354D01*
X129948D01*
Y59042D02*
X132572D01*
X131260D01*
X130604Y58386D01*
X129948Y57730D01*
Y57074D01*
Y55106D02*
X132572D01*
X131260D01*
X130604Y54450D01*
X129948Y53794D01*
Y53138D01*
X132572Y49203D02*
Y50515D01*
X131916Y51170D01*
X130604D01*
X129948Y50515D01*
Y49203D01*
X130604Y48547D01*
X131260D01*
Y51170D01*
X132572Y47235D02*
X129948D01*
Y45267D01*
X130604Y44611D01*
X132572D01*
X129292Y42643D02*
X129948D01*
Y43299D01*
Y41987D01*
Y42643D01*
X131916D01*
X132572Y41987D01*
Y36083D02*
Y34116D01*
X131916Y33460D01*
X131260Y34116D01*
Y35427D01*
X130604Y36083D01*
X129948Y35427D01*
Y33460D01*
X132572Y30180D02*
Y31492D01*
X131916Y32148D01*
X130604D01*
X129948Y31492D01*
Y30180D01*
X130604Y29524D01*
X131260D01*
Y32148D01*
X132572Y28212D02*
X129948D01*
Y26244D01*
X130604Y25588D01*
X132572D01*
Y24276D02*
Y22308D01*
X131916Y21652D01*
X131260Y22308D01*
Y23620D01*
X130604Y24276D01*
X129948Y23620D01*
Y21652D01*
X132572Y18373D02*
Y19684D01*
X131916Y20340D01*
X130604D01*
X129948Y19684D01*
Y18373D01*
X130604Y17717D01*
X131260D01*
Y20340D01*
X141006Y66913D02*
X137071D01*
Y64946D01*
X137727Y64290D01*
X139039D01*
X139694Y64946D01*
Y66913D01*
Y62978D02*
Y61666D01*
Y62322D01*
X137071D01*
Y62978D01*
X139694Y59698D02*
X137071D01*
Y57730D01*
X137727Y57074D01*
X139694D01*
Y55106D02*
Y53794D01*
X139039Y53138D01*
X137727D01*
X137071Y53794D01*
Y55106D01*
X137727Y55762D01*
X139039D01*
X139694Y55106D01*
Y51170D02*
Y49858D01*
X139039Y49203D01*
X137727D01*
X137071Y49858D01*
Y51170D01*
X137727Y51826D01*
X139039D01*
X139694Y51170D01*
X137071Y47891D02*
X139039D01*
X139694Y47235D01*
Y45267D01*
X137071D01*
X136415Y43299D02*
X137071D01*
Y43955D01*
Y42643D01*
Y43299D01*
X139039D01*
X139694Y42643D01*
Y34116D02*
X139039Y34771D01*
X139694Y35427D01*
Y36083D01*
X139039Y36739D01*
X138382D01*
X137727Y36083D01*
X137071Y36739D01*
X136415D01*
X135759Y36083D01*
Y35427D01*
X136415Y34771D01*
X137071D01*
X137727Y35427D01*
X138382Y34771D01*
X139039D01*
X137727Y34116D02*
X138382Y34771D01*
X137727Y36083D02*
Y35427D01*
X139694Y28868D02*
X137071D01*
X135759Y27556D01*
X137071Y26244D01*
X139694D01*
X137727D01*
Y28868D01*
X135759Y24932D02*
X139694D01*
Y22964D01*
X139039Y22308D01*
X136415D01*
X135759Y22964D01*
Y24932D01*
X136415Y18373D02*
X135759Y19029D01*
Y20340D01*
X136415Y20996D01*
X139039D01*
X139694Y20340D01*
Y19029D01*
X139039Y18373D01*
X145505Y64290D02*
Y66257D01*
X146161Y66913D01*
X147473D01*
X148129Y66257D01*
Y64290D01*
Y62322D02*
Y61010D01*
X147473Y60354D01*
X146161D01*
X145505Y61010D01*
Y62322D01*
X146161Y62978D01*
X147473D01*
X148129Y62322D01*
Y59042D02*
X145505D01*
Y57074D01*
X146161Y56418D01*
X148129D01*
Y54450D02*
X144850D01*
X146161D01*
Y55106D01*
Y53794D01*
Y54450D01*
X144850D01*
X144193Y53794D01*
X148129Y51826D02*
Y50515D01*
Y51170D01*
X145505D01*
Y51826D01*
X149441Y47235D02*
Y46579D01*
X148785Y45923D01*
X145505D01*
Y47891D01*
X146161Y48547D01*
X147473D01*
X148129Y47891D01*
Y45923D01*
X86598Y169540D02*
Y173476D01*
X84631D01*
X83975Y172820D01*
Y171508D01*
X84631Y170852D01*
X86598D01*
X82663Y172164D02*
Y170196D01*
X82007Y169540D01*
X80039D01*
Y172164D01*
X78727Y169540D02*
X77415D01*
X78071D01*
Y173476D01*
X78727D01*
X75447Y169540D02*
X74135D01*
X74791D01*
Y173476D01*
X75447D01*
X83975Y165697D02*
X84631Y166353D01*
X85943D01*
X86598Y165697D01*
Y165041D01*
X85943Y164385D01*
X84631D01*
X83975Y163729D01*
Y163073D01*
X84631Y162417D01*
X85943D01*
X86598Y163073D01*
X82663Y166353D02*
Y162417D01*
X80695D01*
X80039Y163073D01*
Y165697D01*
X80695Y166353D01*
X82663D01*
X78727Y162417D02*
Y165041D01*
X77415Y166353D01*
X76103Y165041D01*
Y162417D01*
Y164385D01*
X78727D01*
X227679Y157495D02*
Y153559D01*
X225711D01*
X225055Y154215D01*
Y154871D01*
X225711Y155527D01*
X227679D01*
X225711D01*
X225055Y156183D01*
Y156839D01*
X225711Y157495D01*
X227679D01*
X83975Y157400D02*
X84631Y158056D01*
X85943D01*
X86598Y157400D01*
Y156744D01*
X85943Y156088D01*
X84631D01*
X83975Y155432D01*
Y154776D01*
X84631Y154120D01*
X85943D01*
X86598Y154776D01*
X82007Y154120D02*
X80695D01*
X80039Y154776D01*
Y156088D01*
X80695Y156744D01*
X82007D01*
X82663Y156088D01*
Y154776D01*
X82007Y154120D01*
X78727D02*
X77415D01*
X78071D01*
Y158056D01*
X78727D01*
X72823D02*
Y154120D01*
X74791D01*
X75447Y154776D01*
Y156088D01*
X74791Y156744D01*
X72823D01*
X69544Y154120D02*
X70855D01*
X71511Y154776D01*
Y156088D01*
X70855Y156744D01*
X69544D01*
X68888Y156088D01*
Y155432D01*
X71511D01*
X67576Y156744D02*
Y154120D01*
Y155432D01*
X66920Y156088D01*
X66264Y156744D01*
X65608D01*
X59048Y157400D02*
Y156744D01*
X59704D01*
X58392D01*
X59048D01*
Y154776D01*
X58392Y154120D01*
X55769D02*
X54457D01*
X53801Y154776D01*
Y156088D01*
X54457Y156744D01*
X55769D01*
X56424Y156088D01*
Y154776D01*
X55769Y154120D01*
X46585D02*
X47897D01*
X48553Y154776D01*
Y156088D01*
X47897Y156744D01*
X46585D01*
X45929Y156088D01*
Y155432D01*
X48553D01*
X44617Y154120D02*
Y156744D01*
X42649D01*
X41993Y156088D01*
Y154120D01*
X40025Y156744D02*
X38714D01*
X38058Y156088D01*
Y154120D01*
X40025D01*
X40681Y154776D01*
X40025Y155432D01*
X38058D01*
X36746Y158056D02*
Y154120D01*
X34778D01*
X34122Y154776D01*
Y155432D01*
Y156088D01*
X34778Y156744D01*
X36746D01*
X32810Y154120D02*
X31498D01*
X32154D01*
Y158056D01*
X32810D01*
X27562Y154120D02*
X28874D01*
X29530Y154776D01*
Y156088D01*
X28874Y156744D01*
X27562D01*
X26906Y156088D01*
Y155432D01*
X29530D01*
X86598Y150933D02*
X85286D01*
X85943D01*
Y146997D01*
X86598D01*
X85286D01*
X80695D02*
X83319D01*
X80695Y149621D01*
Y150277D01*
X81351Y150933D01*
X82663D01*
X83319Y150277D01*
X76759D02*
X77415Y150933D01*
X78727D01*
X79383Y150277D01*
Y147653D01*
X78727Y146997D01*
X77415D01*
X76759Y147653D01*
X71511Y145685D02*
Y149621D01*
X69544D01*
X68888Y148965D01*
Y147653D01*
X69544Y146997D01*
X71511D01*
X67576Y149621D02*
Y147653D01*
X66920Y146997D01*
X64952D01*
Y149621D01*
X63640Y146997D02*
X62328D01*
X62984D01*
Y150933D01*
X63640D01*
X60360Y146997D02*
X59048D01*
X59704D01*
Y150933D01*
X60360D01*
X57080Y149621D02*
Y147653D01*
X56424Y146997D01*
X54457D01*
Y149621D01*
X53145Y145685D02*
Y149621D01*
X51177D01*
X50521Y148965D01*
Y147653D01*
X51177Y146997D01*
X53145D01*
X49209D02*
X47241D01*
X46585Y147653D01*
X47241Y148309D01*
X48553D01*
X49209Y148965D01*
X48553Y149621D01*
X46585D01*
X226701Y136826D02*
X225389D01*
X226045D01*
Y132890D01*
X226701D01*
X225389D01*
X237520Y176430D02*
Y180366D01*
X235552D01*
X234896Y179710D01*
Y178398D01*
X235552Y177742D01*
X237520D01*
X233584Y179054D02*
Y177086D01*
X232928Y176430D01*
X230960D01*
Y179054D01*
X229648Y176430D02*
X228336D01*
X228992D01*
Y180366D01*
X229648D01*
X226369Y176430D02*
X225057D01*
X225713D01*
Y180366D01*
X226369D01*
X227680Y169307D02*
Y171931D01*
X226369Y173243D01*
X225057Y171931D01*
Y169307D01*
Y171275D01*
X227680D01*
X131874Y175181D02*
X127938D01*
Y173213D01*
X128594Y172557D01*
X129906D01*
X130562Y173213D01*
Y175181D01*
X127938Y171245D02*
X129906D01*
X130562Y170589D01*
X129906Y169933D01*
X130562Y169278D01*
X129906Y168622D01*
X127938D01*
X130562Y167310D02*
X127938D01*
Y166654D01*
X128594Y165998D01*
X130562D01*
X128594D01*
X127938Y165342D01*
X128594Y164686D01*
X130562D01*
X126626Y159438D02*
X130562D01*
Y157470D01*
X129906Y156814D01*
X129250D01*
X128594Y157470D01*
Y159438D01*
Y157470D01*
X127938Y156814D01*
X127282D01*
X126626Y157470D01*
Y159438D01*
X86598Y186273D02*
Y190208D01*
X84631D01*
X83975Y189552D01*
Y188240D01*
X84631Y187584D01*
X86598D01*
X82663Y188896D02*
Y186928D01*
X82007Y186273D01*
X80039D01*
Y188896D01*
X78727Y186273D02*
X77415D01*
X78071D01*
Y190208D01*
X78727D01*
X75447Y186273D02*
X74135D01*
X74791D01*
Y190208D01*
X75447D01*
X83975Y182429D02*
X84631Y183085D01*
X85943D01*
X86598Y182429D01*
Y181773D01*
X85943Y181117D01*
X84631D01*
X83975Y180462D01*
Y179806D01*
X84631Y179150D01*
X85943D01*
X86598Y179806D01*
X80039Y182429D02*
X80695Y183085D01*
X82007D01*
X82663Y182429D01*
Y179806D01*
X82007Y179150D01*
X80695D01*
X80039Y179806D01*
X78727Y183085D02*
Y179150D01*
X76103D01*
X195947Y179447D02*
X195291Y180103D01*
Y181415D01*
X195947Y182071D01*
X196603D01*
X197259Y181415D01*
Y180103D01*
X197915Y179447D01*
X198571D01*
X199227Y180103D01*
Y181415D01*
X198571Y182071D01*
X199227Y177479D02*
Y176167D01*
X198571Y175511D01*
X197259D01*
X196603Y176167D01*
Y177479D01*
X197259Y178135D01*
X198571D01*
X199227Y177479D01*
Y174199D02*
Y172888D01*
Y173543D01*
X195291D01*
Y174199D01*
Y168296D02*
X199227D01*
Y170264D01*
X198571Y170920D01*
X197259D01*
X196603Y170264D01*
Y168296D01*
X199227Y165016D02*
Y166328D01*
X198571Y166984D01*
X197259D01*
X196603Y166328D01*
Y165016D01*
X197259Y164360D01*
X197915D01*
Y166984D01*
X196603Y163048D02*
X199227D01*
X197915D01*
X197259Y162392D01*
X196603Y161736D01*
Y161080D01*
X195947Y154521D02*
X196603D01*
Y155177D01*
Y153865D01*
Y154521D01*
X198571D01*
X199227Y153865D01*
Y151241D02*
Y149929D01*
X198571Y149273D01*
X197259D01*
X196603Y149929D01*
Y151241D01*
X197259Y151897D01*
X198571D01*
X199227Y151241D01*
Y142058D02*
Y143369D01*
X198571Y144025D01*
X197259D01*
X196603Y143369D01*
Y142058D01*
X197259Y141402D01*
X197915D01*
Y144025D01*
X199227Y140090D02*
X196603D01*
Y138122D01*
X197259Y137466D01*
X199227D01*
X196603Y135498D02*
Y134186D01*
X197259Y133530D01*
X199227D01*
Y135498D01*
X198571Y136154D01*
X197915Y135498D01*
Y133530D01*
X195291Y132218D02*
X199227D01*
Y130250D01*
X198571Y129594D01*
X197915D01*
X197259D01*
X196603Y130250D01*
Y132218D01*
X199227Y128282D02*
Y126971D01*
Y127627D01*
X195291D01*
Y128282D01*
X199227Y123035D02*
Y124347D01*
X198571Y125003D01*
X197259D01*
X196603Y124347D01*
Y123035D01*
X197259Y122379D01*
X197915D01*
Y125003D01*
X206349Y180103D02*
Y181415D01*
X205694Y182071D01*
X204382D01*
X203726Y181415D01*
Y180103D01*
X204382Y179447D01*
X205038D01*
Y182071D01*
X206349Y178135D02*
X203726D01*
Y176167D01*
X204382Y175511D01*
X206349D01*
X203726Y171576D02*
Y173543D01*
X204382Y174199D01*
X205694D01*
X206349Y173543D01*
Y171576D01*
Y169608D02*
Y168296D01*
X205694Y167640D01*
X204382D01*
X203726Y168296D01*
Y169608D01*
X204382Y170264D01*
X205694D01*
X206349Y169608D01*
X202414Y163704D02*
X206349D01*
Y165672D01*
X205694Y166328D01*
X204382D01*
X203726Y165672D01*
Y163704D01*
X206349Y160424D02*
Y161736D01*
X205694Y162392D01*
X204382D01*
X203726Y161736D01*
Y160424D01*
X204382Y159768D01*
X205038D01*
Y162392D01*
X203726Y158456D02*
X206349D01*
X205038D01*
X204382Y157800D01*
X203726Y157144D01*
Y156489D01*
X207661Y150585D02*
X203726D01*
Y148617D01*
X204382Y147961D01*
X205694D01*
X206349Y148617D01*
Y150585D01*
X203726Y146649D02*
X205694D01*
X206349Y145993D01*
Y144025D01*
X203726D01*
X206349Y142713D02*
Y141402D01*
Y142058D01*
X202414D01*
Y142713D01*
X206349Y139434D02*
Y138122D01*
Y138778D01*
X202414D01*
Y139434D01*
X203726Y136154D02*
X205694D01*
X206349Y135498D01*
Y133530D01*
X203726D01*
X207661Y132218D02*
X203726D01*
Y130250D01*
X204382Y129594D01*
X205694D01*
X206349Y130250D01*
Y132218D01*
Y128282D02*
Y126315D01*
X205694Y125659D01*
X205038Y126315D01*
Y127627D01*
X204382Y128282D01*
X203726Y127627D01*
Y125659D01*
X103331Y175181D02*
X99395D01*
Y173213D01*
X100051Y172557D01*
X101363D01*
X102019Y173213D01*
Y175181D01*
X99395Y171245D02*
X101363D01*
X102019Y170589D01*
X101363Y169933D01*
X102019Y169278D01*
X101363Y168622D01*
X99395D01*
X102019Y167310D02*
X99395D01*
Y166654D01*
X100051Y165998D01*
X102019D01*
X100051D01*
X99395Y165342D01*
X100051Y164686D01*
X102019D01*
X98739Y156814D02*
X98083Y157470D01*
Y158782D01*
X98739Y159438D01*
X101363D01*
X102019Y158782D01*
Y157470D01*
X101363Y156814D01*
X28216Y100526D02*
X27560Y101182D01*
Y102494D01*
X28216Y103150D01*
X30840D01*
X31496Y102494D01*
Y101182D01*
X30840Y100526D01*
X27560Y83661D02*
X31496D01*
Y81694D01*
X30840Y81038D01*
X30184D01*
X29528Y81694D01*
Y83661D01*
Y81694D01*
X28872Y81038D01*
X28216D01*
X27560Y81694D01*
Y83661D01*
X31496Y64567D02*
X28872D01*
X27560Y63255D01*
X28872Y61943D01*
X31496D01*
X29528D01*
Y64567D01*
X66634Y5511D02*
Y2887D01*
X65322Y1575D01*
X64010Y2887D01*
Y5511D01*
X60074Y4855D02*
X60730Y5511D01*
X62042D01*
X62698Y4855D01*
Y2231D01*
X62042Y1575D01*
X60730D01*
X60074Y2231D01*
X56139Y4855D02*
X56795Y5511D01*
X58106D01*
X58762Y4855D01*
Y2231D01*
X58106Y1575D01*
X56795D01*
X56139Y2231D01*
X84286Y5347D02*
X84942Y6003D01*
X86253D01*
X86910Y5347D01*
Y2723D01*
X86253Y2067D01*
X84942D01*
X84286Y2723D01*
Y4035D01*
X85597D01*
X82974Y2067D02*
Y6003D01*
X80350Y2067D01*
Y6003D01*
X79038D02*
Y2067D01*
X77070D01*
X76414Y2723D01*
Y5347D01*
X77070Y6003D01*
X79038D01*
X161353Y57971D02*
X163976D01*
Y56003D01*
X162664Y56659D01*
X162009D01*
X161353Y56003D01*
Y54691D01*
X162009Y54035D01*
X163320D01*
X163976Y54691D01*
X160041Y57971D02*
Y55347D01*
X158729Y54035D01*
X157417Y55347D01*
Y57971D01*
X219521Y54134D02*
X215585D01*
Y52166D01*
X216241Y51510D01*
X217553D01*
X218209Y52166D01*
Y54134D01*
X214273Y50198D02*
X218209D01*
X216241D01*
X215585Y49542D01*
Y48230D01*
X216241Y47574D01*
X218209D01*
X215585Y45606D02*
Y44295D01*
X216241Y43639D01*
X218209D01*
Y45606D01*
X217553Y46262D01*
X216897Y45606D01*
Y43639D01*
X218209Y42327D02*
Y40359D01*
X217553Y39703D01*
X216897Y40359D01*
Y41671D01*
X216241Y42327D01*
X215585Y41671D01*
Y39703D01*
X218209Y36423D02*
Y37735D01*
X217553Y38391D01*
X216241D01*
X215585Y37735D01*
Y36423D01*
X216241Y35767D01*
X216897D01*
Y38391D01*
X214273Y30519D02*
X218209D01*
Y28552D01*
X217553Y27896D01*
X216897D01*
X216241Y28552D01*
Y30519D01*
Y28552D01*
X215585Y27896D01*
X214929D01*
X214273Y28552D01*
Y30519D01*
X182710Y50984D02*
X178774D01*
Y49016D01*
X179430Y48360D01*
X180742D01*
X181398Y49016D01*
Y50984D01*
X177462Y47049D02*
X181398D01*
X179430D01*
X178774Y46393D01*
Y45081D01*
X179430Y44425D01*
X181398D01*
X178774Y42457D02*
Y41145D01*
X179430Y40489D01*
X181398D01*
Y42457D01*
X180742Y43113D01*
X180086Y42457D01*
Y40489D01*
X181398Y39177D02*
Y37209D01*
X180742Y36553D01*
X180086Y37209D01*
Y38521D01*
X179430Y39177D01*
X178774Y38521D01*
Y36553D01*
X181398Y33273D02*
Y34585D01*
X180742Y35241D01*
X179430D01*
X178774Y34585D01*
Y33273D01*
X179430Y32618D01*
X180086D01*
Y35241D01*
X181398Y27370D02*
X178774D01*
X177462Y26058D01*
X178774Y24746D01*
X181398D01*
X179430D01*
Y27370D01*
X218307Y19980D02*
Y22604D01*
X216995Y23916D01*
X215683Y22604D01*
Y19980D01*
Y21948D01*
X218307D01*
X211748Y19980D02*
X214371D01*
X211748Y22604D01*
Y23260D01*
X212403Y23916D01*
X213715D01*
X214371Y23260D01*
X206398Y54134D02*
Y56758D01*
X205086Y58070D01*
X203774Y56758D01*
Y54134D01*
Y56102D01*
X206398D01*
X202462Y57414D02*
X201806Y58070D01*
X200494D01*
X199838Y57414D01*
Y56758D01*
X200494Y56102D01*
X201150D01*
X200494D01*
X199838Y55446D01*
Y54790D01*
X200494Y54134D01*
X201806D01*
X202462Y54790D01*
X196063Y20472D02*
Y23096D01*
X194751Y24408D01*
X193439Y23096D01*
Y20472D01*
Y22440D01*
X196063D01*
X192127Y23752D02*
X191471Y24408D01*
X190159D01*
X189504Y23752D01*
Y21128D01*
X190159Y20472D01*
X191471D01*
X192127Y21128D01*
Y23752D01*
X187303Y54134D02*
Y56758D01*
X185991Y58070D01*
X184679Y56758D01*
Y54134D01*
Y56102D01*
X187303D01*
X183367Y54134D02*
X182055D01*
X182711D01*
Y58070D01*
X183367Y57414D01*
X255906Y68898D02*
X254594D01*
X255250D01*
Y72833D01*
X255906Y72177D01*
X250002Y68898D02*
X252626D01*
X250002Y71522D01*
Y72177D01*
X250658Y72833D01*
X251970D01*
X252626Y72177D01*
X255906Y37402D02*
Y40025D01*
X254594Y41337D01*
X253282Y40025D01*
Y37402D01*
Y39369D01*
X255906D01*
X249346Y41337D02*
X251970D01*
Y39369D01*
X250658Y40025D01*
X250002D01*
X249346Y39369D01*
Y38058D01*
X250002Y37402D01*
X251314D01*
X251970Y38058D01*
X229174Y88426D02*
X227862D01*
X228518D01*
Y92361D01*
X229174Y91706D01*
X225894Y88426D02*
X224582D01*
X225238D01*
Y92361D01*
X225894Y91706D01*
X253937Y113189D02*
X252625D01*
X253281D01*
Y117125D01*
X253937Y116469D01*
X250657D02*
X250001Y117125D01*
X248689D01*
X248033Y116469D01*
Y115813D01*
X248689Y115157D01*
X249345D01*
X248689D01*
X248033Y114501D01*
Y113845D01*
X248689Y113189D01*
X250001D01*
X250657Y113845D01*
X221654Y72933D02*
Y75557D01*
X220342Y76869D01*
X219030Y75557D01*
Y72933D01*
Y74901D01*
X221654D01*
X215750Y72933D02*
Y76869D01*
X217718Y74901D01*
X215094D01*
X123031Y172244D02*
X121720D01*
X122376D01*
Y176180D01*
X123031Y175524D01*
X119752D02*
X119096Y176180D01*
X117784D01*
X117128Y175524D01*
Y174868D01*
X117784Y174212D01*
X118440D01*
X117784D01*
X117128Y173556D01*
Y172900D01*
X117784Y172244D01*
X119096D01*
X119752Y172900D01*
X102691Y183070D02*
X104003Y182414D01*
X105315Y181102D01*
Y179790D01*
X104659Y179134D01*
X103347D01*
X102691Y179790D01*
Y180446D01*
X103347Y181102D01*
X105315D01*
X228346Y56429D02*
X227691Y57085D01*
X226379D01*
X225723Y56429D01*
Y55773D01*
X226379Y55117D01*
X227034D01*
X226379D01*
X225723Y54461D01*
Y53806D01*
X226379Y53150D01*
X227691D01*
X228346Y53806D01*
X221457Y112205D02*
Y116140D01*
X223425Y114173D01*
X220801D01*
X250723Y86221D02*
X253346D01*
X250723Y88844D01*
Y89500D01*
X251379Y90156D01*
X252691D01*
X253346Y89500D01*
X259842Y49409D02*
X262466D01*
X263778Y50721D01*
X262466Y52033D01*
X259842D01*
X261810D01*
Y49409D01*
X259842Y53345D02*
X262466Y55969D01*
X263778Y57281D02*
X260498D01*
X259842Y57937D01*
Y59249D01*
X260498Y59905D01*
X263778D01*
X185039Y151902D02*
X184383Y152558D01*
X183071D01*
X182416Y151902D01*
Y151246D01*
X183071Y150590D01*
X183728D01*
X183071D01*
X182416Y149934D01*
Y149278D01*
X183071Y148622D01*
X184383D01*
X185039Y149278D01*
X139764D02*
X139108Y148622D01*
X137796D01*
X137140Y149278D01*
Y151902D01*
X137796Y152558D01*
X139108D01*
X139764Y151902D01*
Y151246D01*
X139108Y150590D01*
X137140D01*
X166339Y152558D02*
X163715D01*
Y151902D01*
X166339Y149278D01*
Y148622D01*
X153298Y182580D02*
X152642Y183236D01*
X151330D01*
X150675Y182580D01*
Y181924D01*
X151330Y181268D01*
X150675Y180612D01*
Y179956D01*
X151330Y179300D01*
X152642D01*
X153298Y179956D01*
Y180612D01*
X152642Y181268D01*
X153298Y181924D01*
Y182580D01*
X152642Y181268D02*
X151330D01*
X104331Y147638D02*
X103019D01*
X103675D01*
Y151574D01*
X104331Y150918D01*
X101051Y147638D02*
X99739D01*
X100395D01*
Y151574D01*
X101051Y150918D01*
X169620Y183070D02*
X172244D01*
Y181102D01*
X170932Y181758D01*
X170276D01*
X169620Y181102D01*
Y179790D01*
X170276Y179134D01*
X171588D01*
X172244Y179790D01*
X133858Y179134D02*
X132546D01*
X133202D01*
Y183070D01*
X133858Y182414D01*
X130578D02*
X129922Y183070D01*
X128611D01*
X127955Y182414D01*
Y179790D01*
X128611Y179134D01*
X129922D01*
X130578Y179790D01*
Y182414D01*
X150591Y175198D02*
Y176509D01*
X149935Y177165D01*
X148623D01*
X147967Y176509D01*
Y175198D01*
X148623Y174541D01*
X149279D01*
Y177165D01*
X150591Y173230D02*
X147967D01*
Y171262D01*
X148623Y170606D01*
X150591D01*
X147967Y168638D02*
Y167326D01*
X148623Y166670D01*
X150591D01*
Y168638D01*
X149935Y169294D01*
X149279Y168638D01*
Y166670D01*
X146655Y165358D02*
X150591D01*
Y163390D01*
X149935Y162734D01*
X149279D01*
X148623D01*
X147967Y163390D01*
Y165358D01*
X150591Y161422D02*
Y160110D01*
Y160766D01*
X146655D01*
Y161422D01*
X150591Y156175D02*
Y157487D01*
X149935Y158143D01*
X148623D01*
X147967Y157487D01*
Y156175D01*
X148623Y155519D01*
X149279D01*
Y158143D01*
M02*
