G04*
G04 #@! TF.GenerationSoftware,Altium Limited,Altium Designer,18.0.7 (293)*
G04*
G04 Layer_Color=128*
%FSLAX25Y25*%
%MOIN*%
G70*
G01*
G75*
%ADD60R,0.06000X0.06000*%
%ADD61R,0.06000X0.06000*%
D60*
X110236Y173228D02*
D03*
Y165354D02*
D03*
Y157480D02*
D03*
X118110Y165354D02*
D03*
X244094Y47244D02*
D03*
Y55118D02*
D03*
Y62992D02*
D03*
X236220Y55118D02*
D03*
X116142Y28839D02*
D03*
Y36713D02*
D03*
X194882Y129921D02*
D03*
Y137795D02*
D03*
X211417D02*
D03*
Y129921D02*
D03*
X177165Y173228D02*
D03*
X177067Y165256D02*
D03*
X177165Y157480D02*
D03*
X138779Y173228D02*
D03*
X138681Y165256D02*
D03*
X138779Y157480D02*
D03*
X157480Y173228D02*
D03*
X157382Y165256D02*
D03*
X157480Y157480D02*
D03*
X188976Y31496D02*
D03*
X189075Y39468D02*
D03*
X188976Y47244D02*
D03*
X207677Y31496D02*
D03*
X207775Y39469D02*
D03*
X207677Y47244D02*
D03*
X165354Y31496D02*
D03*
X165453Y39469D02*
D03*
X165354Y47244D02*
D03*
D61*
X244094Y80709D02*
D03*
X236122Y80807D02*
D03*
X228346Y80709D02*
D03*
X236220Y97441D02*
D03*
X228346Y105315D02*
D03*
X236220D02*
D03*
X244094D02*
D03*
M02*
