G04*
G04 #@! TF.GenerationSoftware,Altium Limited,Altium Designer,18.0.7 (293)*
G04*
G04 Layer_Physical_Order=1*
G04 Layer_Color=255*
%FSLAX25Y25*%
%MOIN*%
G70*
G01*
G75*
%ADD10C,0.00787*%
%ADD11C,0.01000*%
%ADD13R,0.04331X0.12992*%
%ADD14R,0.10236X0.04331*%
%ADD15R,0.04331X0.10236*%
G04:AMPARAMS|DCode=16|XSize=78.35mil|YSize=24.8mil|CornerRadius=1.98mil|HoleSize=0mil|Usage=FLASHONLY|Rotation=90.000|XOffset=0mil|YOffset=0mil|HoleType=Round|Shape=RoundedRectangle|*
%AMROUNDEDRECTD16*
21,1,0.07835,0.02084,0,0,90.0*
21,1,0.07438,0.02480,0,0,90.0*
1,1,0.00397,0.01042,0.03719*
1,1,0.00397,0.01042,-0.03719*
1,1,0.00397,-0.01042,-0.03719*
1,1,0.00397,-0.01042,0.03719*
%
%ADD16ROUNDEDRECTD16*%
%ADD17R,0.24016X0.24803*%
%ADD18R,0.11024X0.05906*%
%ADD19R,0.05906X0.01575*%
%ADD20R,0.05906X0.10236*%
%ADD21R,0.04331X0.06693*%
%ADD22R,0.15748X0.07874*%
%ADD23R,0.06693X0.04331*%
%ADD24R,0.02756X0.03937*%
%ADD46R,0.37795X0.23622*%
%ADD47R,0.15748X0.11417*%
%ADD48C,0.01181*%
%ADD49C,0.01968*%
%ADD50C,0.03937*%
%ADD51C,0.00000*%
%ADD52C,0.15748*%
%ADD53C,0.05906*%
%ADD54R,0.05906X0.05906*%
%ADD55R,0.05906X0.05906*%
%ADD56C,0.12598*%
%ADD57C,0.03150*%
%ADD58C,0.01968*%
G36*
X252210Y201029D02*
Y155753D01*
X263179Y144784D01*
X262843Y144413D01*
X262490Y144703D01*
X261053Y145471D01*
X259495Y145943D01*
X257874Y146103D01*
X256253Y145943D01*
X254695Y145471D01*
X253258Y144703D01*
X252000Y143670D01*
X250966Y142411D01*
X250199Y140975D01*
X249726Y139416D01*
X249566Y137795D01*
X249726Y136175D01*
X250199Y134616D01*
X250966Y133180D01*
X252000Y131921D01*
X253258Y130888D01*
X254695Y130120D01*
X256253Y129647D01*
X257874Y129488D01*
X259495Y129647D01*
X261053Y130120D01*
X262490Y130888D01*
X263749Y131921D01*
X264782Y133180D01*
X265549Y134616D01*
X266043Y134522D01*
Y30833D01*
X265549Y30738D01*
X264782Y32175D01*
X263749Y33434D01*
X262490Y34467D01*
X261053Y35234D01*
X259495Y35707D01*
X257874Y35867D01*
X256253Y35707D01*
X254695Y35234D01*
X253258Y34467D01*
X252000Y33434D01*
X250966Y32175D01*
X250199Y30738D01*
X249726Y29180D01*
X249566Y27559D01*
X249726Y25938D01*
X250199Y24380D01*
X250966Y22944D01*
X252000Y21685D01*
X253258Y20652D01*
X254695Y19884D01*
X256253Y19411D01*
X257874Y19251D01*
X259495Y19411D01*
X261053Y19884D01*
X262490Y20652D01*
X263749Y21685D01*
X264782Y22944D01*
X265549Y24380D01*
X266043Y24286D01*
Y21949D01*
X248273Y4178D01*
X247289Y3194D01*
X8115D01*
X5789Y5520D01*
Y200671D01*
X9843Y204724D01*
X52595Y204768D01*
X52831Y204268D01*
X52148Y203434D01*
X51380Y201998D01*
X50907Y200440D01*
X50747Y198819D01*
X50907Y197198D01*
X51380Y195640D01*
X52148Y194203D01*
X53181Y192945D01*
X54440Y191911D01*
X55876Y191144D01*
X57434Y190671D01*
X59055Y190511D01*
X60676Y190671D01*
X62234Y191144D01*
X63671Y191911D01*
X64929Y192945D01*
X65664Y193840D01*
X66142Y193898D01*
Y193898D01*
X66142Y193898D01*
X75984D01*
Y196914D01*
X76484Y197013D01*
X76764Y196337D01*
X77553Y195309D01*
X78581Y194520D01*
X79778Y194024D01*
X81063Y193855D01*
X82348Y194024D01*
X83545Y194520D01*
X84573Y195309D01*
X85362Y196337D01*
X85806Y197411D01*
X85807Y197411D01*
X86319D01*
X86320Y197411D01*
X86764Y196337D01*
X87553Y195309D01*
X88581Y194520D01*
X89778Y194024D01*
X91063Y193855D01*
X92348Y194024D01*
X93545Y194520D01*
X94573Y195309D01*
X95362Y196337D01*
X95858Y197534D01*
X96027Y198819D01*
X95858Y200104D01*
X95362Y201301D01*
X94573Y202329D01*
X93545Y203118D01*
X92348Y203613D01*
X91063Y203783D01*
X89778Y203613D01*
X88581Y203118D01*
X87553Y202329D01*
X86764Y201301D01*
X86320Y200227D01*
X86319Y200227D01*
X85807D01*
X85806Y200227D01*
X85362Y201301D01*
X84573Y202329D01*
X83545Y203118D01*
X82348Y203613D01*
X81063Y203783D01*
X79778Y203613D01*
X78581Y203118D01*
X77553Y202329D01*
X76764Y201301D01*
X76484Y200625D01*
X75984Y200724D01*
Y203740D01*
X66142D01*
X66142Y203740D01*
Y203740D01*
X65651Y203814D01*
X65268Y204280D01*
X65505Y204781D01*
X248273Y204966D01*
X252210Y201029D01*
D02*
G37*
%LPC*%
G36*
X246063Y203783D02*
X244778Y203613D01*
X243581Y203118D01*
X242553Y202329D01*
X241764Y201301D01*
X241320Y200227D01*
X241319Y200227D01*
X240807D01*
X240806Y200227D01*
X240362Y201301D01*
X239573Y202329D01*
X238545Y203118D01*
X237348Y203613D01*
X236063Y203783D01*
X234778Y203613D01*
X233581Y203118D01*
X232553Y202329D01*
X231764Y201301D01*
X231320Y200227D01*
X231319Y200227D01*
X230807D01*
X230806Y200227D01*
X230362Y201301D01*
X229573Y202329D01*
X228545Y203118D01*
X227348Y203613D01*
X226063Y203783D01*
X224778Y203613D01*
X223581Y203118D01*
X222553Y202329D01*
X221764Y201301D01*
X221320Y200227D01*
X221319Y200227D01*
X220807D01*
X220806Y200227D01*
X220362Y201301D01*
X219573Y202329D01*
X218545Y203118D01*
X217348Y203613D01*
X216063Y203783D01*
X214778Y203613D01*
X213581Y203118D01*
X212553Y202329D01*
X211764Y201301D01*
X211320Y200227D01*
X211319Y200227D01*
X210807D01*
X210806Y200227D01*
X210362Y201301D01*
X209573Y202329D01*
X208545Y203118D01*
X207348Y203613D01*
X206063Y203783D01*
X204778Y203613D01*
X203581Y203118D01*
X202553Y202329D01*
X201764Y201301D01*
X201320Y200227D01*
X201319Y200227D01*
X200807D01*
X200806Y200227D01*
X200362Y201301D01*
X199573Y202329D01*
X198545Y203118D01*
X197348Y203613D01*
X196063Y203783D01*
X194778Y203613D01*
X193581Y203118D01*
X192553Y202329D01*
X191764Y201301D01*
X191320Y200227D01*
X191319Y200227D01*
X190807D01*
X190806Y200227D01*
X190362Y201301D01*
X189573Y202329D01*
X188545Y203118D01*
X187348Y203613D01*
X186063Y203783D01*
X184778Y203613D01*
X183581Y203118D01*
X182553Y202329D01*
X181764Y201301D01*
X181484Y200625D01*
X180984Y200724D01*
Y203740D01*
X171142D01*
Y193898D01*
X180984D01*
Y196914D01*
X181484Y197013D01*
X181764Y196337D01*
X182553Y195309D01*
X182949Y195005D01*
X182982Y194506D01*
X177081Y188605D01*
X125122D01*
X124953Y189105D01*
X125152Y189258D01*
X129902Y194008D01*
X131063Y193855D01*
X132348Y194024D01*
X133545Y194520D01*
X134573Y195309D01*
X135362Y196337D01*
X135806Y197411D01*
X135807Y197411D01*
X136319D01*
X136320Y197411D01*
X136764Y196337D01*
X137553Y195309D01*
X138581Y194520D01*
X139778Y194024D01*
X141063Y193855D01*
X142348Y194024D01*
X143545Y194520D01*
X144573Y195309D01*
X145362Y196337D01*
X145806Y197411D01*
X145807Y197411D01*
X146319D01*
X146320Y197411D01*
X146764Y196337D01*
X147553Y195309D01*
X148581Y194520D01*
X149778Y194024D01*
X151063Y193855D01*
X152348Y194024D01*
X153545Y194520D01*
X154573Y195309D01*
X155362Y196337D01*
X155806Y197411D01*
X155807Y197411D01*
X156319D01*
X156320Y197411D01*
X156764Y196337D01*
X157553Y195309D01*
X158581Y194520D01*
X159778Y194024D01*
X161063Y193855D01*
X162348Y194024D01*
X163545Y194520D01*
X164573Y195309D01*
X165362Y196337D01*
X165858Y197534D01*
X166027Y198819D01*
X165858Y200104D01*
X165362Y201301D01*
X164573Y202329D01*
X163545Y203118D01*
X162348Y203613D01*
X161063Y203783D01*
X159778Y203613D01*
X158581Y203118D01*
X157553Y202329D01*
X156764Y201301D01*
X156320Y200227D01*
X156319Y200227D01*
X155807D01*
X155806Y200227D01*
X155362Y201301D01*
X154573Y202329D01*
X153545Y203118D01*
X152348Y203613D01*
X151063Y203783D01*
X149778Y203613D01*
X148581Y203118D01*
X147553Y202329D01*
X146764Y201301D01*
X146320Y200227D01*
X146319Y200227D01*
X145807D01*
X145806Y200227D01*
X145362Y201301D01*
X144573Y202329D01*
X143545Y203118D01*
X142348Y203613D01*
X141063Y203783D01*
X139778Y203613D01*
X138581Y203118D01*
X137553Y202329D01*
X136764Y201301D01*
X136320Y200227D01*
X136319Y200227D01*
X135807D01*
X135806Y200227D01*
X135362Y201301D01*
X134573Y202329D01*
X133545Y203118D01*
X132348Y203613D01*
X131063Y203783D01*
X129778Y203613D01*
X128581Y203118D01*
X127553Y202329D01*
X126764Y201301D01*
X126320Y200227D01*
X126319Y200227D01*
X125807D01*
X125806Y200227D01*
X125362Y201301D01*
X124573Y202329D01*
X123545Y203118D01*
X122348Y203613D01*
X121063Y203783D01*
X119778Y203613D01*
X118581Y203118D01*
X117553Y202329D01*
X116764Y201301D01*
X116320Y200227D01*
X116319Y200227D01*
X115807D01*
X115806Y200227D01*
X115362Y201301D01*
X114573Y202329D01*
X113545Y203118D01*
X112348Y203613D01*
X111063Y203783D01*
X109778Y203613D01*
X108581Y203118D01*
X107553Y202329D01*
X106764Y201301D01*
X106268Y200104D01*
X106099Y198819D01*
X106268Y197534D01*
X106764Y196337D01*
X107319Y195615D01*
X106895Y195191D01*
X106485Y194657D01*
X106227Y194034D01*
X106139Y193366D01*
Y181319D01*
X106227Y180651D01*
X106485Y180028D01*
X106895Y179494D01*
X114986Y171403D01*
X115521Y170993D01*
X116143Y170735D01*
X116811Y170647D01*
X162267D01*
X181080Y151833D01*
Y146716D01*
X180617Y146594D01*
X180260Y147456D01*
X179692Y148196D01*
X178952Y148764D01*
X178090Y149121D01*
X177253Y149232D01*
X157337Y169148D01*
X156802Y169558D01*
X156180Y169816D01*
X155512Y169904D01*
X86221D01*
Y181299D01*
X77953D01*
Y167126D01*
Y153347D01*
X86221D01*
Y164742D01*
X154443D01*
X173603Y145581D01*
X173713Y144744D01*
X174070Y143882D01*
X174638Y143142D01*
X175378Y142574D01*
X176240Y142217D01*
X177165Y142095D01*
X178090Y142217D01*
X178952Y142574D01*
X179692Y143142D01*
X180260Y143882D01*
X180617Y144744D01*
X181080Y144622D01*
Y134244D01*
X180618Y134053D01*
X167670Y147001D01*
X166848Y147632D01*
X165890Y148029D01*
X164862Y148164D01*
X149834D01*
X149665Y148664D01*
X150165Y149048D01*
X150733Y149788D01*
X151090Y150650D01*
X151212Y151575D01*
X151090Y152500D01*
X150733Y153362D01*
X150165Y154102D01*
X149425Y154670D01*
X148563Y155027D01*
X147638Y155149D01*
X146713Y155027D01*
X145851Y154670D01*
X145181Y154156D01*
X138976D01*
Y155315D01*
X124803D01*
Y149143D01*
X124303Y148973D01*
X124109Y149227D01*
X120396Y152939D01*
X120221Y153362D01*
X119653Y154102D01*
X118913Y154670D01*
X118051Y155027D01*
X117126Y155149D01*
X116201Y155027D01*
X115339Y154670D01*
X114599Y154102D01*
X114031Y153362D01*
X113674Y152500D01*
X113552Y151575D01*
X113674Y150650D01*
X114031Y149788D01*
X114599Y149048D01*
X115339Y148480D01*
X116201Y148123D01*
X117126Y148001D01*
X117928Y148107D01*
X119702Y146332D01*
Y142472D01*
X119240Y142281D01*
X110091Y151430D01*
X109269Y152061D01*
X108311Y152458D01*
X107283Y152593D01*
X36622D01*
X35594Y152458D01*
X34637Y152061D01*
X33814Y151430D01*
X14909Y132524D01*
X14278Y131702D01*
X13881Y130744D01*
X13746Y129717D01*
Y120258D01*
X12222Y119444D01*
X10723Y118214D01*
X9493Y116715D01*
X8579Y115005D01*
X8016Y113150D01*
X7826Y111221D01*
X8016Y109291D01*
X8579Y107436D01*
X9493Y105726D01*
X10723Y104227D01*
X12222Y102997D01*
X13932Y102083D01*
X15395Y101639D01*
Y101117D01*
X13932Y100673D01*
X12222Y99759D01*
X10723Y98529D01*
X9493Y97030D01*
X8579Y95320D01*
X8016Y93465D01*
X7826Y91535D01*
X8016Y89606D01*
X8579Y87751D01*
X9493Y86041D01*
X10723Y84542D01*
X12222Y83312D01*
X13932Y82398D01*
X15395Y81954D01*
Y81432D01*
X13932Y80988D01*
X12222Y80074D01*
X10723Y78844D01*
X9493Y77345D01*
X8579Y75635D01*
X8016Y73780D01*
X7826Y71850D01*
X8016Y69921D01*
X8579Y68066D01*
X9493Y66356D01*
X10723Y64857D01*
X12222Y63627D01*
X13932Y62713D01*
X15787Y62150D01*
X17717Y61960D01*
X19646Y62150D01*
X21299Y62652D01*
X28688Y55263D01*
X29511Y54632D01*
X30468Y54235D01*
X31496Y54100D01*
X38780D01*
Y49606D01*
X47047D01*
Y56647D01*
X50197D01*
X51118Y56830D01*
X51900Y57352D01*
X53826Y59278D01*
X54022Y59344D01*
X54246D01*
X54441Y59278D01*
X57352Y56368D01*
X58133Y55846D01*
X59055Y55662D01*
X61221D01*
Y49606D01*
X69488D01*
Y51211D01*
X69950Y51403D01*
X70525Y50828D01*
X71347Y50197D01*
X72305Y49801D01*
X72769Y49739D01*
X72948Y49211D01*
X53062Y29326D01*
X50394Y31994D01*
Y35236D01*
X36220D01*
Y26969D01*
X44187D01*
X49174Y21982D01*
Y8858D01*
X49327Y8090D01*
X49762Y7439D01*
X51730Y5471D01*
X52381Y5035D01*
X53150Y4883D01*
X54134D01*
X69882Y4883D01*
X70650Y5035D01*
X71301Y5471D01*
X72285Y6455D01*
X72720Y7106D01*
X72873Y7874D01*
Y15265D01*
X72854Y15362D01*
X72864Y15461D01*
X72835Y15748D01*
X72864Y16035D01*
X72854Y16134D01*
X72873Y16231D01*
Y27712D01*
X85477Y40316D01*
X92685D01*
Y40181D01*
X103315D01*
Y40316D01*
X116113D01*
X167321Y40316D01*
X168089Y40468D01*
X168740Y40904D01*
X169175Y41555D01*
X169328Y42323D01*
Y65114D01*
X169233Y65595D01*
X169589Y66094D01*
X180842D01*
Y76227D01*
X181808Y77192D01*
X182439Y78014D01*
X182836Y78972D01*
X182971Y80000D01*
Y106033D01*
X183433Y106224D01*
X190855Y98802D01*
X190749Y98000D01*
X190871Y97075D01*
X191228Y96213D01*
X191796Y95473D01*
X192536Y94905D01*
X193398Y94548D01*
X194323Y94426D01*
X195248Y94548D01*
X196110Y94905D01*
X196850Y95473D01*
X197418Y96213D01*
X197775Y97075D01*
X197897Y98000D01*
X197775Y98925D01*
X197418Y99787D01*
X196850Y100527D01*
X196110Y101095D01*
X195687Y101270D01*
X186243Y110715D01*
Y112603D01*
X186705Y112795D01*
X214939Y84561D01*
Y75787D01*
X215026Y75119D01*
X215284Y74497D01*
X215695Y73962D01*
X224553Y65104D01*
X225087Y64694D01*
X225710Y64436D01*
X226378Y64348D01*
X229728D01*
X230398Y63834D01*
X231260Y63477D01*
X232185Y63355D01*
X233110Y63477D01*
X233972Y63834D01*
X234712Y64402D01*
X235280Y65142D01*
X235465Y65589D01*
X235503Y65639D01*
X235761Y66261D01*
X235849Y66929D01*
X235761Y67597D01*
X235503Y68220D01*
X235465Y68269D01*
X235280Y68716D01*
X234712Y69456D01*
X233972Y70024D01*
X233110Y70381D01*
X232185Y70503D01*
X231260Y70381D01*
X230398Y70024D01*
X229728Y69510D01*
X227447D01*
X220101Y76856D01*
Y85630D01*
X220013Y86298D01*
X219755Y86920D01*
X219345Y87455D01*
X189392Y117408D01*
Y119296D01*
X189854Y119488D01*
X214710Y94632D01*
X215245Y94221D01*
X215867Y93963D01*
X216535Y93876D01*
X218016D01*
X218686Y93362D01*
X219547Y93005D01*
X220472Y92883D01*
X221397Y93005D01*
X222259Y93362D01*
X223000Y93930D01*
X223568Y94670D01*
X223924Y95532D01*
X224046Y96457D01*
X223924Y97382D01*
X223568Y98244D01*
X223000Y98984D01*
X222259Y99552D01*
X221397Y99909D01*
X220472Y100031D01*
X219547Y99909D01*
X218686Y99552D01*
X218016Y99038D01*
X217605D01*
X200591Y116051D01*
X200782Y116513D01*
X209157D01*
X209827Y115999D01*
X210689Y115642D01*
X211614Y115521D01*
X212539Y115642D01*
X213401Y115999D01*
X214141Y116567D01*
X214709Y117308D01*
X215066Y118169D01*
X215188Y119095D01*
X215066Y120019D01*
X214709Y120881D01*
X214141Y121622D01*
X213401Y122190D01*
X212539Y122547D01*
X211614Y122668D01*
X210689Y122547D01*
X209827Y122190D01*
X209157Y121676D01*
X200872D01*
X198622Y123926D01*
Y137992D01*
X197069D01*
Y144488D01*
X198622D01*
Y158661D01*
X197069D01*
Y164173D01*
X198622D01*
Y178347D01*
X190354D01*
Y164173D01*
X191907D01*
Y158661D01*
X190461D01*
X166333Y182790D01*
X166134Y182942D01*
X166304Y183442D01*
X178150D01*
X178818Y183530D01*
X179440Y183788D01*
X179975Y184198D01*
X187888Y192112D01*
X188298Y192647D01*
X188556Y193269D01*
X188644Y193937D01*
Y194596D01*
X189573Y195309D01*
X190362Y196337D01*
X190806Y197411D01*
X190807Y197411D01*
X191319D01*
X191320Y197411D01*
X191764Y196337D01*
X192553Y195309D01*
X193581Y194520D01*
X194778Y194024D01*
X196063Y193855D01*
X197348Y194024D01*
X198545Y194520D01*
X199573Y195309D01*
X200362Y196337D01*
X200806Y197411D01*
X200807Y197411D01*
X201319D01*
X201320Y197411D01*
X201764Y196337D01*
X202553Y195309D01*
X203482Y194596D01*
Y191575D01*
X203570Y190907D01*
X203828Y190284D01*
X204238Y189750D01*
X215923Y178065D01*
Y108756D01*
X215409Y108086D01*
X215052Y107224D01*
X214930Y106299D01*
X215052Y105374D01*
X215409Y104512D01*
X215977Y103772D01*
X216717Y103204D01*
X217579Y102847D01*
X218504Y102725D01*
X219429Y102847D01*
X220291Y103204D01*
X221031Y103772D01*
X221599Y104512D01*
X221956Y105374D01*
X222078Y106299D01*
X221956Y107224D01*
X221599Y108086D01*
X221085Y108756D01*
Y115163D01*
X221547Y115354D01*
X244466Y92435D01*
Y55203D01*
X236136Y46872D01*
X234937D01*
X234267Y47386D01*
X233405Y47743D01*
X232480Y47865D01*
X231555Y47743D01*
X230693Y47386D01*
X229953Y46819D01*
X229385Y46078D01*
X229028Y45216D01*
X228906Y44291D01*
X229028Y43366D01*
X229385Y42504D01*
X229953Y41764D01*
X230693Y41196D01*
X231555Y40839D01*
X232480Y40718D01*
X233405Y40839D01*
X234267Y41196D01*
X234937Y41710D01*
X237205D01*
X237873Y41798D01*
X238495Y42056D01*
X239030Y42466D01*
X248872Y52309D01*
X249283Y52843D01*
X249540Y53466D01*
X249628Y54134D01*
Y77148D01*
X250044Y77426D01*
X250453Y77257D01*
X251378Y77135D01*
X252303Y77257D01*
X253165Y77614D01*
X253905Y78182D01*
X254473Y78922D01*
X254830Y79784D01*
X254952Y80709D01*
X254830Y81634D01*
X254473Y82496D01*
X254058Y83037D01*
Y97933D01*
X253970Y98601D01*
X253712Y99224D01*
X253302Y99758D01*
X228644Y124416D01*
Y194596D01*
X229573Y195309D01*
X230362Y196337D01*
X230806Y197411D01*
X230807Y197411D01*
X231319D01*
X231320Y197411D01*
X231764Y196337D01*
X232553Y195309D01*
X233581Y194520D01*
X234778Y194024D01*
X236063Y193855D01*
X237348Y194024D01*
X238545Y194520D01*
X239573Y195309D01*
X240362Y196337D01*
X240806Y197411D01*
X240807Y197411D01*
X241319D01*
X241320Y197411D01*
X241764Y196337D01*
X242553Y195309D01*
X243581Y194520D01*
X244778Y194024D01*
X246063Y193855D01*
X247348Y194024D01*
X248545Y194520D01*
X249573Y195309D01*
X250362Y196337D01*
X250858Y197534D01*
X251027Y198819D01*
X250858Y200104D01*
X250362Y201301D01*
X249573Y202329D01*
X248545Y203118D01*
X247348Y203613D01*
X246063Y203783D01*
D02*
G37*
G36*
X209252Y178347D02*
X200984D01*
Y164173D01*
X209252D01*
Y168041D01*
X209700Y168262D01*
X209827Y168165D01*
X210689Y167808D01*
X211614Y167686D01*
X212539Y167808D01*
X213401Y168165D01*
X214141Y168733D01*
X214709Y169473D01*
X215066Y170335D01*
X215188Y171260D01*
X215066Y172185D01*
X214709Y173047D01*
X214141Y173787D01*
X213401Y174355D01*
X212539Y174712D01*
X211614Y174834D01*
X210689Y174712D01*
X209827Y174355D01*
X209700Y174258D01*
X209252Y174479D01*
Y178347D01*
D02*
G37*
G36*
X52165Y184676D02*
X51240Y184554D01*
X50378Y184197D01*
X49638Y183630D01*
X49070Y182889D01*
X48713Y182027D01*
X48592Y181102D01*
X48713Y180177D01*
X49070Y179315D01*
X49638Y178575D01*
X50378Y178007D01*
X50801Y177832D01*
X56246Y172387D01*
X56780Y171977D01*
X57403Y171719D01*
X58071Y171631D01*
X67323D01*
Y167126D01*
Y163014D01*
X60124D01*
X55634Y167505D01*
X55739Y168307D01*
X55617Y169232D01*
X55260Y170094D01*
X54693Y170834D01*
X53952Y171402D01*
X53090Y171759D01*
X52165Y171881D01*
X51240Y171759D01*
X50378Y171402D01*
X49638Y170834D01*
X49070Y170094D01*
X48713Y169232D01*
X48592Y168307D01*
X48713Y167382D01*
X49070Y166520D01*
X49638Y165780D01*
X50378Y165212D01*
X50801Y165037D01*
X57230Y158608D01*
X57765Y158198D01*
X58387Y157940D01*
X59055Y157852D01*
X67323D01*
Y153347D01*
X75590D01*
Y167126D01*
Y181299D01*
X67323D01*
Y176794D01*
X59140D01*
X55634Y180300D01*
X55739Y181102D01*
X55617Y182027D01*
X55260Y182889D01*
X54693Y183630D01*
X53952Y184197D01*
X53090Y184554D01*
X52165Y184676D01*
D02*
G37*
G36*
X209252Y158661D02*
X200984D01*
Y144488D01*
X209252D01*
Y148356D01*
X209700Y148577D01*
X209827Y148480D01*
X210689Y148123D01*
X211614Y148001D01*
X212539Y148123D01*
X213401Y148480D01*
X214141Y149048D01*
X214709Y149788D01*
X215066Y150650D01*
X215188Y151575D01*
X215066Y152500D01*
X214709Y153362D01*
X214141Y154102D01*
X213401Y154670D01*
X212539Y155027D01*
X211614Y155149D01*
X210689Y155027D01*
X209827Y154670D01*
X209700Y154572D01*
X209252Y154794D01*
Y158661D01*
D02*
G37*
G36*
X240157Y172401D02*
X230315D01*
Y162559D01*
X233331D01*
X233430Y162059D01*
X232754Y161779D01*
X231726Y160990D01*
X230937Y159962D01*
X230442Y158765D01*
X230272Y157480D01*
X230442Y156196D01*
X230937Y154998D01*
X231726Y153970D01*
X232754Y153182D01*
X233828Y152737D01*
X233828Y152736D01*
Y152224D01*
X233828Y152224D01*
X232754Y151779D01*
X231726Y150990D01*
X230937Y149962D01*
X230442Y148765D01*
X230272Y147480D01*
X230442Y146196D01*
X230937Y144998D01*
X231726Y143970D01*
X232754Y143182D01*
X233951Y142686D01*
X235236Y142517D01*
X236521Y142686D01*
X237718Y143182D01*
X238746Y143970D01*
X239535Y144998D01*
X240031Y146196D01*
X240200Y147480D01*
X240031Y148765D01*
X239535Y149962D01*
X238746Y150990D01*
X237718Y151779D01*
X236645Y152224D01*
X236644Y152224D01*
Y152736D01*
X236645Y152737D01*
X237718Y153182D01*
X238746Y153970D01*
X239535Y154998D01*
X240031Y156196D01*
X240200Y157480D01*
X240031Y158765D01*
X239535Y159962D01*
X238746Y160990D01*
X237718Y161779D01*
X237042Y162059D01*
X237141Y162559D01*
X240157D01*
Y172401D01*
D02*
G37*
G36*
X209252Y137992D02*
X200984D01*
Y123819D01*
X209252D01*
Y127687D01*
X209700Y127908D01*
X209827Y127810D01*
X210689Y127453D01*
X211614Y127332D01*
X212539Y127453D01*
X213401Y127810D01*
X214141Y128378D01*
X214709Y129119D01*
X215066Y129981D01*
X215188Y130905D01*
X215066Y131831D01*
X214709Y132692D01*
X214141Y133433D01*
X213401Y134001D01*
X212539Y134358D01*
X211614Y134479D01*
X210689Y134358D01*
X209827Y134001D01*
X209700Y133903D01*
X209252Y134124D01*
Y137992D01*
D02*
G37*
G36*
X30512Y48425D02*
X20669D01*
Y34252D01*
X30512D01*
Y38758D01*
X36220D01*
Y37598D01*
X50394D01*
Y45866D01*
X36220D01*
Y43920D01*
X30512D01*
Y48425D01*
D02*
G37*
G36*
X141842Y37905D02*
X122158D01*
Y26094D01*
X141842D01*
Y27200D01*
X142017Y27362D01*
X142342Y27552D01*
X142904Y27478D01*
X143543D01*
X144213Y26964D01*
X145075Y26607D01*
X146000Y26485D01*
X146925Y26607D01*
X147787Y26964D01*
X148457Y27478D01*
X149311D01*
Y25701D01*
X164272D01*
Y35543D01*
X149311D01*
Y32640D01*
X148457D01*
X147787Y33154D01*
X146925Y33511D01*
X146000Y33633D01*
X145075Y33511D01*
X144213Y33154D01*
X143787Y32827D01*
X142789Y33825D01*
X142254Y34235D01*
X141842Y34406D01*
Y37905D01*
D02*
G37*
G36*
X235236Y132444D02*
X233951Y132275D01*
X232754Y131779D01*
X231726Y130990D01*
X230937Y129962D01*
X230442Y128765D01*
X230387Y128355D01*
X230302Y128148D01*
X230214Y127480D01*
X230302Y126812D01*
X230387Y126606D01*
X230442Y126196D01*
X230937Y124998D01*
X231726Y123970D01*
X232754Y123181D01*
X233951Y122686D01*
X235236Y122517D01*
X236397Y122669D01*
X256277Y102789D01*
Y48313D01*
X243025Y35061D01*
X204480D01*
X203812Y34973D01*
X203190Y34716D01*
X202655Y34305D01*
X189157Y20808D01*
X188523Y21070D01*
X187598Y21192D01*
X186673Y21070D01*
X185811Y20713D01*
X185071Y20145D01*
X184503Y19405D01*
X184146Y18543D01*
X184025Y17618D01*
X184146Y16693D01*
X184503Y15831D01*
X185071Y15091D01*
X185811Y14523D01*
X186673Y14166D01*
X187598Y14044D01*
X188523Y14166D01*
X189385Y14523D01*
X190126Y15091D01*
X190136Y15105D01*
X190286Y15125D01*
X190909Y15383D01*
X191443Y15793D01*
X205549Y29899D01*
X244094D01*
X244762Y29987D01*
X245385Y30245D01*
X245920Y30655D01*
X260683Y45419D01*
X261094Y45954D01*
X261351Y46576D01*
X261439Y47244D01*
Y103858D01*
X261351Y104526D01*
X261094Y105149D01*
X260683Y105683D01*
X240047Y126320D01*
X240200Y127480D01*
X240031Y128765D01*
X239535Y129962D01*
X238746Y130990D01*
X237718Y131779D01*
X236521Y132275D01*
X235236Y132444D01*
D02*
G37*
G36*
X246063Y14964D02*
X244778Y14795D01*
X243581Y14299D01*
X242553Y13510D01*
X241764Y12482D01*
X241320Y11408D01*
X241319Y11408D01*
X240807D01*
X240806Y11408D01*
X240362Y12482D01*
X239573Y13510D01*
X238545Y14299D01*
X237348Y14795D01*
X236063Y14964D01*
X234778Y14795D01*
X233581Y14299D01*
X232553Y13510D01*
X231764Y12482D01*
X231320Y11408D01*
X231319Y11408D01*
X230807D01*
X230806Y11408D01*
X230362Y12482D01*
X229573Y13510D01*
X228545Y14299D01*
X227348Y14795D01*
X226063Y14964D01*
X224778Y14795D01*
X223581Y14299D01*
X222553Y13510D01*
X221764Y12482D01*
X221320Y11408D01*
X221319Y11408D01*
X220807D01*
X220806Y11408D01*
X220362Y12482D01*
X219573Y13510D01*
X218545Y14299D01*
X217348Y14795D01*
X216063Y14964D01*
X214778Y14795D01*
X213581Y14299D01*
X212553Y13510D01*
X211764Y12482D01*
X211320Y11408D01*
X211319Y11408D01*
X210807D01*
X210806Y11408D01*
X210362Y12482D01*
X209573Y13510D01*
X208545Y14299D01*
X207348Y14795D01*
X206063Y14964D01*
X204778Y14795D01*
X203581Y14299D01*
X202553Y13510D01*
X201764Y12482D01*
X201484Y11806D01*
X200984Y11905D01*
Y14921D01*
X191142D01*
Y5079D01*
X200984D01*
Y8095D01*
X201484Y8194D01*
X201764Y7518D01*
X202553Y6490D01*
X203581Y5701D01*
X204778Y5205D01*
X206063Y5036D01*
X207348Y5205D01*
X208545Y5701D01*
X209573Y6490D01*
X210362Y7518D01*
X210806Y8592D01*
X210807Y8592D01*
X211319D01*
X211320Y8592D01*
X211764Y7518D01*
X212553Y6490D01*
X213581Y5701D01*
X214778Y5205D01*
X216063Y5036D01*
X217348Y5205D01*
X218545Y5701D01*
X219573Y6490D01*
X220362Y7518D01*
X220806Y8592D01*
X220807Y8592D01*
X221319D01*
X221320Y8592D01*
X221764Y7518D01*
X222553Y6490D01*
X223581Y5701D01*
X224778Y5205D01*
X226063Y5036D01*
X227348Y5205D01*
X228545Y5701D01*
X229573Y6490D01*
X230362Y7518D01*
X230806Y8592D01*
X230807Y8592D01*
X231319D01*
X231320Y8592D01*
X231764Y7518D01*
X232553Y6490D01*
X233581Y5701D01*
X234778Y5205D01*
X236063Y5036D01*
X237348Y5205D01*
X238545Y5701D01*
X239573Y6490D01*
X240362Y7518D01*
X240806Y8592D01*
X240807Y8592D01*
X241319D01*
X241320Y8592D01*
X241764Y7518D01*
X242553Y6490D01*
X243581Y5701D01*
X244778Y5205D01*
X246063Y5036D01*
X247348Y5205D01*
X248545Y5701D01*
X249573Y6490D01*
X250362Y7518D01*
X250858Y8715D01*
X251027Y10000D01*
X250858Y11285D01*
X250362Y12482D01*
X249573Y13510D01*
X248545Y14299D01*
X247348Y14795D01*
X246063Y14964D01*
D02*
G37*
G36*
X145984D02*
X144700Y14795D01*
X143502Y14299D01*
X142474Y13510D01*
X141685Y12482D01*
X141241Y11408D01*
X141240Y11408D01*
X140728D01*
X140728Y11408D01*
X140283Y12482D01*
X139494Y13510D01*
X138466Y14299D01*
X137269Y14795D01*
X135984Y14964D01*
X134699Y14795D01*
X133502Y14299D01*
X132474Y13510D01*
X131685Y12482D01*
X131241Y11408D01*
X131240Y11408D01*
X130728D01*
X130728Y11408D01*
X130283Y12482D01*
X129494Y13510D01*
X128466Y14299D01*
X127269Y14795D01*
X125984Y14964D01*
X124699Y14795D01*
X123502Y14299D01*
X122474Y13510D01*
X121686Y12482D01*
X121241Y11408D01*
X121240Y11408D01*
X120728D01*
X120728Y11408D01*
X120283Y12482D01*
X119494Y13510D01*
X118466Y14299D01*
X117269Y14795D01*
X115984Y14964D01*
X114699Y14795D01*
X113502Y14299D01*
X112474Y13510D01*
X111686Y12482D01*
X111406Y11806D01*
X110906Y11905D01*
Y14921D01*
X101063D01*
Y5079D01*
X110906D01*
Y8095D01*
X111406Y8194D01*
X111686Y7518D01*
X112474Y6490D01*
X113502Y5701D01*
X114699Y5205D01*
X115984Y5036D01*
X117269Y5205D01*
X118466Y5701D01*
X119494Y6490D01*
X120283Y7518D01*
X120728Y8592D01*
X120728Y8592D01*
X121240D01*
X121241Y8592D01*
X121686Y7518D01*
X122474Y6490D01*
X123502Y5701D01*
X124699Y5205D01*
X125984Y5036D01*
X127269Y5205D01*
X128466Y5701D01*
X129494Y6490D01*
X130283Y7518D01*
X130728Y8592D01*
X130728Y8592D01*
X131240D01*
X131241Y8592D01*
X131685Y7518D01*
X132474Y6490D01*
X133502Y5701D01*
X134699Y5205D01*
X135984Y5036D01*
X137269Y5205D01*
X138466Y5701D01*
X139494Y6490D01*
X140283Y7518D01*
X140728Y8592D01*
X140728Y8592D01*
X141240D01*
X141241Y8592D01*
X141685Y7518D01*
X142474Y6490D01*
X143502Y5701D01*
X144700Y5205D01*
X145984Y5036D01*
X147269Y5205D01*
X148466Y5701D01*
X149494Y6490D01*
X150283Y7518D01*
X150779Y8715D01*
X150948Y10000D01*
X150779Y11285D01*
X150283Y12482D01*
X149494Y13510D01*
X148466Y14299D01*
X147269Y14795D01*
X145984Y14964D01*
D02*
G37*
G36*
X174409Y27196D02*
X173485Y27074D01*
X172623Y26717D01*
X171882Y26149D01*
X171314Y25409D01*
X170957Y24547D01*
X170836Y23622D01*
X170957Y22697D01*
X171314Y21835D01*
X171828Y21165D01*
Y19882D01*
X171916Y19214D01*
X172174Y18591D01*
X172584Y18057D01*
X173403Y17238D01*
Y14222D01*
X172474Y13510D01*
X171686Y12482D01*
X171190Y11285D01*
X171020Y10000D01*
X171190Y8715D01*
X171686Y7518D01*
X172474Y6490D01*
X173502Y5701D01*
X174699Y5205D01*
X175984Y5036D01*
X177269Y5205D01*
X178466Y5701D01*
X179494Y6490D01*
X180283Y7518D01*
X180779Y8715D01*
X180948Y10000D01*
X180779Y11285D01*
X180283Y12482D01*
X179494Y13510D01*
X178565Y14222D01*
Y18307D01*
X178477Y18975D01*
X178220Y19598D01*
X177809Y20132D01*
X176991Y20951D01*
Y21165D01*
X177505Y21835D01*
X177861Y22697D01*
X177983Y23622D01*
X177861Y24547D01*
X177505Y25409D01*
X176937Y26149D01*
X176196Y26717D01*
X175334Y27074D01*
X174409Y27196D01*
D02*
G37*
%LPD*%
G36*
X100348Y144151D02*
X100213Y144095D01*
X99473Y143527D01*
X98905Y142787D01*
X98548Y141925D01*
X98426Y141000D01*
X98548Y140075D01*
X98905Y139213D01*
X99473Y138473D01*
X99702Y138297D01*
Y137186D01*
X99679Y137171D01*
X99200Y136454D01*
X99032Y135609D01*
Y128171D01*
X99200Y127325D01*
X99679Y126609D01*
X100396Y126130D01*
X101242Y125961D01*
X103325D01*
X104171Y126130D01*
X104783Y126539D01*
X105396Y126130D01*
X106242Y125961D01*
X107002D01*
X112742Y120222D01*
X113276Y119812D01*
X113899Y119554D01*
X114567Y119466D01*
X149016D01*
Y115748D01*
X157283D01*
Y126378D01*
X157283D01*
Y126575D01*
X157283D01*
Y137205D01*
X149016D01*
Y133093D01*
X148642D01*
X147974Y133005D01*
X147351Y132747D01*
X146817Y132337D01*
X142474Y127995D01*
X135679D01*
X135535Y128171D01*
Y135609D01*
X135366Y136454D01*
X135292Y136566D01*
X138948Y140222D01*
X163217D01*
X175029Y128410D01*
Y116148D01*
X174529Y115902D01*
X174031Y116284D01*
X173169Y116641D01*
X172244Y116763D01*
X171319Y116641D01*
X170457Y116284D01*
X169717Y115716D01*
X169149Y114976D01*
X168792Y114114D01*
X168670Y113189D01*
X168792Y112264D01*
X169149Y111402D01*
X169663Y110732D01*
Y107243D01*
X168241Y105821D01*
X167779Y106012D01*
Y112268D01*
X167014D01*
Y115748D01*
X167913D01*
Y126378D01*
X159646D01*
Y115748D01*
X161852D01*
Y112268D01*
X161086D01*
Y104394D01*
X160586Y104394D01*
X157149D01*
Y97385D01*
X157012Y97247D01*
X156539Y96631D01*
X156408Y96315D01*
X155551D01*
Y85685D01*
X156140D01*
Y77247D01*
X156077Y76772D01*
Y67121D01*
X139168D01*
X135535Y76454D01*
Y83561D01*
X135366Y84407D01*
X134887Y85124D01*
X134322Y85501D01*
X134473Y86001D01*
X143850D01*
X147025Y82827D01*
Y76690D01*
X146511Y76020D01*
X146154Y75158D01*
X146032Y74233D01*
X146154Y73308D01*
X146511Y72446D01*
X147079Y71706D01*
X147819Y71138D01*
X148681Y70781D01*
X149606Y70659D01*
X150531Y70781D01*
X151393Y71138D01*
X152133Y71706D01*
X152701Y72446D01*
X153058Y73308D01*
X153180Y74233D01*
X153058Y75158D01*
X152701Y76020D01*
X152187Y76690D01*
Y83896D01*
X152100Y84564D01*
X151842Y85186D01*
X151431Y85721D01*
X146744Y90408D01*
X146210Y90818D01*
X145587Y91076D01*
X144919Y91164D01*
X130551D01*
X129883Y91076D01*
X129261Y90818D01*
X128726Y90408D01*
X127284Y88965D01*
X125841Y90408D01*
X125306Y90818D01*
X124684Y91076D01*
X124016Y91164D01*
X106299D01*
X105631Y91076D01*
X105009Y90818D01*
X104474Y90408D01*
X101049Y86983D01*
X100993Y86960D01*
X100458Y86550D01*
X100048Y86015D01*
X99790Y85392D01*
X99762Y85179D01*
X99679Y85124D01*
X99200Y84407D01*
X99032Y83561D01*
Y76124D01*
X99200Y75278D01*
X99679Y74561D01*
X100396Y74082D01*
X101242Y73914D01*
X101253D01*
X101352Y73414D01*
X100772Y73174D01*
X100032Y72606D01*
X99464Y71866D01*
X99107Y71004D01*
X98985Y70079D01*
X99107Y69154D01*
X99464Y68292D01*
X100032Y67552D01*
X100772Y66984D01*
X101634Y66627D01*
X101922Y66589D01*
X102083Y66115D01*
X101415Y65447D01*
X87806D01*
X82168Y71086D01*
X81843Y71509D01*
X80251Y73102D01*
Y125962D01*
X80115Y126990D01*
X79719Y127948D01*
X79087Y128770D01*
X74144Y133713D01*
X73322Y134344D01*
X72364Y134741D01*
X71336Y134877D01*
X69488D01*
Y137402D01*
X61221D01*
Y131345D01*
X57063D01*
X56141Y131162D01*
X55360Y130640D01*
X53720Y129000D01*
X53615Y128983D01*
X53109Y129096D01*
X52703Y129703D01*
X51766Y130640D01*
X50985Y131162D01*
X50063Y131345D01*
X47047D01*
Y137402D01*
X38780D01*
Y132465D01*
X38566Y132376D01*
X37743Y131745D01*
X31192Y125194D01*
X30561Y124371D01*
X30164Y123414D01*
X30029Y122386D01*
Y106645D01*
X23167Y99783D01*
X21501Y100673D01*
X20038Y101117D01*
Y101639D01*
X21501Y102083D01*
X23211Y102997D01*
X24710Y104227D01*
X25940Y105726D01*
X26854Y107436D01*
X27417Y109291D01*
X27607Y111221D01*
X27417Y113150D01*
X26854Y115005D01*
X25940Y116715D01*
X24710Y118214D01*
X23211Y119444D01*
X21688Y120258D01*
Y128072D01*
X38267Y144651D01*
X100249D01*
X100348Y144151D01*
D02*
G37*
G36*
X54678Y108254D02*
Y103740D01*
X54861Y102819D01*
X55384Y102037D01*
X57149Y100271D01*
X57284Y99803D01*
X57284D01*
X57284Y99803D01*
Y91201D01*
X46496Y80413D01*
X39810D01*
Y82028D01*
X39929Y82119D01*
X40497Y82859D01*
X40854Y83721D01*
X40975Y84646D01*
X40854Y85571D01*
X40497Y86433D01*
X39929Y87173D01*
X39189Y87741D01*
X38661Y87959D01*
Y88500D01*
X38992Y88637D01*
X39732Y89205D01*
X40300Y89945D01*
X40657Y90807D01*
X40779Y91732D01*
X40657Y92657D01*
X40300Y93519D01*
X39732Y94259D01*
X39613Y94350D01*
Y100183D01*
X45404Y105974D01*
X45818Y106595D01*
X48084D01*
Y103655D01*
X42588Y98160D01*
X42066Y97378D01*
X41883Y96457D01*
X42066Y95535D01*
X42588Y94754D01*
X44557Y92785D01*
X45338Y92263D01*
X46260Y92080D01*
X49409D01*
X50331Y92263D01*
X51113Y92785D01*
X51635Y93567D01*
X51818Y94488D01*
X51635Y95410D01*
X51113Y96191D01*
X50331Y96713D01*
X49409Y96897D01*
X48791D01*
X48599Y97359D01*
X52195Y100954D01*
X52717Y101736D01*
X52901Y102657D01*
Y109325D01*
X53401Y109532D01*
X54678Y108254D01*
D02*
G37*
G36*
X179574Y78431D02*
X179735Y77958D01*
X179423Y77646D01*
X178988Y76995D01*
X178835Y76227D01*
Y68102D01*
X169589D01*
X169425Y68069D01*
X169257Y68074D01*
X169044Y67993D01*
X168821Y67949D01*
X168682Y67856D01*
X168525Y67796D01*
X168359Y67640D01*
X168170Y67514D01*
X168077Y67374D01*
X167955Y67260D01*
X167598Y66760D01*
X167586Y66731D01*
X167564Y66710D01*
X167426Y66375D01*
X167277Y66046D01*
X167276Y66015D01*
X167264Y65986D01*
Y65624D01*
X167253Y65263D01*
X167264Y65234D01*
Y65203D01*
X167282Y65114D01*
X167321D01*
Y42323D01*
X116113Y42323D01*
X84646Y42323D01*
X70866Y28543D01*
Y16231D01*
X70819Y15748D01*
X70866Y15265D01*
Y7874D01*
X69882Y6890D01*
X54134Y6890D01*
X53150D01*
X51181Y8858D01*
Y24606D01*
X76240Y49665D01*
X103571D01*
X104599Y49801D01*
X105081Y50000D01*
X110000D01*
X130114Y65114D01*
X131230Y77394D01*
X132874Y77756D01*
X137795Y65114D01*
X158591D01*
Y78898D01*
X176000D01*
X179574Y78431D01*
D02*
G37*
D10*
X77593Y59252D02*
Y60006D01*
X76673Y60925D02*
X77593Y60006D01*
X76673Y60925D02*
X76772Y61024D01*
X72244Y65551D02*
X76772Y61024D01*
X61024Y95472D02*
X68898D01*
X60039Y90551D02*
Y95472D01*
X46260Y94488D02*
X49409D01*
X44291Y96457D02*
X46260Y94488D01*
X60679Y104478D02*
X62205Y102953D01*
X60679Y104478D02*
Y107234D01*
X62795Y109350D01*
X62205Y102953D02*
X66634D01*
X62795Y109350D02*
X66535D01*
X70571D01*
X66535Y117028D02*
X70472D01*
X64166D02*
X66535D01*
X70571Y109350D02*
X71850Y110630D01*
Y115650D01*
X70472Y117028D02*
X71850Y115650D01*
X59153Y77658D02*
X66535D01*
X53937D02*
X59153D01*
Y81102D01*
X62402Y84350D01*
Y87106D01*
X66535Y69980D02*
X70079D01*
X64166D02*
X66535D01*
Y77658D02*
X69882D01*
X70669Y76870D01*
Y70571D02*
Y76870D01*
X70079Y69980D02*
X70669Y70571D01*
X48819Y72539D02*
X53937Y77658D01*
X43701Y72539D02*
X48819D01*
X44291Y96457D02*
X50492Y102657D01*
Y109843D01*
X48425Y111909D02*
X50492Y109843D01*
X43701Y111909D02*
X48425D01*
X47146Y77658D02*
X60039Y90551D01*
X37205Y91732D02*
Y101181D01*
X43701Y107677D01*
X37402Y72835D02*
Y84646D01*
X43701Y77658D02*
X47146D01*
X60532Y114469D02*
X66535D01*
X55000Y120000D02*
X60532Y114469D01*
X55000Y120000D02*
Y126874D01*
X57063Y128937D01*
X58090Y111910D02*
X66535D01*
X51000Y119000D02*
X58090Y111910D01*
X51000Y119000D02*
Y128000D01*
X50063Y128937D02*
X51000Y128000D01*
X42913Y128937D02*
X50063D01*
X57063D02*
X65354D01*
X40256Y69980D02*
X41732D01*
X37402Y72835D02*
X40256Y69980D01*
X43701Y107677D02*
Y109350D01*
X57087Y103740D02*
X61024Y99803D01*
Y95472D02*
Y99803D01*
X72244Y65551D02*
Y92126D01*
X68898Y95472D02*
X72244Y92126D01*
X43701Y72539D02*
X43996Y72835D01*
X57087Y103740D02*
Y109252D01*
X49311Y117028D02*
X57087Y109252D01*
X43701Y117028D02*
X49311D01*
X55413Y75098D02*
X66535D01*
X52165Y71850D02*
X55413Y75098D01*
X52165Y61024D02*
Y71850D01*
X50197Y59055D02*
X52165Y61024D01*
X43898Y59055D02*
X50197D01*
X42913Y58071D02*
X43898Y59055D01*
X56102Y70866D02*
X57775Y72539D01*
X64567D01*
X56102Y61024D02*
Y70866D01*
Y61024D02*
X59055Y58071D01*
X65354D01*
D11*
X17717Y71850D02*
X18032D01*
D13*
X65354Y128937D02*
D03*
X42913D02*
D03*
X65354Y58071D02*
D03*
X42913D02*
D03*
D14*
X131890Y161811D02*
D03*
Y151181D02*
D03*
X43307Y41732D02*
D03*
Y31102D02*
D03*
D15*
X82087Y160433D02*
D03*
X71457D02*
D03*
X82087Y174213D02*
D03*
X71457D02*
D03*
X194488Y130905D02*
D03*
X205118D02*
D03*
X194488Y151575D02*
D03*
X205118D02*
D03*
X194488Y171260D02*
D03*
X205118D02*
D03*
D16*
X92283Y131890D02*
D03*
X97283D02*
D03*
X102283D02*
D03*
X107283D02*
D03*
X112283D02*
D03*
X117283D02*
D03*
X122283D02*
D03*
X127283D02*
D03*
X132283D02*
D03*
X137283D02*
D03*
Y79843D02*
D03*
X132283D02*
D03*
X127283D02*
D03*
X122283D02*
D03*
X117283D02*
D03*
X112283D02*
D03*
X107283D02*
D03*
X102283D02*
D03*
X97283D02*
D03*
X92283D02*
D03*
D17*
X181398Y39567D02*
D03*
D18*
X156791Y30622D02*
D03*
Y48622D02*
D03*
D19*
X43701Y117028D02*
D03*
Y114469D02*
D03*
X66535Y117028D02*
D03*
Y114469D02*
D03*
X43701Y111909D02*
D03*
Y109350D02*
D03*
X66535Y111909D02*
D03*
Y109350D02*
D03*
X43701Y77658D02*
D03*
Y75098D02*
D03*
X66535Y77658D02*
D03*
Y75098D02*
D03*
X43701Y72539D02*
D03*
Y69980D02*
D03*
X66535Y72539D02*
D03*
Y69980D02*
D03*
D20*
X13780Y41339D02*
D03*
X25591D02*
D03*
D21*
X61417Y94488D02*
D03*
X50787D02*
D03*
X170315Y91000D02*
D03*
X159685D02*
D03*
X163779Y131890D02*
D03*
X153150D02*
D03*
X163779Y121063D02*
D03*
X153150D02*
D03*
D22*
X113102Y32000D02*
D03*
X132000D02*
D03*
X189898Y72000D02*
D03*
X171000D02*
D03*
D23*
X98000Y33685D02*
D03*
Y44315D02*
D03*
D24*
X168370Y100457D02*
D03*
X160496D02*
D03*
X164433Y108331D02*
D03*
D46*
X114783Y105866D02*
D03*
D47*
X139882D02*
D03*
X89685D02*
D03*
D48*
X174409Y19882D02*
Y23622D01*
Y19882D02*
X175984Y18307D01*
Y10000D02*
Y18307D01*
X183661Y109646D02*
X194323Y98984D01*
X183661Y109646D02*
Y152903D01*
X163336Y173228D02*
X183661Y152903D01*
X163853Y177165D02*
X186811Y154207D01*
X164508Y180965D02*
X189961Y155512D01*
X187598Y17618D02*
X189618D01*
X251476Y81496D02*
X252264Y80709D01*
X226063Y123346D02*
X251476Y97933D01*
Y81496D02*
Y97933D01*
X237205Y44291D02*
X247047Y54134D01*
Y93504D01*
X111063Y197008D02*
X111969Y197913D01*
X111063Y195709D02*
Y197008D01*
X108721Y193366D02*
X111063Y195709D01*
X120079Y186024D02*
X178150D01*
X122283Y69646D02*
X124016Y67913D01*
X122283Y69646D02*
Y79843D01*
X102559Y70079D02*
X107283Y74803D01*
Y79843D01*
X189618Y17618D02*
X204480Y32480D01*
X169748Y91000D02*
X171000Y92252D01*
X168370Y98174D02*
Y102299D01*
X101716Y141000D02*
X102283Y140433D01*
X146000Y30059D02*
X157941D01*
X232480Y44291D02*
X237205D01*
X43701Y114469D02*
Y117028D01*
X129921Y151575D02*
X147638D01*
X149606Y74233D02*
Y83896D01*
X144919Y88583D02*
X149606Y83896D01*
X178150Y186024D02*
X186063Y193937D01*
X140963Y32000D02*
X142904Y30059D01*
X132000Y32000D02*
X140963D01*
X43701Y75098D02*
Y77658D01*
X43701Y114469D02*
X43701Y114469D01*
X142904Y30059D02*
X146000D01*
X171000Y92252D02*
Y95543D01*
X168370Y98174D02*
X171000Y95543D01*
X157941Y30059D02*
X158000Y30000D01*
X194488Y130905D02*
Y151575D01*
Y124409D02*
Y130905D01*
X204480Y32480D02*
X244094D01*
X194323Y98000D02*
Y98984D01*
X102283Y131890D02*
Y140433D01*
X101716Y141000D02*
X102000D01*
X40551Y128937D02*
X42913D01*
X17717Y91535D02*
X20535D01*
X114567Y122047D02*
X153740D01*
X106890Y129724D02*
X114567Y122047D01*
X127284Y85315D02*
X130551Y88583D01*
X144919D01*
X82087Y167323D02*
Y174213D01*
Y160433D02*
Y167323D01*
X155512D01*
X177165Y145669D01*
X41732Y117028D02*
X43701D01*
X25591Y41339D02*
X38780D01*
X39370Y40748D01*
X52165Y167323D02*
X59055Y160433D01*
X52165Y167323D02*
Y168307D01*
Y180118D02*
X58071Y174213D01*
X52165Y180118D02*
Y181102D01*
X58071Y174213D02*
X71457D01*
X59055Y160433D02*
X71457D01*
X82087D02*
X82087Y160433D01*
X168370Y102299D02*
X172244Y106174D01*
Y113189D01*
X186811Y116339D02*
Y154207D01*
Y116339D02*
X217520Y85630D01*
Y75787D02*
Y85630D01*
X117126Y151575D02*
X118110D01*
X122283Y147402D01*
Y131890D02*
Y147402D01*
X226378Y66929D02*
X233268D01*
X217520Y75787D02*
X226378Y66929D01*
X216535Y96457D02*
X220472D01*
X189961Y123031D02*
X216535Y96457D01*
X189961Y123031D02*
Y155512D01*
X199803Y119095D02*
X211614D01*
X194488Y124409D02*
X199803Y119095D01*
X116811Y173228D02*
X163336D01*
X108721Y181319D02*
X116811Y173228D01*
X130905Y148917D02*
Y150591D01*
X129921Y151575D02*
X130905Y150591D01*
X127284Y145295D02*
X130905Y148917D01*
X127284Y131890D02*
Y145295D01*
X123327Y191083D02*
X131063Y198819D01*
X117983Y191083D02*
X123327D01*
X111870Y189626D02*
X121063Y198819D01*
X111870Y182624D02*
Y189626D01*
X115020Y188119D02*
X117983Y191083D01*
X115020Y183928D02*
Y188119D01*
Y183928D02*
X117983Y180965D01*
X164508D01*
X117328Y177165D02*
X163853D01*
X111870Y182624D02*
X117328Y177165D01*
X108721Y181319D02*
Y193366D01*
X186063Y193937D02*
Y198819D01*
X222441Y118110D02*
X247047Y93504D01*
X222441Y118110D02*
Y179651D01*
X226063Y123346D02*
Y198819D01*
X206063Y191575D02*
X218504Y179134D01*
Y107283D02*
Y179134D01*
X216063Y186029D02*
X222441Y179651D01*
X216063Y186029D02*
Y198819D01*
X206063Y191575D02*
Y198819D01*
X232795Y127480D02*
X235236D01*
X258858Y103858D01*
Y47244D02*
Y103858D01*
X244094Y32480D02*
X258858Y47244D01*
X194488Y151575D02*
X194488Y151575D01*
X194488Y151575D02*
Y171260D01*
X147638Y151575D02*
X148032Y151969D01*
X102284Y84567D02*
Y84724D01*
Y79843D02*
Y84567D01*
X114744Y125413D02*
X143543D01*
X112284Y127874D02*
X114744Y125413D01*
X112284Y127874D02*
Y131890D01*
X143543Y125413D02*
X148642Y130512D01*
X153543D01*
X164433Y108331D02*
Y120079D01*
X205118Y130905D02*
X205118Y130905D01*
X211614D01*
X205118Y151575D02*
X205118Y151575D01*
X211614D01*
X205118Y171260D02*
X205118Y171260D01*
X211614D01*
X127284Y79843D02*
Y85315D01*
X124016Y88583D02*
X127284Y85315D01*
X106299Y88583D02*
X124016D01*
X102284Y84567D02*
X106299Y88583D01*
D49*
X159118Y76834D02*
Y95141D01*
X39370Y30118D02*
X46654D01*
X159055Y63386D02*
Y76772D01*
X61024Y15748D02*
Y17126D01*
X117283Y67348D02*
Y79843D01*
X112284Y70700D02*
Y79843D01*
X117283Y131890D02*
Y138622D01*
X159055Y76772D02*
X159118Y76834D01*
X132283Y131890D02*
Y139173D01*
X159118Y95141D02*
X160496Y96519D01*
Y100457D01*
D50*
X164862Y144193D02*
X179000Y130055D01*
X137303Y144193D02*
X164862D01*
X132283Y139173D02*
X137303Y144193D01*
X103060Y61476D02*
X112284Y70700D01*
X86161Y61476D02*
X103060D01*
X65354Y130905D02*
X71336D01*
X76279Y71457D02*
X79035Y68701D01*
X71336Y130905D02*
X76279Y125962D01*
Y71457D02*
Y125962D01*
X76772Y70866D02*
X86161Y61476D01*
X36622Y148622D02*
X107283D01*
X17717Y129717D02*
X36622Y148622D01*
X17717Y111221D02*
Y129717D01*
X179000Y80000D02*
Y130055D01*
X173000Y74000D02*
X179000Y80000D01*
X34000Y122386D02*
X40551Y128937D01*
X34000Y105000D02*
Y122386D01*
X20535Y91535D02*
X34000Y105000D01*
X103571Y53636D02*
X117283Y67348D01*
X69882Y57087D02*
X73332Y53636D01*
X103571D01*
X66339Y57087D02*
X69882D01*
X65354Y58071D02*
X66339Y57087D01*
X107283Y148622D02*
X117283Y138622D01*
X17717Y71850D02*
X31496Y58071D01*
X42913D01*
X17717Y111221D02*
X18701Y110236D01*
X46654Y30118D02*
X61024Y15748D01*
D51*
X41929Y129921D02*
X43307D01*
D52*
X80709Y15748D02*
D03*
X61024D02*
D03*
X17717Y111221D02*
D03*
Y91535D02*
D03*
Y71850D02*
D03*
D53*
X235236Y127480D02*
D03*
Y137480D02*
D03*
Y147480D02*
D03*
Y157480D02*
D03*
X115984Y10000D02*
D03*
X125984D02*
D03*
X135984D02*
D03*
X145984D02*
D03*
X155984D02*
D03*
X165984D02*
D03*
X175984D02*
D03*
X206063D02*
D03*
X216063D02*
D03*
X226063D02*
D03*
X236063D02*
D03*
X246063D02*
D03*
X91063Y198819D02*
D03*
X161063D02*
D03*
X151063D02*
D03*
X141063D02*
D03*
X131063D02*
D03*
X121063D02*
D03*
X111063D02*
D03*
X101063D02*
D03*
X81063D02*
D03*
X186063D02*
D03*
X196063D02*
D03*
X206063D02*
D03*
X216063D02*
D03*
X226063D02*
D03*
X236063D02*
D03*
X246063D02*
D03*
D54*
X235236Y167480D02*
D03*
D55*
X105984Y10000D02*
D03*
X196063D02*
D03*
X71063Y198819D02*
D03*
X176063D02*
D03*
D56*
X257874Y137795D02*
D03*
Y27559D02*
D03*
X59055Y198819D02*
D03*
D57*
X77593Y59252D02*
D03*
X174409Y23622D02*
D03*
X251378Y80709D02*
D03*
X143405Y135728D02*
D03*
X120079Y186024D02*
D03*
X214567Y61024D02*
D03*
X21654Y25591D02*
D03*
X13780D02*
D03*
X102559Y70079D02*
D03*
X66634Y102953D02*
D03*
X62402Y87106D02*
D03*
X82284Y76378D02*
D03*
X90551Y89567D02*
D03*
Y96457D02*
D03*
Y116142D02*
D03*
Y123031D02*
D03*
X84646D02*
D03*
Y116142D02*
D03*
X82284Y81496D02*
D03*
X84646Y96457D02*
D03*
Y89567D02*
D03*
X232480Y44291D02*
D03*
X232185Y66929D02*
D03*
X246161Y179035D02*
D03*
X262598Y124902D02*
D03*
Y39665D02*
D03*
X253445Y50000D02*
D03*
X187598Y17618D02*
D03*
X37992Y16831D02*
D03*
Y162894D02*
D03*
Y192618D02*
D03*
X37205Y91732D02*
D03*
X149606Y74233D02*
D03*
X37402Y84646D02*
D03*
X146000Y30059D02*
D03*
X194323Y98000D02*
D03*
X102000Y141000D02*
D03*
X44291Y96457D02*
D03*
X214567Y68898D02*
D03*
X91535Y158465D02*
D03*
X177165Y145669D02*
D03*
X52165Y168307D02*
D03*
Y181102D02*
D03*
X172244Y113189D02*
D03*
X117126Y151575D02*
D03*
X220472Y96457D02*
D03*
X218504Y106299D02*
D03*
X211614Y119095D02*
D03*
X124016Y67913D02*
D03*
X147638Y151575D02*
D03*
X211614Y130905D02*
D03*
Y151575D02*
D03*
Y171260D02*
D03*
D58*
X106909Y113740D02*
D03*
Y105866D02*
D03*
Y97992D02*
D03*
X114783D02*
D03*
Y105866D02*
D03*
Y113740D02*
D03*
X122657D02*
D03*
Y105866D02*
D03*
Y97992D02*
D03*
M02*
