G04*
G04 #@! TF.GenerationSoftware,Altium Limited,Altium Designer,18.0.7 (293)*
G04*
G04 Layer_Color=8421504*
%FSLAX25Y25*%
%MOIN*%
G70*
G01*
G75*
%ADD13R,0.15748X0.07874*%
%ADD14R,0.04331X0.10236*%
%ADD15R,0.06693X0.04331*%
%ADD16R,0.05906X0.10236*%
%ADD17R,0.02756X0.03937*%
G04:AMPARAMS|DCode=18|XSize=78.35mil|YSize=24.8mil|CornerRadius=1.98mil|HoleSize=0mil|Usage=FLASHONLY|Rotation=90.000|XOffset=0mil|YOffset=0mil|HoleType=Round|Shape=RoundedRectangle|*
%AMROUNDEDRECTD18*
21,1,0.07835,0.02084,0,0,90.0*
21,1,0.07438,0.02480,0,0,90.0*
1,1,0.00397,0.01042,0.03719*
1,1,0.00397,0.01042,-0.03719*
1,1,0.00397,-0.01042,-0.03719*
1,1,0.00397,-0.01042,0.03719*
%
%ADD18ROUNDEDRECTD18*%
G36*
X99726Y119252D02*
Y104278D01*
X75768D01*
Y119252D01*
X99726D01*
D02*
G37*
D13*
X158465Y62008D02*
D03*
X139567D02*
D03*
D14*
X176772Y132874D02*
D03*
X187402D02*
D03*
X41929Y39370D02*
D03*
X52559D02*
D03*
X152953Y174213D02*
D03*
X142323D02*
D03*
X187402Y152559D02*
D03*
X176772D02*
D03*
X187508Y172744D02*
D03*
X176878D02*
D03*
D15*
X127953Y165748D02*
D03*
Y155118D02*
D03*
X137795Y132283D02*
D03*
Y121653D02*
D03*
X80709Y172638D02*
D03*
Y162008D02*
D03*
X66929D02*
D03*
Y172638D02*
D03*
D16*
X15748Y40354D02*
D03*
X27559D02*
D03*
D17*
X141732Y101378D02*
D03*
X133858D02*
D03*
X137795Y109252D02*
D03*
D18*
X65236Y85748D02*
D03*
X70236D02*
D03*
X75236D02*
D03*
X80236D02*
D03*
X85236D02*
D03*
X90236D02*
D03*
X95236D02*
D03*
X100236D02*
D03*
X105236D02*
D03*
X110236D02*
D03*
Y137795D02*
D03*
X105236D02*
D03*
X100236D02*
D03*
X95236D02*
D03*
X90236D02*
D03*
X85236D02*
D03*
X80236D02*
D03*
X75236D02*
D03*
X70236D02*
D03*
X65236D02*
D03*
M02*
