G04*
G04 #@! TF.GenerationSoftware,Altium Limited,Altium Designer,18.0.7 (293)*
G04*
G04 Layer_Physical_Order=1*
G04 Layer_Color=255*
%FSLAX25Y25*%
%MOIN*%
G70*
G01*
G75*
%ADD13R,0.10236X0.04331*%
%ADD14R,0.04331X0.10236*%
G04:AMPARAMS|DCode=15|XSize=78.35mil|YSize=24.8mil|CornerRadius=1.98mil|HoleSize=0mil|Usage=FLASHONLY|Rotation=90.000|XOffset=0mil|YOffset=0mil|HoleType=Round|Shape=RoundedRectangle|*
%AMROUNDEDRECTD15*
21,1,0.07835,0.02084,0,0,90.0*
21,1,0.07438,0.02480,0,0,90.0*
1,1,0.00397,0.01042,0.03719*
1,1,0.00397,0.01042,-0.03719*
1,1,0.00397,-0.01042,-0.03719*
1,1,0.00397,-0.01042,0.03719*
%
%ADD15ROUNDEDRECTD15*%
%ADD16R,0.05906X0.10236*%
%ADD17R,0.15748X0.07874*%
%ADD18R,0.06693X0.04331*%
%ADD19R,0.02756X0.03937*%
%ADD35R,0.15748X0.11417*%
%ADD36R,0.37795X0.23622*%
%ADD37C,0.01181*%
%ADD38C,0.03937*%
%ADD39C,0.01968*%
%ADD40C,0.02756*%
%ADD41C,0.03150*%
%ADD42C,0.02362*%
%ADD43C,0.00000*%
%ADD44C,0.15748*%
%ADD45R,0.05906X0.05906*%
%ADD46C,0.05906*%
%ADD47R,0.05906X0.05906*%
%ADD48C,0.12598*%
%ADD49C,0.05000*%
G36*
X251969Y200787D02*
Y153543D01*
X259019Y146493D01*
X258792Y146013D01*
X257874Y146103D01*
X256253Y145943D01*
X254695Y145471D01*
X253258Y144703D01*
X252000Y143670D01*
X250966Y142411D01*
X250199Y140975D01*
X249726Y139416D01*
X249566Y137795D01*
X249726Y136175D01*
X250199Y134616D01*
X250966Y133180D01*
X252000Y131921D01*
X253258Y130888D01*
X254695Y130120D01*
X256253Y129647D01*
X257874Y129488D01*
X259495Y129647D01*
X261053Y130120D01*
X262490Y130888D01*
X263280Y131536D01*
X263779Y131300D01*
Y34055D01*
X263280Y33819D01*
X262490Y34467D01*
X261053Y35234D01*
X259495Y35707D01*
X257874Y35867D01*
X256253Y35707D01*
X254695Y35234D01*
X253258Y34467D01*
X252000Y33434D01*
X250966Y32175D01*
X250199Y30738D01*
X249726Y29180D01*
X249566Y27559D01*
X249726Y25938D01*
X250199Y24380D01*
X250966Y22944D01*
X252000Y21685D01*
X253258Y20652D01*
X254695Y19884D01*
X256253Y19411D01*
X257874Y19251D01*
X259495Y19411D01*
X261053Y19884D01*
X262490Y20652D01*
X263280Y21300D01*
X263779Y21063D01*
Y19685D01*
X246063Y1969D01*
X12795Y1969D01*
X7516Y7248D01*
Y68914D01*
X8016Y68938D01*
X8016Y68937D01*
X8579Y67081D01*
X9493Y65372D01*
X10723Y63873D01*
X12222Y62643D01*
X13932Y61729D01*
X15787Y61166D01*
X17717Y60976D01*
X19646Y61166D01*
X21501Y61729D01*
X23211Y62643D01*
X24710Y63873D01*
X25940Y65372D01*
X26854Y67081D01*
X27417Y68937D01*
X27607Y70866D01*
X27417Y72796D01*
X26854Y74651D01*
X25940Y76361D01*
X24710Y77859D01*
X23211Y79089D01*
X21501Y80003D01*
X20038Y80447D01*
Y80970D01*
X21501Y81414D01*
X23211Y82328D01*
X24710Y83558D01*
X25940Y85057D01*
X26854Y86766D01*
X27417Y88622D01*
X27607Y90551D01*
X27417Y92481D01*
X26854Y94336D01*
X25940Y96046D01*
X24710Y97545D01*
X23211Y98774D01*
X21501Y99689D01*
X20038Y100132D01*
Y100655D01*
X21501Y101099D01*
X23211Y102013D01*
X24710Y103243D01*
X25940Y104742D01*
X26854Y106451D01*
X27417Y108307D01*
X27607Y110236D01*
X27417Y112166D01*
X26854Y114021D01*
X25940Y115731D01*
X24710Y117230D01*
X23211Y118460D01*
X21501Y119374D01*
X19646Y119936D01*
X17717Y120126D01*
X15787Y119936D01*
X13932Y119374D01*
X12222Y118460D01*
X10723Y117230D01*
X9493Y115731D01*
X8579Y114021D01*
X8016Y112166D01*
X8016Y112164D01*
X7516Y112189D01*
Y200430D01*
X12795Y205709D01*
X53676D01*
X53844Y205238D01*
X53181Y204693D01*
X52148Y203434D01*
X51380Y201998D01*
X50907Y200440D01*
X50747Y198819D01*
X50907Y197198D01*
X51380Y195640D01*
X52148Y194203D01*
X53181Y192945D01*
X54440Y191911D01*
X55876Y191144D01*
X56335Y191004D01*
X56229Y190514D01*
X56102Y190531D01*
X54936Y190377D01*
X53849Y189927D01*
X52915Y189211D01*
X52199Y188277D01*
X51749Y187190D01*
X51595Y186024D01*
X51695Y185266D01*
X50734Y184305D01*
X50324Y183771D01*
X50066Y183148D01*
X49978Y182480D01*
Y181299D01*
X48425D01*
Y167126D01*
X54525D01*
X54624Y166626D01*
X53849Y166305D01*
X52915Y165588D01*
X52199Y164655D01*
X51749Y163568D01*
X51615Y162548D01*
X50734Y161668D01*
X50324Y161133D01*
X50066Y160511D01*
X49978Y159843D01*
Y158661D01*
X48425D01*
Y144488D01*
X56693D01*
Y157972D01*
X57269Y158048D01*
X58356Y158498D01*
X59289Y159215D01*
X60006Y160148D01*
X60456Y161235D01*
X60609Y162402D01*
X60456Y163568D01*
X60006Y164655D01*
X59289Y165588D01*
X58356Y166305D01*
X57269Y166755D01*
X57051Y166784D01*
X56693Y167126D01*
X56693Y167335D01*
Y181299D01*
X57051Y181641D01*
X57269Y181670D01*
X58356Y182120D01*
X59289Y182837D01*
X60006Y183770D01*
X60456Y184857D01*
X60609Y186024D01*
X60456Y187190D01*
X60006Y188277D01*
X59289Y189211D01*
X58356Y189927D01*
X57878Y190125D01*
X58001Y190615D01*
X59055Y190511D01*
X60676Y190671D01*
X62234Y191144D01*
X63671Y191911D01*
X64929Y192945D01*
X65664Y193840D01*
X66142Y193898D01*
Y193898D01*
X66142Y193898D01*
X75984D01*
Y196914D01*
X76484Y197013D01*
X76764Y196337D01*
X77553Y195309D01*
X78581Y194520D01*
X79778Y194024D01*
X81063Y193855D01*
X82348Y194024D01*
X83545Y194520D01*
X84573Y195309D01*
X85362Y196337D01*
X85806Y197411D01*
X85807Y197411D01*
X86319D01*
X86320Y197411D01*
X86764Y196337D01*
X87553Y195309D01*
X88581Y194520D01*
X89778Y194024D01*
X91063Y193855D01*
X92348Y194024D01*
X93545Y194520D01*
X94573Y195309D01*
X95362Y196337D01*
X95858Y197534D01*
X96027Y198819D01*
X95858Y200104D01*
X95362Y201301D01*
X94573Y202329D01*
X93545Y203118D01*
X92348Y203613D01*
X91063Y203783D01*
X89778Y203613D01*
X88581Y203118D01*
X87553Y202329D01*
X86764Y201301D01*
X86320Y200227D01*
X86319Y200227D01*
X85807D01*
X85806Y200227D01*
X85362Y201301D01*
X84573Y202329D01*
X83545Y203118D01*
X82348Y203613D01*
X81063Y203783D01*
X79778Y203613D01*
X78581Y203118D01*
X77553Y202329D01*
X76764Y201301D01*
X76484Y200625D01*
X75984Y200724D01*
Y203740D01*
X66142D01*
X66142Y203740D01*
Y203740D01*
X65651Y203814D01*
X64929Y204693D01*
X64266Y205238D01*
X64434Y205709D01*
X247047D01*
X251969Y200787D01*
D02*
G37*
%LPC*%
G36*
X246063Y203783D02*
X244778Y203613D01*
X243581Y203118D01*
X242553Y202329D01*
X241764Y201301D01*
X241320Y200227D01*
X241319Y200227D01*
X240807D01*
X240806Y200227D01*
X240362Y201301D01*
X239573Y202329D01*
X238545Y203118D01*
X237348Y203613D01*
X236063Y203783D01*
X234778Y203613D01*
X233581Y203118D01*
X232553Y202329D01*
X231764Y201301D01*
X231320Y200227D01*
X231319Y200227D01*
X230807D01*
X230806Y200227D01*
X230362Y201301D01*
X229573Y202329D01*
X228545Y203118D01*
X227348Y203613D01*
X226063Y203783D01*
X224778Y203613D01*
X223581Y203118D01*
X222553Y202329D01*
X221764Y201301D01*
X221320Y200227D01*
X221319Y200227D01*
X220807D01*
X220806Y200227D01*
X220362Y201301D01*
X219573Y202329D01*
X218545Y203118D01*
X217348Y203613D01*
X216063Y203783D01*
X214778Y203613D01*
X213581Y203118D01*
X212553Y202329D01*
X211764Y201301D01*
X211320Y200227D01*
X211319Y200227D01*
X210807D01*
X210806Y200227D01*
X210362Y201301D01*
X209573Y202329D01*
X208545Y203118D01*
X207348Y203613D01*
X206063Y203783D01*
X204778Y203613D01*
X203581Y203118D01*
X202553Y202329D01*
X201764Y201301D01*
X201320Y200227D01*
X201319Y200227D01*
X200807D01*
X200806Y200227D01*
X200362Y201301D01*
X199573Y202329D01*
X198545Y203118D01*
X197348Y203613D01*
X196063Y203783D01*
X194778Y203613D01*
X193581Y203118D01*
X192553Y202329D01*
X191764Y201301D01*
X191320Y200227D01*
X191319Y200227D01*
X190807D01*
X190806Y200227D01*
X190362Y201301D01*
X189573Y202329D01*
X188545Y203118D01*
X187348Y203613D01*
X186063Y203783D01*
X184778Y203613D01*
X183581Y203118D01*
X182553Y202329D01*
X181764Y201301D01*
X181484Y200625D01*
X180984Y200724D01*
Y203740D01*
X171142D01*
Y193898D01*
X180984D01*
Y196914D01*
X181484Y197013D01*
X181764Y196337D01*
X182553Y195309D01*
X183581Y194520D01*
X184778Y194024D01*
X186063Y193855D01*
X187348Y194024D01*
X188545Y194520D01*
X189573Y195309D01*
X190362Y196337D01*
X190806Y197411D01*
X190807Y197411D01*
X191319D01*
X191320Y197411D01*
X191764Y196337D01*
X192553Y195309D01*
X193581Y194520D01*
X194778Y194024D01*
X196063Y193855D01*
X197348Y194024D01*
X198545Y194520D01*
X199573Y195309D01*
X200362Y196337D01*
X200806Y197411D01*
X200807Y197411D01*
X201319D01*
X201320Y197411D01*
X201764Y196337D01*
X202553Y195309D01*
X203581Y194520D01*
X204778Y194024D01*
X206063Y193855D01*
X206845Y193958D01*
X207078Y193484D01*
X205151Y191558D01*
X174213D01*
X173545Y191470D01*
X172922Y191212D01*
X172388Y190802D01*
X165498Y183912D01*
X165087Y183377D01*
X164830Y182755D01*
X164742Y182087D01*
Y181614D01*
X164280Y181423D01*
X154704Y190998D01*
X154170Y191409D01*
X153548Y191666D01*
X152879Y191754D01*
X145799D01*
X143566Y193988D01*
X143558Y194197D01*
X143655Y194605D01*
X144573Y195309D01*
X145362Y196337D01*
X145806Y197411D01*
X145807Y197411D01*
X146319D01*
X146320Y197411D01*
X146764Y196337D01*
X147553Y195309D01*
X148581Y194520D01*
X149778Y194024D01*
X151063Y193855D01*
X152348Y194024D01*
X153545Y194520D01*
X154573Y195309D01*
X155362Y196337D01*
X155806Y197411D01*
X155807Y197411D01*
X156319D01*
X156320Y197411D01*
X156764Y196337D01*
X157553Y195309D01*
X158581Y194520D01*
X159778Y194024D01*
X161063Y193855D01*
X162348Y194024D01*
X163545Y194520D01*
X164573Y195309D01*
X165362Y196337D01*
X165858Y197534D01*
X166027Y198819D01*
X165858Y200104D01*
X165362Y201301D01*
X164573Y202329D01*
X163545Y203118D01*
X162348Y203613D01*
X161063Y203783D01*
X159778Y203613D01*
X158581Y203118D01*
X157553Y202329D01*
X156764Y201301D01*
X156320Y200227D01*
X156319Y200227D01*
X155807D01*
X155806Y200227D01*
X155362Y201301D01*
X154573Y202329D01*
X153545Y203118D01*
X152348Y203613D01*
X151063Y203783D01*
X149778Y203613D01*
X148581Y203118D01*
X147553Y202329D01*
X146764Y201301D01*
X146320Y200227D01*
X146319Y200227D01*
X145807D01*
X145806Y200227D01*
X145362Y201301D01*
X144573Y202329D01*
X143545Y203118D01*
X142348Y203613D01*
X141063Y203783D01*
X139778Y203613D01*
X138581Y203118D01*
X137553Y202329D01*
X136764Y201301D01*
X136320Y200227D01*
X136319Y200227D01*
X135807D01*
X135806Y200227D01*
X135362Y201301D01*
X134573Y202329D01*
X133545Y203118D01*
X132348Y203613D01*
X131063Y203783D01*
X129778Y203613D01*
X128581Y203118D01*
X127553Y202329D01*
X126764Y201301D01*
X126320Y200227D01*
X126319Y200227D01*
X125807D01*
X125806Y200227D01*
X125362Y201301D01*
X124573Y202329D01*
X123545Y203118D01*
X122348Y203613D01*
X121063Y203783D01*
X119778Y203613D01*
X118581Y203118D01*
X117553Y202329D01*
X116764Y201301D01*
X116320Y200227D01*
X116319Y200227D01*
X115807D01*
X115806Y200227D01*
X115362Y201301D01*
X114573Y202329D01*
X113545Y203118D01*
X112348Y203613D01*
X111063Y203783D01*
X109778Y203613D01*
X108581Y203118D01*
X107553Y202329D01*
X106764Y201301D01*
X106268Y200104D01*
X106099Y198819D01*
X106268Y197534D01*
X106764Y196337D01*
X107553Y195309D01*
X108581Y194520D01*
X109778Y194024D01*
X111063Y193855D01*
X111493Y193912D01*
X116285Y189120D01*
X116820Y188709D01*
X117442Y188452D01*
X118110Y188364D01*
X131805D01*
X139120Y181049D01*
X139654Y180639D01*
X140277Y180381D01*
X140945Y180293D01*
X147750D01*
X153915Y174128D01*
Y145629D01*
X153442Y145468D01*
X153398Y145525D01*
X150524Y148399D01*
X149702Y149030D01*
X148744Y149426D01*
X147716Y149562D01*
X130931D01*
Y150984D01*
X133268D01*
Y159252D01*
X122638D01*
Y150984D01*
X124974D01*
Y149165D01*
X105236D01*
X104311Y149043D01*
X103449Y148686D01*
X103266Y148545D01*
X102817Y148766D01*
Y151739D01*
X103581Y152325D01*
X104046Y152931D01*
X110236D01*
X110904Y153019D01*
X111527Y153277D01*
X112061Y153687D01*
X114030Y155655D01*
X114440Y156190D01*
X114698Y156812D01*
X114786Y157480D01*
Y157874D01*
X119291D01*
Y166142D01*
X105118D01*
Y158093D01*
X104046D01*
X103581Y158699D01*
X102647Y159415D01*
X101560Y159865D01*
X100394Y160019D01*
X99227Y159865D01*
X98140Y159415D01*
X97207Y158699D01*
X96491Y157765D01*
X96040Y156678D01*
X95993Y156323D01*
X95520Y156162D01*
X94959Y156723D01*
X95058Y157480D01*
X94905Y158647D01*
X94454Y159734D01*
X93738Y160667D01*
X92805Y161383D01*
X91718Y161834D01*
X90551Y161987D01*
X89385Y161834D01*
X88298Y161383D01*
X87364Y160667D01*
X86648Y159734D01*
X86524Y159434D01*
X86024Y159533D01*
Y166142D01*
X75394D01*
Y157874D01*
X77143D01*
Y150591D01*
X77231Y149923D01*
X77489Y149300D01*
X77899Y148765D01*
X82487Y144178D01*
X82459Y143932D01*
X82385Y143849D01*
X81946Y143591D01*
X81278Y143723D01*
X79194D01*
X78349Y143555D01*
X78258Y143495D01*
X77817Y143730D01*
Y146220D01*
X77729Y146888D01*
X77472Y147511D01*
X77061Y148046D01*
X71479Y153628D01*
Y172159D01*
X76856Y177537D01*
X126293D01*
X136417Y167413D01*
Y161614D01*
X147047D01*
Y169882D01*
X141249D01*
X129187Y181943D01*
X128653Y182353D01*
X128030Y182611D01*
X127362Y182699D01*
X75787D01*
X75119Y182611D01*
X74497Y182353D01*
X73962Y181943D01*
X67072Y175054D01*
X66662Y174519D01*
X66404Y173896D01*
X66316Y173228D01*
Y152559D01*
X66404Y151891D01*
X66662Y151268D01*
X67072Y150734D01*
X72655Y145151D01*
Y143092D01*
X72632Y143076D01*
X72432Y142776D01*
X71746Y142643D01*
X71278Y142736D01*
X70736D01*
Y137795D01*
Y132854D01*
X71278D01*
X71746Y132948D01*
X72432Y132814D01*
X72632Y132514D01*
X72655Y132499D01*
Y132441D01*
X72743Y131773D01*
X73001Y131150D01*
X73411Y130616D01*
X77899Y126128D01*
X78434Y125717D01*
X79056Y125460D01*
X79724Y125372D01*
X111136D01*
X114317Y122191D01*
X114851Y121780D01*
X115474Y121523D01*
X116142Y121435D01*
X122332D01*
X122797Y120829D01*
X123731Y120113D01*
X124818Y119662D01*
X125984Y119509D01*
X127151Y119662D01*
X128238Y120113D01*
X129171Y120829D01*
X129887Y121762D01*
X130338Y122849D01*
X130491Y124016D01*
X130338Y125182D01*
X129887Y126269D01*
X129171Y127203D01*
X128238Y127919D01*
X127468Y128238D01*
X127567Y128738D01*
X132480D01*
Y128150D01*
X143110D01*
Y136417D01*
X132480D01*
Y133900D01*
X112645D01*
X112500Y134076D01*
Y137295D01*
X110236D01*
Y138295D01*
X112500D01*
Y141514D01*
X112499Y141517D01*
X112910Y142017D01*
X126293D01*
X126925Y141755D01*
X127953Y141620D01*
X146072D01*
X146619Y141072D01*
Y93463D01*
X146119Y93430D01*
X146086Y93686D01*
X145635Y94773D01*
X144919Y95707D01*
X144313Y96171D01*
Y97441D01*
X145079D01*
Y105315D01*
X141642D01*
X141142Y105315D01*
X141142Y105815D01*
Y113189D01*
X140376D01*
Y117520D01*
X143110D01*
Y125787D01*
X132480D01*
Y117520D01*
X135214D01*
Y113189D01*
X134449D01*
X134449Y105315D01*
X133949Y105315D01*
X130512D01*
Y101598D01*
X130483Y101378D01*
Y86714D01*
X130419Y86631D01*
X130023Y85673D01*
X129887Y84646D01*
X129952Y84154D01*
X129887Y83661D01*
Y73857D01*
X114020D01*
X108214Y79663D01*
Y80641D01*
X108708Y80905D01*
X108727Y80900D01*
X109195Y80807D01*
X109736D01*
Y85748D01*
Y90689D01*
X109195D01*
X108727Y90596D01*
X108041Y90729D01*
X107840Y91029D01*
X107123Y91508D01*
X106278Y91676D01*
X105418D01*
X105197Y92125D01*
X105281Y92235D01*
X105731Y93322D01*
X105885Y94488D01*
X105731Y95655D01*
X105281Y96742D01*
X104565Y97675D01*
X103631Y98391D01*
X103464Y98461D01*
X103564Y98961D01*
X107634D01*
Y105063D01*
X112335D01*
Y111772D01*
Y118480D01*
X107634D01*
Y124583D01*
X88236D01*
Y111772D01*
Y98961D01*
X99192D01*
X99291Y98461D01*
X99124Y98391D01*
X98191Y97675D01*
X98058Y97502D01*
X75236D01*
X74568Y97414D01*
X73946Y97157D01*
X73411Y96746D01*
X73001Y96212D01*
X72743Y95589D01*
X72655Y94921D01*
Y91044D01*
X72632Y91029D01*
X72432Y90729D01*
X71746Y90596D01*
X71278Y90689D01*
X70736D01*
Y85748D01*
Y80807D01*
X71278D01*
X71746Y80900D01*
X72432Y80767D01*
X72632Y80467D01*
X73349Y79988D01*
X74195Y79820D01*
X74442D01*
X74634Y79358D01*
X72660Y77384D01*
X71565D01*
X71100Y77990D01*
X70167Y78706D01*
X69080Y79157D01*
X67913Y79310D01*
X66747Y79157D01*
X65660Y78706D01*
X64726Y77990D01*
X64010Y77057D01*
X63560Y75970D01*
X63406Y74803D01*
X63560Y73637D01*
X64010Y72550D01*
X64726Y71616D01*
X65660Y70900D01*
X65890Y70805D01*
X65791Y70305D01*
X51170D01*
X50482Y70832D01*
X49395Y71283D01*
X48228Y71436D01*
X47062Y71283D01*
X45975Y70832D01*
X45041Y70116D01*
X44325Y69183D01*
X43875Y68096D01*
X43721Y66929D01*
X43875Y65763D01*
X44325Y64676D01*
X45041Y63742D01*
X45975Y63026D01*
X47062Y62576D01*
X48228Y62422D01*
X49395Y62576D01*
X50482Y63026D01*
X51170Y63554D01*
X70712D01*
X70811Y63054D01*
X70581Y62958D01*
X69648Y62242D01*
X68931Y61309D01*
X68481Y60222D01*
X68328Y59055D01*
X68481Y57889D01*
X68931Y56802D01*
X69648Y55868D01*
X70581Y55152D01*
X71668Y54702D01*
X72835Y54548D01*
X74001Y54702D01*
X75088Y55152D01*
X76022Y55868D01*
X76738Y56802D01*
X77188Y57889D01*
X77301Y58748D01*
X91953Y73400D01*
X92491Y73230D01*
X92548Y72933D01*
X92371Y72703D01*
X91921Y71616D01*
X91767Y70450D01*
X91921Y69283D01*
X92371Y68196D01*
X93088Y67263D01*
X94021Y66546D01*
X95108Y66096D01*
X96274Y65943D01*
X97441Y66096D01*
X98528Y66546D01*
X99461Y67263D01*
X100178Y68196D01*
X100628Y69283D01*
X100782Y70450D01*
X100628Y71616D01*
X100178Y72703D01*
X99461Y73637D01*
X98528Y74353D01*
X97817Y74647D01*
Y79813D01*
X98258Y80049D01*
X98349Y79988D01*
X99195Y79820D01*
X101278D01*
X101758Y79915D01*
X102258Y79522D01*
Y67695D01*
X82830Y48267D01*
X72835Y48267D01*
X72067Y48114D01*
X71415Y47679D01*
X67053Y43316D01*
X66929Y43333D01*
X56693D01*
Y47441D01*
X48425D01*
Y33268D01*
X56297D01*
X56504Y32768D01*
X47793Y24057D01*
X47358Y23406D01*
X47205Y22638D01*
X47205Y8858D01*
X47358Y8090D01*
X47793Y7439D01*
X50746Y4486D01*
X51397Y4051D01*
X52165Y3898D01*
X65513D01*
X66281Y4051D01*
X66932Y4486D01*
X70317Y7871D01*
X70752Y8523D01*
X70905Y9291D01*
Y11576D01*
X71405Y11682D01*
X72435Y10427D01*
X73786Y9318D01*
X75328Y8494D01*
X77000Y7987D01*
X78240Y7865D01*
Y16732D01*
Y25600D01*
X77000Y25478D01*
X75328Y24971D01*
X73786Y24146D01*
X72435Y23038D01*
X71405Y21782D01*
X70905Y21889D01*
Y23775D01*
X79587Y32458D01*
X80338Y32556D01*
X81056Y32854D01*
X81673Y33327D01*
X81772Y33426D01*
X87598D01*
X88367Y33579D01*
X89018Y34014D01*
X106386Y51382D01*
X106515Y51295D01*
X107283Y51143D01*
X132874D01*
X133642Y51295D01*
X134293Y51730D01*
X136262Y53699D01*
X136697Y54350D01*
X136850Y55118D01*
Y57071D01*
X144382D01*
Y62008D01*
Y66945D01*
X137197D01*
X136951Y67445D01*
X137297Y67896D01*
X137694Y68854D01*
X137829Y69882D01*
Y80675D01*
X147638D01*
X148666Y80810D01*
X149623Y81207D01*
X150446Y81838D01*
X153398Y84790D01*
X153541Y84976D01*
X154058Y84829D01*
X154261Y84339D01*
X154671Y83805D01*
X196994Y41482D01*
X197528Y41072D01*
X198151Y40814D01*
X198819Y40726D01*
X201772D01*
X202440Y40814D01*
X203062Y41072D01*
X203362Y40674D01*
X194797Y32109D01*
X165512D01*
X164844Y32021D01*
X164221Y31763D01*
X163687Y31353D01*
X147163Y14829D01*
X146142Y14964D01*
X144857Y14795D01*
X143660Y14299D01*
X142632Y13510D01*
X141843Y12482D01*
X141398Y11408D01*
X141398Y11408D01*
X140886D01*
X140885Y11408D01*
X140440Y12482D01*
X139652Y13510D01*
X138624Y14299D01*
X137426Y14795D01*
X136142Y14964D01*
X134857Y14795D01*
X133660Y14299D01*
X132632Y13510D01*
X131843Y12482D01*
X131398Y11408D01*
X131398Y11408D01*
X130886D01*
X130885Y11408D01*
X130440Y12482D01*
X129652Y13510D01*
X128624Y14299D01*
X127426Y14795D01*
X126142Y14964D01*
X124857Y14795D01*
X123660Y14299D01*
X122632Y13510D01*
X121843Y12482D01*
X121398Y11408D01*
X121398Y11408D01*
X120886D01*
X120885Y11408D01*
X120440Y12482D01*
X119652Y13510D01*
X118624Y14299D01*
X117426Y14795D01*
X116142Y14964D01*
X114857Y14795D01*
X113660Y14299D01*
X112632Y13510D01*
X111843Y12482D01*
X111563Y11806D01*
X111063Y11905D01*
Y14921D01*
X101221D01*
Y5079D01*
X111063D01*
Y8095D01*
X111563Y8194D01*
X111843Y7518D01*
X112632Y6490D01*
X113660Y5701D01*
X114857Y5205D01*
X116142Y5036D01*
X117426Y5205D01*
X118624Y5701D01*
X119652Y6490D01*
X120440Y7518D01*
X120885Y8592D01*
X120886Y8592D01*
X121398D01*
X121398Y8592D01*
X121843Y7518D01*
X122632Y6490D01*
X123660Y5701D01*
X124857Y5205D01*
X126142Y5036D01*
X127426Y5205D01*
X128624Y5701D01*
X129652Y6490D01*
X130440Y7518D01*
X130885Y8592D01*
X130886Y8592D01*
X131398D01*
X131398Y8592D01*
X131843Y7518D01*
X132632Y6490D01*
X133660Y5701D01*
X134857Y5205D01*
X136142Y5036D01*
X137426Y5205D01*
X138624Y5701D01*
X139652Y6490D01*
X140440Y7518D01*
X140885Y8592D01*
X140886Y8592D01*
X141398D01*
X141398Y8592D01*
X141843Y7518D01*
X142632Y6490D01*
X143660Y5701D01*
X144857Y5205D01*
X146142Y5036D01*
X147426Y5205D01*
X148624Y5701D01*
X149652Y6490D01*
X150440Y7518D01*
X150936Y8715D01*
X151105Y10000D01*
X150936Y11285D01*
X150931Y11297D01*
X166581Y26946D01*
X195866D01*
X196534Y27034D01*
X197157Y27292D01*
X197691Y27702D01*
X226235Y56246D01*
X226645Y56780D01*
X226903Y57403D01*
X226991Y58071D01*
Y107283D01*
X226903Y107951D01*
X226645Y108574D01*
X226235Y109109D01*
X223245Y112099D01*
X223296Y112490D01*
X223234Y112960D01*
X223708Y113193D01*
X233639Y103262D01*
Y50197D01*
X233727Y49529D01*
X233985Y48906D01*
X234395Y48372D01*
X239687Y43080D01*
X239587Y42323D01*
X239741Y41156D01*
X240191Y40069D01*
X240908Y39136D01*
X241841Y38420D01*
X242928Y37969D01*
X244094Y37816D01*
X245261Y37969D01*
X246348Y38420D01*
X247281Y39136D01*
X247998Y40069D01*
X248448Y41156D01*
X248602Y42323D01*
X248448Y43489D01*
X247998Y44576D01*
X247281Y45510D01*
X246348Y46226D01*
X245261Y46676D01*
X244094Y46830D01*
X243337Y46730D01*
X238802Y51266D01*
Y104331D01*
X238714Y104999D01*
X238456Y105621D01*
X238046Y106156D01*
X229730Y114472D01*
X229951Y114920D01*
X230315Y114873D01*
X231482Y115026D01*
X232569Y115476D01*
X233502Y116192D01*
X234218Y117126D01*
X234668Y118213D01*
X234822Y119379D01*
X234668Y120546D01*
X234218Y121633D01*
X233502Y122566D01*
X232569Y123283D01*
X231482Y123733D01*
X230619Y123846D01*
X228644Y125822D01*
Y194596D01*
X229573Y195309D01*
X230362Y196337D01*
X230806Y197411D01*
X230807Y197411D01*
X231319D01*
X231320Y197411D01*
X231764Y196337D01*
X232553Y195309D01*
X233581Y194520D01*
X234778Y194024D01*
X236063Y193855D01*
X237348Y194024D01*
X238545Y194520D01*
X239573Y195309D01*
X240362Y196337D01*
X240806Y197411D01*
X240807Y197411D01*
X241319D01*
X241320Y197411D01*
X241764Y196337D01*
X242553Y195309D01*
X243581Y194520D01*
X244778Y194024D01*
X246063Y193855D01*
X247348Y194024D01*
X248545Y194520D01*
X249573Y195309D01*
X250362Y196337D01*
X250858Y197534D01*
X251027Y198819D01*
X250858Y200104D01*
X250362Y201301D01*
X249573Y202329D01*
X248545Y203118D01*
X247348Y203613D01*
X246063Y203783D01*
D02*
G37*
G36*
X101563Y202740D02*
Y199319D01*
X104984D01*
X104914Y199851D01*
X104516Y200812D01*
X103882Y201638D01*
X103056Y202272D01*
X102095Y202670D01*
X101563Y202740D01*
D02*
G37*
G36*
X100563D02*
X100031Y202670D01*
X99070Y202272D01*
X98244Y201638D01*
X97610Y200812D01*
X97212Y199851D01*
X97142Y199319D01*
X100563D01*
Y202740D01*
D02*
G37*
G36*
X104984Y198319D02*
X101563D01*
Y194898D01*
X102095Y194968D01*
X103056Y195366D01*
X103882Y196000D01*
X104516Y196826D01*
X104914Y197787D01*
X104984Y198319D01*
D02*
G37*
G36*
X100563D02*
X97142D01*
X97212Y197787D01*
X97610Y196826D01*
X98244Y196000D01*
X99070Y195366D01*
X100031Y194968D01*
X100563Y194898D01*
Y198319D01*
D02*
G37*
G36*
X85055Y175803D02*
X81209D01*
Y173138D01*
X85055D01*
Y175803D01*
D02*
G37*
G36*
X80209D02*
X76362D01*
Y173138D01*
X80209D01*
Y175803D01*
D02*
G37*
G36*
X118323D02*
X112705D01*
Y173138D01*
X118323D01*
Y175803D01*
D02*
G37*
G36*
X111705D02*
X106087D01*
Y173138D01*
X111705D01*
Y175803D01*
D02*
G37*
G36*
X98925Y173740D02*
Y170776D01*
X101890D01*
X101835Y171189D01*
X101482Y172041D01*
X100921Y172772D01*
X100190Y173333D01*
X99339Y173686D01*
X98925Y173740D01*
D02*
G37*
G36*
X97925D02*
X97512Y173686D01*
X96660Y173333D01*
X95929Y172772D01*
X95368Y172041D01*
X95015Y171189D01*
X94961Y170776D01*
X97925D01*
Y173740D01*
D02*
G37*
G36*
X118323Y172138D02*
X112705D01*
Y169472D01*
X118323D01*
Y172138D01*
D02*
G37*
G36*
X111705D02*
X106087D01*
Y169472D01*
X111705D01*
Y172138D01*
D02*
G37*
G36*
X85055Y172138D02*
X81209D01*
Y169472D01*
X85055D01*
Y172138D01*
D02*
G37*
G36*
X80209D02*
X76362D01*
Y169472D01*
X80209D01*
Y172138D01*
D02*
G37*
G36*
X101890Y169776D02*
X98925D01*
Y166811D01*
X99339Y166866D01*
X100190Y167218D01*
X100921Y167779D01*
X101482Y168510D01*
X101835Y169362D01*
X101890Y169776D01*
D02*
G37*
G36*
X97925D02*
X94961D01*
X95015Y169362D01*
X95368Y168510D01*
X95929Y167779D01*
X96660Y167218D01*
X97512Y166866D01*
X97925Y166811D01*
Y169776D01*
D02*
G37*
G36*
X132299Y168913D02*
X128453D01*
Y166248D01*
X132299D01*
Y168913D01*
D02*
G37*
G36*
X127453D02*
X123606D01*
Y166248D01*
X127453D01*
Y168913D01*
D02*
G37*
G36*
X132299Y165248D02*
X128453D01*
Y162583D01*
X132299D01*
Y165248D01*
D02*
G37*
G36*
X127453D02*
X123606D01*
Y162583D01*
X127453D01*
Y165248D01*
D02*
G37*
G36*
X30028Y161929D02*
Y158965D01*
X32992D01*
X32937Y159378D01*
X32585Y160230D01*
X32024Y160961D01*
X31293Y161522D01*
X30441Y161874D01*
X30028Y161929D01*
D02*
G37*
G36*
X29028D02*
X28614Y161874D01*
X27762Y161522D01*
X27031Y160961D01*
X26470Y160230D01*
X26118Y159378D01*
X26063Y158965D01*
X29028D01*
Y161929D01*
D02*
G37*
G36*
X32992Y157965D02*
X30028D01*
Y155000D01*
X30441Y155055D01*
X31293Y155407D01*
X32024Y155968D01*
X32585Y156700D01*
X32937Y157551D01*
X32992Y157965D01*
D02*
G37*
G36*
X29028D02*
X26063D01*
X26118Y157551D01*
X26470Y156700D01*
X27031Y155968D01*
X27762Y155407D01*
X28614Y155055D01*
X29028Y155000D01*
Y157965D01*
D02*
G37*
G36*
X147047Y159252D02*
X136417D01*
Y150984D01*
X147047D01*
Y159252D01*
D02*
G37*
G36*
X46063Y181299D02*
X37795D01*
Y167126D01*
X39348D01*
Y158661D01*
X37795D01*
Y153592D01*
X37545Y153400D01*
X32624Y148479D01*
X32214Y147944D01*
X31956Y147322D01*
X31868Y146653D01*
Y135542D01*
X31262Y135077D01*
X30546Y134143D01*
X30095Y133056D01*
X29942Y131890D01*
X30095Y130723D01*
X30546Y129636D01*
X31262Y128703D01*
X32195Y127987D01*
X33282Y127536D01*
X34449Y127383D01*
X35615Y127536D01*
X36702Y127987D01*
X37636Y128703D01*
X38352Y129636D01*
X38802Y130723D01*
X38956Y131890D01*
X38802Y133056D01*
X38352Y134143D01*
X37636Y135077D01*
X37030Y135542D01*
Y145538D01*
X37330Y145781D01*
X37795Y145577D01*
Y144488D01*
X46063D01*
Y158661D01*
X44510D01*
Y167126D01*
X46063D01*
Y181299D01*
D02*
G37*
G36*
X243110Y172402D02*
X233268D01*
Y162559D01*
X236284D01*
X236383Y162059D01*
X235707Y161779D01*
X234679Y160990D01*
X233890Y159962D01*
X233394Y158765D01*
X233225Y157480D01*
X233394Y156196D01*
X233890Y154999D01*
X234679Y153970D01*
X235707Y153182D01*
X236781Y152737D01*
X236781Y152736D01*
Y152225D01*
X236781Y152224D01*
X235707Y151779D01*
X234679Y150990D01*
X233890Y149962D01*
X233394Y148765D01*
X233225Y147480D01*
X233394Y146196D01*
X233890Y144999D01*
X234679Y143970D01*
X235707Y143182D01*
X236904Y142686D01*
X238189Y142517D01*
X239474Y142686D01*
X240671Y143182D01*
X241699Y143970D01*
X242488Y144999D01*
X242984Y146196D01*
X243153Y147480D01*
X242984Y148765D01*
X242488Y149962D01*
X241699Y150990D01*
X240671Y151779D01*
X239597Y152224D01*
X239597Y152225D01*
Y152736D01*
X239597Y152737D01*
X240671Y153182D01*
X241699Y153970D01*
X242488Y154999D01*
X242984Y156196D01*
X243153Y157480D01*
X242984Y158765D01*
X242488Y159962D01*
X241699Y160990D01*
X240671Y161779D01*
X239995Y162059D01*
X240094Y162559D01*
X243110D01*
Y172402D01*
D02*
G37*
G36*
X69736Y142736D02*
X69195D01*
X68727Y142643D01*
X68331Y142378D01*
X68066Y141982D01*
X67973Y141514D01*
X67500D01*
X67407Y141982D01*
X67142Y142378D01*
X66746Y142643D01*
X66278Y142736D01*
X65736D01*
Y137795D01*
Y132854D01*
X66278D01*
X66746Y132948D01*
X67142Y133212D01*
X67407Y133609D01*
X67500Y134076D01*
X67973D01*
X68066Y133609D01*
X68331Y133212D01*
X68727Y132948D01*
X69195Y132854D01*
X69736D01*
Y137795D01*
Y142736D01*
D02*
G37*
G36*
X238689Y141401D02*
Y137980D01*
X242110D01*
X242040Y138512D01*
X241642Y139474D01*
X241008Y140299D01*
X240182Y140933D01*
X239221Y141331D01*
X238689Y141401D01*
D02*
G37*
G36*
X237689D02*
X237157Y141331D01*
X236196Y140933D01*
X235370Y140299D01*
X234736Y139474D01*
X234338Y138512D01*
X234268Y137980D01*
X237689D01*
Y141401D01*
D02*
G37*
G36*
Y136980D02*
X234268D01*
X234338Y136448D01*
X234736Y135487D01*
X235370Y134661D01*
X236196Y134028D01*
X237157Y133629D01*
X237689Y133559D01*
Y136980D01*
D02*
G37*
G36*
X242110D02*
X238689D01*
Y133559D01*
X239221Y133629D01*
X240182Y134028D01*
X241008Y134661D01*
X241642Y135487D01*
X242040Y136448D01*
X242110Y136980D01*
D02*
G37*
G36*
X64736Y142736D02*
X64195D01*
X63727Y142643D01*
X63331Y142378D01*
X63066Y141982D01*
X63023Y141766D01*
X51181D01*
X50153Y141631D01*
X49196Y141234D01*
X48373Y140603D01*
X42468Y134698D01*
X41837Y133875D01*
X41440Y132917D01*
X41305Y131890D01*
Y111221D01*
Y87275D01*
X35578Y81548D01*
X34947Y80726D01*
X34550Y79768D01*
X34415Y78740D01*
Y58096D01*
X22638D01*
X22638Y58096D01*
X21867Y57995D01*
X21149Y57697D01*
X20532Y57224D01*
X20532Y57224D01*
X13642Y50334D01*
X13169Y49718D01*
X12871Y48999D01*
X12770Y48228D01*
X12871Y47458D01*
X13072Y46972D01*
X12785Y46472D01*
X11795D01*
Y40854D01*
X15748D01*
X19701D01*
Y46472D01*
X18911D01*
X18704Y46972D01*
X23871Y52140D01*
X35800D01*
X36400Y51679D01*
X37358Y51282D01*
X38386Y51147D01*
X55442D01*
X59200Y47389D01*
X60022Y46758D01*
X60957Y46371D01*
X61337Y45875D01*
X62068Y45314D01*
X62919Y44962D01*
X63333Y44907D01*
Y48372D01*
X63833D01*
Y48872D01*
X67297D01*
X67243Y49285D01*
X66890Y50137D01*
X66329Y50868D01*
X65834Y51248D01*
X65447Y52182D01*
X64816Y53005D01*
X59895Y57926D01*
X59072Y58557D01*
X58114Y58954D01*
X57087Y59089D01*
X42357D01*
Y77095D01*
X47038Y81777D01*
X63023D01*
X63066Y81561D01*
X63331Y81165D01*
X63727Y80900D01*
X64195Y80807D01*
X64736D01*
Y85748D01*
Y90689D01*
X64195D01*
X63727Y90596D01*
X63331Y90331D01*
X63066Y89934D01*
X63023Y89719D01*
X49247D01*
Y107801D01*
X53764D01*
Y105063D01*
X62138D01*
Y111772D01*
Y118480D01*
X53764D01*
Y115743D01*
X49247D01*
Y130245D01*
X52826Y133824D01*
X63023D01*
X63066Y133609D01*
X63331Y133212D01*
X63727Y132948D01*
X64195Y132854D01*
X64736D01*
Y137795D01*
Y142736D01*
D02*
G37*
G36*
X238189Y132444D02*
X236904Y132275D01*
X235707Y131779D01*
X234679Y130990D01*
X233890Y129962D01*
X233394Y128765D01*
X233225Y127480D01*
X233394Y126196D01*
X233890Y124998D01*
X234679Y123970D01*
X234867Y123826D01*
X235065Y123569D01*
X235599Y123158D01*
X236222Y122900D01*
X236462Y122869D01*
X236904Y122686D01*
X238189Y122517D01*
X239474Y122686D01*
X240671Y123182D01*
X241699Y123970D01*
X242488Y124998D01*
X242984Y126196D01*
X243153Y127480D01*
X242984Y128765D01*
X242488Y129962D01*
X241699Y130990D01*
X240671Y131779D01*
X239474Y132275D01*
X238189Y132444D01*
D02*
G37*
G36*
X121709Y118480D02*
X113335D01*
Y112272D01*
X121709D01*
Y118480D01*
D02*
G37*
G36*
Y111272D02*
X113335D01*
Y105063D01*
X121709D01*
Y111272D01*
D02*
G37*
G36*
X87236Y124583D02*
X67839D01*
Y118480D01*
X63138D01*
Y111772D01*
Y105063D01*
X67839D01*
Y98961D01*
X87236D01*
Y111772D01*
Y124583D01*
D02*
G37*
G36*
X69736Y90689D02*
X69195D01*
X68727Y90596D01*
X68331Y90331D01*
X68066Y89934D01*
X67973Y89467D01*
X67500D01*
X67407Y89934D01*
X67142Y90331D01*
X66746Y90596D01*
X66278Y90689D01*
X65736D01*
Y85748D01*
Y80807D01*
X66278D01*
X66746Y80900D01*
X67142Y81165D01*
X67407Y81561D01*
X67500Y82029D01*
X67973D01*
X68066Y81561D01*
X68331Y81165D01*
X68727Y80900D01*
X69195Y80807D01*
X69736D01*
Y85748D01*
Y90689D01*
D02*
G37*
G36*
X111278D02*
X110736D01*
Y86248D01*
X112500D01*
Y89467D01*
X112407Y89934D01*
X112142Y90331D01*
X111746Y90596D01*
X111278Y90689D01*
D02*
G37*
G36*
X112500Y85248D02*
X110736D01*
Y80807D01*
X111278D01*
X111746Y80900D01*
X112142Y81165D01*
X112407Y81561D01*
X112500Y82029D01*
Y85248D01*
D02*
G37*
G36*
X153756Y66945D02*
X145382D01*
Y62508D01*
X153756D01*
Y66945D01*
D02*
G37*
G36*
Y61508D02*
X145382D01*
Y57071D01*
X153756D01*
Y61508D01*
D02*
G37*
G36*
X67297Y47872D02*
X64333D01*
Y44907D01*
X64747Y44962D01*
X65598Y45314D01*
X66329Y45875D01*
X66890Y46607D01*
X67243Y47458D01*
X67297Y47872D01*
D02*
G37*
G36*
X46063Y47441D02*
X37795D01*
Y41951D01*
X32480D01*
Y47441D01*
X22638D01*
Y33268D01*
X32480D01*
Y36789D01*
X37795D01*
Y33268D01*
X46063D01*
Y47441D01*
D02*
G37*
G36*
X114673Y43819D02*
Y40854D01*
X117638D01*
X117583Y41268D01*
X117230Y42119D01*
X116669Y42851D01*
X115938Y43412D01*
X115087Y43764D01*
X114673Y43819D01*
D02*
G37*
G36*
X113673D02*
X113259Y43764D01*
X112408Y43412D01*
X111677Y42851D01*
X111116Y42119D01*
X110763Y41268D01*
X110709Y40854D01*
X113673D01*
Y43819D01*
D02*
G37*
G36*
X176181Y43334D02*
Y40370D01*
X179146D01*
X179091Y40784D01*
X178738Y41635D01*
X178177Y42366D01*
X177446Y42927D01*
X176595Y43280D01*
X176181Y43334D01*
D02*
G37*
G36*
X175181D02*
X174767Y43280D01*
X173916Y42927D01*
X173185Y42366D01*
X172624Y41635D01*
X172271Y40784D01*
X172217Y40370D01*
X175181D01*
Y43334D01*
D02*
G37*
G36*
X117638Y39854D02*
X114673D01*
Y36890D01*
X115087Y36944D01*
X115938Y37297D01*
X116669Y37858D01*
X117230Y38589D01*
X117583Y39441D01*
X117638Y39854D01*
D02*
G37*
G36*
X113673D02*
X110709D01*
X110763Y39441D01*
X111116Y38589D01*
X111677Y37858D01*
X112408Y37297D01*
X113259Y36944D01*
X113673Y36890D01*
Y39854D01*
D02*
G37*
G36*
X179146Y39370D02*
X176181D01*
Y36406D01*
X176595Y36460D01*
X177446Y36813D01*
X178177Y37374D01*
X178738Y38105D01*
X179091Y38956D01*
X179146Y39370D01*
D02*
G37*
G36*
X175181D02*
X172217D01*
X172271Y38956D01*
X172624Y38105D01*
X173185Y37374D01*
X173916Y36813D01*
X174767Y36460D01*
X175181Y36406D01*
Y39370D01*
D02*
G37*
G36*
X19701Y39854D02*
X16248D01*
Y34236D01*
X19701D01*
Y39854D01*
D02*
G37*
G36*
X15248D02*
X11795D01*
Y34236D01*
X15248D01*
Y39854D01*
D02*
G37*
G36*
X39870Y25118D02*
Y22153D01*
X42834D01*
X42780Y22567D01*
X42427Y23419D01*
X41866Y24150D01*
X41135Y24711D01*
X40284Y25063D01*
X39870Y25118D01*
D02*
G37*
G36*
X38870D02*
X38456Y25063D01*
X37605Y24711D01*
X36874Y24150D01*
X36313Y23419D01*
X35960Y22567D01*
X35906Y22153D01*
X38870D01*
Y25118D01*
D02*
G37*
G36*
X42834Y21154D02*
X39870D01*
Y18189D01*
X40284Y18244D01*
X41135Y18596D01*
X41866Y19157D01*
X42427Y19888D01*
X42780Y20740D01*
X42834Y21154D01*
D02*
G37*
G36*
X38870D02*
X35906D01*
X35960Y20740D01*
X36313Y19888D01*
X36874Y19157D01*
X37605Y18596D01*
X38456Y18244D01*
X38870Y18189D01*
Y21154D01*
D02*
G37*
G36*
X79240Y25600D02*
Y17232D01*
X87608D01*
X87486Y18472D01*
X86978Y20145D01*
X86154Y21686D01*
X85045Y23038D01*
X83694Y24146D01*
X82152Y24971D01*
X80480Y25478D01*
X79240Y25600D01*
D02*
G37*
G36*
X246063Y14964D02*
X244778Y14795D01*
X243581Y14299D01*
X242553Y13510D01*
X241764Y12482D01*
X241320Y11408D01*
X241319Y11408D01*
X240807D01*
X240806Y11408D01*
X240362Y12482D01*
X239573Y13510D01*
X238545Y14299D01*
X237348Y14795D01*
X236063Y14964D01*
X234778Y14795D01*
X233581Y14299D01*
X232553Y13510D01*
X231764Y12482D01*
X231320Y11408D01*
X231319Y11408D01*
X230807D01*
X230806Y11408D01*
X230362Y12482D01*
X229573Y13510D01*
X228545Y14299D01*
X227348Y14795D01*
X226063Y14964D01*
X224778Y14795D01*
X223581Y14299D01*
X222553Y13510D01*
X221764Y12482D01*
X221320Y11408D01*
X221319Y11408D01*
X220807D01*
X220806Y11408D01*
X220362Y12482D01*
X219573Y13510D01*
X218545Y14299D01*
X217348Y14795D01*
X216063Y14964D01*
X214778Y14795D01*
X213581Y14299D01*
X212553Y13510D01*
X211764Y12482D01*
X211320Y11408D01*
X211319Y11408D01*
X210807D01*
X210806Y11408D01*
X210362Y12482D01*
X209573Y13510D01*
X208545Y14299D01*
X207348Y14795D01*
X206063Y14964D01*
X204778Y14795D01*
X203581Y14299D01*
X202553Y13510D01*
X201764Y12482D01*
X201484Y11806D01*
X200984Y11905D01*
Y14921D01*
X191142D01*
Y5079D01*
X200984D01*
Y8095D01*
X201484Y8194D01*
X201764Y7518D01*
X202553Y6490D01*
X203581Y5701D01*
X204778Y5205D01*
X206063Y5036D01*
X207348Y5205D01*
X208545Y5701D01*
X209573Y6490D01*
X210362Y7518D01*
X210806Y8592D01*
X210807Y8592D01*
X211319D01*
X211320Y8592D01*
X211764Y7518D01*
X212553Y6490D01*
X213581Y5701D01*
X214778Y5205D01*
X216063Y5036D01*
X217348Y5205D01*
X218545Y5701D01*
X219573Y6490D01*
X220362Y7518D01*
X220806Y8592D01*
X220807Y8592D01*
X221319D01*
X221320Y8592D01*
X221764Y7518D01*
X222553Y6490D01*
X223581Y5701D01*
X224778Y5205D01*
X226063Y5036D01*
X227348Y5205D01*
X228545Y5701D01*
X229573Y6490D01*
X230362Y7518D01*
X230806Y8592D01*
X230807Y8592D01*
X231319D01*
X231320Y8592D01*
X231764Y7518D01*
X232553Y6490D01*
X233581Y5701D01*
X234778Y5205D01*
X236063Y5036D01*
X237348Y5205D01*
X238545Y5701D01*
X239573Y6490D01*
X240362Y7518D01*
X240806Y8592D01*
X240807Y8592D01*
X241319D01*
X241320Y8592D01*
X241764Y7518D01*
X242553Y6490D01*
X243581Y5701D01*
X244778Y5205D01*
X246063Y5036D01*
X247348Y5205D01*
X248545Y5701D01*
X249573Y6490D01*
X250362Y7518D01*
X250858Y8715D01*
X251027Y10000D01*
X250858Y11285D01*
X250362Y12482D01*
X249573Y13510D01*
X248545Y14299D01*
X247348Y14795D01*
X246063Y14964D01*
D02*
G37*
G36*
X166642Y13921D02*
Y10500D01*
X170063D01*
X169993Y11032D01*
X169595Y11993D01*
X168961Y12819D01*
X168135Y13453D01*
X167174Y13851D01*
X166642Y13921D01*
D02*
G37*
G36*
X165642D02*
X165110Y13851D01*
X164148Y13453D01*
X163323Y12819D01*
X162689Y11993D01*
X162291Y11032D01*
X162221Y10500D01*
X165642D01*
Y13921D01*
D02*
G37*
G36*
X156642D02*
Y10500D01*
X160063D01*
X159993Y11032D01*
X159595Y11993D01*
X158961Y12819D01*
X158135Y13453D01*
X157174Y13851D01*
X156642Y13921D01*
D02*
G37*
G36*
X155642D02*
X155110Y13851D01*
X154148Y13453D01*
X153323Y12819D01*
X152689Y11993D01*
X152291Y11032D01*
X152221Y10500D01*
X155642D01*
Y13921D01*
D02*
G37*
G36*
X87608Y16232D02*
X79240D01*
Y7865D01*
X80480Y7987D01*
X82152Y8494D01*
X83694Y9318D01*
X85045Y10427D01*
X86154Y11778D01*
X86978Y13320D01*
X87486Y14993D01*
X87608Y16232D01*
D02*
G37*
G36*
X170063Y9500D02*
X166642D01*
Y6079D01*
X167174Y6149D01*
X168135Y6547D01*
X168961Y7181D01*
X169595Y8007D01*
X169993Y8968D01*
X170063Y9500D01*
D02*
G37*
G36*
X165642D02*
X162221D01*
X162291Y8968D01*
X162689Y8007D01*
X163323Y7181D01*
X164148Y6547D01*
X165110Y6149D01*
X165642Y6079D01*
Y9500D01*
D02*
G37*
G36*
X160063D02*
X156642D01*
Y6079D01*
X157174Y6149D01*
X158135Y6547D01*
X158961Y7181D01*
X159595Y8007D01*
X159993Y8968D01*
X160063Y9500D01*
D02*
G37*
G36*
X155642D02*
X152221D01*
X152291Y8968D01*
X152689Y8007D01*
X153323Y7181D01*
X154148Y6547D01*
X155110Y6149D01*
X155642Y6079D01*
Y9500D01*
D02*
G37*
G36*
X176142Y14964D02*
X174857Y14795D01*
X173660Y14299D01*
X172632Y13510D01*
X171843Y12482D01*
X171347Y11285D01*
X171178Y10000D01*
X171347Y8715D01*
X171843Y7518D01*
X172632Y6490D01*
X173660Y5701D01*
X174857Y5205D01*
X176142Y5036D01*
X177426Y5205D01*
X178624Y5701D01*
X179652Y6490D01*
X180440Y7518D01*
X180936Y8715D01*
X181105Y10000D01*
X180936Y11285D01*
X180440Y12482D01*
X179652Y13510D01*
X178624Y14299D01*
X177426Y14795D01*
X176142Y14964D01*
D02*
G37*
%LPD*%
G36*
X113189Y71850D02*
X129921D01*
X134365Y67407D01*
X134174Y66945D01*
X126484D01*
Y62008D01*
Y57071D01*
X134843D01*
Y55118D01*
X132874Y53150D01*
X107283D01*
X106299Y54134D01*
X87598Y35433D01*
X79724D01*
X68898Y24606D01*
Y17216D01*
X68850Y16732D01*
X68898Y16249D01*
Y9291D01*
X65513Y5906D01*
X52165D01*
X49213Y8858D01*
X49213Y22638D01*
X72835Y46260D01*
X83661Y46260D01*
X104331Y66929D01*
X104331Y80055D01*
X104793Y80247D01*
X113189Y71850D01*
D02*
G37*
%LPC*%
G36*
X125484Y66945D02*
X117110D01*
Y62508D01*
X125484D01*
Y66945D01*
D02*
G37*
G36*
Y61508D02*
X117110D01*
Y57071D01*
X125484D01*
Y61508D01*
D02*
G37*
G36*
X59555Y25600D02*
Y17232D01*
X67923D01*
X67801Y18472D01*
X67293Y20145D01*
X66469Y21686D01*
X65360Y23038D01*
X64009Y24146D01*
X62467Y24971D01*
X60795Y25478D01*
X59555Y25600D01*
D02*
G37*
G36*
X58555D02*
X57315Y25478D01*
X55643Y24971D01*
X54101Y24146D01*
X52750Y23038D01*
X51641Y21686D01*
X50817Y20145D01*
X50309Y18472D01*
X50187Y17232D01*
X58555D01*
Y25600D01*
D02*
G37*
G36*
X67923Y16232D02*
X59555D01*
Y7865D01*
X60795Y7987D01*
X62467Y8494D01*
X64009Y9318D01*
X65360Y10427D01*
X66469Y11778D01*
X67293Y13320D01*
X67801Y14993D01*
X67923Y16232D01*
D02*
G37*
G36*
X58555D02*
X50187D01*
X50309Y14993D01*
X50817Y13320D01*
X51641Y11778D01*
X52750Y10427D01*
X54101Y9318D01*
X55643Y8494D01*
X57315Y7987D01*
X58555Y7865D01*
Y16232D01*
D02*
G37*
%LPD*%
D13*
X112205Y172638D02*
D03*
Y162008D02*
D03*
D14*
X41929Y40354D02*
D03*
X52559D02*
D03*
X41929Y151575D02*
D03*
X52559D02*
D03*
X41929Y174213D02*
D03*
X52559D02*
D03*
X176772Y132874D02*
D03*
X187402D02*
D03*
X176772Y152559D02*
D03*
X187402D02*
D03*
X176878Y172744D02*
D03*
X187508D02*
D03*
D15*
X65236Y137795D02*
D03*
X70236D02*
D03*
X75236D02*
D03*
X80236D02*
D03*
X85236D02*
D03*
X90236D02*
D03*
X95236D02*
D03*
X100236D02*
D03*
X105236D02*
D03*
X110236D02*
D03*
Y85748D02*
D03*
X105236D02*
D03*
X100236D02*
D03*
X95236D02*
D03*
X90236D02*
D03*
X85236D02*
D03*
X80236D02*
D03*
X75236D02*
D03*
X70236D02*
D03*
X65236D02*
D03*
D16*
X15748Y40354D02*
D03*
X27559D02*
D03*
D17*
X125984Y62008D02*
D03*
X144882D02*
D03*
D18*
X141732Y165748D02*
D03*
Y155118D02*
D03*
X80709Y172638D02*
D03*
Y162008D02*
D03*
X137795Y132283D02*
D03*
Y121653D02*
D03*
X127953Y165748D02*
D03*
Y155118D02*
D03*
D19*
X141732Y101378D02*
D03*
X133858D02*
D03*
X137795Y109252D02*
D03*
D35*
X112835Y111772D02*
D03*
X62638D02*
D03*
D36*
X87736D02*
D03*
D37*
X75236Y137795D02*
Y146220D01*
X68898Y152559D02*
X75236Y146220D01*
X68898Y152559D02*
Y173228D01*
X75787Y180118D01*
X127362D01*
X140945Y182874D02*
X148819D01*
X132874Y190945D02*
X140945Y182874D01*
X118110Y190945D02*
X132874D01*
X127362Y180118D02*
X141732Y165748D01*
X75236Y137795D02*
X75236Y137795D01*
X75236Y132441D02*
Y137795D01*
X148819Y182874D02*
X156496Y175197D01*
Y85630D02*
Y175197D01*
Y85630D02*
X198819Y43307D01*
X111063Y197992D02*
X118110Y190945D01*
X111063Y197992D02*
Y198819D01*
X198819Y43307D02*
X201772D01*
X166201Y94626D02*
X173228Y87598D01*
X165020Y94626D02*
X166201D01*
X173228Y87598D02*
X217520D01*
X130630Y198819D02*
X143425Y186024D01*
X200373Y53150D02*
Y54818D01*
X161024Y94168D02*
X200373Y54818D01*
X151575Y186024D02*
X161024Y176575D01*
Y94168D02*
Y176575D01*
X140630Y193273D02*
Y198819D01*
X164173Y95472D02*
X165020Y94626D01*
X152879Y189173D02*
X164173Y177879D01*
Y95472D02*
Y177879D01*
X167323Y182087D02*
X174213Y188976D01*
X167323Y102362D02*
Y182087D01*
Y102362D02*
X171260Y98425D01*
X90551Y157480D02*
X95295Y152736D01*
Y137854D02*
Y152736D01*
X100394Y155512D02*
X110236D01*
X112205Y157480D01*
X100236Y85748D02*
Y94646D01*
X90551Y157480D02*
X91535D01*
X34449Y131890D02*
Y146653D01*
X39370Y151575D01*
X41929D01*
X218996Y112697D02*
X224410Y107283D01*
X176772Y132874D02*
Y152559D01*
Y127362D02*
Y132874D01*
X15748Y40354D02*
Y48228D01*
X70118Y85630D02*
X70236Y85748D01*
X52559Y182480D02*
X56102Y186024D01*
X52559Y174213D02*
Y182480D01*
X56102Y162402D02*
X57087D01*
X55118D02*
X56102D01*
X52559Y159843D02*
X55118Y162402D01*
X52559Y151575D02*
Y159843D01*
X41929Y153543D02*
Y174213D01*
X112205Y157480D02*
Y162008D01*
X201772Y43307D02*
X206875Y48411D01*
Y59055D01*
X144730Y189173D02*
X152879D01*
X143425Y186024D02*
X151575D01*
X187402Y132874D02*
X191929D01*
X196850Y137795D01*
X197835D01*
X176772Y127362D02*
X182087Y122047D01*
X209231D01*
X218789Y112490D01*
X236221Y50197D02*
X244094Y42323D01*
X236221Y50197D02*
Y104331D01*
X216063Y124488D02*
X236221Y104331D01*
X216063Y124488D02*
Y198819D01*
X226063Y124753D02*
Y198819D01*
Y124753D02*
X230315Y120501D01*
Y119379D02*
Y120501D01*
X171260Y97441D02*
Y98425D01*
X174213Y188976D02*
X206221D01*
X216063Y198819D01*
X224410Y58071D02*
Y107283D01*
X195866Y29528D02*
X224410Y58071D01*
X145984Y10000D02*
X165512Y29528D01*
X195866D01*
X79725Y161024D02*
X80709Y162008D01*
X79725Y150591D02*
Y161024D01*
X236890Y125394D02*
X237795Y126299D01*
X176772Y152559D02*
X176878Y152665D01*
Y172744D01*
X140630Y193273D02*
X144730Y189173D01*
X95236Y137795D02*
X95295Y137854D01*
X197835Y137402D02*
Y137795D01*
X187508Y155028D02*
X189976Y152559D01*
X197835D01*
X187508Y172744D02*
X187992Y173228D01*
X197835D01*
X27559Y40354D02*
X28543Y39370D01*
X41929D01*
X75236Y132441D02*
X79724Y127953D01*
X112205D01*
X116142Y124016D01*
X125984D01*
X141732Y92520D02*
Y101378D01*
X82264Y131319D02*
X137795D01*
X80236Y133346D02*
Y137795D01*
Y133346D02*
X82264Y131319D01*
X137795D02*
Y132283D01*
Y121653D02*
X137795Y121653D01*
Y109252D02*
Y121653D01*
X95236Y73071D02*
Y85748D01*
X67913Y74803D02*
X73729D01*
X80236Y81310D02*
Y85748D01*
X73729Y74803D02*
X80236Y81310D01*
X85236Y137795D02*
Y145079D01*
X79725Y150591D02*
X85236Y145079D01*
Y137795D02*
X85630Y138189D01*
X100236Y137795D02*
Y154370D01*
X95236Y137795D02*
X95295Y137854D01*
X75236Y94921D02*
X99961D01*
X75236Y85748D02*
Y94921D01*
D38*
X141732Y145591D02*
X147716D01*
X127953D02*
X141732D01*
X134843Y84646D02*
X147638D01*
X150591Y87598D01*
Y142717D01*
X147716Y145591D02*
X150591Y142717D01*
X131890Y67913D02*
X133858Y69882D01*
X127953Y67913D02*
X131890D01*
X125984Y62008D02*
X127953Y63976D01*
Y67913D01*
X133858Y84646D02*
X134843D01*
X133858Y83661D02*
X134843Y84646D01*
X133858Y69882D02*
Y83661D01*
X45276Y111221D02*
Y131890D01*
Y85630D02*
Y111221D01*
X45827Y111772D02*
X62638D01*
X51181Y137795D02*
X65236D01*
X45276Y131890D02*
X51181Y137795D01*
X45394Y85748D02*
X65236D01*
X57087Y55118D02*
X62008Y50197D01*
X38386Y55118D02*
X57087D01*
X38386D02*
Y78740D01*
X45276Y85630D01*
D39*
X52559Y39370D02*
X53543Y40354D01*
X66929D02*
X71850Y35433D01*
X53543Y40354D02*
X66929D01*
X79567Y35433D02*
X105236Y61102D01*
X71850Y35433D02*
X79567D01*
X105236Y61102D02*
Y85748D01*
X127953Y145591D02*
Y155118D01*
X45276Y111221D02*
X45827Y111772D01*
X65236Y85748D02*
X70236D01*
X45276Y85630D02*
X45394Y85748D01*
X22638Y55118D02*
X38386D01*
X15748Y48228D02*
X22638Y55118D01*
X65236Y137795D02*
X70236D01*
X17717Y109252D02*
Y110236D01*
D40*
X133858Y84646D02*
Y101378D01*
X73318Y66929D02*
X85236Y78847D01*
X48228Y66929D02*
X73318D01*
X72835Y59055D02*
X90236Y76457D01*
D41*
X105236Y145591D02*
X127953D01*
D42*
X105236Y137795D02*
Y145591D01*
X85236Y78847D02*
Y85748D01*
X90236Y76457D02*
Y85748D01*
Y137795D02*
Y148307D01*
D43*
X218789Y110521D02*
Y112490D01*
D44*
X78740Y16732D02*
D03*
X59055D02*
D03*
X17717Y70866D02*
D03*
Y90551D02*
D03*
Y110236D02*
D03*
D45*
X106142Y10000D02*
D03*
X196063D02*
D03*
X71063Y198819D02*
D03*
X176063D02*
D03*
D46*
X116142Y10000D02*
D03*
X126142D02*
D03*
X136142D02*
D03*
X146142D02*
D03*
X156142D02*
D03*
X166142D02*
D03*
X176142D02*
D03*
X238189Y127480D02*
D03*
Y137480D02*
D03*
Y147480D02*
D03*
Y157480D02*
D03*
X206063Y10000D02*
D03*
X216063D02*
D03*
X226063D02*
D03*
X236063D02*
D03*
X246063D02*
D03*
X91063Y198819D02*
D03*
X161063D02*
D03*
X151063D02*
D03*
X141063D02*
D03*
X131063D02*
D03*
X121063D02*
D03*
X111063D02*
D03*
X101063D02*
D03*
X81063D02*
D03*
X186063D02*
D03*
X196063D02*
D03*
X206063D02*
D03*
X216063D02*
D03*
X226063D02*
D03*
X236063D02*
D03*
X246063D02*
D03*
D47*
X238189Y167480D02*
D03*
D48*
X257874Y27559D02*
D03*
Y137795D02*
D03*
X59055Y198819D02*
D03*
D49*
X29528Y158465D02*
D03*
X98425Y170276D02*
D03*
X100394Y155512D02*
D03*
X90551Y157480D02*
D03*
X34449Y131890D02*
D03*
X63833Y48372D02*
D03*
X56102Y186024D02*
D03*
Y162402D02*
D03*
X206875Y59055D02*
D03*
X200373Y53150D02*
D03*
X244094Y42323D02*
D03*
X230315Y119379D02*
D03*
X171260Y97441D02*
D03*
X218789Y112490D02*
D03*
X217520Y87598D02*
D03*
X197835Y137795D02*
D03*
X39370Y21654D02*
D03*
X197835Y152559D02*
D03*
Y173228D02*
D03*
X175681Y39870D02*
D03*
X125984Y124016D02*
D03*
X141732Y92520D02*
D03*
X114173Y40354D02*
D03*
X96274Y70450D02*
D03*
X67913Y74803D02*
D03*
X48228Y66929D02*
D03*
X101378Y94488D02*
D03*
X72835Y59055D02*
D03*
X90236Y148307D02*
D03*
M02*
