G04*
G04 #@! TF.GenerationSoftware,Altium Limited,Altium Designer,18.0.7 (293)*
G04*
G04 Layer_Physical_Order=2*
G04 Layer_Color=16711680*
%FSLAX25Y25*%
%MOIN*%
G70*
G01*
G75*
%ADD35C,0.01181*%
%ADD36C,0.00000*%
%ADD37C,0.03937*%
%ADD38C,0.01968*%
%ADD42R,0.05906X0.05906*%
%ADD43C,0.05906*%
%ADD44R,0.05906X0.05906*%
%ADD45C,0.15748*%
%ADD46C,0.12598*%
%ADD47C,0.05000*%
%ADD48R,0.06000X0.06000*%
%ADD49R,0.06000X0.06000*%
G36*
X251969Y200787D02*
Y153543D01*
X259019Y146493D01*
X258792Y146013D01*
X257874Y146103D01*
X256253Y145943D01*
X254695Y145471D01*
X253258Y144703D01*
X252000Y143670D01*
X251309Y142829D01*
X250810Y143008D01*
Y157441D01*
X250722Y158109D01*
X250464Y158731D01*
X250054Y159266D01*
X243110Y166209D01*
Y172402D01*
X233268D01*
Y170061D01*
X229258D01*
X218361Y180959D01*
X217826Y181369D01*
X217203Y181627D01*
X216535Y181715D01*
X212646D01*
Y184102D01*
X202709D01*
Y174272D01*
X202209Y174239D01*
X202188Y174395D01*
X201738Y175482D01*
X201022Y176415D01*
X200088Y177132D01*
X199001Y177582D01*
X197835Y177735D01*
X196668Y177582D01*
X195581Y177132D01*
X194648Y176415D01*
X193931Y175482D01*
X193481Y174395D01*
X193328Y173228D01*
X193481Y172062D01*
X193931Y170975D01*
X194648Y170041D01*
X195581Y169325D01*
X196668Y168875D01*
X197835Y168721D01*
X199001Y168875D01*
X199450Y169061D01*
X199497Y169025D01*
X200119Y168767D01*
X200787Y168679D01*
X202709D01*
Y166291D01*
X212646D01*
Y174165D01*
Y176553D01*
X215466D01*
X226364Y165655D01*
X226898Y165245D01*
X227521Y164987D01*
X228189Y164899D01*
X233268D01*
Y162559D01*
X236284D01*
X236383Y162059D01*
X235707Y161779D01*
X234679Y160990D01*
X233966Y160061D01*
X212646D01*
Y162449D01*
X202709D01*
Y153602D01*
X202209Y153570D01*
X202188Y153726D01*
X201738Y154813D01*
X201022Y155746D01*
X200088Y156462D01*
X199001Y156913D01*
X197835Y157066D01*
X196668Y156913D01*
X195581Y156462D01*
X194648Y155746D01*
X193931Y154813D01*
X193481Y153726D01*
X193328Y152559D01*
X193481Y151393D01*
X193931Y150305D01*
X194648Y149372D01*
X195581Y148656D01*
X196668Y148206D01*
X197835Y148052D01*
X199001Y148206D01*
X199370Y148358D01*
X199946Y147781D01*
X200481Y147371D01*
X201104Y147113D01*
X201772Y147025D01*
X202709D01*
Y144638D01*
X212646D01*
Y152512D01*
Y154899D01*
X233966D01*
X234679Y153970D01*
X235707Y153182D01*
X236781Y152737D01*
X236781Y152736D01*
Y152225D01*
X236781Y152224D01*
X235707Y151779D01*
X234679Y150990D01*
X233966Y150061D01*
X230157D01*
X229489Y149973D01*
X228867Y149716D01*
X228332Y149305D01*
X213498Y134471D01*
X212646D01*
Y136858D01*
X202723D01*
X202587Y136868D01*
X202271Y137255D01*
X202342Y137795D01*
X202188Y138962D01*
X201738Y140049D01*
X201022Y140982D01*
X200088Y141699D01*
X199001Y142149D01*
X197835Y142302D01*
X196668Y142149D01*
X195581Y141699D01*
X194648Y140982D01*
X193931Y140049D01*
X193481Y138962D01*
X193328Y137795D01*
X193481Y136629D01*
X193931Y135542D01*
X194648Y134608D01*
X195254Y134143D01*
Y128937D01*
X195342Y128269D01*
X195599Y127647D01*
X196010Y127112D01*
X200931Y122191D01*
X201465Y121780D01*
X202088Y121523D01*
X202709Y121441D01*
Y120026D01*
X202247Y119834D01*
X192542Y129539D01*
Y181647D01*
X204902Y194008D01*
X206063Y193855D01*
X207348Y194024D01*
X208545Y194520D01*
X209573Y195309D01*
X210362Y196337D01*
X210806Y197411D01*
X210807Y197411D01*
X211319D01*
X211320Y197411D01*
X211764Y196337D01*
X212553Y195309D01*
X213581Y194520D01*
X214778Y194024D01*
X216063Y193855D01*
X217348Y194024D01*
X218545Y194520D01*
X219573Y195309D01*
X220362Y196337D01*
X220806Y197411D01*
X220807Y197411D01*
X221319D01*
X221320Y197411D01*
X221764Y196337D01*
X222553Y195309D01*
X223581Y194520D01*
X224778Y194024D01*
X226063Y193855D01*
X227348Y194024D01*
X228545Y194520D01*
X229573Y195309D01*
X230362Y196337D01*
X230806Y197411D01*
X230807Y197411D01*
X231319D01*
X231320Y197411D01*
X231764Y196337D01*
X232553Y195309D01*
X233581Y194520D01*
X234778Y194024D01*
X236063Y193855D01*
X237348Y194024D01*
X238545Y194520D01*
X239573Y195309D01*
X240362Y196337D01*
X240806Y197411D01*
X240807Y197411D01*
X241319D01*
X241320Y197411D01*
X241764Y196337D01*
X242553Y195309D01*
X243581Y194520D01*
X244778Y194024D01*
X246063Y193855D01*
X247348Y194024D01*
X248545Y194520D01*
X249573Y195309D01*
X250362Y196337D01*
X250858Y197534D01*
X251027Y198819D01*
X250858Y200104D01*
X250362Y201301D01*
X249573Y202329D01*
X248545Y203118D01*
X247348Y203613D01*
X246063Y203783D01*
X244778Y203613D01*
X243581Y203118D01*
X242553Y202329D01*
X241764Y201301D01*
X241320Y200227D01*
X241319Y200227D01*
X240807D01*
X240806Y200227D01*
X240362Y201301D01*
X239573Y202329D01*
X238545Y203118D01*
X237348Y203613D01*
X236063Y203783D01*
X234778Y203613D01*
X233581Y203118D01*
X232553Y202329D01*
X231764Y201301D01*
X231320Y200227D01*
X231319Y200227D01*
X230807D01*
X230806Y200227D01*
X230362Y201301D01*
X229573Y202329D01*
X228545Y203118D01*
X227348Y203613D01*
X226063Y203783D01*
X224778Y203613D01*
X223581Y203118D01*
X222553Y202329D01*
X221764Y201301D01*
X221320Y200227D01*
X221319Y200227D01*
X220807D01*
X220806Y200227D01*
X220362Y201301D01*
X219573Y202329D01*
X218545Y203118D01*
X217348Y203613D01*
X216063Y203783D01*
X214778Y203613D01*
X213581Y203118D01*
X212553Y202329D01*
X211764Y201301D01*
X211320Y200227D01*
X211319Y200227D01*
X210807D01*
X210806Y200227D01*
X210362Y201301D01*
X209573Y202329D01*
X208545Y203118D01*
X207348Y203613D01*
X206063Y203783D01*
X204778Y203613D01*
X203581Y203118D01*
X202553Y202329D01*
X201764Y201301D01*
X201320Y200227D01*
X201319Y200227D01*
X200807D01*
X200806Y200227D01*
X200362Y201301D01*
X199573Y202329D01*
X198545Y203118D01*
X197348Y203613D01*
X196063Y203783D01*
X194778Y203613D01*
X193581Y203118D01*
X192553Y202329D01*
X191764Y201301D01*
X191320Y200227D01*
X191319Y200227D01*
X190807D01*
X190806Y200227D01*
X190362Y201301D01*
X189573Y202329D01*
X188545Y203118D01*
X187348Y203613D01*
X186063Y203783D01*
X184778Y203613D01*
X183581Y203118D01*
X182553Y202329D01*
X181764Y201301D01*
X181484Y200625D01*
X180984Y200724D01*
Y203740D01*
X171142D01*
Y197548D01*
X170419Y196825D01*
X170009Y196291D01*
X169751Y195668D01*
X169663Y195000D01*
Y115471D01*
X169163Y115264D01*
X163211Y121216D01*
Y194596D01*
X164140Y195309D01*
X164929Y196337D01*
X165425Y197534D01*
X165594Y198819D01*
X165425Y200104D01*
X164929Y201301D01*
X164140Y202329D01*
X163112Y203118D01*
X161915Y203613D01*
X160630Y203783D01*
X159345Y203613D01*
X158148Y203118D01*
X157120Y202329D01*
X156331Y201301D01*
X155886Y200227D01*
X155886Y200227D01*
X155374D01*
X155373Y200227D01*
X154929Y201301D01*
X154140Y202329D01*
X153112Y203118D01*
X151915Y203613D01*
X150630Y203783D01*
X149345Y203613D01*
X148148Y203118D01*
X147120Y202329D01*
X146331Y201301D01*
X145887Y200227D01*
X145886Y200227D01*
X145374D01*
X145373Y200227D01*
X144929Y201301D01*
X144140Y202329D01*
X143112Y203118D01*
X141915Y203613D01*
X140630Y203783D01*
X139345Y203613D01*
X138148Y203118D01*
X137120Y202329D01*
X136331Y201301D01*
X135887Y200227D01*
X135886Y200227D01*
X135374D01*
X135373Y200227D01*
X134929Y201301D01*
X134140Y202329D01*
X133112Y203118D01*
X131915Y203613D01*
X130630Y203783D01*
X129345Y203613D01*
X128148Y203118D01*
X127120Y202329D01*
X126331Y201301D01*
X125886Y200227D01*
X125886Y200227D01*
X125374D01*
X125373Y200227D01*
X124929Y201301D01*
X124140Y202329D01*
X123112Y203118D01*
X121915Y203613D01*
X120630Y203783D01*
X119345Y203613D01*
X118148Y203118D01*
X117120Y202329D01*
X116331Y201301D01*
X115886Y200227D01*
X115886Y200227D01*
X115374D01*
X115373Y200227D01*
X114929Y201301D01*
X114140Y202329D01*
X113112Y203118D01*
X111915Y203613D01*
X110630Y203783D01*
X109345Y203613D01*
X108148Y203118D01*
X107120Y202329D01*
X106331Y201301D01*
X105835Y200104D01*
X105666Y198819D01*
X105835Y197534D01*
X106331Y196337D01*
X107120Y195309D01*
X108148Y194520D01*
X109345Y194024D01*
X110630Y193855D01*
X111915Y194024D01*
X113112Y194520D01*
X114140Y195309D01*
X114929Y196337D01*
X115373Y197411D01*
X115374Y197411D01*
X115886D01*
X115886Y197411D01*
X116331Y196337D01*
X117120Y195309D01*
X118148Y194520D01*
X119345Y194024D01*
X120630Y193855D01*
X121915Y194024D01*
X123112Y194520D01*
X124140Y195309D01*
X124929Y196337D01*
X125373Y197411D01*
X125374Y197411D01*
X125886D01*
X125886Y197411D01*
X126331Y196337D01*
X127120Y195309D01*
X128148Y194520D01*
X129345Y194024D01*
X130630Y193855D01*
X131915Y194024D01*
X133112Y194520D01*
X134140Y195309D01*
X134929Y196337D01*
X135373Y197411D01*
X135374Y197411D01*
X135886D01*
X135887Y197411D01*
X136331Y196337D01*
X137120Y195309D01*
X138148Y194520D01*
X139345Y194024D01*
X140630Y193855D01*
X141915Y194024D01*
X143112Y194520D01*
X144140Y195309D01*
X144929Y196337D01*
X145373Y197411D01*
X145374Y197411D01*
X145886D01*
X145887Y197411D01*
X146331Y196337D01*
X147120Y195309D01*
X148049Y194596D01*
Y95433D01*
X148137Y94765D01*
X148395Y94143D01*
X148805Y93608D01*
X165307Y77106D01*
Y72787D01*
Y70495D01*
X141817D01*
X140037Y72275D01*
X139502Y72685D01*
X138880Y72943D01*
X138212Y73031D01*
X99926D01*
X99461Y73637D01*
X98528Y74353D01*
X97441Y74803D01*
X96274Y74957D01*
X95108Y74803D01*
X94021Y74353D01*
X93317Y73813D01*
X92817Y74060D01*
Y82277D01*
X100621Y90081D01*
X101378Y89981D01*
X102544Y90135D01*
X103631Y90585D01*
X104565Y91301D01*
X105281Y92235D01*
X105731Y93322D01*
X105885Y94488D01*
X105731Y95655D01*
X105281Y96742D01*
X104565Y97675D01*
X103959Y98140D01*
Y150876D01*
X104565Y151341D01*
X105281Y152274D01*
X105731Y153361D01*
X105885Y154528D01*
X105731Y155694D01*
X105281Y156781D01*
X104565Y157714D01*
X103631Y158431D01*
X102544Y158881D01*
X101378Y159035D01*
X100211Y158881D01*
X99400Y158545D01*
X98900Y158860D01*
Y160571D01*
X98812Y161239D01*
X98554Y161862D01*
X98144Y162396D01*
X98054Y162487D01*
Y164655D01*
X98659Y165120D01*
X99376Y166054D01*
X99826Y167141D01*
X99980Y168307D01*
X99826Y169474D01*
X99376Y170561D01*
X98659Y171494D01*
X97726Y172210D01*
X96639Y172661D01*
X95472Y172814D01*
X94306Y172661D01*
X93219Y172210D01*
X92286Y171494D01*
X91569Y170561D01*
X91119Y169474D01*
X90965Y168307D01*
X91119Y167141D01*
X91569Y166054D01*
X92286Y165120D01*
X92891Y164655D01*
Y161417D01*
X92979Y160749D01*
X93237Y160127D01*
X93647Y159592D01*
X93738Y159502D01*
Y152432D01*
X93826Y151764D01*
X93524Y151561D01*
X93376Y151531D01*
X92490Y152210D01*
X91403Y152661D01*
X90236Y152814D01*
X89070Y152661D01*
X88146Y152278D01*
X35118D01*
X34091Y152143D01*
X33133Y151746D01*
X32310Y151115D01*
X14909Y133713D01*
X14277Y132891D01*
X13881Y131933D01*
X13746Y130905D01*
Y122694D01*
X13746Y122693D01*
Y119274D01*
X12222Y118460D01*
X10723Y117230D01*
X9493Y115731D01*
X8579Y114021D01*
X8016Y112166D01*
X8016Y112164D01*
X7516Y112189D01*
Y200430D01*
X11811Y204724D01*
X52559D01*
X52796Y204224D01*
X52148Y203434D01*
X51380Y201998D01*
X50907Y200440D01*
X50747Y198819D01*
X50907Y197198D01*
X51380Y195640D01*
X52148Y194203D01*
X53181Y192945D01*
X54440Y191911D01*
X55876Y191144D01*
X57434Y190671D01*
X59055Y190511D01*
X60676Y190671D01*
X62234Y191144D01*
X63671Y191911D01*
X64929Y192945D01*
X65963Y194203D01*
X66730Y195640D01*
X67203Y197198D01*
X67363Y198819D01*
X67203Y200440D01*
X66730Y201998D01*
X65963Y203434D01*
X65314Y204224D01*
X65551Y204724D01*
X248031D01*
X251969Y200787D01*
D02*
G37*
G36*
X93776Y145001D02*
X93876Y144967D01*
Y132959D01*
X85773Y124857D01*
X85363Y124322D01*
X85105Y123699D01*
X85017Y123031D01*
Y86158D01*
X84851Y85942D01*
X84593Y85319D01*
X84505Y84651D01*
Y66452D01*
X84044Y66260D01*
X73676Y76628D01*
X73141Y77039D01*
X72518Y77296D01*
X71850Y77384D01*
X71565D01*
X71100Y77990D01*
X70167Y78706D01*
X69080Y79157D01*
X67913Y79310D01*
X66747Y79157D01*
X65660Y78706D01*
X64726Y77990D01*
X64010Y77057D01*
X63560Y75970D01*
X63406Y74803D01*
X63560Y73637D01*
X64010Y72550D01*
X64726Y71616D01*
X65660Y70900D01*
X66747Y70450D01*
X67913Y70296D01*
X69080Y70450D01*
X70167Y70900D01*
X71100Y71616D01*
X71369Y71634D01*
X81080Y61923D01*
Y58071D01*
X81168Y57403D01*
X81426Y56780D01*
X81836Y56246D01*
X105458Y32624D01*
X105993Y32214D01*
X106615Y31956D01*
X107283Y31868D01*
X204262D01*
X204454Y31406D01*
X194238Y21190D01*
X193828Y20655D01*
X193570Y20033D01*
X193482Y19365D01*
Y14921D01*
X191142D01*
Y5079D01*
X200984D01*
Y8095D01*
X201484Y8194D01*
X201764Y7518D01*
X202553Y6490D01*
X203581Y5701D01*
X204778Y5205D01*
X206063Y5036D01*
X207348Y5205D01*
X208545Y5701D01*
X209573Y6490D01*
X210362Y7518D01*
X210806Y8592D01*
X210807Y8592D01*
X211319D01*
X211320Y8592D01*
X211764Y7518D01*
X212553Y6490D01*
X213581Y5701D01*
X214778Y5205D01*
X216063Y5036D01*
X217348Y5205D01*
X218545Y5701D01*
X219573Y6490D01*
X220362Y7518D01*
X220806Y8592D01*
X220807Y8592D01*
X221319D01*
X221320Y8592D01*
X221764Y7518D01*
X222553Y6490D01*
X223581Y5701D01*
X224778Y5205D01*
X226063Y5036D01*
X227348Y5205D01*
X228545Y5701D01*
X229573Y6490D01*
X230362Y7518D01*
X230806Y8592D01*
X230807Y8592D01*
X231319D01*
X231320Y8592D01*
X231764Y7518D01*
X232553Y6490D01*
X233581Y5701D01*
X234778Y5205D01*
X236063Y5036D01*
X237348Y5205D01*
X238545Y5701D01*
X239573Y6490D01*
X240362Y7518D01*
X240806Y8592D01*
X240807Y8592D01*
X241319D01*
X241320Y8592D01*
X241764Y7518D01*
X242553Y6490D01*
X243581Y5701D01*
X244778Y5205D01*
X246063Y5036D01*
X247348Y5205D01*
X248545Y5701D01*
X249573Y6490D01*
X250362Y7518D01*
X250858Y8715D01*
X251027Y10000D01*
X250858Y11285D01*
X250362Y12482D01*
X249573Y13510D01*
X248545Y14299D01*
X247348Y14795D01*
X246063Y14964D01*
X244778Y14795D01*
X243581Y14299D01*
X242553Y13510D01*
X241764Y12482D01*
X241320Y11408D01*
X241319Y11408D01*
X240807D01*
X240806Y11408D01*
X240362Y12482D01*
X239573Y13510D01*
X238545Y14299D01*
X237348Y14795D01*
X236063Y14964D01*
X235281Y14861D01*
X235048Y15334D01*
X249361Y29648D01*
X249790Y29391D01*
X249726Y29180D01*
X249566Y27559D01*
X249726Y25938D01*
X250199Y24380D01*
X250966Y22944D01*
X252000Y21685D01*
X253258Y20652D01*
X254695Y19884D01*
X256253Y19411D01*
X257874Y19251D01*
X259495Y19411D01*
X261053Y19884D01*
X262490Y20652D01*
X263280Y21300D01*
X263779Y21063D01*
Y19685D01*
X248031Y3937D01*
X10827D01*
X7516Y7248D01*
Y68914D01*
X8016Y68938D01*
X8016Y68937D01*
X8579Y67081D01*
X9493Y65372D01*
X10723Y63873D01*
X12222Y62643D01*
X13932Y61729D01*
X15787Y61166D01*
X17717Y60976D01*
X19646Y61166D01*
X21299Y61668D01*
X26720Y56247D01*
X27542Y55616D01*
X28500Y55220D01*
X29528Y55084D01*
X70745D01*
X71668Y54702D01*
X72835Y54548D01*
X74001Y54702D01*
X75088Y55152D01*
X76022Y55868D01*
X76738Y56802D01*
X77188Y57889D01*
X77342Y59055D01*
X77188Y60222D01*
X76738Y61309D01*
X76022Y62242D01*
X75088Y62958D01*
X74001Y63409D01*
X72835Y63562D01*
X71668Y63409D01*
X70745Y63026D01*
X51260D01*
X51099Y63500D01*
X51415Y63742D01*
X52132Y64676D01*
X52582Y65763D01*
X52735Y66929D01*
X52582Y68096D01*
X52199Y69019D01*
Y79724D01*
X52064Y80752D01*
X51667Y81710D01*
X51036Y82532D01*
X40209Y93359D01*
X39387Y93990D01*
X38429Y94387D01*
X37402Y94522D01*
X26754D01*
X25940Y96046D01*
X24710Y97545D01*
X23211Y98774D01*
X21501Y99689D01*
X20038Y100132D01*
Y100655D01*
X21501Y101099D01*
X23211Y102013D01*
X24710Y103243D01*
X25940Y104742D01*
X26854Y106451D01*
X27417Y108307D01*
X27607Y110236D01*
X27417Y112166D01*
X26854Y114021D01*
X25940Y115731D01*
X24710Y117230D01*
X23211Y118460D01*
X21688Y119274D01*
Y122694D01*
X21687Y122694D01*
Y129261D01*
X36763Y144336D01*
X88146D01*
X89070Y143954D01*
X90236Y143800D01*
X91403Y143954D01*
X92490Y144404D01*
X93376Y145084D01*
X93776Y145001D01*
D02*
G37*
G36*
X234679Y143970D02*
X235707Y143182D01*
X236904Y142686D01*
X238189Y142517D01*
X239474Y142686D01*
X240671Y143182D01*
X241699Y143970D01*
X241998Y144360D01*
X242498Y144190D01*
Y138714D01*
X241998Y138614D01*
X241642Y139474D01*
X241008Y140299D01*
X240182Y140933D01*
X239221Y141331D01*
X238689Y141401D01*
Y137480D01*
Y133559D01*
X239221Y133629D01*
X240182Y134028D01*
X241008Y134661D01*
X241642Y135487D01*
X241998Y136346D01*
X242498Y136247D01*
Y130771D01*
X241998Y130601D01*
X241699Y130990D01*
X240671Y131779D01*
X239474Y132275D01*
X238189Y132444D01*
X236904Y132275D01*
X235707Y131779D01*
X234679Y130990D01*
X233966Y130061D01*
X224847D01*
X224179Y129973D01*
X223557Y129716D01*
X223022Y129305D01*
X217860Y124143D01*
X217450Y123609D01*
X217192Y122986D01*
X217104Y122318D01*
Y116628D01*
X216535Y116393D01*
X215602Y115677D01*
X214886Y114743D01*
X214695Y114284D01*
X214195Y114383D01*
Y117265D01*
X215061Y118131D01*
X215472Y118665D01*
X215729Y119288D01*
X215817Y119956D01*
Y129490D01*
X216392Y130065D01*
X216392Y130065D01*
X231227Y144899D01*
X233966D01*
X234679Y143970D01*
D02*
G37*
G36*
X252000Y131921D02*
X253258Y130888D01*
X254695Y130120D01*
X256253Y129647D01*
X257874Y129488D01*
X259495Y129647D01*
X261053Y130120D01*
X262490Y130888D01*
X263280Y131536D01*
X263779Y131300D01*
Y119515D01*
X263280Y119308D01*
X250810Y131778D01*
Y132583D01*
X251309Y132762D01*
X252000Y131921D01*
D02*
G37*
G36*
X234679Y123970D02*
X235707Y123182D01*
X236904Y122686D01*
X238189Y122517D01*
X239474Y122686D01*
X240671Y123182D01*
X241699Y123970D01*
X241998Y124360D01*
X242498Y124190D01*
Y120164D01*
X238332Y115998D01*
X237922Y115464D01*
X237815Y115205D01*
X234865D01*
Y117411D01*
X234777Y118079D01*
X234681Y118310D01*
X234822Y119379D01*
X234668Y120546D01*
X234218Y121633D01*
X233502Y122566D01*
X232569Y123283D01*
X231482Y123733D01*
X230315Y123887D01*
X229149Y123733D01*
X228061Y123283D01*
X227128Y122566D01*
X226412Y121633D01*
X225961Y120546D01*
X225808Y119379D01*
X225961Y118213D01*
X226412Y117126D01*
X227128Y116192D01*
X227764Y115705D01*
X227594Y115205D01*
X227315D01*
Y105268D01*
X248365D01*
X253324Y100309D01*
Y99822D01*
X253000Y99457D01*
X241792D01*
X239030Y102219D01*
X238495Y102629D01*
X237873Y102887D01*
X237205Y102975D01*
X223560D01*
X219025Y107510D01*
X219205Y108037D01*
X219955Y108136D01*
X221042Y108587D01*
X221976Y109303D01*
X222692Y110236D01*
X223143Y111323D01*
X223296Y112490D01*
X223143Y113656D01*
X222692Y114743D01*
X222266Y115298D01*
Y121249D01*
X225916Y124899D01*
X233966D01*
X234679Y123970D01*
D02*
G37*
G36*
X8016Y108307D02*
X8579Y106451D01*
X9493Y104742D01*
X10723Y103243D01*
X12222Y102013D01*
X13932Y101099D01*
X15395Y100655D01*
Y100132D01*
X13932Y99689D01*
X12222Y98774D01*
X10723Y97545D01*
X9493Y96046D01*
X8579Y94336D01*
X8016Y92481D01*
X8016Y92479D01*
X7516Y92503D01*
X7516Y108284D01*
X8016Y108308D01*
X8016Y108307D01*
D02*
G37*
G36*
X98797Y129914D02*
Y98140D01*
X98191Y97675D01*
X97475Y96742D01*
X97024Y95655D01*
X96871Y94488D01*
X96970Y93731D01*
X90641Y87402D01*
X90180Y87593D01*
Y121962D01*
X98282Y130065D01*
X98297Y130084D01*
X98797Y129914D01*
D02*
G37*
G36*
X244466Y87738D02*
X231043Y74315D01*
X230581Y74506D01*
Y85976D01*
X230493Y86644D01*
X230235Y87267D01*
X229825Y87801D01*
X228569Y89058D01*
X228760Y89520D01*
X244466D01*
Y87738D01*
D02*
G37*
G36*
X8016Y88622D02*
X8579Y86766D01*
X9493Y85057D01*
X10723Y83558D01*
X12222Y82328D01*
X13932Y81414D01*
X15395Y80970D01*
Y80447D01*
X13932Y80003D01*
X12222Y79089D01*
X10723Y77859D01*
X9493Y76361D01*
X8579Y74651D01*
X8016Y72796D01*
X8016Y72794D01*
X7516Y72818D01*
Y88599D01*
X8016Y88623D01*
X8016Y88622D01*
D02*
G37*
G36*
X155886Y197411D02*
X156331Y196337D01*
X157120Y195309D01*
X158049Y194596D01*
Y120147D01*
X158137Y119479D01*
X158395Y118856D01*
X158805Y118322D01*
X185411Y91715D01*
Y81740D01*
X183024D01*
Y71803D01*
Y69510D01*
X180731D01*
X180063Y69422D01*
X179440Y69164D01*
X178916Y68762D01*
X178867Y68769D01*
X178416Y68937D01*
Y81816D01*
X178328Y82484D01*
X178070Y83106D01*
X177660Y83641D01*
X173841Y87460D01*
Y93789D01*
X174447Y94254D01*
X175163Y95187D01*
X175613Y96274D01*
X175767Y97441D01*
X175613Y98607D01*
X175163Y99695D01*
X174447Y100628D01*
X173513Y101344D01*
X172426Y101794D01*
X171260Y101948D01*
X170093Y101794D01*
X169006Y101344D01*
X168073Y100628D01*
X167357Y99695D01*
X166906Y98607D01*
X166753Y97441D01*
X166906Y96274D01*
X167357Y95187D01*
X168073Y94254D01*
X168679Y93789D01*
Y86391D01*
X168767Y85723D01*
X169025Y85100D01*
X169435Y84566D01*
X170814Y83186D01*
X170623Y82724D01*
X166989D01*
X153211Y96502D01*
Y194596D01*
X154140Y195309D01*
X154929Y196337D01*
X155373Y197411D01*
X155374Y197411D01*
X155886D01*
X155886Y197411D01*
D02*
G37*
G36*
X186063Y193855D02*
X186845Y193958D01*
X187078Y193484D01*
X184198Y190605D01*
X183788Y190070D01*
X183530Y189448D01*
X183442Y188779D01*
Y127953D01*
X183530Y127285D01*
X183788Y126662D01*
X184198Y126128D01*
X217777Y92549D01*
X217633Y92257D01*
X217514Y92105D01*
X216353Y91952D01*
X215266Y91502D01*
X214510Y90921D01*
X214261Y90818D01*
X213726Y90408D01*
X213316Y89873D01*
X213058Y89251D01*
X212970Y88583D01*
X213056Y87929D01*
X213013Y87598D01*
X213166Y86432D01*
X213616Y85345D01*
X214333Y84412D01*
X215266Y83695D01*
X216353Y83245D01*
X217373Y83111D01*
X218282Y82202D01*
X218090Y81740D01*
X217472D01*
Y71479D01*
X215551D01*
X214883Y71391D01*
X214261Y71133D01*
X213726Y70723D01*
X211757Y68754D01*
X211347Y68220D01*
X211177Y67809D01*
X210677Y67908D01*
Y71803D01*
Y81740D01*
X208290D01*
Y97441D01*
X208202Y98109D01*
X207944Y98731D01*
X207534Y99266D01*
X180731Y126069D01*
Y189836D01*
X184902Y194008D01*
X186063Y193855D01*
D02*
G37*
G36*
X177030Y193436D02*
X176324Y192731D01*
X175914Y192196D01*
X175656Y191574D01*
X175568Y190905D01*
Y125000D01*
X175656Y124332D01*
X175914Y123709D01*
X176324Y123175D01*
X203128Y96372D01*
Y81740D01*
X200740D01*
Y71803D01*
Y68976D01*
X200358Y68818D01*
X199823Y68408D01*
X197963Y66547D01*
X197463Y66754D01*
Y92520D01*
X197375Y93188D01*
X197117Y93810D01*
X196707Y94345D01*
X174825Y116227D01*
Y193898D01*
X176838D01*
X177030Y193436D01*
D02*
G37*
G36*
X138923Y66088D02*
X139457Y65678D01*
X140080Y65420D01*
X140748Y65332D01*
X165307D01*
Y57039D01*
X175244D01*
Y60411D01*
X175835D01*
X176503Y60499D01*
X177125Y60757D01*
X177650Y61159D01*
X177698Y61153D01*
X178150Y60984D01*
Y55731D01*
X104416D01*
X94226Y65920D01*
X94509Y66344D01*
X95108Y66096D01*
X96274Y65943D01*
X97441Y66096D01*
X98528Y66546D01*
X99461Y67263D01*
X99926Y67869D01*
X137143D01*
X138923Y66088D01*
D02*
G37*
G36*
X44257Y78080D02*
Y69019D01*
X43875Y68096D01*
X43721Y66929D01*
X43875Y65763D01*
X44325Y64676D01*
X45041Y63742D01*
X45357Y63500D01*
X45197Y63026D01*
X31172D01*
X26915Y67283D01*
X27417Y68937D01*
X27607Y70866D01*
X27417Y72796D01*
X26854Y74651D01*
X25940Y76361D01*
X24710Y77859D01*
X23211Y79089D01*
X21501Y80003D01*
X20038Y80447D01*
Y80970D01*
X21501Y81414D01*
X23211Y82328D01*
X24710Y83558D01*
X25940Y85057D01*
X26754Y86580D01*
X35757D01*
X44257Y78080D01*
D02*
G37*
G36*
X259230Y116057D02*
Y66976D01*
X249953D01*
Y64589D01*
X240158D01*
X239489Y64501D01*
X238867Y64243D01*
X238332Y63833D01*
X237342Y62843D01*
X236880Y63034D01*
Y66891D01*
X257731Y87742D01*
X258141Y88276D01*
X258399Y88899D01*
X258487Y89567D01*
Y101378D01*
X258399Y102046D01*
X258141Y102668D01*
X257731Y103203D01*
X253000Y107934D01*
Y115205D01*
X245493D01*
X245301Y115667D01*
X246904Y117269D01*
X247314Y117804D01*
X247572Y118426D01*
X247660Y119095D01*
Y126974D01*
X248122Y127165D01*
X259230Y116057D01*
D02*
G37*
G36*
X192961Y56055D02*
X193285Y55690D01*
Y50810D01*
X182706D01*
X182536Y51310D01*
X182556Y51324D01*
X182966Y51859D01*
X183224Y52482D01*
X183312Y53150D01*
Y56055D01*
X192961D01*
D02*
G37*
G36*
X217472Y63929D02*
Y56055D01*
X227409D01*
Y60945D01*
X227792Y61103D01*
X228068Y61316D01*
X228569Y61069D01*
Y55520D01*
X216626Y43578D01*
X216164Y43769D01*
Y65860D01*
X216620Y66316D01*
X217472D01*
Y63929D01*
D02*
G37*
G36*
X200740Y61371D02*
Y56055D01*
X204112D01*
Y53849D01*
X203506Y53384D01*
X202790Y52450D01*
X202339Y51363D01*
X202186Y50197D01*
X202339Y49030D01*
X202790Y47943D01*
X203506Y47010D01*
X204439Y46294D01*
X205526Y45843D01*
X206693Y45690D01*
X207859Y45843D01*
X208946Y46294D01*
X209880Y47010D01*
X210502Y47820D01*
X211001Y47671D01*
Y42408D01*
X205624Y37030D01*
X108353D01*
X100216Y45166D01*
X100354Y45540D01*
X100442Y45647D01*
X195866D01*
X196534Y45735D01*
X197157Y45993D01*
X197691Y46403D01*
X198101Y46938D01*
X198359Y47560D01*
X198447Y48228D01*
Y59731D01*
X200278Y61562D01*
X200740Y61371D01*
D02*
G37*
G36*
X263779Y56890D02*
Y34055D01*
X263280Y33819D01*
X262490Y34467D01*
X261053Y35234D01*
X259495Y35707D01*
X257874Y35867D01*
X256253Y35707D01*
X256043Y35643D01*
X255785Y36072D01*
X256746Y37033D01*
X257157Y37568D01*
X257414Y38190D01*
X257502Y38858D01*
Y41291D01*
X259890D01*
Y49165D01*
Y53707D01*
X263280Y57097D01*
X263779Y56890D01*
D02*
G37*
G36*
X242079Y59102D02*
Y49165D01*
X244466D01*
Y47156D01*
X244094Y46830D01*
X242928Y46676D01*
X241841Y46226D01*
X240908Y45510D01*
X240191Y44576D01*
X239741Y43489D01*
X239587Y42323D01*
X239741Y41156D01*
X240191Y40069D01*
X240908Y39136D01*
X241841Y38420D01*
X242928Y37969D01*
X244094Y37816D01*
X245261Y37969D01*
X246348Y38420D01*
X247281Y39136D01*
X247998Y40069D01*
X248448Y41156D01*
X248602Y42323D01*
X248502Y43080D01*
X248872Y43450D01*
X249283Y43985D01*
X249453Y44396D01*
X249953Y44296D01*
Y41291D01*
X252340D01*
Y39927D01*
X227224Y14811D01*
X226063Y14964D01*
X224778Y14795D01*
X223581Y14299D01*
X222553Y13510D01*
X221764Y12482D01*
X221320Y11408D01*
X221319Y11408D01*
X220807D01*
X220806Y11408D01*
X220362Y12482D01*
X219573Y13510D01*
X218644Y14222D01*
Y28453D01*
X239274Y49083D01*
X239684Y49617D01*
X239942Y50240D01*
X240030Y50908D01*
Y58230D01*
X241227Y59427D01*
X241713D01*
X242079Y59102D01*
D02*
G37*
G36*
X203482Y22480D02*
Y14222D01*
X202553Y13510D01*
X201764Y12482D01*
X201484Y11806D01*
X200984Y11905D01*
Y14921D01*
X198644D01*
Y18296D01*
X203020Y22671D01*
X203482Y22480D01*
D02*
G37*
G36*
X213482Y27092D02*
Y14222D01*
X212553Y13510D01*
X211764Y12482D01*
X211320Y11408D01*
X211319Y11408D01*
X210807D01*
X210806Y11408D01*
X210362Y12482D01*
X209573Y13510D01*
X208644Y14222D01*
Y22907D01*
X213020Y27283D01*
X213482Y27092D01*
D02*
G37*
%LPC*%
G36*
X101130Y202740D02*
Y199319D01*
X104551D01*
X104481Y199851D01*
X104083Y200812D01*
X103449Y201638D01*
X102623Y202272D01*
X101662Y202670D01*
X101130Y202740D01*
D02*
G37*
G36*
X100130D02*
X99598Y202670D01*
X98637Y202272D01*
X97811Y201638D01*
X97177Y200812D01*
X96779Y199851D01*
X96709Y199319D01*
X100130D01*
Y202740D01*
D02*
G37*
G36*
X104551Y198319D02*
X101130D01*
Y194898D01*
X101662Y194968D01*
X102623Y195366D01*
X103449Y196000D01*
X104083Y196826D01*
X104481Y197787D01*
X104551Y198319D01*
D02*
G37*
G36*
X100130D02*
X96709D01*
X96779Y197787D01*
X97177Y196826D01*
X97811Y196000D01*
X98637Y195366D01*
X99598Y194968D01*
X100130Y194898D01*
Y198319D01*
D02*
G37*
G36*
X95551Y203740D02*
X85709D01*
Y193898D01*
X95551D01*
Y203740D01*
D02*
G37*
G36*
X54634Y185551D02*
Y182587D01*
X57598D01*
X57544Y183000D01*
X57191Y183852D01*
X56630Y184583D01*
X55899Y185144D01*
X55048Y185496D01*
X54634Y185551D01*
D02*
G37*
G36*
X53634D02*
X53220Y185496D01*
X52369Y185144D01*
X51638Y184583D01*
X51077Y183852D01*
X50724Y183000D01*
X50669Y182587D01*
X53634D01*
Y185551D01*
D02*
G37*
G36*
X57598Y181587D02*
X54634D01*
Y178622D01*
X55048Y178677D01*
X55899Y179029D01*
X56630Y179590D01*
X57191Y180322D01*
X57544Y181173D01*
X57598Y181587D01*
D02*
G37*
G36*
X53634D02*
X50669D01*
X50724Y181173D01*
X51077Y180322D01*
X51638Y179590D01*
X52369Y179029D01*
X53220Y178677D01*
X53634Y178622D01*
Y181587D01*
D02*
G37*
G36*
X125984Y128523D02*
X124818Y128369D01*
X123731Y127919D01*
X122797Y127203D01*
X122081Y126269D01*
X121631Y125182D01*
X121477Y124016D01*
X121631Y122849D01*
X122081Y121762D01*
X122797Y120829D01*
X123403Y120364D01*
Y92520D01*
X123491Y91852D01*
X123749Y91229D01*
X124159Y90695D01*
X124694Y90284D01*
X125316Y90026D01*
X125984Y89939D01*
X138080D01*
X138545Y89333D01*
X139479Y88617D01*
X140566Y88166D01*
X141732Y88013D01*
X142899Y88166D01*
X143986Y88617D01*
X144919Y89333D01*
X145635Y90266D01*
X146086Y91353D01*
X146239Y92520D01*
X146086Y93686D01*
X145635Y94773D01*
X144919Y95707D01*
X143986Y96423D01*
X142899Y96873D01*
X141732Y97027D01*
X140566Y96873D01*
X139479Y96423D01*
X138545Y95707D01*
X138080Y95101D01*
X128565D01*
Y120364D01*
X129171Y120829D01*
X129887Y121762D01*
X130338Y122849D01*
X130491Y124016D01*
X130338Y125182D01*
X129887Y126269D01*
X129171Y127203D01*
X128238Y127919D01*
X127151Y128369D01*
X125984Y128523D01*
D02*
G37*
G36*
X49713Y25118D02*
Y22153D01*
X52677D01*
X52622Y22567D01*
X52270Y23419D01*
X51709Y24150D01*
X50978Y24711D01*
X50126Y25063D01*
X49713Y25118D01*
D02*
G37*
G36*
X48713D02*
X48299Y25063D01*
X47447Y24711D01*
X46716Y24150D01*
X46155Y23419D01*
X45803Y22567D01*
X45748Y22153D01*
X48713D01*
Y25118D01*
D02*
G37*
G36*
X52677Y21154D02*
X49713D01*
Y18189D01*
X50126Y18244D01*
X50978Y18596D01*
X51709Y19157D01*
X52270Y19888D01*
X52622Y20740D01*
X52677Y21154D01*
D02*
G37*
G36*
X48713D02*
X45748D01*
X45803Y20740D01*
X46155Y19888D01*
X46716Y19157D01*
X47447Y18596D01*
X48299Y18244D01*
X48713Y18189D01*
Y21154D01*
D02*
G37*
G36*
X98532Y24616D02*
Y16248D01*
X106899D01*
X106777Y17488D01*
X106270Y19160D01*
X105446Y20702D01*
X104337Y22053D01*
X102986Y23162D01*
X101444Y23986D01*
X99771Y24494D01*
X98532Y24616D01*
D02*
G37*
G36*
X97531D02*
X96292Y24494D01*
X94619Y23986D01*
X93077Y23162D01*
X91726Y22053D01*
X90617Y20702D01*
X89793Y19160D01*
X89286Y17488D01*
X89164Y16248D01*
X97531D01*
Y24616D01*
D02*
G37*
G36*
X145984Y14964D02*
X144700Y14795D01*
X143502Y14299D01*
X142474Y13510D01*
X141685Y12482D01*
X141241Y11408D01*
X141240Y11408D01*
X140728D01*
X140728Y11408D01*
X140283Y12482D01*
X139494Y13510D01*
X138466Y14299D01*
X137269Y14795D01*
X135984Y14964D01*
X134699Y14795D01*
X133502Y14299D01*
X132474Y13510D01*
X131685Y12482D01*
X131405Y11806D01*
X130905Y11905D01*
Y14921D01*
X121063D01*
Y5079D01*
X130905D01*
Y8095D01*
X131405Y8194D01*
X131685Y7518D01*
X132474Y6490D01*
X133502Y5701D01*
X134699Y5205D01*
X135984Y5036D01*
X137269Y5205D01*
X138466Y5701D01*
X139494Y6490D01*
X140283Y7518D01*
X140728Y8592D01*
X140728Y8592D01*
X141240D01*
X141241Y8592D01*
X141685Y7518D01*
X142474Y6490D01*
X143502Y5701D01*
X144700Y5205D01*
X145984Y5036D01*
X147269Y5205D01*
X148466Y5701D01*
X149494Y6490D01*
X150283Y7518D01*
X150779Y8715D01*
X150948Y10000D01*
X150779Y11285D01*
X150283Y12482D01*
X149494Y13510D01*
X148466Y14299D01*
X147269Y14795D01*
X145984Y14964D01*
D02*
G37*
G36*
X166484Y13921D02*
Y10500D01*
X169905D01*
X169835Y11032D01*
X169437Y11993D01*
X168803Y12819D01*
X167978Y13453D01*
X167016Y13851D01*
X166484Y13921D01*
D02*
G37*
G36*
X165484D02*
X164952Y13851D01*
X163991Y13453D01*
X163165Y12819D01*
X162531Y11993D01*
X162133Y11032D01*
X162063Y10500D01*
X165484D01*
Y13921D01*
D02*
G37*
G36*
X156484D02*
Y10500D01*
X159905D01*
X159835Y11032D01*
X159437Y11993D01*
X158803Y12819D01*
X157978Y13453D01*
X157016Y13851D01*
X156484Y13921D01*
D02*
G37*
G36*
X155484D02*
X154952Y13851D01*
X153991Y13453D01*
X153165Y12819D01*
X152532Y11993D01*
X152133Y11032D01*
X152063Y10500D01*
X155484D01*
Y13921D01*
D02*
G37*
G36*
X106899Y15248D02*
X98532D01*
Y6880D01*
X99771Y7002D01*
X101444Y7510D01*
X102986Y8334D01*
X104337Y9443D01*
X105446Y10794D01*
X106270Y12336D01*
X106777Y14008D01*
X106899Y15248D01*
D02*
G37*
G36*
X97531D02*
X89164D01*
X89286Y14008D01*
X89793Y12336D01*
X90617Y10794D01*
X91726Y9443D01*
X93077Y8334D01*
X94619Y7510D01*
X96292Y7002D01*
X97531Y6880D01*
Y15248D01*
D02*
G37*
G36*
X169905Y9500D02*
X166484D01*
Y6079D01*
X167016Y6149D01*
X167978Y6547D01*
X168803Y7181D01*
X169437Y8007D01*
X169835Y8968D01*
X169905Y9500D01*
D02*
G37*
G36*
X165484D02*
X162063D01*
X162133Y8968D01*
X162531Y8007D01*
X163165Y7181D01*
X163991Y6547D01*
X164952Y6149D01*
X165484Y6079D01*
Y9500D01*
D02*
G37*
G36*
X159905D02*
X156484D01*
Y6079D01*
X157016Y6149D01*
X157978Y6547D01*
X158803Y7181D01*
X159437Y8007D01*
X159835Y8968D01*
X159905Y9500D01*
D02*
G37*
G36*
X155484D02*
X152063D01*
X152133Y8968D01*
X152532Y8007D01*
X153165Y7181D01*
X153991Y6547D01*
X154952Y6149D01*
X155484Y6079D01*
Y9500D01*
D02*
G37*
G36*
X78347Y25638D02*
X76417Y25448D01*
X74562Y24885D01*
X72852Y23971D01*
X71353Y22741D01*
X70123Y21243D01*
X69209Y19533D01*
X68646Y17677D01*
X68456Y15748D01*
X68646Y13819D01*
X69209Y11963D01*
X70123Y10253D01*
X71353Y8755D01*
X72852Y7525D01*
X74562Y6611D01*
X76417Y6048D01*
X78347Y5858D01*
X80276Y6048D01*
X82131Y6611D01*
X83841Y7525D01*
X85340Y8755D01*
X86570Y10253D01*
X87484Y11963D01*
X88047Y13819D01*
X88237Y15748D01*
X88047Y17677D01*
X87484Y19533D01*
X86570Y21243D01*
X85340Y22741D01*
X83841Y23971D01*
X82131Y24885D01*
X80276Y25448D01*
X78347Y25638D01*
D02*
G37*
G36*
X175984Y14964D02*
X174699Y14795D01*
X173502Y14299D01*
X172474Y13510D01*
X171686Y12482D01*
X171190Y11285D01*
X171020Y10000D01*
X171190Y8715D01*
X171686Y7518D01*
X172474Y6490D01*
X173502Y5701D01*
X174699Y5205D01*
X175984Y5036D01*
X177269Y5205D01*
X178466Y5701D01*
X179494Y6490D01*
X180283Y7518D01*
X180779Y8715D01*
X180948Y10000D01*
X180779Y11285D01*
X180283Y12482D01*
X179494Y13510D01*
X178466Y14299D01*
X177269Y14795D01*
X175984Y14964D01*
D02*
G37*
G36*
X237689Y141401D02*
X237157Y141331D01*
X236196Y140933D01*
X235370Y140299D01*
X234736Y139474D01*
X234338Y138512D01*
X234268Y137980D01*
X237689D01*
Y141401D01*
D02*
G37*
G36*
Y136980D02*
X234268D01*
X234338Y136448D01*
X234736Y135487D01*
X235370Y134661D01*
X236196Y134028D01*
X237157Y133629D01*
X237689Y133559D01*
Y136980D01*
D02*
G37*
G36*
X177665Y44803D02*
Y41839D01*
X180630D01*
X180575Y42252D01*
X180223Y43104D01*
X179662Y43835D01*
X178930Y44396D01*
X178079Y44748D01*
X177665Y44803D01*
D02*
G37*
G36*
X176665D02*
X176252Y44748D01*
X175400Y44396D01*
X174669Y43835D01*
X174108Y43104D01*
X173755Y42252D01*
X173701Y41839D01*
X176665D01*
Y44803D01*
D02*
G37*
G36*
X114673D02*
Y41839D01*
X117638D01*
X117583Y42252D01*
X117230Y43104D01*
X116669Y43835D01*
X115938Y44396D01*
X115087Y44748D01*
X114673Y44803D01*
D02*
G37*
G36*
X113673D02*
X113259Y44748D01*
X112408Y44396D01*
X111677Y43835D01*
X111116Y43104D01*
X110763Y42252D01*
X110709Y41839D01*
X113673D01*
Y44803D01*
D02*
G37*
G36*
X180630Y40839D02*
X177665D01*
Y37874D01*
X178079Y37929D01*
X178930Y38281D01*
X179662Y38842D01*
X180223Y39573D01*
X180575Y40425D01*
X180630Y40839D01*
D02*
G37*
G36*
X176665D02*
X173701D01*
X173755Y40425D01*
X174108Y39573D01*
X174669Y38842D01*
X175400Y38281D01*
X176252Y37929D01*
X176665Y37874D01*
Y40839D01*
D02*
G37*
G36*
X117638D02*
X114673D01*
Y37874D01*
X115087Y37929D01*
X115938Y38281D01*
X116669Y38842D01*
X117230Y39573D01*
X117583Y40425D01*
X117638Y40839D01*
D02*
G37*
G36*
X113673D02*
X110709D01*
X110763Y40425D01*
X111116Y39573D01*
X111677Y38842D01*
X112408Y38281D01*
X113259Y37929D01*
X113673Y37874D01*
Y40839D01*
D02*
G37*
%LPD*%
D35*
X238189Y167480D02*
X248228Y157441D01*
Y130709D02*
Y157441D01*
Y130709D02*
X261811Y117126D01*
Y59279D02*
Y117126D01*
X256666Y54134D02*
X261811Y59279D01*
X244094Y42323D02*
X247047Y45276D01*
Y54134D01*
X216063Y10000D02*
Y29522D01*
X237449Y50908D01*
Y59299D01*
X240158Y62008D01*
X254921D01*
X226063Y10000D02*
X254921Y38858D01*
Y46260D01*
Y54134D02*
X256666D01*
X232283Y110236D02*
Y117411D01*
X230315Y119379D02*
X232283Y117411D01*
X160630Y120147D02*
X187992Y92785D01*
X160630Y120147D02*
Y198819D01*
X170276Y62008D02*
X171260Y62992D01*
X175835D01*
Y81816D01*
X171260Y86391D02*
X175835Y81816D01*
X171260Y86391D02*
Y97441D01*
X213236Y130559D02*
X214567Y131890D01*
X213236Y119956D02*
Y130559D01*
X211614Y118334D02*
X213236Y119956D01*
X211614Y111271D02*
Y118334D01*
Y111271D02*
X222491Y100394D01*
X189961Y128470D02*
X222958Y95472D01*
X186024Y127953D02*
X228000Y85976D01*
X189961Y128470D02*
Y182717D01*
X186024Y127953D02*
Y188779D01*
X222491Y100394D02*
X237205D01*
X240158Y97441D01*
Y94488D02*
Y97441D01*
X189961Y182717D02*
X206063Y198819D01*
X222958Y95472D02*
X231299D01*
X232283Y94488D01*
X219685Y122318D02*
X224847Y127480D01*
X219685Y113386D02*
Y122318D01*
X224847Y127480D02*
X238189D01*
X247047Y93504D02*
X248031Y94488D01*
X247047Y86669D02*
Y93504D01*
X231150Y70771D02*
X247047Y86669D01*
X218789Y112490D02*
X219685Y113386D01*
X249016Y108268D02*
Y110236D01*
X206063Y10000D02*
Y23976D01*
X234299Y52213D01*
Y67961D01*
X228000Y64838D02*
Y85976D01*
X226501Y63339D02*
X228000Y64838D01*
X222441Y63339D02*
X226501D01*
X231150Y54451D02*
Y70771D01*
X234299Y67961D02*
X255906Y89567D01*
Y101378D01*
X249016Y108268D02*
X255906Y101378D01*
X248031Y110236D02*
X249016D01*
X196063Y10000D02*
Y19365D01*
X231150Y54451D01*
X238189Y157480D02*
X245079Y150591D01*
Y119095D02*
Y150591D01*
X240158Y114173D02*
X245079Y119095D01*
X240158Y110236D02*
Y114173D01*
X214567Y131890D02*
X230157Y147480D01*
X207677Y131890D02*
X214567D01*
X230157Y147480D02*
X238189D01*
X238189Y157480D02*
X238189Y157480D01*
X207677Y157480D02*
X238189D01*
X207677Y179134D02*
X216535D01*
X228189Y167480D01*
X238189D01*
X206693Y50197D02*
Y60039D01*
X186024Y188779D02*
X196063Y198819D01*
X178150Y190905D02*
X186063Y198819D01*
X178150Y125000D02*
Y190905D01*
Y125000D02*
X205709Y97441D01*
X187992Y63339D02*
X192052D01*
X172244Y195000D02*
X176063Y198819D01*
X172244Y115157D02*
Y195000D01*
Y115157D02*
X194882Y92520D01*
X96319Y152432D02*
Y160571D01*
X95472Y161417D02*
X96319Y160571D01*
X95472Y161417D02*
Y168307D01*
X187992Y76772D02*
Y92785D01*
X215551Y88583D02*
X222441Y81693D01*
X180731Y66929D02*
X186024D01*
X180731Y53150D02*
Y66929D01*
X103347Y53150D02*
X180731D01*
X205709Y61024D02*
X206693Y60039D01*
X213583Y41339D02*
Y66929D01*
X206693Y34449D02*
X213583Y41339D01*
X107283Y34449D02*
X206693D01*
X222441Y76772D02*
Y81693D01*
X96319Y152432D02*
X96457Y152294D01*
Y131890D02*
Y152294D01*
X87598Y123031D02*
X96457Y131890D01*
X87598Y85163D02*
Y123031D01*
X87087Y84651D02*
X87598Y85163D01*
X87087Y61535D02*
Y84651D01*
Y61535D02*
X100394Y48228D01*
X195866D01*
Y60800D01*
X201649Y66583D01*
X203394D01*
X205709Y68898D01*
X83661Y58071D02*
Y62992D01*
X71850Y74803D02*
X83661Y62992D01*
X67913Y74803D02*
X71850D01*
X83661Y58071D02*
X107283Y34449D01*
X205709Y76772D02*
Y97441D01*
X222441Y61024D02*
Y63339D01*
X215551Y68898D02*
X222441D01*
X213583Y66929D02*
X215551Y68898D01*
X194882Y66168D02*
Y92520D01*
X192052Y63339D02*
X194882Y66168D01*
X187992Y61024D02*
Y63339D01*
X150630Y95433D02*
X170276Y75787D01*
X150630Y95433D02*
Y198819D01*
X90236Y83347D02*
X101378Y94488D01*
X90236Y66260D02*
Y83347D01*
Y66260D02*
X103347Y53150D01*
X186024Y66929D02*
X187992Y68898D01*
X140748Y67913D02*
X170276D01*
X138212Y70450D02*
X140748Y67913D01*
X96274Y70450D02*
X138212D01*
X197835Y128937D02*
Y137795D01*
Y128937D02*
X202756Y124016D01*
X207677D01*
X201772Y149606D02*
X207677D01*
X198819Y152559D02*
X201772Y149606D01*
X198819Y173228D02*
X200787Y171260D01*
X207677D01*
X125984Y92520D02*
Y124016D01*
Y92520D02*
X141732D01*
X101378Y94488D02*
Y154528D01*
D36*
X218012Y110728D02*
Y112697D01*
X17717Y108268D02*
Y117126D01*
D37*
X37402Y90551D02*
X48228Y79724D01*
Y66929D02*
Y79724D01*
X17717Y90551D02*
X37402D01*
X17717Y70866D02*
X29528Y59055D01*
X72835D01*
X17717Y110236D02*
Y122694D01*
X17717Y122694D02*
Y130905D01*
X35118Y148307D02*
X90236D01*
X17717Y130905D02*
X35118Y148307D01*
D38*
X17717Y122694D02*
X17717Y122694D01*
D42*
X176063Y198819D02*
D03*
X90630D02*
D03*
X196063Y10000D02*
D03*
X125984D02*
D03*
D43*
X186063Y198819D02*
D03*
X196063D02*
D03*
X206063D02*
D03*
X216063D02*
D03*
X226063D02*
D03*
X236063D02*
D03*
X246063D02*
D03*
X100630D02*
D03*
X110630D02*
D03*
X120630D02*
D03*
X130630D02*
D03*
X140630D02*
D03*
X150630D02*
D03*
X160630D02*
D03*
X206063Y10000D02*
D03*
X216063D02*
D03*
X226063D02*
D03*
X236063D02*
D03*
X246063D02*
D03*
X135984D02*
D03*
X145984D02*
D03*
X155984D02*
D03*
X165984D02*
D03*
X175984D02*
D03*
X238189Y127480D02*
D03*
Y137480D02*
D03*
Y147480D02*
D03*
Y157480D02*
D03*
D44*
Y167480D02*
D03*
D45*
X17717Y70866D02*
D03*
Y90551D02*
D03*
Y110236D02*
D03*
X98032Y15748D02*
D03*
X78347D02*
D03*
D46*
X257874Y27559D02*
D03*
Y137795D02*
D03*
X59055Y198819D02*
D03*
D47*
X244094Y42323D02*
D03*
X230315Y119379D02*
D03*
X171260Y97441D02*
D03*
X206693Y50197D02*
D03*
X218789Y112490D02*
D03*
X54134Y182087D02*
D03*
X95472Y168307D02*
D03*
X217520Y87598D02*
D03*
X197835Y137795D02*
D03*
X49213Y21654D02*
D03*
X197835Y152559D02*
D03*
Y173228D02*
D03*
X177165Y41339D02*
D03*
X125984Y124016D02*
D03*
X141732Y92520D02*
D03*
X114173Y41339D02*
D03*
X96274Y70450D02*
D03*
X67913Y74803D02*
D03*
X48228Y66929D02*
D03*
X101378Y94488D02*
D03*
Y154528D02*
D03*
X72835Y59055D02*
D03*
X90236Y148307D02*
D03*
D48*
X248031Y94488D02*
D03*
X240158D02*
D03*
X232283D02*
D03*
Y110236D02*
D03*
X240158D02*
D03*
X248031D02*
D03*
D49*
X254921Y62008D02*
D03*
Y54134D02*
D03*
Y46260D02*
D03*
X247047Y54134D02*
D03*
X207677Y124016D02*
D03*
Y131890D02*
D03*
X170276Y62008D02*
D03*
Y69882D02*
D03*
Y77756D02*
D03*
X222441Y61024D02*
D03*
Y68898D02*
D03*
Y76772D02*
D03*
X205709Y76772D02*
D03*
Y68898D02*
D03*
Y61024D02*
D03*
X187992Y61024D02*
D03*
Y68898D02*
D03*
Y76772D02*
D03*
X207677Y171260D02*
D03*
Y179134D02*
D03*
Y149606D02*
D03*
Y157480D02*
D03*
M02*
