M48
;Layer_Color=9474304
;FILE_FORMAT=4:4
METRIC,LZ
;TYPE=PLATED
T1F00S00C0.7112
T2F00S00C0.9000
T3F00S00C1.5000
T4F00S00C3.0000
%
T01
X00125Y00055
X001225Y0017
X001725Y0019
X00185Y0015
X00244537Y00178942
X002575Y0024
X0032Y00315
X002575Y003925
X002292Y003767
X002425Y004275
X001375Y004625
X0029Y00105
X0045
X00525Y001275
X0062Y001075
X005525Y002225
X00555724Y00285724
X00585Y00303224
X005025Y0035
Y003875
Y0044
X00435Y002475
X0036Y00235
T02
X003708Y000254
X003962
X004216
X00447
X00498
X005234
X005488
X005742
X005996
X00625
X003454
X0032
X00605Y003238
Y003492
Y003746
Y004
Y004254
X005996Y00505
X005742
X005488
X005234
X00498
X004726
X004472
X00408
X003826
X00625
X003572
X003318
X003064
X00281
X002556
X002302
T03
X00199Y0004
X00249
X00045Y0018
Y0023
Y0028
T04
X00655Y0007
Y0035
X0015Y00505
M30
