G04*
G04 #@! TF.GenerationSoftware,Altium Limited,Altium Designer,18.0.7 (293)*
G04*
G04 Layer_Color=65535*
%FSLAX25Y25*%
%MOIN*%
G70*
G01*
G75*
%ADD10C,0.00787*%
%ADD11C,0.01000*%
%ADD12C,0.00500*%
G36*
X215958Y48858D02*
X216024D01*
X216078D01*
X216122Y48847D01*
X216144D01*
X216155D01*
X216319Y48803D01*
X216483Y48760D01*
X216614Y48694D01*
X216734Y48639D01*
X216833Y48574D01*
X216898Y48530D01*
X216953Y48497D01*
X216964Y48486D01*
X217084Y48377D01*
X217193Y48279D01*
X217281Y48169D01*
X217368Y48071D01*
X217434Y47984D01*
X217478Y47918D01*
X217510Y47874D01*
X217521Y47863D01*
X217674Y47612D01*
X217751Y47492D01*
X217806Y47393D01*
X217849Y47306D01*
X217882Y47240D01*
X217904Y47197D01*
X217915Y47186D01*
X218079Y46880D01*
X218155Y46727D01*
X218232Y46595D01*
X218297Y46475D01*
X218352Y46377D01*
X218396Y46322D01*
X218407Y46311D01*
Y46300D01*
X218516Y46136D01*
X218636Y45983D01*
X218745Y45863D01*
X218855Y45754D01*
X218942Y45677D01*
X219019Y45612D01*
X219062Y45579D01*
X219084Y45568D01*
Y48443D01*
X220287Y48235D01*
Y43393D01*
X219970Y43459D01*
X219685Y43535D01*
X219434Y43633D01*
X219215Y43732D01*
X219117Y43775D01*
X219041Y43819D01*
X218964Y43863D01*
X218909Y43896D01*
X218866Y43929D01*
X218833Y43950D01*
X218811Y43972D01*
X218800D01*
X218691Y44060D01*
X218571Y44169D01*
X218363Y44388D01*
X218177Y44628D01*
X218002Y44868D01*
X217871Y45087D01*
X217816Y45175D01*
X217762Y45262D01*
X217729Y45328D01*
X217696Y45382D01*
X217685Y45415D01*
X217674Y45426D01*
X217521Y45743D01*
X217390Y46016D01*
X217270Y46257D01*
X217172Y46453D01*
X217095Y46606D01*
X217029Y46716D01*
X217008Y46749D01*
X216997Y46781D01*
X216986Y46803D01*
X216876Y46967D01*
X216778Y47087D01*
X216669Y47186D01*
X216570Y47262D01*
X216483Y47306D01*
X216417Y47328D01*
X216374Y47350D01*
X216363D01*
X216253Y47361D01*
X216144Y47350D01*
X216057Y47328D01*
X215980Y47295D01*
X215926Y47262D01*
X215871Y47229D01*
X215849Y47208D01*
X215838Y47197D01*
X215773Y47109D01*
X215718Y47011D01*
X215674Y46902D01*
X215652Y46792D01*
X215630Y46694D01*
X215619Y46617D01*
Y46541D01*
X215630Y46366D01*
X215663Y46202D01*
X215696Y46060D01*
X215740Y45929D01*
X215783Y45820D01*
X215827Y45743D01*
X215849Y45699D01*
X215860Y45677D01*
X215947Y45535D01*
X216035Y45415D01*
X216133Y45295D01*
X216210Y45196D01*
X216286Y45109D01*
X216341Y45054D01*
X216385Y45011D01*
X216395Y45000D01*
X215401Y44311D01*
X215292Y44453D01*
X215171Y44617D01*
X215073Y44792D01*
X214975Y44967D01*
X214898Y45120D01*
X214843Y45240D01*
X214822Y45295D01*
X214800Y45328D01*
X214789Y45349D01*
Y45360D01*
X214680Y45634D01*
X214603Y45918D01*
X214537Y46191D01*
X214505Y46442D01*
X214483Y46552D01*
X214472Y46661D01*
X214461Y46759D01*
Y46836D01*
X214450Y46902D01*
Y46989D01*
X214461Y47175D01*
X214472Y47350D01*
X214494Y47514D01*
X214527Y47667D01*
X214570Y47798D01*
X214603Y47918D01*
X214647Y48038D01*
X214690Y48137D01*
X214734Y48224D01*
X214778Y48290D01*
X214822Y48355D01*
X214854Y48410D01*
X214887Y48443D01*
X214909Y48475D01*
X214920Y48497D01*
X214931D01*
X215018Y48585D01*
X215117Y48650D01*
X215215Y48705D01*
X215313Y48760D01*
X215521Y48814D01*
X215718Y48858D01*
X215893Y48869D01*
X215958Y48858D01*
D02*
G37*
G36*
X220287Y42398D02*
Y41305D01*
X218855Y41557D01*
Y42661D01*
X220287Y42398D01*
D02*
G37*
G36*
X217008Y40781D02*
X217117Y40770D01*
X217215D01*
X217281Y40759D01*
X217336Y40748D01*
X217346D01*
X217674Y40671D01*
X217969Y40584D01*
X218243Y40475D01*
X218472Y40376D01*
X218571Y40322D01*
X218669Y40278D01*
X218745Y40234D01*
X218811Y40201D01*
X218866Y40169D01*
X218899Y40147D01*
X218920Y40136D01*
X218931Y40125D01*
X219172Y39950D01*
X219379Y39753D01*
X219565Y39568D01*
X219718Y39393D01*
X219839Y39240D01*
X219926Y39119D01*
X219948Y39076D01*
X219970Y39043D01*
X219991Y39021D01*
Y39010D01*
X220123Y38770D01*
X220210Y38518D01*
X220276Y38289D01*
X220330Y38070D01*
X220352Y37884D01*
X220363Y37808D01*
Y37742D01*
X220374Y37688D01*
Y37611D01*
X220363Y37403D01*
X220330Y37207D01*
X220287Y37032D01*
X220232Y36868D01*
X220166Y36715D01*
X220101Y36573D01*
X220024Y36441D01*
X219948Y36332D01*
X219871Y36223D01*
X219795Y36136D01*
X219718Y36059D01*
X219664Y36004D01*
X219609Y35961D01*
X219565Y35928D01*
X219543Y35906D01*
X219532Y35895D01*
X219369Y35797D01*
X219204Y35720D01*
X219019Y35655D01*
X218844Y35600D01*
X218658Y35567D01*
X218472Y35534D01*
X218122Y35513D01*
X217969Y35502D01*
X217816D01*
X217685Y35513D01*
X217576Y35523D01*
X217478Y35534D01*
X217401D01*
X217357Y35545D01*
X217346D01*
X217095Y35600D01*
X216865Y35666D01*
X216636Y35742D01*
X216428Y35829D01*
X216243Y35928D01*
X216057Y36015D01*
X215893Y36114D01*
X215740Y36212D01*
X215609Y36299D01*
X215499Y36387D01*
X215390Y36463D01*
X215313Y36529D01*
X215248Y36595D01*
X215193Y36638D01*
X215171Y36660D01*
X215160Y36671D01*
X215007Y36835D01*
X214876Y37010D01*
X214767Y37174D01*
X214669Y37349D01*
X214592Y37524D01*
X214515Y37688D01*
X214461Y37852D01*
X214417Y38004D01*
X214373Y38147D01*
X214352Y38278D01*
X214330Y38398D01*
X214308Y38496D01*
Y38584D01*
X214297Y38638D01*
Y38693D01*
X214308Y38901D01*
X214341Y39087D01*
X214384Y39272D01*
X214439Y39436D01*
X214505Y39589D01*
X214581Y39720D01*
X214658Y39852D01*
X214734Y39961D01*
X214811Y40059D01*
X214887Y40147D01*
X214964Y40223D01*
X215029Y40278D01*
X215084Y40333D01*
X215128Y40365D01*
X215149Y40376D01*
X215160Y40387D01*
X215324Y40486D01*
X215488Y40573D01*
X215674Y40639D01*
X215849Y40693D01*
X216035Y40726D01*
X216221Y40759D01*
X216560Y40781D01*
X216723Y40792D01*
X216876D01*
X217008Y40781D01*
D02*
G37*
G36*
X220287Y33960D02*
Y32867D01*
X218855Y33119D01*
Y34223D01*
X220287Y33960D01*
D02*
G37*
G36*
X215958Y32452D02*
X216024D01*
X216078D01*
X216122Y32441D01*
X216144D01*
X216155D01*
X216319Y32397D01*
X216483Y32354D01*
X216614Y32288D01*
X216734Y32234D01*
X216833Y32168D01*
X216898Y32124D01*
X216953Y32091D01*
X216964Y32080D01*
X217084Y31971D01*
X217193Y31873D01*
X217281Y31763D01*
X217368Y31665D01*
X217434Y31578D01*
X217478Y31512D01*
X217510Y31468D01*
X217521Y31457D01*
X217674Y31206D01*
X217751Y31086D01*
X217806Y30987D01*
X217849Y30900D01*
X217882Y30834D01*
X217904Y30791D01*
X217915Y30780D01*
X218079Y30474D01*
X218155Y30321D01*
X218232Y30190D01*
X218297Y30069D01*
X218352Y29971D01*
X218396Y29916D01*
X218407Y29905D01*
Y29894D01*
X218516Y29730D01*
X218636Y29577D01*
X218745Y29457D01*
X218855Y29348D01*
X218942Y29271D01*
X219019Y29206D01*
X219062Y29173D01*
X219084Y29162D01*
Y32037D01*
X220287Y31829D01*
Y26987D01*
X219970Y27053D01*
X219685Y27129D01*
X219434Y27228D01*
X219215Y27326D01*
X219117Y27370D01*
X219041Y27413D01*
X218964Y27457D01*
X218909Y27490D01*
X218866Y27523D01*
X218833Y27545D01*
X218811Y27566D01*
X218800D01*
X218691Y27654D01*
X218571Y27763D01*
X218363Y27982D01*
X218177Y28222D01*
X218002Y28463D01*
X217871Y28681D01*
X217816Y28769D01*
X217762Y28856D01*
X217729Y28922D01*
X217696Y28976D01*
X217685Y29009D01*
X217674Y29020D01*
X217521Y29337D01*
X217390Y29610D01*
X217270Y29851D01*
X217172Y30048D01*
X217095Y30200D01*
X217029Y30310D01*
X217008Y30343D01*
X216997Y30375D01*
X216986Y30397D01*
X216876Y30561D01*
X216778Y30681D01*
X216669Y30780D01*
X216570Y30856D01*
X216483Y30900D01*
X216417Y30922D01*
X216374Y30944D01*
X216363D01*
X216253Y30955D01*
X216144Y30944D01*
X216057Y30922D01*
X215980Y30889D01*
X215926Y30856D01*
X215871Y30823D01*
X215849Y30802D01*
X215838Y30791D01*
X215773Y30703D01*
X215718Y30605D01*
X215674Y30496D01*
X215652Y30386D01*
X215630Y30288D01*
X215619Y30211D01*
Y30135D01*
X215630Y29960D01*
X215663Y29796D01*
X215696Y29654D01*
X215740Y29523D01*
X215783Y29414D01*
X215827Y29337D01*
X215849Y29293D01*
X215860Y29271D01*
X215947Y29129D01*
X216035Y29009D01*
X216133Y28889D01*
X216210Y28791D01*
X216286Y28703D01*
X216341Y28648D01*
X216385Y28605D01*
X216395Y28594D01*
X215401Y27905D01*
X215292Y28047D01*
X215171Y28211D01*
X215073Y28386D01*
X214975Y28561D01*
X214898Y28714D01*
X214843Y28834D01*
X214822Y28889D01*
X214800Y28922D01*
X214789Y28943D01*
Y28954D01*
X214680Y29228D01*
X214603Y29512D01*
X214537Y29785D01*
X214505Y30037D01*
X214483Y30146D01*
X214472Y30255D01*
X214461Y30354D01*
Y30430D01*
X214450Y30496D01*
Y30583D01*
X214461Y30769D01*
X214472Y30944D01*
X214494Y31108D01*
X214527Y31261D01*
X214570Y31392D01*
X214603Y31512D01*
X214647Y31632D01*
X214690Y31731D01*
X214734Y31818D01*
X214778Y31884D01*
X214822Y31949D01*
X214854Y32004D01*
X214887Y32037D01*
X214909Y32070D01*
X214920Y32091D01*
X214931D01*
X215018Y32179D01*
X215117Y32244D01*
X215215Y32299D01*
X215313Y32354D01*
X215521Y32408D01*
X215718Y32452D01*
X215893Y32463D01*
X215958Y32452D01*
D02*
G37*
G36*
X220287Y23774D02*
Y22604D01*
X213160Y21063D01*
Y22517D01*
X218549Y23500D01*
X213160Y26353D01*
Y27818D01*
X220287Y23774D01*
D02*
G37*
G36*
X12747Y199294D02*
X12734D01*
X12708Y199282D01*
X12670D01*
X12619Y199269D01*
X12491Y199231D01*
X12326Y199167D01*
X12135Y199090D01*
X11956Y198988D01*
X11778Y198874D01*
X11637Y198733D01*
X11625Y198721D01*
X11586Y198657D01*
X11523Y198568D01*
X11459Y198440D01*
X11395Y198287D01*
X11331Y198096D01*
X11293Y197879D01*
X11280Y197637D01*
Y197560D01*
X11293Y197509D01*
X11306Y197369D01*
X11344Y197178D01*
X11395Y196961D01*
X11484Y196732D01*
X11599Y196477D01*
X11752Y196234D01*
Y196222D01*
X11778Y196209D01*
X11841Y196132D01*
X11943Y196005D01*
X12109Y195865D01*
X12300Y195699D01*
X12555Y195520D01*
X12849Y195342D01*
X13193Y195189D01*
X13205D01*
X13231Y195176D01*
X13282Y195151D01*
X13359Y195125D01*
X13448Y195100D01*
X13550Y195074D01*
X13665Y195036D01*
X13792Y194998D01*
X14085Y194934D01*
X14417Y194870D01*
X14774Y194819D01*
X15131Y194806D01*
X15144D01*
X15182D01*
X15233D01*
X15309Y194819D01*
X15399D01*
X15501Y194832D01*
X15730Y194870D01*
X15998Y194934D01*
X16265Y195010D01*
X16533Y195138D01*
X16776Y195304D01*
X16801Y195329D01*
X16865Y195393D01*
X16954Y195508D01*
X17056Y195648D01*
X17171Y195839D01*
X17260Y196056D01*
X17324Y196298D01*
X17336Y196426D01*
X17349Y196566D01*
Y196630D01*
X17336Y196681D01*
X17324Y196821D01*
X17298Y196987D01*
X17234Y197191D01*
X17158Y197407D01*
X17056Y197624D01*
X16903Y197854D01*
Y197866D01*
X16878Y197879D01*
X16814Y197956D01*
X16712Y198058D01*
X16559Y198185D01*
X16367Y198325D01*
X16138Y198478D01*
X15858Y198606D01*
X15539Y198733D01*
X15819Y200569D01*
X15832D01*
X15883Y200544D01*
X15959Y200518D01*
X16061Y200467D01*
X16189Y200404D01*
X16329Y200340D01*
X16495Y200263D01*
X16661Y200161D01*
X17030Y199932D01*
X17400Y199651D01*
X17770Y199333D01*
X17936Y199141D01*
X18089Y198950D01*
X18102Y198937D01*
X18127Y198899D01*
X18165Y198848D01*
X18204Y198759D01*
X18267Y198657D01*
X18331Y198542D01*
X18408Y198389D01*
X18471Y198236D01*
X18548Y198058D01*
X18624Y197866D01*
X18688Y197662D01*
X18739Y197446D01*
X18790Y197216D01*
X18828Y196974D01*
X18854Y196719D01*
X18867Y196451D01*
Y196375D01*
X18854Y196298D01*
Y196183D01*
X18841Y196043D01*
X18815Y195890D01*
X18790Y195712D01*
X18739Y195533D01*
X18688Y195329D01*
X18624Y195125D01*
X18548Y194908D01*
X18459Y194704D01*
X18344Y194488D01*
X18216Y194284D01*
X18063Y194092D01*
X17898Y193914D01*
X17885Y193901D01*
X17846Y193876D01*
X17796Y193825D01*
X17719Y193774D01*
X17617Y193710D01*
X17490Y193633D01*
X17336Y193544D01*
X17171Y193468D01*
X16980Y193378D01*
X16776Y193289D01*
X16533Y193213D01*
X16278Y193149D01*
X16011Y193098D01*
X15705Y193047D01*
X15399Y193021D01*
X15054Y193009D01*
X15042D01*
X14990D01*
X14901D01*
X14799Y193021D01*
X14672D01*
X14506Y193047D01*
X14340Y193060D01*
X14149Y193085D01*
X13945Y193111D01*
X13715Y193162D01*
X13257Y193264D01*
X12772Y193417D01*
X12542Y193506D01*
X12300Y193608D01*
X12288Y193621D01*
X12249Y193633D01*
X12186Y193672D01*
X12096Y193723D01*
X11994Y193786D01*
X11867Y193863D01*
X11739Y193952D01*
X11586Y194054D01*
X11280Y194296D01*
X10961Y194577D01*
X10655Y194921D01*
X10515Y195112D01*
X10388Y195304D01*
X10375Y195316D01*
X10362Y195355D01*
X10324Y195418D01*
X10286Y195495D01*
X10235Y195597D01*
X10171Y195712D01*
X10107Y195852D01*
X10044Y196005D01*
X9992Y196171D01*
X9929Y196362D01*
X9814Y196757D01*
X9738Y197191D01*
X9725Y197420D01*
X9712Y197662D01*
Y197803D01*
X9725Y197905D01*
X9738Y198019D01*
X9750Y198160D01*
X9776Y198325D01*
X9814Y198491D01*
X9903Y198861D01*
X9967Y199052D01*
X10044Y199243D01*
X10133Y199447D01*
X10235Y199626D01*
X10350Y199817D01*
X10490Y199983D01*
X10503Y199996D01*
X10528Y200021D01*
X10566Y200059D01*
X10630Y200123D01*
X10707Y200187D01*
X10796Y200276D01*
X10911Y200353D01*
X11038Y200442D01*
X11178Y200531D01*
X11331Y200620D01*
X11510Y200710D01*
X11688Y200799D01*
X11892Y200875D01*
X12109Y200939D01*
X12338Y200990D01*
X12581Y201028D01*
X12747Y199294D01*
D02*
G37*
G36*
X13690Y191899D02*
X13805Y191887D01*
X13958Y191874D01*
X14124Y191861D01*
X14302Y191836D01*
X14506Y191797D01*
X14723Y191746D01*
X15169Y191632D01*
X15411Y191555D01*
X15654Y191466D01*
X15909Y191364D01*
X16151Y191249D01*
X16164Y191236D01*
X16215Y191224D01*
X16278Y191185D01*
X16367Y191134D01*
X16482Y191058D01*
X16597Y190981D01*
X16737Y190892D01*
X16890Y190777D01*
X17056Y190663D01*
X17222Y190522D01*
X17388Y190382D01*
X17553Y190216D01*
X17872Y189872D01*
X18025Y189668D01*
X18165Y189464D01*
X18178Y189451D01*
X18191Y189413D01*
X18229Y189349D01*
X18280Y189273D01*
X18331Y189158D01*
X18382Y189031D01*
X18446Y188890D01*
X18509Y188725D01*
X18586Y188546D01*
X18650Y188355D01*
X18701Y188138D01*
X18752Y187921D01*
X18841Y187437D01*
X18854Y187195D01*
X18867Y186927D01*
Y186812D01*
X18854Y186723D01*
Y186621D01*
X18841Y186493D01*
X18815Y186353D01*
X18790Y186200D01*
X18726Y185881D01*
X18624Y185524D01*
X18484Y185180D01*
X18408Y185014D01*
X18305Y184849D01*
X18293Y184836D01*
X18280Y184810D01*
X18242Y184772D01*
X18204Y184708D01*
X18089Y184568D01*
X17923Y184390D01*
X17719Y184198D01*
X17477Y184007D01*
X17209Y183829D01*
X16916Y183676D01*
X16903D01*
X16878Y183663D01*
X16839Y183650D01*
X16776Y183625D01*
X16699Y183599D01*
X16610Y183561D01*
X16393Y183510D01*
X16138Y183446D01*
X15858Y183382D01*
X15564Y183344D01*
X15246Y183331D01*
X15233D01*
X15207D01*
X15169D01*
X15105D01*
X15042Y183344D01*
X14952D01*
X14748Y183357D01*
X14493Y183382D01*
X14213Y183433D01*
X13907Y183484D01*
X13588Y183561D01*
X13575D01*
X13537Y183574D01*
X13473Y183599D01*
X13397Y183625D01*
X13295Y183650D01*
X13180Y183688D01*
X13040Y183739D01*
X12900Y183790D01*
X12581Y183918D01*
X12249Y184084D01*
X11905Y184275D01*
X11574Y184492D01*
X11561Y184504D01*
X11535Y184517D01*
X11497Y184555D01*
X11433Y184606D01*
X11357Y184670D01*
X11280Y184747D01*
X11089Y184925D01*
X10872Y185155D01*
X10643Y185422D01*
X10426Y185728D01*
X10222Y186073D01*
Y186085D01*
X10197Y186111D01*
X10171Y186175D01*
X10146Y186238D01*
X10107Y186328D01*
X10056Y186442D01*
X10018Y186570D01*
X9967Y186710D01*
X9916Y186863D01*
X9878Y187029D01*
X9788Y187399D01*
X9738Y187807D01*
X9712Y188253D01*
Y188406D01*
X9725Y188521D01*
X9738Y188661D01*
X9763Y188827D01*
X9801Y189005D01*
X9839Y189196D01*
X9891Y189413D01*
X9954Y189630D01*
X10044Y189847D01*
X10146Y190063D01*
X10260Y190293D01*
X10401Y190497D01*
X10554Y190714D01*
X10732Y190905D01*
X10745Y190918D01*
X10783Y190943D01*
X10834Y190994D01*
X10923Y191058D01*
X11025Y191134D01*
X11140Y191224D01*
X11293Y191313D01*
X11459Y191415D01*
X11637Y191504D01*
X11841Y191593D01*
X12071Y191683D01*
X12313Y191759D01*
X12568Y191823D01*
X12849Y191874D01*
X13142Y191899D01*
X13448Y191912D01*
X13461D01*
X13511D01*
X13588D01*
X13690Y191899D01*
D02*
G37*
G36*
X11357Y182898D02*
Y178537D01*
X13473Y178091D01*
Y182375D01*
X14952Y182069D01*
Y177785D01*
X18701Y176995D01*
Y175197D01*
X9878Y177046D01*
Y183217D01*
X11357Y182898D01*
D02*
G37*
G36*
X24058Y201154D02*
Y199828D01*
X28036Y198974D01*
X28061D01*
X28112Y198961D01*
X28176Y198948D01*
X28240Y198935D01*
X28253D01*
X28278D01*
X28355Y198923D01*
X28367D01*
X28406D01*
X28444Y198935D01*
X28508Y198948D01*
X28635Y198999D01*
X28699Y199037D01*
X28750Y199088D01*
Y199101D01*
X28763Y199114D01*
X28788Y199152D01*
X28801Y199203D01*
X28852Y199331D01*
X28865Y199484D01*
Y199598D01*
X28852Y199675D01*
X28826Y199866D01*
X28763Y200070D01*
Y200083D01*
X28737Y200108D01*
X28724Y200159D01*
X28699Y200210D01*
X28648Y200338D01*
X28622Y200389D01*
X28597Y200427D01*
X29234Y200491D01*
Y200478D01*
X29260Y200465D01*
X29273Y200427D01*
X29311Y200363D01*
X29349Y200287D01*
X29387Y200198D01*
X29426Y200083D01*
X29477Y199943D01*
Y199930D01*
X29489Y199879D01*
X29515Y199802D01*
X29528Y199688D01*
X29553Y199560D01*
X29579Y199420D01*
X29591Y199267D01*
Y199012D01*
X29579Y198935D01*
X29566Y198833D01*
X29540Y198706D01*
X29502Y198591D01*
X29451Y198464D01*
X29387Y198349D01*
X29375Y198336D01*
X29349Y198311D01*
X29298Y198260D01*
X29222Y198209D01*
X29132Y198158D01*
X29018Y198107D01*
X28877Y198081D01*
X28724Y198068D01*
X28699D01*
X28635D01*
X28546Y198081D01*
X28431Y198094D01*
X24058Y199025D01*
Y198221D01*
X23420Y198362D01*
Y199152D01*
X21355Y199598D01*
Y200402D01*
X23420Y199955D01*
Y201294D01*
X24058Y201154D01*
D02*
G37*
G36*
X25014Y196526D02*
X24989D01*
X24938Y196500D01*
X24848Y196462D01*
X24746Y196411D01*
X24632Y196334D01*
X24504Y196245D01*
X24389Y196130D01*
X24287Y196003D01*
X24275Y195990D01*
X24249Y195939D01*
X24198Y195863D01*
X24147Y195748D01*
X24109Y195620D01*
X24058Y195467D01*
X24032Y195302D01*
X24020Y195110D01*
Y195021D01*
X24032Y194919D01*
X24045Y194792D01*
X24083Y194639D01*
X24122Y194473D01*
X24185Y194294D01*
X24262Y194116D01*
X24275Y194090D01*
X24300Y194039D01*
X24351Y193950D01*
X24428Y193835D01*
X24517Y193695D01*
X24619Y193555D01*
X24746Y193415D01*
X24887Y193262D01*
X24899Y193249D01*
X24950Y193198D01*
X25040Y193134D01*
X25154Y193045D01*
X25295Y192956D01*
X25448Y192854D01*
X25626Y192752D01*
X25830Y192662D01*
X25856Y192650D01*
X25919Y192624D01*
X26034Y192599D01*
X26174Y192560D01*
X26340Y192509D01*
X26531Y192484D01*
X26748Y192458D01*
X26965Y192446D01*
X26978D01*
X27041D01*
X27118Y192458D01*
X27220D01*
X27335Y192471D01*
X27475Y192497D01*
X27743Y192560D01*
X27755D01*
X27806Y192586D01*
X27870Y192611D01*
X27959Y192650D01*
X28049Y192688D01*
X28163Y192739D01*
X28380Y192879D01*
X28393Y192892D01*
X28418Y192917D01*
X28469Y192968D01*
X28533Y193019D01*
X28597Y193096D01*
X28673Y193185D01*
X28801Y193389D01*
Y193402D01*
X28826Y193440D01*
X28839Y193504D01*
X28865Y193593D01*
X28890Y193695D01*
X28916Y193810D01*
X28928Y193925D01*
X28941Y194065D01*
Y194167D01*
X28928Y194243D01*
Y194320D01*
X28903Y194422D01*
X28865Y194626D01*
Y194639D01*
X28852Y194677D01*
X28826Y194728D01*
X28814Y194804D01*
X28737Y194983D01*
X28648Y195174D01*
X28635Y195187D01*
X28622Y195225D01*
X28584Y195276D01*
X28546Y195340D01*
X28444Y195493D01*
X28304Y195646D01*
X28291Y195659D01*
X28265Y195684D01*
X28227Y195722D01*
X28176Y195761D01*
X28061Y195863D01*
X27908Y195952D01*
X28138Y196691D01*
X28151Y196679D01*
X28189Y196653D01*
X28253Y196615D01*
X28342Y196564D01*
X28431Y196487D01*
X28533Y196411D01*
X28750Y196207D01*
X28763Y196194D01*
X28788Y196156D01*
X28839Y196092D01*
X28903Y196016D01*
X28979Y195914D01*
X29056Y195799D01*
X29222Y195544D01*
X29234Y195531D01*
X29260Y195480D01*
X29285Y195404D01*
X29336Y195314D01*
X29387Y195200D01*
X29438Y195072D01*
X29528Y194779D01*
Y194766D01*
X29540Y194715D01*
X29566Y194626D01*
X29579Y194524D01*
X29604Y194396D01*
X29630Y194256D01*
X29642Y193950D01*
Y193861D01*
X29630Y193759D01*
X29617Y193619D01*
X29591Y193466D01*
X29553Y193300D01*
X29502Y193134D01*
X29438Y192968D01*
X29426Y192956D01*
X29400Y192892D01*
X29349Y192815D01*
X29298Y192713D01*
X29209Y192599D01*
X29120Y192471D01*
X29018Y192344D01*
X28890Y192229D01*
X28877Y192216D01*
X28826Y192178D01*
X28750Y192127D01*
X28648Y192063D01*
X28533Y191987D01*
X28393Y191923D01*
X28240Y191846D01*
X28074Y191783D01*
X28049D01*
X27998Y191757D01*
X27896Y191732D01*
X27768Y191706D01*
X27615Y191681D01*
X27449Y191655D01*
X27258Y191642D01*
X27067Y191630D01*
X27054D01*
X27029D01*
X26990D01*
X26939D01*
X26799Y191642D01*
X26608Y191668D01*
X26391Y191706D01*
X26162Y191757D01*
X25907Y191821D01*
X25652Y191923D01*
X25639D01*
X25626Y191936D01*
X25588Y191948D01*
X25537Y191974D01*
X25409Y192038D01*
X25244Y192127D01*
X25065Y192242D01*
X24861Y192382D01*
X24657Y192535D01*
X24453Y192713D01*
X24428Y192739D01*
X24364Y192803D01*
X24275Y192905D01*
X24147Y193045D01*
X24020Y193211D01*
X23879Y193415D01*
X23752Y193631D01*
X23624Y193874D01*
Y193886D01*
X23612Y193899D01*
X23599Y193937D01*
X23573Y193988D01*
X23522Y194129D01*
X23471Y194294D01*
X23420Y194511D01*
X23369Y194753D01*
X23331Y195008D01*
X23318Y195289D01*
Y195429D01*
X23331Y195493D01*
X23344Y195582D01*
X23369Y195773D01*
X23420Y195990D01*
X23484Y196220D01*
X23586Y196436D01*
X23714Y196653D01*
X23726Y196679D01*
X23790Y196742D01*
X23879Y196832D01*
X23994Y196946D01*
X24147Y197061D01*
X24326Y197176D01*
X24530Y197265D01*
X24772Y197342D01*
X25014Y196526D01*
D02*
G37*
G36*
X25116Y190979D02*
X25193Y190967D01*
X25269Y190954D01*
X25473Y190890D01*
X25690Y190801D01*
X25805Y190737D01*
X25919Y190648D01*
X26034Y190559D01*
X26136Y190457D01*
X26238Y190329D01*
X26327Y190189D01*
Y190176D01*
X26340Y190151D01*
X26366Y190100D01*
X26391Y190036D01*
X26429Y189959D01*
X26468Y189857D01*
X26506Y189730D01*
X26544Y189590D01*
X26595Y189424D01*
X26633Y189245D01*
X26672Y189041D01*
X26697Y188812D01*
X26735Y188570D01*
X26748Y188315D01*
X26774Y188034D01*
Y187295D01*
X26761Y187027D01*
Y186887D01*
X26748Y186785D01*
Y186657D01*
X26735Y186517D01*
Y186364D01*
X26723Y186198D01*
X26735D01*
X26774Y186185D01*
X26837D01*
X26901Y186173D01*
X26914D01*
X26952D01*
X27003D01*
X27054D01*
X27067D01*
X27118D01*
X27207D01*
X27296Y186185D01*
X27424Y186198D01*
X27551Y186211D01*
X27819Y186275D01*
X27832D01*
X27883Y186300D01*
X27947Y186326D01*
X28036Y186364D01*
X28125Y186402D01*
X28240Y186453D01*
X28457Y186593D01*
X28469Y186606D01*
X28495Y186632D01*
X28546Y186683D01*
X28610Y186746D01*
X28673Y186823D01*
X28750Y186912D01*
X28890Y187116D01*
Y187129D01*
X28916Y187167D01*
X28941Y187244D01*
X28967Y187333D01*
X28992Y187435D01*
X29018Y187562D01*
X29030Y187703D01*
X29043Y187856D01*
Y187970D01*
X29030Y188034D01*
Y188123D01*
X29005Y188225D01*
X28967Y188442D01*
Y188455D01*
X28954Y188493D01*
X28928Y188544D01*
X28903Y188621D01*
X28826Y188799D01*
X28737Y188990D01*
X28724Y189003D01*
X28712Y189041D01*
X28673Y189092D01*
X28635Y189156D01*
X28520Y189309D01*
X28380Y189475D01*
X28367Y189488D01*
X28342Y189513D01*
X28304Y189551D01*
X28240Y189615D01*
X28087Y189730D01*
X27908Y189857D01*
X28100Y190508D01*
X28112Y190495D01*
X28163Y190469D01*
X28227Y190431D01*
X28304Y190367D01*
X28406Y190291D01*
X28508Y190202D01*
X28737Y189998D01*
X28750Y189985D01*
X28788Y189947D01*
X28839Y189883D01*
X28903Y189794D01*
X28979Y189704D01*
X29056Y189590D01*
X29222Y189322D01*
X29234Y189309D01*
X29260Y189258D01*
X29285Y189182D01*
X29336Y189092D01*
X29387Y188965D01*
X29438Y188837D01*
X29528Y188544D01*
Y188531D01*
X29540Y188480D01*
X29566Y188391D01*
X29579Y188289D01*
X29604Y188174D01*
X29630Y188034D01*
X29642Y187715D01*
Y187626D01*
X29630Y187511D01*
X29617Y187384D01*
X29591Y187218D01*
X29566Y187052D01*
X29515Y186874D01*
X29451Y186708D01*
X29438Y186695D01*
X29413Y186632D01*
X29362Y186555D01*
X29311Y186453D01*
X29222Y186338D01*
X29132Y186211D01*
X29030Y186083D01*
X28903Y185969D01*
X28890Y185956D01*
X28839Y185918D01*
X28763Y185867D01*
X28661Y185803D01*
X28546Y185726D01*
X28406Y185663D01*
X28253Y185586D01*
X28087Y185522D01*
X28061D01*
X28010Y185497D01*
X27908Y185471D01*
X27781Y185446D01*
X27628Y185420D01*
X27462Y185395D01*
X27271Y185382D01*
X27067Y185369D01*
X27054D01*
X27029D01*
X26990D01*
X26939D01*
X26799Y185382D01*
X26621Y185408D01*
X26404Y185433D01*
X26174Y185484D01*
X25919Y185561D01*
X25664Y185650D01*
X25652D01*
X25639Y185663D01*
X25601Y185675D01*
X25550Y185701D01*
X25422Y185765D01*
X25256Y185854D01*
X25078Y185956D01*
X24874Y186096D01*
X24670Y186249D01*
X24479Y186415D01*
X24453Y186440D01*
X24389Y186504D01*
X24300Y186606D01*
X24173Y186746D01*
X24045Y186925D01*
X23905Y187116D01*
X23765Y187346D01*
X23637Y187588D01*
Y187601D01*
X23624Y187613D01*
X23612Y187652D01*
X23586Y187703D01*
X23535Y187843D01*
X23471Y188021D01*
X23420Y188238D01*
X23369Y188480D01*
X23331Y188761D01*
X23318Y189041D01*
Y189194D01*
X23331Y189296D01*
X23344Y189411D01*
X23357Y189539D01*
X23420Y189806D01*
Y189819D01*
X23433Y189870D01*
X23459Y189934D01*
X23497Y190023D01*
X23599Y190214D01*
X23739Y190418D01*
X23752Y190431D01*
X23777Y190469D01*
X23816Y190508D01*
X23879Y190571D01*
X23956Y190635D01*
X24045Y190712D01*
X24249Y190839D01*
X24262Y190852D01*
X24300Y190865D01*
X24364Y190890D01*
X24453Y190916D01*
X24555Y190941D01*
X24683Y190967D01*
X24810Y190992D01*
X24963D01*
X24976D01*
X25001D01*
X25052D01*
X25116Y190979D01*
D02*
G37*
G36*
X22145Y185025D02*
Y184235D01*
X20972Y184490D01*
Y185280D01*
X22145Y185025D01*
D02*
G37*
G36*
X29795Y183406D02*
X29808D01*
X29859Y183393D01*
X29936Y183368D01*
X30038Y183329D01*
X30152Y183291D01*
X30280Y183240D01*
X30535Y183100D01*
X30548Y183087D01*
X30586Y183062D01*
X30662Y183011D01*
X30739Y182960D01*
X30828Y182883D01*
X30930Y182794D01*
X31121Y182603D01*
X31134Y182590D01*
X31160Y182552D01*
X31211Y182501D01*
X31262Y182424D01*
X31325Y182322D01*
X31389Y182220D01*
X31504Y181978D01*
Y181965D01*
X31529Y181914D01*
X31542Y181850D01*
X31568Y181761D01*
X31593Y181659D01*
X31619Y181544D01*
X31631Y181417D01*
X31644Y181302D01*
Y181238D01*
X31631Y181162D01*
Y181073D01*
X31619Y180971D01*
X31593Y180856D01*
X31529Y180614D01*
Y180601D01*
X31504Y180563D01*
X31478Y180512D01*
X31453Y180435D01*
X31338Y180269D01*
X31274Y180193D01*
X31185Y180116D01*
X30650Y180614D01*
X30662D01*
X30675Y180639D01*
X30739Y180703D01*
X30815Y180818D01*
X30866Y180958D01*
Y180971D01*
X30879Y180996D01*
X30892Y181034D01*
Y181085D01*
X30917Y181213D01*
X30930Y181366D01*
Y181442D01*
X30917Y181493D01*
X30892Y181608D01*
X30841Y181761D01*
Y181774D01*
X30828Y181799D01*
X30803Y181838D01*
X30777Y181876D01*
X30713Y182003D01*
X30611Y182131D01*
X30599Y182144D01*
X30586Y182156D01*
X30509Y182233D01*
X30407Y182335D01*
X30267Y182437D01*
X30254D01*
X30229Y182462D01*
X30191Y182475D01*
X30140Y182501D01*
X29999Y182552D01*
X29834Y182603D01*
X23420Y183967D01*
Y184770D01*
X29795Y183406D01*
D02*
G37*
G36*
X26149Y181991D02*
X26327Y181965D01*
X26544Y181927D01*
X26786Y181876D01*
X27041Y181799D01*
X27296Y181697D01*
X27309D01*
X27322Y181685D01*
X27360Y181672D01*
X27411Y181646D01*
X27539Y181583D01*
X27704Y181493D01*
X27883Y181379D01*
X28087Y181238D01*
X28291Y181085D01*
X28495Y180907D01*
X28520Y180881D01*
X28584Y180818D01*
X28673Y180716D01*
X28801Y180575D01*
X28928Y180410D01*
X29069Y180206D01*
X29209Y179989D01*
X29336Y179747D01*
Y179734D01*
X29349Y179721D01*
X29362Y179683D01*
X29387Y179632D01*
X29438Y179504D01*
X29489Y179326D01*
X29540Y179122D01*
X29591Y178880D01*
X29630Y178625D01*
X29642Y178357D01*
Y178268D01*
X29630Y178166D01*
X29617Y178038D01*
X29591Y177885D01*
X29553Y177719D01*
X29502Y177554D01*
X29438Y177388D01*
X29426Y177375D01*
X29400Y177311D01*
X29349Y177235D01*
X29298Y177133D01*
X29209Y177018D01*
X29120Y176903D01*
X29018Y176776D01*
X28890Y176661D01*
X28877Y176648D01*
X28826Y176610D01*
X28763Y176559D01*
X28661Y176495D01*
X28546Y176419D01*
X28406Y176355D01*
X28253Y176279D01*
X28087Y176215D01*
X28061D01*
X28010Y176189D01*
X27908Y176164D01*
X27794Y176138D01*
X27641Y176113D01*
X27475Y176087D01*
X27284Y176075D01*
X27092Y176062D01*
X27080D01*
X27054D01*
X27016D01*
X26965D01*
X26825Y176075D01*
X26633Y176100D01*
X26417Y176138D01*
X26187Y176189D01*
X25932Y176253D01*
X25677Y176355D01*
X25664D01*
X25652Y176368D01*
X25613Y176393D01*
X25562Y176406D01*
X25435Y176483D01*
X25269Y176572D01*
X25078Y176687D01*
X24887Y176827D01*
X24670Y176980D01*
X24479Y177158D01*
X24453Y177184D01*
X24389Y177248D01*
X24300Y177350D01*
X24173Y177490D01*
X24045Y177668D01*
X23905Y177860D01*
X23765Y178076D01*
X23637Y178319D01*
Y178331D01*
X23624Y178344D01*
X23612Y178382D01*
X23586Y178433D01*
X23535Y178561D01*
X23471Y178739D01*
X23420Y178943D01*
X23369Y179186D01*
X23331Y179441D01*
X23318Y179708D01*
Y179798D01*
X23331Y179900D01*
X23344Y180027D01*
X23369Y180180D01*
X23408Y180333D01*
X23459Y180499D01*
X23522Y180665D01*
X23535Y180677D01*
X23561Y180741D01*
X23599Y180818D01*
X23663Y180907D01*
X23739Y181022D01*
X23841Y181149D01*
X23943Y181264D01*
X24071Y181379D01*
X24083Y181391D01*
X24134Y181430D01*
X24198Y181481D01*
X24300Y181557D01*
X24415Y181621D01*
X24555Y181697D01*
X24721Y181774D01*
X24887Y181838D01*
X24912Y181850D01*
X24963Y181863D01*
X25065Y181889D01*
X25193Y181927D01*
X25333Y181952D01*
X25499Y181978D01*
X25690Y181991D01*
X25881Y182003D01*
X25894D01*
X25919D01*
X25958D01*
X26009D01*
X26149Y181991D01*
D02*
G37*
G36*
X24122Y175922D02*
Y175845D01*
X24134Y175794D01*
Y175730D01*
X24147Y175641D01*
X24185Y175463D01*
X24236Y175233D01*
X24326Y174991D01*
X24428Y174749D01*
X24568Y174494D01*
Y174481D01*
X24581Y174468D01*
X24644Y174392D01*
X24734Y174264D01*
X24874Y174124D01*
X25040Y173958D01*
X25231Y173780D01*
X25460Y173601D01*
X25728Y173448D01*
X29528Y172645D01*
Y171854D01*
X23420Y173142D01*
Y173894D01*
X24872Y173579D01*
X24874Y173576D01*
X24887D01*
X24872Y173579D01*
X24861Y173601D01*
X24823Y173627D01*
X24772Y173652D01*
X24657Y173754D01*
X24504Y173882D01*
X24338Y174035D01*
X24160Y174200D01*
X23981Y174404D01*
X23828Y174608D01*
Y174621D01*
X23816Y174634D01*
X23765Y174710D01*
X23701Y174825D01*
X23624Y174978D01*
X23548Y175157D01*
X23484Y175361D01*
X23433Y175577D01*
X23408Y175794D01*
Y175845D01*
X23420Y175947D01*
Y175985D01*
X23433Y176075D01*
X24122Y175922D01*
D02*
G37*
G36*
X26149Y171230D02*
X26327Y171204D01*
X26531Y171179D01*
X26774Y171128D01*
X27029Y171064D01*
X27284Y170975D01*
X27296D01*
X27309Y170962D01*
X27347Y170949D01*
X27398Y170924D01*
X27526Y170860D01*
X27692Y170783D01*
X27870Y170681D01*
X28074Y170554D01*
X28291Y170401D01*
X28495Y170235D01*
X28520Y170210D01*
X28584Y170159D01*
X28673Y170057D01*
X28801Y169929D01*
X28928Y169763D01*
X29069Y169585D01*
X29209Y169381D01*
X29336Y169151D01*
Y169139D01*
X29349Y169126D01*
X29387Y169049D01*
X29438Y168922D01*
X29489Y168756D01*
X29540Y168565D01*
X29591Y168348D01*
X29630Y168119D01*
X29642Y167864D01*
Y167787D01*
X29630Y167736D01*
X29617Y167609D01*
X29591Y167430D01*
X29553Y167239D01*
X29477Y167035D01*
X29387Y166831D01*
X29260Y166640D01*
X29247Y166614D01*
X29183Y166563D01*
X29107Y166474D01*
X28992Y166385D01*
X28839Y166270D01*
X28673Y166155D01*
X28482Y166053D01*
X28265Y165964D01*
X32014Y165161D01*
Y164370D01*
X23420Y166193D01*
Y166895D01*
X24592Y166655D01*
X24581Y166678D01*
X24504Y166742D01*
X24402Y166831D01*
X24275Y166971D01*
X24122Y167137D01*
X23969Y167315D01*
X23816Y167532D01*
X23675Y167762D01*
Y167774D01*
X23663Y167787D01*
X23637Y167825D01*
X23624Y167876D01*
X23561Y168004D01*
X23497Y168170D01*
X23433Y168374D01*
X23369Y168590D01*
X23331Y168833D01*
X23318Y169075D01*
Y169164D01*
X23331Y169253D01*
X23344Y169381D01*
X23369Y169521D01*
X23408Y169674D01*
X23459Y169827D01*
X23535Y169980D01*
X23548Y169993D01*
X23573Y170044D01*
X23624Y170120D01*
X23675Y170222D01*
X23765Y170324D01*
X23854Y170439D01*
X23969Y170554D01*
X24096Y170669D01*
X24109Y170681D01*
X24160Y170720D01*
X24224Y170771D01*
X24326Y170822D01*
X24440Y170898D01*
X24581Y170962D01*
X24746Y171026D01*
X24912Y171089D01*
X24938Y171102D01*
X24989Y171115D01*
X25091Y171140D01*
X25205Y171166D01*
X25358Y171191D01*
X25524Y171217D01*
X25703Y171242D01*
X25881D01*
X25894D01*
X25907D01*
X25945D01*
X26009D01*
X26149Y171230D01*
D02*
G37*
G36*
X14289Y172537D02*
X14366Y172524D01*
X14442Y172511D01*
X14646Y172447D01*
X14863Y172358D01*
X14978Y172294D01*
X15092Y172205D01*
X15207Y172116D01*
X15309Y172014D01*
X15411Y171886D01*
X15501Y171746D01*
Y171733D01*
X15513Y171708D01*
X15539Y171657D01*
X15564Y171593D01*
X15603Y171517D01*
X15641Y171414D01*
X15679Y171287D01*
X15717Y171147D01*
X15768Y170981D01*
X15807Y170802D01*
X15845Y170598D01*
X15870Y170369D01*
X15909Y170127D01*
X15921Y169872D01*
X15947Y169591D01*
Y168852D01*
X15934Y168584D01*
Y168444D01*
X15921Y168342D01*
Y168214D01*
X15909Y168074D01*
Y167921D01*
X15896Y167755D01*
X15909D01*
X15947Y167743D01*
X16011D01*
X16074Y167730D01*
X16087D01*
X16125D01*
X16176D01*
X16227D01*
X16240D01*
X16291D01*
X16380D01*
X16470Y167743D01*
X16597Y167755D01*
X16725Y167768D01*
X16992Y167832D01*
X17005D01*
X17056Y167857D01*
X17120Y167883D01*
X17209Y167921D01*
X17298Y167959D01*
X17413Y168010D01*
X17630Y168150D01*
X17642Y168163D01*
X17668Y168189D01*
X17719Y168240D01*
X17783Y168304D01*
X17846Y168380D01*
X17923Y168469D01*
X18063Y168673D01*
Y168686D01*
X18089Y168724D01*
X18114Y168801D01*
X18140Y168890D01*
X18165Y168992D01*
X18191Y169120D01*
X18204Y169260D01*
X18216Y169413D01*
Y169527D01*
X18204Y169591D01*
Y169681D01*
X18178Y169782D01*
X18140Y169999D01*
Y170012D01*
X18127Y170050D01*
X18102Y170101D01*
X18076Y170178D01*
X18000Y170356D01*
X17910Y170547D01*
X17898Y170560D01*
X17885Y170598D01*
X17846Y170650D01*
X17808Y170713D01*
X17694Y170866D01*
X17553Y171032D01*
X17540Y171045D01*
X17515Y171070D01*
X17477Y171108D01*
X17413Y171172D01*
X17260Y171287D01*
X17082Y171414D01*
X17273Y172065D01*
X17286Y172052D01*
X17336Y172027D01*
X17400Y171988D01*
X17477Y171924D01*
X17579Y171848D01*
X17681Y171759D01*
X17910Y171555D01*
X17923Y171542D01*
X17961Y171504D01*
X18012Y171440D01*
X18076Y171351D01*
X18153Y171262D01*
X18229Y171147D01*
X18395Y170879D01*
X18408Y170866D01*
X18433Y170815D01*
X18459Y170739D01*
X18509Y170650D01*
X18561Y170522D01*
X18611Y170395D01*
X18701Y170101D01*
Y170089D01*
X18714Y170037D01*
X18739Y169948D01*
X18752Y169846D01*
X18777Y169731D01*
X18803Y169591D01*
X18815Y169272D01*
Y169183D01*
X18803Y169069D01*
X18790Y168941D01*
X18765Y168775D01*
X18739Y168609D01*
X18688Y168431D01*
X18624Y168265D01*
X18611Y168253D01*
X18586Y168189D01*
X18535Y168112D01*
X18484Y168010D01*
X18395Y167895D01*
X18305Y167768D01*
X18204Y167640D01*
X18076Y167526D01*
X18063Y167513D01*
X18012Y167475D01*
X17936Y167424D01*
X17834Y167360D01*
X17719Y167283D01*
X17579Y167220D01*
X17426Y167143D01*
X17260Y167079D01*
X17234D01*
X17184Y167054D01*
X17082Y167028D01*
X16954Y167003D01*
X16801Y166978D01*
X16635Y166952D01*
X16444Y166939D01*
X16240Y166927D01*
X16227D01*
X16202D01*
X16164D01*
X16113D01*
X15972Y166939D01*
X15794Y166965D01*
X15577Y166990D01*
X15348Y167041D01*
X15092Y167118D01*
X14838Y167207D01*
X14825D01*
X14812Y167220D01*
X14774Y167233D01*
X14723Y167258D01*
X14595Y167322D01*
X14430Y167411D01*
X14251Y167513D01*
X14047Y167653D01*
X13843Y167806D01*
X13652Y167972D01*
X13626Y167998D01*
X13563Y168061D01*
X13473Y168163D01*
X13346Y168304D01*
X13218Y168482D01*
X13078Y168673D01*
X12938Y168903D01*
X12810Y169145D01*
Y169158D01*
X12798Y169170D01*
X12785Y169209D01*
X12759Y169260D01*
X12708Y169400D01*
X12644Y169579D01*
X12594Y169795D01*
X12542Y170037D01*
X12504Y170318D01*
X12491Y170598D01*
Y170752D01*
X12504Y170853D01*
X12517Y170968D01*
X12530Y171096D01*
X12594Y171363D01*
Y171376D01*
X12606Y171427D01*
X12632Y171491D01*
X12670Y171580D01*
X12772Y171772D01*
X12912Y171976D01*
X12925Y171988D01*
X12951Y172027D01*
X12989Y172065D01*
X13052Y172128D01*
X13129Y172192D01*
X13218Y172269D01*
X13422Y172396D01*
X13435Y172409D01*
X13473Y172422D01*
X13537Y172447D01*
X13626Y172473D01*
X13728Y172498D01*
X13856Y172524D01*
X13983Y172549D01*
X14136D01*
X14149D01*
X14175D01*
X14226D01*
X14289Y172537D01*
D02*
G37*
G36*
X17324Y164746D02*
X17336D01*
X17362Y164734D01*
X17439Y164721D01*
X17464D01*
X17528D01*
X17553D01*
X17604Y164734D01*
X17694Y164746D01*
X17783Y164797D01*
X17885Y164861D01*
X17974Y164963D01*
X18025Y165103D01*
X18051Y165180D01*
Y165371D01*
X18038Y165460D01*
X18012Y165575D01*
Y165588D01*
X18000Y165601D01*
X17987Y165690D01*
X17961Y165792D01*
X17923Y165919D01*
X18561Y165894D01*
Y165881D01*
X18573Y165856D01*
X18599Y165805D01*
X18611Y165741D01*
X18637Y165652D01*
X18663Y165562D01*
X18714Y165333D01*
Y165320D01*
X18726Y165282D01*
Y165218D01*
X18739Y165141D01*
X18752Y164963D01*
X18765Y164785D01*
Y164708D01*
X18752Y164631D01*
X18739Y164542D01*
X18714Y164427D01*
X18675Y164313D01*
X18624Y164198D01*
X18548Y164096D01*
X18535Y164083D01*
X18509Y164058D01*
X18459Y164020D01*
X18382Y163981D01*
X18305Y163930D01*
X18191Y163892D01*
X18063Y163866D01*
X17923Y163854D01*
X17910D01*
X17872D01*
X17821D01*
X17770Y163866D01*
X17757D01*
X17719Y163879D01*
X17655Y163892D01*
X17592Y163905D01*
X10146Y165473D01*
Y166276D01*
X17324Y164746D01*
D02*
G37*
G36*
X15322Y163012D02*
X15501Y162987D01*
X15705Y162961D01*
X15947Y162910D01*
X16202Y162847D01*
X16457Y162757D01*
X16470D01*
X16482Y162744D01*
X16521Y162732D01*
X16571Y162706D01*
X16699Y162643D01*
X16865Y162566D01*
X17043Y162464D01*
X17247Y162337D01*
X17464Y162183D01*
X17668Y162018D01*
X17694Y161992D01*
X17757Y161941D01*
X17846Y161839D01*
X17974Y161712D01*
X18102Y161546D01*
X18242Y161367D01*
X18382Y161163D01*
X18509Y160934D01*
Y160921D01*
X18522Y160908D01*
X18561Y160832D01*
X18611Y160705D01*
X18663Y160539D01*
X18714Y160347D01*
X18765Y160131D01*
X18803Y159901D01*
X18815Y159646D01*
Y159570D01*
X18803Y159519D01*
X18790Y159391D01*
X18765Y159213D01*
X18726Y159021D01*
X18650Y158818D01*
X18561Y158614D01*
X18433Y158422D01*
X18420Y158397D01*
X18357Y158346D01*
X18280Y158256D01*
X18165Y158167D01*
X18012Y158053D01*
X17846Y157938D01*
X17655Y157836D01*
X17439Y157747D01*
X21187Y156943D01*
Y156153D01*
X12594Y157976D01*
Y158677D01*
X13765Y158438D01*
X13754Y158460D01*
X13677Y158524D01*
X13575Y158614D01*
X13448Y158754D01*
X13295Y158920D01*
X13142Y159098D01*
X12989Y159315D01*
X12849Y159544D01*
Y159557D01*
X12836Y159570D01*
X12810Y159608D01*
X12798Y159659D01*
X12734Y159786D01*
X12670Y159952D01*
X12606Y160156D01*
X12542Y160373D01*
X12504Y160615D01*
X12491Y160857D01*
Y160947D01*
X12504Y161036D01*
X12517Y161163D01*
X12542Y161304D01*
X12581Y161457D01*
X12632Y161610D01*
X12708Y161763D01*
X12721Y161776D01*
X12747Y161827D01*
X12798Y161903D01*
X12849Y162005D01*
X12938Y162107D01*
X13027Y162222D01*
X13142Y162337D01*
X13269Y162451D01*
X13282Y162464D01*
X13333Y162502D01*
X13397Y162553D01*
X13499Y162604D01*
X13614Y162681D01*
X13754Y162744D01*
X13920Y162808D01*
X14085Y162872D01*
X14111Y162885D01*
X14162Y162898D01*
X14264Y162923D01*
X14379Y162949D01*
X14532Y162974D01*
X14697Y162999D01*
X14876Y163025D01*
X15054D01*
X15067D01*
X15080D01*
X15118D01*
X15182D01*
X15322Y163012D01*
D02*
G37*
G36*
X14187Y155923D02*
X14327D01*
X14493Y155898D01*
X14684Y155872D01*
X14901Y155847D01*
X15131Y155796D01*
X18701Y155031D01*
Y154227D01*
X15296Y154941D01*
X15284D01*
X15246Y154954D01*
X15195Y154967D01*
X15131Y154980D01*
X14965Y155005D01*
X14786Y155031D01*
X14774D01*
X14748Y155043D01*
X14697D01*
X14634Y155056D01*
X14493Y155069D01*
X14340D01*
X14327D01*
X14289D01*
X14238D01*
X14162Y155056D01*
X14085Y155043D01*
X13983Y155018D01*
X13779Y154954D01*
X13677Y154903D01*
X13575Y154840D01*
X13473Y154763D01*
X13397Y154674D01*
X13320Y154572D01*
X13269Y154444D01*
X13231Y154304D01*
X13218Y154138D01*
Y154011D01*
X13231Y153934D01*
X13244Y153832D01*
X13269Y153718D01*
X13346Y153475D01*
Y153463D01*
X13371Y153424D01*
X13397Y153360D01*
X13435Y153284D01*
X13486Y153182D01*
X13550Y153080D01*
X13715Y152863D01*
X13728Y152850D01*
X13754Y152812D01*
X13805Y152761D01*
X13869Y152685D01*
X13958Y152595D01*
X14047Y152506D01*
X14277Y152315D01*
X14289Y152302D01*
X14327Y152277D01*
X14391Y152226D01*
X14480Y152175D01*
X14583Y152098D01*
X14710Y152034D01*
X14978Y151882D01*
X18701Y151104D01*
Y150301D01*
X15296Y151014D01*
X15284D01*
X15246Y151027D01*
X15195Y151040D01*
X15118Y151053D01*
X14952Y151078D01*
X14761Y151104D01*
X14748D01*
X14723Y151117D01*
X14672D01*
X14608Y151129D01*
X14468Y151142D01*
X14315D01*
X14302D01*
X14264D01*
X14213D01*
X14149Y151129D01*
X14060Y151117D01*
X13971Y151091D01*
X13767Y151027D01*
X13665Y150976D01*
X13563Y150912D01*
X13473Y150849D01*
X13384Y150759D01*
X13320Y150645D01*
X13269Y150530D01*
X13231Y150390D01*
X13218Y150224D01*
Y150160D01*
X13231Y150109D01*
X13244Y149982D01*
X13282Y149816D01*
X13333Y149625D01*
X13422Y149408D01*
X13537Y149179D01*
X13703Y148949D01*
Y148936D01*
X13728Y148924D01*
X13792Y148847D01*
X13894Y148732D01*
X14034Y148592D01*
X14213Y148439D01*
X14430Y148273D01*
X14684Y148108D01*
X14965Y147954D01*
X18701Y147164D01*
Y146373D01*
X12594Y147661D01*
Y148401D01*
X13969Y148098D01*
X13971Y148095D01*
X13983D01*
X13969Y148098D01*
X13958Y148120D01*
X13920Y148146D01*
X13869Y148184D01*
X13741Y148286D01*
X13588Y148426D01*
X13409Y148592D01*
X13218Y148796D01*
X13052Y149013D01*
X12887Y149255D01*
Y149268D01*
X12874Y149281D01*
X12849Y149319D01*
X12823Y149370D01*
X12759Y149497D01*
X12683Y149676D01*
X12619Y149880D01*
X12555Y150109D01*
X12504Y150352D01*
X12491Y150607D01*
Y150721D01*
X12517Y150849D01*
X12542Y151002D01*
X12594Y151168D01*
X12670Y151346D01*
X12772Y151512D01*
X12912Y151652D01*
X12925Y151665D01*
X12989Y151703D01*
X13078Y151767D01*
X13205Y151830D01*
X13371Y151882D01*
X13575Y151945D01*
X13817Y151983D01*
X14085Y151996D01*
X14073Y152009D01*
X14047Y152022D01*
X14009Y152047D01*
X13958Y152085D01*
X13817Y152200D01*
X13639Y152340D01*
X13448Y152519D01*
X13257Y152723D01*
X13065Y152953D01*
X12900Y153195D01*
Y153208D01*
X12887Y153220D01*
X12861Y153259D01*
X12836Y153310D01*
X12772Y153450D01*
X12696Y153615D01*
X12619Y153832D01*
X12555Y154062D01*
X12504Y154317D01*
X12491Y154572D01*
Y154686D01*
X12517Y154827D01*
X12542Y154980D01*
X12594Y155158D01*
X12657Y155324D01*
X12759Y155490D01*
X12887Y155617D01*
X12900Y155630D01*
X12963Y155668D01*
X13052Y155719D01*
X13167Y155783D01*
X13333Y155834D01*
X13524Y155885D01*
X13741Y155923D01*
X13996Y155936D01*
X14021D01*
X14085D01*
X14187Y155923D01*
D02*
G37*
G36*
X11319Y146246D02*
Y145443D01*
X10146Y145685D01*
Y146488D01*
X11319Y146246D01*
D02*
G37*
G36*
X18701Y144665D02*
Y143875D01*
X12594Y145162D01*
Y145966D01*
X18701Y144665D01*
D02*
G37*
G36*
X11943Y143263D02*
X11930Y143250D01*
X11880Y143224D01*
X11803Y143160D01*
X11714Y143084D01*
X11599Y142982D01*
X11497Y142854D01*
X11395Y142689D01*
X11293Y142510D01*
X11280Y142485D01*
X11255Y142421D01*
X11216Y142306D01*
X11166Y142166D01*
X11127Y141988D01*
X11089Y141783D01*
X11063Y141554D01*
X11051Y141299D01*
Y141197D01*
X11063Y141082D01*
Y140942D01*
X11089Y140776D01*
X11114Y140598D01*
X11140Y140419D01*
X11191Y140241D01*
Y140228D01*
X11216Y140164D01*
X11242Y140088D01*
X11293Y139986D01*
X11344Y139871D01*
X11408Y139756D01*
X11484Y139629D01*
X11574Y139514D01*
X11586Y139501D01*
X11612Y139463D01*
X11663Y139412D01*
X11739Y139361D01*
X11829Y139285D01*
X11918Y139221D01*
X12033Y139157D01*
X12160Y139093D01*
X12173D01*
X12211Y139068D01*
X12288Y139055D01*
X12377Y139030D01*
X12479Y139004D01*
X12606Y138991D01*
X12874Y138966D01*
X12887D01*
X12925D01*
X12976Y138979D01*
X13040D01*
X13193Y139017D01*
X13359Y139081D01*
X13371D01*
X13397Y139106D01*
X13435Y139131D01*
X13473Y139170D01*
X13601Y139272D01*
X13715Y139425D01*
Y139437D01*
X13741Y139463D01*
X13767Y139514D01*
X13805Y139591D01*
X13843Y139680D01*
X13881Y139769D01*
X13932Y139884D01*
X13971Y140011D01*
Y140024D01*
X13983Y140075D01*
X14009Y140152D01*
X14034Y140253D01*
X14073Y140368D01*
X14111Y140508D01*
X14149Y140674D01*
X14187Y140840D01*
Y140866D01*
X14213Y140929D01*
X14238Y141018D01*
X14264Y141146D01*
X14315Y141286D01*
X14353Y141452D01*
X14468Y141771D01*
Y141783D01*
X14493Y141847D01*
X14519Y141924D01*
X14570Y142013D01*
X14621Y142128D01*
X14672Y142255D01*
X14825Y142485D01*
X14838Y142498D01*
X14863Y142536D01*
X14914Y142587D01*
X14965Y142663D01*
X15042Y142740D01*
X15131Y142816D01*
X15233Y142893D01*
X15348Y142956D01*
X15360Y142969D01*
X15399Y142982D01*
X15462Y143008D01*
X15552Y143046D01*
X15666Y143071D01*
X15794Y143097D01*
X15934Y143110D01*
X16087Y143122D01*
X16100D01*
X16113D01*
X16151D01*
X16202D01*
X16329Y143110D01*
X16482Y143084D01*
X16674Y143059D01*
X16878Y143008D01*
X17069Y142944D01*
X17273Y142854D01*
X17298Y142842D01*
X17349Y142804D01*
X17451Y142753D01*
X17566Y142676D01*
X17694Y142574D01*
X17834Y142446D01*
X17974Y142306D01*
X18102Y142140D01*
X18114Y142115D01*
X18153Y142064D01*
X18216Y141962D01*
X18293Y141834D01*
X18369Y141669D01*
X18446Y141490D01*
X18535Y141286D01*
X18599Y141057D01*
Y141044D01*
X18611Y141031D01*
Y140993D01*
X18624Y140955D01*
X18650Y140827D01*
X18675Y140662D01*
X18714Y140470D01*
X18739Y140241D01*
X18752Y139998D01*
X18765Y139731D01*
Y139654D01*
X18752Y139552D01*
X18739Y139425D01*
X18726Y139272D01*
X18701Y139081D01*
X18663Y138889D01*
X18611Y138672D01*
X18548Y138443D01*
X18471Y138201D01*
X18369Y137959D01*
X18255Y137716D01*
X18127Y137474D01*
X17961Y137244D01*
X17783Y137015D01*
X17566Y136811D01*
X16903Y137346D01*
X16929Y137359D01*
X16980Y137410D01*
X17069Y137487D01*
X17184Y137589D01*
X17311Y137729D01*
X17451Y137895D01*
X17592Y138099D01*
X17719Y138328D01*
Y138341D01*
X17732Y138354D01*
X17745Y138392D01*
X17770Y138443D01*
X17796Y138507D01*
X17821Y138583D01*
X17885Y138775D01*
X17949Y139004D01*
X18000Y139272D01*
X18038Y139578D01*
X18051Y139909D01*
Y140011D01*
X18038Y140088D01*
Y140177D01*
X18025Y140279D01*
X18000Y140521D01*
X17949Y140789D01*
X17872Y141069D01*
X17757Y141350D01*
X17617Y141592D01*
Y141605D01*
X17592Y141618D01*
X17528Y141694D01*
X17426Y141796D01*
X17286Y141911D01*
X17107Y142026D01*
X16890Y142115D01*
X16635Y142192D01*
X16495Y142204D01*
X16342Y142217D01*
X16329D01*
X16291D01*
X16227Y142204D01*
X16164D01*
X15998Y142153D01*
X15909Y142128D01*
X15819Y142077D01*
X15807D01*
X15781Y142051D01*
X15743Y142026D01*
X15692Y141975D01*
X15628Y141924D01*
X15564Y141860D01*
X15501Y141771D01*
X15437Y141682D01*
X15424Y141669D01*
X15411Y141630D01*
X15373Y141579D01*
X15335Y141503D01*
X15284Y141414D01*
X15233Y141312D01*
X15195Y141184D01*
X15144Y141044D01*
Y141031D01*
X15118Y140980D01*
X15092Y140904D01*
X15067Y140802D01*
X15029Y140674D01*
X14978Y140521D01*
X14940Y140356D01*
X14889Y140177D01*
X14876Y140152D01*
X14863Y140088D01*
X14838Y139998D01*
X14799Y139884D01*
X14761Y139743D01*
X14710Y139591D01*
X14608Y139285D01*
X14595Y139272D01*
X14583Y139221D01*
X14544Y139144D01*
X14506Y139055D01*
X14404Y138838D01*
X14264Y138621D01*
X14251Y138609D01*
X14226Y138583D01*
X14187Y138532D01*
X14124Y138469D01*
X13983Y138341D01*
X13792Y138214D01*
X13779D01*
X13741Y138188D01*
X13677Y138175D01*
X13601Y138150D01*
X13511Y138124D01*
X13397Y138099D01*
X13269Y138086D01*
X13129Y138073D01*
X13116D01*
X13104D01*
X13065D01*
X13014D01*
X12900Y138086D01*
X12734Y138111D01*
X12555Y138137D01*
X12364Y138175D01*
X12160Y138239D01*
X11956Y138328D01*
X11930Y138341D01*
X11867Y138379D01*
X11778Y138443D01*
X11650Y138520D01*
X11510Y138621D01*
X11370Y138749D01*
X11216Y138889D01*
X11076Y139055D01*
X11063Y139081D01*
X11013Y139131D01*
X10949Y139234D01*
X10872Y139361D01*
X10770Y139514D01*
X10681Y139705D01*
X10592Y139909D01*
X10515Y140126D01*
Y140139D01*
X10503Y140152D01*
Y140190D01*
X10490Y140228D01*
X10452Y140356D01*
X10413Y140521D01*
X10388Y140725D01*
X10350Y140942D01*
X10337Y141184D01*
X10324Y141452D01*
Y141579D01*
X10337Y141733D01*
X10350Y141924D01*
X10388Y142128D01*
X10426Y142357D01*
X10490Y142599D01*
X10579Y142816D01*
Y142829D01*
X10592Y142842D01*
X10617Y142918D01*
X10681Y143020D01*
X10758Y143160D01*
X10860Y143314D01*
X10974Y143479D01*
X11114Y143645D01*
X11280Y143798D01*
X11943Y143263D01*
D02*
G37*
G36*
X208613Y111653D02*
X208626D01*
X208677D01*
X208715Y111640D01*
X208753D01*
X208766D01*
X208779D01*
X208842Y111666D01*
X208881Y111691D01*
X208919Y111729D01*
X208932Y111780D01*
X208944Y111857D01*
X209646Y111704D01*
Y111513D01*
X209658Y111423D01*
Y111372D01*
X209646Y111321D01*
Y111270D01*
X209607Y111117D01*
X209531Y110990D01*
X209505Y110964D01*
X209442Y110926D01*
X209340Y110875D01*
X209276Y110862D01*
X209212Y110850D01*
X209199D01*
X209148D01*
X209072Y110862D01*
X208983Y110875D01*
X208970D01*
X208957D01*
X208919Y110888D01*
X208855Y110901D01*
X208791Y110913D01*
X208702Y110926D01*
X208600Y110952D01*
X208473Y110977D01*
X208498Y110952D01*
X208575Y110888D01*
X208677Y110799D01*
X208804Y110658D01*
X208957Y110493D01*
X209123Y110301D01*
X209276Y110085D01*
X209416Y109842D01*
Y109830D01*
X209429Y109817D01*
X209442Y109779D01*
X209467Y109728D01*
X209531Y109600D01*
X209582Y109434D01*
X209646Y109243D01*
X209709Y109014D01*
X209748Y108784D01*
X209760Y108555D01*
Y108465D01*
X209748Y108363D01*
X209735Y108249D01*
X209709Y108096D01*
X209671Y107943D01*
X209620Y107777D01*
X209556Y107624D01*
X209544Y107611D01*
X209518Y107560D01*
X209467Y107484D01*
X209416Y107394D01*
X209327Y107280D01*
X209238Y107178D01*
X209136Y107063D01*
X209008Y106948D01*
X208995Y106935D01*
X208944Y106897D01*
X208868Y106846D01*
X208766Y106795D01*
X208651Y106719D01*
X208511Y106642D01*
X208358Y106578D01*
X208192Y106515D01*
X208167D01*
X208116Y106489D01*
X208014Y106476D01*
X207899Y106451D01*
X207746Y106425D01*
X207580Y106400D01*
X207402Y106387D01*
X207210Y106374D01*
X207198D01*
X207172D01*
X207134D01*
X207083D01*
X206943Y106387D01*
X206764Y106413D01*
X206547Y106438D01*
X206318Y106489D01*
X206063Y106566D01*
X205808Y106655D01*
X205795D01*
X205782Y106668D01*
X205744Y106680D01*
X205693Y106706D01*
X205566Y106770D01*
X205400Y106859D01*
X205209Y106961D01*
X205005Y107088D01*
X204801Y107229D01*
X204597Y107394D01*
X204571Y107420D01*
X204507Y107484D01*
X204418Y107573D01*
X204291Y107713D01*
X204163Y107866D01*
X204023Y108057D01*
X203883Y108261D01*
X203755Y108478D01*
Y108491D01*
X203742Y108504D01*
X203730Y108542D01*
X203704Y108593D01*
X203653Y108708D01*
X203589Y108873D01*
X203538Y109065D01*
X203487Y109281D01*
X203449Y109524D01*
X203436Y109766D01*
Y109893D01*
X203462Y110021D01*
X203487Y110187D01*
X203538Y110378D01*
X203602Y110582D01*
X203704Y110786D01*
X203844Y110977D01*
X203857Y111003D01*
X203921Y111054D01*
X203997Y111143D01*
X204112Y111245D01*
X204252Y111360D01*
X204418Y111462D01*
X204609Y111564D01*
X204813Y111653D01*
X201090Y112456D01*
Y113259D01*
X208613Y111653D01*
D02*
G37*
G36*
X208269Y104194D02*
X208281D01*
X208307Y104181D01*
X208383Y104169D01*
X208409D01*
X208473D01*
X208498D01*
X208549Y104181D01*
X208638Y104194D01*
X208728Y104245D01*
X208830Y104309D01*
X208919Y104411D01*
X208970Y104551D01*
X208995Y104628D01*
Y104819D01*
X208983Y104908D01*
X208957Y105023D01*
Y105036D01*
X208944Y105048D01*
X208932Y105138D01*
X208906Y105240D01*
X208868Y105367D01*
X209505Y105342D01*
Y105329D01*
X209518Y105303D01*
X209544Y105252D01*
X209556Y105189D01*
X209582Y105099D01*
X209607Y105010D01*
X209658Y104781D01*
Y104768D01*
X209671Y104730D01*
Y104666D01*
X209684Y104589D01*
X209697Y104411D01*
X209709Y104232D01*
Y104156D01*
X209697Y104079D01*
X209684Y103990D01*
X209658Y103875D01*
X209620Y103761D01*
X209569Y103646D01*
X209493Y103544D01*
X209480Y103531D01*
X209454Y103506D01*
X209403Y103467D01*
X209327Y103429D01*
X209250Y103378D01*
X209136Y103340D01*
X209008Y103314D01*
X208868Y103302D01*
X208855D01*
X208817D01*
X208766D01*
X208715Y103314D01*
X208702D01*
X208664Y103327D01*
X208600Y103340D01*
X208536Y103353D01*
X201090Y104921D01*
Y105724D01*
X208269Y104194D01*
D02*
G37*
G36*
X205234Y102626D02*
X205311Y102613D01*
X205387Y102600D01*
X205591Y102537D01*
X205808Y102447D01*
X205923Y102384D01*
X206037Y102294D01*
X206152Y102205D01*
X206254Y102103D01*
X206356Y101976D01*
X206445Y101835D01*
Y101823D01*
X206458Y101797D01*
X206484Y101746D01*
X206509Y101682D01*
X206547Y101606D01*
X206586Y101504D01*
X206624Y101376D01*
X206662Y101236D01*
X206713Y101070D01*
X206751Y100892D01*
X206790Y100688D01*
X206815Y100458D01*
X206853Y100216D01*
X206866Y99961D01*
X206892Y99681D01*
Y98941D01*
X206879Y98673D01*
Y98533D01*
X206866Y98431D01*
Y98304D01*
X206853Y98163D01*
Y98010D01*
X206841Y97845D01*
X206853D01*
X206892Y97832D01*
X206955D01*
X207019Y97819D01*
X207032D01*
X207070D01*
X207121D01*
X207172D01*
X207185D01*
X207236D01*
X207325D01*
X207414Y97832D01*
X207542Y97845D01*
X207669Y97857D01*
X207937Y97921D01*
X207950D01*
X208001Y97947D01*
X208065Y97972D01*
X208154Y98010D01*
X208243Y98049D01*
X208358Y98100D01*
X208575Y98240D01*
X208587Y98253D01*
X208613Y98278D01*
X208664Y98329D01*
X208728Y98393D01*
X208791Y98469D01*
X208868Y98559D01*
X209008Y98763D01*
Y98775D01*
X209034Y98814D01*
X209059Y98890D01*
X209085Y98979D01*
X209110Y99081D01*
X209136Y99209D01*
X209148Y99349D01*
X209161Y99502D01*
Y99617D01*
X209148Y99681D01*
Y99770D01*
X209123Y99872D01*
X209085Y100089D01*
Y100101D01*
X209072Y100140D01*
X209046Y100191D01*
X209021Y100267D01*
X208944Y100446D01*
X208855Y100637D01*
X208842Y100650D01*
X208830Y100688D01*
X208791Y100739D01*
X208753Y100803D01*
X208638Y100956D01*
X208498Y101121D01*
X208485Y101134D01*
X208460Y101160D01*
X208422Y101198D01*
X208358Y101262D01*
X208205Y101376D01*
X208026Y101504D01*
X208218Y102154D01*
X208230Y102141D01*
X208281Y102116D01*
X208345Y102078D01*
X208422Y102014D01*
X208524Y101937D01*
X208626Y101848D01*
X208855Y101644D01*
X208868Y101631D01*
X208906Y101593D01*
X208957Y101529D01*
X209021Y101440D01*
X209097Y101351D01*
X209174Y101236D01*
X209340Y100968D01*
X209352Y100956D01*
X209378Y100905D01*
X209403Y100828D01*
X209454Y100739D01*
X209505Y100611D01*
X209556Y100484D01*
X209646Y100191D01*
Y100178D01*
X209658Y100127D01*
X209684Y100038D01*
X209697Y99936D01*
X209722Y99821D01*
X209748Y99681D01*
X209760Y99362D01*
Y99273D01*
X209748Y99158D01*
X209735Y99030D01*
X209709Y98865D01*
X209684Y98699D01*
X209633Y98520D01*
X209569Y98355D01*
X209556Y98342D01*
X209531Y98278D01*
X209480Y98202D01*
X209429Y98100D01*
X209340Y97985D01*
X209250Y97857D01*
X209148Y97730D01*
X209021Y97615D01*
X209008Y97602D01*
X208957Y97564D01*
X208881Y97513D01*
X208779Y97449D01*
X208664Y97373D01*
X208524Y97309D01*
X208371Y97233D01*
X208205Y97169D01*
X208179D01*
X208128Y97143D01*
X208026Y97118D01*
X207899Y97092D01*
X207746Y97067D01*
X207580Y97041D01*
X207389Y97029D01*
X207185Y97016D01*
X207172D01*
X207147D01*
X207108D01*
X207057D01*
X206917Y97029D01*
X206739Y97054D01*
X206522Y97080D01*
X206292Y97131D01*
X206037Y97207D01*
X205782Y97296D01*
X205770D01*
X205757Y97309D01*
X205719Y97322D01*
X205668Y97347D01*
X205540Y97411D01*
X205374Y97500D01*
X205196Y97602D01*
X204992Y97743D01*
X204788Y97896D01*
X204597Y98061D01*
X204571Y98087D01*
X204507Y98151D01*
X204418Y98253D01*
X204291Y98393D01*
X204163Y98571D01*
X204023Y98763D01*
X203883Y98992D01*
X203755Y99234D01*
Y99247D01*
X203742Y99260D01*
X203730Y99298D01*
X203704Y99349D01*
X203653Y99489D01*
X203589Y99668D01*
X203538Y99885D01*
X203487Y100127D01*
X203449Y100407D01*
X203436Y100688D01*
Y100841D01*
X203449Y100943D01*
X203462Y101058D01*
X203475Y101185D01*
X203538Y101453D01*
Y101466D01*
X203551Y101517D01*
X203577Y101580D01*
X203615Y101670D01*
X203717Y101861D01*
X203857Y102065D01*
X203870Y102078D01*
X203895Y102116D01*
X203934Y102154D01*
X203997Y102218D01*
X204074Y102282D01*
X204163Y102358D01*
X204367Y102486D01*
X204380Y102498D01*
X204418Y102511D01*
X204482Y102537D01*
X204571Y102562D01*
X204673Y102588D01*
X204801Y102613D01*
X204928Y102639D01*
X205081D01*
X205094D01*
X205119D01*
X205170D01*
X205234Y102626D01*
D02*
G37*
G36*
X202263Y96697D02*
Y95894D01*
X201090Y96136D01*
Y96939D01*
X202263Y96697D01*
D02*
G37*
G36*
X209646Y95116D02*
Y94326D01*
X203538Y95613D01*
Y96417D01*
X209646Y95116D01*
D02*
G37*
G36*
X205298Y93548D02*
X205464Y93535D01*
X205642Y93510D01*
X205846Y93471D01*
X206076Y93433D01*
X209646Y92681D01*
Y91890D01*
X206241Y92617D01*
X206216D01*
X206152Y92630D01*
X206063Y92655D01*
X205935Y92668D01*
X205795Y92694D01*
X205655Y92706D01*
X205349Y92719D01*
X205336D01*
X205298D01*
X205234D01*
X205158Y92706D01*
X205068Y92694D01*
X204979Y92668D01*
X204750Y92592D01*
X204648Y92541D01*
X204533Y92477D01*
X204444Y92400D01*
X204342Y92298D01*
X204278Y92184D01*
X204214Y92056D01*
X204176Y91903D01*
X204163Y91725D01*
Y91674D01*
X204176Y91610D01*
Y91521D01*
X204201Y91419D01*
X204227Y91317D01*
X204252Y91189D01*
X204303Y91062D01*
Y91049D01*
X204329Y91011D01*
X204354Y90934D01*
X204393Y90858D01*
X204444Y90756D01*
X204507Y90641D01*
X204673Y90399D01*
X204686Y90386D01*
X204711Y90348D01*
X204762Y90284D01*
X204826Y90207D01*
X204903Y90118D01*
X205005Y90016D01*
X205221Y89799D01*
X205234Y89787D01*
X205272Y89761D01*
X205336Y89710D01*
X205425Y89646D01*
X205527Y89570D01*
X205642Y89493D01*
X205910Y89353D01*
X209646Y88563D01*
Y87772D01*
X201090Y89583D01*
Y90386D01*
X204914Y89573D01*
X204903Y89595D01*
X204864Y89621D01*
X204813Y89659D01*
X204686Y89761D01*
X204533Y89901D01*
X204354Y90067D01*
X204163Y90271D01*
X203997Y90501D01*
X203832Y90756D01*
Y90768D01*
X203819Y90794D01*
X203793Y90819D01*
X203768Y90883D01*
X203704Y91011D01*
X203628Y91202D01*
X203564Y91406D01*
X203500Y91648D01*
X203449Y91903D01*
X203436Y92171D01*
Y92298D01*
X203462Y92426D01*
X203487Y92592D01*
X203538Y92757D01*
X203615Y92936D01*
X203717Y93102D01*
X203857Y93242D01*
X203870Y93255D01*
X203934Y93293D01*
X204023Y93344D01*
X204150Y93408D01*
X204316Y93459D01*
X204507Y93510D01*
X204737Y93548D01*
X204992Y93561D01*
X205017D01*
X205068D01*
X205170D01*
X205298Y93548D01*
D02*
G37*
G36*
X202888Y87160D02*
X202875Y87147D01*
X202824Y87122D01*
X202748Y87058D01*
X202659Y86982D01*
X202544Y86880D01*
X202442Y86752D01*
X202340Y86586D01*
X202238Y86408D01*
X202225Y86382D01*
X202200Y86319D01*
X202161Y86204D01*
X202110Y86064D01*
X202072Y85885D01*
X202034Y85681D01*
X202008Y85452D01*
X201996Y85197D01*
Y85095D01*
X202008Y84980D01*
Y84840D01*
X202034Y84674D01*
X202059Y84495D01*
X202085Y84317D01*
X202136Y84138D01*
Y84126D01*
X202161Y84062D01*
X202187Y83985D01*
X202238Y83883D01*
X202289Y83769D01*
X202353Y83654D01*
X202429Y83526D01*
X202518Y83412D01*
X202531Y83399D01*
X202557Y83361D01*
X202608Y83310D01*
X202684Y83259D01*
X202773Y83182D01*
X202863Y83118D01*
X202977Y83055D01*
X203105Y82991D01*
X203118D01*
X203156Y82965D01*
X203232Y82953D01*
X203322Y82927D01*
X203424Y82902D01*
X203551Y82889D01*
X203819Y82863D01*
X203832D01*
X203870D01*
X203921Y82876D01*
X203985D01*
X204138Y82914D01*
X204303Y82978D01*
X204316D01*
X204342Y83004D01*
X204380Y83029D01*
X204418Y83067D01*
X204546Y83169D01*
X204660Y83322D01*
Y83335D01*
X204686Y83361D01*
X204711Y83412D01*
X204750Y83488D01*
X204788Y83577D01*
X204826Y83667D01*
X204877Y83781D01*
X204915Y83909D01*
Y83922D01*
X204928Y83973D01*
X204954Y84049D01*
X204979Y84151D01*
X205017Y84266D01*
X205056Y84406D01*
X205094Y84572D01*
X205132Y84738D01*
Y84763D01*
X205158Y84827D01*
X205183Y84916D01*
X205209Y85044D01*
X205260Y85184D01*
X205298Y85350D01*
X205413Y85668D01*
Y85681D01*
X205438Y85745D01*
X205464Y85821D01*
X205515Y85911D01*
X205566Y86025D01*
X205617Y86153D01*
X205770Y86382D01*
X205782Y86395D01*
X205808Y86433D01*
X205859Y86484D01*
X205910Y86561D01*
X205986Y86637D01*
X206076Y86714D01*
X206178Y86790D01*
X206292Y86854D01*
X206305Y86867D01*
X206343Y86880D01*
X206407Y86905D01*
X206496Y86943D01*
X206611Y86969D01*
X206739Y86994D01*
X206879Y87007D01*
X207032Y87020D01*
X207045D01*
X207057D01*
X207096D01*
X207147D01*
X207274Y87007D01*
X207427Y86982D01*
X207618Y86956D01*
X207822Y86905D01*
X208014Y86841D01*
X208218Y86752D01*
X208243Y86739D01*
X208294Y86701D01*
X208396Y86650D01*
X208511Y86574D01*
X208638Y86472D01*
X208779Y86344D01*
X208919Y86204D01*
X209046Y86038D01*
X209059Y86013D01*
X209097Y85962D01*
X209161Y85860D01*
X209238Y85732D01*
X209314Y85566D01*
X209391Y85388D01*
X209480Y85184D01*
X209544Y84954D01*
Y84942D01*
X209556Y84929D01*
Y84891D01*
X209569Y84852D01*
X209595Y84725D01*
X209620Y84559D01*
X209658Y84368D01*
X209684Y84138D01*
X209697Y83896D01*
X209709Y83628D01*
Y83552D01*
X209697Y83450D01*
X209684Y83322D01*
X209671Y83169D01*
X209646Y82978D01*
X209607Y82787D01*
X209556Y82570D01*
X209493Y82341D01*
X209416Y82098D01*
X209314Y81856D01*
X209199Y81614D01*
X209072Y81372D01*
X208906Y81142D01*
X208728Y80913D01*
X208511Y80709D01*
X207848Y81244D01*
X207873Y81257D01*
X207924Y81308D01*
X208014Y81384D01*
X208128Y81486D01*
X208256Y81627D01*
X208396Y81792D01*
X208536Y81996D01*
X208664Y82226D01*
Y82239D01*
X208677Y82251D01*
X208689Y82290D01*
X208715Y82341D01*
X208740Y82404D01*
X208766Y82481D01*
X208830Y82672D01*
X208893Y82902D01*
X208944Y83169D01*
X208983Y83475D01*
X208995Y83807D01*
Y83909D01*
X208983Y83985D01*
Y84075D01*
X208970Y84177D01*
X208944Y84419D01*
X208893Y84687D01*
X208817Y84967D01*
X208702Y85248D01*
X208562Y85490D01*
Y85503D01*
X208536Y85515D01*
X208473Y85592D01*
X208371Y85694D01*
X208230Y85809D01*
X208052Y85923D01*
X207835Y86013D01*
X207580Y86089D01*
X207440Y86102D01*
X207287Y86115D01*
X207274D01*
X207236D01*
X207172Y86102D01*
X207108D01*
X206943Y86051D01*
X206853Y86025D01*
X206764Y85974D01*
X206751D01*
X206726Y85949D01*
X206688Y85923D01*
X206637Y85872D01*
X206573Y85821D01*
X206509Y85758D01*
X206445Y85668D01*
X206382Y85579D01*
X206369Y85566D01*
X206356Y85528D01*
X206318Y85477D01*
X206280Y85401D01*
X206229Y85311D01*
X206178Y85209D01*
X206139Y85082D01*
X206088Y84942D01*
Y84929D01*
X206063Y84878D01*
X206037Y84801D01*
X206012Y84699D01*
X205974Y84572D01*
X205923Y84419D01*
X205884Y84253D01*
X205833Y84075D01*
X205821Y84049D01*
X205808Y83985D01*
X205782Y83896D01*
X205744Y83781D01*
X205706Y83641D01*
X205655Y83488D01*
X205553Y83182D01*
X205540Y83169D01*
X205527Y83118D01*
X205489Y83042D01*
X205451Y82953D01*
X205349Y82736D01*
X205209Y82519D01*
X205196Y82506D01*
X205170Y82481D01*
X205132Y82430D01*
X205068Y82366D01*
X204928Y82239D01*
X204737Y82111D01*
X204724D01*
X204686Y82086D01*
X204622Y82073D01*
X204546Y82047D01*
X204456Y82022D01*
X204342Y81996D01*
X204214Y81984D01*
X204074Y81971D01*
X204061D01*
X204048D01*
X204010D01*
X203959D01*
X203844Y81984D01*
X203679Y82009D01*
X203500Y82035D01*
X203309Y82073D01*
X203105Y82137D01*
X202901Y82226D01*
X202875Y82239D01*
X202812Y82277D01*
X202722Y82341D01*
X202595Y82417D01*
X202455Y82519D01*
X202314Y82647D01*
X202161Y82787D01*
X202021Y82953D01*
X202008Y82978D01*
X201957Y83029D01*
X201894Y83131D01*
X201817Y83259D01*
X201715Y83412D01*
X201626Y83603D01*
X201537Y83807D01*
X201460Y84024D01*
Y84036D01*
X201447Y84049D01*
Y84087D01*
X201435Y84126D01*
X201396Y84253D01*
X201358Y84419D01*
X201333Y84623D01*
X201294Y84840D01*
X201282Y85082D01*
X201269Y85350D01*
Y85477D01*
X201282Y85630D01*
X201294Y85821D01*
X201333Y86025D01*
X201371Y86255D01*
X201435Y86497D01*
X201524Y86714D01*
Y86727D01*
X201537Y86739D01*
X201562Y86816D01*
X201626Y86918D01*
X201702Y87058D01*
X201804Y87211D01*
X201919Y87377D01*
X202059Y87543D01*
X202225Y87696D01*
X202888Y87160D01*
D02*
G37*
G36*
X203691Y79216D02*
X203679D01*
X203653Y79203D01*
X203615D01*
X203564Y79190D01*
X203436Y79152D01*
X203271Y79088D01*
X203079Y79012D01*
X202901Y78910D01*
X202722Y78795D01*
X202582Y78655D01*
X202569Y78642D01*
X202531Y78578D01*
X202467Y78489D01*
X202404Y78361D01*
X202340Y78208D01*
X202276Y78017D01*
X202238Y77800D01*
X202225Y77558D01*
Y77482D01*
X202238Y77431D01*
X202251Y77290D01*
X202289Y77099D01*
X202340Y76882D01*
X202429Y76653D01*
X202544Y76398D01*
X202697Y76156D01*
Y76143D01*
X202722Y76130D01*
X202786Y76054D01*
X202888Y75926D01*
X203054Y75786D01*
X203245Y75620D01*
X203500Y75442D01*
X203793Y75263D01*
X204138Y75110D01*
X204150D01*
X204176Y75097D01*
X204227Y75072D01*
X204303Y75046D01*
X204393Y75021D01*
X204495Y74995D01*
X204609Y74957D01*
X204737Y74919D01*
X205030Y74855D01*
X205362Y74791D01*
X205719Y74740D01*
X206076Y74728D01*
X206088D01*
X206127D01*
X206178D01*
X206254Y74740D01*
X206343D01*
X206445Y74753D01*
X206675Y74791D01*
X206943Y74855D01*
X207210Y74932D01*
X207478Y75059D01*
X207720Y75225D01*
X207746Y75250D01*
X207810Y75314D01*
X207899Y75429D01*
X208001Y75569D01*
X208116Y75760D01*
X208205Y75977D01*
X208269Y76219D01*
X208281Y76347D01*
X208294Y76487D01*
Y76551D01*
X208281Y76602D01*
X208269Y76742D01*
X208243Y76908D01*
X208179Y77112D01*
X208103Y77329D01*
X208001Y77545D01*
X207848Y77775D01*
Y77788D01*
X207822Y77800D01*
X207759Y77877D01*
X207657Y77979D01*
X207504Y78106D01*
X207312Y78247D01*
X207083Y78400D01*
X206802Y78527D01*
X206484Y78655D01*
X206764Y80491D01*
X206777D01*
X206828Y80465D01*
X206904Y80440D01*
X207006Y80389D01*
X207134Y80325D01*
X207274Y80261D01*
X207440Y80185D01*
X207606Y80083D01*
X207975Y79853D01*
X208345Y79573D01*
X208715Y79254D01*
X208881Y79063D01*
X209034Y78871D01*
X209046Y78859D01*
X209072Y78820D01*
X209110Y78769D01*
X209148Y78680D01*
X209212Y78578D01*
X209276Y78463D01*
X209352Y78310D01*
X209416Y78157D01*
X209493Y77979D01*
X209569Y77788D01*
X209633Y77584D01*
X209684Y77367D01*
X209735Y77137D01*
X209773Y76895D01*
X209799Y76640D01*
X209811Y76372D01*
Y76296D01*
X209799Y76219D01*
Y76105D01*
X209786Y75964D01*
X209760Y75811D01*
X209735Y75633D01*
X209684Y75454D01*
X209633Y75250D01*
X209569Y75046D01*
X209493Y74830D01*
X209403Y74626D01*
X209289Y74409D01*
X209161Y74205D01*
X209008Y74014D01*
X208842Y73835D01*
X208830Y73822D01*
X208791Y73797D01*
X208740Y73746D01*
X208664Y73695D01*
X208562Y73631D01*
X208434Y73555D01*
X208281Y73465D01*
X208116Y73389D01*
X207924Y73300D01*
X207720Y73210D01*
X207478Y73134D01*
X207223Y73070D01*
X206955Y73019D01*
X206649Y72968D01*
X206343Y72943D01*
X205999Y72930D01*
X205986D01*
X205935D01*
X205846D01*
X205744Y72943D01*
X205617D01*
X205451Y72968D01*
X205285Y72981D01*
X205094Y73006D01*
X204890Y73032D01*
X204660Y73083D01*
X204201Y73185D01*
X203717Y73338D01*
X203487Y73427D01*
X203245Y73529D01*
X203232Y73542D01*
X203194Y73555D01*
X203130Y73593D01*
X203041Y73644D01*
X202939Y73708D01*
X202812Y73784D01*
X202684Y73873D01*
X202531Y73975D01*
X202225Y74218D01*
X201906Y74498D01*
X201600Y74842D01*
X201460Y75034D01*
X201333Y75225D01*
X201320Y75238D01*
X201307Y75276D01*
X201269Y75340D01*
X201231Y75416D01*
X201180Y75518D01*
X201116Y75633D01*
X201052Y75773D01*
X200988Y75926D01*
X200937Y76092D01*
X200874Y76283D01*
X200759Y76678D01*
X200682Y77112D01*
X200670Y77341D01*
X200657Y77584D01*
Y77724D01*
X200670Y77826D01*
X200682Y77941D01*
X200695Y78081D01*
X200721Y78247D01*
X200759Y78412D01*
X200848Y78782D01*
X200912Y78973D01*
X200988Y79165D01*
X201078Y79369D01*
X201180Y79547D01*
X201294Y79738D01*
X201435Y79904D01*
X201447Y79917D01*
X201473Y79942D01*
X201511Y79981D01*
X201575Y80044D01*
X201651Y80108D01*
X201741Y80197D01*
X201855Y80274D01*
X201983Y80363D01*
X202123Y80452D01*
X202276Y80542D01*
X202455Y80631D01*
X202633Y80720D01*
X202837Y80797D01*
X203054Y80860D01*
X203283Y80911D01*
X203526Y80950D01*
X203691Y79216D01*
D02*
G37*
G36*
X204635Y71821D02*
X204750Y71808D01*
X204903Y71795D01*
X205068Y71782D01*
X205247Y71757D01*
X205451Y71719D01*
X205668Y71668D01*
X206114Y71553D01*
X206356Y71476D01*
X206598Y71387D01*
X206853Y71285D01*
X207096Y71170D01*
X207108Y71158D01*
X207159Y71145D01*
X207223Y71107D01*
X207312Y71056D01*
X207427Y70979D01*
X207542Y70903D01*
X207682Y70813D01*
X207835Y70699D01*
X208001Y70584D01*
X208167Y70444D01*
X208332Y70303D01*
X208498Y70138D01*
X208817Y69793D01*
X208970Y69589D01*
X209110Y69385D01*
X209123Y69373D01*
X209136Y69334D01*
X209174Y69271D01*
X209225Y69194D01*
X209276Y69079D01*
X209327Y68952D01*
X209391Y68812D01*
X209454Y68646D01*
X209531Y68467D01*
X209595Y68276D01*
X209646Y68059D01*
X209697Y67843D01*
X209786Y67358D01*
X209799Y67116D01*
X209811Y66848D01*
Y66733D01*
X209799Y66644D01*
Y66542D01*
X209786Y66415D01*
X209760Y66274D01*
X209735Y66121D01*
X209671Y65803D01*
X209569Y65446D01*
X209429Y65101D01*
X209352Y64936D01*
X209250Y64770D01*
X209238Y64757D01*
X209225Y64732D01*
X209187Y64693D01*
X209148Y64630D01*
X209034Y64489D01*
X208868Y64311D01*
X208664Y64120D01*
X208422Y63928D01*
X208154Y63750D01*
X207861Y63597D01*
X207848D01*
X207822Y63584D01*
X207784Y63571D01*
X207720Y63546D01*
X207644Y63520D01*
X207555Y63482D01*
X207338Y63431D01*
X207083Y63367D01*
X206802Y63304D01*
X206509Y63265D01*
X206190Y63253D01*
X206178D01*
X206152D01*
X206114D01*
X206050D01*
X205986Y63265D01*
X205897D01*
X205693Y63278D01*
X205438Y63304D01*
X205158Y63355D01*
X204852Y63406D01*
X204533Y63482D01*
X204520D01*
X204482Y63495D01*
X204418Y63520D01*
X204342Y63546D01*
X204240Y63571D01*
X204125Y63610D01*
X203985Y63661D01*
X203844Y63712D01*
X203526Y63839D01*
X203194Y64005D01*
X202850Y64196D01*
X202518Y64413D01*
X202506Y64426D01*
X202480Y64438D01*
X202442Y64477D01*
X202378Y64528D01*
X202302Y64591D01*
X202225Y64668D01*
X202034Y64846D01*
X201817Y65076D01*
X201588Y65344D01*
X201371Y65650D01*
X201167Y65994D01*
Y66007D01*
X201141Y66032D01*
X201116Y66096D01*
X201090Y66160D01*
X201052Y66249D01*
X201001Y66364D01*
X200963Y66491D01*
X200912Y66631D01*
X200861Y66784D01*
X200823Y66950D01*
X200733Y67320D01*
X200682Y67728D01*
X200657Y68174D01*
Y68327D01*
X200670Y68442D01*
X200682Y68582D01*
X200708Y68748D01*
X200746Y68926D01*
X200784Y69118D01*
X200835Y69334D01*
X200899Y69551D01*
X200988Y69768D01*
X201090Y69985D01*
X201205Y70214D01*
X201345Y70418D01*
X201498Y70635D01*
X201677Y70826D01*
X201690Y70839D01*
X201728Y70864D01*
X201779Y70915D01*
X201868Y70979D01*
X201970Y71056D01*
X202085Y71145D01*
X202238Y71234D01*
X202404Y71336D01*
X202582Y71425D01*
X202786Y71515D01*
X203016Y71604D01*
X203258Y71680D01*
X203513Y71744D01*
X203793Y71795D01*
X204087Y71821D01*
X204393Y71833D01*
X204405D01*
X204456D01*
X204533D01*
X204635Y71821D01*
D02*
G37*
G36*
X202302Y62819D02*
Y58459D01*
X204418Y58012D01*
Y62296D01*
X205897Y61990D01*
Y57706D01*
X209646Y56916D01*
Y55118D01*
X200823Y56967D01*
Y63138D01*
X202302Y62819D01*
D02*
G37*
G36*
X205234Y55410D02*
X205311Y55398D01*
X205387Y55385D01*
X205591Y55321D01*
X205808Y55232D01*
X205923Y55168D01*
X206037Y55079D01*
X206152Y54990D01*
X206254Y54888D01*
X206356Y54760D01*
X206445Y54620D01*
Y54607D01*
X206458Y54582D01*
X206484Y54531D01*
X206509Y54467D01*
X206547Y54391D01*
X206586Y54289D01*
X206624Y54161D01*
X206662Y54021D01*
X206713Y53855D01*
X206751Y53676D01*
X206790Y53473D01*
X206815Y53243D01*
X206853Y53001D01*
X206866Y52746D01*
X206892Y52465D01*
Y51726D01*
X206879Y51458D01*
Y51318D01*
X206866Y51216D01*
Y51088D01*
X206853Y50948D01*
Y50795D01*
X206841Y50629D01*
X206853D01*
X206892Y50617D01*
X206955D01*
X207019Y50604D01*
X207032D01*
X207070D01*
X207121D01*
X207172D01*
X207185D01*
X207236D01*
X207325D01*
X207414Y50617D01*
X207542Y50629D01*
X207669Y50642D01*
X207937Y50706D01*
X207950D01*
X208001Y50731D01*
X208065Y50757D01*
X208154Y50795D01*
X208243Y50833D01*
X208358Y50884D01*
X208575Y51025D01*
X208587Y51037D01*
X208613Y51063D01*
X208664Y51114D01*
X208728Y51178D01*
X208791Y51254D01*
X208868Y51343D01*
X209008Y51547D01*
Y51560D01*
X209034Y51598D01*
X209059Y51675D01*
X209085Y51764D01*
X209110Y51866D01*
X209136Y51994D01*
X209148Y52134D01*
X209161Y52287D01*
Y52402D01*
X209148Y52465D01*
Y52555D01*
X209123Y52657D01*
X209085Y52873D01*
Y52886D01*
X209072Y52924D01*
X209046Y52975D01*
X209021Y53052D01*
X208944Y53230D01*
X208855Y53421D01*
X208842Y53434D01*
X208830Y53473D01*
X208791Y53523D01*
X208753Y53587D01*
X208638Y53740D01*
X208498Y53906D01*
X208485Y53919D01*
X208460Y53944D01*
X208422Y53983D01*
X208358Y54046D01*
X208205Y54161D01*
X208026Y54289D01*
X208218Y54939D01*
X208230Y54926D01*
X208281Y54900D01*
X208345Y54862D01*
X208422Y54799D01*
X208524Y54722D01*
X208626Y54633D01*
X208855Y54429D01*
X208868Y54416D01*
X208906Y54378D01*
X208957Y54314D01*
X209021Y54225D01*
X209097Y54136D01*
X209174Y54021D01*
X209340Y53753D01*
X209352Y53740D01*
X209378Y53689D01*
X209403Y53613D01*
X209454Y53523D01*
X209505Y53396D01*
X209556Y53268D01*
X209646Y52975D01*
Y52962D01*
X209658Y52912D01*
X209684Y52822D01*
X209697Y52720D01*
X209722Y52605D01*
X209748Y52465D01*
X209760Y52147D01*
Y52057D01*
X209748Y51942D01*
X209735Y51815D01*
X209709Y51649D01*
X209684Y51484D01*
X209633Y51305D01*
X209569Y51139D01*
X209556Y51126D01*
X209531Y51063D01*
X209480Y50986D01*
X209429Y50884D01*
X209340Y50770D01*
X209250Y50642D01*
X209148Y50515D01*
X209021Y50400D01*
X209008Y50387D01*
X208957Y50349D01*
X208881Y50298D01*
X208779Y50234D01*
X208664Y50157D01*
X208524Y50094D01*
X208371Y50017D01*
X208205Y49953D01*
X208179D01*
X208128Y49928D01*
X208026Y49902D01*
X207899Y49877D01*
X207746Y49852D01*
X207580Y49826D01*
X207389Y49813D01*
X207185Y49801D01*
X207172D01*
X207147D01*
X207108D01*
X207057D01*
X206917Y49813D01*
X206739Y49839D01*
X206522Y49864D01*
X206292Y49915D01*
X206037Y49992D01*
X205782Y50081D01*
X205770D01*
X205757Y50094D01*
X205719Y50107D01*
X205668Y50132D01*
X205540Y50196D01*
X205374Y50285D01*
X205196Y50387D01*
X204992Y50527D01*
X204788Y50680D01*
X204597Y50846D01*
X204571Y50871D01*
X204507Y50935D01*
X204418Y51037D01*
X204291Y51178D01*
X204163Y51356D01*
X204023Y51547D01*
X203883Y51777D01*
X203755Y52019D01*
Y52032D01*
X203742Y52044D01*
X203730Y52083D01*
X203704Y52134D01*
X203653Y52274D01*
X203589Y52452D01*
X203538Y52669D01*
X203487Y52912D01*
X203449Y53192D01*
X203436Y53473D01*
Y53626D01*
X203449Y53728D01*
X203462Y53842D01*
X203475Y53970D01*
X203538Y54238D01*
Y54250D01*
X203551Y54301D01*
X203577Y54365D01*
X203615Y54454D01*
X203717Y54646D01*
X203857Y54849D01*
X203870Y54862D01*
X203895Y54900D01*
X203934Y54939D01*
X203997Y55002D01*
X204074Y55066D01*
X204163Y55143D01*
X204367Y55270D01*
X204380Y55283D01*
X204418Y55296D01*
X204482Y55321D01*
X204571Y55347D01*
X204673Y55372D01*
X204801Y55398D01*
X204928Y55423D01*
X205081D01*
X205094D01*
X205119D01*
X205170D01*
X205234Y55410D01*
D02*
G37*
G36*
X208269Y47620D02*
X208281D01*
X208307Y47607D01*
X208383Y47595D01*
X208409D01*
X208473D01*
X208498D01*
X208549Y47607D01*
X208638Y47620D01*
X208728Y47671D01*
X208830Y47735D01*
X208919Y47837D01*
X208970Y47977D01*
X208995Y48054D01*
Y48245D01*
X208983Y48334D01*
X208957Y48449D01*
Y48462D01*
X208944Y48474D01*
X208932Y48564D01*
X208906Y48666D01*
X208868Y48793D01*
X209505Y48768D01*
Y48755D01*
X209518Y48730D01*
X209544Y48678D01*
X209556Y48615D01*
X209582Y48526D01*
X209607Y48436D01*
X209658Y48207D01*
Y48194D01*
X209671Y48156D01*
Y48092D01*
X209684Y48015D01*
X209697Y47837D01*
X209709Y47659D01*
Y47582D01*
X209697Y47506D01*
X209684Y47416D01*
X209658Y47302D01*
X209620Y47187D01*
X209569Y47072D01*
X209493Y46970D01*
X209480Y46957D01*
X209454Y46932D01*
X209403Y46894D01*
X209327Y46855D01*
X209250Y46804D01*
X209136Y46766D01*
X209008Y46740D01*
X208868Y46728D01*
X208855D01*
X208817D01*
X208766D01*
X208715Y46740D01*
X208702D01*
X208664Y46753D01*
X208600Y46766D01*
X208536Y46779D01*
X201090Y48347D01*
Y49150D01*
X208269Y47620D01*
D02*
G37*
G36*
X206267Y45886D02*
X206445Y45861D01*
X206649Y45835D01*
X206892Y45784D01*
X207147Y45720D01*
X207402Y45631D01*
X207414D01*
X207427Y45619D01*
X207465Y45606D01*
X207516Y45580D01*
X207644Y45516D01*
X207810Y45440D01*
X207988Y45338D01*
X208192Y45210D01*
X208409Y45057D01*
X208613Y44892D01*
X208638Y44866D01*
X208702Y44815D01*
X208791Y44713D01*
X208919Y44586D01*
X209046Y44420D01*
X209187Y44241D01*
X209327Y44038D01*
X209454Y43808D01*
Y43795D01*
X209467Y43782D01*
X209505Y43706D01*
X209556Y43578D01*
X209607Y43413D01*
X209658Y43222D01*
X209709Y43005D01*
X209748Y42775D01*
X209760Y42520D01*
Y42444D01*
X209748Y42393D01*
X209735Y42265D01*
X209709Y42087D01*
X209671Y41895D01*
X209595Y41691D01*
X209505Y41488D01*
X209378Y41296D01*
X209365Y41271D01*
X209301Y41220D01*
X209225Y41131D01*
X209110Y41041D01*
X208957Y40927D01*
X208791Y40812D01*
X208600Y40710D01*
X208383Y40620D01*
X212132Y39817D01*
Y39027D01*
X203538Y40850D01*
Y41551D01*
X204710Y41312D01*
X204711Y41309D01*
X204724D01*
X204710Y41312D01*
X204699Y41335D01*
X204622Y41398D01*
X204520Y41488D01*
X204393Y41628D01*
X204240Y41794D01*
X204087Y41972D01*
X203934Y42189D01*
X203793Y42418D01*
Y42431D01*
X203781Y42444D01*
X203755Y42482D01*
X203742Y42533D01*
X203679Y42660D01*
X203615Y42826D01*
X203551Y43030D01*
X203487Y43247D01*
X203449Y43489D01*
X203436Y43731D01*
Y43821D01*
X203449Y43910D01*
X203462Y44038D01*
X203487Y44178D01*
X203526Y44331D01*
X203577Y44484D01*
X203653Y44637D01*
X203666Y44649D01*
X203691Y44701D01*
X203742Y44777D01*
X203793Y44879D01*
X203883Y44981D01*
X203972Y45096D01*
X204087Y45210D01*
X204214Y45325D01*
X204227Y45338D01*
X204278Y45376D01*
X204342Y45427D01*
X204444Y45478D01*
X204558Y45555D01*
X204699Y45619D01*
X204864Y45682D01*
X205030Y45746D01*
X205056Y45759D01*
X205107Y45772D01*
X205209Y45797D01*
X205323Y45823D01*
X205476Y45848D01*
X205642Y45873D01*
X205821Y45899D01*
X205999D01*
X206012D01*
X206025D01*
X206063D01*
X206127D01*
X206267Y45886D01*
D02*
G37*
G36*
X205132Y38797D02*
X205272D01*
X205438Y38772D01*
X205629Y38746D01*
X205846Y38721D01*
X206076Y38670D01*
X209646Y37905D01*
Y37102D01*
X206241Y37815D01*
X206229D01*
X206190Y37828D01*
X206139Y37841D01*
X206076Y37854D01*
X205910Y37879D01*
X205731Y37905D01*
X205719D01*
X205693Y37918D01*
X205642D01*
X205578Y37930D01*
X205438Y37943D01*
X205285D01*
X205272D01*
X205234D01*
X205183D01*
X205107Y37930D01*
X205030Y37918D01*
X204928Y37892D01*
X204724Y37828D01*
X204622Y37777D01*
X204520Y37714D01*
X204418Y37637D01*
X204342Y37548D01*
X204265Y37446D01*
X204214Y37318D01*
X204176Y37178D01*
X204163Y37012D01*
Y36885D01*
X204176Y36808D01*
X204189Y36706D01*
X204214Y36592D01*
X204291Y36349D01*
Y36336D01*
X204316Y36298D01*
X204342Y36235D01*
X204380Y36158D01*
X204431Y36056D01*
X204495Y35954D01*
X204660Y35737D01*
X204673Y35724D01*
X204699Y35686D01*
X204750Y35635D01*
X204813Y35559D01*
X204903Y35469D01*
X204992Y35380D01*
X205221Y35189D01*
X205234Y35176D01*
X205272Y35151D01*
X205336Y35100D01*
X205425Y35049D01*
X205527Y34972D01*
X205655Y34909D01*
X205923Y34756D01*
X209646Y33978D01*
Y33174D01*
X206241Y33889D01*
X206229D01*
X206190Y33901D01*
X206139Y33914D01*
X206063Y33927D01*
X205897Y33952D01*
X205706Y33978D01*
X205693D01*
X205668Y33990D01*
X205617D01*
X205553Y34003D01*
X205413Y34016D01*
X205260D01*
X205247D01*
X205209D01*
X205158D01*
X205094Y34003D01*
X205005Y33990D01*
X204915Y33965D01*
X204711Y33901D01*
X204609Y33850D01*
X204507Y33786D01*
X204418Y33723D01*
X204329Y33634D01*
X204265Y33519D01*
X204214Y33404D01*
X204176Y33264D01*
X204163Y33098D01*
Y33034D01*
X204176Y32983D01*
X204189Y32856D01*
X204227Y32690D01*
X204278Y32499D01*
X204367Y32282D01*
X204482Y32052D01*
X204648Y31823D01*
Y31810D01*
X204673Y31798D01*
X204737Y31721D01*
X204839Y31606D01*
X204979Y31466D01*
X205158Y31313D01*
X205374Y31147D01*
X205629Y30981D01*
X205910Y30828D01*
X209646Y30038D01*
Y29247D01*
X203538Y30535D01*
Y31275D01*
X204914Y30972D01*
X204903Y30994D01*
X204864Y31020D01*
X204813Y31058D01*
X204686Y31160D01*
X204533Y31300D01*
X204354Y31466D01*
X204163Y31670D01*
X203997Y31887D01*
X203832Y32129D01*
Y32142D01*
X203819Y32155D01*
X203793Y32193D01*
X203768Y32244D01*
X203704Y32371D01*
X203628Y32550D01*
X203564Y32754D01*
X203500Y32983D01*
X203449Y33226D01*
X203436Y33481D01*
Y33595D01*
X203462Y33723D01*
X203487Y33876D01*
X203538Y34042D01*
X203615Y34220D01*
X203717Y34386D01*
X203857Y34526D01*
X203870Y34539D01*
X203934Y34577D01*
X204023Y34641D01*
X204150Y34705D01*
X204316Y34756D01*
X204520Y34819D01*
X204762Y34857D01*
X205030Y34870D01*
X205017Y34883D01*
X204992Y34896D01*
X204954Y34921D01*
X204903Y34960D01*
X204762Y35074D01*
X204584Y35214D01*
X204393Y35393D01*
X204201Y35597D01*
X204010Y35827D01*
X203844Y36069D01*
Y36081D01*
X203832Y36094D01*
X203806Y36132D01*
X203781Y36184D01*
X203717Y36324D01*
X203640Y36489D01*
X203564Y36706D01*
X203500Y36936D01*
X203449Y37191D01*
X203436Y37446D01*
Y37560D01*
X203462Y37701D01*
X203487Y37854D01*
X203538Y38032D01*
X203602Y38198D01*
X203704Y38364D01*
X203832Y38491D01*
X203844Y38504D01*
X203908Y38542D01*
X203997Y38593D01*
X204112Y38657D01*
X204278Y38708D01*
X204469Y38759D01*
X204686Y38797D01*
X204941Y38810D01*
X204966D01*
X205030D01*
X205132Y38797D01*
D02*
G37*
G36*
X202263Y29120D02*
Y28317D01*
X201090Y28559D01*
Y29362D01*
X202263Y29120D01*
D02*
G37*
G36*
X209646Y27539D02*
Y26748D01*
X203538Y28036D01*
Y28839D01*
X209646Y27539D01*
D02*
G37*
G36*
X202888Y26136D02*
X202875Y26124D01*
X202824Y26098D01*
X202748Y26035D01*
X202659Y25958D01*
X202544Y25856D01*
X202442Y25728D01*
X202340Y25563D01*
X202238Y25384D01*
X202225Y25359D01*
X202200Y25295D01*
X202161Y25180D01*
X202110Y25040D01*
X202072Y24861D01*
X202034Y24657D01*
X202008Y24428D01*
X201996Y24173D01*
Y24071D01*
X202008Y23956D01*
Y23816D01*
X202034Y23650D01*
X202059Y23472D01*
X202085Y23293D01*
X202136Y23115D01*
Y23102D01*
X202161Y23038D01*
X202187Y22962D01*
X202238Y22860D01*
X202289Y22745D01*
X202353Y22630D01*
X202429Y22503D01*
X202518Y22388D01*
X202531Y22375D01*
X202557Y22337D01*
X202608Y22286D01*
X202684Y22235D01*
X202773Y22159D01*
X202863Y22095D01*
X202977Y22031D01*
X203105Y21967D01*
X203118D01*
X203156Y21942D01*
X203232Y21929D01*
X203322Y21903D01*
X203424Y21878D01*
X203551Y21865D01*
X203819Y21840D01*
X203832D01*
X203870D01*
X203921Y21853D01*
X203985D01*
X204138Y21891D01*
X204303Y21955D01*
X204316D01*
X204342Y21980D01*
X204380Y22005D01*
X204418Y22044D01*
X204546Y22146D01*
X204660Y22299D01*
Y22311D01*
X204686Y22337D01*
X204711Y22388D01*
X204750Y22465D01*
X204788Y22554D01*
X204826Y22643D01*
X204877Y22758D01*
X204915Y22885D01*
Y22898D01*
X204928Y22949D01*
X204954Y23025D01*
X204979Y23128D01*
X205017Y23242D01*
X205056Y23382D01*
X205094Y23548D01*
X205132Y23714D01*
Y23740D01*
X205158Y23803D01*
X205183Y23892D01*
X205209Y24020D01*
X205260Y24160D01*
X205298Y24326D01*
X205413Y24645D01*
Y24657D01*
X205438Y24721D01*
X205464Y24798D01*
X205515Y24887D01*
X205566Y25002D01*
X205617Y25129D01*
X205770Y25359D01*
X205782Y25372D01*
X205808Y25410D01*
X205859Y25461D01*
X205910Y25537D01*
X205986Y25614D01*
X206076Y25690D01*
X206178Y25767D01*
X206292Y25831D01*
X206305Y25843D01*
X206343Y25856D01*
X206407Y25881D01*
X206496Y25920D01*
X206611Y25945D01*
X206739Y25971D01*
X206879Y25984D01*
X207032Y25996D01*
X207045D01*
X207057D01*
X207096D01*
X207147D01*
X207274Y25984D01*
X207427Y25958D01*
X207618Y25932D01*
X207822Y25881D01*
X208014Y25818D01*
X208218Y25728D01*
X208243Y25716D01*
X208294Y25677D01*
X208396Y25627D01*
X208511Y25550D01*
X208638Y25448D01*
X208779Y25321D01*
X208919Y25180D01*
X209046Y25014D01*
X209059Y24989D01*
X209097Y24938D01*
X209161Y24836D01*
X209238Y24709D01*
X209314Y24543D01*
X209391Y24364D01*
X209480Y24160D01*
X209544Y23931D01*
Y23918D01*
X209556Y23905D01*
Y23867D01*
X209569Y23829D01*
X209595Y23701D01*
X209620Y23536D01*
X209658Y23344D01*
X209684Y23115D01*
X209697Y22873D01*
X209709Y22605D01*
Y22528D01*
X209697Y22426D01*
X209684Y22299D01*
X209671Y22146D01*
X209646Y21955D01*
X209607Y21763D01*
X209556Y21546D01*
X209493Y21317D01*
X209416Y21075D01*
X209314Y20832D01*
X209199Y20590D01*
X209072Y20348D01*
X208906Y20119D01*
X208728Y19889D01*
X208511Y19685D01*
X207848Y20221D01*
X207873Y20233D01*
X207924Y20284D01*
X208014Y20361D01*
X208128Y20463D01*
X208256Y20603D01*
X208396Y20769D01*
X208536Y20973D01*
X208664Y21202D01*
Y21215D01*
X208677Y21228D01*
X208689Y21266D01*
X208715Y21317D01*
X208740Y21381D01*
X208766Y21457D01*
X208830Y21648D01*
X208893Y21878D01*
X208944Y22146D01*
X208983Y22452D01*
X208995Y22783D01*
Y22885D01*
X208983Y22962D01*
Y23051D01*
X208970Y23153D01*
X208944Y23395D01*
X208893Y23663D01*
X208817Y23944D01*
X208702Y24224D01*
X208562Y24466D01*
Y24479D01*
X208536Y24492D01*
X208473Y24568D01*
X208371Y24670D01*
X208230Y24785D01*
X208052Y24900D01*
X207835Y24989D01*
X207580Y25065D01*
X207440Y25078D01*
X207287Y25091D01*
X207274D01*
X207236D01*
X207172Y25078D01*
X207108D01*
X206943Y25027D01*
X206853Y25002D01*
X206764Y24951D01*
X206751D01*
X206726Y24925D01*
X206688Y24900D01*
X206637Y24849D01*
X206573Y24798D01*
X206509Y24734D01*
X206445Y24645D01*
X206382Y24555D01*
X206369Y24543D01*
X206356Y24505D01*
X206318Y24453D01*
X206280Y24377D01*
X206229Y24288D01*
X206178Y24186D01*
X206139Y24058D01*
X206088Y23918D01*
Y23905D01*
X206063Y23854D01*
X206037Y23778D01*
X206012Y23676D01*
X205974Y23548D01*
X205923Y23395D01*
X205884Y23230D01*
X205833Y23051D01*
X205821Y23025D01*
X205808Y22962D01*
X205782Y22873D01*
X205744Y22758D01*
X205706Y22617D01*
X205655Y22465D01*
X205553Y22159D01*
X205540Y22146D01*
X205527Y22095D01*
X205489Y22018D01*
X205451Y21929D01*
X205349Y21712D01*
X205209Y21496D01*
X205196Y21483D01*
X205170Y21457D01*
X205132Y21406D01*
X205068Y21342D01*
X204928Y21215D01*
X204737Y21088D01*
X204724D01*
X204686Y21062D01*
X204622Y21049D01*
X204546Y21024D01*
X204456Y20998D01*
X204342Y20973D01*
X204214Y20960D01*
X204074Y20947D01*
X204061D01*
X204048D01*
X204010D01*
X203959D01*
X203844Y20960D01*
X203679Y20986D01*
X203500Y21011D01*
X203309Y21049D01*
X203105Y21113D01*
X202901Y21202D01*
X202875Y21215D01*
X202812Y21253D01*
X202722Y21317D01*
X202595Y21394D01*
X202455Y21496D01*
X202314Y21623D01*
X202161Y21763D01*
X202021Y21929D01*
X202008Y21955D01*
X201957Y22005D01*
X201894Y22107D01*
X201817Y22235D01*
X201715Y22388D01*
X201626Y22579D01*
X201537Y22783D01*
X201460Y23000D01*
Y23013D01*
X201447Y23025D01*
Y23064D01*
X201435Y23102D01*
X201396Y23230D01*
X201358Y23395D01*
X201333Y23599D01*
X201294Y23816D01*
X201282Y24058D01*
X201269Y24326D01*
Y24453D01*
X201282Y24607D01*
X201294Y24798D01*
X201333Y25002D01*
X201371Y25231D01*
X201435Y25473D01*
X201524Y25690D01*
Y25703D01*
X201537Y25716D01*
X201562Y25792D01*
X201626Y25894D01*
X201702Y26035D01*
X201804Y26188D01*
X201919Y26353D01*
X202059Y26519D01*
X202225Y26672D01*
X202888Y26136D01*
D02*
G37*
%LPC*%
G36*
X217051Y39425D02*
X216800D01*
X216570Y39415D01*
X216385Y39382D01*
X216232Y39349D01*
X216122Y39305D01*
X216090Y39294D01*
X216057Y39283D01*
X216035Y39272D01*
X215947Y39218D01*
X215871Y39163D01*
X215751Y39043D01*
X215652Y38912D01*
X215598Y38781D01*
X215554Y38660D01*
X215532Y38562D01*
X215521Y38496D01*
Y38475D01*
X215532Y38365D01*
X215554Y38267D01*
X215609Y38070D01*
X215696Y37906D01*
X215783Y37753D01*
X215882Y37633D01*
X215958Y37545D01*
X216013Y37491D01*
X216024Y37469D01*
X216035D01*
X216232Y37327D01*
X216450Y37196D01*
X216669Y37097D01*
X216876Y37021D01*
X217062Y36966D01*
X217139Y36933D01*
X217215Y36922D01*
X217270Y36911D01*
X217314Y36901D01*
X217336Y36890D01*
X217346D01*
X217641Y36857D01*
X217893Y36846D01*
X218122Y36857D01*
X218308Y36890D01*
X218461Y36922D01*
X218571Y36966D01*
X218603Y36977D01*
X218636Y36988D01*
X218647Y36999D01*
X218658D01*
X218822Y37108D01*
X218942Y37239D01*
X219030Y37382D01*
X219084Y37513D01*
X219128Y37633D01*
X219150Y37742D01*
X219161Y37808D01*
Y37830D01*
X219128Y38037D01*
X219073Y38223D01*
X218997Y38387D01*
X218899Y38529D01*
X218811Y38649D01*
X218735Y38737D01*
X218680Y38791D01*
X218658Y38813D01*
X218461Y38966D01*
X218243Y39087D01*
X218024Y39185D01*
X217816Y39261D01*
X217631Y39327D01*
X217554Y39349D01*
X217478Y39360D01*
X217423Y39371D01*
X217379Y39382D01*
X217357Y39393D01*
X217346D01*
X217051Y39425D01*
D02*
G37*
G36*
X13473Y190102D02*
X13461D01*
X13422D01*
X13371D01*
X13295Y190089D01*
X13218D01*
X13116Y190076D01*
X12874Y190038D01*
X12606Y189961D01*
X12338Y189859D01*
X12071Y189732D01*
X11943Y189643D01*
X11829Y189541D01*
X11816D01*
X11803Y189515D01*
X11739Y189439D01*
X11637Y189324D01*
X11523Y189158D01*
X11421Y188941D01*
X11319Y188699D01*
X11255Y188419D01*
X11229Y188266D01*
Y188049D01*
X11242Y187985D01*
Y187896D01*
X11268Y187781D01*
X11293Y187654D01*
X11331Y187501D01*
X11382Y187348D01*
X11446Y187182D01*
X11535Y187003D01*
X11637Y186825D01*
X11752Y186646D01*
X11905Y186468D01*
X12071Y186289D01*
X12262Y186124D01*
X12479Y185958D01*
X12491Y185945D01*
X12530Y185920D01*
X12606Y185881D01*
X12696Y185830D01*
X12810Y185767D01*
X12951Y185690D01*
X13116Y185626D01*
X13282Y185550D01*
X13486Y185461D01*
X13690Y185397D01*
X13920Y185320D01*
X14162Y185257D01*
X14404Y185206D01*
X14659Y185167D01*
X14927Y185142D01*
X15207Y185129D01*
X15220D01*
X15246D01*
X15296D01*
X15360Y185142D01*
X15437D01*
X15526Y185155D01*
X15743Y185193D01*
X15985Y185269D01*
X16240Y185359D01*
X16495Y185499D01*
X16623Y185575D01*
X16737Y185677D01*
X16750Y185690D01*
X16763Y185703D01*
X16827Y185779D01*
X16929Y185894D01*
X17043Y186060D01*
X17158Y186277D01*
X17247Y186519D01*
X17324Y186812D01*
X17336Y186965D01*
X17349Y187131D01*
Y187207D01*
X17336Y187258D01*
X17324Y187399D01*
X17286Y187577D01*
X17234Y187794D01*
X17145Y188023D01*
X17030Y188278D01*
X16865Y188533D01*
Y188546D01*
X16839Y188559D01*
X16814Y188597D01*
X16776Y188648D01*
X16661Y188776D01*
X16495Y188929D01*
X16291Y189107D01*
X16036Y189298D01*
X15743Y189477D01*
X15399Y189655D01*
X15386D01*
X15348Y189681D01*
X15296Y189694D01*
X15233Y189732D01*
X15144Y189757D01*
X15029Y189796D01*
X14914Y189834D01*
X14786Y189885D01*
X14493Y189961D01*
X14162Y190038D01*
X13817Y190089D01*
X13473Y190102D01*
D02*
G37*
G36*
X24950Y190265D02*
X24925D01*
X24861D01*
X24772Y190240D01*
X24657Y190214D01*
X24530Y190163D01*
X24402Y190100D01*
X24287Y189998D01*
X24185Y189870D01*
X24173Y189857D01*
X24147Y189806D01*
X24109Y189717D01*
X24058Y189615D01*
X24020Y189488D01*
X23981Y189322D01*
X23956Y189156D01*
X23943Y188965D01*
Y188876D01*
X23956Y188774D01*
X23969Y188646D01*
X23994Y188493D01*
X24020Y188340D01*
X24071Y188162D01*
X24134Y187996D01*
X24147Y187983D01*
X24173Y187919D01*
X24211Y187843D01*
X24262Y187741D01*
X24326Y187613D01*
X24415Y187486D01*
X24504Y187346D01*
X24619Y187218D01*
X24632Y187205D01*
X24670Y187167D01*
X24734Y187103D01*
X24823Y187027D01*
X24925Y186938D01*
X25040Y186836D01*
X25180Y186734D01*
X25320Y186644D01*
X25333Y186632D01*
X25384Y186606D01*
X25473Y186568D01*
X25575Y186517D01*
X25690Y186466D01*
X25830Y186402D01*
X26149Y186300D01*
Y186453D01*
X26162Y186555D01*
Y186670D01*
X26174Y186810D01*
X26187Y187078D01*
Y187295D01*
X26200Y187409D01*
Y188009D01*
X26187Y188174D01*
X26174Y188353D01*
X26162Y188557D01*
X26136Y188748D01*
X26111Y188939D01*
Y188965D01*
X26098Y189016D01*
X26072Y189105D01*
X26034Y189220D01*
X26009Y189347D01*
X25958Y189475D01*
X25907Y189602D01*
X25856Y189717D01*
X25843Y189730D01*
X25830Y189768D01*
X25792Y189819D01*
X25741Y189883D01*
X25613Y190023D01*
X25537Y190087D01*
X25460Y190138D01*
X25448D01*
X25422Y190163D01*
X25371Y190176D01*
X25307Y190202D01*
X25142Y190240D01*
X24950Y190265D01*
D02*
G37*
G36*
X25996Y181187D02*
X25970D01*
X25919D01*
X25843D01*
X25741Y181175D01*
X25626Y181162D01*
X25486Y181136D01*
X25218Y181060D01*
X25205D01*
X25154Y181034D01*
X25091Y181009D01*
X25001Y180971D01*
X24797Y180869D01*
X24593Y180728D01*
X24581Y180716D01*
X24542Y180690D01*
X24504Y180639D01*
X24440Y180588D01*
X24377Y180512D01*
X24300Y180422D01*
X24173Y180206D01*
X24160Y180193D01*
X24147Y180155D01*
X24122Y180091D01*
X24096Y180014D01*
X24071Y179912D01*
X24045Y179810D01*
X24020Y179683D01*
Y179466D01*
X24032Y179377D01*
X24045Y179249D01*
X24083Y179096D01*
X24122Y178943D01*
X24185Y178765D01*
X24262Y178586D01*
X24275Y178561D01*
X24300Y178510D01*
X24364Y178421D01*
X24428Y178306D01*
X24530Y178166D01*
X24632Y178025D01*
X24772Y177885D01*
X24912Y177732D01*
X24925Y177719D01*
X24989Y177668D01*
X25065Y177605D01*
X25180Y177515D01*
X25320Y177413D01*
X25486Y177311D01*
X25664Y177209D01*
X25868Y177107D01*
X25894Y177095D01*
X25958Y177069D01*
X26072Y177031D01*
X26213Y176993D01*
X26378Y176954D01*
X26570Y176916D01*
X26786Y176891D01*
X27003Y176878D01*
X27016D01*
X27067D01*
X27156Y176891D01*
X27245D01*
X27373Y176903D01*
X27500Y176929D01*
X27768Y176993D01*
X27781D01*
X27832Y177018D01*
X27896Y177044D01*
X27985Y177082D01*
X28176Y177184D01*
X28393Y177324D01*
X28406Y177337D01*
X28431Y177362D01*
X28482Y177413D01*
X28533Y177464D01*
X28610Y177541D01*
X28673Y177630D01*
X28801Y177834D01*
Y177847D01*
X28826Y177885D01*
X28839Y177949D01*
X28865Y178038D01*
X28890Y178140D01*
X28916Y178255D01*
X28928Y178370D01*
X28941Y178510D01*
Y178599D01*
X28928Y178688D01*
X28916Y178816D01*
X28890Y178969D01*
X28839Y179135D01*
X28788Y179300D01*
X28712Y179479D01*
X28699Y179504D01*
X28661Y179555D01*
X28610Y179657D01*
X28533Y179772D01*
X28444Y179900D01*
X28329Y180040D01*
X28202Y180193D01*
X28061Y180333D01*
X28049Y180346D01*
X27985Y180397D01*
X27908Y180461D01*
X27794Y180550D01*
X27653Y180652D01*
X27500Y180754D01*
X27322Y180856D01*
X27131Y180945D01*
X27105Y180958D01*
X27041Y180983D01*
X26927Y181022D01*
X26786Y181073D01*
X26621Y181111D01*
X26429Y181149D01*
X26213Y181175D01*
X25996Y181187D01*
D02*
G37*
G36*
X24592Y166655D02*
X24593Y166652D01*
X24606D01*
X24592Y166655D01*
D02*
G37*
G36*
X26009Y170414D02*
X25996D01*
X25945D01*
X25856D01*
X25754Y170401D01*
X25639Y170388D01*
X25511Y170363D01*
X25244Y170299D01*
X25231D01*
X25180Y170273D01*
X25116Y170248D01*
X25027Y170210D01*
X24823Y170108D01*
X24606Y169955D01*
X24593Y169942D01*
X24555Y169916D01*
X24517Y169865D01*
X24453Y169814D01*
X24389Y169738D01*
X24313Y169649D01*
X24185Y169432D01*
X24173Y169419D01*
X24160Y169381D01*
X24134Y169317D01*
X24096Y169228D01*
X24071Y169126D01*
X24045Y169011D01*
X24032Y168884D01*
X24020Y168743D01*
Y168629D01*
X24032Y168552D01*
X24045Y168463D01*
X24071Y168361D01*
X24147Y168119D01*
Y168106D01*
X24173Y168068D01*
X24198Y167991D01*
X24236Y167915D01*
X24275Y167813D01*
X24338Y167711D01*
X24479Y167468D01*
X24491Y167456D01*
X24517Y167417D01*
X24555Y167354D01*
X24619Y167277D01*
X24683Y167188D01*
X24772Y167099D01*
X24963Y166895D01*
X24976Y166882D01*
X25014Y166856D01*
X25065Y166818D01*
X25129Y166754D01*
X25218Y166703D01*
X25320Y166640D01*
X25537Y166538D01*
X27411Y166130D01*
X27424D01*
X27462Y166142D01*
X27526Y166155D01*
X27615Y166181D01*
X27704Y166206D01*
X27806Y166244D01*
X28023Y166334D01*
X28036Y166346D01*
X28074Y166359D01*
X28125Y166397D01*
X28189Y166436D01*
X28342Y166550D01*
X28508Y166703D01*
X28520Y166716D01*
X28546Y166742D01*
X28584Y166793D01*
X28622Y166844D01*
X28724Y166997D01*
X28826Y167188D01*
Y167201D01*
X28839Y167239D01*
X28865Y167290D01*
X28877Y167366D01*
X28903Y167456D01*
X28928Y167558D01*
X28941Y167787D01*
Y167876D01*
X28928Y167978D01*
X28903Y168106D01*
X28877Y168259D01*
X28839Y168437D01*
X28775Y168616D01*
X28686Y168794D01*
X28673Y168820D01*
X28635Y168871D01*
X28584Y168973D01*
X28495Y169088D01*
X28406Y169215D01*
X28291Y169355D01*
X28151Y169496D01*
X28010Y169636D01*
X27985Y169649D01*
X27934Y169700D01*
X27845Y169763D01*
X27730Y169840D01*
X27590Y169929D01*
X27437Y170018D01*
X27258Y170120D01*
X27067Y170197D01*
X27041Y170210D01*
X26978Y170235D01*
X26876Y170261D01*
X26735Y170312D01*
X26582Y170350D01*
X26404Y170375D01*
X26213Y170401D01*
X26009Y170414D01*
D02*
G37*
G36*
X14124Y171823D02*
X14098D01*
X14034D01*
X13945Y171797D01*
X13830Y171772D01*
X13703Y171721D01*
X13575Y171657D01*
X13461Y171555D01*
X13359Y171427D01*
X13346Y171414D01*
X13320Y171363D01*
X13282Y171274D01*
X13231Y171172D01*
X13193Y171045D01*
X13155Y170879D01*
X13129Y170713D01*
X13116Y170522D01*
Y170433D01*
X13129Y170331D01*
X13142Y170203D01*
X13167Y170050D01*
X13193Y169897D01*
X13244Y169719D01*
X13308Y169553D01*
X13320Y169540D01*
X13346Y169476D01*
X13384Y169400D01*
X13435Y169298D01*
X13499Y169170D01*
X13588Y169043D01*
X13677Y168903D01*
X13792Y168775D01*
X13805Y168763D01*
X13843Y168724D01*
X13907Y168660D01*
X13996Y168584D01*
X14098Y168495D01*
X14213Y168393D01*
X14353Y168291D01*
X14493Y168201D01*
X14506Y168189D01*
X14557Y168163D01*
X14646Y168125D01*
X14748Y168074D01*
X14863Y168023D01*
X15003Y167959D01*
X15322Y167857D01*
Y168010D01*
X15335Y168112D01*
Y168227D01*
X15348Y168367D01*
X15360Y168635D01*
Y168852D01*
X15373Y168966D01*
Y169566D01*
X15360Y169731D01*
X15348Y169910D01*
X15335Y170114D01*
X15309Y170305D01*
X15284Y170496D01*
Y170522D01*
X15271Y170573D01*
X15246Y170662D01*
X15207Y170777D01*
X15182Y170905D01*
X15131Y171032D01*
X15080Y171160D01*
X15029Y171274D01*
X15016Y171287D01*
X15003Y171325D01*
X14965Y171376D01*
X14914Y171440D01*
X14786Y171580D01*
X14710Y171644D01*
X14634Y171695D01*
X14621D01*
X14595Y171721D01*
X14544Y171733D01*
X14480Y171759D01*
X14315Y171797D01*
X14124Y171823D01*
D02*
G37*
G36*
X13765Y158438D02*
X13767Y158435D01*
X13779D01*
X13765Y158438D01*
D02*
G37*
G36*
X15182Y162196D02*
X15169D01*
X15118D01*
X15029D01*
X14927Y162183D01*
X14812Y162171D01*
X14684Y162145D01*
X14417Y162082D01*
X14404D01*
X14353Y162056D01*
X14289Y162030D01*
X14200Y161992D01*
X13996Y161890D01*
X13779Y161737D01*
X13767Y161724D01*
X13728Y161699D01*
X13690Y161648D01*
X13626Y161597D01*
X13563Y161521D01*
X13486Y161431D01*
X13359Y161214D01*
X13346Y161202D01*
X13333Y161163D01*
X13308Y161100D01*
X13269Y161011D01*
X13244Y160908D01*
X13218Y160794D01*
X13205Y160666D01*
X13193Y160526D01*
Y160411D01*
X13205Y160335D01*
X13218Y160246D01*
X13244Y160143D01*
X13320Y159901D01*
Y159889D01*
X13346Y159850D01*
X13371Y159774D01*
X13409Y159697D01*
X13448Y159595D01*
X13511Y159493D01*
X13652Y159251D01*
X13665Y159238D01*
X13690Y159200D01*
X13728Y159136D01*
X13792Y159060D01*
X13856Y158970D01*
X13945Y158881D01*
X14136Y158677D01*
X14149Y158665D01*
X14187Y158639D01*
X14238Y158601D01*
X14302Y158537D01*
X14391Y158486D01*
X14493Y158422D01*
X14710Y158320D01*
X16584Y157912D01*
X16597D01*
X16635Y157925D01*
X16699Y157938D01*
X16788Y157963D01*
X16878Y157989D01*
X16980Y158027D01*
X17196Y158116D01*
X17209Y158129D01*
X17247Y158142D01*
X17298Y158180D01*
X17362Y158218D01*
X17515Y158333D01*
X17681Y158486D01*
X17694Y158499D01*
X17719Y158524D01*
X17757Y158575D01*
X17796Y158626D01*
X17898Y158779D01*
X18000Y158970D01*
Y158983D01*
X18012Y159021D01*
X18038Y159072D01*
X18051Y159149D01*
X18076Y159238D01*
X18102Y159340D01*
X18114Y159570D01*
Y159659D01*
X18102Y159761D01*
X18076Y159889D01*
X18051Y160041D01*
X18012Y160220D01*
X17949Y160398D01*
X17859Y160577D01*
X17846Y160602D01*
X17808Y160653D01*
X17757Y160756D01*
X17668Y160870D01*
X17579Y160998D01*
X17464Y161138D01*
X17324Y161278D01*
X17184Y161418D01*
X17158Y161431D01*
X17107Y161482D01*
X17018Y161546D01*
X16903Y161623D01*
X16763Y161712D01*
X16610Y161801D01*
X16431Y161903D01*
X16240Y161979D01*
X16215Y161992D01*
X16151Y162018D01*
X16049Y162043D01*
X15909Y162094D01*
X15755Y162133D01*
X15577Y162158D01*
X15386Y162183D01*
X15182Y162196D01*
D02*
G37*
G36*
X205668Y111474D02*
X205655D01*
X205617Y111462D01*
X205553Y111449D01*
X205476Y111436D01*
X205285Y111372D01*
X205081Y111283D01*
X205068Y111270D01*
X205030Y111258D01*
X204979Y111219D01*
X204915Y111181D01*
X204750Y111054D01*
X204584Y110901D01*
X204571Y110888D01*
X204546Y110862D01*
X204507Y110811D01*
X204456Y110760D01*
X204405Y110684D01*
X204354Y110595D01*
X204252Y110403D01*
Y110391D01*
X204240Y110352D01*
X204214Y110301D01*
X204189Y110225D01*
X204176Y110136D01*
X204150Y110046D01*
X204138Y109830D01*
Y109740D01*
X204150Y109638D01*
X204176Y109511D01*
X204201Y109358D01*
X204252Y109179D01*
X204316Y109001D01*
X204405Y108822D01*
X204418Y108797D01*
X204456Y108746D01*
X204507Y108657D01*
X204584Y108542D01*
X204686Y108402D01*
X204801Y108261D01*
X204928Y108121D01*
X205081Y107981D01*
X205094Y107968D01*
X205158Y107917D01*
X205247Y107853D01*
X205362Y107777D01*
X205502Y107688D01*
X205668Y107586D01*
X205846Y107496D01*
X206037Y107407D01*
X206063Y107394D01*
X206127Y107382D01*
X206229Y107343D01*
X206369Y107305D01*
X206522Y107267D01*
X206700Y107241D01*
X206892Y107216D01*
X207083Y107203D01*
X207096D01*
X207147D01*
X207236Y107216D01*
X207325D01*
X207453Y107229D01*
X207580Y107254D01*
X207848Y107318D01*
X207861D01*
X207912Y107343D01*
X207975Y107369D01*
X208065Y107407D01*
X208154Y107445D01*
X208269Y107509D01*
X208485Y107649D01*
X208498Y107662D01*
X208524Y107688D01*
X208575Y107739D01*
X208638Y107802D01*
X208702Y107879D01*
X208779Y107968D01*
X208906Y108185D01*
Y108198D01*
X208932Y108236D01*
X208957Y108300D01*
X208983Y108389D01*
X209008Y108491D01*
X209034Y108606D01*
X209046Y108733D01*
X209059Y108873D01*
Y108924D01*
X209046Y108975D01*
Y109052D01*
X209034Y109141D01*
X209008Y109256D01*
X208944Y109485D01*
Y109498D01*
X208919Y109549D01*
X208893Y109613D01*
X208855Y109702D01*
X208817Y109804D01*
X208766Y109906D01*
X208626Y110148D01*
X208613Y110161D01*
X208587Y110199D01*
X208549Y110263D01*
X208485Y110340D01*
X208345Y110518D01*
X208154Y110709D01*
X208141Y110722D01*
X208103Y110748D01*
X208052Y110799D01*
X207975Y110850D01*
X207886Y110913D01*
X207784Y110977D01*
X207669Y111028D01*
X207555Y111079D01*
X205668Y111474D01*
D02*
G37*
G36*
X205068Y101912D02*
X205043D01*
X204979D01*
X204890Y101886D01*
X204775Y101861D01*
X204648Y101810D01*
X204520Y101746D01*
X204405Y101644D01*
X204303Y101517D01*
X204291Y101504D01*
X204265Y101453D01*
X204227Y101364D01*
X204176Y101262D01*
X204138Y101134D01*
X204099Y100968D01*
X204074Y100803D01*
X204061Y100611D01*
Y100522D01*
X204074Y100420D01*
X204087Y100293D01*
X204112Y100140D01*
X204138Y99987D01*
X204189Y99808D01*
X204252Y99642D01*
X204265Y99630D01*
X204291Y99566D01*
X204329Y99489D01*
X204380Y99387D01*
X204444Y99260D01*
X204533Y99132D01*
X204622Y98992D01*
X204737Y98865D01*
X204750Y98852D01*
X204788Y98814D01*
X204852Y98750D01*
X204941Y98673D01*
X205043Y98584D01*
X205158Y98482D01*
X205298Y98380D01*
X205438Y98291D01*
X205451Y98278D01*
X205502Y98253D01*
X205591Y98214D01*
X205693Y98163D01*
X205808Y98112D01*
X205948Y98049D01*
X206267Y97947D01*
Y98100D01*
X206280Y98202D01*
Y98316D01*
X206292Y98457D01*
X206305Y98724D01*
Y98941D01*
X206318Y99056D01*
Y99655D01*
X206305Y99821D01*
X206292Y99999D01*
X206280Y100203D01*
X206254Y100395D01*
X206229Y100586D01*
Y100611D01*
X206216Y100662D01*
X206190Y100752D01*
X206152Y100866D01*
X206127Y100994D01*
X206076Y101121D01*
X206025Y101249D01*
X205974Y101364D01*
X205961Y101376D01*
X205948Y101415D01*
X205910Y101466D01*
X205859Y101529D01*
X205731Y101670D01*
X205655Y101733D01*
X205578Y101784D01*
X205566D01*
X205540Y101810D01*
X205489Y101823D01*
X205425Y101848D01*
X205260Y101886D01*
X205068Y101912D01*
D02*
G37*
G36*
X204914Y89573D02*
X204915Y89570D01*
X204928D01*
X204914Y89573D01*
D02*
G37*
G36*
X204418Y70023D02*
X204405D01*
X204367D01*
X204316D01*
X204240Y70010D01*
X204163D01*
X204061Y69997D01*
X203819Y69959D01*
X203551Y69883D01*
X203283Y69781D01*
X203016Y69653D01*
X202888Y69564D01*
X202773Y69462D01*
X202761D01*
X202748Y69436D01*
X202684Y69360D01*
X202582Y69245D01*
X202467Y69079D01*
X202365Y68863D01*
X202263Y68620D01*
X202200Y68340D01*
X202174Y68187D01*
Y67970D01*
X202187Y67906D01*
Y67817D01*
X202212Y67702D01*
X202238Y67575D01*
X202276Y67422D01*
X202327Y67269D01*
X202391Y67103D01*
X202480Y66925D01*
X202582Y66746D01*
X202697Y66568D01*
X202850Y66389D01*
X203016Y66211D01*
X203207Y66045D01*
X203424Y65879D01*
X203436Y65866D01*
X203475Y65841D01*
X203551Y65803D01*
X203640Y65752D01*
X203755Y65688D01*
X203895Y65611D01*
X204061Y65548D01*
X204227Y65471D01*
X204431Y65382D01*
X204635Y65318D01*
X204864Y65242D01*
X205107Y65178D01*
X205349Y65127D01*
X205604Y65089D01*
X205872Y65063D01*
X206152Y65050D01*
X206165D01*
X206190D01*
X206241D01*
X206305Y65063D01*
X206382D01*
X206471Y65076D01*
X206688Y65114D01*
X206930Y65191D01*
X207185Y65280D01*
X207440Y65420D01*
X207567Y65497D01*
X207682Y65599D01*
X207695Y65611D01*
X207708Y65624D01*
X207771Y65701D01*
X207873Y65815D01*
X207988Y65981D01*
X208103Y66198D01*
X208192Y66440D01*
X208269Y66733D01*
X208281Y66886D01*
X208294Y67052D01*
Y67129D01*
X208281Y67180D01*
X208269Y67320D01*
X208230Y67498D01*
X208179Y67715D01*
X208090Y67945D01*
X207975Y68200D01*
X207810Y68455D01*
Y68467D01*
X207784Y68480D01*
X207759Y68518D01*
X207720Y68569D01*
X207606Y68697D01*
X207440Y68850D01*
X207236Y69028D01*
X206981Y69220D01*
X206688Y69398D01*
X206343Y69577D01*
X206331D01*
X206292Y69602D01*
X206241Y69615D01*
X206178Y69653D01*
X206088Y69679D01*
X205974Y69717D01*
X205859Y69755D01*
X205731Y69806D01*
X205438Y69883D01*
X205107Y69959D01*
X204762Y70010D01*
X204418Y70023D01*
D02*
G37*
G36*
X205068Y54697D02*
X205043D01*
X204979D01*
X204890Y54671D01*
X204775Y54646D01*
X204648Y54594D01*
X204520Y54531D01*
X204405Y54429D01*
X204303Y54301D01*
X204291Y54289D01*
X204265Y54238D01*
X204227Y54148D01*
X204176Y54046D01*
X204138Y53919D01*
X204099Y53753D01*
X204074Y53587D01*
X204061Y53396D01*
Y53307D01*
X204074Y53205D01*
X204087Y53077D01*
X204112Y52924D01*
X204138Y52771D01*
X204189Y52593D01*
X204252Y52427D01*
X204265Y52414D01*
X204291Y52350D01*
X204329Y52274D01*
X204380Y52172D01*
X204444Y52044D01*
X204533Y51917D01*
X204622Y51777D01*
X204737Y51649D01*
X204750Y51636D01*
X204788Y51598D01*
X204852Y51534D01*
X204941Y51458D01*
X205043Y51369D01*
X205158Y51267D01*
X205298Y51165D01*
X205438Y51076D01*
X205451Y51063D01*
X205502Y51037D01*
X205591Y50999D01*
X205693Y50948D01*
X205808Y50897D01*
X205948Y50833D01*
X206267Y50731D01*
Y50884D01*
X206280Y50986D01*
Y51101D01*
X206292Y51241D01*
X206305Y51509D01*
Y51726D01*
X206318Y51841D01*
Y52440D01*
X206305Y52605D01*
X206292Y52784D01*
X206280Y52988D01*
X206254Y53179D01*
X206229Y53370D01*
Y53396D01*
X206216Y53447D01*
X206190Y53536D01*
X206152Y53651D01*
X206127Y53778D01*
X206076Y53906D01*
X206025Y54033D01*
X205974Y54148D01*
X205961Y54161D01*
X205948Y54199D01*
X205910Y54250D01*
X205859Y54314D01*
X205731Y54454D01*
X205655Y54518D01*
X205578Y54569D01*
X205566D01*
X205540Y54594D01*
X205489Y54607D01*
X205425Y54633D01*
X205260Y54671D01*
X205068Y54697D01*
D02*
G37*
G36*
X206127Y45070D02*
X206114D01*
X206063D01*
X205974D01*
X205872Y45057D01*
X205757Y45045D01*
X205629Y45019D01*
X205362Y44956D01*
X205349D01*
X205298Y44930D01*
X205234Y44905D01*
X205145Y44866D01*
X204941Y44764D01*
X204724Y44611D01*
X204711Y44598D01*
X204673Y44573D01*
X204635Y44522D01*
X204571Y44471D01*
X204507Y44394D01*
X204431Y44305D01*
X204303Y44089D01*
X204291Y44076D01*
X204278Y44038D01*
X204252Y43974D01*
X204214Y43885D01*
X204189Y43782D01*
X204163Y43668D01*
X204150Y43540D01*
X204138Y43400D01*
Y43285D01*
X204150Y43209D01*
X204163Y43119D01*
X204189Y43018D01*
X204265Y42775D01*
Y42763D01*
X204291Y42724D01*
X204316Y42648D01*
X204354Y42571D01*
X204393Y42469D01*
X204456Y42367D01*
X204597Y42125D01*
X204609Y42112D01*
X204635Y42074D01*
X204673Y42010D01*
X204737Y41934D01*
X204801Y41844D01*
X204890Y41755D01*
X205081Y41551D01*
X205094Y41539D01*
X205132Y41513D01*
X205183Y41475D01*
X205247Y41411D01*
X205336Y41360D01*
X205438Y41296D01*
X205655Y41194D01*
X207529Y40786D01*
X207542D01*
X207580Y40799D01*
X207644Y40812D01*
X207733Y40837D01*
X207822Y40863D01*
X207924Y40901D01*
X208141Y40990D01*
X208154Y41003D01*
X208192Y41016D01*
X208243Y41054D01*
X208307Y41092D01*
X208460Y41207D01*
X208626Y41360D01*
X208638Y41373D01*
X208664Y41398D01*
X208702Y41449D01*
X208740Y41500D01*
X208842Y41653D01*
X208944Y41844D01*
Y41857D01*
X208957Y41895D01*
X208983Y41947D01*
X208995Y42023D01*
X209021Y42112D01*
X209046Y42214D01*
X209059Y42444D01*
Y42533D01*
X209046Y42635D01*
X209021Y42763D01*
X208995Y42915D01*
X208957Y43094D01*
X208893Y43273D01*
X208804Y43451D01*
X208791Y43477D01*
X208753Y43527D01*
X208702Y43630D01*
X208613Y43744D01*
X208524Y43872D01*
X208409Y44012D01*
X208269Y44152D01*
X208128Y44293D01*
X208103Y44305D01*
X208052Y44356D01*
X207963Y44420D01*
X207848Y44497D01*
X207708Y44586D01*
X207555Y44675D01*
X207376Y44777D01*
X207185Y44853D01*
X207159Y44866D01*
X207096Y44892D01*
X206994Y44917D01*
X206853Y44968D01*
X206700Y45006D01*
X206522Y45032D01*
X206331Y45057D01*
X206127Y45070D01*
D02*
G37*
G36*
X204914Y30972D02*
X204915Y30969D01*
X204928D01*
X204914Y30972D01*
D02*
G37*
%LPD*%
D10*
X88012Y72401D02*
X87224D01*
X88012D01*
X46654Y122835D02*
X61614D01*
X46654Y135039D02*
X61614D01*
X46654Y51968D02*
X61614D01*
X46654Y64173D02*
X61614D01*
X136614Y154921D02*
Y158071D01*
X127165Y154921D02*
Y158071D01*
X48031Y34843D02*
Y37992D01*
X38583Y34843D02*
Y37992D01*
X75197Y155709D02*
X78347D01*
X75197Y165157D02*
X78347D01*
X75197Y169488D02*
X78347D01*
X75197Y178937D02*
X78347D01*
X198228Y135630D02*
X201378D01*
X198228Y126181D02*
X201378D01*
X198228Y156299D02*
X201378D01*
X198228Y146850D02*
X201378D01*
X198228Y175984D02*
X201378D01*
X198228Y166535D02*
X201378D01*
X230236Y172480D02*
X240236D01*
Y122480D02*
Y172480D01*
X230236Y122480D02*
Y172480D01*
Y122480D02*
X240236D01*
X180984Y5000D02*
Y15000D01*
X100984Y5000D02*
X180984D01*
X100984D02*
Y15000D01*
X180984D01*
X251063Y5000D02*
Y15000D01*
X191063Y5000D02*
Y15000D01*
X251063D01*
X191063Y5000D02*
X251063D01*
X73563Y203819D02*
X166063D01*
X66063D02*
X73563D01*
X66063Y193819D02*
Y203819D01*
Y193819D02*
X166063D01*
Y203819D01*
X251063Y193819D02*
Y203819D01*
X171063Y193819D02*
X251063D01*
X171063D02*
Y203819D01*
X251063D01*
X22638Y48031D02*
X30118D01*
X22638Y34646D02*
X30118D01*
Y48031D01*
X8071Y36220D02*
Y46457D01*
X10039Y48031D02*
X16732D01*
X8071Y36220D02*
X10039Y34646D01*
X8071Y46457D02*
X10039Y48031D01*
Y34646D02*
X16732D01*
X54528Y91535D02*
X57677D01*
X54528Y97441D02*
X57677D01*
X163425Y88047D02*
X166575D01*
X163425Y93953D02*
X166575D01*
X156890Y128937D02*
X160039D01*
X156890Y134843D02*
X160039D01*
X156890Y118110D02*
X160039D01*
X156890Y124016D02*
X160039D01*
X95047Y37425D02*
Y40575D01*
X100953Y37425D02*
Y40575D01*
D11*
X70068Y106242D02*
X70885Y105691D01*
X71480Y106476D01*
X70729Y107113D01*
X70051Y106398D01*
X70068Y66872D02*
X70885Y66321D01*
X71480Y67106D01*
X70729Y67743D01*
X70051Y67028D01*
X51181Y787D02*
X90551D01*
X51181D02*
Y30709D01*
X90551D01*
Y787D02*
Y30709D01*
X32677Y62008D02*
Y121063D01*
X2756D02*
X32677D01*
X2756Y62008D02*
Y121063D01*
Y62008D02*
X32677D01*
X43996Y119488D02*
X67028D01*
X44094Y106791D02*
X66732D01*
X43996Y80118D02*
X67028D01*
X44094Y67421D02*
X66732D01*
X109165Y18614D02*
Y28063D01*
Y35937D02*
Y45386D01*
X135937Y35543D02*
Y41449D01*
Y22551D02*
Y28063D01*
X109165Y18614D02*
X132000D01*
X135937Y22551D01*
X132000Y45386D02*
X135937Y41449D01*
X109165Y45386D02*
X132000D01*
X193835Y75937D02*
Y85386D01*
Y58614D02*
Y68063D01*
X167063Y62551D02*
Y68457D01*
Y75937D02*
Y81449D01*
X171000Y85386D02*
X193835D01*
X167063Y81449D02*
X171000Y85386D01*
X167063Y62551D02*
X171000Y58614D01*
X193835D01*
X156370Y100331D02*
Y108331D01*
X161370D01*
X167370D02*
X172370D01*
Y100331D02*
Y108331D01*
X171370Y100331D02*
X172370D01*
X156370D02*
X157370D01*
X25591Y52165D02*
X29528D01*
X27559Y50197D02*
Y54134D01*
X226746Y22063D02*
X224122D01*
X222810Y23375D01*
X224122Y24687D01*
X226746D01*
X224778D01*
Y22063D01*
X224122Y25999D02*
X226746D01*
X225434D01*
X224778Y26655D01*
X224122Y27311D01*
Y27967D01*
X222810Y32558D02*
X226746D01*
Y30590D01*
X226090Y29934D01*
X224778D01*
X224122Y30590D01*
Y32558D01*
Y33870D02*
X226090D01*
X226746Y34526D01*
Y36494D01*
X224122D01*
X226746Y37806D02*
Y39118D01*
Y38462D01*
X224122D01*
Y37806D01*
X226746Y41086D02*
X224122D01*
Y43054D01*
X224778Y43710D01*
X226746D01*
Y45677D02*
Y46989D01*
X226090Y47645D01*
X224778D01*
X224122Y46989D01*
Y45677D01*
X224778Y45022D01*
X226090D01*
X226746Y45677D01*
Y48957D02*
X224122Y51581D01*
X223466Y55517D02*
X222810Y54861D01*
Y53549D01*
X223466Y52893D01*
X224122D01*
X224778Y53549D01*
Y54861D01*
X225434Y55517D01*
X226090D01*
X226746Y54861D01*
Y53549D01*
X226090Y52893D01*
X222810Y56829D02*
Y59452D01*
Y58141D01*
X226746D01*
Y60764D02*
X222810D01*
X224122Y62076D01*
X222810Y63388D01*
X226746D01*
X223466Y64700D02*
X222810Y65356D01*
Y66668D01*
X223466Y67324D01*
X224122D01*
X224778Y66668D01*
Y66012D01*
Y66668D01*
X225434Y67324D01*
X226090D01*
X226746Y66668D01*
Y65356D01*
X226090Y64700D01*
X226746Y71260D02*
Y68636D01*
X224122Y71260D01*
X223466D01*
X222810Y70604D01*
Y69292D01*
X223466Y68636D01*
X229933Y22063D02*
X233868D01*
Y24031D01*
X233212Y24687D01*
X232557D01*
X231901Y24031D01*
Y22063D01*
Y24031D01*
X231245Y24687D01*
X230589D01*
X229933Y24031D01*
Y22063D01*
Y25999D02*
X233868D01*
Y28623D01*
X229933Y29934D02*
X233868D01*
Y31902D01*
X233212Y32558D01*
X230589D01*
X229933Y31902D01*
Y29934D01*
X230589Y36494D02*
X229933Y35838D01*
Y34526D01*
X230589Y33870D01*
X233212D01*
X233868Y34526D01*
Y35838D01*
X233212Y36494D01*
X237055Y24687D02*
Y22063D01*
X240991D01*
Y24687D01*
X239023Y22063D02*
Y23375D01*
X240991Y25999D02*
X238368D01*
Y27967D01*
X239023Y28623D01*
X240991D01*
X238368Y32558D02*
Y30590D01*
X239023Y29934D01*
X240335D01*
X240991Y30590D01*
Y32558D01*
Y34526D02*
Y35838D01*
X240335Y36494D01*
X239023D01*
X238368Y35838D01*
Y34526D01*
X239023Y33870D01*
X240335D01*
X240991Y34526D01*
X237055Y40430D02*
X240991D01*
Y38462D01*
X240335Y37806D01*
X239023D01*
X238368Y38462D01*
Y40430D01*
X240991Y43710D02*
Y42398D01*
X240335Y41742D01*
X239023D01*
X238368Y42398D01*
Y43710D01*
X239023Y44366D01*
X239679D01*
Y41742D01*
X238368Y45677D02*
X240991D01*
X239679D01*
X239023Y46333D01*
X238368Y46989D01*
Y47645D01*
X240991Y49613D02*
X238368Y52237D01*
X237055Y53549D02*
X240991D01*
X239023D01*
Y56173D01*
X237055D01*
X240991D01*
X238368Y58141D02*
Y59452D01*
X239023Y60109D01*
X240991D01*
Y58141D01*
X240335Y57485D01*
X239679Y58141D01*
Y60109D01*
X240991Y61420D02*
Y62732D01*
Y62076D01*
X237055D01*
Y61420D01*
X240991Y64700D02*
Y66012D01*
Y65356D01*
X237055D01*
Y64700D01*
X244834Y24687D02*
X244178Y24031D01*
Y22719D01*
X244834Y22063D01*
X247458D01*
X248114Y22719D01*
Y24031D01*
X247458Y24687D01*
X245490Y25999D02*
X247458D01*
X248114Y26655D01*
Y28623D01*
X245490D01*
Y29934D02*
X248114D01*
X246802D01*
X246146Y30590D01*
X245490Y31246D01*
Y31902D01*
Y33870D02*
X248114D01*
X246802D01*
X246146Y34526D01*
X245490Y35182D01*
Y35838D01*
X248114Y39774D02*
Y38462D01*
X247458Y37806D01*
X246146D01*
X245490Y38462D01*
Y39774D01*
X246146Y40430D01*
X246802D01*
Y37806D01*
X248114Y41742D02*
X245490D01*
Y43710D01*
X246146Y44366D01*
X248114D01*
X244834Y46333D02*
X245490D01*
Y45677D01*
Y46989D01*
Y46333D01*
X247458D01*
X248114Y46989D01*
X244834Y55517D02*
X244178Y54861D01*
Y53549D01*
X244834Y52893D01*
X245490D01*
X246146Y53549D01*
Y54861D01*
X246802Y55517D01*
X247458D01*
X248114Y54861D01*
Y53549D01*
X247458Y52893D01*
X248114Y58797D02*
Y57485D01*
X247458Y56829D01*
X246146D01*
X245490Y57485D01*
Y58797D01*
X246146Y59452D01*
X246802D01*
Y56829D01*
X248114Y60764D02*
X245490D01*
Y62732D01*
X246146Y63388D01*
X248114D01*
Y64700D02*
Y66668D01*
X247458Y67324D01*
X246802Y66668D01*
Y65356D01*
X246146Y64700D01*
X245490Y65356D01*
Y67324D01*
X248114Y70604D02*
Y69292D01*
X247458Y68636D01*
X246146D01*
X245490Y69292D01*
Y70604D01*
X246146Y71260D01*
X246802D01*
Y68636D01*
X59724Y164330D02*
X59199Y164855D01*
X58149D01*
X57625Y164330D01*
Y163805D01*
X58149Y163280D01*
X59199D01*
X59724Y162755D01*
Y162231D01*
X59199Y161706D01*
X58149D01*
X57625Y162231D01*
X60773Y164855D02*
Y161706D01*
X62348D01*
X62872Y162231D01*
Y164330D01*
X62348Y164855D01*
X60773D01*
X63922Y161706D02*
Y163805D01*
X64971Y164855D01*
X66021Y163805D01*
Y161706D01*
Y163280D01*
X63922D01*
X54476Y155528D02*
Y158676D01*
X56050D01*
X56575Y158151D01*
Y157102D01*
X56050Y156577D01*
X54476D01*
X57625Y158676D02*
Y156052D01*
X58149Y155528D01*
X59199D01*
X59724Y156052D01*
Y158676D01*
X60773D02*
Y155528D01*
X62872D01*
X63922Y158676D02*
Y155528D01*
X66021D01*
X7952Y19722D02*
X9527D01*
X8739D01*
Y14999D01*
X7952D01*
X9527D01*
X11888D02*
Y18148D01*
X14249D01*
X15037Y17360D01*
Y14999D01*
X16611Y13425D02*
Y18148D01*
X18972D01*
X19760Y17360D01*
Y15786D01*
X18972Y14999D01*
X16611D01*
X21334Y18148D02*
Y15786D01*
X22121Y14999D01*
X24482D01*
Y18148D01*
X26844Y18935D02*
Y18148D01*
X26057D01*
X27631D01*
X26844D01*
Y15786D01*
X27631Y14999D01*
X7952Y5357D02*
X9527D01*
X8739D01*
Y10080D01*
X7952Y9293D01*
X15037Y5357D02*
X11888D01*
X15037Y8506D01*
Y9293D01*
X14249Y10080D01*
X12675D01*
X11888Y9293D01*
X16611Y7719D02*
X19760D01*
X24482Y5357D02*
X21334D01*
X24482Y8506D01*
Y9293D01*
X23695Y10080D01*
X22121D01*
X21334Y9293D01*
X28418Y5357D02*
Y10080D01*
X26057Y7719D01*
X29205D01*
X30779Y10080D02*
Y6932D01*
X32354Y5357D01*
X33928Y6932D01*
Y10080D01*
X61366Y179094D02*
X60841Y179618D01*
X59791D01*
X59267Y179094D01*
Y178569D01*
X59791Y178044D01*
X60841D01*
X61366Y177519D01*
Y176994D01*
X60841Y176470D01*
X59791D01*
X59267Y176994D01*
X64514Y179094D02*
X63990Y179618D01*
X62940D01*
X62415Y179094D01*
Y176994D01*
X62940Y176470D01*
X63990D01*
X64514Y176994D01*
X65564Y179618D02*
Y176470D01*
X67663D01*
X56118Y170291D02*
Y173440D01*
X57692D01*
X58217Y172915D01*
Y171866D01*
X57692Y171341D01*
X56118D01*
X59267Y173440D02*
Y170816D01*
X59791Y170291D01*
X60841D01*
X61366Y170816D01*
Y173440D01*
X62415D02*
Y170291D01*
X64514D01*
X65564Y173440D02*
Y170291D01*
X67663D01*
X70195Y184201D02*
X69670Y183677D01*
Y182627D01*
X70195Y182102D01*
X70720D01*
X71245Y182627D01*
Y183677D01*
X71769Y184201D01*
X72294D01*
X72819Y183677D01*
Y182627D01*
X72294Y182102D01*
X70195Y187350D02*
X69670Y186825D01*
Y185776D01*
X70195Y185251D01*
X72294D01*
X72819Y185776D01*
Y186825D01*
X72294Y187350D01*
X69670Y188400D02*
X72819D01*
Y190499D01*
X93195Y5625D02*
X92211Y4641D01*
Y2673D01*
X93195Y1689D01*
X97130D01*
X98114Y2673D01*
Y4641D01*
X97130Y5625D01*
X95162D01*
Y3657D01*
X98114Y7593D02*
X92211D01*
X98114Y11528D01*
X92211D01*
Y13496D02*
X98114D01*
Y16448D01*
X97130Y17432D01*
X93195D01*
X92211Y16448D01*
Y13496D01*
X42325Y1575D02*
X46260D01*
X48228Y3543D01*
X46260Y5511D01*
X42325D01*
X43309Y11414D02*
X42325Y10430D01*
Y8462D01*
X43309Y7478D01*
X47244D01*
X48228Y8462D01*
Y10430D01*
X47244Y11414D01*
X43309Y17318D02*
X42325Y16334D01*
Y14366D01*
X43309Y13382D01*
X47244D01*
X48228Y14366D01*
Y16334D01*
X47244Y17318D01*
X130970Y38299D02*
Y42298D01*
X128970Y40299D02*
X132969D01*
X172030Y65701D02*
Y61702D01*
X174030Y63701D02*
X170031D01*
X132874Y181102D02*
X129725D01*
X130775Y182152D01*
X129725Y183201D01*
X132874D01*
X129725Y185825D02*
Y184776D01*
X130250Y184251D01*
X132349D01*
X132874Y184776D01*
Y185825D01*
X132349Y186350D01*
X130250D01*
X129725Y185825D01*
X130250Y189499D02*
X129725Y188974D01*
Y187924D01*
X130250Y187399D01*
X130775D01*
X131300Y187924D01*
Y188974D01*
X131825Y189499D01*
X132349D01*
X132874Y188974D01*
Y187924D01*
X132349Y187399D01*
X129725Y190548D02*
Y191598D01*
Y191073D01*
X132874D01*
Y190548D01*
Y191598D01*
X122381Y170323D02*
X119233D01*
X120282Y171372D01*
X119233Y172422D01*
X122381D01*
X119233Y173471D02*
Y174521D01*
Y173996D01*
X122381D01*
Y173471D01*
Y174521D01*
X119757Y178194D02*
X119233Y177670D01*
Y176620D01*
X119757Y176095D01*
X120282D01*
X120807Y176620D01*
Y177670D01*
X121332Y178194D01*
X121856D01*
X122381Y177670D01*
Y176620D01*
X121856Y176095D01*
X119233Y180818D02*
Y179769D01*
X119757Y179244D01*
X121856D01*
X122381Y179769D01*
Y180818D01*
X121856Y181343D01*
X119757D01*
X119233Y180818D01*
X110565Y185170D02*
X110040Y184645D01*
Y183596D01*
X110565Y183071D01*
X111090D01*
X111615Y183596D01*
Y184645D01*
X112139Y185170D01*
X112664D01*
X113189Y184645D01*
Y183596D01*
X112664Y183071D01*
X110565Y188319D02*
X110040Y187794D01*
Y186744D01*
X110565Y186220D01*
X112664D01*
X113189Y186744D01*
Y187794D01*
X112664Y188319D01*
X110040Y189368D02*
X113189D01*
X112139D01*
X110040Y191467D01*
X111615Y189893D01*
X113189Y191467D01*
X80053Y184186D02*
X79529Y183661D01*
Y182611D01*
X80053Y182087D01*
X80578D01*
X81103Y182611D01*
Y183661D01*
X81628Y184186D01*
X82152D01*
X82677Y183661D01*
Y182611D01*
X82152Y182087D01*
X79529Y185235D02*
X82677D01*
Y186810D01*
X82152Y187334D01*
X80053D01*
X79529Y186810D01*
Y185235D01*
X82677Y188384D02*
X80578D01*
X79529Y189433D01*
X80578Y190483D01*
X82677D01*
X81103D01*
Y188384D01*
X235040Y186024D02*
Y188123D01*
Y187073D01*
X238189D01*
X235040Y189172D02*
X238189Y191271D01*
X235040D02*
X238189Y189172D01*
X248031Y186024D02*
X244883D01*
Y187598D01*
X245408Y188123D01*
X246457D01*
X246982Y187598D01*
Y186024D01*
Y187073D02*
X248031Y188123D01*
X244883Y189172D02*
X248031Y191271D01*
X244883D02*
X248031Y189172D01*
X191929Y158465D02*
Y161613D01*
X193503D01*
X194028Y161088D01*
Y160039D01*
X193503Y159514D01*
X191929D01*
X195078Y161613D02*
Y158989D01*
X195603Y158465D01*
X196652D01*
X197177Y158989D01*
Y161613D01*
X198226D02*
Y158465D01*
X200325D01*
X201375Y161613D02*
Y158465D01*
X203474D01*
X207672Y161613D02*
Y158465D01*
X209246D01*
X209771Y158989D01*
Y159514D01*
X209246Y160039D01*
X207672D01*
X209246D01*
X209771Y160564D01*
Y161088D01*
X209246Y161613D01*
X207672D01*
X192913Y179134D02*
Y182282D01*
X194488D01*
X195012Y181758D01*
Y180708D01*
X194488Y180183D01*
X192913D01*
X196062Y182282D02*
Y179659D01*
X196587Y179134D01*
X197636D01*
X198161Y179659D01*
Y182282D01*
X199211D02*
Y179134D01*
X201310D01*
X202359Y182282D02*
Y179134D01*
X204458D01*
X208656D02*
Y181233D01*
X209706Y182282D01*
X210755Y181233D01*
Y179134D01*
Y180708D01*
X208656D01*
X99082Y182742D02*
X98427Y182086D01*
Y180774D01*
X99082Y180118D01*
X101706D01*
X102362Y180774D01*
Y182086D01*
X101706Y182742D01*
X100394D01*
Y181430D01*
X102362Y184054D02*
X98427D01*
X102362Y186678D01*
X98427D01*
Y187990D02*
X102362D01*
Y189957D01*
X101706Y190613D01*
X99082D01*
X98427Y189957D01*
Y187990D01*
X145624Y20936D02*
X143000D01*
Y18968D01*
X144312Y19624D01*
X144968D01*
X145624Y18968D01*
Y17656D01*
X144968Y17000D01*
X143656D01*
X143000Y17656D01*
X146936Y20936D02*
Y18312D01*
X148248Y17000D01*
X149560Y18312D01*
Y20936D01*
X158624Y20280D02*
X157968Y20936D01*
X156656D01*
X156000Y20280D01*
Y17656D01*
X156656Y17000D01*
X157968D01*
X158624Y17656D01*
Y18968D01*
X157312D01*
X159936Y17000D02*
Y20936D01*
X162560Y17000D01*
Y20936D01*
X163872D02*
Y17000D01*
X165839D01*
X166495Y17656D01*
Y20280D01*
X165839Y20936D01*
X163872D01*
X172343Y20373D02*
Y18274D01*
X173392Y17224D01*
X174442Y18274D01*
Y20373D01*
X175491D02*
X176541D01*
X176016D01*
Y17224D01*
X175491D01*
X176541D01*
X178115D02*
Y20373D01*
X180214Y17224D01*
Y20373D01*
X245734Y129920D02*
X243110D01*
Y127952D01*
X244422Y128608D01*
X245078D01*
X245734Y127952D01*
Y126640D01*
X245078Y125984D01*
X243766D01*
X243110Y126640D01*
X247046Y129920D02*
Y127296D01*
X248358Y125984D01*
X249670Y127296D01*
Y129920D01*
X244752Y135498D02*
X244096Y134842D01*
Y133530D01*
X244752Y132874D01*
X247375D01*
X248031Y133530D01*
Y134842D01*
X247375Y135498D01*
X246064D01*
Y134186D01*
X248031Y136810D02*
X244096D01*
X248031Y139434D01*
X244096D01*
Y140745D02*
X248031D01*
Y142713D01*
X247375Y143369D01*
X244752D01*
X244096Y142713D01*
Y140745D01*
X242126Y160432D02*
Y156496D01*
X244094D01*
X244750Y157152D01*
Y157808D01*
X244094Y158464D01*
X242126D01*
X244094D01*
X244750Y159120D01*
Y159776D01*
X244094Y160432D01*
X242126D01*
X246062Y156496D02*
X248686Y159120D01*
X249997Y160432D02*
Y157808D01*
X251309Y156496D01*
X252621Y157808D01*
Y160432D01*
X242126Y166339D02*
Y168962D01*
X243438Y170274D01*
X244750Y168962D01*
Y166339D01*
Y168306D01*
X242126D01*
X246062Y166339D02*
X248686Y168962D01*
X249997Y170274D02*
Y166995D01*
X250653Y166339D01*
X251965D01*
X252621Y166995D01*
Y170274D01*
X242126Y149605D02*
X243438D01*
X242782D01*
Y145669D01*
X242126D01*
X243438D01*
X245406D02*
X248030Y148293D01*
X249342Y149605D02*
Y145669D01*
X250653Y146981D01*
X251965Y145669D01*
Y149605D01*
X44000Y104936D02*
X45312D01*
X44656D01*
Y101000D01*
X44000D01*
X45312D01*
X47280D02*
Y104936D01*
X49904Y101000D01*
Y104936D01*
X51215Y101000D02*
Y103624D01*
X52527Y104936D01*
X53839Y103624D01*
Y101000D01*
Y102968D01*
X51215D01*
X57775Y101000D02*
X55151D01*
X57775Y103624D01*
Y104280D01*
X57119Y104936D01*
X55807D01*
X55151Y104280D01*
X182624Y91280D02*
X181968Y91936D01*
X180656D01*
X180000Y91280D01*
Y88656D01*
X180656Y88000D01*
X181968D01*
X182624Y88656D01*
X183936Y88000D02*
Y90624D01*
X185248Y91936D01*
X186560Y90624D01*
Y88000D01*
Y89968D01*
X183936D01*
X187872Y88000D02*
Y91936D01*
X189839D01*
X190495Y91280D01*
Y89968D01*
X189839Y89312D01*
X187872D01*
X191807Y88000D02*
X193119D01*
X192463D01*
Y91936D01*
X191807Y91280D01*
X152702Y41481D02*
Y37545D01*
X155326D01*
X156638D02*
X157950D01*
X157294D01*
Y41481D01*
X156638Y40825D01*
X120624Y50280D02*
X119968Y50936D01*
X118656D01*
X118000Y50280D01*
Y47656D01*
X118656Y47000D01*
X119968D01*
X120624Y47656D01*
X121936Y47000D02*
Y49624D01*
X123248Y50936D01*
X124560Y49624D01*
Y47000D01*
Y48968D01*
X121936D01*
X125872Y47000D02*
Y50936D01*
X127839D01*
X128495Y50280D01*
Y48968D01*
X127839Y48312D01*
X125872D01*
X132431Y47000D02*
X129807D01*
X132431Y49624D01*
Y50280D01*
X131775Y50936D01*
X130463D01*
X129807Y50280D01*
X5906Y127952D02*
X8529D01*
X7217D01*
Y124016D01*
X9841Y127952D02*
Y124016D01*
X11809D01*
X12465Y124672D01*
Y125328D01*
X11809Y125984D01*
X9841D01*
X11809D01*
X12465Y126640D01*
Y127295D01*
X11809Y127952D01*
X9841D01*
X13777Y123360D02*
X16401D01*
X17713Y124016D02*
Y127952D01*
X19025Y126640D01*
X20336Y127952D01*
Y124016D01*
X21648D02*
X22960D01*
X22304D01*
Y127952D01*
X21648Y127295D01*
X53000Y137000D02*
Y140936D01*
X54968D01*
X55624Y140280D01*
Y138968D01*
X54968Y138312D01*
X53000D01*
X54312D02*
X55624Y137000D01*
X59560Y140280D02*
X58904Y140936D01*
X57592D01*
X56936Y140280D01*
Y137656D01*
X57592Y137000D01*
X58904D01*
X59560Y137656D01*
X63495Y140280D02*
X62839Y140936D01*
X61527D01*
X60871Y140280D01*
Y139624D01*
X61527Y138968D01*
X62839D01*
X63495Y138312D01*
Y137656D01*
X62839Y137000D01*
X61527D01*
X60871Y137656D01*
X67431Y137000D02*
X64807D01*
X67431Y139624D01*
Y140280D01*
X66775Y140936D01*
X65463D01*
X64807Y140280D01*
X54134Y46260D02*
Y50196D01*
X56102D01*
X56758Y49540D01*
Y48228D01*
X56102Y47572D01*
X54134D01*
X55446D02*
X56758Y46260D01*
X60693Y49540D02*
X60037Y50196D01*
X58726D01*
X58070Y49540D01*
Y46916D01*
X58726Y46260D01*
X60037D01*
X60693Y46916D01*
X64629Y49540D02*
X63973Y50196D01*
X62661D01*
X62005Y49540D01*
Y48884D01*
X62661Y48228D01*
X63973D01*
X64629Y47572D01*
Y46916D01*
X63973Y46260D01*
X62661D01*
X62005Y46916D01*
X65941Y46260D02*
X67253D01*
X66597D01*
Y50196D01*
X65941Y49540D01*
X45000Y85936D02*
X46312D01*
X45656D01*
Y82000D01*
X45000D01*
X46312D01*
X48280D02*
Y85936D01*
X50904Y82000D01*
Y85936D01*
X52215Y82000D02*
Y84624D01*
X53527Y85936D01*
X54839Y84624D01*
Y82000D01*
Y83968D01*
X52215D01*
X56151Y82000D02*
X57463D01*
X56807D01*
Y85936D01*
X56151Y85280D01*
X35433Y28248D02*
X31497D01*
Y30216D01*
X32153Y30872D01*
X33465D01*
X34121Y30216D01*
Y28248D01*
Y29560D02*
X35433Y30872D01*
Y32184D02*
Y33496D01*
Y32840D01*
X31497D01*
X32153Y32184D01*
X192913Y138779D02*
Y141928D01*
X194488D01*
X195012Y141403D01*
Y140354D01*
X194488Y139829D01*
X192913D01*
X196062Y141928D02*
Y139304D01*
X196587Y138779D01*
X197636D01*
X198161Y139304D01*
Y141928D01*
X199211D02*
Y138779D01*
X201310D01*
X202359Y141928D02*
Y138779D01*
X204458D01*
X205508Y138255D02*
X207607D01*
X208656Y141928D02*
X209706D01*
X209181D01*
Y138779D01*
X208656D01*
X209706D01*
X139764Y159449D02*
Y163385D01*
X141732D01*
X142388Y162729D01*
Y161417D01*
X141732Y160761D01*
X139764D01*
X141076D02*
X142388Y159449D01*
X146323D02*
X143700D01*
X146323Y162073D01*
Y162729D01*
X145667Y163385D01*
X144355D01*
X143700Y162729D01*
X10827Y55117D02*
Y51181D01*
X12795D01*
X13451Y51837D01*
Y54461D01*
X12795Y55117D01*
X10827D01*
X14762Y51181D02*
X16074D01*
X15418D01*
Y55117D01*
X14762Y54461D01*
X119488Y142912D02*
Y138976D01*
X122112D01*
X126048Y142912D02*
X124736Y142256D01*
X123424Y140944D01*
Y139632D01*
X124080Y138976D01*
X125392D01*
X126048Y139632D01*
Y140288D01*
X125392Y140944D01*
X123424D01*
X129983Y138976D02*
X127360D01*
X129983Y141600D01*
Y142256D01*
X129327Y142912D01*
X128016D01*
X127360Y142256D01*
X131295D02*
X131951Y142912D01*
X133263D01*
X133919Y142256D01*
Y141600D01*
X133263Y140944D01*
X132607D01*
X133263D01*
X133919Y140288D01*
Y139632D01*
X133263Y138976D01*
X131951D01*
X131295Y139632D01*
X137199Y138976D02*
Y142912D01*
X135231Y140944D01*
X137855D01*
X176182Y98425D02*
X180118D01*
Y100393D01*
X179462Y101049D01*
X178806D01*
X178150Y100393D01*
Y98425D01*
Y100393D01*
X177494Y101049D01*
X176838D01*
X176182Y100393D01*
Y98425D01*
X180118Y102361D02*
X177494D01*
X176182Y103673D01*
X177494Y104985D01*
X180118D01*
X178150D01*
Y102361D01*
X176182Y106297D02*
Y108921D01*
Y107609D01*
X180118D01*
Y110232D02*
Y111544D01*
Y110888D01*
X176182D01*
X176838Y110232D01*
X231912Y115205D02*
Y119140D01*
X233880D01*
X234536Y118484D01*
Y117173D01*
X233880Y116517D01*
X231912D01*
X235847Y114549D02*
X238471D01*
X242407Y119140D02*
X239783D01*
Y115205D01*
X242407D01*
X239783Y117173D02*
X241095D01*
X243719Y115205D02*
Y119140D01*
X246343Y115205D01*
Y119140D01*
X250278Y118484D02*
X249623Y119140D01*
X248311D01*
X247655Y118484D01*
Y115861D01*
X248311Y115205D01*
X249623D01*
X250278Y115861D01*
X59646Y37302D02*
X62270D01*
X60958D01*
Y33366D01*
X63581Y37302D02*
Y33366D01*
X65549D01*
X66205Y34022D01*
Y34678D01*
X65549Y35334D01*
X63581D01*
X65549D01*
X66205Y35990D01*
Y36646D01*
X65549Y37302D01*
X63581D01*
X67517Y32710D02*
X70141D01*
X71453Y33366D02*
Y37302D01*
X73421D01*
X74077Y36646D01*
Y35334D01*
X73421Y34678D01*
X71453D01*
X75389Y37302D02*
Y33366D01*
X76701Y34678D01*
X78013Y33366D01*
Y37302D01*
X79324Y33366D02*
Y37302D01*
X81292D01*
X81948Y36646D01*
Y35334D01*
X81292Y34678D01*
X79324D01*
X80636D02*
X81948Y33366D01*
X151720Y90624D02*
X151064Y89968D01*
Y88656D01*
X151720Y88000D01*
X154344D01*
X155000Y88656D01*
Y89968D01*
X154344Y90624D01*
X155000Y93904D02*
X151064D01*
X153032Y91936D01*
Y94560D01*
X168964Y131561D02*
X168308Y130905D01*
Y129593D01*
X168964Y128937D01*
X171588D01*
X172244Y129593D01*
Y130905D01*
X171588Y131561D01*
X168964Y132873D02*
X168308Y133529D01*
Y134841D01*
X168964Y135497D01*
X169620D01*
X170276Y134841D01*
Y134185D01*
Y134841D01*
X170932Y135497D01*
X171588D01*
X172244Y134841D01*
Y133529D01*
X171588Y132873D01*
X168964Y120734D02*
X168308Y120078D01*
Y118766D01*
X168964Y118110D01*
X171588D01*
X172244Y118766D01*
Y120078D01*
X171588Y120734D01*
X172244Y124670D02*
Y122046D01*
X169620Y124670D01*
X168964D01*
X168308Y124014D01*
Y122702D01*
X168964Y122046D01*
X97998Y52886D02*
X97342Y53542D01*
X96030D01*
X95374Y52886D01*
Y50262D01*
X96030Y49606D01*
X97342D01*
X97998Y50262D01*
X99310Y49606D02*
X100622D01*
X99966D01*
Y53542D01*
X99310Y52886D01*
D12*
X83484Y127520D02*
X89980D01*
X83484Y112756D02*
Y127520D01*
Y84212D02*
Y98779D01*
Y84212D02*
X89980D01*
X139586Y127520D02*
X146083D01*
Y112756D02*
Y127520D01*
Y84212D02*
Y98976D01*
X139586Y84212D02*
X146083D01*
M02*
