G04*
G04 #@! TF.GenerationSoftware,Altium Limited,Altium Designer,18.0.7 (293)*
G04*
G04 Layer_Color=8421504*
%FSLAX25Y25*%
%MOIN*%
G70*
G01*
G75*
%ADD13R,0.04331X0.12992*%
%ADD14R,0.10236X0.04331*%
%ADD15R,0.04331X0.10236*%
G04:AMPARAMS|DCode=16|XSize=78.35mil|YSize=24.8mil|CornerRadius=1.98mil|HoleSize=0mil|Usage=FLASHONLY|Rotation=90.000|XOffset=0mil|YOffset=0mil|HoleType=Round|Shape=RoundedRectangle|*
%AMROUNDEDRECTD16*
21,1,0.07835,0.02084,0,0,90.0*
21,1,0.07438,0.02480,0,0,90.0*
1,1,0.00397,0.01042,0.03719*
1,1,0.00397,0.01042,-0.03719*
1,1,0.00397,-0.01042,-0.03719*
1,1,0.00397,-0.01042,0.03719*
%
%ADD16ROUNDEDRECTD16*%
%ADD17R,0.24016X0.24803*%
%ADD18R,0.11024X0.05906*%
%ADD19R,0.05906X0.01575*%
%ADD20R,0.05906X0.10236*%
%ADD21R,0.04331X0.06693*%
%ADD22R,0.15748X0.07874*%
%ADD23R,0.06693X0.04331*%
%ADD24R,0.02756X0.03937*%
D13*
X65354Y128937D02*
D03*
X42913D02*
D03*
X65354Y58071D02*
D03*
X42913D02*
D03*
D14*
X131890Y161811D02*
D03*
Y151181D02*
D03*
X43307Y41732D02*
D03*
Y31102D02*
D03*
D15*
X82087Y160433D02*
D03*
X71457D02*
D03*
X82087Y174213D02*
D03*
X71457D02*
D03*
X194488Y130905D02*
D03*
X205118D02*
D03*
X194488Y151575D02*
D03*
X205118D02*
D03*
X194488Y171260D02*
D03*
X205118D02*
D03*
D16*
X92283Y131890D02*
D03*
X97283D02*
D03*
X102283D02*
D03*
X107283D02*
D03*
X112283D02*
D03*
X117283D02*
D03*
X122283D02*
D03*
X127283D02*
D03*
X132283D02*
D03*
X137283D02*
D03*
Y79843D02*
D03*
X132283D02*
D03*
X127283D02*
D03*
X122283D02*
D03*
X117283D02*
D03*
X112283D02*
D03*
X107283D02*
D03*
X102283D02*
D03*
X97283D02*
D03*
X92283D02*
D03*
D17*
X181398Y39567D02*
D03*
D18*
X156791Y30622D02*
D03*
Y48622D02*
D03*
D19*
X65748Y108563D02*
D03*
Y111122D02*
D03*
X42913Y108563D02*
D03*
Y111122D02*
D03*
X65748Y113681D02*
D03*
Y116240D02*
D03*
X42913Y113681D02*
D03*
Y116240D02*
D03*
X43701Y77658D02*
D03*
Y75098D02*
D03*
X66535Y77658D02*
D03*
Y75098D02*
D03*
X43701Y72539D02*
D03*
Y69980D02*
D03*
X66535Y72539D02*
D03*
Y69980D02*
D03*
D20*
X13780Y41339D02*
D03*
X25591D02*
D03*
D21*
X61417Y94488D02*
D03*
X50787D02*
D03*
X170315Y91000D02*
D03*
X159685D02*
D03*
X163779Y131890D02*
D03*
X153150D02*
D03*
X163779Y121063D02*
D03*
X153150D02*
D03*
D22*
X113102Y32000D02*
D03*
X132000D02*
D03*
X189898Y72000D02*
D03*
X171000D02*
D03*
D23*
X98000Y33685D02*
D03*
Y44315D02*
D03*
D24*
X168370Y100457D02*
D03*
X160496D02*
D03*
X164433Y108331D02*
D03*
M02*
