G04*
G04 #@! TF.GenerationSoftware,Altium Limited,Altium Designer,18.0.7 (293)*
G04*
G04 Layer_Physical_Order=2*
G04 Layer_Color=16711680*
%FSLAX25Y25*%
%MOIN*%
G70*
G01*
G75*
%ADD37C,0.01181*%
%ADD38C,0.03937*%
%ADD39C,0.01968*%
%ADD43C,0.00000*%
%ADD44C,0.15748*%
%ADD45R,0.05906X0.05906*%
%ADD46C,0.05906*%
%ADD47R,0.05906X0.05906*%
%ADD48C,0.12598*%
%ADD49C,0.05000*%
%ADD50R,0.06000X0.06000*%
%ADD51R,0.06000X0.06000*%
G36*
X251969Y200787D02*
Y153543D01*
X259019Y146493D01*
X258792Y146013D01*
X257874Y146103D01*
X256253Y145943D01*
X254695Y145471D01*
X253258Y144703D01*
X252000Y143670D01*
X251309Y142829D01*
X250810Y143008D01*
Y157441D01*
X250722Y158109D01*
X250464Y158731D01*
X250054Y159266D01*
X243110Y166209D01*
Y172402D01*
X233268D01*
Y170061D01*
X229258D01*
X218361Y180959D01*
X217826Y181369D01*
X217203Y181627D01*
X216535Y181715D01*
X212646D01*
Y184102D01*
X202709D01*
Y174272D01*
X202209Y174239D01*
X202188Y174395D01*
X201738Y175482D01*
X201022Y176415D01*
X200088Y177132D01*
X199001Y177582D01*
X197835Y177735D01*
X196668Y177582D01*
X195581Y177132D01*
X194648Y176415D01*
X193931Y175482D01*
X193481Y174395D01*
X193328Y173228D01*
X193481Y172062D01*
X193931Y170975D01*
X194648Y170041D01*
X195581Y169325D01*
X196668Y168875D01*
X197835Y168721D01*
X199001Y168875D01*
X199450Y169061D01*
X199497Y169025D01*
X200119Y168767D01*
X200787Y168679D01*
X202709D01*
Y166291D01*
X212646D01*
Y174165D01*
Y176553D01*
X215466D01*
X226364Y165655D01*
X226898Y165245D01*
X227521Y164987D01*
X228189Y164899D01*
X233268D01*
Y162559D01*
X236284D01*
X236383Y162059D01*
X235707Y161779D01*
X234679Y160990D01*
X233966Y160061D01*
X212646D01*
Y162449D01*
X202709D01*
Y153603D01*
X202209Y153570D01*
X202188Y153726D01*
X201738Y154813D01*
X201022Y155746D01*
X200088Y156462D01*
X199001Y156913D01*
X197835Y157066D01*
X196668Y156913D01*
X195581Y156462D01*
X194648Y155746D01*
X193931Y154813D01*
X193481Y153726D01*
X193328Y152559D01*
X193481Y151393D01*
X193931Y150305D01*
X194648Y149372D01*
X195581Y148656D01*
X196668Y148206D01*
X197835Y148052D01*
X199001Y148206D01*
X199370Y148358D01*
X199946Y147781D01*
X200481Y147371D01*
X201104Y147113D01*
X201772Y147025D01*
X202709D01*
Y144638D01*
X212646D01*
Y152512D01*
Y154899D01*
X233966D01*
X234679Y153970D01*
X235707Y153182D01*
X236781Y152737D01*
X236781Y152736D01*
Y152225D01*
X236781Y152224D01*
X235707Y151779D01*
X234679Y150990D01*
X233966Y150061D01*
X230157D01*
X229489Y149973D01*
X228867Y149716D01*
X228332Y149305D01*
X213498Y134471D01*
X212646D01*
Y136858D01*
X202723D01*
X202587Y136868D01*
X202271Y137255D01*
X202342Y137795D01*
X202188Y138962D01*
X201738Y140049D01*
X201022Y140982D01*
X200088Y141699D01*
X199001Y142149D01*
X197835Y142302D01*
X196668Y142149D01*
X195581Y141699D01*
X194648Y140982D01*
X193931Y140049D01*
X193481Y138962D01*
X193328Y137795D01*
X193481Y136629D01*
X193931Y135542D01*
X194648Y134608D01*
X195254Y134143D01*
Y128937D01*
X195342Y128269D01*
X195599Y127647D01*
X196010Y127112D01*
X200931Y122191D01*
X201465Y121780D01*
X202088Y121523D01*
X202709Y121441D01*
Y120026D01*
X202247Y119834D01*
X192542Y129539D01*
Y181647D01*
X204902Y194008D01*
X206063Y193855D01*
X207348Y194024D01*
X208545Y194520D01*
X209573Y195309D01*
X210362Y196337D01*
X210806Y197411D01*
X210807Y197411D01*
X211319D01*
X211320Y197411D01*
X211764Y196337D01*
X212553Y195309D01*
X213581Y194520D01*
X214778Y194024D01*
X216063Y193855D01*
X217348Y194024D01*
X218545Y194520D01*
X219573Y195309D01*
X220362Y196337D01*
X220806Y197411D01*
X220807Y197411D01*
X221319D01*
X221320Y197411D01*
X221764Y196337D01*
X222553Y195309D01*
X223581Y194520D01*
X224778Y194024D01*
X226063Y193855D01*
X227348Y194024D01*
X228545Y194520D01*
X229573Y195309D01*
X230362Y196337D01*
X230806Y197411D01*
X230807Y197411D01*
X231319D01*
X231320Y197411D01*
X231764Y196337D01*
X232553Y195309D01*
X233581Y194520D01*
X234778Y194024D01*
X236063Y193855D01*
X237348Y194024D01*
X238545Y194520D01*
X239573Y195309D01*
X240362Y196337D01*
X240806Y197411D01*
X240807Y197411D01*
X241319D01*
X241320Y197411D01*
X241764Y196337D01*
X242553Y195309D01*
X243581Y194520D01*
X244778Y194024D01*
X246063Y193855D01*
X247348Y194024D01*
X248545Y194520D01*
X249573Y195309D01*
X250362Y196337D01*
X250858Y197534D01*
X251027Y198819D01*
X250858Y200104D01*
X250362Y201301D01*
X249573Y202329D01*
X248545Y203118D01*
X247348Y203613D01*
X246063Y203783D01*
X244778Y203613D01*
X243581Y203118D01*
X242553Y202329D01*
X241764Y201301D01*
X241320Y200227D01*
X241319Y200227D01*
X240807D01*
X240806Y200227D01*
X240362Y201301D01*
X239573Y202329D01*
X238545Y203118D01*
X237348Y203613D01*
X236063Y203783D01*
X234778Y203613D01*
X233581Y203118D01*
X232553Y202329D01*
X231764Y201301D01*
X231320Y200227D01*
X231319Y200227D01*
X230807D01*
X230806Y200227D01*
X230362Y201301D01*
X229573Y202329D01*
X228545Y203118D01*
X227348Y203613D01*
X226063Y203783D01*
X224778Y203613D01*
X223581Y203118D01*
X222553Y202329D01*
X221764Y201301D01*
X221320Y200227D01*
X221319Y200227D01*
X220807D01*
X220806Y200227D01*
X220362Y201301D01*
X219573Y202329D01*
X218545Y203118D01*
X217348Y203613D01*
X216063Y203783D01*
X214778Y203613D01*
X213581Y203118D01*
X212553Y202329D01*
X211764Y201301D01*
X211320Y200227D01*
X211319Y200227D01*
X210807D01*
X210806Y200227D01*
X210362Y201301D01*
X209573Y202329D01*
X208545Y203118D01*
X207348Y203613D01*
X206063Y203783D01*
X204778Y203613D01*
X203581Y203118D01*
X202553Y202329D01*
X201764Y201301D01*
X201320Y200227D01*
X201319Y200227D01*
X200807D01*
X200806Y200227D01*
X200362Y201301D01*
X199573Y202329D01*
X198545Y203118D01*
X197348Y203613D01*
X196063Y203783D01*
X194778Y203613D01*
X193581Y203118D01*
X192553Y202329D01*
X191764Y201301D01*
X191320Y200227D01*
X191319Y200227D01*
X190807D01*
X190806Y200227D01*
X190362Y201301D01*
X189573Y202329D01*
X188545Y203118D01*
X187348Y203613D01*
X186063Y203783D01*
X184778Y203613D01*
X183581Y203118D01*
X182553Y202329D01*
X181764Y201301D01*
X181484Y200625D01*
X180984Y200724D01*
Y203740D01*
X171142D01*
Y197548D01*
X170419Y196825D01*
X170009Y196291D01*
X169751Y195668D01*
X169663Y195000D01*
Y115471D01*
X169163Y115264D01*
X163211Y121216D01*
Y194382D01*
X163545Y194520D01*
X164573Y195309D01*
X165362Y196337D01*
X165858Y197534D01*
X166027Y198819D01*
X165858Y200104D01*
X165362Y201301D01*
X164573Y202329D01*
X163545Y203118D01*
X162348Y203613D01*
X161063Y203783D01*
X159778Y203613D01*
X158581Y203118D01*
X157553Y202329D01*
X156764Y201301D01*
X156320Y200227D01*
X156319Y200227D01*
X155807D01*
X155806Y200227D01*
X155362Y201301D01*
X154573Y202329D01*
X153545Y203118D01*
X152348Y203613D01*
X151063Y203783D01*
X149778Y203613D01*
X148581Y203118D01*
X147553Y202329D01*
X146764Y201301D01*
X146320Y200227D01*
X146319Y200227D01*
X145807D01*
X145806Y200227D01*
X145362Y201301D01*
X144573Y202329D01*
X143545Y203118D01*
X142348Y203613D01*
X141063Y203783D01*
X139778Y203613D01*
X138581Y203118D01*
X137553Y202329D01*
X136764Y201301D01*
X136320Y200227D01*
X136319Y200227D01*
X135807D01*
X135806Y200227D01*
X135362Y201301D01*
X134573Y202329D01*
X133545Y203118D01*
X132348Y203613D01*
X131063Y203783D01*
X129778Y203613D01*
X128581Y203118D01*
X127553Y202329D01*
X126764Y201301D01*
X126320Y200227D01*
X126319Y200227D01*
X125807D01*
X125806Y200227D01*
X125362Y201301D01*
X124573Y202329D01*
X123545Y203118D01*
X122348Y203613D01*
X121063Y203783D01*
X119778Y203613D01*
X118581Y203118D01*
X117553Y202329D01*
X116764Y201301D01*
X116320Y200227D01*
X116319Y200227D01*
X115807D01*
X115806Y200227D01*
X115362Y201301D01*
X114573Y202329D01*
X113545Y203118D01*
X112348Y203613D01*
X111063Y203783D01*
X109778Y203613D01*
X108581Y203118D01*
X107553Y202329D01*
X106764Y201301D01*
X106268Y200104D01*
X106099Y198819D01*
X106268Y197534D01*
X106764Y196337D01*
X107553Y195309D01*
X108581Y194520D01*
X109778Y194024D01*
X111063Y193855D01*
X112348Y194024D01*
X113545Y194520D01*
X114573Y195309D01*
X115362Y196337D01*
X115806Y197411D01*
X115807Y197411D01*
X116319D01*
X116320Y197411D01*
X116764Y196337D01*
X117553Y195309D01*
X118581Y194520D01*
X119778Y194024D01*
X121063Y193855D01*
X122348Y194024D01*
X123545Y194520D01*
X124573Y195309D01*
X125362Y196337D01*
X125806Y197411D01*
X125807Y197411D01*
X126319D01*
X126320Y197411D01*
X126764Y196337D01*
X127553Y195309D01*
X128581Y194520D01*
X129778Y194024D01*
X131063Y193855D01*
X132348Y194024D01*
X133545Y194520D01*
X134573Y195309D01*
X135362Y196337D01*
X135806Y197411D01*
X135807Y197411D01*
X136319D01*
X136320Y197411D01*
X136764Y196337D01*
X137553Y195309D01*
X138581Y194520D01*
X139778Y194024D01*
X141063Y193855D01*
X142348Y194024D01*
X143545Y194520D01*
X144573Y195309D01*
X145362Y196337D01*
X145806Y197411D01*
X145807Y197411D01*
X146319D01*
X146320Y197411D01*
X146764Y196337D01*
X147553Y195309D01*
X148049Y194929D01*
Y95433D01*
X148137Y94765D01*
X148395Y94143D01*
X148805Y93608D01*
X154899Y87514D01*
Y83709D01*
X152512D01*
Y73772D01*
Y73031D01*
X99926D01*
X99461Y73637D01*
X98528Y74353D01*
X97441Y74803D01*
X96274Y74957D01*
X95108Y74803D01*
X94021Y74353D01*
X93317Y73813D01*
X92817Y74060D01*
Y82277D01*
X100621Y90081D01*
X101378Y89981D01*
X102544Y90135D01*
X103631Y90585D01*
X104565Y91301D01*
X105281Y92235D01*
X105731Y93322D01*
X105885Y94488D01*
X105731Y95655D01*
X105281Y96742D01*
X104565Y97675D01*
X103631Y98391D01*
X102975Y98663D01*
Y151860D01*
X103581Y152325D01*
X104297Y153258D01*
X104747Y154345D01*
X104901Y155512D01*
X104747Y156678D01*
X104297Y157765D01*
X103581Y158699D01*
X102647Y159415D01*
X101560Y159865D01*
X100394Y160019D01*
X99227Y159865D01*
X98140Y159415D01*
X97207Y158699D01*
X96491Y157765D01*
X96040Y156678D01*
X95887Y155517D01*
X95735Y155399D01*
X95443Y155254D01*
X94833Y155865D01*
X94875Y155966D01*
X94963Y156634D01*
X94955Y156695D01*
X95058Y157480D01*
X94905Y158647D01*
X94454Y159734D01*
X93738Y160667D01*
X92805Y161383D01*
X91718Y161834D01*
X90551Y161987D01*
X89385Y161834D01*
X88298Y161383D01*
X87364Y160667D01*
X86648Y159734D01*
X86198Y158647D01*
X86044Y157480D01*
X86198Y156314D01*
X86648Y155227D01*
X87364Y154293D01*
X88298Y153577D01*
X89239Y153187D01*
X89171Y152674D01*
X89070Y152661D01*
X88146Y152278D01*
X35118D01*
X34091Y152143D01*
X33133Y151746D01*
X32310Y151115D01*
X14909Y133713D01*
X14277Y132891D01*
X13881Y131933D01*
X13746Y130905D01*
Y122694D01*
X13746Y122693D01*
Y119274D01*
X12222Y118460D01*
X10723Y117230D01*
X9493Y115731D01*
X8579Y114021D01*
X8016Y112166D01*
X8016Y112164D01*
X7516Y112189D01*
Y200430D01*
X12795Y205709D01*
X53676D01*
X53844Y205238D01*
X53181Y204693D01*
X52148Y203434D01*
X51380Y201998D01*
X50907Y200440D01*
X50747Y198819D01*
X50907Y197198D01*
X51380Y195640D01*
X52148Y194203D01*
X53181Y192945D01*
X54440Y191911D01*
X55876Y191144D01*
X56335Y191004D01*
X56229Y190514D01*
X56102Y190531D01*
X54936Y190377D01*
X53849Y189927D01*
X52915Y189211D01*
X52199Y188277D01*
X51749Y187190D01*
X51595Y186024D01*
X51749Y184857D01*
X52199Y183770D01*
X52915Y182837D01*
X53849Y182120D01*
X54936Y181670D01*
X56102Y181517D01*
X57269Y181670D01*
X58356Y182120D01*
X59289Y182837D01*
X59754Y183442D01*
X63892D01*
X65898Y181436D01*
Y175150D01*
X83709D01*
Y185087D01*
X81321D01*
Y186024D01*
X81233Y186692D01*
X80976Y187314D01*
X80565Y187849D01*
X74978Y193436D01*
X75170Y193898D01*
X75984D01*
Y196914D01*
X76484Y197013D01*
X76764Y196337D01*
X77553Y195309D01*
X78581Y194520D01*
X79778Y194024D01*
X81063Y193855D01*
X82224Y194008D01*
X86001Y190230D01*
Y175282D01*
X80058Y169339D01*
X65898D01*
Y166951D01*
X58071D01*
X57403Y166863D01*
X57172Y166768D01*
X56102Y166909D01*
X54936Y166755D01*
X53849Y166305D01*
X52915Y165588D01*
X52199Y164655D01*
X51749Y163568D01*
X51595Y162402D01*
X51749Y161235D01*
X52199Y160148D01*
X52915Y159215D01*
X53849Y158498D01*
X54936Y158048D01*
X56102Y157895D01*
X57269Y158048D01*
X58356Y158498D01*
X59289Y159215D01*
X60006Y160148D01*
X60456Y161235D01*
X60529Y161789D01*
X65898D01*
Y159402D01*
X83709D01*
Y165688D01*
X90408Y172388D01*
X90818Y172922D01*
X91076Y173545D01*
X91164Y174213D01*
Y191299D01*
X91076Y191967D01*
X90818Y192590D01*
X90408Y193124D01*
X90048Y193484D01*
X90281Y193958D01*
X91063Y193855D01*
X92348Y194024D01*
X93545Y194520D01*
X94573Y195309D01*
X95362Y196337D01*
X95858Y197534D01*
X96027Y198819D01*
X95858Y200104D01*
X95362Y201301D01*
X94573Y202329D01*
X93545Y203118D01*
X92348Y203613D01*
X91063Y203783D01*
X89778Y203613D01*
X88581Y203118D01*
X87553Y202329D01*
X86764Y201301D01*
X86320Y200227D01*
X86319Y200227D01*
X85807D01*
X85806Y200227D01*
X85362Y201301D01*
X84573Y202329D01*
X83545Y203118D01*
X82348Y203613D01*
X81063Y203783D01*
X79778Y203613D01*
X78581Y203118D01*
X77553Y202329D01*
X76764Y201301D01*
X76484Y200625D01*
X75984Y200724D01*
Y203740D01*
X66142D01*
X66142Y203740D01*
Y203740D01*
X65651Y203814D01*
X64929Y204693D01*
X64266Y205238D01*
X64434Y205709D01*
X247047D01*
X251969Y200787D01*
D02*
G37*
G36*
X234679Y143970D02*
X235707Y143182D01*
X236904Y142686D01*
X238189Y142517D01*
X239474Y142686D01*
X240671Y143182D01*
X241699Y143970D01*
X241998Y144360D01*
X242498Y144190D01*
Y138714D01*
X241998Y138614D01*
X241642Y139474D01*
X241008Y140299D01*
X240182Y140933D01*
X239221Y141331D01*
X238689Y141401D01*
Y137480D01*
Y133559D01*
X239221Y133629D01*
X240182Y134028D01*
X241008Y134661D01*
X241642Y135487D01*
X241998Y136346D01*
X242498Y136247D01*
Y130771D01*
X241998Y130601D01*
X241699Y130990D01*
X240671Y131779D01*
X239474Y132275D01*
X238189Y132444D01*
X236904Y132275D01*
X235707Y131779D01*
X234679Y130990D01*
X233966Y130061D01*
X224847D01*
X224179Y129973D01*
X223557Y129716D01*
X223022Y129305D01*
X217860Y124143D01*
X217450Y123609D01*
X217192Y122986D01*
X217104Y122318D01*
Y116628D01*
X216535Y116393D01*
X215602Y115677D01*
X214886Y114743D01*
X214695Y114284D01*
X214195Y114383D01*
Y117265D01*
X215061Y118131D01*
X215472Y118665D01*
X215729Y119288D01*
X215817Y119956D01*
Y129490D01*
X216392Y130065D01*
X216392Y130065D01*
X231227Y144899D01*
X233966D01*
X234679Y143970D01*
D02*
G37*
G36*
X197063Y56176D02*
X196470Y55403D01*
X196020Y54316D01*
X195866Y53150D01*
X196020Y51983D01*
X196470Y50896D01*
X197186Y49963D01*
X198120Y49246D01*
X199207Y48796D01*
X200373Y48643D01*
X201540Y48796D01*
X202627Y49246D01*
X203560Y49963D01*
X204276Y50896D01*
X204727Y51983D01*
X204880Y53150D01*
X204727Y54316D01*
X204601Y54619D01*
X204984Y55002D01*
X205709Y54702D01*
X206875Y54548D01*
X208042Y54702D01*
X209129Y55152D01*
X210062Y55868D01*
X210502Y56441D01*
X211001Y56271D01*
Y42408D01*
X205624Y37030D01*
X178506D01*
X178297Y37530D01*
X178738Y38105D01*
X179091Y38956D01*
X179146Y39370D01*
X172217D01*
X172271Y38956D01*
X172624Y38105D01*
X173065Y37530D01*
X172857Y37030D01*
X116411D01*
X116242Y37530D01*
X116669Y37858D01*
X117230Y38589D01*
X117583Y39441D01*
X117638Y39854D01*
X110709D01*
X110763Y39441D01*
X111116Y38589D01*
X111677Y37858D01*
X112105Y37530D01*
X111935Y37030D01*
X108353D01*
X100216Y45166D01*
X100354Y45540D01*
X100442Y45647D01*
X182087D01*
X182755Y45735D01*
X183377Y45993D01*
X183912Y46403D01*
X189817Y52309D01*
X190227Y52843D01*
X190485Y53466D01*
X190573Y54134D01*
Y56674D01*
X190898Y57039D01*
X196200D01*
X197063Y56176D01*
D02*
G37*
G36*
X8016Y68937D02*
X8579Y67081D01*
X9493Y65372D01*
X10723Y63873D01*
X12222Y62643D01*
X13932Y61729D01*
X15787Y61166D01*
X17717Y60976D01*
X19646Y61166D01*
X21299Y61668D01*
X26720Y56247D01*
X27542Y55616D01*
X28500Y55220D01*
X29528Y55084D01*
X70745D01*
X71668Y54702D01*
X72835Y54548D01*
X74001Y54702D01*
X75088Y55152D01*
X76022Y55868D01*
X76643Y56678D01*
X77143Y56530D01*
Y53150D01*
X77231Y52482D01*
X77489Y51859D01*
X77899Y51324D01*
X105458Y23765D01*
X105993Y23355D01*
X106615Y23097D01*
X107283Y23009D01*
X129325D01*
X136976Y15358D01*
X136742Y14885D01*
X136142Y14964D01*
X134857Y14795D01*
X133660Y14299D01*
X132632Y13510D01*
X131843Y12482D01*
X131398Y11408D01*
X131398Y11408D01*
X130886D01*
X130885Y11408D01*
X130440Y12482D01*
X129652Y13510D01*
X128624Y14299D01*
X127426Y14795D01*
X126142Y14964D01*
X124857Y14795D01*
X123660Y14299D01*
X122632Y13510D01*
X121843Y12482D01*
X121398Y11408D01*
X121398Y11408D01*
X120886D01*
X120885Y11408D01*
X120440Y12482D01*
X119652Y13510D01*
X118624Y14299D01*
X117426Y14795D01*
X116142Y14964D01*
X114857Y14795D01*
X113660Y14299D01*
X112632Y13510D01*
X111843Y12482D01*
X111563Y11806D01*
X111063Y11905D01*
Y14921D01*
X101221D01*
Y5079D01*
X111063D01*
Y8095D01*
X111563Y8194D01*
X111843Y7518D01*
X112632Y6490D01*
X113660Y5701D01*
X114857Y5205D01*
X116142Y5036D01*
X117426Y5205D01*
X118624Y5701D01*
X119652Y6490D01*
X120440Y7518D01*
X120885Y8592D01*
X120886Y8592D01*
X121398D01*
X121398Y8592D01*
X121843Y7518D01*
X122632Y6490D01*
X123660Y5701D01*
X124857Y5205D01*
X126142Y5036D01*
X127426Y5205D01*
X128624Y5701D01*
X129652Y6490D01*
X130440Y7518D01*
X130885Y8592D01*
X130886Y8592D01*
X131398D01*
X131398Y8592D01*
X131843Y7518D01*
X132632Y6490D01*
X133660Y5701D01*
X134857Y5205D01*
X136142Y5036D01*
X137426Y5205D01*
X138624Y5701D01*
X139652Y6490D01*
X140440Y7518D01*
X140885Y8592D01*
X140886Y8592D01*
X141398D01*
X141398Y8592D01*
X141843Y7518D01*
X142632Y6490D01*
X143660Y5701D01*
X144857Y5205D01*
X146142Y5036D01*
X147426Y5205D01*
X148624Y5701D01*
X149652Y6490D01*
X150440Y7518D01*
X150936Y8715D01*
X151105Y10000D01*
X150936Y11285D01*
X150440Y12482D01*
X149652Y13510D01*
X148624Y14299D01*
X147426Y14795D01*
X146142Y14964D01*
X144857Y14795D01*
X144845Y14790D01*
X132219Y27416D01*
X131684Y27826D01*
X131062Y28084D01*
X130394Y28172D01*
X108353D01*
X82306Y54219D01*
Y55123D01*
X82767Y55314D01*
X105458Y32624D01*
X105993Y32214D01*
X106615Y31956D01*
X107283Y31868D01*
X204262D01*
X204454Y31406D01*
X194238Y21190D01*
X193828Y20655D01*
X193570Y20033D01*
X193482Y19365D01*
Y14921D01*
X191142D01*
Y5079D01*
X200984D01*
Y8095D01*
X201484Y8194D01*
X201764Y7518D01*
X202553Y6490D01*
X203581Y5701D01*
X204778Y5205D01*
X206063Y5036D01*
X207348Y5205D01*
X208545Y5701D01*
X209573Y6490D01*
X210362Y7518D01*
X210806Y8592D01*
X210807Y8592D01*
X211319D01*
X211320Y8592D01*
X211764Y7518D01*
X212553Y6490D01*
X213581Y5701D01*
X214778Y5205D01*
X216063Y5036D01*
X217348Y5205D01*
X218545Y5701D01*
X219573Y6490D01*
X220362Y7518D01*
X220806Y8592D01*
X220807Y8592D01*
X221319D01*
X221320Y8592D01*
X221764Y7518D01*
X222553Y6490D01*
X223581Y5701D01*
X224778Y5205D01*
X226063Y5036D01*
X227348Y5205D01*
X228545Y5701D01*
X229573Y6490D01*
X230362Y7518D01*
X230806Y8592D01*
X230807Y8592D01*
X231319D01*
X231320Y8592D01*
X231764Y7518D01*
X232553Y6490D01*
X233581Y5701D01*
X234778Y5205D01*
X236063Y5036D01*
X237348Y5205D01*
X238545Y5701D01*
X239573Y6490D01*
X240362Y7518D01*
X240806Y8592D01*
X240807Y8592D01*
X241319D01*
X241320Y8592D01*
X241764Y7518D01*
X242553Y6490D01*
X243581Y5701D01*
X244778Y5205D01*
X246063Y5036D01*
X247348Y5205D01*
X248545Y5701D01*
X249573Y6490D01*
X250362Y7518D01*
X250858Y8715D01*
X251027Y10000D01*
X250858Y11285D01*
X250362Y12482D01*
X249573Y13510D01*
X248545Y14299D01*
X247348Y14795D01*
X246063Y14964D01*
X244778Y14795D01*
X243581Y14299D01*
X242553Y13510D01*
X241764Y12482D01*
X241320Y11408D01*
X241319Y11408D01*
X240807D01*
X240806Y11408D01*
X240362Y12482D01*
X239573Y13510D01*
X238545Y14299D01*
X237348Y14795D01*
X236063Y14964D01*
X235281Y14861D01*
X235048Y15334D01*
X249361Y29648D01*
X249790Y29391D01*
X249726Y29180D01*
X249566Y27559D01*
X249726Y25938D01*
X250199Y24380D01*
X250966Y22944D01*
X252000Y21685D01*
X253258Y20652D01*
X254695Y19884D01*
X256253Y19411D01*
X257874Y19251D01*
X259495Y19411D01*
X261053Y19884D01*
X262490Y20652D01*
X263280Y21300D01*
X263779Y21063D01*
Y19685D01*
X246063Y1969D01*
X12795Y1969D01*
X7516Y7248D01*
Y68914D01*
X8016Y68938D01*
X8016Y68937D01*
D02*
G37*
%LPC*%
G36*
X101563Y202740D02*
Y199319D01*
X104984D01*
X104914Y199851D01*
X104516Y200812D01*
X103882Y201638D01*
X103056Y202272D01*
X102095Y202670D01*
X101563Y202740D01*
D02*
G37*
G36*
X100563D02*
X100031Y202670D01*
X99070Y202272D01*
X98244Y201638D01*
X97610Y200812D01*
X97212Y199851D01*
X97142Y199319D01*
X100563D01*
Y202740D01*
D02*
G37*
G36*
X104984Y198319D02*
X101563D01*
Y194898D01*
X102095Y194968D01*
X103056Y195366D01*
X103882Y196000D01*
X104516Y196826D01*
X104914Y197787D01*
X104984Y198319D01*
D02*
G37*
G36*
X100563D02*
X97142D01*
X97212Y197787D01*
X97610Y196826D01*
X98244Y196000D01*
X99070Y195366D01*
X100031Y194968D01*
X100563Y194898D01*
Y198319D01*
D02*
G37*
G36*
X98925Y173740D02*
Y170776D01*
X101890D01*
X101835Y171189D01*
X101482Y172041D01*
X100921Y172772D01*
X100190Y173333D01*
X99339Y173686D01*
X98925Y173740D01*
D02*
G37*
G36*
X97925D02*
X97512Y173686D01*
X96660Y173333D01*
X95929Y172772D01*
X95368Y172041D01*
X95015Y171189D01*
X94961Y170776D01*
X97925D01*
Y173740D01*
D02*
G37*
G36*
X101890Y169776D02*
X98925D01*
Y166811D01*
X99339Y166866D01*
X100190Y167218D01*
X100921Y167779D01*
X101482Y168510D01*
X101835Y169362D01*
X101890Y169776D01*
D02*
G37*
G36*
X97925D02*
X94961D01*
X95015Y169362D01*
X95368Y168510D01*
X95929Y167779D01*
X96660Y167218D01*
X97512Y166866D01*
X97925Y166811D01*
Y169776D01*
D02*
G37*
G36*
X30028Y161929D02*
Y158965D01*
X32992D01*
X32937Y159378D01*
X32585Y160230D01*
X32024Y160961D01*
X31293Y161522D01*
X30441Y161874D01*
X30028Y161929D01*
D02*
G37*
G36*
X29028D02*
X28614Y161874D01*
X27762Y161522D01*
X27031Y160961D01*
X26470Y160230D01*
X26118Y159378D01*
X26063Y158965D01*
X29028D01*
Y161929D01*
D02*
G37*
G36*
X32992Y157965D02*
X30028D01*
Y155000D01*
X30441Y155055D01*
X31293Y155407D01*
X32024Y155968D01*
X32585Y156700D01*
X32937Y157551D01*
X32992Y157965D01*
D02*
G37*
G36*
X29028D02*
X26063D01*
X26118Y157551D01*
X26470Y156700D01*
X27031Y155968D01*
X27762Y155407D01*
X28614Y155055D01*
X29028Y155000D01*
Y157965D01*
D02*
G37*
G36*
X125984Y128523D02*
X124818Y128369D01*
X123731Y127919D01*
X122797Y127203D01*
X122081Y126269D01*
X121631Y125182D01*
X121477Y124016D01*
X121631Y122849D01*
X122081Y121762D01*
X122797Y120829D01*
X123403Y120364D01*
Y92520D01*
X123491Y91852D01*
X123749Y91229D01*
X124159Y90695D01*
X124694Y90284D01*
X125316Y90026D01*
X125984Y89939D01*
X138080D01*
X138545Y89333D01*
X139479Y88617D01*
X140566Y88166D01*
X141732Y88013D01*
X142899Y88166D01*
X143986Y88617D01*
X144919Y89333D01*
X145635Y90266D01*
X146086Y91353D01*
X146239Y92520D01*
X146086Y93686D01*
X145635Y94773D01*
X144919Y95707D01*
X143986Y96423D01*
X142899Y96873D01*
X141732Y97027D01*
X140566Y96873D01*
X139479Y96423D01*
X138545Y95707D01*
X138080Y95101D01*
X128565D01*
Y120364D01*
X129171Y120829D01*
X129887Y121762D01*
X130338Y122849D01*
X130491Y124016D01*
X130338Y125182D01*
X129887Y126269D01*
X129171Y127203D01*
X128238Y127919D01*
X127151Y128369D01*
X125984Y128523D01*
D02*
G37*
G36*
X237689Y141401D02*
X237157Y141331D01*
X236196Y140933D01*
X235370Y140299D01*
X234736Y139474D01*
X234338Y138512D01*
X234268Y137980D01*
X237689D01*
Y141401D01*
D02*
G37*
G36*
Y136980D02*
X234268D01*
X234338Y136448D01*
X234736Y135487D01*
X235370Y134661D01*
X236196Y134028D01*
X237157Y133629D01*
X237689Y133559D01*
Y136980D01*
D02*
G37*
G36*
X114673Y43819D02*
Y40854D01*
X117638D01*
X117583Y41268D01*
X117230Y42119D01*
X116669Y42851D01*
X115938Y43412D01*
X115087Y43764D01*
X114673Y43819D01*
D02*
G37*
G36*
X113673D02*
X113259Y43764D01*
X112408Y43412D01*
X111677Y42851D01*
X111116Y42119D01*
X110763Y41268D01*
X110709Y40854D01*
X113673D01*
Y43819D01*
D02*
G37*
G36*
X176181Y43334D02*
Y40370D01*
X179146D01*
X179091Y40784D01*
X178738Y41635D01*
X178177Y42366D01*
X177446Y42927D01*
X176595Y43280D01*
X176181Y43334D01*
D02*
G37*
G36*
X175181D02*
X174767Y43280D01*
X173916Y42927D01*
X173185Y42366D01*
X172624Y41635D01*
X172271Y40784D01*
X172217Y40370D01*
X175181D01*
Y43334D01*
D02*
G37*
G36*
X39870Y25118D02*
Y22153D01*
X42834D01*
X42780Y22567D01*
X42427Y23419D01*
X41866Y24150D01*
X41135Y24711D01*
X40284Y25063D01*
X39870Y25118D01*
D02*
G37*
G36*
X38870D02*
X38456Y25063D01*
X37605Y24711D01*
X36874Y24150D01*
X36313Y23419D01*
X35960Y22567D01*
X35906Y22153D01*
X38870D01*
Y25118D01*
D02*
G37*
G36*
X42834Y21154D02*
X39870D01*
Y18189D01*
X40284Y18244D01*
X41135Y18596D01*
X41866Y19157D01*
X42427Y19888D01*
X42780Y20740D01*
X42834Y21154D01*
D02*
G37*
G36*
X38870D02*
X35906D01*
X35960Y20740D01*
X36313Y19888D01*
X36874Y19157D01*
X37605Y18596D01*
X38456Y18244D01*
X38870Y18189D01*
Y21154D01*
D02*
G37*
G36*
X68754Y52343D02*
X63833D01*
X62805Y52207D01*
X61848Y51811D01*
X61025Y51180D01*
X60394Y50357D01*
X59997Y49400D01*
X59862Y48372D01*
X59997Y47344D01*
X60394Y46386D01*
X61025Y45564D01*
X61848Y44933D01*
X62805Y44536D01*
X63833Y44401D01*
X67109D01*
X74769Y36741D01*
Y24672D01*
X73786Y24146D01*
X72435Y23038D01*
X71326Y21686D01*
X70502Y20145D01*
X69995Y18472D01*
X69872Y17232D01*
X78740D01*
X87608D01*
X87486Y18472D01*
X86978Y20145D01*
X86154Y21686D01*
X85045Y23038D01*
X83694Y24146D01*
X82711Y24672D01*
Y38386D01*
X82576Y39414D01*
X82179Y40371D01*
X81548Y41194D01*
X71562Y51180D01*
X70740Y51811D01*
X69782Y52207D01*
X68754Y52343D01*
D02*
G37*
G36*
X166642Y13921D02*
Y10500D01*
X170063D01*
X169993Y11032D01*
X169595Y11993D01*
X168961Y12819D01*
X168135Y13453D01*
X167174Y13851D01*
X166642Y13921D01*
D02*
G37*
G36*
X165642D02*
X165110Y13851D01*
X164148Y13453D01*
X163323Y12819D01*
X162689Y11993D01*
X162291Y11032D01*
X162221Y10500D01*
X165642D01*
Y13921D01*
D02*
G37*
G36*
X156642D02*
Y10500D01*
X160063D01*
X159993Y11032D01*
X159595Y11993D01*
X158961Y12819D01*
X158135Y13453D01*
X157174Y13851D01*
X156642Y13921D01*
D02*
G37*
G36*
X155642D02*
X155110Y13851D01*
X154148Y13453D01*
X153323Y12819D01*
X152689Y11993D01*
X152291Y11032D01*
X152221Y10500D01*
X155642D01*
Y13921D01*
D02*
G37*
G36*
X87608Y16232D02*
X79240D01*
Y7865D01*
X80480Y7987D01*
X82152Y8494D01*
X83694Y9318D01*
X85045Y10427D01*
X86154Y11778D01*
X86978Y13320D01*
X87486Y14993D01*
X87608Y16232D01*
D02*
G37*
G36*
X78240D02*
X69872D01*
X69995Y14993D01*
X70502Y13320D01*
X71326Y11778D01*
X72435Y10427D01*
X73786Y9318D01*
X75328Y8494D01*
X77000Y7987D01*
X78240Y7865D01*
Y16232D01*
D02*
G37*
G36*
X59055Y26622D02*
X57126Y26432D01*
X55270Y25870D01*
X53561Y24956D01*
X52062Y23726D01*
X50832Y22227D01*
X49918Y20517D01*
X49355Y18662D01*
X49165Y16732D01*
X49355Y14803D01*
X49918Y12947D01*
X50832Y11238D01*
X52062Y9739D01*
X53561Y8509D01*
X55270Y7595D01*
X57126Y7032D01*
X59055Y6842D01*
X60985Y7032D01*
X62840Y7595D01*
X64550Y8509D01*
X66049Y9739D01*
X67278Y11238D01*
X68192Y12947D01*
X68755Y14803D01*
X68945Y16732D01*
X68755Y18662D01*
X68192Y20517D01*
X67278Y22227D01*
X66049Y23726D01*
X64550Y24956D01*
X62840Y25870D01*
X60985Y26432D01*
X59055Y26622D01*
D02*
G37*
G36*
X170063Y9500D02*
X166642D01*
Y6079D01*
X167174Y6149D01*
X168135Y6547D01*
X168961Y7181D01*
X169595Y8007D01*
X169993Y8968D01*
X170063Y9500D01*
D02*
G37*
G36*
X165642D02*
X162221D01*
X162291Y8968D01*
X162689Y8007D01*
X163323Y7181D01*
X164148Y6547D01*
X165110Y6149D01*
X165642Y6079D01*
Y9500D01*
D02*
G37*
G36*
X160063D02*
X156642D01*
Y6079D01*
X157174Y6149D01*
X158135Y6547D01*
X158961Y7181D01*
X159595Y8007D01*
X159993Y8968D01*
X160063Y9500D01*
D02*
G37*
G36*
X155642D02*
X152221D01*
X152291Y8968D01*
X152689Y8007D01*
X153323Y7181D01*
X154148Y6547D01*
X155110Y6149D01*
X155642Y6079D01*
Y9500D01*
D02*
G37*
G36*
X176142Y14964D02*
X174857Y14795D01*
X173660Y14299D01*
X172632Y13510D01*
X171843Y12482D01*
X171347Y11285D01*
X171178Y10000D01*
X171347Y8715D01*
X171843Y7518D01*
X172632Y6490D01*
X173660Y5701D01*
X174857Y5205D01*
X176142Y5036D01*
X177426Y5205D01*
X178624Y5701D01*
X179652Y6490D01*
X180440Y7518D01*
X180936Y8715D01*
X181105Y10000D01*
X180936Y11285D01*
X180440Y12482D01*
X179652Y13510D01*
X178624Y14299D01*
X177426Y14795D01*
X176142Y14964D01*
D02*
G37*
%LPD*%
D37*
X195866Y61024D02*
X196358Y61516D01*
X215551Y88583D02*
X222441Y81693D01*
X160433Y62992D02*
Y64200D01*
X91398Y155650D02*
X92382Y156634D01*
X100394Y97441D02*
Y155512D01*
X173105Y68551D02*
X177165D01*
X100394Y97441D02*
X102362Y95472D01*
X91398Y155650D02*
X96457Y150591D01*
Y131890D02*
Y150591D01*
X101378Y94488D02*
X102362Y95472D01*
X91535Y157480D02*
X92382Y156634D01*
X90551Y157480D02*
X91535D01*
X35433Y130905D02*
X43307Y123031D01*
X43307D01*
Y97441D02*
Y123031D01*
Y97441D02*
X57579Y83169D01*
Y72342D02*
Y83169D01*
Y72342D02*
X62008Y67913D01*
X71850D01*
X79724Y60039D01*
Y53150D02*
Y60039D01*
Y53150D02*
X107283Y25591D01*
X130394D01*
X145984Y10000D01*
X64961Y186024D02*
X70866Y180118D01*
X56102Y186024D02*
X64961D01*
X56102Y162402D02*
X58071Y164370D01*
X70866D01*
X71063Y193701D02*
Y198819D01*
Y193701D02*
X78740Y186024D01*
Y180118D02*
Y186024D01*
Y164370D02*
X88583Y174213D01*
Y191299D01*
X81063Y198819D02*
X88583Y191299D01*
X206875Y59055D02*
Y66747D01*
X213583Y41339D02*
Y66929D01*
X203740Y69882D02*
X206875Y66747D01*
X206693Y34449D02*
X213583Y41339D01*
X200373Y53150D02*
Y56516D01*
X195866Y61024D02*
X200373Y56516D01*
X187992Y54134D02*
Y63753D01*
X182087Y48228D02*
X187992Y54134D01*
Y63753D02*
X194121Y69882D01*
X169403Y59167D02*
Y64849D01*
X163386Y53150D02*
X169403Y59167D01*
X103347Y53150D02*
X163386D01*
X177165Y68551D02*
Y70866D01*
X169403Y64849D02*
X173105Y68551D01*
X177165Y80709D02*
X179134Y78740D01*
X160630Y120147D02*
X177165Y103611D01*
Y80709D02*
Y103611D01*
X181102Y62992D02*
X184693Y66583D01*
X179134Y62992D02*
X181102D01*
X194121Y69882D02*
X195866D01*
Y77756D02*
Y107283D01*
Y76772D02*
Y77756D01*
X178150Y125000D02*
X195866Y107283D01*
X100394Y48228D02*
X182087D01*
X172244Y115157D02*
X184693Y102709D01*
Y66583D02*
Y102709D01*
X163039Y89220D02*
X171260Y97441D01*
X163039Y66806D02*
Y89220D01*
X160433Y64200D02*
X163039Y66806D01*
X157480Y62992D02*
X160433D01*
X157480Y78740D02*
Y88583D01*
Y77756D02*
Y78740D01*
X157064Y70450D02*
X158465Y71850D01*
X96274Y70450D02*
X157064D01*
X213583Y66929D02*
X215551Y68898D01*
X238189Y167480D02*
X248228Y157441D01*
Y130709D02*
Y157441D01*
Y130709D02*
X261811Y117126D01*
Y59279D02*
Y117126D01*
X256666Y54134D02*
X261811Y59279D01*
X244094Y42323D02*
X247047Y45276D01*
Y54134D01*
X216063Y10000D02*
Y29522D01*
X237449Y50908D01*
Y59299D01*
X240158Y62008D01*
X254921D01*
X226063Y10000D02*
X254921Y38858D01*
Y46260D01*
Y54134D02*
X256666D01*
X232283Y110236D02*
Y117411D01*
X230315Y119379D02*
X232283Y117411D01*
X160630Y120147D02*
Y198819D01*
X213236Y130559D02*
X214567Y131890D01*
X213236Y119956D02*
Y130559D01*
X211614Y118334D02*
X213236Y119956D01*
X211614Y111271D02*
Y118334D01*
Y111271D02*
X222491Y100394D01*
X189961Y128470D02*
X222958Y95472D01*
X186024Y127953D02*
X228000Y85976D01*
X189961Y128470D02*
Y182717D01*
X186024Y127953D02*
Y188779D01*
X222491Y100394D02*
X237205D01*
X240158Y97441D01*
Y94488D02*
Y97441D01*
X189961Y182717D02*
X206063Y198819D01*
X222958Y95472D02*
X231299D01*
X232283Y94488D01*
X219685Y122318D02*
X224847Y127480D01*
X219685Y113386D02*
Y122318D01*
X224847Y127480D02*
X238189D01*
X247047Y93504D02*
X248031Y94488D01*
X247047Y86669D02*
Y93504D01*
X231150Y70771D02*
X247047Y86669D01*
X218789Y112490D02*
X219685Y113386D01*
X249016Y108268D02*
Y110236D01*
X206063Y10000D02*
Y23976D01*
X234299Y52213D01*
Y67961D01*
X228000Y64838D02*
Y85976D01*
X226501Y63339D02*
X228000Y64838D01*
X222441Y63339D02*
X226501D01*
X231150Y54451D02*
Y70771D01*
X234299Y67961D02*
X255906Y89567D01*
Y101378D01*
X249016Y108268D02*
X255906Y101378D01*
X248031Y110236D02*
X249016D01*
X196063Y10000D02*
Y19365D01*
X231150Y54451D01*
X238189Y157480D02*
X245079Y150591D01*
Y119095D02*
Y150591D01*
X240158Y114173D02*
X245079Y119095D01*
X240158Y110236D02*
Y114173D01*
X214567Y131890D02*
X230157Y147480D01*
X207677Y131890D02*
X214567D01*
X230157Y147480D02*
X238189D01*
X238189Y157480D02*
X238189Y157480D01*
X207677Y157480D02*
X238189D01*
X207677Y179134D02*
X216535D01*
X228189Y167480D01*
X238189D01*
X186024Y188779D02*
X196063Y198819D01*
X178150Y190905D02*
X186063Y198819D01*
X178150Y125000D02*
Y190905D01*
X172244Y195000D02*
X176063Y198819D01*
X172244Y115157D02*
Y195000D01*
X107283Y34449D02*
X206693D01*
X222441Y76772D02*
Y81693D01*
X87598Y123031D02*
X96457Y131890D01*
X87598Y85163D02*
Y123031D01*
X87087Y84651D02*
X87598Y85163D01*
X87087Y61535D02*
Y84651D01*
Y61535D02*
X100394Y48228D01*
X83661Y58071D02*
Y62992D01*
X71850Y74803D02*
X83661Y62992D01*
X67913Y74803D02*
X71850D01*
X83661Y58071D02*
X107283Y34449D01*
X222441Y61024D02*
Y63339D01*
X215551Y68898D02*
X222441D01*
X150630Y95433D02*
X157480Y88583D01*
X150630Y95433D02*
Y198819D01*
X90236Y83347D02*
X101378Y94488D01*
X90236Y66260D02*
Y83347D01*
Y66260D02*
X103347Y53150D01*
X197835Y128937D02*
Y137795D01*
Y128937D02*
X202756Y124016D01*
X207677D01*
X201772Y149606D02*
X207677D01*
X198819Y152559D02*
X201772Y149606D01*
X198819Y173228D02*
X200787Y171260D01*
X207677D01*
X125984Y92520D02*
Y124016D01*
Y92520D02*
X141732D01*
D38*
X68754Y48372D02*
X78740Y38386D01*
X63833Y48372D02*
X68754D01*
X78740Y16732D02*
Y38386D01*
X37402Y90551D02*
X48228Y79724D01*
Y66929D02*
Y79724D01*
X17717Y90551D02*
X37402D01*
X17717Y70866D02*
X29528Y59055D01*
X72835D01*
X17717Y110236D02*
Y122694D01*
X17717Y122694D02*
Y130905D01*
X35118Y148307D02*
X90236D01*
X17717Y130905D02*
X35118Y148307D01*
D39*
X17717Y122694D02*
X17717Y122694D01*
D43*
X218012Y110728D02*
Y112697D01*
X179134Y62992D02*
X180020Y62106D01*
X17717Y108268D02*
Y117126D01*
D44*
X78740Y16732D02*
D03*
X59055D02*
D03*
X17717Y70866D02*
D03*
Y90551D02*
D03*
Y110236D02*
D03*
D45*
X106142Y10000D02*
D03*
X196063D02*
D03*
X71063Y198819D02*
D03*
X176063D02*
D03*
D46*
X116142Y10000D02*
D03*
X126142D02*
D03*
X136142D02*
D03*
X146142D02*
D03*
X156142D02*
D03*
X166142D02*
D03*
X176142D02*
D03*
X238189Y127480D02*
D03*
Y137480D02*
D03*
Y147480D02*
D03*
Y157480D02*
D03*
X206063Y10000D02*
D03*
X216063D02*
D03*
X226063D02*
D03*
X236063D02*
D03*
X246063D02*
D03*
X91063Y198819D02*
D03*
X161063D02*
D03*
X151063D02*
D03*
X141063D02*
D03*
X131063D02*
D03*
X121063D02*
D03*
X111063D02*
D03*
X101063D02*
D03*
X81063D02*
D03*
X186063D02*
D03*
X196063D02*
D03*
X206063D02*
D03*
X216063D02*
D03*
X226063D02*
D03*
X236063D02*
D03*
X246063D02*
D03*
D47*
X238189Y167480D02*
D03*
D48*
X257874Y27559D02*
D03*
Y137795D02*
D03*
X59055Y198819D02*
D03*
D49*
X29528Y158465D02*
D03*
X98425Y170276D02*
D03*
X100394Y155512D02*
D03*
X90551Y157480D02*
D03*
X34449Y131890D02*
D03*
X63833Y48372D02*
D03*
X56102Y186024D02*
D03*
Y162402D02*
D03*
X206875Y59055D02*
D03*
X200373Y53150D02*
D03*
X244094Y42323D02*
D03*
X230315Y119379D02*
D03*
X171260Y97441D02*
D03*
X218789Y112490D02*
D03*
X217520Y87598D02*
D03*
X197835Y137795D02*
D03*
X39370Y21654D02*
D03*
X197835Y152559D02*
D03*
Y173228D02*
D03*
X175681Y39870D02*
D03*
X125984Y124016D02*
D03*
X141732Y92520D02*
D03*
X114173Y40354D02*
D03*
X96274Y70450D02*
D03*
X67913Y74803D02*
D03*
X48228Y66929D02*
D03*
X101378Y94488D02*
D03*
X72835Y59055D02*
D03*
X90236Y148307D02*
D03*
D50*
X248031Y94488D02*
D03*
X240158D02*
D03*
X232283D02*
D03*
X248031Y110236D02*
D03*
X240158D02*
D03*
X232283D02*
D03*
X70866Y180118D02*
D03*
X78740D02*
D03*
X70866Y164370D02*
D03*
X78740D02*
D03*
D51*
X177165Y78740D02*
D03*
Y70866D02*
D03*
Y62992D02*
D03*
X222441Y76772D02*
D03*
Y68898D02*
D03*
Y61024D02*
D03*
X157480Y78740D02*
D03*
Y70866D02*
D03*
Y62992D02*
D03*
X195866Y77756D02*
D03*
Y69882D02*
D03*
Y62008D02*
D03*
X203740Y69882D02*
D03*
X254921Y46260D02*
D03*
Y54134D02*
D03*
Y62008D02*
D03*
X247047Y54134D02*
D03*
X207677Y124016D02*
D03*
Y131890D02*
D03*
X207677Y149606D02*
D03*
Y157480D02*
D03*
Y171260D02*
D03*
Y179134D02*
D03*
M02*
