M48
;Layer_Color=9474304
;FILE_FORMAT=4:4
METRIC,LZ
;TYPE=PLATED
T1F00S00C0.3000
T2F00S00C0.5000
T3F00S00C0.9000
T4F00S00C1.5000
T5F00S00C3.0000
%
T01
X0027155Y002489
Y002689
Y002889
X0029155
Y002689
Y002489
X0031155
Y002689
Y002889
T02
X0037084Y0007635
X00443Y0006
X004765Y0004475
X000965Y0004275
X00055Y00065
X00035
X00123256Y00222261
X00128Y002605
X0015275Y002615
X0017925Y0025925
X0017375Y00228
X00215Y002275
X0023
Y00245
X00215
Y00295
X0023
Y003125
X00215
X0025908Y0035814
X002975Y00385
X002325Y004025
X001325Y004275
Y0046
X000965Y0048925
Y0041375
X00305Y004725
X00315Y001725
X002605Y00178
X00197086Y001505
X0038Y00188552
X004375Y002875
X0049358Y0024892
X0056Y00245
X00555Y0027
X005375Y003025
Y003325
Y00385
Y00435
X0062525Y0045475
X00667Y0031725
X006385Y00205
X0064375Y00127
X00667Y0010075
X005905Y001125
X0058975Y0017
X00545Y00175
Y00155
X0045Y0037
X00375Y00385
X0036425Y0034475
T03
X003708Y000254
X003962
X004216
X00447
X00498
X005234
X005488
X005742
X005996
X00625
X003454
X0032
X002946
X002692
X005975Y003238
Y003492
Y003746
Y004
Y004254
X005996Y00505
X005742
X005488
X005234
X00498
X004726
X004472
X004091
X003837
X003583
X00625
X003329
X003075
X002821
X002567
X002313
X002059
X001805
T04
X00155Y0004
X00205
X00045Y001825
Y002325
Y002825
T05
X00655Y0007
Y0035
X0015Y00505
M30
