G04*
G04 #@! TF.GenerationSoftware,Altium Limited,Altium Designer,18.0.7 (293)*
G04*
G04 Layer_Color=16711935*
%FSLAX25Y25*%
%MOIN*%
G70*
G01*
G75*
%ADD39C,0.16548*%
%ADD40C,0.06706*%
%ADD41R,0.06706X0.06706*%
%ADD42R,0.06706X0.06706*%
%ADD43C,0.13398*%
%ADD44C,0.03950*%
%ADD45C,0.02769*%
%ADD61R,0.06800X0.06800*%
%ADD62R,0.06800X0.06800*%
D39*
X80709Y15748D02*
D03*
X61024D02*
D03*
X17717Y111221D02*
D03*
Y91535D02*
D03*
Y71850D02*
D03*
D40*
X235236Y127480D02*
D03*
Y137480D02*
D03*
Y147480D02*
D03*
Y157480D02*
D03*
X115984Y10000D02*
D03*
X125984D02*
D03*
X135984D02*
D03*
X145984D02*
D03*
X155984D02*
D03*
X165984D02*
D03*
X175984D02*
D03*
X206063D02*
D03*
X216063D02*
D03*
X226063D02*
D03*
X236063D02*
D03*
X246063D02*
D03*
X91063Y198819D02*
D03*
X161063D02*
D03*
X151063D02*
D03*
X141063D02*
D03*
X131063D02*
D03*
X121063D02*
D03*
X111063D02*
D03*
X101063D02*
D03*
X81063D02*
D03*
X186063D02*
D03*
X196063D02*
D03*
X206063D02*
D03*
X216063D02*
D03*
X226063D02*
D03*
X236063D02*
D03*
X246063D02*
D03*
D41*
X235236Y167480D02*
D03*
D42*
X105984Y10000D02*
D03*
X196063D02*
D03*
X71063Y198819D02*
D03*
X176063D02*
D03*
D43*
X257874Y137795D02*
D03*
Y27559D02*
D03*
X59055Y198819D02*
D03*
D44*
X50394Y102559D02*
D03*
X70571Y102067D02*
D03*
X68405Y89764D02*
D03*
X60138Y102953D02*
D03*
X48526Y87504D02*
D03*
X77593Y59252D02*
D03*
X174409Y23622D02*
D03*
X251378Y80709D02*
D03*
X143405Y135728D02*
D03*
X120079Y186024D02*
D03*
X214567Y61024D02*
D03*
X21654Y25591D02*
D03*
X13780D02*
D03*
X102559Y70079D02*
D03*
X90551Y89567D02*
D03*
Y96457D02*
D03*
Y116142D02*
D03*
Y123031D02*
D03*
X84646D02*
D03*
Y116142D02*
D03*
Y96457D02*
D03*
Y89567D02*
D03*
X232480Y44291D02*
D03*
X232185Y66929D02*
D03*
X246161Y179035D02*
D03*
X262598Y124902D02*
D03*
Y39665D02*
D03*
X253445Y50000D02*
D03*
X187598Y17618D02*
D03*
X37992Y16831D02*
D03*
Y162894D02*
D03*
Y192618D02*
D03*
X149606Y74233D02*
D03*
X146000Y30059D02*
D03*
X194323Y98000D02*
D03*
X102000Y141000D02*
D03*
X214567Y68898D02*
D03*
X91535Y158465D02*
D03*
X177165Y145669D02*
D03*
X52165Y168307D02*
D03*
Y181102D02*
D03*
X172244Y113189D02*
D03*
X117126Y151575D02*
D03*
X220472Y96457D02*
D03*
X218504Y106299D02*
D03*
X211614Y119095D02*
D03*
X124016Y67913D02*
D03*
X147638Y151575D02*
D03*
X211614Y130905D02*
D03*
Y151575D02*
D03*
Y171260D02*
D03*
D45*
X106909Y113740D02*
D03*
Y105866D02*
D03*
Y97992D02*
D03*
X114783D02*
D03*
Y105866D02*
D03*
Y113740D02*
D03*
X122657D02*
D03*
Y105866D02*
D03*
Y97992D02*
D03*
D61*
X108858Y29134D02*
D03*
Y37008D02*
D03*
X165354Y47244D02*
D03*
X165453Y39469D02*
D03*
X165354Y31496D02*
D03*
X207677Y47244D02*
D03*
X207776Y39469D02*
D03*
X207677Y31496D02*
D03*
X188976Y47244D02*
D03*
X189075Y39468D02*
D03*
X188976Y31496D02*
D03*
X157480Y157480D02*
D03*
X157382Y165256D02*
D03*
X157480Y173228D02*
D03*
X138779Y157480D02*
D03*
X138681Y165256D02*
D03*
X138779Y173228D02*
D03*
X177165Y157480D02*
D03*
X177067Y165256D02*
D03*
X177165Y173228D02*
D03*
X110236Y173228D02*
D03*
Y165354D02*
D03*
Y157480D02*
D03*
X118110Y165354D02*
D03*
X244094Y47244D02*
D03*
Y55118D02*
D03*
Y62992D02*
D03*
X236221Y55118D02*
D03*
X219488Y130905D02*
D03*
Y138779D02*
D03*
X219488Y151575D02*
D03*
Y159449D02*
D03*
X219488Y171260D02*
D03*
Y179134D02*
D03*
D62*
X228346Y80709D02*
D03*
X236122Y80807D02*
D03*
X244094Y80709D02*
D03*
X244094Y105315D02*
D03*
X236221D02*
D03*
X228346D02*
D03*
X236221Y97441D02*
D03*
X61024Y184055D02*
D03*
X68898D02*
D03*
X61024Y171260D02*
D03*
X68898D02*
D03*
M02*
