G04*
G04 #@! TF.GenerationSoftware,Altium Limited,Altium Designer,18.0.7 (293)*
G04*
G04 Layer_Color=8388736*
%FSLAX25Y25*%
%MOIN*%
G70*
G01*
G75*
%ADD19R,0.05131X0.11036*%
%ADD20R,0.16548X0.12217*%
%ADD21R,0.38595X0.24422*%
G04:AMPARAMS|DCode=22|XSize=86.35mil|YSize=32.8mil|CornerRadius=5.98mil|HoleSize=0mil|Usage=FLASHONLY|Rotation=90.000|XOffset=0mil|YOffset=0mil|HoleType=Round|Shape=RoundedRectangle|*
%AMROUNDEDRECTD22*
21,1,0.08635,0.02084,0,0,90.0*
21,1,0.07438,0.03280,0,0,90.0*
1,1,0.01197,0.01042,0.03719*
1,1,0.01197,0.01042,-0.03719*
1,1,0.01197,-0.01042,-0.03719*
1,1,0.01197,-0.01042,0.03719*
%
%ADD22ROUNDEDRECTD22*%
%ADD23R,0.06706X0.11036*%
%ADD24R,0.16548X0.08674*%
%ADD25R,0.07493X0.05131*%
%ADD26R,0.03556X0.04737*%
%ADD27C,0.16548*%
%ADD28C,0.06706*%
%ADD29R,0.06706X0.06706*%
%ADD30R,0.06706X0.06706*%
%ADD31C,0.13398*%
%ADD32C,0.05800*%
D19*
X99016Y169291D02*
D03*
X109646D02*
D03*
X41929Y39370D02*
D03*
X52559D02*
D03*
X41929Y151575D02*
D03*
X52559D02*
D03*
X41929Y174213D02*
D03*
X52559D02*
D03*
X176772Y132874D02*
D03*
X187402D02*
D03*
X176772Y152559D02*
D03*
X187402D02*
D03*
X176878Y172744D02*
D03*
X187508D02*
D03*
D20*
X112835Y111772D02*
D03*
X62638D02*
D03*
D21*
X87736D02*
D03*
D22*
X65236Y137795D02*
D03*
X70236D02*
D03*
X75236D02*
D03*
X80236D02*
D03*
X85236D02*
D03*
X90236D02*
D03*
X95236D02*
D03*
X100236D02*
D03*
X105236D02*
D03*
X110236D02*
D03*
Y85748D02*
D03*
X105236D02*
D03*
X100236D02*
D03*
X95236D02*
D03*
X90236D02*
D03*
X85236D02*
D03*
X80236D02*
D03*
X75236D02*
D03*
X70236D02*
D03*
X65236D02*
D03*
D23*
X15748Y40354D02*
D03*
X27559D02*
D03*
D24*
X144882Y62008D02*
D03*
X125984D02*
D03*
D25*
X141732Y165748D02*
D03*
Y155118D02*
D03*
X80709Y172638D02*
D03*
Y162008D02*
D03*
X137795Y132283D02*
D03*
Y121653D02*
D03*
X127953Y165748D02*
D03*
Y155118D02*
D03*
D26*
X141732Y101378D02*
D03*
X133858D02*
D03*
X137795Y109252D02*
D03*
D27*
X61024Y15748D02*
D03*
X80709D02*
D03*
X17717Y70866D02*
D03*
Y90551D02*
D03*
Y110236D02*
D03*
D28*
X238189Y127480D02*
D03*
Y137480D02*
D03*
Y147480D02*
D03*
Y157480D02*
D03*
X115984Y10000D02*
D03*
X125984D02*
D03*
X135984D02*
D03*
X145984D02*
D03*
X155984D02*
D03*
X165984D02*
D03*
X175984D02*
D03*
X206063D02*
D03*
X216063D02*
D03*
X226063D02*
D03*
X236063D02*
D03*
X246063D02*
D03*
X91063Y198819D02*
D03*
X161063D02*
D03*
X151063D02*
D03*
X141063D02*
D03*
X131063D02*
D03*
X121063D02*
D03*
X111063D02*
D03*
X101063D02*
D03*
X81063D02*
D03*
X186063D02*
D03*
X196063D02*
D03*
X206063D02*
D03*
X216063D02*
D03*
X226063D02*
D03*
X236063D02*
D03*
X246063D02*
D03*
D29*
X238189Y167480D02*
D03*
D30*
X105984Y10000D02*
D03*
X196063D02*
D03*
X71063Y198819D02*
D03*
X176063D02*
D03*
D31*
X257874Y137795D02*
D03*
Y27559D02*
D03*
X59055Y198819D02*
D03*
D32*
X115157Y94646D02*
D03*
X100394Y155512D02*
D03*
X90551Y157480D02*
D03*
X34449Y131890D02*
D03*
X63833Y48372D02*
D03*
X56102Y186024D02*
D03*
Y162402D02*
D03*
X206875Y59055D02*
D03*
X200373Y53150D02*
D03*
X244094Y42323D02*
D03*
X230315Y119379D02*
D03*
X171260Y97441D02*
D03*
X218789Y112490D02*
D03*
X217520Y87598D02*
D03*
X197835Y137795D02*
D03*
X42323Y26575D02*
D03*
X197835Y152559D02*
D03*
Y173228D02*
D03*
X175681Y39870D02*
D03*
X125984Y124016D02*
D03*
X141732Y92520D02*
D03*
X140748Y40354D02*
D03*
X96274Y70450D02*
D03*
X67913Y74803D02*
D03*
X48228Y66929D02*
D03*
X72835Y59055D02*
D03*
X90236Y148307D02*
D03*
M02*
