G04*
G04 #@! TF.GenerationSoftware,Altium Limited,Altium Designer,18.0.7 (293)*
G04*
G04 Layer_Color=8388736*
%FSLAX25Y25*%
%MOIN*%
G70*
G01*
G75*
%ADD19R,0.16548X0.08674*%
%ADD20R,0.05131X0.11036*%
%ADD21R,0.07493X0.05131*%
%ADD22R,0.06706X0.11036*%
%ADD23R,0.03556X0.04737*%
G04:AMPARAMS|DCode=24|XSize=86.35mil|YSize=32.8mil|CornerRadius=5.98mil|HoleSize=0mil|Usage=FLASHONLY|Rotation=90.000|XOffset=0mil|YOffset=0mil|HoleType=Round|Shape=RoundedRectangle|*
%AMROUNDEDRECTD24*
21,1,0.08635,0.02084,0,0,90.0*
21,1,0.07438,0.03280,0,0,90.0*
1,1,0.01197,0.01042,0.03719*
1,1,0.01197,0.01042,-0.03719*
1,1,0.01197,-0.01042,-0.03719*
1,1,0.01197,-0.01042,0.03719*
%
%ADD24ROUNDEDRECTD24*%
%ADD25R,0.38595X0.24422*%
%ADD26R,0.16548X0.12217*%
%ADD27R,0.06706X0.06706*%
%ADD28C,0.06706*%
%ADD29R,0.06706X0.06706*%
%ADD30C,0.16548*%
%ADD31C,0.13398*%
%ADD32C,0.05800*%
D19*
X158465Y62008D02*
D03*
X139567D02*
D03*
D20*
X176772Y132874D02*
D03*
X187402D02*
D03*
X41929Y39370D02*
D03*
X52559D02*
D03*
X152953Y174213D02*
D03*
X142323D02*
D03*
X187402Y152559D02*
D03*
X176772D02*
D03*
X187508Y172744D02*
D03*
X176878D02*
D03*
D21*
X127953Y165748D02*
D03*
Y155118D02*
D03*
X137795Y132283D02*
D03*
Y121653D02*
D03*
X80709Y172638D02*
D03*
Y162008D02*
D03*
X66929D02*
D03*
Y172638D02*
D03*
D22*
X15748Y40354D02*
D03*
X27559D02*
D03*
D23*
X141732Y101378D02*
D03*
X133858D02*
D03*
X137795Y109252D02*
D03*
D24*
X65236Y85748D02*
D03*
X70236D02*
D03*
X75236D02*
D03*
X80236D02*
D03*
X85236D02*
D03*
X90236D02*
D03*
X95236D02*
D03*
X100236D02*
D03*
X105236D02*
D03*
X110236D02*
D03*
Y137795D02*
D03*
X105236D02*
D03*
X100236D02*
D03*
X95236D02*
D03*
X90236D02*
D03*
X85236D02*
D03*
X80236D02*
D03*
X75236D02*
D03*
X70236D02*
D03*
X65236D02*
D03*
D25*
X87736Y111772D02*
D03*
D26*
X62638D02*
D03*
X112835D02*
D03*
D27*
X176063Y198819D02*
D03*
X90630D02*
D03*
X196063Y10000D02*
D03*
X125984D02*
D03*
D28*
X186063Y198819D02*
D03*
X196063D02*
D03*
X206063D02*
D03*
X216063D02*
D03*
X226063D02*
D03*
X236063D02*
D03*
X246063D02*
D03*
X100630D02*
D03*
X110630D02*
D03*
X120630D02*
D03*
X130630D02*
D03*
X140630D02*
D03*
X150630D02*
D03*
X160630D02*
D03*
X206063Y10000D02*
D03*
X216063D02*
D03*
X226063D02*
D03*
X236063D02*
D03*
X246063D02*
D03*
X135984D02*
D03*
X145984D02*
D03*
X155984D02*
D03*
X165984D02*
D03*
X175984D02*
D03*
X238189Y127480D02*
D03*
Y137480D02*
D03*
Y147480D02*
D03*
Y157480D02*
D03*
D29*
Y167480D02*
D03*
D30*
X17717Y70866D02*
D03*
Y90551D02*
D03*
Y110236D02*
D03*
X98032Y15748D02*
D03*
X78347D02*
D03*
D31*
X257874Y27559D02*
D03*
Y137795D02*
D03*
X59055Y198819D02*
D03*
D32*
X244094Y42323D02*
D03*
X230315Y119379D02*
D03*
X171260Y97441D02*
D03*
X206693Y50197D02*
D03*
X218789Y112490D02*
D03*
X54134Y182087D02*
D03*
X95472Y168307D02*
D03*
X217520Y87598D02*
D03*
X197835Y137795D02*
D03*
X49213Y21654D02*
D03*
X197835Y152559D02*
D03*
Y173228D02*
D03*
X177165Y41339D02*
D03*
X125984Y124016D02*
D03*
X141732Y92520D02*
D03*
X114173Y41339D02*
D03*
X96274Y70450D02*
D03*
X67913Y74803D02*
D03*
X48228Y66929D02*
D03*
X101378Y94488D02*
D03*
Y154528D02*
D03*
X72835Y59055D02*
D03*
X90236Y148307D02*
D03*
M02*
