M48
METRIC,LZ,000.000
;FILE_FORMAT=3:3
;TYPE=PLATED
;Layer: PTH_Through
;EasyEDA v6.5.42, 2024-06-23 11:48:01
;8461acd9e52441dfa5b1607b254f294a,2865ae9118a24060a17af6d01c9bcc73,10
;Gerber Generator version 0.2
;Holesize 1 = 0.301 mm
T01C0.301
;Holesize 2 = 0.305 mm
T02C0.305
;Holesize 3 = 0.310 mm
T03C0.310
;Holesize 4 = 0.501 mm
T04C0.501
;Holesize 5 = 1.021 mm
T05C1.021
;Holesize 6 = 1.200 mm
T06C1.200
;Holesize 7 = 1.501 mm
T07C1.501
;Holesize 8 = 3.000 mm
T08C3.000
%
G05
G90
T01
X-009391Y-004849
X-008391Y-004849
X-009391Y-005849
X-008391Y-005849
X-009391Y-006849
X-008391Y-006849
X-009391Y-007849
X-008391Y-007849
X008382Y-006858
X004318Y-001270
X006401Y011036
X-001778Y001270
X008382Y002794
X008382Y004064
X008382Y007874
X-016449Y011461
X018034Y-016002
X008526Y-020314
X-026162Y-019558
X-030480Y-017272
X014732Y-024638
X011938Y-018034
X016551Y009661
X020726Y-004089
X020726Y-025739
X017018Y-023622
X000508Y-030988
X-026162Y-018034
X-031496Y004826
X-031496Y012954
X003302Y-010668
X008526Y-018314
X-023114Y003810
X010026Y-011314
X009526Y-008814
X-006096Y001016
X002032Y-017272
X002032Y-020828
X-001016Y-004064
X-023368Y-023368
X-021082Y-023368
X-000508Y002032
X003565Y006350
X004318Y002286
T02
X-021082Y-008382
X-026416Y-001270
X-026416Y-005080
X-021336Y-015494
X-014224Y-003048
X-013970Y-003810
X-015257Y-003055
X-014986Y-003810
X-014986Y-010668
X-014224Y-010668
X-013970Y-011430
X-014732Y-011430
X-021336Y-013970
X-021336Y-005842
X-000266Y-008624
X-004299Y-009925
X-010414Y-017272
X004064Y-017272
X-011938Y-018288
X-008636Y-019812
X-024638Y-010922
T03
X-008890Y002286
X-026924Y007874
X-026416Y002540
X-021590Y011430
X-020574Y009398
X001016Y008128
X-008890Y012700
X015240Y-030734
X010160Y-030734
X004826Y-030734
X-005334Y-031496
X-001016Y-029718
X-008128Y-025908
X-016002Y-007620
X-015748Y-013462
X-004064Y-002794
X-004064Y-004064
X-004050Y-005375
T04
X-009652Y-025146
T05
X013715Y-003303
X013715Y-000763
X013715Y001777
X013715Y004317
X013715Y006857
T06
X-019050Y-033274
X-016510Y-033274
X-013970Y-033274
X-011430Y-033274
X-008890Y-033274
X-006350Y-033274
X-003810Y-033274
X-001270Y-033274
X016510Y-033274
X013970Y-033274
X011430Y-033274
X008890Y-033274
X006350Y-033274
X003810Y-033274
X-005080Y014732
X-007620Y014732
X-010160Y014732
X-012700Y014732
X-015240Y014732
X-017780Y014732
X-020320Y014732
X-022860Y014732
X-025400Y014732
X-027940Y014732
X-001270Y014732
X001270Y014732
X003810Y014732
X006350Y014732
X008890Y014732
X011430Y014732
X013970Y014732
X016510Y014732
T07
X-028876Y-031750G85X-028876Y-031750
X-023876Y-031750G85X-023876Y-031750
X-029718Y-012700G85X-029718Y-012700
X-029718Y-007700G85X-029718Y-007700
X-029718Y-002700G85X-029718Y-002700
T08
X019524Y-000814G85X019529Y-000814
X019524Y-028814G85X019529Y-028814
M30
