G04 Layer: TopSolderMaskLayer*
G04 EasyEDA v6.5.42, 2024-06-23 11:48:01*
G04 8461acd9e52441dfa5b1607b254f294a,2865ae9118a24060a17af6d01c9bcc73,10*
G04 Gerber Generator version 0.2*
G04 Scale: 100 percent, Rotated: No, Reflected: No *
G04 Dimensions in millimeters *
G04 leading zeros omitted , absolute positions ,4 integer and 5 decimal *
%FSLAX45Y45*%
%MOMM*%

%AMMACRO1*1,1,$1,$2,$3*1,1,$1,$4,$5*1,1,$1,0-$2,0-$3*1,1,$1,0-$4,0-$5*20,1,$1,$2,$3,$4,$5,0*20,1,$1,$4,$5,0-$2,0-$3,0*20,1,$1,0-$2,0-$3,0-$4,0-$5,0*20,1,$1,0-$4,0-$5,$2,$3,0*4,1,4,$2,$3,$4,$5,0-$2,0-$3,0-$4,0-$5,$2,$3,0*%
%ADD10C,1.6764*%
%ADD11MACRO1,0.1016X0.7874X0.7874X0.7874X-0.7874*%
%ADD12MACRO1,0.1016X-0.4032X-0.432X-0.4032X0.432*%
%ADD13MACRO1,0.1016X0.4032X-0.432X0.4032X0.432*%
%ADD14MACRO1,0.1016X0.4X-0.45X-0.4X-0.45*%
%ADD15MACRO1,0.1016X-0.4X0.45X0.4X0.45*%
%ADD16MACRO1,0.1016X-0.432X0.4032X0.432X0.4032*%
%ADD17MACRO1,0.1016X-0.432X-0.4032X0.432X-0.4032*%
%ADD18MACRO1,0.1016X0.4032X0.432X0.4032X-0.432*%
%ADD19MACRO1,0.1016X-0.4032X0.432X-0.4032X-0.432*%
%ADD20R,0.9656X0.9081*%
%ADD21MACRO1,0.1016X-0.9X0.9X0.9X0.9*%
%ADD22C,1.9016*%
%ADD23C,1.9620*%
%ADD24MACRO1,0.1016X-3.25X3X3.25X3*%
%ADD25MACRO1,0.1016X-1.4X0.65X1.4X0.65*%
%ADD26MACRO1,0.1016X0.45X0.5X0.45X-0.5*%
%ADD27MACRO1,0.1016X0.6X1.75X0.6X-1.75*%
%ADD28R,1.0016X0.9016*%
%ADD29C,4.1016*%
%ADD30O,2.051812X0.6700012*%
%ADD31O,1.8330926000000003X0.4446016*%
%ADD32MACRO1,0.1016X-1.375X3.1X1.375X3.1*%
%ADD33MACRO1,0.1016X-0.5X0.45X0.5X0.45*%
%ADD34C,3.4032*%

%LPD*%
D10*
G01*
X1371511Y-330316D03*
G01*
X1371511Y-76316D03*
G01*
X1371511Y177683D03*
G01*
X1371511Y431683D03*
D11*
G01*
X1371511Y685683D03*
D12*
G01*
X507036Y787283D03*
D13*
G01*
X356386Y787283D03*
D12*
G01*
X507036Y406283D03*
D13*
G01*
X356386Y406283D03*
D12*
G01*
X507036Y50683D03*
D13*
G01*
X356386Y50683D03*
D14*
G01*
X-1441688Y-1346316D03*
G01*
X-1301689Y-1346316D03*
G01*
X-1441688Y-1524116D03*
G01*
X-1301689Y-1524116D03*
D15*
G01*
X-1784289Y-1930516D03*
G01*
X-1924288Y-1930516D03*
G01*
X-1758889Y-1066916D03*
G01*
X-1898888Y-1066916D03*
D14*
G01*
X-1035288Y-2794116D03*
G01*
X-895289Y-2794116D03*
D16*
G01*
X-3022688Y-2259841D03*
D17*
G01*
X-3022688Y-2109191D03*
D18*
G01*
X-354813Y-50916D03*
D19*
G01*
X-204163Y-50916D03*
D20*
G01*
X-355688Y-1169380D03*
G01*
X-355688Y-1320053D03*
G01*
X-177888Y-1169380D03*
G01*
X-177888Y-1320053D03*
G01*
X-2311387Y837321D03*
G01*
X-2311387Y686673D03*
G01*
X-2514587Y837321D03*
G01*
X-2514587Y686673D03*
D21*
G01*
X-1905000Y-3327400D03*
D22*
G01*
X-1650987Y-3327389D03*
G01*
X-1396987Y-3327389D03*
G01*
X-1142987Y-3327389D03*
G01*
X-888987Y-3327389D03*
G01*
X-634987Y-3327389D03*
G01*
X-380987Y-3327389D03*
G01*
X-126987Y-3327389D03*
G01*
X1651012Y-3327389D03*
G01*
X1397012Y-3327389D03*
G01*
X1143012Y-3327389D03*
G01*
X889012Y-3327389D03*
G01*
X635012Y-3327389D03*
D21*
G01*
X381012Y-3327389D03*
D23*
G01*
X-507987Y1473210D03*
G01*
X-761987Y1473210D03*
G01*
X-1015987Y1473210D03*
G01*
X-1269987Y1473210D03*
G01*
X-1523987Y1473210D03*
G01*
X-1777987Y1473210D03*
G01*
X-2031987Y1473210D03*
G01*
X-2285987Y1473210D03*
G01*
X-2539987Y1473210D03*
D21*
G01*
X-2793987Y1473210D03*
G01*
X-127000Y1473199D03*
D22*
G01*
X127012Y1473210D03*
G01*
X381012Y1473210D03*
G01*
X635012Y1473210D03*
G01*
X889012Y1473210D03*
G01*
X1143012Y1473210D03*
G01*
X1397012Y1473210D03*
G01*
X1651012Y1473210D03*
D24*
G01*
X49796Y-2565400D03*
D25*
G01*
X-608586Y-2338120D03*
G01*
X-608586Y-2792679D03*
D26*
G01*
X-2861409Y-1879600D03*
G01*
X-3031408Y-1879600D03*
D14*
G01*
X-1187599Y203199D03*
G01*
X-1047600Y203199D03*
D15*
G01*
X-1352400Y203199D03*
G01*
X-1492399Y203199D03*
D27*
G01*
X-1651000Y-2349202D03*
G01*
X-1651000Y-2883197D03*
D28*
G01*
X-609587Y-1327012D03*
G01*
X-609587Y-1466992D03*
D29*
G01*
X-2887586Y-3174989D03*
G01*
X-2387587Y-3174989D03*
G01*
X-2971787Y-1269989D03*
G01*
X-2971787Y-769990D03*
G01*
X-2971787Y-269991D03*
D30*
G01*
X-2404097Y-495315D03*
G01*
X-2404097Y-622315D03*
G01*
X-2404097Y-749315D03*
G01*
X-2404097Y-876315D03*
G01*
X-1863077Y-495315D03*
G01*
X-1863077Y-622315D03*
G01*
X-1863077Y-749315D03*
G01*
X-1863077Y-876315D03*
G01*
X-2378722Y-1333489D03*
G01*
X-2378722Y-1460489D03*
G01*
X-2378722Y-1587489D03*
G01*
X-2378722Y-1714489D03*
G01*
X-1837702Y-1333489D03*
G01*
X-1837702Y-1460489D03*
G01*
X-1837702Y-1587489D03*
G01*
X-1837702Y-1714489D03*
D31*
G01*
X-1175651Y-212384D03*
G01*
X-1175651Y-277383D03*
G01*
X-1175651Y-342381D03*
G01*
X-1175651Y-407380D03*
G01*
X-1175651Y-472379D03*
G01*
X-1175651Y-537377D03*
G01*
X-1175651Y-602401D03*
G01*
X-1175651Y-667400D03*
G01*
X-1175651Y-732398D03*
G01*
X-1175651Y-797397D03*
G01*
X-1175651Y-862396D03*
G01*
X-1175651Y-927394D03*
G01*
X-1175651Y-992393D03*
G01*
X-1175651Y-1057391D03*
G01*
X-602500Y-212384D03*
G01*
X-602500Y-277383D03*
G01*
X-602500Y-342381D03*
G01*
X-602500Y-407380D03*
G01*
X-602500Y-472379D03*
G01*
X-602500Y-537377D03*
G01*
X-602500Y-602401D03*
G01*
X-602500Y-667400D03*
G01*
X-602500Y-732398D03*
G01*
X-602500Y-797397D03*
G01*
X-602500Y-862396D03*
G01*
X-602500Y-927394D03*
G01*
X-602500Y-992393D03*
G01*
X-602500Y-1057391D03*
D32*
G01*
X-889076Y-634875D03*
D20*
G01*
X-88Y-1169380D03*
G01*
X-88Y-1320053D03*
D33*
G01*
X203200Y-1159609D03*
G01*
X203200Y-1329608D03*
D34*
G01*
X1952612Y-81396D03*
G01*
X1952612Y-2881391D03*
M02*
