G04 Layer: BottomSilkscreenLayer*
G04 EasyEDA v6.5.42, 2024-06-23 11:48:01*
G04 8461acd9e52441dfa5b1607b254f294a,2865ae9118a24060a17af6d01c9bcc73,10*
G04 Gerber Generator version 0.2*
G04 Scale: 100 percent, Rotated: No, Reflected: No *
G04 Dimensions in millimeters *
G04 leading zeros omitted , absolute positions ,4 integer and 5 decimal *
%FSLAX45Y45*%
%MOMM*%

%ADD10C,0.2540*%

%LPD*%
D10*
X2032690Y-584200D02*
G01*
X2128146Y-584200D01*
X2032690Y-584200D02*
G01*
X2032690Y-643290D01*
X2078144Y-584200D02*
G01*
X2078144Y-620562D01*
X2128146Y-584200D02*
G01*
X2128146Y-643290D01*
X2064509Y-673290D02*
G01*
X2128146Y-673290D01*
X2082690Y-673290D02*
G01*
X2069053Y-686927D01*
X2064509Y-696018D01*
X2064509Y-709655D01*
X2069053Y-718746D01*
X2082690Y-723290D01*
X2128146Y-723290D01*
X2078144Y-807836D02*
G01*
X2069053Y-798746D01*
X2064509Y-789655D01*
X2064509Y-776018D01*
X2069053Y-766927D01*
X2078144Y-757836D01*
X2091781Y-753290D01*
X2100872Y-753290D01*
X2114509Y-757836D01*
X2123600Y-766927D01*
X2128146Y-776018D01*
X2128146Y-789655D01*
X2123600Y-798746D01*
X2114509Y-807836D01*
X2064509Y-860564D02*
G01*
X2069053Y-851474D01*
X2078144Y-842380D01*
X2091781Y-837836D01*
X2100872Y-837836D01*
X2114509Y-842380D01*
X2123600Y-851474D01*
X2128146Y-860564D01*
X2128146Y-874199D01*
X2123600Y-883290D01*
X2114509Y-892380D01*
X2100872Y-896927D01*
X2091781Y-896927D01*
X2078144Y-892380D01*
X2069053Y-883290D01*
X2064509Y-874199D01*
X2064509Y-860564D01*
X2032690Y-981473D02*
G01*
X2128146Y-981473D01*
X2078144Y-981473D02*
G01*
X2069053Y-972383D01*
X2064509Y-963289D01*
X2064509Y-949655D01*
X2069053Y-940564D01*
X2078144Y-931473D01*
X2091781Y-926927D01*
X2100872Y-926927D01*
X2114509Y-931473D01*
X2123600Y-940564D01*
X2128146Y-949655D01*
X2128146Y-963289D01*
X2123600Y-972383D01*
X2114509Y-981473D01*
X2091781Y-1011473D02*
G01*
X2091781Y-1066017D01*
X2082690Y-1066017D01*
X2073600Y-1061473D01*
X2069053Y-1056927D01*
X2064509Y-1047836D01*
X2064509Y-1034199D01*
X2069053Y-1025108D01*
X2078144Y-1016017D01*
X2091781Y-1011473D01*
X2100872Y-1011473D01*
X2114509Y-1016017D01*
X2123600Y-1025108D01*
X2128146Y-1034199D01*
X2128146Y-1047836D01*
X2123600Y-1056927D01*
X2114509Y-1066017D01*
X2064509Y-1096017D02*
G01*
X2128146Y-1096017D01*
X2091781Y-1096017D02*
G01*
X2078144Y-1100564D01*
X2069053Y-1109654D01*
X2064509Y-1118745D01*
X2064509Y-1132382D01*
X2014509Y-1244201D02*
G01*
X2159962Y-1162382D01*
X2032690Y-1274201D02*
G01*
X2128146Y-1274201D01*
X2032690Y-1337835D02*
G01*
X2128146Y-1337835D01*
X2078144Y-1274201D02*
G01*
X2078144Y-1337835D01*
X2064509Y-1422382D02*
G01*
X2128146Y-1422382D01*
X2078144Y-1422382D02*
G01*
X2069053Y-1413291D01*
X2064509Y-1404200D01*
X2064509Y-1390563D01*
X2069053Y-1381472D01*
X2078144Y-1372382D01*
X2091781Y-1367835D01*
X2100872Y-1367835D01*
X2114509Y-1372382D01*
X2123600Y-1381472D01*
X2128146Y-1390563D01*
X2128146Y-1404200D01*
X2123600Y-1413291D01*
X2114509Y-1422382D01*
X2032690Y-1452382D02*
G01*
X2128146Y-1452382D01*
X2032690Y-1482382D02*
G01*
X2128146Y-1482382D01*
X2064509Y-1582381D02*
G01*
X2159962Y-1582381D01*
X2078144Y-1582381D02*
G01*
X2069053Y-1591472D01*
X2064509Y-1600563D01*
X2064509Y-1614200D01*
X2069053Y-1623291D01*
X2078144Y-1632381D01*
X2091781Y-1636928D01*
X2100872Y-1636928D01*
X2114509Y-1632381D01*
X2123600Y-1623291D01*
X2128146Y-1614200D01*
X2128146Y-1600563D01*
X2123600Y-1591472D01*
X2114509Y-1582381D01*
X2032690Y-1666928D02*
G01*
X2037237Y-1671472D01*
X2032690Y-1676019D01*
X2028144Y-1671472D01*
X2032690Y-1666928D01*
X2064509Y-1671472D02*
G01*
X2128146Y-1671472D01*
X2064509Y-1706018D02*
G01*
X2128146Y-1706018D01*
X2082690Y-1706018D02*
G01*
X2069053Y-1719656D01*
X2064509Y-1728746D01*
X2064509Y-1742381D01*
X2069053Y-1751472D01*
X2082690Y-1756018D01*
X2128146Y-1756018D01*
X2064509Y-1808746D02*
G01*
X2069053Y-1799656D01*
X2078144Y-1790565D01*
X2091781Y-1786018D01*
X2100872Y-1786018D01*
X2114509Y-1790565D01*
X2123600Y-1799656D01*
X2128146Y-1808746D01*
X2128146Y-1822381D01*
X2123600Y-1831474D01*
X2114509Y-1840565D01*
X2100872Y-1845109D01*
X2091781Y-1845109D01*
X2078144Y-1840565D01*
X2069053Y-1831474D01*
X2064509Y-1822381D01*
X2064509Y-1808746D01*
X2064509Y-1875109D02*
G01*
X2109962Y-1875109D01*
X2123600Y-1879655D01*
X2128146Y-1888746D01*
X2128146Y-1902381D01*
X2123600Y-1911474D01*
X2109962Y-1925109D01*
X2064509Y-1925109D02*
G01*
X2128146Y-1925109D01*
X2032690Y-1968746D02*
G01*
X2109962Y-1968746D01*
X2123600Y-1973290D01*
X2128146Y-1982383D01*
X2128146Y-1991474D01*
X2064509Y-1955109D02*
G01*
X2064509Y-1986927D01*
X2078144Y-2146018D02*
G01*
X2069053Y-2136927D01*
X2064509Y-2127836D01*
X2064509Y-2114202D01*
X2069053Y-2105108D01*
X2078144Y-2096018D01*
X2091781Y-2091474D01*
X2100872Y-2091474D01*
X2114509Y-2096018D01*
X2123600Y-2105108D01*
X2128146Y-2114202D01*
X2128146Y-2127836D01*
X2123600Y-2136927D01*
X2114509Y-2146018D01*
X2064509Y-2198745D02*
G01*
X2069053Y-2189655D01*
X2078144Y-2180564D01*
X2091781Y-2176018D01*
X2100872Y-2176018D01*
X2114509Y-2180564D01*
X2123600Y-2189655D01*
X2128146Y-2198745D01*
X2128146Y-2212383D01*
X2123600Y-2221473D01*
X2114509Y-2230564D01*
X2100872Y-2235111D01*
X2091781Y-2235111D01*
X2078144Y-2230564D01*
X2069053Y-2221473D01*
X2064509Y-2212383D01*
X2064509Y-2198745D01*
X2064509Y-2265111D02*
G01*
X2128146Y-2265111D01*
X2082690Y-2265111D02*
G01*
X2069053Y-2278745D01*
X2064509Y-2287836D01*
X2064509Y-2301473D01*
X2069053Y-2310564D01*
X2082690Y-2315110D01*
X2128146Y-2315110D01*
X2032690Y-2381473D02*
G01*
X2032690Y-2372382D01*
X2037237Y-2363292D01*
X2050872Y-2358745D01*
X2128146Y-2358745D01*
X2064509Y-2345110D02*
G01*
X2064509Y-2376929D01*
X2032690Y-2411473D02*
G01*
X2037237Y-2416020D01*
X2032690Y-2420564D01*
X2028144Y-2416020D01*
X2032690Y-2411473D01*
X2064509Y-2416020D02*
G01*
X2128146Y-2416020D01*
X2064509Y-2505110D02*
G01*
X2137237Y-2505110D01*
X2150872Y-2500563D01*
X2155418Y-2496019D01*
X2159962Y-2486929D01*
X2159962Y-2473291D01*
X2155418Y-2464201D01*
X2078144Y-2505110D02*
G01*
X2069053Y-2496019D01*
X2064509Y-2486929D01*
X2064509Y-2473291D01*
X2069053Y-2464201D01*
X2078144Y-2455110D01*
X2091781Y-2450564D01*
X2100872Y-2450564D01*
X2114509Y-2455110D01*
X2123600Y-2464201D01*
X2128146Y-2473291D01*
X2128146Y-2486929D01*
X2123600Y-2496019D01*
X2114509Y-2505110D01*
X-237677Y-2972488D02*
G01*
X-287677Y-2972488D01*
X-260405Y-3008853D01*
X-274043Y-3008853D01*
X-283133Y-3013397D01*
X-287677Y-3017944D01*
X-292224Y-3031581D01*
X-292224Y-3040672D01*
X-287677Y-3054306D01*
X-278587Y-3063397D01*
X-264952Y-3067944D01*
X-251315Y-3067944D01*
X-237677Y-3063397D01*
X-233133Y-3058853D01*
X-228587Y-3049762D01*
X-326768Y-3045216D02*
G01*
X-322224Y-3049762D01*
X-326768Y-3054306D01*
X-331315Y-3049762D01*
X-326768Y-3045216D01*
X-370405Y-2972488D02*
G01*
X-420405Y-2972488D01*
X-393133Y-3008853D01*
X-406770Y-3008853D01*
X-415861Y-3013397D01*
X-420405Y-3017944D01*
X-424952Y-3031581D01*
X-424952Y-3040672D01*
X-420405Y-3054306D01*
X-411314Y-3063397D01*
X-397677Y-3067944D01*
X-384042Y-3067944D01*
X-370405Y-3063397D01*
X-365861Y-3058853D01*
X-361315Y-3049762D01*
X-454952Y-2972488D02*
G01*
X-491314Y-3067944D01*
X-527679Y-2972488D02*
G01*
X-491314Y-3067944D01*
X-2488509Y1092200D02*
G01*
X-2393053Y1092200D01*
X-2488509Y1092200D02*
G01*
X-2488509Y1060381D01*
X-2483962Y1046746D01*
X-2474871Y1037653D01*
X-2465781Y1033109D01*
X-2452146Y1028562D01*
X-2429418Y1028562D01*
X-2415781Y1033109D01*
X-2406690Y1037653D01*
X-2397599Y1046746D01*
X-2393053Y1060381D01*
X-2393053Y1092200D01*
X-2488509Y998562D02*
G01*
X-2393053Y998562D01*
X-2488509Y998562D02*
G01*
X-2488509Y957653D01*
X-2483962Y944018D01*
X-2479418Y939472D01*
X-2470327Y934928D01*
X-2461237Y934928D01*
X-2452146Y939472D01*
X-2447599Y944018D01*
X-2443055Y957653D01*
X-2443055Y998562D01*
X-2443055Y966744D02*
G01*
X-2393053Y934928D01*
X-2488509Y904928D02*
G01*
X-2393053Y868563D01*
X-2488509Y832200D02*
G01*
X-2393053Y868563D01*
X-2488509Y779472D02*
G01*
X-2483962Y793109D01*
X-2474871Y797653D01*
X-2465781Y797653D01*
X-2456690Y793109D01*
X-2452146Y784019D01*
X-2447599Y765835D01*
X-2443055Y752200D01*
X-2433962Y743110D01*
X-2424871Y738563D01*
X-2411237Y738563D01*
X-2402146Y743110D01*
X-2397599Y747654D01*
X-2393053Y761291D01*
X-2393053Y779472D01*
X-2397599Y793109D01*
X-2402146Y797653D01*
X-2411237Y802200D01*
X-2424871Y802200D01*
X-2433962Y797653D01*
X-2443055Y788563D01*
X-2447599Y774926D01*
X-2452146Y756744D01*
X-2456690Y747654D01*
X-2465781Y743110D01*
X-2474871Y743110D01*
X-2483962Y747654D01*
X-2488509Y761291D01*
X-2488509Y779472D01*
X-2488509Y699472D02*
G01*
X-2488509Y649472D01*
X-2452146Y676744D01*
X-2452146Y663107D01*
X-2447599Y654016D01*
X-2443055Y649472D01*
X-2429418Y644926D01*
X-2420327Y644926D01*
X-2406690Y649472D01*
X-2397599Y658563D01*
X-2393053Y672200D01*
X-2393053Y685835D01*
X-2397599Y699472D01*
X-2402146Y704016D01*
X-2411237Y708563D01*
X-2470327Y614926D02*
G01*
X-2474871Y605835D01*
X-2488509Y592200D01*
X-2393053Y592200D01*
X-2488509Y553107D02*
G01*
X-2488509Y503107D01*
X-2452146Y530382D01*
X-2452146Y516745D01*
X-2447599Y507654D01*
X-2443055Y503107D01*
X-2429418Y498563D01*
X-2420327Y498563D01*
X-2406690Y503107D01*
X-2397599Y512198D01*
X-2393053Y525835D01*
X-2393053Y539473D01*
X-2397599Y553107D01*
X-2402146Y557654D01*
X-2411237Y562198D01*
X-2456690Y398564D02*
G01*
X-2361237Y398564D01*
X-2443055Y398564D02*
G01*
X-2452146Y389473D01*
X-2456690Y380380D01*
X-2456690Y366745D01*
X-2452146Y357654D01*
X-2443055Y348564D01*
X-2429418Y344017D01*
X-2420327Y344017D01*
X-2406690Y348564D01*
X-2397599Y357654D01*
X-2393053Y366745D01*
X-2393053Y380380D01*
X-2397599Y389473D01*
X-2406690Y398564D01*
X-2488509Y314017D02*
G01*
X-2483962Y309471D01*
X-2488509Y304926D01*
X-2493055Y309471D01*
X-2488509Y314017D01*
X-2456690Y309471D02*
G01*
X-2393053Y309471D01*
X-2456690Y274927D02*
G01*
X-2393053Y274927D01*
X-2438509Y274927D02*
G01*
X-2452146Y261289D01*
X-2456690Y252199D01*
X-2456690Y238564D01*
X-2452146Y229471D01*
X-2438509Y224927D01*
X-2393053Y224927D01*
X-2456690Y172199D02*
G01*
X-2452146Y181289D01*
X-2443055Y190380D01*
X-2429418Y194927D01*
X-2420327Y194927D01*
X-2406690Y190380D01*
X-2397599Y181289D01*
X-2393053Y172199D01*
X-2393053Y158562D01*
X-2397599Y149471D01*
X-2406690Y140380D01*
X-2420327Y135836D01*
X-2429418Y135836D01*
X-2443055Y140380D01*
X-2452146Y149471D01*
X-2456690Y158562D01*
X-2456690Y172199D01*
X-2456690Y105836D02*
G01*
X-2411237Y105836D01*
X-2397599Y101290D01*
X-2393053Y92199D01*
X-2393053Y78562D01*
X-2397599Y69471D01*
X-2411237Y55836D01*
X-2456690Y55836D02*
G01*
X-2393053Y55836D01*
X-2488509Y12199D02*
G01*
X-2411237Y12199D01*
X-2397599Y7653D01*
X-2393053Y-1437D01*
X-2393053Y-10528D01*
X-2456690Y25836D02*
G01*
X-2456690Y-5981D01*
X-2241453Y1037653D02*
G01*
X-2250546Y1046746D01*
X-2255090Y1055837D01*
X-2255090Y1069472D01*
X-2250546Y1078562D01*
X-2241453Y1087653D01*
X-2227818Y1092200D01*
X-2218728Y1092200D01*
X-2205090Y1087653D01*
X-2196000Y1078562D01*
X-2191453Y1069472D01*
X-2191453Y1055837D01*
X-2196000Y1046746D01*
X-2205090Y1037653D01*
X-2255090Y984928D02*
G01*
X-2250546Y994018D01*
X-2241453Y1003109D01*
X-2227818Y1007653D01*
X-2218728Y1007653D01*
X-2205090Y1003109D01*
X-2196000Y994018D01*
X-2191453Y984928D01*
X-2191453Y971290D01*
X-2196000Y962200D01*
X-2205090Y953109D01*
X-2218728Y948562D01*
X-2227818Y948562D01*
X-2241453Y953109D01*
X-2250546Y962200D01*
X-2255090Y971290D01*
X-2255090Y984928D01*
X-2255090Y918563D02*
G01*
X-2191453Y918563D01*
X-2236909Y918563D02*
G01*
X-2250546Y904928D01*
X-2255090Y895835D01*
X-2255090Y882200D01*
X-2250546Y873109D01*
X-2236909Y868563D01*
X-2191453Y868563D01*
X-2286909Y802200D02*
G01*
X-2286909Y811291D01*
X-2282362Y820381D01*
X-2268728Y824925D01*
X-2191453Y824925D01*
X-2255090Y838563D02*
G01*
X-2255090Y806744D01*
X-2286909Y772200D02*
G01*
X-2282362Y767654D01*
X-2286909Y763109D01*
X-2291453Y767654D01*
X-2286909Y772200D01*
X-2255090Y767654D02*
G01*
X-2191453Y767654D01*
X-2255090Y678563D02*
G01*
X-2182362Y678563D01*
X-2168728Y683107D01*
X-2164181Y687654D01*
X-2159637Y696744D01*
X-2159637Y710382D01*
X-2164181Y719472D01*
X-2241453Y678563D02*
G01*
X-2250546Y687654D01*
X-2255090Y696744D01*
X-2255090Y710382D01*
X-2250546Y719472D01*
X-2241453Y728563D01*
X-2227818Y733110D01*
X-2218728Y733110D01*
X-2205090Y728563D01*
X-2196000Y719472D01*
X-2191453Y710382D01*
X-2191453Y696744D01*
X-2196000Y687654D01*
X-2205090Y678563D01*
X-2286909Y578563D02*
G01*
X-2191453Y578563D01*
X-2286909Y578563D02*
G01*
X-2286909Y537654D01*
X-2282362Y524017D01*
X-2277818Y519473D01*
X-2268728Y514926D01*
X-2255090Y514926D01*
X-2246000Y519473D01*
X-2241453Y524017D01*
X-2236909Y537654D01*
X-2236909Y578563D01*
X-2286909Y484926D02*
G01*
X-2191453Y462198D01*
X-2286909Y439473D02*
G01*
X-2191453Y462198D01*
X-2286909Y439473D02*
G01*
X-2191453Y416745D01*
X-2286909Y394017D02*
G01*
X-2191453Y416745D01*
X-2286909Y364017D02*
G01*
X-2191453Y364017D01*
X-2286909Y364017D02*
G01*
X-2191453Y327654D01*
X-2286909Y291289D02*
G01*
X-2191453Y327654D01*
X-2286909Y291289D02*
G01*
X-2191453Y291289D01*
X-2246000Y100380D02*
G01*
X-2250546Y100380D01*
X-2255090Y104927D01*
X-2255090Y109471D01*
X-2250546Y114018D01*
X-2241453Y118562D01*
X-2218728Y127652D01*
X-2205090Y136745D01*
X-2196000Y145836D01*
X-2191453Y154927D01*
X-2191453Y173108D01*
X-2196000Y182199D01*
X-2200544Y186745D01*
X-2209637Y191289D01*
X-2218728Y191289D01*
X-2227818Y186745D01*
X-2232362Y182199D01*
X-2250546Y150380D01*
X-2255090Y145836D01*
X-2264181Y141290D01*
X-2273272Y141290D01*
X-2282362Y145836D01*
X-2286909Y154927D01*
X-2282362Y164017D01*
X-2273272Y168562D01*
X-2264181Y168562D01*
X-2250546Y164017D01*
X-2236909Y154927D01*
X-2205090Y132199D01*
X-2196000Y123108D01*
X-2191453Y114018D01*
X-2191453Y104927D01*
X-2196000Y100380D01*
X-2200544Y100380D01*
X-2227818Y380D02*
G01*
X-2227818Y-54165D01*
X-2236909Y-54165D01*
X-2246000Y-49618D01*
X-2250546Y-45072D01*
X-2255090Y-35981D01*
X-2255090Y-22346D01*
X-2250546Y-13256D01*
X-2241453Y-4163D01*
X-2227818Y380D01*
X-2218728Y380D01*
X-2205090Y-4163D01*
X-2196000Y-13256D01*
X-2191453Y-22346D01*
X-2191453Y-35981D01*
X-2196000Y-45072D01*
X-2205090Y-54165D01*
X-2255090Y-84165D02*
G01*
X-2191453Y-84165D01*
X-2236909Y-84165D02*
G01*
X-2250546Y-97800D01*
X-2255090Y-106890D01*
X-2255090Y-120528D01*
X-2250546Y-129618D01*
X-2236909Y-134165D01*
X-2191453Y-134165D01*
X-2255090Y-218709D02*
G01*
X-2191453Y-218709D01*
X-2241453Y-218709D02*
G01*
X-2250546Y-209618D01*
X-2255090Y-200527D01*
X-2255090Y-186890D01*
X-2250546Y-177800D01*
X-2241453Y-168709D01*
X-2227818Y-164165D01*
X-2218728Y-164165D01*
X-2205090Y-168709D01*
X-2196000Y-177800D01*
X-2191453Y-186890D01*
X-2191453Y-200527D01*
X-2196000Y-209618D01*
X-2205090Y-218709D01*
X-2286909Y-248709D02*
G01*
X-2191453Y-248709D01*
X-2241453Y-248709D02*
G01*
X-2250546Y-257799D01*
X-2255090Y-266890D01*
X-2255090Y-280527D01*
X-2250546Y-289618D01*
X-2241453Y-298709D01*
X-2227818Y-303255D01*
X-2218728Y-303255D01*
X-2205090Y-298709D01*
X-2196000Y-289618D01*
X-2191453Y-280527D01*
X-2191453Y-266890D01*
X-2196000Y-257799D01*
X-2205090Y-248709D01*
X-2286909Y-333255D02*
G01*
X-2191453Y-333255D01*
X-2227818Y-363255D02*
G01*
X-2227818Y-417802D01*
X-2236909Y-417802D01*
X-2246000Y-413255D01*
X-2250546Y-408708D01*
X-2255090Y-399618D01*
X-2255090Y-385983D01*
X-2250546Y-376892D01*
X-2241453Y-367799D01*
X-2227818Y-363255D01*
X-2218728Y-363255D01*
X-2205090Y-367799D01*
X-2196000Y-376892D01*
X-2191453Y-385983D01*
X-2191453Y-399618D01*
X-2196000Y-408708D01*
X-2205090Y-417802D01*
X1804083Y-863589D02*
G01*
X1899536Y-863589D01*
X1785901Y-975408D02*
G01*
X1931355Y-893589D01*
X1804083Y-1005408D02*
G01*
X1899536Y-1028136D01*
X1804083Y-1050864D02*
G01*
X1899536Y-1028136D01*
X1804083Y-1050864D02*
G01*
X1899536Y-1073591D01*
X1804083Y-1096317D02*
G01*
X1899536Y-1073591D01*
X965187Y4516D02*
G01*
X965187Y-71846D01*
X965187Y4516D02*
G01*
X917915Y4516D01*
X965187Y-31846D02*
G01*
X936096Y-31846D01*
X965187Y-71846D02*
G01*
X917915Y-71846D01*
X893914Y-20937D02*
G01*
X893914Y-71846D01*
X893914Y-35483D02*
G01*
X883005Y-24574D01*
X875733Y-20937D01*
X864824Y-20937D01*
X857552Y-24574D01*
X853914Y-35483D01*
X853914Y-71846D01*
X786277Y-31846D02*
G01*
X793551Y-24574D01*
X800823Y-20937D01*
X811733Y-20937D01*
X819005Y-24574D01*
X826277Y-31846D01*
X829914Y-42755D01*
X829914Y-50027D01*
X826277Y-60937D01*
X819005Y-68209D01*
X811733Y-71846D01*
X800823Y-71846D01*
X793551Y-68209D01*
X786277Y-60937D01*
X696823Y19062D02*
G01*
X762279Y-97299D01*
X672823Y4516D02*
G01*
X672823Y-71846D01*
X621916Y4516D02*
G01*
X621916Y-71846D01*
X672823Y-31846D02*
G01*
X621916Y-31846D01*
X554278Y-20937D02*
G01*
X554278Y-71846D01*
X554278Y-31846D02*
G01*
X561550Y-24574D01*
X568825Y-20937D01*
X579734Y-20937D01*
X587006Y-24574D01*
X594278Y-31846D01*
X597915Y-42755D01*
X597915Y-50027D01*
X594278Y-60937D01*
X587006Y-68209D01*
X579734Y-71846D01*
X568825Y-71846D01*
X561550Y-68209D01*
X554278Y-60937D01*
X530278Y4516D02*
G01*
X530278Y-71846D01*
X506277Y4516D02*
G01*
X506277Y-71846D01*
X-101612Y-427283D02*
G01*
X-101612Y-503646D01*
X-129247Y-445465D02*
G01*
X-129247Y-441827D01*
X-132885Y-434555D01*
X-136522Y-430918D01*
X-143794Y-427283D01*
X-158341Y-427283D01*
X-165613Y-430918D01*
X-169247Y-434555D01*
X-172885Y-441827D01*
X-172885Y-449099D01*
X-169247Y-456374D01*
X-161975Y-467283D01*
X-125613Y-503646D01*
X-176522Y-503646D01*
X-255066Y-445465D02*
G01*
X-251429Y-438193D01*
X-244157Y-430918D01*
X-236885Y-427283D01*
X-222338Y-427283D01*
X-215066Y-430918D01*
X-207794Y-438193D01*
X-204157Y-445465D01*
X-200522Y-456374D01*
X-200522Y-474555D01*
X-204157Y-485465D01*
X-207794Y-492737D01*
X-215066Y-500009D01*
X-222338Y-503646D01*
X-236885Y-503646D01*
X-244157Y-500009D01*
X-251429Y-492737D01*
X-255066Y-485465D01*
X668418Y-1903018D02*
G01*
X672962Y-1893928D01*
X682053Y-1884837D01*
X691146Y-1880290D01*
X709328Y-1880290D01*
X718418Y-1884837D01*
X727509Y-1893928D01*
X732053Y-1903018D01*
X736600Y-1916653D01*
X736600Y-1939381D01*
X732053Y-1953018D01*
X727509Y-1962109D01*
X718418Y-1971200D01*
X709328Y-1975746D01*
X691146Y-1975746D01*
X682053Y-1971200D01*
X672962Y-1962109D01*
X668418Y-1953018D01*
X638418Y-1912109D02*
G01*
X638418Y-1957562D01*
X633872Y-1971200D01*
X624781Y-1975746D01*
X611144Y-1975746D01*
X602053Y-1971200D01*
X588418Y-1957562D01*
X588418Y-1912109D02*
G01*
X588418Y-1975746D01*
X558419Y-1912109D02*
G01*
X558419Y-1975746D01*
X558419Y-1939381D02*
G01*
X553872Y-1925744D01*
X544781Y-1916653D01*
X535691Y-1912109D01*
X522053Y-1912109D01*
X492053Y-1912109D02*
G01*
X492053Y-1975746D01*
X492053Y-1939381D02*
G01*
X487509Y-1925744D01*
X478419Y-1916653D01*
X469325Y-1912109D01*
X455691Y-1912109D01*
X425691Y-1939381D02*
G01*
X371144Y-1939381D01*
X371144Y-1930290D01*
X375691Y-1921200D01*
X380235Y-1916653D01*
X389326Y-1912109D01*
X402963Y-1912109D01*
X412054Y-1916653D01*
X421144Y-1925744D01*
X425691Y-1939381D01*
X425691Y-1948472D01*
X421144Y-1962109D01*
X412054Y-1971200D01*
X402963Y-1975746D01*
X389326Y-1975746D01*
X380235Y-1971200D01*
X371144Y-1962109D01*
X341144Y-1912109D02*
G01*
X341144Y-1975746D01*
X341144Y-1930290D02*
G01*
X327510Y-1916653D01*
X318416Y-1912109D01*
X304782Y-1912109D01*
X295691Y-1916653D01*
X291144Y-1930290D01*
X291144Y-1975746D01*
X247507Y-1880290D02*
G01*
X247507Y-1957562D01*
X242963Y-1971200D01*
X233873Y-1975746D01*
X224782Y-1975746D01*
X261145Y-1912109D02*
G01*
X229326Y-1912109D01*
X74782Y-1925744D02*
G01*
X79326Y-1916653D01*
X92963Y-1912109D01*
X106598Y-1912109D01*
X120235Y-1916653D01*
X124782Y-1925744D01*
X120235Y-1934837D01*
X111145Y-1939381D01*
X88417Y-1943928D01*
X79326Y-1948472D01*
X74782Y-1957562D01*
X74782Y-1962109D01*
X79326Y-1971200D01*
X92963Y-1975746D01*
X106598Y-1975746D01*
X120235Y-1971200D01*
X124782Y-1962109D01*
X44780Y-1939381D02*
G01*
X-9763Y-1939381D01*
X-9763Y-1930290D01*
X-5219Y-1921200D01*
X-673Y-1916653D01*
X8417Y-1912109D01*
X22054Y-1912109D01*
X31145Y-1916653D01*
X40236Y-1925744D01*
X44780Y-1939381D01*
X44780Y-1948472D01*
X40236Y-1962109D01*
X31145Y-1971200D01*
X22054Y-1975746D01*
X8417Y-1975746D01*
X-673Y-1971200D01*
X-9763Y-1962109D01*
X-39763Y-1912109D02*
G01*
X-39763Y-1975746D01*
X-39763Y-1930290D02*
G01*
X-53400Y-1916653D01*
X-62491Y-1912109D01*
X-76128Y-1912109D01*
X-85219Y-1916653D01*
X-89763Y-1930290D01*
X-89763Y-1975746D01*
X-169763Y-1925744D02*
G01*
X-165219Y-1916653D01*
X-151582Y-1912109D01*
X-137944Y-1912109D01*
X-124310Y-1916653D01*
X-119763Y-1925744D01*
X-124310Y-1934837D01*
X-133400Y-1939381D01*
X-156128Y-1943928D01*
X-165219Y-1948472D01*
X-169763Y-1957562D01*
X-169763Y-1962109D01*
X-165219Y-1971200D01*
X-151582Y-1975746D01*
X-137944Y-1975746D01*
X-124310Y-1971200D01*
X-119763Y-1962109D01*
X-199763Y-1939381D02*
G01*
X-254309Y-1939381D01*
X-254309Y-1930290D01*
X-249763Y-1921200D01*
X-245219Y-1916653D01*
X-236128Y-1912109D01*
X-222491Y-1912109D01*
X-213400Y-1916653D01*
X-204309Y-1925744D01*
X-199763Y-1939381D01*
X-199763Y-1948472D01*
X-204309Y-1962109D01*
X-213400Y-1971200D01*
X-222491Y-1975746D01*
X-236128Y-1975746D01*
X-245219Y-1971200D01*
X-254309Y-1962109D01*
X-354309Y-1912109D02*
G01*
X-354309Y-2007562D01*
X-354309Y-1925744D02*
G01*
X-363400Y-1916653D01*
X-372491Y-1912109D01*
X-386128Y-1912109D01*
X-395218Y-1916653D01*
X-404309Y-1925744D01*
X-408856Y-1939381D01*
X-408856Y-1948472D01*
X-404309Y-1962109D01*
X-395218Y-1971200D01*
X-386128Y-1975746D01*
X-372491Y-1975746D01*
X-363400Y-1971200D01*
X-354309Y-1962109D01*
X-438856Y-1880290D02*
G01*
X-443400Y-1884837D01*
X-447946Y-1880290D01*
X-443400Y-1875744D01*
X-438856Y-1880290D01*
X-443400Y-1912109D02*
G01*
X-443400Y-1975746D01*
X-477946Y-1912109D02*
G01*
X-477946Y-1975746D01*
X-477946Y-1930290D02*
G01*
X-491581Y-1916653D01*
X-500674Y-1912109D01*
X-514309Y-1912109D01*
X-523400Y-1916653D01*
X-527946Y-1930290D01*
X-527946Y-1975746D01*
X-580674Y-1912109D02*
G01*
X-571581Y-1916653D01*
X-562490Y-1925744D01*
X-557946Y-1939381D01*
X-557946Y-1948472D01*
X-562490Y-1962109D01*
X-571581Y-1971200D01*
X-580674Y-1975746D01*
X-594309Y-1975746D01*
X-603399Y-1971200D01*
X-612490Y-1962109D01*
X-617037Y-1948472D01*
X-617037Y-1939381D01*
X-612490Y-1925744D01*
X-603399Y-1916653D01*
X-594309Y-1912109D01*
X-580674Y-1912109D01*
X-669764Y-1912109D02*
G01*
X-660674Y-1916653D01*
X-651583Y-1925744D01*
X-647037Y-1939381D01*
X-647037Y-1948472D01*
X-651583Y-1962109D01*
X-660674Y-1971200D01*
X-669764Y-1975746D01*
X-683399Y-1975746D01*
X-692492Y-1971200D01*
X-701583Y-1962109D01*
X-706127Y-1948472D01*
X-706127Y-1939381D01*
X-701583Y-1925744D01*
X-692492Y-1916653D01*
X-683399Y-1912109D01*
X-669764Y-1912109D01*
X-736127Y-1912109D02*
G01*
X-736127Y-1957562D01*
X-740674Y-1971200D01*
X-749764Y-1975746D01*
X-763399Y-1975746D01*
X-772492Y-1971200D01*
X-786127Y-1957562D01*
X-786127Y-1912109D02*
G01*
X-786127Y-1975746D01*
X-829764Y-1880290D02*
G01*
X-829764Y-1957562D01*
X-834308Y-1971200D01*
X-843401Y-1975746D01*
X-852492Y-1975746D01*
X-816127Y-1912109D02*
G01*
X-847945Y-1912109D01*
X-1043401Y-1921200D02*
G01*
X-1043401Y-1916653D01*
X-1038854Y-1912109D01*
X-1034310Y-1912109D01*
X-1029764Y-1916653D01*
X-1025220Y-1925744D01*
X-1016126Y-1948472D01*
X-1007036Y-1962109D01*
X-997945Y-1971200D01*
X-988855Y-1975746D01*
X-970673Y-1975746D01*
X-961583Y-1971200D01*
X-957036Y-1966653D01*
X-952492Y-1957562D01*
X-952492Y-1948472D01*
X-957036Y-1939381D01*
X-961583Y-1934837D01*
X-993401Y-1916653D01*
X-997945Y-1912109D01*
X-1002492Y-1903018D01*
X-1002492Y-1893928D01*
X-997945Y-1884837D01*
X-988855Y-1880290D01*
X-979764Y-1884837D01*
X-975220Y-1893928D01*
X-975220Y-1903018D01*
X-979764Y-1916653D01*
X-988855Y-1930290D01*
X-1011582Y-1962109D01*
X-1020673Y-1971200D01*
X-1029764Y-1975746D01*
X-1038854Y-1975746D01*
X-1043401Y-1971200D01*
X-1043401Y-1966653D01*
X-1179763Y-1880290D02*
G01*
X-1143401Y-1975746D01*
X-1179763Y-1880290D02*
G01*
X-1216129Y-1975746D01*
X-1157038Y-1943928D02*
G01*
X-1202491Y-1943928D01*
X-1246129Y-1880290D02*
G01*
X-1246129Y-1975746D01*
X-1246129Y-1880290D02*
G01*
X-1277947Y-1880290D01*
X-1291582Y-1884837D01*
X-1300673Y-1893928D01*
X-1305219Y-1903018D01*
X-1309763Y-1916653D01*
X-1309763Y-1939381D01*
X-1305219Y-1953018D01*
X-1300673Y-1962109D01*
X-1291582Y-1971200D01*
X-1277947Y-1975746D01*
X-1246129Y-1975746D01*
X-1407947Y-1903018D02*
G01*
X-1403400Y-1893928D01*
X-1394310Y-1884837D01*
X-1385219Y-1880290D01*
X-1367038Y-1880290D01*
X-1357947Y-1884837D01*
X-1348856Y-1893928D01*
X-1344310Y-1903018D01*
X-1339763Y-1916653D01*
X-1339763Y-1939381D01*
X-1344310Y-1953018D01*
X-1348856Y-1962109D01*
X-1357947Y-1971200D01*
X-1367038Y-1975746D01*
X-1385219Y-1975746D01*
X-1394310Y-1971200D01*
X-1403400Y-1962109D01*
X-1407947Y-1953018D01*
X-1562491Y-1925744D02*
G01*
X-1553400Y-1916653D01*
X-1544309Y-1912109D01*
X-1530675Y-1912109D01*
X-1521581Y-1916653D01*
X-1512491Y-1925744D01*
X-1507947Y-1939381D01*
X-1507947Y-1948472D01*
X-1512491Y-1962109D01*
X-1521581Y-1971200D01*
X-1530675Y-1975746D01*
X-1544309Y-1975746D01*
X-1553400Y-1971200D01*
X-1562491Y-1962109D01*
X-1615219Y-1912109D02*
G01*
X-1606128Y-1916653D01*
X-1597037Y-1925744D01*
X-1592491Y-1939381D01*
X-1592491Y-1948472D01*
X-1597037Y-1962109D01*
X-1606128Y-1971200D01*
X-1615219Y-1975746D01*
X-1628856Y-1975746D01*
X-1637946Y-1971200D01*
X-1647037Y-1962109D01*
X-1651584Y-1948472D01*
X-1651584Y-1939381D01*
X-1647037Y-1925744D01*
X-1637946Y-1916653D01*
X-1628856Y-1912109D01*
X-1615219Y-1912109D01*
X-1681584Y-1912109D02*
G01*
X-1681584Y-1975746D01*
X-1681584Y-1930290D02*
G01*
X-1695218Y-1916653D01*
X-1704309Y-1912109D01*
X-1717946Y-1912109D01*
X-1727037Y-1916653D01*
X-1731584Y-1930290D01*
X-1731584Y-1975746D01*
X-1797946Y-1880290D02*
G01*
X-1788855Y-1880290D01*
X-1779765Y-1884837D01*
X-1775218Y-1898472D01*
X-1775218Y-1975746D01*
X-1761583Y-1912109D02*
G01*
X-1793402Y-1912109D01*
X-1827946Y-1880290D02*
G01*
X-1832493Y-1884837D01*
X-1837037Y-1880290D01*
X-1832493Y-1875744D01*
X-1827946Y-1880290D01*
X-1832493Y-1912109D02*
G01*
X-1832493Y-1975746D01*
X-1921583Y-1912109D02*
G01*
X-1921583Y-1984837D01*
X-1917037Y-1998472D01*
X-1912493Y-2003018D01*
X-1903402Y-2007562D01*
X-1889765Y-2007562D01*
X-1880674Y-2003018D01*
X-1921583Y-1925744D02*
G01*
X-1912493Y-1916653D01*
X-1903402Y-1912109D01*
X-1889765Y-1912109D01*
X-1880674Y-1916653D01*
X-1871583Y-1925744D01*
X-1867037Y-1939381D01*
X-1867037Y-1948472D01*
X-1871583Y-1962109D01*
X-1880674Y-1971200D01*
X-1889765Y-1975746D01*
X-1903402Y-1975746D01*
X-1912493Y-1971200D01*
X-1921583Y-1962109D01*
X-3148896Y1444064D02*
G01*
X-3053441Y1444064D01*
X-3103441Y1444064D02*
G01*
X-3112532Y1453156D01*
X-3117077Y1462246D01*
X-3117077Y1475882D01*
X-3112532Y1484973D01*
X-3103441Y1494063D01*
X-3089805Y1498610D01*
X-3080714Y1498610D01*
X-3067077Y1494063D01*
X-3057987Y1484973D01*
X-3053441Y1475882D01*
X-3053441Y1462246D01*
X-3057987Y1453156D01*
X-3067077Y1444064D01*
X-3117077Y1391338D02*
G01*
X-3112532Y1400428D01*
X-3103441Y1409519D01*
X-3089805Y1414064D01*
X-3080714Y1414064D01*
X-3067077Y1409519D01*
X-3057987Y1400428D01*
X-3053441Y1391338D01*
X-3053441Y1377701D01*
X-3057987Y1368610D01*
X-3067077Y1359519D01*
X-3080714Y1354973D01*
X-3089805Y1354973D01*
X-3103441Y1359519D01*
X-3112532Y1368610D01*
X-3117077Y1377701D01*
X-3117077Y1391338D01*
X-3103441Y1270428D02*
G01*
X-3112532Y1279519D01*
X-3117077Y1288610D01*
X-3117077Y1302245D01*
X-3112532Y1311338D01*
X-3103441Y1320429D01*
X-3089805Y1324973D01*
X-3080714Y1324973D01*
X-3067077Y1320429D01*
X-3057987Y1311338D01*
X-3053441Y1302245D01*
X-3053441Y1288610D01*
X-3057987Y1279519D01*
X-3067077Y1270428D01*
X-3103441Y1190428D02*
G01*
X-3112532Y1194973D01*
X-3117077Y1208610D01*
X-3117077Y1222245D01*
X-3112532Y1235882D01*
X-3103441Y1240429D01*
X-3094349Y1235882D01*
X-3089805Y1226792D01*
X-3085259Y1204064D01*
X-3080714Y1194973D01*
X-3071623Y1190428D01*
X-3067077Y1190428D01*
X-3057987Y1194973D01*
X-3053441Y1208610D01*
X-3053441Y1222245D01*
X-3057987Y1235882D01*
X-3067077Y1240429D01*
X-3076168Y1155882D02*
G01*
X-3071623Y1160426D01*
X-3067077Y1155882D01*
X-3071623Y1151336D01*
X-3076168Y1155882D01*
X-3103441Y1071336D02*
G01*
X-3112532Y1075882D01*
X-3117077Y1089517D01*
X-3117077Y1103155D01*
X-3112532Y1116791D01*
X-3103441Y1121336D01*
X-3094349Y1116791D01*
X-3089805Y1107701D01*
X-3085259Y1084973D01*
X-3080714Y1075882D01*
X-3071623Y1071336D01*
X-3067077Y1071336D01*
X-3057987Y1075882D01*
X-3053441Y1089517D01*
X-3053441Y1103155D01*
X-3057987Y1116791D01*
X-3067077Y1121336D01*
X-3148896Y1041336D02*
G01*
X-3144349Y1036792D01*
X-3148896Y1032245D01*
X-3153443Y1036792D01*
X-3148896Y1041336D01*
X-3117077Y1036792D02*
G01*
X-3053441Y1036792D01*
X-3117077Y1002245D02*
G01*
X-3053441Y1002245D01*
X-3098896Y1002245D02*
G01*
X-3112532Y988608D01*
X-3117077Y979517D01*
X-3117077Y965883D01*
X-3112532Y956791D01*
X-3098896Y952245D01*
X-3053441Y952245D01*
X-3098896Y952245D02*
G01*
X-3112532Y938609D01*
X-3117077Y929518D01*
X-3117077Y915883D01*
X-3112532Y906792D01*
X-3098896Y902246D01*
X-3053441Y902246D01*
X-3117077Y872246D02*
G01*
X-3021623Y872246D01*
X-3103441Y872246D02*
G01*
X-3112532Y863155D01*
X-3117077Y854064D01*
X-3117077Y840427D01*
X-3112532Y831336D01*
X-3103441Y822246D01*
X-3089805Y817699D01*
X-3080714Y817699D01*
X-3067077Y822246D01*
X-3057987Y831336D01*
X-3053441Y840427D01*
X-3053441Y854064D01*
X-3057987Y863155D01*
X-3067077Y872246D01*
X-3148896Y787700D02*
G01*
X-3053441Y787700D01*
X-3089805Y757699D02*
G01*
X-3089805Y703155D01*
X-3098896Y703155D01*
X-3107987Y707700D01*
X-3112532Y712246D01*
X-3117077Y721337D01*
X-3117077Y734973D01*
X-3112532Y744064D01*
X-3103441Y753155D01*
X-3089805Y757699D01*
X-3080714Y757699D01*
X-3067077Y753155D01*
X-3057987Y744064D01*
X-3053441Y734973D01*
X-3053441Y721337D01*
X-3057987Y712246D01*
X-3067077Y703155D01*
X-3148896Y636791D02*
G01*
X-3148896Y645882D01*
X-3144349Y654973D01*
X-3130714Y659518D01*
X-3053441Y659518D01*
X-3117077Y673155D02*
G01*
X-3117077Y641336D01*
X-3117077Y584064D02*
G01*
X-3112532Y593155D01*
X-3103441Y602246D01*
X-3089805Y606791D01*
X-3080714Y606791D01*
X-3067077Y602246D01*
X-3057987Y593155D01*
X-3053441Y584064D01*
X-3053441Y570428D01*
X-3057987Y561337D01*
X-3067077Y552246D01*
X-3080714Y547700D01*
X-3089805Y547700D01*
X-3103441Y552246D01*
X-3112532Y561337D01*
X-3117077Y570428D01*
X-3117077Y584064D01*
X-3103441Y463156D02*
G01*
X-3112532Y472246D01*
X-3117077Y481337D01*
X-3117077Y494973D01*
X-3112532Y504064D01*
X-3103441Y513155D01*
X-3089805Y517700D01*
X-3080714Y517700D01*
X-3067077Y513155D01*
X-3057987Y504064D01*
X-3053441Y494973D01*
X-3053441Y481337D01*
X-3057987Y472246D01*
X-3067077Y463156D01*
X-3076168Y428609D02*
G01*
X-3071623Y433155D01*
X-3067077Y428609D01*
X-3071623Y424064D01*
X-3076168Y428609D01*
X-3103441Y339519D02*
G01*
X-3112532Y348609D01*
X-3117077Y357700D01*
X-3117077Y371336D01*
X-3112532Y380427D01*
X-3103441Y389518D01*
X-3089805Y394064D01*
X-3080714Y394064D01*
X-3067077Y389518D01*
X-3057987Y380427D01*
X-3053441Y371336D01*
X-3053441Y357700D01*
X-3057987Y348609D01*
X-3067077Y339519D01*
X-3117077Y286791D02*
G01*
X-3112532Y295882D01*
X-3103441Y304972D01*
X-3089805Y309518D01*
X-3080714Y309518D01*
X-3067077Y304972D01*
X-3057987Y295882D01*
X-3053441Y286791D01*
X-3053441Y273154D01*
X-3057987Y264064D01*
X-3067077Y254973D01*
X-3080714Y250427D01*
X-3089805Y250427D01*
X-3103441Y254973D01*
X-3112532Y264064D01*
X-3117077Y273154D01*
X-3117077Y286791D01*
X-3117077Y220427D02*
G01*
X-3053441Y220427D01*
X-3098896Y220427D02*
G01*
X-3112532Y206791D01*
X-3117077Y197700D01*
X-3117077Y184063D01*
X-3112532Y174973D01*
X-3098896Y170427D01*
X-3053441Y170427D01*
X-3098896Y170427D02*
G01*
X-3112532Y156791D01*
X-3117077Y147700D01*
X-3117077Y134063D01*
X-3112532Y124973D01*
X-3098896Y120427D01*
X-3053441Y120427D01*
X-2947296Y701337D02*
G01*
X-2942750Y714973D01*
X-2929114Y724064D01*
X-2906387Y728609D01*
X-2892750Y728609D01*
X-2870024Y724064D01*
X-2856387Y714973D01*
X-2851841Y701337D01*
X-2851841Y692246D01*
X-2856387Y678609D01*
X-2870024Y669518D01*
X-2892750Y664974D01*
X-2906387Y664974D01*
X-2929114Y669518D01*
X-2942750Y678609D01*
X-2947296Y692246D01*
X-2947296Y701337D01*
X-2947296Y589518D02*
G01*
X-2883659Y634973D01*
X-2883659Y566791D01*
X-2947296Y589518D02*
G01*
X-2851841Y589518D01*
X-2965477Y454973D02*
G01*
X-2820024Y536791D01*
X-2924568Y420428D02*
G01*
X-2929114Y420428D01*
X-2938205Y415882D01*
X-2942750Y411337D01*
X-2947296Y402245D01*
X-2947296Y384064D01*
X-2942750Y374973D01*
X-2938205Y370427D01*
X-2929114Y365882D01*
X-2920023Y365882D01*
X-2910932Y370427D01*
X-2897296Y379518D01*
X-2851841Y424973D01*
X-2851841Y361336D01*
X-2947296Y304064D02*
G01*
X-2942750Y317700D01*
X-2929114Y326791D01*
X-2906387Y331337D01*
X-2892750Y331337D01*
X-2870024Y326791D01*
X-2856387Y317700D01*
X-2851841Y304064D01*
X-2851841Y294973D01*
X-2856387Y281338D01*
X-2870024Y272244D01*
X-2892750Y267700D01*
X-2906387Y267700D01*
X-2929114Y272244D01*
X-2942750Y281338D01*
X-2947296Y294973D01*
X-2947296Y304064D01*
X-2924568Y233154D02*
G01*
X-2929114Y233154D01*
X-2938205Y228610D01*
X-2942750Y224063D01*
X-2947296Y214972D01*
X-2947296Y196791D01*
X-2942750Y187700D01*
X-2938205Y183154D01*
X-2929114Y178610D01*
X-2920023Y178610D01*
X-2910932Y183154D01*
X-2897296Y192244D01*
X-2851841Y237700D01*
X-2851841Y174063D01*
X-2947296Y98610D02*
G01*
X-2883659Y144063D01*
X-2883659Y75882D01*
X-2947296Y98610D02*
G01*
X-2851841Y98610D01*
X-1341490Y893600D02*
G01*
X-1246035Y893600D01*
X-1327853Y893600D02*
G01*
X-1336944Y884510D01*
X-1341490Y875419D01*
X-1341490Y861782D01*
X-1336944Y852691D01*
X-1327853Y843600D01*
X-1314216Y839055D01*
X-1305126Y839055D01*
X-1291490Y843600D01*
X-1282397Y852691D01*
X-1277853Y861782D01*
X-1277853Y875419D01*
X-1282397Y884510D01*
X-1291490Y893600D01*
X-1341490Y809055D02*
G01*
X-1277853Y790873D01*
X-1341490Y772691D02*
G01*
X-1277853Y790873D01*
X-1341490Y772691D02*
G01*
X-1277853Y754509D01*
X-1341490Y736328D02*
G01*
X-1277853Y754509D01*
X-1341490Y706328D02*
G01*
X-1277853Y706328D01*
X-1323307Y706328D02*
G01*
X-1336944Y692691D01*
X-1341490Y683600D01*
X-1341490Y669964D01*
X-1336944Y660873D01*
X-1323307Y656328D01*
X-1277853Y656328D01*
X-1323307Y656328D02*
G01*
X-1336944Y642691D01*
X-1341490Y633600D01*
X-1341490Y619963D01*
X-1336944Y610873D01*
X-1323307Y606328D01*
X-1277853Y606328D01*
X-1373307Y506328D02*
G01*
X-1277853Y506328D01*
X-1373307Y506328D02*
G01*
X-1373307Y465419D01*
X-1368762Y451782D01*
X-1364217Y447238D01*
X-1355126Y442691D01*
X-1346035Y442691D01*
X-1336944Y447238D01*
X-1332398Y451782D01*
X-1327853Y465419D01*
X-1327853Y506328D02*
G01*
X-1327853Y465419D01*
X-1323307Y451782D01*
X-1318762Y447238D01*
X-1309671Y442691D01*
X-1296035Y442691D01*
X-1286944Y447238D01*
X-1282397Y451782D01*
X-1277853Y465419D01*
X-1277853Y506328D01*
X-685096Y-2285989D02*
G01*
X-589641Y-2322352D01*
X-685096Y-2358717D02*
G01*
X-589641Y-2322352D01*
X-685096Y-2388717D02*
G01*
X-589641Y-2388717D01*
X-685096Y-2388717D02*
G01*
X-685096Y-2420535D01*
X-680550Y-2434171D01*
X-671459Y-2443262D01*
X-662369Y-2447808D01*
X-648732Y-2452354D01*
X-626005Y-2452354D01*
X-612369Y-2447808D01*
X-603277Y-2443262D01*
X-594187Y-2434171D01*
X-589641Y-2420535D01*
X-589641Y-2388717D01*
X-685096Y-2482353D02*
G01*
X-589641Y-2482353D01*
X-685096Y-2482353D02*
G01*
X-685096Y-2514170D01*
X-680550Y-2527808D01*
X-671459Y-2536899D01*
X-662369Y-2541444D01*
X-648732Y-2545989D01*
X-626005Y-2545989D01*
X-612369Y-2541444D01*
X-603277Y-2536899D01*
X-594187Y-2527808D01*
X-589641Y-2514170D01*
X-589641Y-2482353D01*
X1804083Y-1498594D02*
G01*
X1899536Y-1498594D01*
X1804083Y-1498594D02*
G01*
X1804083Y-1539504D01*
X1808627Y-1553141D01*
X1813173Y-1557685D01*
X1822264Y-1562232D01*
X1831355Y-1562232D01*
X1840445Y-1557685D01*
X1844992Y-1553141D01*
X1849536Y-1539504D01*
X1849536Y-1498594D02*
G01*
X1849536Y-1539504D01*
X1854083Y-1553141D01*
X1858627Y-1557685D01*
X1867717Y-1562232D01*
X1881355Y-1562232D01*
X1890445Y-1557685D01*
X1894992Y-1553141D01*
X1899536Y-1539504D01*
X1899536Y-1498594D01*
X1785901Y-1674050D02*
G01*
X1931355Y-1592232D01*
X1804083Y-1704050D02*
G01*
X1899536Y-1740413D01*
X1804083Y-1776778D02*
G01*
X1899536Y-1740413D01*
X1104737Y417451D02*
G01*
X1113828Y426542D01*
X1127465Y431088D01*
X1145646Y431088D01*
X1159283Y426542D01*
X1168374Y417451D01*
X1168374Y408360D01*
X1163828Y399270D01*
X1159283Y394726D01*
X1150193Y390179D01*
X1122921Y381088D01*
X1113828Y376542D01*
X1109284Y371998D01*
X1104737Y362907D01*
X1104737Y349270D01*
X1113828Y340179D01*
X1127465Y335633D01*
X1145646Y335633D01*
X1159283Y340179D01*
X1168374Y349270D01*
X1052012Y399270D02*
G01*
X1061102Y394726D01*
X1070193Y385635D01*
X1074737Y371998D01*
X1074737Y362907D01*
X1070193Y349270D01*
X1061102Y340179D01*
X1052012Y335633D01*
X1038374Y335633D01*
X1029284Y340179D01*
X1020193Y349270D01*
X1015646Y362907D01*
X1015646Y371998D01*
X1020193Y385635D01*
X1029284Y394726D01*
X1038374Y399270D01*
X1052012Y399270D01*
X985647Y431088D02*
G01*
X985647Y335633D01*
X901100Y431088D02*
G01*
X901100Y335633D01*
X901100Y385635D02*
G01*
X910193Y394726D01*
X919284Y399270D01*
X932919Y399270D01*
X942009Y394726D01*
X951102Y385635D01*
X955647Y371998D01*
X955647Y362907D01*
X951102Y349270D01*
X942009Y340179D01*
X932919Y335633D01*
X919284Y335633D01*
X910193Y340179D01*
X901100Y349270D01*
X871100Y371998D02*
G01*
X816556Y371998D01*
X816556Y381088D01*
X821100Y390179D01*
X825647Y394726D01*
X834737Y399270D01*
X848375Y399270D01*
X857465Y394726D01*
X866556Y385635D01*
X871100Y371998D01*
X871100Y362907D01*
X866556Y349270D01*
X857465Y340179D01*
X848375Y335633D01*
X834737Y335633D01*
X825647Y340179D01*
X816556Y349270D01*
X786556Y399270D02*
G01*
X786556Y335633D01*
X786556Y371998D02*
G01*
X782010Y385635D01*
X772919Y394726D01*
X763828Y399270D01*
X750191Y399270D01*
X636557Y431088D02*
G01*
X636557Y353816D01*
X632010Y340179D01*
X622919Y335633D01*
X613829Y335633D01*
X650191Y399270D02*
G01*
X618373Y399270D01*
X561101Y399270D02*
G01*
X570191Y394726D01*
X579282Y385635D01*
X583829Y371998D01*
X583829Y362907D01*
X579282Y349270D01*
X570191Y340179D01*
X561101Y335633D01*
X547463Y335633D01*
X538373Y340179D01*
X529282Y349270D01*
X524738Y362907D01*
X524738Y371998D01*
X529282Y385635D01*
X538373Y394726D01*
X547463Y399270D01*
X561101Y399270D01*
X1168374Y170398D02*
G01*
X1113828Y170398D01*
X1113828Y179489D01*
X1118374Y188579D01*
X1122921Y193126D01*
X1132011Y197670D01*
X1145646Y197670D01*
X1154737Y193126D01*
X1163828Y184033D01*
X1168374Y170398D01*
X1168374Y161307D01*
X1163828Y147670D01*
X1154737Y138579D01*
X1145646Y134033D01*
X1132011Y134033D01*
X1122921Y138579D01*
X1113828Y147670D01*
X1083828Y197670D02*
G01*
X1083828Y134033D01*
X1083828Y179489D02*
G01*
X1070193Y193126D01*
X1061102Y197670D01*
X1047465Y197670D01*
X1038374Y193126D01*
X1033828Y179489D01*
X1033828Y134033D01*
X949284Y197670D02*
G01*
X949284Y134033D01*
X949284Y184033D02*
G01*
X958375Y193126D01*
X967465Y197670D01*
X981102Y197670D01*
X990193Y193126D01*
X999284Y184033D01*
X1003828Y170398D01*
X1003828Y161307D01*
X999284Y147670D01*
X990193Y138579D01*
X981102Y134033D01*
X967465Y134033D01*
X958375Y138579D01*
X949284Y147670D01*
X919284Y229488D02*
G01*
X919284Y134033D01*
X919284Y184033D02*
G01*
X910193Y193126D01*
X901100Y197670D01*
X887465Y197670D01*
X878375Y193126D01*
X869284Y184033D01*
X864737Y170398D01*
X864737Y161307D01*
X869284Y147670D01*
X878375Y138579D01*
X887465Y134033D01*
X901100Y134033D01*
X910193Y138579D01*
X919284Y147670D01*
X834737Y229488D02*
G01*
X834737Y134033D01*
X804738Y170398D02*
G01*
X750191Y170398D01*
X750191Y179489D01*
X754738Y188579D01*
X759284Y193126D01*
X768375Y197670D01*
X782010Y197670D01*
X791100Y193126D01*
X800191Y184033D01*
X804738Y170398D01*
X804738Y161307D01*
X800191Y147670D01*
X791100Y138579D01*
X782010Y134033D01*
X768375Y134033D01*
X759284Y138579D01*
X750191Y147670D01*
X650191Y197670D02*
G01*
X650191Y102217D01*
X650191Y184033D02*
G01*
X641101Y193126D01*
X632010Y197670D01*
X618373Y197670D01*
X609282Y193126D01*
X600191Y184033D01*
X595647Y170398D01*
X595647Y161307D01*
X600191Y147670D01*
X609282Y138579D01*
X618373Y134033D01*
X632010Y134033D01*
X641101Y138579D01*
X650191Y147670D01*
X565647Y197670D02*
G01*
X565647Y152217D01*
X561101Y138579D01*
X552010Y134033D01*
X538373Y134033D01*
X529282Y138579D01*
X515647Y152217D01*
X515647Y197670D02*
G01*
X515647Y134033D01*
X485648Y229488D02*
G01*
X485648Y134033D01*
X455648Y229488D02*
G01*
X455648Y134033D01*
X425648Y197670D02*
G01*
X425648Y152217D01*
X421101Y138579D01*
X412010Y134033D01*
X398373Y134033D01*
X389282Y138579D01*
X375645Y152217D01*
X375645Y197670D02*
G01*
X375645Y134033D01*
X345645Y197670D02*
G01*
X345645Y102217D01*
X345645Y184033D02*
G01*
X336555Y193126D01*
X327464Y197670D01*
X313829Y197670D01*
X304739Y193126D01*
X295645Y184033D01*
X291101Y170398D01*
X291101Y161307D01*
X295645Y147670D01*
X304739Y138579D01*
X313829Y134033D01*
X327464Y134033D01*
X336555Y138579D01*
X345645Y147670D01*
X211101Y184033D02*
G01*
X215646Y193126D01*
X229283Y197670D01*
X242920Y197670D01*
X256555Y193126D01*
X261101Y184033D01*
X256555Y174942D01*
X247464Y170398D01*
X224736Y165851D01*
X215646Y161307D01*
X211101Y152217D01*
X211101Y147670D01*
X215646Y138579D01*
X229283Y134033D01*
X242920Y134033D01*
X256555Y138579D01*
X261101Y147670D01*
X-366486Y893607D02*
G01*
X-271032Y893607D01*
X-352850Y893607D02*
G01*
X-361941Y884516D01*
X-366486Y875425D01*
X-366486Y861788D01*
X-361941Y852698D01*
X-352850Y843607D01*
X-339214Y839062D01*
X-330123Y839062D01*
X-316486Y843607D01*
X-307395Y852698D01*
X-302850Y861788D01*
X-302850Y875425D01*
X-307395Y884516D01*
X-316486Y893607D01*
X-366486Y809061D02*
G01*
X-302850Y790879D01*
X-366486Y772698D02*
G01*
X-302850Y790879D01*
X-366486Y772698D02*
G01*
X-302850Y754516D01*
X-366486Y736335D02*
G01*
X-302850Y754516D01*
X-366486Y706335D02*
G01*
X-302850Y706335D01*
X-348305Y706335D02*
G01*
X-361941Y692698D01*
X-366486Y683607D01*
X-366486Y669970D01*
X-361941Y660880D01*
X-348305Y656333D01*
X-302850Y656333D01*
X-348305Y656333D02*
G01*
X-361941Y642698D01*
X-366486Y633608D01*
X-366486Y619970D01*
X-361941Y610880D01*
X-348305Y606333D01*
X-302850Y606333D01*
X-375577Y438152D02*
G01*
X-384667Y442699D01*
X-393759Y451789D01*
X-398305Y460880D01*
X-398305Y479061D01*
X-393759Y488152D01*
X-384667Y497243D01*
X-375577Y501789D01*
X-361941Y506333D01*
X-339214Y506333D01*
X-325577Y501789D01*
X-316486Y497243D01*
X-307395Y488152D01*
X-302850Y479061D01*
X-302850Y460880D01*
X-307395Y451789D01*
X-316486Y442699D01*
X-325577Y438152D01*
X-2066483Y893607D02*
G01*
X-1971028Y893607D01*
X-2052848Y893607D02*
G01*
X-2061938Y884516D01*
X-2066483Y875425D01*
X-2066483Y861788D01*
X-2061938Y852698D01*
X-2052848Y843607D01*
X-2039210Y839062D01*
X-2030119Y839062D01*
X-2016483Y843607D01*
X-2007392Y852698D01*
X-2002845Y861788D01*
X-2002845Y875425D01*
X-2007392Y884516D01*
X-2016483Y893607D01*
X-2066483Y809061D02*
G01*
X-2002845Y790879D01*
X-2066483Y772698D02*
G01*
X-2002845Y790879D01*
X-2066483Y772698D02*
G01*
X-2002845Y754516D01*
X-2066483Y736335D02*
G01*
X-2002845Y754516D01*
X-2066483Y706335D02*
G01*
X-2002845Y706335D01*
X-2048301Y706335D02*
G01*
X-2061938Y692698D01*
X-2066483Y683607D01*
X-2066483Y669970D01*
X-2061938Y660880D01*
X-2048301Y656333D01*
X-2002845Y656333D01*
X-2048301Y656333D02*
G01*
X-2061938Y642698D01*
X-2066483Y633608D01*
X-2066483Y619970D01*
X-2061938Y610880D01*
X-2048301Y606333D01*
X-2002845Y606333D01*
X-2098301Y469971D02*
G01*
X-2002845Y506333D01*
X-2098301Y469971D02*
G01*
X-2002845Y433608D01*
X-2034664Y492699D02*
G01*
X-2034664Y447243D01*
X-3202404Y-68196D02*
G01*
X-3211494Y-63649D01*
X-3220585Y-54559D01*
X-3225131Y-45468D01*
X-3225131Y-27287D01*
X-3220585Y-18196D01*
X-3211494Y-9105D01*
X-3202404Y-4559D01*
X-3188769Y-15D01*
X-3166041Y-15D01*
X-3152404Y-4559D01*
X-3143313Y-9105D01*
X-3134222Y-18196D01*
X-3129676Y-27287D01*
X-3129676Y-45468D01*
X-3134222Y-54559D01*
X-3143313Y-63649D01*
X-3152404Y-68196D01*
X-3225106Y-507997D02*
G01*
X-3129650Y-507997D01*
X-3225106Y-507997D02*
G01*
X-3225106Y-548906D01*
X-3220559Y-562543D01*
X-3216015Y-567090D01*
X-3206925Y-571634D01*
X-3197834Y-571634D01*
X-3188743Y-567090D01*
X-3184197Y-562543D01*
X-3179653Y-548906D01*
X-3179653Y-507997D02*
G01*
X-3179653Y-548906D01*
X-3175106Y-562543D01*
X-3170560Y-567090D01*
X-3161469Y-571634D01*
X-3147834Y-571634D01*
X-3138744Y-567090D01*
X-3134197Y-562543D01*
X-3129650Y-548906D01*
X-3129650Y-507997D01*
X-3250506Y-1052375D02*
G01*
X-3155050Y-1016010D01*
X-3250506Y-1052375D02*
G01*
X-3155050Y-1088737D01*
X-3186869Y-1029647D02*
G01*
X-3186869Y-1075100D01*
X-2768602Y-3429701D02*
G01*
X-2804965Y-3525156D01*
X-2841330Y-3429701D02*
G01*
X-2804965Y-3525156D01*
X-2939511Y-3452428D02*
G01*
X-2934967Y-3443338D01*
X-2925874Y-3434247D01*
X-2916783Y-3429701D01*
X-2898602Y-3429701D01*
X-2889511Y-3434247D01*
X-2880420Y-3443338D01*
X-2875874Y-3452428D01*
X-2871330Y-3466066D01*
X-2871330Y-3488794D01*
X-2875874Y-3502428D01*
X-2880420Y-3511519D01*
X-2889511Y-3520610D01*
X-2898602Y-3525156D01*
X-2916783Y-3525156D01*
X-2925874Y-3520610D01*
X-2934967Y-3511519D01*
X-2939511Y-3502428D01*
X-3037692Y-3452428D02*
G01*
X-3033148Y-3443338D01*
X-3024057Y-3434247D01*
X-3014967Y-3429701D01*
X-2996783Y-3429701D01*
X-2987692Y-3434247D01*
X-2978602Y-3443338D01*
X-2974058Y-3452428D01*
X-2969511Y-3466066D01*
X-2969511Y-3488794D01*
X-2974058Y-3502428D01*
X-2978602Y-3511519D01*
X-2987692Y-3520610D01*
X-2996783Y-3525156D01*
X-3014967Y-3525156D01*
X-3024057Y-3520610D01*
X-3033148Y-3511519D01*
X-3037692Y-3502428D01*
X-2328806Y-3452436D02*
G01*
X-2324262Y-3443345D01*
X-2315171Y-3434255D01*
X-2306081Y-3429708D01*
X-2287897Y-3429708D01*
X-2278806Y-3434255D01*
X-2269716Y-3443345D01*
X-2265172Y-3452436D01*
X-2260625Y-3466073D01*
X-2260625Y-3488799D01*
X-2265172Y-3502436D01*
X-2269716Y-3511527D01*
X-2278806Y-3520617D01*
X-2287897Y-3525164D01*
X-2306081Y-3525164D01*
X-2315171Y-3520617D01*
X-2324262Y-3511527D01*
X-2328806Y-3502436D01*
X-2328806Y-3488799D01*
X-2306081Y-3488799D02*
G01*
X-2328806Y-3488799D01*
X-2358806Y-3429708D02*
G01*
X-2358806Y-3525164D01*
X-2358806Y-3429708D02*
G01*
X-2422443Y-3525164D01*
X-2422443Y-3429708D02*
G01*
X-2422443Y-3525164D01*
X-2452443Y-3429708D02*
G01*
X-2452443Y-3525164D01*
X-2452443Y-3429708D02*
G01*
X-2484262Y-3429708D01*
X-2497899Y-3434255D01*
X-2506990Y-3443345D01*
X-2511534Y-3452436D01*
X-2516080Y-3466073D01*
X-2516080Y-3488799D01*
X-2511534Y-3502436D01*
X-2506990Y-3511527D01*
X-2497899Y-3520617D01*
X-2484262Y-3525164D01*
X-2452443Y-3525164D01*
X-435546Y-2083501D02*
G01*
X-390093Y-2083501D01*
X-385546Y-2124410D01*
X-390093Y-2119866D01*
X-403730Y-2115319D01*
X-417365Y-2115319D01*
X-431002Y-2119866D01*
X-440093Y-2128956D01*
X-444637Y-2142591D01*
X-444637Y-2151684D01*
X-440093Y-2165319D01*
X-431002Y-2174410D01*
X-417365Y-2178956D01*
X-403730Y-2178956D01*
X-390093Y-2174410D01*
X-385546Y-2169866D01*
X-381002Y-2160775D01*
X-474639Y-2083501D02*
G01*
X-511002Y-2178956D01*
X-547364Y-2083501D02*
G01*
X-511002Y-2178956D01*
X896089Y-2260597D02*
G01*
X991542Y-2260597D01*
X909723Y-2260597D02*
G01*
X900633Y-2269688D01*
X896089Y-2278778D01*
X896089Y-2292416D01*
X900633Y-2301506D01*
X909723Y-2310597D01*
X923361Y-2315143D01*
X932451Y-2315143D01*
X946089Y-2310597D01*
X955179Y-2301506D01*
X959726Y-2292416D01*
X959726Y-2278778D01*
X955179Y-2269688D01*
X946089Y-2260597D01*
X864270Y-2345143D02*
G01*
X959726Y-2345143D01*
X914270Y-2345143D02*
G01*
X900633Y-2358778D01*
X896089Y-2367869D01*
X896089Y-2381506D01*
X900633Y-2390597D01*
X914270Y-2395143D01*
X959726Y-2395143D01*
X896089Y-2479687D02*
G01*
X959726Y-2479687D01*
X909723Y-2479687D02*
G01*
X900633Y-2470597D01*
X896089Y-2461506D01*
X896089Y-2447869D01*
X900633Y-2438778D01*
X909723Y-2429687D01*
X923361Y-2425143D01*
X932451Y-2425143D01*
X946089Y-2429687D01*
X955179Y-2438778D01*
X959726Y-2447869D01*
X959726Y-2461506D01*
X955179Y-2470597D01*
X946089Y-2479687D01*
X909723Y-2559687D02*
G01*
X900633Y-2555143D01*
X896089Y-2541506D01*
X896089Y-2527871D01*
X900633Y-2514234D01*
X909723Y-2509687D01*
X918817Y-2514234D01*
X923361Y-2523324D01*
X927907Y-2546052D01*
X932451Y-2555143D01*
X941542Y-2559687D01*
X946089Y-2559687D01*
X955179Y-2555143D01*
X959726Y-2541506D01*
X959726Y-2527871D01*
X955179Y-2514234D01*
X946089Y-2509687D01*
X923361Y-2589687D02*
G01*
X923361Y-2644233D01*
X914270Y-2644233D01*
X905179Y-2639687D01*
X900633Y-2635143D01*
X896089Y-2626052D01*
X896089Y-2612415D01*
X900633Y-2603324D01*
X909723Y-2594234D01*
X923361Y-2589687D01*
X932451Y-2589687D01*
X946089Y-2594234D01*
X955179Y-2603324D01*
X959726Y-2612415D01*
X959726Y-2626052D01*
X955179Y-2635143D01*
X946089Y-2644233D01*
X864270Y-2744233D02*
G01*
X959726Y-2744233D01*
X864270Y-2744233D02*
G01*
X864270Y-2785143D01*
X868817Y-2798780D01*
X873361Y-2803324D01*
X882451Y-2807870D01*
X891542Y-2807870D01*
X900633Y-2803324D01*
X905179Y-2798780D01*
X909723Y-2785143D01*
X909723Y-2744233D02*
G01*
X909723Y-2785143D01*
X914270Y-2798780D01*
X918817Y-2803324D01*
X927907Y-2807870D01*
X941542Y-2807870D01*
X950633Y-2803324D01*
X955179Y-2798780D01*
X959726Y-2785143D01*
X959726Y-2744233D01*
X-69110Y-2286012D02*
G01*
X26342Y-2286012D01*
X-55476Y-2286012D02*
G01*
X-64566Y-2295103D01*
X-69110Y-2304194D01*
X-69110Y-2317831D01*
X-64566Y-2326921D01*
X-55476Y-2336012D01*
X-41838Y-2340559D01*
X-32748Y-2340559D01*
X-19110Y-2336012D01*
X-10020Y-2326921D01*
X-5476Y-2317831D01*
X-5476Y-2304194D01*
X-10020Y-2295103D01*
X-19110Y-2286012D01*
X-100929Y-2370559D02*
G01*
X-5476Y-2370559D01*
X-50929Y-2370559D02*
G01*
X-64566Y-2384193D01*
X-69110Y-2393284D01*
X-69110Y-2406921D01*
X-64566Y-2416012D01*
X-50929Y-2420559D01*
X-5476Y-2420559D01*
X-69110Y-2505102D02*
G01*
X-5476Y-2505102D01*
X-55476Y-2505102D02*
G01*
X-64566Y-2496012D01*
X-69110Y-2486921D01*
X-69110Y-2473286D01*
X-64566Y-2464193D01*
X-55476Y-2455103D01*
X-41838Y-2450558D01*
X-32748Y-2450558D01*
X-19110Y-2455103D01*
X-10020Y-2464193D01*
X-5476Y-2473286D01*
X-5476Y-2486921D01*
X-10020Y-2496012D01*
X-19110Y-2505102D01*
X-55476Y-2585102D02*
G01*
X-64566Y-2580558D01*
X-69110Y-2566921D01*
X-69110Y-2553286D01*
X-64566Y-2539649D01*
X-55476Y-2535102D01*
X-46385Y-2539649D01*
X-41838Y-2548740D01*
X-37294Y-2571468D01*
X-32748Y-2580558D01*
X-23657Y-2585102D01*
X-19110Y-2585102D01*
X-10020Y-2580558D01*
X-5476Y-2566921D01*
X-5476Y-2553286D01*
X-10020Y-2539649D01*
X-19110Y-2535102D01*
X-41838Y-2615105D02*
G01*
X-41838Y-2669649D01*
X-50929Y-2669649D01*
X-60020Y-2665105D01*
X-64566Y-2660558D01*
X-69110Y-2651467D01*
X-69110Y-2637830D01*
X-64566Y-2628739D01*
X-55476Y-2619649D01*
X-41838Y-2615105D01*
X-32748Y-2615105D01*
X-19110Y-2619649D01*
X-10020Y-2628739D01*
X-5476Y-2637830D01*
X-5476Y-2651467D01*
X-10020Y-2660558D01*
X-19110Y-2669649D01*
X-100929Y-2806014D02*
G01*
X-5476Y-2769649D01*
X-100929Y-2806014D02*
G01*
X-5476Y-2842376D01*
X-37294Y-2783286D02*
G01*
X-37294Y-2828739D01*
X827227Y-2972478D02*
G01*
X863589Y-3067933D01*
X827227Y-2972478D02*
G01*
X790864Y-3067933D01*
X849955Y-3036115D02*
G01*
X804499Y-3036115D01*
X756318Y-2995206D02*
G01*
X756318Y-2990662D01*
X751771Y-2981571D01*
X747227Y-2977024D01*
X738136Y-2972478D01*
X719955Y-2972478D01*
X710862Y-2977024D01*
X706318Y-2981571D01*
X701771Y-2990662D01*
X701771Y-2999752D01*
X706318Y-3008843D01*
X715408Y-3022480D01*
X760862Y-3067933D01*
X697227Y-3067933D01*
X649439Y-2083490D02*
G01*
X685805Y-2178946D01*
X649439Y-2083490D02*
G01*
X613077Y-2178946D01*
X672167Y-2147128D02*
G01*
X626714Y-2147128D01*
X573986Y-2083490D02*
G01*
X523986Y-2083490D01*
X551258Y-2119853D01*
X537621Y-2119853D01*
X528530Y-2124400D01*
X523986Y-2128944D01*
X519440Y-2142581D01*
X519440Y-2151672D01*
X523986Y-2165309D01*
X533077Y-2174400D01*
X546714Y-2178946D01*
X560349Y-2178946D01*
X573986Y-2174400D01*
X578530Y-2169853D01*
X583077Y-2160762D01*
X344627Y-2972503D02*
G01*
X380989Y-3067956D01*
X344627Y-2972503D02*
G01*
X308262Y-3067956D01*
X367352Y-3036138D02*
G01*
X321899Y-3036138D01*
X250990Y-2972503D02*
G01*
X264627Y-2977047D01*
X273718Y-2990684D01*
X278262Y-3013412D01*
X278262Y-3027047D01*
X273718Y-3049775D01*
X264627Y-3063412D01*
X250990Y-3067956D01*
X241899Y-3067956D01*
X228262Y-3063412D01*
X219171Y-3049775D01*
X214624Y-3027047D01*
X214624Y-3013412D01*
X219171Y-2990684D01*
X228262Y-2977047D01*
X241899Y-2972503D01*
X250990Y-2972503D01*
X65229Y-2083490D02*
G01*
X101592Y-2178946D01*
X65229Y-2083490D02*
G01*
X28864Y-2178946D01*
X87955Y-2147128D02*
G01*
X42501Y-2147128D01*
X-1135Y-2101672D02*
G01*
X-10226Y-2097128D01*
X-23863Y-2083490D01*
X-23863Y-2178946D01*
X1066789Y-1873087D02*
G01*
X1057696Y-1868543D01*
X1044061Y-1854906D01*
X1044061Y-1950361D01*
X1009515Y-1877634D02*
G01*
X1009515Y-1873087D01*
X1004971Y-1863996D01*
X1000424Y-1859452D01*
X991334Y-1854906D01*
X973152Y-1854906D01*
X964062Y-1859452D01*
X959515Y-1863996D01*
X954971Y-1873087D01*
X954971Y-1882178D01*
X959515Y-1891271D01*
X968606Y-1904906D01*
X1014061Y-1950361D01*
X950424Y-1950361D01*
X1843224Y-1854908D02*
G01*
X1879589Y-1950361D01*
X1843224Y-1854908D02*
G01*
X1806862Y-1950361D01*
X1865952Y-1918543D02*
G01*
X1820496Y-1918543D01*
X1722315Y-1854908D02*
G01*
X1767771Y-1854908D01*
X1772315Y-1895817D01*
X1767771Y-1891271D01*
X1754134Y-1886727D01*
X1740496Y-1886727D01*
X1726862Y-1891271D01*
X1717771Y-1900361D01*
X1713224Y-1913999D01*
X1713224Y-1923089D01*
X1717771Y-1936727D01*
X1726862Y-1945817D01*
X1740496Y-1950361D01*
X1754134Y-1950361D01*
X1767771Y-1945817D01*
X1772315Y-1941271D01*
X1776862Y-1932180D01*
X1270007Y-1263477D02*
G01*
X1260916Y-1258930D01*
X1247279Y-1245295D01*
X1247279Y-1340749D01*
X1217279Y-1263477D02*
G01*
X1208189Y-1258930D01*
X1194551Y-1245295D01*
X1194551Y-1340749D01*
X1854187Y-679267D02*
G01*
X1845096Y-674723D01*
X1831459Y-661085D01*
X1831459Y-756541D01*
X1792368Y-661085D02*
G01*
X1742368Y-661085D01*
X1769640Y-697450D01*
X1756006Y-697450D01*
X1746915Y-701995D01*
X1742368Y-706541D01*
X1737824Y-720176D01*
X1737824Y-729269D01*
X1742368Y-742904D01*
X1751459Y-751994D01*
X1765096Y-756541D01*
X1778731Y-756541D01*
X1792368Y-751994D01*
X1796915Y-747450D01*
X1801459Y-738360D01*
X1030437Y-1651685D02*
G01*
X1066802Y-1747139D01*
X1030437Y-1651685D02*
G01*
X994074Y-1747139D01*
X1053165Y-1715322D02*
G01*
X1007711Y-1715322D01*
X918618Y-1651685D02*
G01*
X964074Y-1715322D01*
X895893Y-1715322D01*
X918618Y-1651685D02*
G01*
X918618Y-1747139D01*
X-1447800Y895532D02*
G01*
X-1456890Y900079D01*
X-1470525Y913714D01*
X-1470525Y818260D01*
X-1509615Y913714D02*
G01*
X-1559618Y913714D01*
X-1532343Y877351D01*
X-1545981Y877351D01*
X-1555071Y872804D01*
X-1559618Y868260D01*
X-1564162Y854623D01*
X-1564162Y845532D01*
X-1559618Y831895D01*
X-1550525Y822805D01*
X-1536890Y818260D01*
X-1523253Y818260D01*
X-1509615Y822805D01*
X-1505071Y827351D01*
X-1500525Y836442D01*
X-1959559Y1077871D02*
G01*
X-1955012Y1086965D01*
X-1941375Y1091509D01*
X-1932284Y1091509D01*
X-1918649Y1086965D01*
X-1909559Y1073327D01*
X-1905012Y1050599D01*
X-1905012Y1027871D01*
X-1909559Y1009690D01*
X-1918649Y1000599D01*
X-1932284Y996055D01*
X-1936831Y996055D01*
X-1950466Y1000599D01*
X-1959559Y1009690D01*
X-1964103Y1023327D01*
X-1964103Y1027871D01*
X-1959559Y1041509D01*
X-1950466Y1050599D01*
X-1936831Y1055146D01*
X-1932284Y1055146D01*
X-1918649Y1050599D01*
X-1909559Y1041509D01*
X-1905012Y1027871D01*
X1260896Y-2413706D02*
G01*
X1210896Y-2413706D01*
X1238168Y-2450071D01*
X1224533Y-2450071D01*
X1215440Y-2454615D01*
X1210896Y-2459161D01*
X1206350Y-2472799D01*
X1206350Y-2481889D01*
X1210896Y-2495524D01*
X1219987Y-2504615D01*
X1233624Y-2509161D01*
X1247259Y-2509161D01*
X1260896Y-2504615D01*
X1265440Y-2500071D01*
X1269987Y-2490980D01*
X1021339Y-661093D02*
G01*
X1066792Y-724730D01*
X998611Y-724730D01*
X1021339Y-661093D02*
G01*
X1021339Y-756549D01*
X1824253Y-1344228D02*
G01*
X1824253Y-1339682D01*
X1819709Y-1330591D01*
X1815162Y-1326045D01*
X1806072Y-1321501D01*
X1787890Y-1321501D01*
X1778800Y-1326045D01*
X1774253Y-1330591D01*
X1769709Y-1339682D01*
X1769709Y-1348773D01*
X1774253Y-1357863D01*
X1783346Y-1371500D01*
X1828800Y-1416954D01*
X1765162Y-1416954D01*
X1778701Y-2093765D02*
G01*
X1874156Y-2057402D01*
X1778701Y-2093765D02*
G01*
X1874156Y-2130130D01*
X1842338Y-2071039D02*
G01*
X1842338Y-2116493D01*
X1760519Y-2241948D02*
G01*
X1905975Y-2160130D01*
X1778701Y-2271948D02*
G01*
X1846884Y-2271948D01*
X1860519Y-2276492D01*
X1869610Y-2285583D01*
X1874156Y-2299220D01*
X1874156Y-2308311D01*
X1869610Y-2321948D01*
X1860519Y-2331039D01*
X1846884Y-2335583D01*
X1778701Y-2335583D01*
X92506Y278714D02*
G01*
X42506Y278714D01*
X69778Y242351D01*
X56144Y242351D01*
X47053Y237804D01*
X42506Y233260D01*
X37960Y219623D01*
X37960Y210532D01*
X42506Y196895D01*
X51597Y187805D01*
X65234Y183258D01*
X78869Y183258D01*
X92506Y187805D01*
X97053Y192351D01*
X101597Y201442D01*
X-1100482Y246895D02*
G01*
X-1095936Y233260D01*
X-1086845Y224167D01*
X-1073210Y219623D01*
X-1068664Y219623D01*
X-1055027Y224167D01*
X-1045936Y233260D01*
X-1041392Y246895D01*
X-1041392Y251442D01*
X-1045936Y265076D01*
X-1055027Y274167D01*
X-1068664Y278714D01*
X-1073210Y278714D01*
X-1086845Y274167D01*
X-1095936Y265076D01*
X-1100482Y246895D01*
X-1100482Y224167D01*
X-1095936Y201442D01*
X-1086845Y187805D01*
X-1073210Y183258D01*
X-1064120Y183258D01*
X-1050483Y187805D01*
X-1045936Y196895D01*
X-444634Y278714D02*
G01*
X-399178Y183258D01*
X-380997Y278714D02*
G01*
X-444634Y278714D01*
X-708527Y1091514D02*
G01*
X-694893Y1086967D01*
X-690346Y1077876D01*
X-690346Y1068786D01*
X-694893Y1059695D01*
X-703983Y1055151D01*
X-722165Y1050604D01*
X-735802Y1046060D01*
X-744893Y1036967D01*
X-749437Y1027877D01*
X-749437Y1014242D01*
X-744893Y1005151D01*
X-740346Y1000605D01*
X-726711Y996058D01*
X-708527Y996058D01*
X-694893Y1000605D01*
X-690346Y1005151D01*
X-685802Y1014242D01*
X-685802Y1027877D01*
X-690346Y1036967D01*
X-699437Y1046060D01*
X-713074Y1050604D01*
X-731255Y1055151D01*
X-740346Y1059695D01*
X-744893Y1068786D01*
X-744893Y1077876D01*
X-740346Y1086967D01*
X-726711Y1091514D01*
X-708527Y1091514D01*
X-1930392Y235125D02*
G01*
X-1939485Y239671D01*
X-1953120Y253309D01*
X-1953120Y157853D01*
X-1983120Y235125D02*
G01*
X-1992210Y239671D01*
X-2005848Y253309D01*
X-2005848Y157853D01*
X-257754Y1091509D02*
G01*
X-212300Y1091509D01*
X-207754Y1050599D01*
X-212300Y1055146D01*
X-225935Y1059690D01*
X-239572Y1059690D01*
X-253210Y1055146D01*
X-262300Y1046055D01*
X-266844Y1032418D01*
X-266844Y1023327D01*
X-262300Y1009690D01*
X-253210Y1000599D01*
X-239572Y996055D01*
X-225935Y996055D01*
X-212300Y1000599D01*
X-207754Y1005146D01*
X-203210Y1014237D01*
X-1168405Y1073327D02*
G01*
X-1177495Y1077871D01*
X-1191132Y1091509D01*
X-1191132Y996055D01*
X-1248404Y1091509D02*
G01*
X-1234767Y1086965D01*
X-1225676Y1073327D01*
X-1221132Y1050599D01*
X-1221132Y1036965D01*
X-1225676Y1014237D01*
X-1234767Y1000599D01*
X-1248404Y996055D01*
X-1257495Y996055D01*
X-1271132Y1000599D01*
X-1280223Y1014237D01*
X-1284767Y1036965D01*
X-1284767Y1050599D01*
X-1280223Y1073327D01*
X-1271132Y1086965D01*
X-1257495Y1091509D01*
X-1248404Y1091509D01*
X-864217Y918600D02*
G01*
X-864217Y864055D01*
X-873308Y864055D01*
X-882398Y868601D01*
X-886945Y873146D01*
X-891489Y882237D01*
X-891489Y895873D01*
X-886945Y904963D01*
X-877854Y914054D01*
X-864217Y918600D01*
X-855126Y918600D01*
X-841489Y914054D01*
X-832398Y904963D01*
X-827854Y895873D01*
X-827854Y882237D01*
X-832398Y873146D01*
X-841489Y864055D01*
X-891489Y834054D02*
G01*
X-827854Y834054D01*
X-873308Y834054D02*
G01*
X-886945Y820419D01*
X-891489Y811329D01*
X-891489Y797692D01*
X-886945Y788601D01*
X-873308Y784054D01*
X-827854Y784054D01*
X-891489Y699509D02*
G01*
X-827854Y699509D01*
X-877854Y699509D02*
G01*
X-886945Y708601D01*
X-891489Y717692D01*
X-891489Y731326D01*
X-886945Y740420D01*
X-877854Y749510D01*
X-864217Y754054D01*
X-855126Y754054D01*
X-841489Y749510D01*
X-832398Y740420D01*
X-827854Y731326D01*
X-827854Y717692D01*
X-832398Y708601D01*
X-841489Y699509D01*
X-923308Y669510D02*
G01*
X-827854Y669510D01*
X-877854Y669510D02*
G01*
X-886945Y660417D01*
X-891489Y651327D01*
X-891489Y637692D01*
X-886945Y628601D01*
X-877854Y619511D01*
X-864217Y614964D01*
X-855126Y614964D01*
X-841489Y619511D01*
X-832398Y628601D01*
X-827854Y637692D01*
X-827854Y651327D01*
X-832398Y660417D01*
X-841489Y669510D01*
X-923308Y584964D02*
G01*
X-827854Y584964D01*
X-864217Y554964D02*
G01*
X-864217Y500418D01*
X-873308Y500418D01*
X-882398Y504964D01*
X-886945Y509508D01*
X-891489Y518601D01*
X-891489Y532236D01*
X-886945Y541327D01*
X-877854Y550417D01*
X-864217Y554964D01*
X-855126Y554964D01*
X-841489Y550417D01*
X-832398Y541327D01*
X-827854Y532236D01*
X-827854Y518601D01*
X-832398Y509508D01*
X-841489Y500418D01*
X-1726547Y-2108230D02*
G01*
X-1631091Y-2108230D01*
X-1726547Y-2108230D02*
G01*
X-1726547Y-2167321D01*
X-1681093Y-2108230D02*
G01*
X-1681093Y-2144593D01*
X-1631091Y-2108230D02*
G01*
X-1631091Y-2167321D01*
X-1694728Y-2197320D02*
G01*
X-1631091Y-2197320D01*
X-1676547Y-2197320D02*
G01*
X-1690184Y-2210958D01*
X-1694728Y-2220048D01*
X-1694728Y-2233686D01*
X-1690184Y-2242776D01*
X-1676547Y-2247320D01*
X-1631091Y-2247320D01*
X-1694728Y-2331867D02*
G01*
X-1631091Y-2331867D01*
X-1681093Y-2331867D02*
G01*
X-1690184Y-2322776D01*
X-1694728Y-2313686D01*
X-1694728Y-2300048D01*
X-1690184Y-2290958D01*
X-1681093Y-2281867D01*
X-1667456Y-2277320D01*
X-1658366Y-2277320D01*
X-1644728Y-2281867D01*
X-1635638Y-2290958D01*
X-1631091Y-2300048D01*
X-1631091Y-2313686D01*
X-1635638Y-2322776D01*
X-1644728Y-2331867D01*
X-1726547Y-2361867D02*
G01*
X-1631091Y-2361867D01*
X-1681093Y-2361867D02*
G01*
X-1690184Y-2370957D01*
X-1694728Y-2380048D01*
X-1694728Y-2393685D01*
X-1690184Y-2402776D01*
X-1681093Y-2411867D01*
X-1667456Y-2416411D01*
X-1658366Y-2416411D01*
X-1644728Y-2411867D01*
X-1635638Y-2402776D01*
X-1631091Y-2393685D01*
X-1631091Y-2380048D01*
X-1635638Y-2370957D01*
X-1644728Y-2361867D01*
X-1726547Y-2446413D02*
G01*
X-1631091Y-2446413D01*
X-1667456Y-2476413D02*
G01*
X-1667456Y-2530957D01*
X-1676547Y-2530957D01*
X-1685637Y-2526413D01*
X-1690184Y-2521866D01*
X-1694728Y-2512776D01*
X-1694728Y-2499139D01*
X-1690184Y-2490048D01*
X-1681093Y-2480957D01*
X-1667456Y-2476413D01*
X-1658366Y-2476413D01*
X-1644728Y-2480957D01*
X-1635638Y-2490048D01*
X-1631091Y-2499139D01*
X-1631091Y-2512776D01*
X-1635638Y-2521866D01*
X-1644728Y-2530957D01*
X-1726547Y-2653685D02*
G01*
X-1722000Y-2640048D01*
X-1712909Y-2635504D01*
X-1703819Y-2635504D01*
X-1694728Y-2640048D01*
X-1690184Y-2649138D01*
X-1685637Y-2667322D01*
X-1681093Y-2680957D01*
X-1672000Y-2690047D01*
X-1662910Y-2694594D01*
X-1649275Y-2694594D01*
X-1640184Y-2690047D01*
X-1635638Y-2685503D01*
X-1631091Y-2671866D01*
X-1631091Y-2653685D01*
X-1635638Y-2640048D01*
X-1640184Y-2635504D01*
X-1649275Y-2630957D01*
X-1662910Y-2630957D01*
X-1672000Y-2635504D01*
X-1681093Y-2644594D01*
X-1685637Y-2658231D01*
X-1690184Y-2676413D01*
X-1694728Y-2685503D01*
X-1703819Y-2690047D01*
X-1712909Y-2690047D01*
X-1722000Y-2685503D01*
X-1726547Y-2671866D01*
X-1726547Y-2653685D01*
X-1726547Y-2724594D02*
G01*
X-1631091Y-2760957D01*
X-1726547Y-2797322D02*
G01*
X-1631091Y-2760957D01*
X-1493128Y-2108230D02*
G01*
X-1429491Y-2108230D01*
X-1465856Y-2108230D02*
G01*
X-1479491Y-2112777D01*
X-1488584Y-2121867D01*
X-1493128Y-2130958D01*
X-1493128Y-2144593D01*
X-1465856Y-2174593D02*
G01*
X-1465856Y-2229139D01*
X-1474947Y-2229139D01*
X-1484038Y-2224592D01*
X-1488584Y-2220048D01*
X-1493128Y-2210958D01*
X-1493128Y-2197320D01*
X-1488584Y-2188230D01*
X-1479491Y-2179139D01*
X-1465856Y-2174593D01*
X-1456766Y-2174593D01*
X-1443128Y-2179139D01*
X-1434038Y-2188230D01*
X-1429491Y-2197320D01*
X-1429491Y-2210958D01*
X-1434038Y-2220048D01*
X-1443128Y-2229139D01*
X-1493128Y-2313686D02*
G01*
X-1420401Y-2313686D01*
X-1406766Y-2309139D01*
X-1402219Y-2304595D01*
X-1397675Y-2295502D01*
X-1397675Y-2281867D01*
X-1402219Y-2272776D01*
X-1479491Y-2313686D02*
G01*
X-1488584Y-2304595D01*
X-1493128Y-2295502D01*
X-1493128Y-2281867D01*
X-1488584Y-2272776D01*
X-1479491Y-2263686D01*
X-1465856Y-2259139D01*
X-1456766Y-2259139D01*
X-1443128Y-2263686D01*
X-1434038Y-2272776D01*
X-1429491Y-2281867D01*
X-1429491Y-2295502D01*
X-1434038Y-2304595D01*
X-1443128Y-2313686D01*
X-1493128Y-2343685D02*
G01*
X-1447675Y-2343685D01*
X-1434038Y-2348230D01*
X-1429491Y-2357320D01*
X-1429491Y-2370957D01*
X-1434038Y-2380048D01*
X-1447675Y-2393685D01*
X-1493128Y-2393685D02*
G01*
X-1429491Y-2393685D01*
X-1524947Y-2423685D02*
G01*
X-1429491Y-2423685D01*
X-1493128Y-2508229D02*
G01*
X-1429491Y-2508229D01*
X-1479491Y-2508229D02*
G01*
X-1488584Y-2499139D01*
X-1493128Y-2490048D01*
X-1493128Y-2476413D01*
X-1488584Y-2467320D01*
X-1479491Y-2458229D01*
X-1465856Y-2453685D01*
X-1456766Y-2453685D01*
X-1443128Y-2458229D01*
X-1434038Y-2467320D01*
X-1429491Y-2476413D01*
X-1429491Y-2490048D01*
X-1434038Y-2499139D01*
X-1443128Y-2508229D01*
X-1524947Y-2551866D02*
G01*
X-1447675Y-2551866D01*
X-1434038Y-2556413D01*
X-1429491Y-2565504D01*
X-1429491Y-2574594D01*
X-1493128Y-2538229D02*
G01*
X-1493128Y-2570048D01*
X-1493128Y-2627322D02*
G01*
X-1488584Y-2618232D01*
X-1479491Y-2609138D01*
X-1465856Y-2604594D01*
X-1456766Y-2604594D01*
X-1443128Y-2609138D01*
X-1434038Y-2618232D01*
X-1429491Y-2627322D01*
X-1429491Y-2640957D01*
X-1434038Y-2650048D01*
X-1443128Y-2659138D01*
X-1456766Y-2663685D01*
X-1465856Y-2663685D01*
X-1479491Y-2659138D01*
X-1488584Y-2650048D01*
X-1493128Y-2640957D01*
X-1493128Y-2627322D01*
X-1493128Y-2693685D02*
G01*
X-1429491Y-2693685D01*
X-1465856Y-2693685D02*
G01*
X-1479491Y-2698231D01*
X-1488584Y-2707322D01*
X-1493128Y-2716413D01*
X-1493128Y-2730047D01*
X-1323347Y-2108230D02*
G01*
X-1227891Y-2144593D01*
X-1323347Y-2180958D02*
G01*
X-1227891Y-2144593D01*
X-1323347Y-2210958D02*
G01*
X-1227891Y-2210958D01*
X-1323347Y-2240958D02*
G01*
X-1227891Y-2240958D01*
X-1323347Y-2240958D02*
G01*
X-1227891Y-2304595D01*
X-1323347Y-2304595D02*
G01*
X-1227891Y-2304595D01*
X-2260612Y-2545918D02*
G01*
X-2260612Y-2660464D01*
X-2296612Y-2584102D02*
G01*
X-2296612Y-2660464D01*
X-2296612Y-2605918D02*
G01*
X-2312977Y-2589555D01*
X-2323886Y-2584102D01*
X-2340249Y-2584102D01*
X-2351158Y-2589555D01*
X-2356612Y-2605918D01*
X-2356612Y-2660464D01*
X-2392613Y-2584102D02*
G01*
X-2392613Y-2698645D01*
X-2392613Y-2600464D02*
G01*
X-2403520Y-2589555D01*
X-2414430Y-2584102D01*
X-2430795Y-2584102D01*
X-2441704Y-2589555D01*
X-2452613Y-2600464D01*
X-2458067Y-2616827D01*
X-2458067Y-2627736D01*
X-2452613Y-2644101D01*
X-2441704Y-2655011D01*
X-2430795Y-2660464D01*
X-2414430Y-2660464D01*
X-2403520Y-2655011D01*
X-2392613Y-2644101D01*
X-2494066Y-2584102D02*
G01*
X-2494066Y-2638645D01*
X-2499522Y-2655011D01*
X-2510431Y-2660464D01*
X-2526794Y-2660464D01*
X-2537703Y-2655011D01*
X-2554066Y-2638645D01*
X-2554066Y-2584102D02*
G01*
X-2554066Y-2660464D01*
X-2606431Y-2545918D02*
G01*
X-2606431Y-2638645D01*
X-2611884Y-2655011D01*
X-2622793Y-2660464D01*
X-2633703Y-2660464D01*
X-2590068Y-2584102D02*
G01*
X-2628249Y-2584102D01*
X-2260612Y-2789336D02*
G01*
X-2271522Y-2783883D01*
X-2287884Y-2767520D01*
X-2287884Y-2882064D01*
X-2329340Y-2794792D02*
G01*
X-2329340Y-2789336D01*
X-2334793Y-2778427D01*
X-2340249Y-2772973D01*
X-2351158Y-2767520D01*
X-2372977Y-2767520D01*
X-2383886Y-2772973D01*
X-2389339Y-2778427D01*
X-2394793Y-2789336D01*
X-2394793Y-2800245D01*
X-2389339Y-2811155D01*
X-2378430Y-2827520D01*
X-2323886Y-2882064D01*
X-2400249Y-2882064D01*
X-2436248Y-2832973D02*
G01*
X-2534429Y-2832973D01*
X-2581341Y-2767520D02*
G01*
X-2641340Y-2767520D01*
X-2608613Y-2811155D01*
X-2624975Y-2811155D01*
X-2635885Y-2816611D01*
X-2641340Y-2822064D01*
X-2646794Y-2838427D01*
X-2646794Y-2849336D01*
X-2641340Y-2865701D01*
X-2630431Y-2876610D01*
X-2614066Y-2882064D01*
X-2597703Y-2882064D01*
X-2581341Y-2876610D01*
X-2575885Y-2871155D01*
X-2570431Y-2860245D01*
X-2748249Y-2767520D02*
G01*
X-2693703Y-2767520D01*
X-2688249Y-2816611D01*
X-2693703Y-2811155D01*
X-2710068Y-2805701D01*
X-2726430Y-2805701D01*
X-2742793Y-2811155D01*
X-2753702Y-2822064D01*
X-2759158Y-2838427D01*
X-2759158Y-2849336D01*
X-2753702Y-2865701D01*
X-2742793Y-2876610D01*
X-2726430Y-2882064D01*
X-2710068Y-2882064D01*
X-2693703Y-2876610D01*
X-2688249Y-2871155D01*
X-2682793Y-2860245D01*
X-2795158Y-2767520D02*
G01*
X-2838795Y-2882064D01*
X-2882430Y-2767520D02*
G01*
X-2838795Y-2882064D01*
X-558800Y-940490D02*
G01*
X-558800Y-1035946D01*
X-558800Y-940490D02*
G01*
X-590618Y-940490D01*
X-604253Y-945037D01*
X-613346Y-954128D01*
X-617890Y-963218D01*
X-622437Y-976853D01*
X-622437Y-999581D01*
X-617890Y-1013218D01*
X-613346Y-1022309D01*
X-604253Y-1031400D01*
X-590618Y-1035946D01*
X-558800Y-1035946D01*
X-652437Y-940490D02*
G01*
X-652437Y-1035946D01*
X-652437Y-940490D02*
G01*
X-693346Y-940490D01*
X-706981Y-945037D01*
X-711527Y-949581D01*
X-716071Y-958672D01*
X-716071Y-967762D01*
X-711527Y-976853D01*
X-706981Y-981400D01*
X-693346Y-985944D01*
X-652437Y-985944D01*
X-684255Y-985944D02*
G01*
X-716071Y-1035946D01*
X-746071Y-940490D02*
G01*
X-782436Y-1035946D01*
X-818799Y-940490D02*
G01*
X-782436Y-1035946D01*
X-871527Y-940490D02*
G01*
X-857890Y-945037D01*
X-853346Y-954128D01*
X-853346Y-963218D01*
X-857890Y-972309D01*
X-866980Y-976853D01*
X-885164Y-981400D01*
X-898799Y-985944D01*
X-907889Y-995037D01*
X-912436Y-1004128D01*
X-912436Y-1017762D01*
X-907889Y-1026853D01*
X-903345Y-1031400D01*
X-889708Y-1035946D01*
X-871527Y-1035946D01*
X-857890Y-1031400D01*
X-853346Y-1026853D01*
X-848799Y-1017762D01*
X-848799Y-1004128D01*
X-853346Y-995037D01*
X-862436Y-985944D01*
X-876073Y-981400D01*
X-894255Y-976853D01*
X-903345Y-972309D01*
X-907889Y-963218D01*
X-907889Y-954128D01*
X-903345Y-945037D01*
X-889708Y-940490D01*
X-871527Y-940490D01*
X-951527Y-940490D02*
G01*
X-1001527Y-940490D01*
X-974255Y-976853D01*
X-987892Y-976853D01*
X-996983Y-981400D01*
X-1001527Y-985944D01*
X-1006073Y-999581D01*
X-1006073Y-1008672D01*
X-1001527Y-1022309D01*
X-992436Y-1031400D01*
X-978799Y-1035946D01*
X-965164Y-1035946D01*
X-951527Y-1031400D01*
X-946983Y-1026853D01*
X-942436Y-1017762D01*
X-1036073Y-958672D02*
G01*
X-1045164Y-954128D01*
X-1058799Y-940490D01*
X-1058799Y-1035946D01*
X-1097892Y-940490D02*
G01*
X-1147892Y-940490D01*
X-1120617Y-976853D01*
X-1134254Y-976853D01*
X-1143345Y-981400D01*
X-1147892Y-985944D01*
X-1152436Y-999581D01*
X-1152436Y-1008672D01*
X-1147892Y-1022309D01*
X-1138801Y-1031400D01*
X-1125164Y-1035946D01*
X-1111526Y-1035946D01*
X-1097892Y-1031400D01*
X-1093345Y-1026853D01*
X-1088801Y-1017762D01*
X-558800Y-1142090D02*
G01*
X-558800Y-1237546D01*
X-558800Y-1142090D02*
G01*
X-617890Y-1142090D01*
X-558800Y-1187546D02*
G01*
X-595162Y-1187546D01*
X-702437Y-1173909D02*
G01*
X-702437Y-1237546D01*
X-702437Y-1187546D02*
G01*
X-693346Y-1178453D01*
X-684255Y-1173909D01*
X-670618Y-1173909D01*
X-661527Y-1178453D01*
X-652437Y-1187546D01*
X-647890Y-1201181D01*
X-647890Y-1210271D01*
X-652437Y-1223909D01*
X-661527Y-1232999D01*
X-670618Y-1237546D01*
X-684255Y-1237546D01*
X-693346Y-1232999D01*
X-702437Y-1223909D01*
X-732436Y-1173909D02*
G01*
X-732436Y-1219362D01*
X-736980Y-1232999D01*
X-746071Y-1237546D01*
X-759708Y-1237546D01*
X-768799Y-1232999D01*
X-782436Y-1219362D01*
X-782436Y-1173909D02*
G01*
X-782436Y-1237546D01*
X-812436Y-1142090D02*
G01*
X-812436Y-1237546D01*
X-856073Y-1142090D02*
G01*
X-856073Y-1219362D01*
X-860618Y-1232999D01*
X-869708Y-1237546D01*
X-878799Y-1237546D01*
X-842436Y-1173909D02*
G01*
X-874255Y-1173909D01*
X-558800Y-1375509D02*
G01*
X-558800Y-1439146D01*
X-558800Y-1402781D02*
G01*
X-563346Y-1389146D01*
X-572437Y-1380055D01*
X-581527Y-1375509D01*
X-595162Y-1375509D01*
X-625162Y-1402781D02*
G01*
X-679709Y-1402781D01*
X-679709Y-1393690D01*
X-675162Y-1384599D01*
X-670618Y-1380055D01*
X-661527Y-1375509D01*
X-647890Y-1375509D01*
X-638799Y-1380055D01*
X-629709Y-1389146D01*
X-625162Y-1402781D01*
X-625162Y-1411871D01*
X-629709Y-1425508D01*
X-638799Y-1434599D01*
X-647890Y-1439146D01*
X-661527Y-1439146D01*
X-670618Y-1434599D01*
X-679709Y-1425508D01*
X-764255Y-1375509D02*
G01*
X-764255Y-1439146D01*
X-764255Y-1389146D02*
G01*
X-755164Y-1380055D01*
X-746071Y-1375509D01*
X-732436Y-1375509D01*
X-723346Y-1380055D01*
X-714255Y-1389146D01*
X-709709Y-1402781D01*
X-709709Y-1411871D01*
X-714255Y-1425508D01*
X-723346Y-1434599D01*
X-732436Y-1439146D01*
X-746071Y-1439146D01*
X-755164Y-1434599D01*
X-764255Y-1425508D01*
X-848799Y-1343690D02*
G01*
X-848799Y-1439146D01*
X-848799Y-1389146D02*
G01*
X-839708Y-1380055D01*
X-830618Y-1375509D01*
X-816980Y-1375509D01*
X-807890Y-1380055D01*
X-798799Y-1389146D01*
X-794255Y-1402781D01*
X-794255Y-1411871D01*
X-798799Y-1425508D01*
X-807890Y-1434599D01*
X-816980Y-1439146D01*
X-830618Y-1439146D01*
X-839708Y-1434599D01*
X-848799Y-1425508D01*
X-1039708Y-1384599D02*
G01*
X-1039708Y-1380055D01*
X-1035164Y-1375509D01*
X-1030617Y-1375509D01*
X-1026073Y-1380055D01*
X-1021527Y-1389146D01*
X-1012436Y-1411871D01*
X-1003345Y-1425508D01*
X-994255Y-1434599D01*
X-985164Y-1439146D01*
X-966983Y-1439146D01*
X-957889Y-1434599D01*
X-953345Y-1430055D01*
X-948799Y-1420964D01*
X-948799Y-1411871D01*
X-953345Y-1402781D01*
X-957889Y-1398236D01*
X-989708Y-1380055D01*
X-994255Y-1375509D01*
X-998799Y-1366418D01*
X-998799Y-1357327D01*
X-994255Y-1348237D01*
X-985164Y-1343690D01*
X-976073Y-1348237D01*
X-971527Y-1357327D01*
X-971527Y-1366418D01*
X-976073Y-1380055D01*
X-985164Y-1393690D01*
X-1007892Y-1425508D01*
X-1016982Y-1434599D01*
X-1026073Y-1439146D01*
X-1035164Y-1439146D01*
X-1039708Y-1434599D01*
X-1039708Y-1430055D01*
X-1139708Y-1375509D02*
G01*
X-1139708Y-1439146D01*
X-1139708Y-1402781D02*
G01*
X-1144254Y-1389146D01*
X-1153345Y-1380055D01*
X-1162436Y-1375509D01*
X-1176073Y-1375509D01*
X-1206073Y-1402781D02*
G01*
X-1260619Y-1402781D01*
X-1260619Y-1393690D01*
X-1256073Y-1384599D01*
X-1251526Y-1380055D01*
X-1242435Y-1375509D01*
X-1228801Y-1375509D01*
X-1219710Y-1380055D01*
X-1210617Y-1389146D01*
X-1206073Y-1402781D01*
X-1206073Y-1411871D01*
X-1210617Y-1425508D01*
X-1219710Y-1434599D01*
X-1228801Y-1439146D01*
X-1242435Y-1439146D01*
X-1251526Y-1434599D01*
X-1260619Y-1425508D01*
X-1340619Y-1389146D02*
G01*
X-1336073Y-1380055D01*
X-1322435Y-1375509D01*
X-1308801Y-1375509D01*
X-1295163Y-1380055D01*
X-1290619Y-1389146D01*
X-1295163Y-1398236D01*
X-1304254Y-1402781D01*
X-1326982Y-1407327D01*
X-1336073Y-1411871D01*
X-1340619Y-1420964D01*
X-1340619Y-1425508D01*
X-1336073Y-1434599D01*
X-1322435Y-1439146D01*
X-1308801Y-1439146D01*
X-1295163Y-1434599D01*
X-1290619Y-1425508D01*
X-1370619Y-1402781D02*
G01*
X-1425163Y-1402781D01*
X-1425163Y-1393690D01*
X-1420619Y-1384599D01*
X-1416072Y-1380055D01*
X-1406982Y-1375509D01*
X-1393344Y-1375509D01*
X-1384254Y-1380055D01*
X-1375163Y-1389146D01*
X-1370619Y-1402781D01*
X-1370619Y-1411871D01*
X-1375163Y-1425508D01*
X-1384254Y-1434599D01*
X-1393344Y-1439146D01*
X-1406982Y-1439146D01*
X-1416072Y-1434599D01*
X-1425163Y-1425508D01*
X-1468800Y-1343690D02*
G01*
X-1468800Y-1420964D01*
X-1473344Y-1434599D01*
X-1482437Y-1439146D01*
X-1491528Y-1439146D01*
X-1455163Y-1375509D02*
G01*
X-1486982Y-1375509D01*
X116027Y-1397701D02*
G01*
X152392Y-1493156D01*
X116027Y-1397701D02*
G01*
X79664Y-1493156D01*
X138755Y-1461338D02*
G01*
X93301Y-1461338D01*
X40573Y-1397701D02*
G01*
X-9425Y-1397701D01*
X17846Y-1434063D01*
X4208Y-1434063D01*
X-4881Y-1438610D01*
X-9425Y-1443154D01*
X-13972Y-1456791D01*
X-13972Y-1465882D01*
X-9425Y-1479519D01*
X-335Y-1488610D01*
X13301Y-1493156D01*
X26936Y-1493156D01*
X40573Y-1488610D01*
X45118Y-1484063D01*
X49664Y-1474972D01*
X-214182Y-1372301D02*
G01*
X-177820Y-1467756D01*
X-214182Y-1372301D02*
G01*
X-250548Y-1467756D01*
X-191457Y-1435938D02*
G01*
X-236910Y-1435938D01*
X-280548Y-1390482D02*
G01*
X-289638Y-1385938D01*
X-303275Y-1372301D01*
X-303275Y-1467756D01*
X210309Y-990600D02*
G01*
X273946Y-990600D01*
X228490Y-990600D02*
G01*
X214853Y-1004237D01*
X210309Y-1013327D01*
X210309Y-1026962D01*
X214853Y-1036055D01*
X228490Y-1040599D01*
X273946Y-1040599D01*
X178490Y-1070599D02*
G01*
X273946Y-1070599D01*
X178490Y-1070599D02*
G01*
X178490Y-1129690D01*
X223944Y-1070599D02*
G01*
X223944Y-1106962D01*
X210309Y-1214236D02*
G01*
X273946Y-1214236D01*
X223944Y-1214236D02*
G01*
X214853Y-1205146D01*
X210309Y-1196055D01*
X210309Y-1182418D01*
X214853Y-1173327D01*
X223944Y-1164236D01*
X237581Y-1159690D01*
X246672Y-1159690D01*
X260309Y-1164236D01*
X269400Y-1173327D01*
X273946Y-1182418D01*
X273946Y-1196055D01*
X269400Y-1205146D01*
X260309Y-1214236D01*
X210309Y-1244236D02*
G01*
X255762Y-1244236D01*
X269400Y-1248780D01*
X273946Y-1257874D01*
X273946Y-1271508D01*
X269400Y-1280599D01*
X255762Y-1294236D01*
X210309Y-1294236D02*
G01*
X273946Y-1294236D01*
X178490Y-1324236D02*
G01*
X273946Y-1324236D01*
X178490Y-1367873D02*
G01*
X255762Y-1367873D01*
X269400Y-1372417D01*
X273946Y-1381508D01*
X273946Y-1390599D01*
X210309Y-1354236D02*
G01*
X210309Y-1386055D01*
X-450090Y-965200D02*
G01*
X-386453Y-965200D01*
X-431909Y-965200D02*
G01*
X-445546Y-978837D01*
X-450090Y-987927D01*
X-450090Y-1001562D01*
X-445546Y-1010655D01*
X-431909Y-1015199D01*
X-386453Y-1015199D01*
X-481909Y-1045199D02*
G01*
X-386453Y-1045199D01*
X-481909Y-1045199D02*
G01*
X-481909Y-1086109D01*
X-477362Y-1099746D01*
X-472818Y-1104290D01*
X-463727Y-1108837D01*
X-454637Y-1108837D01*
X-445546Y-1104290D01*
X-440999Y-1099746D01*
X-436455Y-1086109D01*
X-436455Y-1045199D01*
X-436455Y-1077018D02*
G01*
X-386453Y-1108837D01*
X-422818Y-1138836D02*
G01*
X-422818Y-1193380D01*
X-431909Y-1193380D01*
X-440999Y-1188836D01*
X-445546Y-1184290D01*
X-450090Y-1175199D01*
X-450090Y-1161564D01*
X-445546Y-1152471D01*
X-436455Y-1143381D01*
X-422818Y-1138836D01*
X-413727Y-1138836D01*
X-400090Y-1143381D01*
X-390999Y-1152471D01*
X-386453Y-1161564D01*
X-386453Y-1175199D01*
X-390999Y-1184290D01*
X-400090Y-1193380D01*
X-436455Y-1273380D02*
G01*
X-445546Y-1268836D01*
X-450090Y-1255199D01*
X-450090Y-1241564D01*
X-445546Y-1227927D01*
X-436455Y-1223380D01*
X-427362Y-1227927D01*
X-422818Y-1237018D01*
X-418271Y-1259746D01*
X-413727Y-1268836D01*
X-404637Y-1273380D01*
X-400090Y-1273380D01*
X-390999Y-1268836D01*
X-386453Y-1255199D01*
X-386453Y-1241564D01*
X-390999Y-1227927D01*
X-400090Y-1223380D01*
X-422818Y-1303383D02*
G01*
X-422818Y-1357927D01*
X-431909Y-1357927D01*
X-440999Y-1353383D01*
X-445546Y-1348836D01*
X-450090Y-1339745D01*
X-450090Y-1326108D01*
X-445546Y-1317017D01*
X-436455Y-1307927D01*
X-422818Y-1303383D01*
X-413727Y-1303383D01*
X-400090Y-1307927D01*
X-390999Y-1317017D01*
X-386453Y-1326108D01*
X-386453Y-1339745D01*
X-390999Y-1348836D01*
X-400090Y-1357927D01*
X-481909Y-1401564D02*
G01*
X-404637Y-1401564D01*
X-390999Y-1406108D01*
X-386453Y-1415199D01*
X-386453Y-1424292D01*
X-450090Y-1387927D02*
G01*
X-450090Y-1419745D01*
X1032141Y-119247D02*
G01*
X1113645Y-125155D01*
X1032141Y-119247D02*
G01*
X1089055Y-177886D01*
X1085966Y-124284D02*
G01*
X1070599Y-157241D01*
X358637Y-169082D02*
G01*
X427845Y-201355D01*
X358637Y-169082D02*
G01*
X344804Y-198744D01*
X343489Y-210167D01*
X345249Y-215000D01*
X350304Y-221368D01*
X356892Y-224442D01*
X365023Y-224221D01*
X369854Y-222463D01*
X377761Y-214111D01*
X391591Y-184452D02*
G01*
X377761Y-214111D01*
X376448Y-225536D01*
X378205Y-230367D01*
X383260Y-236738D01*
X393146Y-241348D01*
X401276Y-241124D01*
X406107Y-239367D01*
X414014Y-231018D01*
X427845Y-201355D01*
X765035Y-753282D02*
G01*
X834245Y-785555D01*
X16809Y34165D02*
G01*
X13289Y43832D01*
X14604Y55255D01*
X20754Y68437D01*
X28658Y76789D01*
X38323Y80307D01*
X44914Y77233D01*
X49969Y70863D01*
X51729Y66032D01*
X51948Y57901D01*
X49321Y35057D01*
X49542Y26926D01*
X51302Y22095D01*
X56354Y15725D01*
X66243Y11115D01*
X75907Y14632D01*
X83814Y22981D01*
X89961Y36167D01*
X91274Y47589D01*
X87756Y57254D01*
X-3220Y17025D02*
G01*
X65986Y-15247D01*
X-3220Y17025D02*
G01*
X-13977Y-6042D01*
X-15293Y-17467D01*
X-11775Y-27132D01*
X-6720Y-33502D01*
X1628Y-41409D01*
X18107Y-49093D01*
X29530Y-50406D01*
X37658Y-50182D01*
X47322Y-46664D01*
X55229Y-38315D01*
X65986Y-15247D01*
X-47172Y-77231D02*
G01*
X34330Y-83136D01*
X-47172Y-77231D02*
G01*
X9740Y-135867D01*
X6649Y-82265D02*
G01*
X-8717Y-115224D01*
X169209Y-575434D02*
G01*
X165689Y-565767D01*
X167004Y-554344D01*
X173154Y-541162D01*
X181058Y-532810D01*
X190723Y-529292D01*
X197314Y-532366D01*
X202369Y-538736D01*
X204129Y-543567D01*
X204348Y-551698D01*
X201721Y-574542D01*
X201942Y-582673D01*
X203702Y-587504D01*
X208754Y-593874D01*
X218643Y-598484D01*
X228307Y-594967D01*
X236214Y-586618D01*
X242361Y-573432D01*
X243674Y-562010D01*
X240156Y-552345D01*
X142605Y-649691D02*
G01*
X137551Y-643323D01*
X134033Y-633656D01*
X133812Y-625530D01*
X139959Y-612348D01*
X146326Y-607291D01*
X155994Y-603775D01*
X164119Y-603552D01*
X175544Y-604867D01*
X192021Y-612554D01*
X200372Y-620458D01*
X205427Y-626826D01*
X208942Y-636490D01*
X209166Y-644621D01*
X203019Y-657801D01*
X196649Y-662856D01*
X186984Y-666376D01*
X178856Y-666597D01*
X115984Y-663760D02*
G01*
X185191Y-696033D01*
X185191Y-696033D02*
G01*
X166750Y-735581D01*
X-514845Y-2581518D02*
G01*
X-514845Y-2294018D01*
X-474845Y-2254018D01*
X-324845Y-2924017D02*
G01*
X-272343Y-2871518D01*
X-272343Y-2591518D01*
X560082Y-2581518D02*
G01*
X560082Y-2294018D01*
X600082Y-2254018D01*
X750082Y-2924017D02*
G01*
X802584Y-2871518D01*
X802584Y-2591518D01*
X85102Y-2581518D02*
G01*
X85102Y-2294018D01*
X125102Y-2254018D01*
X275102Y-2924017D02*
G01*
X327604Y-2871518D01*
X327604Y-2591518D01*
X1402499Y-1648983D02*
G01*
X1114999Y-1648983D01*
X1074999Y-1608983D01*
X1744997Y-1458983D02*
G01*
X1692498Y-1406481D01*
X1412499Y-1406481D01*
X-479996Y618627D02*
G01*
X-479996Y331127D01*
X-519996Y291127D01*
X-669996Y961125D02*
G01*
X-722497Y908626D01*
X-722497Y628627D01*
X-954976Y618627D02*
G01*
X-954976Y331127D01*
X-994976Y291127D01*
X-1144976Y961125D02*
G01*
X-1197477Y908626D01*
X-1197477Y628627D01*
X20129Y618627D02*
G01*
X20129Y331127D01*
X-19870Y291127D01*
X-169870Y961125D02*
G01*
X-222371Y908626D01*
X-222371Y628627D01*
X1522498Y-1163888D02*
G01*
X1522498Y-1193888D01*
X1489999Y-1226388D01*
X1309999Y-1226388D01*
X1282499Y-1198890D01*
X1282499Y-1171389D01*
X1070000Y-826389D02*
G01*
X1114999Y-781387D01*
X1137498Y-781387D01*
X1369999Y-781387D01*
X1427497Y-781387D02*
G01*
X1689999Y-781387D01*
X1727499Y-818888D01*
X-1539892Y738626D02*
G01*
X-1509892Y738626D01*
X-1477393Y706127D01*
X-1477393Y526127D01*
X-1504891Y498627D01*
X-1532392Y498627D01*
X-1877392Y286128D02*
G01*
X-1922393Y331127D01*
X-1922393Y353626D01*
X-1922393Y586127D01*
X-1922393Y643625D02*
G01*
X-1922393Y906127D01*
X-1884893Y943627D01*
X1516999Y-2340300D02*
G01*
X1516999Y-2370300D01*
X1484500Y-2402799D01*
X1304500Y-2402799D01*
X1277000Y-2375301D01*
X1277000Y-2347800D01*
X1064501Y-2002800D02*
G01*
X1109499Y-1957798D01*
X1131999Y-1957798D01*
X1364500Y-1957798D01*
X1421998Y-1957798D02*
G01*
X1684500Y-1957798D01*
X1722000Y-1995299D01*
X477911Y-380931D02*
G01*
X450723Y-368254D01*
X435002Y-325064D01*
X511073Y-161930D01*
X547618Y-148628D01*
X572541Y-160248D01*
X975024Y-113464D02*
G01*
X996792Y-173263D01*
X987282Y-193654D01*
X889025Y-404373D01*
X864725Y-456483D02*
G01*
X753785Y-694390D01*
X703950Y-712530D01*
X208092Y-379857D02*
G01*
X86588Y-640420D01*
X33431Y-659770D01*
X180639Y10848D02*
G01*
X110868Y-14544D01*
X-7462Y-268310D01*
M02*
