G04 Layer: TopLayer*
G04 EasyEDA v6.5.42, 2024-06-23 11:48:01*
G04 8461acd9e52441dfa5b1607b254f294a,2865ae9118a24060a17af6d01c9bcc73,10*
G04 Gerber Generator version 0.2*
G04 Scale: 100 percent, Rotated: No, Reflected: No *
G04 Dimensions in millimeters *
G04 leading zeros omitted , absolute positions ,4 integer and 5 decimal *
%FSLAX45Y45*%
%MOMM*%

%AMMACRO1*21,1,$1,$2,0,0,$3*%
%ADD10C,0.3000*%
%ADD11C,1.0000*%
%ADD12C,0.5000*%
%ADD13C,0.4000*%
%ADD14C,0.2540*%
%ADD15MACRO1,0.864X0.8065X90.0000*%
%ADD16R,0.8000X0.9000*%
%ADD17MACRO1,0.864X0.8065X0.0000*%
%ADD18R,0.8640X0.8065*%
%ADD19MACRO1,0.864X0.8065X-90.0000*%
%ADD20R,6.5000X6.0000*%
%ADD21R,2.8000X1.3000*%
%ADD22R,0.8999X1.0000*%
%ADD23R,1.2000X3.5000*%
%ADD24R,0.9000X0.8000*%
%ADD25O,1.950212X0.5684012*%
%ADD26O,1.7314926000000002X0.3430016*%
%ADD27MACRO1,2.75X6.2X0.0000*%
%ADD28R,1.0000X0.8999*%
%ADD29C,1.5748*%
%ADD30R,1.5748X1.5748*%
%ADD31R,1.8000X1.8000*%
%ADD32C,1.8000*%
%ADD33C,4.0000*%
%ADD34C,3.2000*%
%ADD35C,0.6000*%
%ADD36C,0.8000*%
%ADD37C,0.5000*%
%ADD38C,0.6096*%
%ADD39C,0.6200*%
%ADD40C,0.0114*%

%LPD*%
G36*
X-1054252Y-229514D02*
G01*
X-1058367Y-228396D01*
X-1061669Y-225653D01*
X-1063498Y-221792D01*
X-1063396Y-208381D01*
X-1064869Y-200609D01*
X-1067714Y-193192D01*
X-1071930Y-186436D01*
X-1077264Y-180594D01*
X-1083614Y-175768D01*
X-1090676Y-172262D01*
X-1098346Y-170078D01*
X-1106728Y-169316D01*
X-1136548Y-169316D01*
X-1140409Y-168503D01*
X-1143711Y-166319D01*
X-1145895Y-163017D01*
X-1146708Y-159156D01*
X-1146708Y124104D01*
X-1145844Y128168D01*
X-1143457Y131572D01*
X-1139901Y133705D01*
X-1136396Y134924D01*
X-1131468Y138023D01*
X-1127404Y142087D01*
X-1126236Y143967D01*
X-1123391Y146913D01*
X-1119632Y148539D01*
X-1115568Y148539D01*
X-1111808Y146913D01*
X-1109014Y143967D01*
X-1107846Y142087D01*
X-1103731Y138023D01*
X-1098854Y134924D01*
X-1095349Y133705D01*
X-1091793Y131572D01*
X-1089355Y128168D01*
X-1088542Y124104D01*
X-1088542Y57505D01*
X-1087678Y49072D01*
X-1085392Y41402D01*
X-1081582Y34340D01*
X-1076198Y27736D01*
X-1034491Y-13970D01*
X-1032306Y-17272D01*
X-1031544Y-21132D01*
X-1031544Y-207416D01*
X-1032306Y-211328D01*
X-1034491Y-214629D01*
X-1046480Y-226567D01*
X-1050036Y-228904D01*
G37*

%LPD*%
G36*
X-1404061Y-233273D02*
G01*
X-1408023Y-232206D01*
X-1410309Y-231089D01*
X-1416253Y-228904D01*
X-1423009Y-228092D01*
X-1441348Y-228092D01*
X-1445209Y-227279D01*
X-1448511Y-225094D01*
X-1450695Y-221792D01*
X-1451508Y-217932D01*
X-1451508Y124104D01*
X-1450644Y128168D01*
X-1448257Y131572D01*
X-1444701Y133705D01*
X-1441196Y134924D01*
X-1436268Y138023D01*
X-1432204Y142087D01*
X-1431036Y143967D01*
X-1428191Y146913D01*
X-1424432Y148539D01*
X-1420368Y148539D01*
X-1416608Y146913D01*
X-1413814Y143967D01*
X-1412646Y142087D01*
X-1408531Y138023D01*
X-1403654Y134924D01*
X-1400149Y133705D01*
X-1396593Y131572D01*
X-1394155Y128168D01*
X-1393342Y124104D01*
X-1393342Y-223113D01*
X-1394155Y-227126D01*
X-1396492Y-230530D01*
X-1399997Y-232664D01*
G37*

%LPD*%
G36*
X-2739745Y-736854D02*
G01*
X-2744165Y-735888D01*
X-2747670Y-733094D01*
X-2749651Y-729030D01*
X-2754528Y-708152D01*
X-2761183Y-688390D01*
X-2769616Y-669290D01*
X-2779776Y-651052D01*
X-2791561Y-633831D01*
X-2804871Y-617778D01*
X-2819603Y-603046D01*
X-2835656Y-589737D01*
X-2852877Y-577900D01*
X-2871114Y-567791D01*
X-2890215Y-559358D01*
X-2909976Y-552704D01*
X-2930296Y-547928D01*
X-2950972Y-545033D01*
X-2971800Y-544068D01*
X-2992678Y-545033D01*
X-3013303Y-547928D01*
X-3033623Y-552704D01*
X-3053435Y-559358D01*
X-3072485Y-567791D01*
X-3090722Y-577900D01*
X-3107944Y-589737D01*
X-3123996Y-603046D01*
X-3138728Y-617778D01*
X-3152089Y-633831D01*
X-3163874Y-651052D01*
X-3174034Y-669290D01*
X-3180943Y-684987D01*
X-3183229Y-688238D01*
X-3186531Y-690321D01*
X-3190392Y-691032D01*
X-3194253Y-690219D01*
X-3197504Y-688035D01*
X-3199638Y-684733D01*
X-3200400Y-680872D01*
X-3200400Y-359105D01*
X-3199638Y-355244D01*
X-3197504Y-351942D01*
X-3194253Y-349758D01*
X-3190392Y-348945D01*
X-3186531Y-349656D01*
X-3183229Y-351739D01*
X-3180943Y-354990D01*
X-3174034Y-370687D01*
X-3163874Y-388924D01*
X-3152089Y-406095D01*
X-3138728Y-422148D01*
X-3123996Y-436930D01*
X-3107944Y-450240D01*
X-3090722Y-462026D01*
X-3072485Y-472185D01*
X-3053435Y-480618D01*
X-3033623Y-487273D01*
X-3013303Y-492048D01*
X-2992678Y-494944D01*
X-2971800Y-495858D01*
X-2950972Y-494944D01*
X-2930296Y-492048D01*
X-2909976Y-487273D01*
X-2890215Y-480618D01*
X-2871114Y-472185D01*
X-2852877Y-462026D01*
X-2835656Y-450240D01*
X-2819603Y-436930D01*
X-2804871Y-422148D01*
X-2791561Y-406095D01*
X-2779776Y-388924D01*
X-2769616Y-370687D01*
X-2761183Y-351586D01*
X-2754680Y-332232D01*
X-2752547Y-328625D01*
X-2749143Y-326136D01*
X-2745028Y-325272D01*
X-2369362Y-325272D01*
X-2365349Y-326136D01*
X-2361946Y-328472D01*
X-2359812Y-331978D01*
X-2359253Y-336092D01*
X-2360320Y-340055D01*
X-2362860Y-343255D01*
X-2369616Y-348843D01*
X-2437790Y-417118D01*
X-2443175Y-424230D01*
X-2446070Y-429666D01*
X-2447594Y-434085D01*
X-2449728Y-437692D01*
X-2453081Y-440080D01*
X-2457196Y-440943D01*
X-2472791Y-440943D01*
X-2482646Y-441807D01*
X-2491790Y-444246D01*
X-2500376Y-448259D01*
X-2508097Y-453694D01*
X-2514803Y-460400D01*
X-2520238Y-468122D01*
X-2524252Y-476707D01*
X-2526690Y-485851D01*
X-2527503Y-495300D01*
X-2526690Y-504698D01*
X-2524252Y-513842D01*
X-2520238Y-522427D01*
X-2514803Y-530199D01*
X-2508097Y-536854D01*
X-2500376Y-542290D01*
X-2491790Y-546303D01*
X-2481834Y-548995D01*
X-2477922Y-550976D01*
X-2475230Y-554482D01*
X-2474264Y-558800D01*
X-2475230Y-563067D01*
X-2477922Y-566572D01*
X-2481834Y-568604D01*
X-2491790Y-571246D01*
X-2500376Y-575259D01*
X-2508097Y-580694D01*
X-2514803Y-587400D01*
X-2520238Y-595122D01*
X-2524252Y-603707D01*
X-2526690Y-612851D01*
X-2527503Y-622300D01*
X-2526690Y-631698D01*
X-2524252Y-640842D01*
X-2520238Y-649427D01*
X-2514803Y-657199D01*
X-2508097Y-663854D01*
X-2500376Y-669290D01*
X-2491790Y-673303D01*
X-2481834Y-675995D01*
X-2477922Y-677976D01*
X-2475230Y-681482D01*
X-2474264Y-685800D01*
X-2475230Y-690067D01*
X-2477922Y-693572D01*
X-2481834Y-695604D01*
X-2491790Y-698246D01*
X-2500376Y-702259D01*
X-2508097Y-707694D01*
X-2514803Y-714400D01*
X-2520238Y-722122D01*
X-2524353Y-731012D01*
X-2526588Y-734110D01*
X-2529840Y-736142D01*
X-2533548Y-736854D01*
G37*

%LPD*%
G36*
X-1644802Y-968349D02*
G01*
X-1648968Y-967892D01*
X-1652574Y-965758D01*
X-1655064Y-962355D01*
X-1655927Y-958240D01*
X-1655927Y-861821D01*
X-1657146Y-853084D01*
X-1659839Y-845058D01*
X-1663954Y-837641D01*
X-1669694Y-830783D01*
X-1737309Y-763168D01*
X-1739646Y-759460D01*
X-1740255Y-755091D01*
X-1739747Y-749300D01*
X-1740560Y-739851D01*
X-1742998Y-730707D01*
X-1747012Y-722122D01*
X-1752447Y-714400D01*
X-1759102Y-707694D01*
X-1766874Y-702259D01*
X-1775460Y-698246D01*
X-1785416Y-695604D01*
X-1789328Y-693572D01*
X-1791970Y-690067D01*
X-1792935Y-685800D01*
X-1791970Y-681482D01*
X-1789328Y-677976D01*
X-1785416Y-675995D01*
X-1775460Y-673303D01*
X-1766874Y-669290D01*
X-1764334Y-667562D01*
X-1761134Y-666038D01*
X-1757629Y-665734D01*
X-1754225Y-666648D01*
X-1751330Y-668680D01*
X-1659839Y-760171D01*
X-1658010Y-762711D01*
X-1656994Y-765708D01*
X-1655216Y-776325D01*
X-1652016Y-785418D01*
X-1647342Y-793800D01*
X-1641246Y-801319D01*
X-1634032Y-807720D01*
X-1625803Y-812749D01*
X-1616862Y-816356D01*
X-1607413Y-818388D01*
X-1597761Y-818794D01*
X-1588211Y-817575D01*
X-1579016Y-814730D01*
X-1570380Y-810412D01*
X-1562608Y-804672D01*
X-1555953Y-797712D01*
X-1550568Y-789686D01*
X-1546555Y-780897D01*
X-1544167Y-771601D01*
X-1543304Y-762000D01*
X-1544167Y-752348D01*
X-1546555Y-743051D01*
X-1550568Y-734263D01*
X-1555953Y-726236D01*
X-1562608Y-719277D01*
X-1570380Y-713536D01*
X-1579016Y-709218D01*
X-1588211Y-706374D01*
X-1595932Y-705408D01*
X-1599133Y-704443D01*
X-1601825Y-702513D01*
X-1710588Y-593750D01*
X-1717192Y-588314D01*
X-1724253Y-584555D01*
X-1731924Y-582218D01*
X-1740357Y-581406D01*
X-1754936Y-581406D01*
X-1757984Y-580898D01*
X-1760728Y-579577D01*
X-1766874Y-575259D01*
X-1775460Y-571246D01*
X-1785416Y-568604D01*
X-1789328Y-566572D01*
X-1791970Y-563067D01*
X-1792935Y-558800D01*
X-1791970Y-554482D01*
X-1789328Y-550976D01*
X-1785416Y-548995D01*
X-1775460Y-546303D01*
X-1766874Y-542290D01*
X-1759102Y-536854D01*
X-1752447Y-530199D01*
X-1744472Y-518718D01*
X-1741170Y-516686D01*
X-1737360Y-515975D01*
X-1733550Y-516788D01*
X-1730349Y-518972D01*
X-1548079Y-701192D01*
X-1541018Y-706475D01*
X-1533448Y-710234D01*
X-1525320Y-712571D01*
X-1516430Y-713384D01*
X-1463192Y-713384D01*
X-1458823Y-714400D01*
X-1455318Y-717143D01*
X-1453337Y-721207D01*
X-1453286Y-725678D01*
X-1455166Y-729742D01*
X-1461414Y-737870D01*
X-1465173Y-745388D01*
X-1467459Y-753567D01*
X-1468323Y-762457D01*
X-1468323Y-789533D01*
X-1469085Y-793445D01*
X-1471269Y-796747D01*
X-1633880Y-959408D01*
X-1637639Y-964387D01*
X-1640789Y-967130D01*
G37*

%LPD*%
G36*
X-1517751Y-1569770D02*
G01*
X-1521663Y-1569008D01*
X-1524965Y-1566773D01*
X-1581708Y-1510030D01*
X-1583893Y-1506728D01*
X-1584706Y-1502867D01*
X-1584706Y-1483156D01*
X-1585823Y-1474876D01*
X-1588414Y-1467307D01*
X-1592427Y-1460398D01*
X-1598015Y-1453997D01*
X-1622755Y-1430883D01*
X-1628241Y-1426565D01*
X-1635353Y-1422704D01*
X-1643024Y-1420418D01*
X-1651507Y-1419555D01*
X-1729536Y-1419555D01*
X-1732635Y-1419098D01*
X-1735378Y-1417726D01*
X-1741474Y-1413459D01*
X-1750060Y-1409446D01*
X-1760016Y-1406804D01*
X-1763928Y-1404772D01*
X-1766570Y-1401267D01*
X-1767535Y-1397000D01*
X-1766570Y-1392682D01*
X-1763928Y-1389176D01*
X-1760016Y-1387195D01*
X-1750060Y-1384503D01*
X-1741474Y-1380490D01*
X-1735378Y-1376222D01*
X-1732584Y-1374851D01*
X-1729536Y-1374394D01*
X-1629714Y-1374394D01*
X-1625346Y-1375359D01*
X-1621790Y-1378153D01*
X-1615846Y-1385519D01*
X-1608632Y-1391920D01*
X-1600403Y-1396949D01*
X-1591462Y-1400556D01*
X-1582013Y-1402588D01*
X-1572361Y-1402994D01*
X-1562811Y-1401775D01*
X-1553616Y-1398930D01*
X-1544980Y-1394612D01*
X-1537512Y-1389075D01*
X-1534668Y-1387602D01*
X-1531467Y-1387094D01*
X-1517091Y-1387094D01*
X-1513484Y-1387754D01*
X-1510334Y-1389684D01*
X-1508048Y-1392580D01*
X-1506880Y-1397050D01*
X-1505000Y-1402537D01*
X-1501902Y-1407414D01*
X-1497787Y-1411528D01*
X-1492910Y-1414576D01*
X-1489303Y-1415846D01*
X-1485747Y-1417980D01*
X-1483360Y-1421384D01*
X-1482496Y-1425448D01*
X-1482496Y-1444955D01*
X-1483360Y-1449019D01*
X-1485747Y-1452422D01*
X-1489303Y-1454556D01*
X-1492910Y-1455826D01*
X-1497787Y-1458874D01*
X-1501902Y-1462989D01*
X-1505000Y-1467866D01*
X-1506880Y-1473352D01*
X-1507591Y-1479651D01*
X-1507591Y-1559610D01*
X-1508353Y-1563471D01*
X-1510588Y-1566773D01*
X-1513890Y-1569008D01*
G37*

%LPD*%
G36*
X-2555138Y-1575054D02*
G01*
X-2559050Y-1574292D01*
X-2562352Y-1572107D01*
X-2762910Y-1371549D01*
X-2765094Y-1368145D01*
X-2765856Y-1364183D01*
X-2764993Y-1360271D01*
X-2761183Y-1351584D01*
X-2754528Y-1331823D01*
X-2749753Y-1311503D01*
X-2746857Y-1290828D01*
X-2745892Y-1270000D01*
X-2746857Y-1249121D01*
X-2749753Y-1228496D01*
X-2754528Y-1208176D01*
X-2761183Y-1188364D01*
X-2769616Y-1169314D01*
X-2779776Y-1151077D01*
X-2791561Y-1133856D01*
X-2804871Y-1117803D01*
X-2819603Y-1103020D01*
X-2835656Y-1089710D01*
X-2852877Y-1077925D01*
X-2871114Y-1067765D01*
X-2890215Y-1059332D01*
X-2909976Y-1052728D01*
X-2930296Y-1047953D01*
X-2950972Y-1045057D01*
X-2971800Y-1044092D01*
X-2992678Y-1045057D01*
X-3013303Y-1047953D01*
X-3033623Y-1052728D01*
X-3053435Y-1059332D01*
X-3072485Y-1067765D01*
X-3090722Y-1077925D01*
X-3107944Y-1089710D01*
X-3123996Y-1103020D01*
X-3138728Y-1117803D01*
X-3152089Y-1133856D01*
X-3163874Y-1151077D01*
X-3174034Y-1169314D01*
X-3182467Y-1188364D01*
X-3184347Y-1194054D01*
X-3186430Y-1197610D01*
X-3189681Y-1200048D01*
X-3193643Y-1201013D01*
X-3197656Y-1200302D01*
X-3201111Y-1198118D01*
X-3203397Y-1194765D01*
X-3204159Y-1190752D01*
X-3200857Y-857961D01*
X-3200044Y-854151D01*
X-3197860Y-850900D01*
X-3194608Y-848715D01*
X-3190798Y-847902D01*
X-3186938Y-848614D01*
X-3183636Y-850747D01*
X-3181400Y-853948D01*
X-3174034Y-870661D01*
X-3163874Y-888898D01*
X-3152089Y-906119D01*
X-3138728Y-922172D01*
X-3123996Y-936904D01*
X-3107944Y-950264D01*
X-3090722Y-962050D01*
X-3072485Y-972210D01*
X-3053435Y-980643D01*
X-3033623Y-987247D01*
X-3013303Y-992022D01*
X-2992678Y-994918D01*
X-2971800Y-995883D01*
X-2950972Y-994918D01*
X-2930296Y-992022D01*
X-2909976Y-987247D01*
X-2890215Y-980643D01*
X-2871114Y-972210D01*
X-2852877Y-962050D01*
X-2835656Y-950264D01*
X-2819603Y-936904D01*
X-2804871Y-922172D01*
X-2791561Y-906119D01*
X-2782620Y-893114D01*
X-2780385Y-890727D01*
X-2777490Y-889203D01*
X-2774238Y-888695D01*
X-2533599Y-888695D01*
X-2529840Y-889406D01*
X-2526588Y-891438D01*
X-2524353Y-894537D01*
X-2520238Y-903427D01*
X-2514803Y-911199D01*
X-2508097Y-917854D01*
X-2500376Y-923290D01*
X-2491790Y-927303D01*
X-2482646Y-929741D01*
X-2472791Y-930605D01*
X-2460802Y-930605D01*
X-2457094Y-931316D01*
X-2453894Y-933348D01*
X-2451404Y-935634D01*
X-2442057Y-942035D01*
X-2431846Y-946912D01*
X-2420975Y-950264D01*
X-2409799Y-951992D01*
X-2398420Y-951992D01*
X-2387244Y-950264D01*
X-2376373Y-946912D01*
X-2366162Y-942035D01*
X-2356815Y-935634D01*
X-2354326Y-933348D01*
X-2351125Y-931316D01*
X-2347417Y-930605D01*
X-2335479Y-930605D01*
X-2325624Y-929741D01*
X-2316480Y-927303D01*
X-2307894Y-923290D01*
X-2300122Y-917854D01*
X-2293467Y-911199D01*
X-2288032Y-903427D01*
X-2284018Y-894842D01*
X-2281580Y-885698D01*
X-2280767Y-876300D01*
X-2281580Y-866851D01*
X-2284018Y-857707D01*
X-2288032Y-849121D01*
X-2293467Y-841400D01*
X-2300122Y-834694D01*
X-2307894Y-829259D01*
X-2316480Y-825246D01*
X-2320696Y-824128D01*
X-2324557Y-822096D01*
X-2327249Y-818641D01*
X-2328214Y-814324D01*
X-2328214Y-811225D01*
X-2327249Y-806958D01*
X-2324557Y-803452D01*
X-2320696Y-801420D01*
X-2316480Y-800303D01*
X-2307894Y-796290D01*
X-2300122Y-790854D01*
X-2293467Y-784199D01*
X-2288032Y-776427D01*
X-2284018Y-767842D01*
X-2281580Y-758698D01*
X-2280767Y-749300D01*
X-2281580Y-739851D01*
X-2284018Y-730707D01*
X-2288032Y-722122D01*
X-2293467Y-714400D01*
X-2300122Y-707694D01*
X-2307894Y-702259D01*
X-2316480Y-698246D01*
X-2326436Y-695604D01*
X-2330348Y-693572D01*
X-2332990Y-690067D01*
X-2333955Y-685800D01*
X-2332990Y-681482D01*
X-2330348Y-677976D01*
X-2326436Y-675995D01*
X-2316480Y-673303D01*
X-2307894Y-669290D01*
X-2300122Y-663854D01*
X-2293467Y-657199D01*
X-2288032Y-649427D01*
X-2284018Y-640842D01*
X-2281580Y-631698D01*
X-2280767Y-622300D01*
X-2281580Y-612851D01*
X-2284018Y-603707D01*
X-2288032Y-595122D01*
X-2293467Y-587400D01*
X-2300122Y-580694D01*
X-2307894Y-575259D01*
X-2316480Y-571246D01*
X-2326436Y-568604D01*
X-2330348Y-566572D01*
X-2332990Y-563067D01*
X-2333955Y-558800D01*
X-2332990Y-554482D01*
X-2330348Y-550976D01*
X-2326436Y-548995D01*
X-2316480Y-546303D01*
X-2307894Y-542290D01*
X-2300122Y-536854D01*
X-2293467Y-530199D01*
X-2288032Y-522427D01*
X-2284018Y-513842D01*
X-2281580Y-504698D01*
X-2280767Y-495300D01*
X-2281580Y-485851D01*
X-2284018Y-476707D01*
X-2288032Y-468122D01*
X-2293467Y-460400D01*
X-2300122Y-453694D01*
X-2307894Y-448259D01*
X-2312212Y-446227D01*
X-2315362Y-443941D01*
X-2317445Y-440639D01*
X-2318054Y-436778D01*
X-2317242Y-432968D01*
X-2315006Y-429768D01*
X-2311755Y-427634D01*
X-2307945Y-426872D01*
X-1959305Y-426872D01*
X-1955495Y-427634D01*
X-1952193Y-429768D01*
X-1950008Y-432968D01*
X-1949145Y-436778D01*
X-1949805Y-440639D01*
X-1951837Y-443941D01*
X-1954987Y-446227D01*
X-1959356Y-448259D01*
X-1965452Y-452577D01*
X-1968246Y-453898D01*
X-1971293Y-454406D01*
X-2044242Y-454406D01*
X-2052675Y-455218D01*
X-2060346Y-457555D01*
X-2067407Y-461314D01*
X-2074011Y-466750D01*
X-2132634Y-525373D01*
X-2135530Y-527354D01*
X-2138934Y-528269D01*
X-2143404Y-528675D01*
X-2152853Y-531215D01*
X-2161794Y-535381D01*
X-2169820Y-541020D01*
X-2176780Y-547928D01*
X-2182418Y-556006D01*
X-2186533Y-564896D01*
X-2189073Y-574395D01*
X-2189937Y-584200D01*
X-2189073Y-593953D01*
X-2186533Y-603453D01*
X-2182418Y-612343D01*
X-2176780Y-620420D01*
X-2169820Y-627329D01*
X-2161794Y-632968D01*
X-2152853Y-637133D01*
X-2143404Y-639673D01*
X-2133600Y-640537D01*
X-2123795Y-639673D01*
X-2114346Y-637133D01*
X-2105406Y-632968D01*
X-2097379Y-627329D01*
X-2090420Y-620420D01*
X-2084781Y-612343D01*
X-2080666Y-603453D01*
X-2078126Y-593953D01*
X-2077720Y-589483D01*
X-2076805Y-586079D01*
X-2074773Y-583184D01*
X-2030780Y-539191D01*
X-2027478Y-537006D01*
X-2023567Y-536194D01*
X-1971243Y-536194D01*
X-1968195Y-536702D01*
X-1965401Y-538022D01*
X-1959356Y-542290D01*
X-1950770Y-546303D01*
X-1940814Y-548995D01*
X-1936902Y-550976D01*
X-1934210Y-554482D01*
X-1933244Y-558800D01*
X-1934210Y-563067D01*
X-1936902Y-566572D01*
X-1940814Y-568604D01*
X-1950770Y-571246D01*
X-1959356Y-575259D01*
X-1967077Y-580694D01*
X-1973783Y-587400D01*
X-1979218Y-595122D01*
X-1983232Y-603707D01*
X-1985670Y-612851D01*
X-1986483Y-622300D01*
X-1985670Y-631698D01*
X-1983232Y-640842D01*
X-1979218Y-649427D01*
X-1973783Y-657199D01*
X-1967077Y-663854D01*
X-1959356Y-669290D01*
X-1950770Y-673303D01*
X-1940814Y-675995D01*
X-1936902Y-677976D01*
X-1934210Y-681482D01*
X-1933244Y-685800D01*
X-1934210Y-690067D01*
X-1936902Y-693572D01*
X-1940814Y-695604D01*
X-1950770Y-698246D01*
X-1959356Y-702259D01*
X-1967077Y-707694D01*
X-1973783Y-714400D01*
X-1979218Y-722122D01*
X-1983232Y-730707D01*
X-1985670Y-739851D01*
X-1986483Y-749300D01*
X-1985670Y-758698D01*
X-1983232Y-767842D01*
X-1979218Y-776427D01*
X-1973783Y-784199D01*
X-1967077Y-790854D01*
X-1959356Y-796290D01*
X-1950770Y-800303D01*
X-1941626Y-802741D01*
X-1931771Y-803605D01*
X-1830933Y-803605D01*
X-1827022Y-804367D01*
X-1823720Y-806602D01*
X-1750720Y-879602D01*
X-1748485Y-882903D01*
X-1747723Y-886815D01*
X-1747723Y-941984D01*
X-1748485Y-945845D01*
X-1750720Y-949147D01*
X-1791004Y-989482D01*
X-1793849Y-992733D01*
X-1796796Y-995121D01*
X-1800402Y-996238D01*
X-1804670Y-996696D01*
X-1810105Y-998626D01*
X-1815033Y-1001674D01*
X-1819097Y-1005789D01*
X-1822196Y-1010666D01*
X-1824126Y-1016152D01*
X-1824837Y-1022451D01*
X-1824837Y-1111351D01*
X-1824126Y-1117650D01*
X-1822196Y-1123137D01*
X-1819097Y-1128014D01*
X-1815033Y-1132128D01*
X-1810105Y-1135176D01*
X-1804670Y-1137107D01*
X-1798320Y-1137818D01*
X-1719478Y-1137818D01*
X-1713179Y-1137107D01*
X-1707692Y-1135176D01*
X-1702816Y-1132128D01*
X-1698701Y-1128014D01*
X-1695602Y-1123137D01*
X-1693722Y-1117650D01*
X-1693011Y-1111351D01*
X-1693011Y-1025499D01*
X-1692249Y-1021638D01*
X-1690014Y-1018336D01*
X-1668119Y-996391D01*
X-1664360Y-991412D01*
X-1661210Y-988618D01*
X-1657197Y-987399D01*
X-1653032Y-987856D01*
X-1649425Y-989990D01*
X-1646986Y-993394D01*
X-1646123Y-997508D01*
X-1646123Y-1119733D01*
X-1646885Y-1123645D01*
X-1649069Y-1126947D01*
X-1692452Y-1170279D01*
X-1695754Y-1172514D01*
X-1699615Y-1173276D01*
X-2313178Y-1173327D01*
X-2321915Y-1174546D01*
X-2329942Y-1177239D01*
X-2337308Y-1181354D01*
X-2344216Y-1187043D01*
X-2412441Y-1255318D01*
X-2417826Y-1262481D01*
X-2420670Y-1267917D01*
X-2422194Y-1272286D01*
X-2424328Y-1275892D01*
X-2427732Y-1278280D01*
X-2431796Y-1279144D01*
X-2447391Y-1279144D01*
X-2457246Y-1280007D01*
X-2466390Y-1282446D01*
X-2474976Y-1286459D01*
X-2482697Y-1291894D01*
X-2489403Y-1298600D01*
X-2494838Y-1306322D01*
X-2498852Y-1314907D01*
X-2501290Y-1324051D01*
X-2502103Y-1333500D01*
X-2501290Y-1342898D01*
X-2498852Y-1352042D01*
X-2494838Y-1360627D01*
X-2489403Y-1368399D01*
X-2482697Y-1375054D01*
X-2474976Y-1380490D01*
X-2466390Y-1384503D01*
X-2456434Y-1387195D01*
X-2452522Y-1389176D01*
X-2449830Y-1392682D01*
X-2448864Y-1397000D01*
X-2449830Y-1401267D01*
X-2452522Y-1404772D01*
X-2456434Y-1406804D01*
X-2466390Y-1409446D01*
X-2474976Y-1413459D01*
X-2482697Y-1418894D01*
X-2489403Y-1425600D01*
X-2494838Y-1433322D01*
X-2498852Y-1441907D01*
X-2501290Y-1451051D01*
X-2502103Y-1460500D01*
X-2501290Y-1469898D01*
X-2498852Y-1479042D01*
X-2494838Y-1487627D01*
X-2489403Y-1495399D01*
X-2482697Y-1502054D01*
X-2474976Y-1507490D01*
X-2466390Y-1511503D01*
X-2456434Y-1514195D01*
X-2452522Y-1516176D01*
X-2449830Y-1519682D01*
X-2448864Y-1524000D01*
X-2449830Y-1528267D01*
X-2452522Y-1531772D01*
X-2456434Y-1533804D01*
X-2466390Y-1536446D01*
X-2474976Y-1540459D01*
X-2482697Y-1545894D01*
X-2489403Y-1552600D01*
X-2494838Y-1560322D01*
X-2498953Y-1569212D01*
X-2501188Y-1572310D01*
X-2504440Y-1574342D01*
X-2508148Y-1575054D01*
G37*

%LPD*%
G36*
X-3094583Y-3505200D02*
G01*
X-3098495Y-3504387D01*
X-3101797Y-3502202D01*
X-3222802Y-3381197D01*
X-3225038Y-3377844D01*
X-3225749Y-3373932D01*
X-3205683Y-1344472D01*
X-3204819Y-1340510D01*
X-3202482Y-1337208D01*
X-3199079Y-1335074D01*
X-3195066Y-1334414D01*
X-3191154Y-1335430D01*
X-3187903Y-1337868D01*
X-3185871Y-1341374D01*
X-3182467Y-1351584D01*
X-3174034Y-1370685D01*
X-3163874Y-1388922D01*
X-3152089Y-1406093D01*
X-3138728Y-1422146D01*
X-3123996Y-1436928D01*
X-3107944Y-1450238D01*
X-3090722Y-1462024D01*
X-3072485Y-1472184D01*
X-3053435Y-1480616D01*
X-3033623Y-1487271D01*
X-3013303Y-1492046D01*
X-2992678Y-1494942D01*
X-2971800Y-1495856D01*
X-2950972Y-1494942D01*
X-2930296Y-1492046D01*
X-2909976Y-1487271D01*
X-2890215Y-1480616D01*
X-2881528Y-1476806D01*
X-2877566Y-1475943D01*
X-2873603Y-1476654D01*
X-2870250Y-1478889D01*
X-2642565Y-1706473D01*
X-2635707Y-1712163D01*
X-2633726Y-1713585D01*
X-2626106Y-1718157D01*
X-2623921Y-1719275D01*
X-2615692Y-1722678D01*
X-2613355Y-1723440D01*
X-2604719Y-1725574D01*
X-2602280Y-1725980D01*
X-2593441Y-1726844D01*
X-2508199Y-1726895D01*
X-2504440Y-1727606D01*
X-2501188Y-1729638D01*
X-2498953Y-1732737D01*
X-2494838Y-1741627D01*
X-2489403Y-1749399D01*
X-2482697Y-1756054D01*
X-2474976Y-1761489D01*
X-2466390Y-1765503D01*
X-2457246Y-1767941D01*
X-2447391Y-1768805D01*
X-2399741Y-1768805D01*
X-2395321Y-1769821D01*
X-2389936Y-1772412D01*
X-2379116Y-1775764D01*
X-2367889Y-1777441D01*
X-2356561Y-1777441D01*
X-2345334Y-1775764D01*
X-2334514Y-1772412D01*
X-2329078Y-1769821D01*
X-2324658Y-1768805D01*
X-2310079Y-1768805D01*
X-2300224Y-1767941D01*
X-2291080Y-1765503D01*
X-2282494Y-1761489D01*
X-2274722Y-1756054D01*
X-2268067Y-1749399D01*
X-2262632Y-1741627D01*
X-2258618Y-1733042D01*
X-2256180Y-1723898D01*
X-2255367Y-1714500D01*
X-2256180Y-1705051D01*
X-2258618Y-1695907D01*
X-2262632Y-1687322D01*
X-2268067Y-1679600D01*
X-2274722Y-1672894D01*
X-2281986Y-1667814D01*
X-2284272Y-1665579D01*
X-2285796Y-1662684D01*
X-2286304Y-1659483D01*
X-2286304Y-1642465D01*
X-2285796Y-1639265D01*
X-2284272Y-1636420D01*
X-2281986Y-1634134D01*
X-2274722Y-1629054D01*
X-2268067Y-1622399D01*
X-2262632Y-1614627D01*
X-2258618Y-1606042D01*
X-2256180Y-1596898D01*
X-2255367Y-1587500D01*
X-2256180Y-1578051D01*
X-2258618Y-1568907D01*
X-2262632Y-1560322D01*
X-2268067Y-1552600D01*
X-2274722Y-1545894D01*
X-2282494Y-1540459D01*
X-2291080Y-1536446D01*
X-2301036Y-1533804D01*
X-2304948Y-1531772D01*
X-2307590Y-1528267D01*
X-2308555Y-1524000D01*
X-2307590Y-1519682D01*
X-2304948Y-1516176D01*
X-2301036Y-1514195D01*
X-2291080Y-1511503D01*
X-2282494Y-1507490D01*
X-2274722Y-1502054D01*
X-2268067Y-1495399D01*
X-2262632Y-1487627D01*
X-2258618Y-1479042D01*
X-2256180Y-1469898D01*
X-2255367Y-1460500D01*
X-2256180Y-1451051D01*
X-2258618Y-1441907D01*
X-2262632Y-1433322D01*
X-2268067Y-1425600D01*
X-2274722Y-1418894D01*
X-2282494Y-1413459D01*
X-2291080Y-1409446D01*
X-2301036Y-1406804D01*
X-2304948Y-1404772D01*
X-2307590Y-1401267D01*
X-2308555Y-1397000D01*
X-2307590Y-1392682D01*
X-2304948Y-1389176D01*
X-2301036Y-1387195D01*
X-2291080Y-1384503D01*
X-2282494Y-1380490D01*
X-2274722Y-1375054D01*
X-2268067Y-1368399D01*
X-2262632Y-1360627D01*
X-2258618Y-1352042D01*
X-2256180Y-1342898D01*
X-2255367Y-1333500D01*
X-2256180Y-1324051D01*
X-2258618Y-1314907D01*
X-2262632Y-1306322D01*
X-2268067Y-1298600D01*
X-2274722Y-1291894D01*
X-2282494Y-1286459D01*
X-2286812Y-1284427D01*
X-2289962Y-1282141D01*
X-2292045Y-1278839D01*
X-2292654Y-1274978D01*
X-2291842Y-1271168D01*
X-2289606Y-1267968D01*
X-2286355Y-1265834D01*
X-2282545Y-1265072D01*
X-1933905Y-1265072D01*
X-1930095Y-1265834D01*
X-1926793Y-1267968D01*
X-1924608Y-1271168D01*
X-1923745Y-1274978D01*
X-1924405Y-1278839D01*
X-1926437Y-1282141D01*
X-1929587Y-1284427D01*
X-1933956Y-1286459D01*
X-1940001Y-1290726D01*
X-1942795Y-1292098D01*
X-1945843Y-1292555D01*
X-2069592Y-1292555D01*
X-2078075Y-1293418D01*
X-2085746Y-1295704D01*
X-2092807Y-1299514D01*
X-2099360Y-1304899D01*
X-2132634Y-1338173D01*
X-2135530Y-1340154D01*
X-2138934Y-1341069D01*
X-2143404Y-1341475D01*
X-2152853Y-1344015D01*
X-2161794Y-1348181D01*
X-2169820Y-1353820D01*
X-2176780Y-1360728D01*
X-2182418Y-1368806D01*
X-2186533Y-1377696D01*
X-2189073Y-1387195D01*
X-2189937Y-1397000D01*
X-2189073Y-1406753D01*
X-2186533Y-1416253D01*
X-2182418Y-1425143D01*
X-2176780Y-1433220D01*
X-2169820Y-1440129D01*
X-2161794Y-1445768D01*
X-2152853Y-1449933D01*
X-2143404Y-1452473D01*
X-2133600Y-1453337D01*
X-2123795Y-1452473D01*
X-2114346Y-1449933D01*
X-2105406Y-1445768D01*
X-2097379Y-1440129D01*
X-2090420Y-1433220D01*
X-2084781Y-1425143D01*
X-2080666Y-1416253D01*
X-2078126Y-1406753D01*
X-2077720Y-1402283D01*
X-2076805Y-1398879D01*
X-2074773Y-1395984D01*
X-2056130Y-1377340D01*
X-2052828Y-1375156D01*
X-2048967Y-1374394D01*
X-1945893Y-1374394D01*
X-1942846Y-1374851D01*
X-1940052Y-1376222D01*
X-1933956Y-1380490D01*
X-1925370Y-1384503D01*
X-1915414Y-1387195D01*
X-1911502Y-1389176D01*
X-1908810Y-1392682D01*
X-1907844Y-1397000D01*
X-1908810Y-1401267D01*
X-1911502Y-1404772D01*
X-1915414Y-1406804D01*
X-1925370Y-1409446D01*
X-1933956Y-1413459D01*
X-1941677Y-1418894D01*
X-1948383Y-1425600D01*
X-1953818Y-1433322D01*
X-1957832Y-1441907D01*
X-1960270Y-1451051D01*
X-1961083Y-1460500D01*
X-1960270Y-1469898D01*
X-1957832Y-1479042D01*
X-1953818Y-1487627D01*
X-1948383Y-1495399D01*
X-1941677Y-1502054D01*
X-1933956Y-1507490D01*
X-1925370Y-1511503D01*
X-1915414Y-1514195D01*
X-1911502Y-1516176D01*
X-1908810Y-1519682D01*
X-1907844Y-1524000D01*
X-1908810Y-1528267D01*
X-1911502Y-1531772D01*
X-1915414Y-1533804D01*
X-1925370Y-1536446D01*
X-1933956Y-1540459D01*
X-1941677Y-1545894D01*
X-1948383Y-1552600D01*
X-1953818Y-1560322D01*
X-1957832Y-1568907D01*
X-1960270Y-1578051D01*
X-1961083Y-1587500D01*
X-1960270Y-1596898D01*
X-1957832Y-1606042D01*
X-1953818Y-1614627D01*
X-1948383Y-1622399D01*
X-1941677Y-1629054D01*
X-1933956Y-1634489D01*
X-1925370Y-1638503D01*
X-1916226Y-1640941D01*
X-1906371Y-1641805D01*
X-1769059Y-1641805D01*
X-1759204Y-1640941D01*
X-1750060Y-1638503D01*
X-1741728Y-1634642D01*
X-1737766Y-1633677D01*
X-1733702Y-1634388D01*
X-1730248Y-1636674D01*
X-1680718Y-1686204D01*
X-1678482Y-1689506D01*
X-1677720Y-1693418D01*
X-1677720Y-1821383D01*
X-1678482Y-1825294D01*
X-1680718Y-1828596D01*
X-1715871Y-1863699D01*
X-1718614Y-1865680D01*
X-1721916Y-1866646D01*
X-1725320Y-1866442D01*
X-1728470Y-1865122D01*
X-1733092Y-1862226D01*
X-1738579Y-1860296D01*
X-1744878Y-1859584D01*
X-1823720Y-1859584D01*
X-1830070Y-1860296D01*
X-1835505Y-1862226D01*
X-1840433Y-1865274D01*
X-1844497Y-1869389D01*
X-1847596Y-1874266D01*
X-1849526Y-1879752D01*
X-1850237Y-1886051D01*
X-1850237Y-1974951D01*
X-1849526Y-1981250D01*
X-1847596Y-1986737D01*
X-1844497Y-1991614D01*
X-1840433Y-1995728D01*
X-1835505Y-1998776D01*
X-1830070Y-2000707D01*
X-1823720Y-2001418D01*
X-1744878Y-2001418D01*
X-1738579Y-2000707D01*
X-1733092Y-1998776D01*
X-1728216Y-1995728D01*
X-1724101Y-1991614D01*
X-1721002Y-1986737D01*
X-1719529Y-1982368D01*
X-1717700Y-1979218D01*
X-1714906Y-1976882D01*
X-1711452Y-1975662D01*
X-1707134Y-1975053D01*
X-1699056Y-1972310D01*
X-1691690Y-1968195D01*
X-1684782Y-1962505D01*
X-1598117Y-1875789D01*
X-1592834Y-1868779D01*
X-1589074Y-1861159D01*
X-1586738Y-1853031D01*
X-1585925Y-1844141D01*
X-1585976Y-1668424D01*
X-1587195Y-1659686D01*
X-1589887Y-1651660D01*
X-1594002Y-1644243D01*
X-1599692Y-1637385D01*
X-1683359Y-1553768D01*
X-1690370Y-1548485D01*
X-1697939Y-1544726D01*
X-1706118Y-1542389D01*
X-1715007Y-1541576D01*
X-1736852Y-1541576D01*
X-1741170Y-1540611D01*
X-1750060Y-1536446D01*
X-1760016Y-1533804D01*
X-1763928Y-1531772D01*
X-1766570Y-1528267D01*
X-1767535Y-1524000D01*
X-1766570Y-1519682D01*
X-1763928Y-1516176D01*
X-1760016Y-1514195D01*
X-1750060Y-1511503D01*
X-1741474Y-1507490D01*
X-1735378Y-1503222D01*
X-1732584Y-1501851D01*
X-1729536Y-1501394D01*
X-1676654Y-1501394D01*
X-1672793Y-1502156D01*
X-1669491Y-1504340D01*
X-1667256Y-1507642D01*
X-1666493Y-1511554D01*
X-1666493Y-1523492D01*
X-1665681Y-1531975D01*
X-1663344Y-1539646D01*
X-1659585Y-1546707D01*
X-1654149Y-1553260D01*
X-1527860Y-1679549D01*
X-1521307Y-1684934D01*
X-1514246Y-1688744D01*
X-1506575Y-1691030D01*
X-1498092Y-1691893D01*
X-1392732Y-1691893D01*
X-1388872Y-1692656D01*
X-1385570Y-1694840D01*
X-1252626Y-1827784D01*
X-1250594Y-1830679D01*
X-1249680Y-1834083D01*
X-1249273Y-1838553D01*
X-1246733Y-1848053D01*
X-1242618Y-1856943D01*
X-1236980Y-1865020D01*
X-1230020Y-1871929D01*
X-1221994Y-1877568D01*
X-1213053Y-1881733D01*
X-1203604Y-1884273D01*
X-1193800Y-1885137D01*
X-1183995Y-1884273D01*
X-1174546Y-1881733D01*
X-1165606Y-1877568D01*
X-1157579Y-1871929D01*
X-1150620Y-1865020D01*
X-1144981Y-1856943D01*
X-1140866Y-1848053D01*
X-1138326Y-1838553D01*
X-1137462Y-1828800D01*
X-1138326Y-1818995D01*
X-1140866Y-1809496D01*
X-1144981Y-1800606D01*
X-1150620Y-1792528D01*
X-1157579Y-1785620D01*
X-1165606Y-1779981D01*
X-1174546Y-1775815D01*
X-1183995Y-1773275D01*
X-1188466Y-1772869D01*
X-1191869Y-1771954D01*
X-1194765Y-1769973D01*
X-1342339Y-1622399D01*
X-1348892Y-1617014D01*
X-1355953Y-1613204D01*
X-1363624Y-1610918D01*
X-1372108Y-1610055D01*
X-1383334Y-1610055D01*
X-1387602Y-1609140D01*
X-1391056Y-1606550D01*
X-1393088Y-1602740D01*
X-1393393Y-1598371D01*
X-1391869Y-1594358D01*
X-1388770Y-1591310D01*
X-1385570Y-1589328D01*
X-1381506Y-1585214D01*
X-1378407Y-1580337D01*
X-1376476Y-1574850D01*
X-1375765Y-1568551D01*
X-1375765Y-1479651D01*
X-1376476Y-1473352D01*
X-1378407Y-1467866D01*
X-1381506Y-1462989D01*
X-1385570Y-1458874D01*
X-1390497Y-1455826D01*
X-1393901Y-1454607D01*
X-1397457Y-1452473D01*
X-1399844Y-1449120D01*
X-1400708Y-1445056D01*
X-1400708Y-1425346D01*
X-1399844Y-1421282D01*
X-1397457Y-1417929D01*
X-1393901Y-1415796D01*
X-1390497Y-1414576D01*
X-1385570Y-1411528D01*
X-1381506Y-1407414D01*
X-1378407Y-1402537D01*
X-1376476Y-1397050D01*
X-1375765Y-1390751D01*
X-1375765Y-1301851D01*
X-1376476Y-1295552D01*
X-1378407Y-1290066D01*
X-1381506Y-1285189D01*
X-1385570Y-1281074D01*
X-1390497Y-1278026D01*
X-1395933Y-1276096D01*
X-1402283Y-1275384D01*
X-1481124Y-1275384D01*
X-1487424Y-1276096D01*
X-1492910Y-1278026D01*
X-1497787Y-1281074D01*
X-1501902Y-1285189D01*
X-1505000Y-1290066D01*
X-1508048Y-1299768D01*
X-1510284Y-1302664D01*
X-1513433Y-1304594D01*
X-1517040Y-1305255D01*
X-1531467Y-1305255D01*
X-1534668Y-1304747D01*
X-1537512Y-1303274D01*
X-1544980Y-1297736D01*
X-1553616Y-1293418D01*
X-1562811Y-1290574D01*
X-1572361Y-1289354D01*
X-1582013Y-1289761D01*
X-1595323Y-1292555D01*
X-1729536Y-1292555D01*
X-1732635Y-1292098D01*
X-1735378Y-1290726D01*
X-1741474Y-1286459D01*
X-1745792Y-1284427D01*
X-1748942Y-1282141D01*
X-1751025Y-1278839D01*
X-1751634Y-1274978D01*
X-1750822Y-1271168D01*
X-1748586Y-1267968D01*
X-1745335Y-1265834D01*
X-1741525Y-1265072D01*
X-1674622Y-1265021D01*
X-1665884Y-1263802D01*
X-1657857Y-1261110D01*
X-1650492Y-1256995D01*
X-1643583Y-1251305D01*
X-1580540Y-1188262D01*
X-1577238Y-1186027D01*
X-1573377Y-1185265D01*
X-1569466Y-1186027D01*
X-1566164Y-1188262D01*
X-1542542Y-1211884D01*
X-1537766Y-1215694D01*
X-1532585Y-1218234D01*
X-1526895Y-1219504D01*
X-1523746Y-1219708D01*
X-1371904Y-1219708D01*
X-1365859Y-1219047D01*
X-1360373Y-1217117D01*
X-1355445Y-1214018D01*
X-1353108Y-1211884D01*
X-1328115Y-1186891D01*
X-1324305Y-1182166D01*
X-1321765Y-1176934D01*
X-1320495Y-1171295D01*
X-1320292Y-1168095D01*
X-1320292Y-1122019D01*
X-1319987Y-1119581D01*
X-1272692Y-930351D01*
X-1271676Y-927811D01*
X-1270050Y-925626D01*
X-1262278Y-917854D01*
X-1258976Y-915669D01*
X-1255064Y-914908D01*
X-1092758Y-914908D01*
X-1086459Y-914196D01*
X-1081024Y-912266D01*
X-1076096Y-909167D01*
X-1072032Y-905103D01*
X-1068933Y-900176D01*
X-1067003Y-894740D01*
X-1066292Y-888390D01*
X-1066292Y-879754D01*
X-1065631Y-876046D01*
X-1064869Y-874115D01*
X-1063396Y-866343D01*
X-1063396Y-858367D01*
X-1064869Y-850595D01*
X-1065631Y-848664D01*
X-1066292Y-844956D01*
X-1066292Y-838758D01*
X-1067003Y-832408D01*
X-1068933Y-826973D01*
X-1072032Y-822096D01*
X-1076096Y-817981D01*
X-1081024Y-814882D01*
X-1086459Y-813003D01*
X-1092758Y-812292D01*
X-1320292Y-812292D01*
X-1326134Y-812901D01*
X-1331671Y-814730D01*
X-1336598Y-817727D01*
X-1340764Y-821791D01*
X-1344218Y-827125D01*
X-1369314Y-877214D01*
X-1411986Y-983691D01*
X-1414170Y-987044D01*
X-1417523Y-989279D01*
X-1421434Y-990092D01*
X-1510233Y-990092D01*
X-1514144Y-989279D01*
X-1517446Y-987094D01*
X-1519631Y-983792D01*
X-1520393Y-979932D01*
X-1519631Y-976020D01*
X-1517446Y-972718D01*
X-1388719Y-843940D01*
X-1383385Y-836930D01*
X-1379626Y-829360D01*
X-1377340Y-821182D01*
X-1376476Y-812292D01*
X-1376476Y-788568D01*
X-1375714Y-784656D01*
X-1373530Y-781354D01*
X-1370228Y-779170D01*
X-1366316Y-778408D01*
X-1176070Y-778408D01*
X-1167180Y-777544D01*
X-1160983Y-775817D01*
X-1158189Y-775411D01*
X-1106728Y-775411D01*
X-1098346Y-774649D01*
X-1090676Y-772464D01*
X-1083614Y-768908D01*
X-1077264Y-764133D01*
X-1071930Y-758291D01*
X-1067714Y-751535D01*
X-1064869Y-744118D01*
X-1063396Y-736346D01*
X-1063396Y-728370D01*
X-1064869Y-720598D01*
X-1067714Y-713232D01*
X-1072743Y-705307D01*
X-1074166Y-701751D01*
X-1074166Y-697941D01*
X-1072743Y-694436D01*
X-1067714Y-686460D01*
X-1064869Y-679145D01*
X-1063396Y-671322D01*
X-1063396Y-663397D01*
X-1064869Y-655574D01*
X-1067714Y-648208D01*
X-1071930Y-641451D01*
X-1077264Y-635558D01*
X-1083614Y-630783D01*
X-1090676Y-627227D01*
X-1098346Y-625094D01*
X-1106728Y-624281D01*
X-1159052Y-624281D01*
X-1161846Y-623925D01*
X-1167180Y-622401D01*
X-1176070Y-621588D01*
X-1493672Y-621588D01*
X-1497533Y-620826D01*
X-1500835Y-618591D01*
X-1583740Y-535736D01*
X-1585925Y-532434D01*
X-1586687Y-528523D01*
X-1585925Y-524662D01*
X-1583740Y-521360D01*
X-1580438Y-519125D01*
X-1576527Y-518363D01*
X-1176070Y-518363D01*
X-1167180Y-517550D01*
X-1161034Y-515823D01*
X-1158240Y-515416D01*
X-1106728Y-515416D01*
X-1098346Y-514654D01*
X-1090676Y-512470D01*
X-1083614Y-508914D01*
X-1077264Y-504139D01*
X-1071930Y-498297D01*
X-1067714Y-491540D01*
X-1064869Y-484124D01*
X-1063396Y-476351D01*
X-1063396Y-468376D01*
X-1064869Y-460603D01*
X-1069695Y-448157D01*
X-1069187Y-443687D01*
X-1067003Y-437540D01*
X-1066292Y-431190D01*
X-1066292Y-424738D01*
X-1065631Y-421081D01*
X-1064869Y-419150D01*
X-1063396Y-411327D01*
X-1063396Y-403402D01*
X-1064869Y-395579D01*
X-1065631Y-393649D01*
X-1066292Y-389991D01*
X-1066292Y-381558D01*
X-1067003Y-375208D01*
X-1068730Y-370332D01*
X-1069238Y-365861D01*
X-1064869Y-354126D01*
X-1063396Y-346354D01*
X-1063396Y-338378D01*
X-1064920Y-330301D01*
X-1064768Y-325882D01*
X-1062736Y-321970D01*
X-1059230Y-319227D01*
X-1054912Y-318262D01*
X-1039876Y-318262D01*
X-1031443Y-317449D01*
X-1023772Y-315112D01*
X-1016711Y-311353D01*
X-1010107Y-305917D01*
X-962050Y-257860D01*
X-956614Y-251307D01*
X-952855Y-244195D01*
X-950518Y-236575D01*
X-949706Y-228092D01*
X-949706Y-508D01*
X-950518Y7975D01*
X-952855Y15646D01*
X-956614Y22707D01*
X-962050Y29311D01*
X-1003757Y71018D01*
X-1005941Y74269D01*
X-1006703Y78181D01*
X-1006703Y124104D01*
X-1005890Y128168D01*
X-1003452Y131572D01*
X-999896Y133705D01*
X-996391Y134924D01*
X-991514Y138023D01*
X-987399Y142087D01*
X-984351Y147015D01*
X-982421Y152450D01*
X-981710Y158800D01*
X-981710Y247650D01*
X-982421Y253949D01*
X-984351Y259435D01*
X-987399Y264312D01*
X-991514Y268427D01*
X-996391Y271475D01*
X-1001877Y273405D01*
X-1008176Y274116D01*
X-1087069Y274116D01*
X-1093368Y273405D01*
X-1098854Y271475D01*
X-1103731Y268427D01*
X-1107846Y264312D01*
X-1109014Y262432D01*
X-1111808Y259486D01*
X-1115568Y257911D01*
X-1119632Y257911D01*
X-1123391Y259486D01*
X-1126236Y262432D01*
X-1127404Y264312D01*
X-1131468Y268427D01*
X-1136396Y271475D01*
X-1141831Y273405D01*
X-1148181Y274116D01*
X-1227023Y274116D01*
X-1233373Y273405D01*
X-1238808Y271475D01*
X-1243736Y268427D01*
X-1247800Y264312D01*
X-1250899Y259435D01*
X-1252778Y253949D01*
X-1253490Y247650D01*
X-1253490Y158800D01*
X-1252778Y152450D01*
X-1250899Y147015D01*
X-1247800Y142087D01*
X-1243736Y138023D01*
X-1238808Y134924D01*
X-1235303Y133705D01*
X-1231747Y131572D01*
X-1229360Y128168D01*
X-1228496Y124104D01*
X-1228496Y-159156D01*
X-1229258Y-163017D01*
X-1231493Y-166319D01*
X-1234795Y-168503D01*
X-1238656Y-169316D01*
X-1244600Y-169316D01*
X-1252982Y-170078D01*
X-1260652Y-172262D01*
X-1267714Y-175768D01*
X-1274064Y-180594D01*
X-1279398Y-186436D01*
X-1283614Y-193192D01*
X-1286459Y-200609D01*
X-1287932Y-208381D01*
X-1287932Y-216306D01*
X-1286459Y-224129D01*
X-1283766Y-231038D01*
X-1283106Y-234899D01*
X-1283919Y-238760D01*
X-1286154Y-242011D01*
X-1289456Y-244144D01*
X-1293317Y-244906D01*
X-1297178Y-244094D01*
X-1300429Y-241909D01*
X-1308557Y-233781D01*
X-1310741Y-230530D01*
X-1311503Y-226618D01*
X-1311503Y124104D01*
X-1310690Y128168D01*
X-1308252Y131572D01*
X-1304696Y133705D01*
X-1301191Y134924D01*
X-1296314Y138023D01*
X-1292199Y142087D01*
X-1289151Y147015D01*
X-1287221Y152450D01*
X-1286510Y158800D01*
X-1286510Y247650D01*
X-1287221Y253949D01*
X-1289151Y259435D01*
X-1292199Y264312D01*
X-1296314Y268427D01*
X-1301191Y271475D01*
X-1306677Y273405D01*
X-1312976Y274116D01*
X-1391869Y274116D01*
X-1398168Y273405D01*
X-1403654Y271475D01*
X-1408531Y268427D01*
X-1412646Y264312D01*
X-1413814Y262432D01*
X-1416608Y259486D01*
X-1420368Y257911D01*
X-1424432Y257911D01*
X-1428191Y259486D01*
X-1431036Y262432D01*
X-1432204Y264312D01*
X-1436268Y268427D01*
X-1441196Y271475D01*
X-1446631Y273405D01*
X-1452981Y274116D01*
X-1531823Y274116D01*
X-1538173Y273405D01*
X-1543608Y271475D01*
X-1548536Y268427D01*
X-1552600Y264312D01*
X-1555699Y259435D01*
X-1557578Y253949D01*
X-1558290Y247650D01*
X-1558290Y158800D01*
X-1557578Y152450D01*
X-1555699Y147015D01*
X-1552600Y142087D01*
X-1548536Y138023D01*
X-1543608Y134924D01*
X-1540103Y133705D01*
X-1536547Y131572D01*
X-1534160Y128168D01*
X-1533296Y124104D01*
X-1533296Y-217932D01*
X-1534058Y-221792D01*
X-1536293Y-225094D01*
X-1539595Y-227279D01*
X-1543456Y-228092D01*
X-1552295Y-228244D01*
X-1557985Y-229565D01*
X-1563166Y-232054D01*
X-1567942Y-235864D01*
X-1592935Y-260858D01*
X-1596745Y-265633D01*
X-1599234Y-270814D01*
X-1600555Y-276504D01*
X-1600708Y-279654D01*
X-1600708Y-367233D01*
X-1601470Y-371094D01*
X-1603705Y-374396D01*
X-1607007Y-376631D01*
X-1610868Y-377393D01*
X-1614779Y-376631D01*
X-1618081Y-374396D01*
X-1746808Y-245719D01*
X-1753870Y-240385D01*
X-1761439Y-236626D01*
X-1769567Y-234289D01*
X-1778457Y-233476D01*
X-2740558Y-233476D01*
X-2744927Y-232460D01*
X-2748432Y-229666D01*
X-2750413Y-225653D01*
X-2754528Y-208178D01*
X-2761183Y-188366D01*
X-2769616Y-169316D01*
X-2779776Y-151079D01*
X-2791561Y-133858D01*
X-2804871Y-117805D01*
X-2819603Y-103022D01*
X-2835656Y-89712D01*
X-2852877Y-77927D01*
X-2871114Y-67767D01*
X-2890215Y-59334D01*
X-2909976Y-52730D01*
X-2930296Y-47955D01*
X-2950972Y-45059D01*
X-2971800Y-44094D01*
X-2992678Y-45059D01*
X-3013303Y-47955D01*
X-3033623Y-52730D01*
X-3053435Y-59334D01*
X-3072485Y-67767D01*
X-3090722Y-77927D01*
X-3107944Y-89712D01*
X-3123996Y-103022D01*
X-3138728Y-117805D01*
X-3152089Y-133858D01*
X-3163874Y-151079D01*
X-3174034Y-169316D01*
X-3180943Y-185013D01*
X-3183229Y-188214D01*
X-3186531Y-190347D01*
X-3190392Y-191058D01*
X-3194253Y-190246D01*
X-3197504Y-188010D01*
X-3199638Y-184759D01*
X-3200400Y-180898D01*
X-3200400Y1494383D01*
X-3199638Y1498295D01*
X-3197453Y1501597D01*
X-3050997Y1648002D01*
X-3047695Y1650238D01*
X-3043783Y1651000D01*
X1745081Y1619656D01*
X1748536Y1619046D01*
X1751584Y1617268D01*
X1856079Y1528826D01*
X1858772Y1525320D01*
X1859686Y1521053D01*
X1859686Y376783D01*
X1860397Y375056D01*
X2208072Y27381D01*
X2210308Y24079D01*
X2211070Y20218D01*
X2211070Y-3018637D01*
X2210308Y-3022549D01*
X2208072Y-3025800D01*
X1737664Y-3496259D01*
X1734362Y-3498443D01*
X1730502Y-3499205D01*
G37*

%LPC*%
G36*
X-1994458Y-3443274D02*
G01*
X-1815592Y-3443274D01*
X-1809242Y-3442563D01*
X-1803806Y-3440684D01*
X-1798878Y-3437585D01*
X-1794814Y-3433521D01*
X-1791716Y-3428593D01*
X-1789836Y-3423158D01*
X-1789125Y-3416808D01*
X-1789125Y-3237941D01*
X-1789836Y-3231642D01*
X-1791716Y-3226155D01*
X-1794814Y-3221278D01*
X-1798878Y-3217164D01*
X-1803806Y-3214116D01*
X-1809242Y-3212185D01*
X-1815592Y-3211474D01*
X-1994458Y-3211474D01*
X-2000757Y-3212185D01*
X-2006244Y-3214116D01*
X-2011121Y-3217164D01*
X-2015236Y-3221278D01*
X-2018284Y-3226155D01*
X-2020214Y-3231642D01*
X-2020925Y-3237941D01*
X-2020925Y-3416808D01*
X-2020214Y-3423158D01*
X-2018284Y-3428593D01*
X-2015236Y-3433521D01*
X-2011121Y-3437585D01*
X-2006244Y-3440684D01*
X-2000757Y-3442563D01*
G37*
G36*
X291541Y-3443274D02*
G01*
X470408Y-3443274D01*
X476758Y-3442563D01*
X482193Y-3440684D01*
X487121Y-3437585D01*
X491185Y-3433521D01*
X494284Y-3428593D01*
X496163Y-3423158D01*
X496874Y-3416808D01*
X496874Y-3237941D01*
X496163Y-3231642D01*
X494284Y-3226155D01*
X491185Y-3221278D01*
X487121Y-3217164D01*
X482193Y-3214116D01*
X476758Y-3212185D01*
X470408Y-3211474D01*
X291541Y-3211474D01*
X285242Y-3212185D01*
X279755Y-3214116D01*
X274878Y-3217164D01*
X270764Y-3221278D01*
X267716Y-3226155D01*
X265785Y-3231642D01*
X265074Y-3237941D01*
X265074Y-3416808D01*
X265785Y-3423158D01*
X267716Y-3428593D01*
X270764Y-3433521D01*
X274878Y-3437585D01*
X279755Y-3440684D01*
X285242Y-3442563D01*
G37*
G36*
X881735Y-3443020D02*
G01*
X896264Y-3443020D01*
X910691Y-3441242D01*
X924814Y-3437585D01*
X938326Y-3432251D01*
X951077Y-3425240D01*
X962863Y-3416655D01*
X973480Y-3406698D01*
X982726Y-3395522D01*
X990549Y-3383229D01*
X996746Y-3370021D01*
X1001217Y-3356203D01*
X1003960Y-3341928D01*
X1004874Y-3327400D01*
X1003960Y-3312871D01*
X1001217Y-3298545D01*
X996746Y-3284728D01*
X990549Y-3271570D01*
X982726Y-3259277D01*
X973480Y-3248050D01*
X962863Y-3238093D01*
X951077Y-3229559D01*
X938326Y-3222548D01*
X924814Y-3217164D01*
X910691Y-3213557D01*
X896264Y-3211728D01*
X881735Y-3211728D01*
X867257Y-3213557D01*
X853186Y-3217164D01*
X839622Y-3222548D01*
X826871Y-3229559D01*
X815136Y-3238093D01*
X804519Y-3248050D01*
X795223Y-3259277D01*
X787450Y-3271570D01*
X781253Y-3284728D01*
X776732Y-3298545D01*
X773988Y-3312871D01*
X773074Y-3327400D01*
X773988Y-3341928D01*
X776732Y-3356203D01*
X781253Y-3370021D01*
X787450Y-3383229D01*
X795223Y-3395522D01*
X804519Y-3406698D01*
X815136Y-3416655D01*
X826871Y-3425240D01*
X839622Y-3432251D01*
X853186Y-3437585D01*
X867257Y-3441242D01*
G37*
G36*
X-1404264Y-3443020D02*
G01*
X-1389735Y-3443020D01*
X-1375308Y-3441242D01*
X-1361186Y-3437585D01*
X-1347673Y-3432251D01*
X-1334922Y-3425240D01*
X-1323136Y-3416655D01*
X-1312519Y-3406698D01*
X-1303274Y-3395522D01*
X-1295450Y-3383229D01*
X-1289253Y-3370021D01*
X-1284782Y-3356203D01*
X-1282039Y-3341928D01*
X-1281125Y-3327400D01*
X-1282039Y-3312871D01*
X-1284782Y-3298545D01*
X-1289253Y-3284728D01*
X-1295450Y-3271570D01*
X-1303274Y-3259277D01*
X-1312519Y-3248050D01*
X-1323136Y-3238093D01*
X-1334922Y-3229559D01*
X-1347673Y-3222548D01*
X-1361186Y-3217164D01*
X-1375308Y-3213557D01*
X-1389735Y-3211728D01*
X-1404264Y-3211728D01*
X-1418742Y-3213557D01*
X-1432814Y-3217164D01*
X-1446377Y-3222548D01*
X-1459128Y-3229559D01*
X-1470863Y-3238093D01*
X-1481480Y-3248050D01*
X-1490776Y-3259277D01*
X-1498549Y-3271570D01*
X-1504746Y-3284728D01*
X-1509268Y-3298545D01*
X-1512011Y-3312871D01*
X-1512925Y-3327400D01*
X-1512011Y-3341928D01*
X-1509268Y-3356203D01*
X-1504746Y-3370021D01*
X-1498549Y-3383229D01*
X-1490776Y-3395522D01*
X-1481480Y-3406698D01*
X-1470863Y-3416655D01*
X-1459128Y-3425240D01*
X-1446377Y-3432251D01*
X-1432814Y-3437585D01*
X-1418742Y-3441242D01*
G37*
G36*
X1135735Y-3443020D02*
G01*
X1150264Y-3443020D01*
X1164691Y-3441242D01*
X1178814Y-3437585D01*
X1192326Y-3432251D01*
X1205077Y-3425240D01*
X1216863Y-3416655D01*
X1227480Y-3406698D01*
X1236726Y-3395522D01*
X1244549Y-3383229D01*
X1250746Y-3370021D01*
X1255217Y-3356203D01*
X1257960Y-3341928D01*
X1258874Y-3327400D01*
X1257960Y-3312871D01*
X1255217Y-3298545D01*
X1250746Y-3284728D01*
X1244549Y-3271570D01*
X1236726Y-3259277D01*
X1227480Y-3248050D01*
X1216863Y-3238093D01*
X1205077Y-3229559D01*
X1192326Y-3222548D01*
X1178814Y-3217164D01*
X1164691Y-3213557D01*
X1150264Y-3211728D01*
X1135735Y-3211728D01*
X1121257Y-3213557D01*
X1107186Y-3217164D01*
X1093622Y-3222548D01*
X1080871Y-3229559D01*
X1069136Y-3238093D01*
X1058519Y-3248050D01*
X1049223Y-3259277D01*
X1041450Y-3271570D01*
X1035253Y-3284728D01*
X1030732Y-3298545D01*
X1027988Y-3312871D01*
X1027074Y-3327400D01*
X1027988Y-3341928D01*
X1030732Y-3356203D01*
X1035253Y-3370021D01*
X1041450Y-3383229D01*
X1049223Y-3395522D01*
X1058519Y-3406698D01*
X1069136Y-3416655D01*
X1080871Y-3425240D01*
X1093622Y-3432251D01*
X1107186Y-3437585D01*
X1121257Y-3441242D01*
G37*
G36*
X1643735Y-3443020D02*
G01*
X1658264Y-3443020D01*
X1672691Y-3441242D01*
X1686814Y-3437585D01*
X1700326Y-3432251D01*
X1713077Y-3425240D01*
X1724863Y-3416655D01*
X1735480Y-3406698D01*
X1744725Y-3395522D01*
X1752549Y-3383229D01*
X1758746Y-3370021D01*
X1763217Y-3356203D01*
X1765960Y-3341928D01*
X1766874Y-3327400D01*
X1765960Y-3312871D01*
X1763217Y-3298545D01*
X1758746Y-3284728D01*
X1752549Y-3271570D01*
X1744725Y-3259277D01*
X1735480Y-3248050D01*
X1724863Y-3238093D01*
X1713077Y-3229559D01*
X1700326Y-3222548D01*
X1686814Y-3217164D01*
X1672691Y-3213557D01*
X1658264Y-3211728D01*
X1643735Y-3211728D01*
X1629257Y-3213557D01*
X1615186Y-3217164D01*
X1601622Y-3222548D01*
X1588871Y-3229559D01*
X1577136Y-3238093D01*
X1566519Y-3248050D01*
X1557223Y-3259277D01*
X1549450Y-3271570D01*
X1543253Y-3284728D01*
X1538732Y-3298545D01*
X1535988Y-3312871D01*
X1535074Y-3327400D01*
X1535988Y-3341928D01*
X1538732Y-3356203D01*
X1543253Y-3370021D01*
X1549450Y-3383229D01*
X1557223Y-3395522D01*
X1566519Y-3406698D01*
X1577136Y-3416655D01*
X1588871Y-3425240D01*
X1601622Y-3432251D01*
X1615186Y-3437585D01*
X1629257Y-3441242D01*
G37*
G36*
X-1150264Y-3443020D02*
G01*
X-1135735Y-3443020D01*
X-1121308Y-3441242D01*
X-1107186Y-3437585D01*
X-1093673Y-3432251D01*
X-1080922Y-3425240D01*
X-1069136Y-3416655D01*
X-1058519Y-3406698D01*
X-1049274Y-3395522D01*
X-1041450Y-3383229D01*
X-1035253Y-3370021D01*
X-1030782Y-3356203D01*
X-1028039Y-3341928D01*
X-1027125Y-3327400D01*
X-1028039Y-3312871D01*
X-1030782Y-3298545D01*
X-1035253Y-3284728D01*
X-1041450Y-3271570D01*
X-1049274Y-3259277D01*
X-1058519Y-3248050D01*
X-1069136Y-3238093D01*
X-1080922Y-3229559D01*
X-1093673Y-3222548D01*
X-1107186Y-3217164D01*
X-1121308Y-3213557D01*
X-1135735Y-3211728D01*
X-1150264Y-3211728D01*
X-1164742Y-3213557D01*
X-1178814Y-3217164D01*
X-1192377Y-3222548D01*
X-1205128Y-3229559D01*
X-1216863Y-3238093D01*
X-1227480Y-3248050D01*
X-1236776Y-3259277D01*
X-1244549Y-3271570D01*
X-1250746Y-3284728D01*
X-1255268Y-3298545D01*
X-1258011Y-3312871D01*
X-1258925Y-3327400D01*
X-1258011Y-3341928D01*
X-1255268Y-3356203D01*
X-1250746Y-3370021D01*
X-1244549Y-3383229D01*
X-1236776Y-3395522D01*
X-1227480Y-3406698D01*
X-1216863Y-3416655D01*
X-1205128Y-3425240D01*
X-1192377Y-3432251D01*
X-1178814Y-3437585D01*
X-1164742Y-3441242D01*
G37*
G36*
X1389735Y-3443020D02*
G01*
X1404264Y-3443020D01*
X1418691Y-3441242D01*
X1432814Y-3437585D01*
X1446326Y-3432251D01*
X1459077Y-3425240D01*
X1470863Y-3416655D01*
X1481480Y-3406698D01*
X1490726Y-3395522D01*
X1498549Y-3383229D01*
X1504746Y-3370021D01*
X1509217Y-3356203D01*
X1511960Y-3341928D01*
X1512874Y-3327400D01*
X1511960Y-3312871D01*
X1509217Y-3298545D01*
X1504746Y-3284728D01*
X1498549Y-3271570D01*
X1490726Y-3259277D01*
X1481480Y-3248050D01*
X1470863Y-3238093D01*
X1459077Y-3229559D01*
X1446326Y-3222548D01*
X1432814Y-3217164D01*
X1418691Y-3213557D01*
X1404264Y-3211728D01*
X1389735Y-3211728D01*
X1375257Y-3213557D01*
X1361186Y-3217164D01*
X1347622Y-3222548D01*
X1334871Y-3229559D01*
X1323136Y-3238093D01*
X1312519Y-3248050D01*
X1303223Y-3259277D01*
X1295450Y-3271570D01*
X1289253Y-3284728D01*
X1284732Y-3298545D01*
X1281988Y-3312871D01*
X1281074Y-3327400D01*
X1281988Y-3341928D01*
X1284732Y-3356203D01*
X1289253Y-3370021D01*
X1295450Y-3383229D01*
X1303223Y-3395522D01*
X1312519Y-3406698D01*
X1323136Y-3416655D01*
X1334871Y-3425240D01*
X1347622Y-3432251D01*
X1361186Y-3437585D01*
X1375257Y-3441242D01*
G37*
G36*
X-896264Y-3443020D02*
G01*
X-881735Y-3443020D01*
X-867308Y-3441242D01*
X-853186Y-3437585D01*
X-839673Y-3432251D01*
X-826922Y-3425240D01*
X-815136Y-3416655D01*
X-804519Y-3406698D01*
X-795274Y-3395522D01*
X-787450Y-3383229D01*
X-781253Y-3370021D01*
X-776782Y-3356203D01*
X-774039Y-3341928D01*
X-773125Y-3327400D01*
X-774039Y-3312871D01*
X-776782Y-3298545D01*
X-781253Y-3284728D01*
X-787450Y-3271570D01*
X-795274Y-3259277D01*
X-804519Y-3248050D01*
X-815136Y-3238093D01*
X-826922Y-3229559D01*
X-839673Y-3222548D01*
X-853186Y-3217164D01*
X-867308Y-3213557D01*
X-881735Y-3211728D01*
X-896264Y-3211728D01*
X-910742Y-3213557D01*
X-924814Y-3217164D01*
X-938377Y-3222548D01*
X-951128Y-3229559D01*
X-962863Y-3238093D01*
X-973480Y-3248050D01*
X-982776Y-3259277D01*
X-990549Y-3271570D01*
X-996746Y-3284728D01*
X-1001268Y-3298545D01*
X-1004011Y-3312871D01*
X-1004925Y-3327400D01*
X-1004011Y-3341928D01*
X-1001268Y-3356203D01*
X-996746Y-3370021D01*
X-990549Y-3383229D01*
X-982776Y-3395522D01*
X-973480Y-3406698D01*
X-962863Y-3416655D01*
X-951128Y-3425240D01*
X-938377Y-3432251D01*
X-924814Y-3437585D01*
X-910742Y-3441242D01*
G37*
G36*
X627735Y-3443020D02*
G01*
X642264Y-3443020D01*
X656691Y-3441242D01*
X670814Y-3437585D01*
X684326Y-3432251D01*
X697077Y-3425240D01*
X708863Y-3416655D01*
X719480Y-3406698D01*
X728726Y-3395522D01*
X736549Y-3383229D01*
X742746Y-3370021D01*
X747217Y-3356203D01*
X749960Y-3341928D01*
X750874Y-3327400D01*
X749960Y-3312871D01*
X747217Y-3298545D01*
X742746Y-3284728D01*
X736549Y-3271570D01*
X728726Y-3259277D01*
X719480Y-3248050D01*
X708863Y-3238093D01*
X697077Y-3229559D01*
X684326Y-3222548D01*
X670814Y-3217164D01*
X656691Y-3213557D01*
X642264Y-3211728D01*
X627735Y-3211728D01*
X613257Y-3213557D01*
X599186Y-3217164D01*
X585622Y-3222548D01*
X572871Y-3229559D01*
X561136Y-3238093D01*
X550519Y-3248050D01*
X541223Y-3259277D01*
X533450Y-3271570D01*
X527253Y-3284728D01*
X522732Y-3298545D01*
X519988Y-3312871D01*
X519074Y-3327400D01*
X519988Y-3341928D01*
X522732Y-3356203D01*
X527253Y-3370021D01*
X533450Y-3383229D01*
X541223Y-3395522D01*
X550519Y-3406698D01*
X561136Y-3416655D01*
X572871Y-3425240D01*
X585622Y-3432251D01*
X599186Y-3437585D01*
X613257Y-3441242D01*
G37*
G36*
X-1658264Y-3443020D02*
G01*
X-1643735Y-3443020D01*
X-1629308Y-3441242D01*
X-1615186Y-3437585D01*
X-1601673Y-3432251D01*
X-1588922Y-3425240D01*
X-1577136Y-3416655D01*
X-1566519Y-3406698D01*
X-1557274Y-3395522D01*
X-1549450Y-3383229D01*
X-1543253Y-3370021D01*
X-1538782Y-3356203D01*
X-1536039Y-3341928D01*
X-1535125Y-3327400D01*
X-1536039Y-3312871D01*
X-1538782Y-3298545D01*
X-1543253Y-3284728D01*
X-1549450Y-3271570D01*
X-1557274Y-3259277D01*
X-1566519Y-3248050D01*
X-1577136Y-3238093D01*
X-1588922Y-3229559D01*
X-1601673Y-3222548D01*
X-1615186Y-3217164D01*
X-1629308Y-3213557D01*
X-1643735Y-3211728D01*
X-1658264Y-3211728D01*
X-1672742Y-3213557D01*
X-1686814Y-3217164D01*
X-1700377Y-3222548D01*
X-1713128Y-3229559D01*
X-1724863Y-3238093D01*
X-1735480Y-3248050D01*
X-1744776Y-3259277D01*
X-1752549Y-3271570D01*
X-1758746Y-3284728D01*
X-1763268Y-3298545D01*
X-1766011Y-3312871D01*
X-1766925Y-3327400D01*
X-1766011Y-3341928D01*
X-1763268Y-3356203D01*
X-1758746Y-3370021D01*
X-1752549Y-3383229D01*
X-1744776Y-3395522D01*
X-1735480Y-3406698D01*
X-1724863Y-3416655D01*
X-1713128Y-3425240D01*
X-1700377Y-3432251D01*
X-1686814Y-3437585D01*
X-1672742Y-3441242D01*
G37*
G36*
X-134264Y-3443020D02*
G01*
X-119735Y-3443020D01*
X-105308Y-3441242D01*
X-91186Y-3437585D01*
X-77673Y-3432251D01*
X-64922Y-3425240D01*
X-53136Y-3416655D01*
X-42519Y-3406698D01*
X-33274Y-3395522D01*
X-25450Y-3383229D01*
X-19253Y-3370021D01*
X-14782Y-3356203D01*
X-12039Y-3341928D01*
X-11125Y-3327400D01*
X-12039Y-3312871D01*
X-14782Y-3298545D01*
X-19253Y-3284728D01*
X-25450Y-3271570D01*
X-33274Y-3259277D01*
X-42519Y-3248050D01*
X-53136Y-3238093D01*
X-64922Y-3229559D01*
X-77673Y-3222548D01*
X-91186Y-3217164D01*
X-105308Y-3213557D01*
X-119735Y-3211728D01*
X-134264Y-3211728D01*
X-142341Y-3212744D01*
X-145389Y-3212642D01*
X-148336Y-3211677D01*
X-150774Y-3209848D01*
X-462483Y-2898140D01*
X-464718Y-2894787D01*
X-465429Y-2890774D01*
X-464566Y-2886760D01*
X-462127Y-2883458D01*
X-457403Y-2880969D01*
X-452475Y-2877870D01*
X-448411Y-2873756D01*
X-445312Y-2868879D01*
X-443382Y-2863392D01*
X-442671Y-2857093D01*
X-442671Y-2728214D01*
X-443382Y-2721914D01*
X-445312Y-2716428D01*
X-448411Y-2711551D01*
X-452475Y-2707436D01*
X-457403Y-2704388D01*
X-462838Y-2702458D01*
X-469188Y-2701747D01*
X-748030Y-2701747D01*
X-754329Y-2702458D01*
X-759815Y-2704388D01*
X-764692Y-2707436D01*
X-768807Y-2711551D01*
X-771906Y-2716428D01*
X-773785Y-2721914D01*
X-774496Y-2728214D01*
X-774496Y-2731566D01*
X-775258Y-2735478D01*
X-777494Y-2738780D01*
X-780796Y-2740964D01*
X-784656Y-2741726D01*
X-823976Y-2741726D01*
X-827328Y-2741168D01*
X-830326Y-2739542D01*
X-832612Y-2737002D01*
X-835101Y-2732989D01*
X-839216Y-2728874D01*
X-844092Y-2725826D01*
X-849579Y-2723896D01*
X-855878Y-2723184D01*
X-934719Y-2723184D01*
X-941069Y-2723896D01*
X-946505Y-2725826D01*
X-951433Y-2728874D01*
X-955497Y-2732989D01*
X-958596Y-2737866D01*
X-960526Y-2743352D01*
X-961237Y-2749651D01*
X-961237Y-2838551D01*
X-960526Y-2844850D01*
X-958596Y-2850337D01*
X-955497Y-2855214D01*
X-951433Y-2859328D01*
X-946505Y-2862376D01*
X-941069Y-2864307D01*
X-934719Y-2865018D01*
X-855878Y-2865018D01*
X-849579Y-2864307D01*
X-844092Y-2862376D01*
X-839216Y-2859328D01*
X-835101Y-2855214D01*
X-829868Y-2846781D01*
X-826516Y-2844393D01*
X-822452Y-2843580D01*
X-784656Y-2843580D01*
X-780796Y-2844342D01*
X-777494Y-2846527D01*
X-775258Y-2849829D01*
X-774496Y-2853740D01*
X-774496Y-2857093D01*
X-773785Y-2863392D01*
X-771906Y-2868879D01*
X-768807Y-2873756D01*
X-764692Y-2877870D01*
X-759815Y-2880969D01*
X-754329Y-2882849D01*
X-748030Y-2883560D01*
X-597001Y-2883560D01*
X-593090Y-2884322D01*
X-589788Y-2886557D01*
X-225094Y-3251250D01*
X-223113Y-3254044D01*
X-222199Y-3257346D01*
X-222402Y-3260750D01*
X-223672Y-3263900D01*
X-228549Y-3271570D01*
X-234746Y-3284728D01*
X-239267Y-3298545D01*
X-242011Y-3312871D01*
X-242925Y-3327400D01*
X-242011Y-3341928D01*
X-239267Y-3356203D01*
X-234746Y-3370021D01*
X-228549Y-3383229D01*
X-220776Y-3395522D01*
X-211480Y-3406698D01*
X-200863Y-3416655D01*
X-189128Y-3425240D01*
X-176377Y-3432251D01*
X-162814Y-3437585D01*
X-148742Y-3441242D01*
G37*
G36*
X-3047746Y-3429508D02*
G01*
X-2718104Y-3429508D01*
X-2712059Y-3428847D01*
X-2706573Y-3426917D01*
X-2701645Y-3423818D01*
X-2699308Y-3421684D01*
X-2648915Y-3371291D01*
X-2645105Y-3366566D01*
X-2642565Y-3361334D01*
X-2641295Y-3355695D01*
X-2641092Y-3352495D01*
X-2641092Y-2911246D01*
X-2640279Y-2907182D01*
X-2637891Y-2903829D01*
X-2240737Y-2532227D01*
X-2237486Y-2530195D01*
X-2233777Y-2529484D01*
X-1743557Y-2529484D01*
X-1740204Y-2530094D01*
X-1737207Y-2531719D01*
X-1734921Y-2534310D01*
X-1731213Y-2540304D01*
X-1727149Y-2544368D01*
X-1722221Y-2547467D01*
X-1716786Y-2549398D01*
X-1710436Y-2550109D01*
X-1591564Y-2550109D01*
X-1585264Y-2549398D01*
X-1579778Y-2547467D01*
X-1574901Y-2544368D01*
X-1570786Y-2540304D01*
X-1567738Y-2535377D01*
X-1565808Y-2529941D01*
X-1565097Y-2523591D01*
X-1565097Y-2174748D01*
X-1565808Y-2168448D01*
X-1567738Y-2162962D01*
X-1570786Y-2158085D01*
X-1574901Y-2153970D01*
X-1579778Y-2150922D01*
X-1585264Y-2148992D01*
X-1591564Y-2148281D01*
X-1710436Y-2148281D01*
X-1716786Y-2148992D01*
X-1722221Y-2150922D01*
X-1727149Y-2153970D01*
X-1728622Y-2155494D01*
X-1731924Y-2157679D01*
X-1735836Y-2158492D01*
X-2943453Y-2158492D01*
X-2947314Y-2157679D01*
X-2950616Y-2155494D01*
X-2952800Y-2152192D01*
X-2953613Y-2148332D01*
X-2953613Y-2069439D01*
X-2954324Y-2063089D01*
X-2956204Y-2057654D01*
X-2959303Y-2052726D01*
X-2963367Y-2048662D01*
X-2968294Y-2045563D01*
X-2974035Y-2043582D01*
X-2977591Y-2041398D01*
X-2979978Y-2038045D01*
X-2980842Y-2033981D01*
X-2980842Y-1961997D01*
X-2980232Y-1958644D01*
X-2978607Y-1955698D01*
X-2976067Y-1953412D01*
X-2970326Y-1949805D01*
X-2966212Y-1945690D01*
X-2963164Y-1940814D01*
X-2961233Y-1935327D01*
X-2960522Y-1929028D01*
X-2960522Y-1830171D01*
X-2961233Y-1823821D01*
X-2963164Y-1818386D01*
X-2966212Y-1813458D01*
X-2970326Y-1809394D01*
X-2975203Y-1806295D01*
X-2980690Y-1804365D01*
X-2986989Y-1803654D01*
X-3075838Y-1803654D01*
X-3082188Y-1804365D01*
X-3087624Y-1806295D01*
X-3092551Y-1809394D01*
X-3096615Y-1813458D01*
X-3099714Y-1818386D01*
X-3101594Y-1823821D01*
X-3102305Y-1830171D01*
X-3102305Y-1929028D01*
X-3101594Y-1935327D01*
X-3099714Y-1940814D01*
X-3096615Y-1945690D01*
X-3092551Y-1949805D01*
X-3087624Y-1952853D01*
X-3082188Y-1954784D01*
X-3075838Y-1955495D01*
X-3072790Y-1955495D01*
X-3068929Y-1956257D01*
X-3065627Y-1958492D01*
X-3063392Y-1961743D01*
X-3062630Y-1965655D01*
X-3062630Y-2033574D01*
X-3063290Y-2037181D01*
X-3065221Y-2040331D01*
X-3068116Y-2042566D01*
X-3077108Y-2045563D01*
X-3082036Y-2048662D01*
X-3086100Y-2052726D01*
X-3089198Y-2057654D01*
X-3091078Y-2063089D01*
X-3091789Y-2069439D01*
X-3091789Y-2148941D01*
X-3091078Y-2155240D01*
X-3089198Y-2160727D01*
X-3086100Y-2165604D01*
X-3083153Y-2168550D01*
X-3080969Y-2171852D01*
X-3080207Y-2175713D01*
X-3080969Y-2179624D01*
X-3083153Y-2182926D01*
X-3116935Y-2216658D01*
X-3120745Y-2221382D01*
X-3123234Y-2226614D01*
X-3124555Y-2232304D01*
X-3124708Y-2235504D01*
X-3123946Y-2953613D01*
X-3123946Y-3353308D01*
X-3123234Y-3359353D01*
X-3121355Y-3364839D01*
X-3118256Y-3369716D01*
X-3116122Y-3372104D01*
X-3066542Y-3421684D01*
X-3061766Y-3425494D01*
X-3056585Y-3428034D01*
X-3050895Y-3429304D01*
G37*
G36*
X50800Y-3154629D02*
G01*
X60502Y-3153816D01*
X69900Y-3151276D01*
X78740Y-3147161D01*
X86766Y-3141522D01*
X89560Y-3140151D01*
X92608Y-3139694D01*
X253492Y-3139694D01*
X261975Y-3138830D01*
X269646Y-3136544D01*
X276707Y-3132734D01*
X283260Y-3127349D01*
X610362Y-2800248D01*
X613664Y-2798064D01*
X617524Y-2797302D01*
X1602079Y-2797302D01*
X1610563Y-2796438D01*
X1618234Y-2794152D01*
X1625295Y-2790342D01*
X1631848Y-2784957D01*
X2006142Y-2410663D01*
X2011578Y-2404110D01*
X2015337Y-2396998D01*
X2017674Y-2389378D01*
X2018487Y-2380894D01*
X2018487Y-943864D01*
X2017674Y-935431D01*
X2015337Y-927760D01*
X2011578Y-920699D01*
X2006142Y-914095D01*
X1471168Y-379120D01*
X1469034Y-376021D01*
X1468221Y-372364D01*
X1468729Y-368655D01*
X1472539Y-357378D01*
X1475232Y-343966D01*
X1476146Y-330301D01*
X1475232Y-316636D01*
X1472539Y-303225D01*
X1468170Y-290271D01*
X1462125Y-277977D01*
X1454505Y-266598D01*
X1445463Y-256336D01*
X1435201Y-247294D01*
X1423822Y-239674D01*
X1411528Y-233629D01*
X1398574Y-229260D01*
X1385163Y-226567D01*
X1371498Y-225653D01*
X1357833Y-226567D01*
X1344422Y-229260D01*
X1331468Y-233629D01*
X1319174Y-239674D01*
X1307795Y-247294D01*
X1297533Y-256336D01*
X1288491Y-266598D01*
X1280871Y-277977D01*
X1274826Y-290271D01*
X1270457Y-303225D01*
X1267764Y-316636D01*
X1266850Y-330301D01*
X1267764Y-343966D01*
X1270457Y-357378D01*
X1274826Y-370332D01*
X1280871Y-382625D01*
X1288491Y-394004D01*
X1297533Y-404266D01*
X1307795Y-413308D01*
X1319174Y-420928D01*
X1331468Y-426974D01*
X1344422Y-431342D01*
X1357833Y-434035D01*
X1371498Y-434949D01*
X1385163Y-434035D01*
X1403146Y-430530D01*
X1406753Y-431393D01*
X1409852Y-433527D01*
X1933702Y-957376D01*
X1935886Y-960628D01*
X1936699Y-964539D01*
X1936699Y-2360218D01*
X1935886Y-2364130D01*
X1933702Y-2367432D01*
X1588617Y-2712516D01*
X1585315Y-2714701D01*
X1581454Y-2715463D01*
X596900Y-2715463D01*
X588416Y-2716326D01*
X580745Y-2718612D01*
X573684Y-2722422D01*
X567131Y-2727807D01*
X240029Y-3054908D01*
X236728Y-3057093D01*
X232867Y-3057855D01*
X92608Y-3057855D01*
X89509Y-3057398D01*
X86766Y-3056026D01*
X78740Y-3050387D01*
X69900Y-3046272D01*
X60502Y-3043783D01*
X50800Y-3042920D01*
X41097Y-3043783D01*
X31699Y-3046272D01*
X22860Y-3050387D01*
X14884Y-3055975D01*
X7975Y-3062884D01*
X2387Y-3070860D01*
X-1727Y-3079699D01*
X-4216Y-3089097D01*
X-5080Y-3098800D01*
X-4216Y-3108502D01*
X-1727Y-3117900D01*
X2387Y-3126740D01*
X7975Y-3134715D01*
X14884Y-3141573D01*
X22860Y-3147161D01*
X31699Y-3151276D01*
X41097Y-3153816D01*
G37*
G36*
X1943201Y-3067050D02*
G01*
X1961997Y-3067050D01*
X1980742Y-3065119D01*
X1999183Y-3061360D01*
X2017166Y-3055721D01*
X2034489Y-3048254D01*
X2050948Y-3039110D01*
X2066391Y-3028391D01*
X2080666Y-3016097D01*
X2093671Y-3002483D01*
X2105152Y-2987548D01*
X2115159Y-2971596D01*
X2123440Y-2954680D01*
X2129993Y-2937002D01*
X2134666Y-2918815D01*
X2137562Y-2900172D01*
X2138476Y-2881376D01*
X2137562Y-2862580D01*
X2134666Y-2843936D01*
X2129993Y-2825750D01*
X2123440Y-2808071D01*
X2115159Y-2791155D01*
X2105152Y-2775204D01*
X2093671Y-2760268D01*
X2080666Y-2746654D01*
X2066391Y-2734360D01*
X2050948Y-2723642D01*
X2034489Y-2714498D01*
X2017166Y-2707030D01*
X1999183Y-2701391D01*
X1980742Y-2697632D01*
X1961997Y-2695702D01*
X1943201Y-2695702D01*
X1924456Y-2697632D01*
X1906016Y-2701391D01*
X1888032Y-2707030D01*
X1870710Y-2714498D01*
X1854250Y-2723642D01*
X1838807Y-2734360D01*
X1824532Y-2746654D01*
X1811528Y-2760268D01*
X1800047Y-2775204D01*
X1790039Y-2791155D01*
X1781759Y-2808071D01*
X1775206Y-2825750D01*
X1770532Y-2843936D01*
X1767636Y-2862580D01*
X1766722Y-2881376D01*
X1767636Y-2900172D01*
X1770532Y-2918815D01*
X1775206Y-2937002D01*
X1781759Y-2954680D01*
X1790039Y-2971596D01*
X1800047Y-2987548D01*
X1811528Y-3002483D01*
X1824532Y-3016097D01*
X1838807Y-3028391D01*
X1854250Y-3039110D01*
X1870710Y-3048254D01*
X1888032Y-3055721D01*
X1906016Y-3061360D01*
X1924456Y-3065119D01*
G37*
G36*
X-967841Y-2580386D02*
G01*
X-957275Y-2579979D01*
X-946861Y-2577846D01*
X-936955Y-2574086D01*
X-927760Y-2568803D01*
X-919581Y-2562098D01*
X-912520Y-2554173D01*
X-906881Y-2545181D01*
X-902716Y-2535428D01*
X-899261Y-2521508D01*
X-897229Y-2518613D01*
X-788771Y-2410155D01*
X-785368Y-2407920D01*
X-781354Y-2407158D01*
X-777392Y-2408072D01*
X-774090Y-2410460D01*
X-768807Y-2419197D01*
X-764692Y-2423312D01*
X-759815Y-2426411D01*
X-754329Y-2428290D01*
X-748030Y-2429002D01*
X-469188Y-2429002D01*
X-462838Y-2428290D01*
X-457403Y-2426411D01*
X-452475Y-2423312D01*
X-448411Y-2419197D01*
X-445312Y-2414320D01*
X-443382Y-2408834D01*
X-442671Y-2402535D01*
X-442671Y-2273655D01*
X-443382Y-2267356D01*
X-445312Y-2261870D01*
X-448411Y-2256993D01*
X-452475Y-2252878D01*
X-457403Y-2249830D01*
X-462838Y-2247900D01*
X-469188Y-2247188D01*
X-748030Y-2247188D01*
X-754329Y-2247900D01*
X-759815Y-2249830D01*
X-764692Y-2252878D01*
X-768807Y-2256993D01*
X-771906Y-2261870D01*
X-773785Y-2267356D01*
X-774496Y-2273655D01*
X-774496Y-2285339D01*
X-775258Y-2289200D01*
X-777494Y-2292502D01*
X-780796Y-2294686D01*
X-784656Y-2295499D01*
X-796798Y-2295499D01*
X-801420Y-2295702D01*
X-805840Y-2296261D01*
X-810158Y-2297226D01*
X-814425Y-2298547D01*
X-818540Y-2300274D01*
X-822452Y-2302306D01*
X-826211Y-2304694D01*
X-829716Y-2307386D01*
X-833170Y-2310536D01*
X-969365Y-2446782D01*
X-972108Y-2448712D01*
X-975360Y-2449677D01*
X-978357Y-2450033D01*
X-988568Y-2452979D01*
X-998118Y-2457500D01*
X-1006856Y-2463546D01*
X-1014526Y-2470912D01*
X-1020876Y-2479344D01*
X-1025804Y-2488742D01*
X-1029157Y-2498801D01*
X-1030884Y-2509266D01*
X-1030884Y-2519883D01*
X-1029157Y-2530348D01*
X-1025804Y-2540406D01*
X-1020876Y-2549804D01*
X-1014526Y-2558237D01*
X-1006856Y-2565603D01*
X-998118Y-2571648D01*
X-988568Y-2576169D01*
X-978357Y-2579116D01*
G37*
G36*
X1473200Y-2519629D02*
G01*
X1482902Y-2518816D01*
X1492300Y-2516276D01*
X1501140Y-2512161D01*
X1509115Y-2506573D01*
X1515973Y-2499664D01*
X1521561Y-2491689D01*
X1525676Y-2482900D01*
X1528216Y-2473452D01*
X1529080Y-2463800D01*
X1528216Y-2454097D01*
X1525676Y-2444648D01*
X1521561Y-2435860D01*
X1520037Y-2433624D01*
X1518564Y-2430475D01*
X1518259Y-2426919D01*
X1519174Y-2423515D01*
X1521206Y-2420620D01*
X1706168Y-2235657D01*
X1711553Y-2229104D01*
X1715312Y-2222042D01*
X1717649Y-2214372D01*
X1718513Y-2205888D01*
X1718513Y-1206906D01*
X1717649Y-1198422D01*
X1715312Y-1190752D01*
X1711553Y-1183690D01*
X1706168Y-1177086D01*
X1096467Y-567436D01*
X1094282Y-564134D01*
X1093520Y-560222D01*
X1093520Y-478586D01*
X1094333Y-474573D01*
X1096721Y-471170D01*
X1100226Y-469036D01*
X1104341Y-468477D01*
X1108303Y-469595D01*
X1111504Y-472185D01*
X1116025Y-477672D01*
X1759508Y-1121156D01*
X1761743Y-1124458D01*
X1762506Y-1128318D01*
X1762506Y-1558340D01*
X1761998Y-1561439D01*
X1760677Y-1564182D01*
X1755038Y-1572260D01*
X1750923Y-1581048D01*
X1748383Y-1590497D01*
X1747520Y-1600200D01*
X1748383Y-1609852D01*
X1750923Y-1619300D01*
X1755038Y-1628089D01*
X1760626Y-1636064D01*
X1767484Y-1642973D01*
X1775460Y-1648561D01*
X1784299Y-1652676D01*
X1793697Y-1655216D01*
X1803400Y-1656029D01*
X1813102Y-1655216D01*
X1822500Y-1652676D01*
X1831339Y-1648561D01*
X1839315Y-1642973D01*
X1846173Y-1636064D01*
X1851761Y-1628089D01*
X1855876Y-1619300D01*
X1858416Y-1609852D01*
X1859280Y-1600200D01*
X1858416Y-1590497D01*
X1855876Y-1581048D01*
X1851761Y-1572260D01*
X1846122Y-1564182D01*
X1844802Y-1561439D01*
X1844293Y-1558340D01*
X1844293Y-1107694D01*
X1843481Y-1099210D01*
X1841144Y-1091539D01*
X1837385Y-1084478D01*
X1831949Y-1077925D01*
X1188466Y-434441D01*
X1186281Y-431139D01*
X1185519Y-427228D01*
X1185519Y1358747D01*
X1186281Y1362710D01*
X1188567Y1366012D01*
X1192326Y1368348D01*
X1205077Y1375359D01*
X1216863Y1383944D01*
X1227480Y1393901D01*
X1236726Y1405077D01*
X1244549Y1417370D01*
X1250746Y1430578D01*
X1255217Y1444396D01*
X1257960Y1458671D01*
X1258874Y1473200D01*
X1257960Y1487728D01*
X1255217Y1502054D01*
X1250746Y1515872D01*
X1244549Y1529029D01*
X1236726Y1541322D01*
X1227480Y1552549D01*
X1216863Y1562506D01*
X1205077Y1571040D01*
X1192326Y1578051D01*
X1178814Y1583436D01*
X1164691Y1587042D01*
X1150264Y1588871D01*
X1135735Y1588871D01*
X1121257Y1587042D01*
X1107186Y1583436D01*
X1093622Y1578051D01*
X1080871Y1571040D01*
X1069136Y1562506D01*
X1058519Y1552549D01*
X1049223Y1541322D01*
X1041450Y1529029D01*
X1035253Y1515872D01*
X1030732Y1502054D01*
X1027988Y1487728D01*
X1027074Y1473200D01*
X1027988Y1458671D01*
X1030732Y1444396D01*
X1035253Y1430578D01*
X1041450Y1417370D01*
X1049223Y1405077D01*
X1058519Y1393901D01*
X1069136Y1383944D01*
X1080871Y1375359D01*
X1093622Y1368348D01*
X1097280Y1366926D01*
X1100632Y1364742D01*
X1102918Y1361389D01*
X1103680Y1357477D01*
X1103680Y1011986D01*
X1102868Y1007922D01*
X1100480Y1004569D01*
X1096975Y1002385D01*
X1092860Y1001826D01*
X1088898Y1002944D01*
X1085697Y1005535D01*
X1081176Y1011021D01*
X934466Y1157732D01*
X932281Y1161034D01*
X931519Y1164894D01*
X931519Y1358747D01*
X932281Y1362659D01*
X934567Y1366012D01*
X938326Y1368348D01*
X951077Y1375359D01*
X962863Y1383944D01*
X973480Y1393901D01*
X982726Y1405077D01*
X990549Y1417370D01*
X996746Y1430578D01*
X1001217Y1444396D01*
X1003960Y1458671D01*
X1004874Y1473200D01*
X1003960Y1487728D01*
X1001217Y1502054D01*
X996746Y1515872D01*
X990549Y1529029D01*
X982726Y1541322D01*
X973480Y1552549D01*
X962863Y1562506D01*
X951077Y1571040D01*
X938326Y1578051D01*
X924814Y1583436D01*
X910691Y1587042D01*
X896264Y1588871D01*
X881735Y1588871D01*
X867257Y1587042D01*
X853186Y1583436D01*
X839622Y1578051D01*
X826871Y1571040D01*
X815136Y1562506D01*
X804519Y1552549D01*
X795223Y1541322D01*
X787450Y1529029D01*
X781253Y1515872D01*
X776732Y1502054D01*
X773988Y1487728D01*
X773074Y1473200D01*
X773988Y1458671D01*
X776732Y1444396D01*
X781253Y1430578D01*
X787450Y1417370D01*
X795223Y1405077D01*
X804519Y1393901D01*
X815136Y1383944D01*
X826871Y1375359D01*
X839622Y1368348D01*
X843280Y1366926D01*
X846632Y1364742D01*
X848868Y1361440D01*
X849680Y1357477D01*
X849680Y1153922D01*
X848918Y1150010D01*
X846683Y1146708D01*
X843432Y1144524D01*
X839520Y1143762D01*
X835609Y1144524D01*
X832358Y1146708D01*
X680466Y1298600D01*
X678281Y1301902D01*
X677519Y1305763D01*
X677519Y1358747D01*
X678281Y1362659D01*
X680567Y1366012D01*
X684326Y1368348D01*
X697077Y1375359D01*
X708863Y1383944D01*
X719480Y1393901D01*
X728726Y1405077D01*
X736549Y1417370D01*
X742746Y1430578D01*
X747217Y1444396D01*
X749960Y1458671D01*
X750874Y1473200D01*
X749960Y1487728D01*
X747217Y1502054D01*
X742746Y1515872D01*
X736549Y1529029D01*
X728726Y1541322D01*
X719480Y1552549D01*
X708863Y1562506D01*
X697077Y1571040D01*
X684326Y1578051D01*
X670814Y1583436D01*
X656691Y1587042D01*
X642264Y1588871D01*
X627735Y1588871D01*
X613257Y1587042D01*
X599186Y1583436D01*
X585622Y1578051D01*
X572871Y1571040D01*
X561136Y1562506D01*
X550519Y1552549D01*
X541223Y1541322D01*
X533450Y1529029D01*
X527253Y1515872D01*
X522732Y1502054D01*
X519988Y1487728D01*
X519074Y1473200D01*
X519988Y1458671D01*
X522732Y1444396D01*
X527253Y1430578D01*
X533450Y1417370D01*
X541223Y1405077D01*
X550519Y1393901D01*
X561136Y1383944D01*
X572871Y1375359D01*
X585622Y1368348D01*
X589280Y1366926D01*
X592632Y1364742D01*
X594868Y1361440D01*
X595680Y1357477D01*
X595680Y1285138D01*
X596493Y1276654D01*
X598830Y1268984D01*
X602640Y1261922D01*
X608025Y1255318D01*
X908710Y954633D01*
X910894Y951331D01*
X911656Y947470D01*
X911656Y805332D01*
X910844Y801268D01*
X908456Y797915D01*
X904900Y795731D01*
X900785Y795223D01*
X896772Y796340D01*
X893571Y799033D01*
X891692Y802741D01*
X890676Y806500D01*
X886561Y815340D01*
X880973Y823315D01*
X874115Y830224D01*
X866140Y835812D01*
X857300Y839927D01*
X847902Y842416D01*
X838200Y843280D01*
X828497Y842416D01*
X819099Y839927D01*
X810260Y835812D01*
X802233Y830173D01*
X799439Y828802D01*
X796391Y828344D01*
X582523Y828344D01*
X578459Y829157D01*
X575056Y831596D01*
X572922Y835152D01*
X570636Y841705D01*
X567537Y846632D01*
X563473Y850696D01*
X558546Y853795D01*
X553110Y855675D01*
X546760Y856386D01*
X467258Y856386D01*
X460959Y855675D01*
X455472Y853795D01*
X450596Y850696D01*
X446481Y846632D01*
X443433Y841705D01*
X441299Y835660D01*
X439166Y832103D01*
X435762Y829665D01*
X431698Y828852D01*
X427634Y829665D01*
X424230Y832103D01*
X422097Y835660D01*
X419963Y841705D01*
X416915Y846632D01*
X412800Y850696D01*
X407924Y853795D01*
X402437Y855675D01*
X396138Y856386D01*
X316636Y856386D01*
X310286Y855675D01*
X304850Y853795D01*
X299923Y850696D01*
X295859Y846632D01*
X292760Y841705D01*
X290830Y836269D01*
X290118Y829919D01*
X290118Y744677D01*
X290830Y738327D01*
X292760Y732891D01*
X295859Y727964D01*
X299923Y723900D01*
X304850Y720801D01*
X308762Y719429D01*
X312318Y717296D01*
X314706Y713892D01*
X315569Y709879D01*
X315569Y676808D01*
X315061Y673760D01*
X313740Y671017D01*
X308102Y662940D01*
X303987Y654100D01*
X301447Y644702D01*
X300583Y635000D01*
X301447Y625297D01*
X303987Y615899D01*
X308102Y607060D01*
X313690Y599084D01*
X320548Y592226D01*
X328523Y586638D01*
X337362Y582523D01*
X346760Y579983D01*
X356463Y579170D01*
X366166Y579983D01*
X375564Y582523D01*
X384403Y586638D01*
X392379Y592226D01*
X399237Y599084D01*
X404825Y607060D01*
X408940Y615899D01*
X411480Y625297D01*
X412343Y635000D01*
X411480Y644702D01*
X408940Y654100D01*
X404825Y662940D01*
X399186Y671017D01*
X397865Y673760D01*
X397357Y676808D01*
X397357Y709930D01*
X398221Y713994D01*
X400608Y717346D01*
X404164Y719531D01*
X407924Y720801D01*
X412800Y723900D01*
X416915Y727964D01*
X419963Y732891D01*
X422097Y738936D01*
X424230Y742492D01*
X427634Y744931D01*
X431698Y745744D01*
X435762Y744931D01*
X439166Y742492D01*
X441299Y738936D01*
X443433Y732891D01*
X446481Y727964D01*
X450596Y723900D01*
X455472Y720801D01*
X460959Y718921D01*
X467258Y718210D01*
X546760Y718210D01*
X553110Y718921D01*
X558546Y720801D01*
X563473Y723900D01*
X567537Y727964D01*
X570585Y732840D01*
X572922Y739648D01*
X575056Y743254D01*
X578459Y745642D01*
X582523Y746506D01*
X796340Y746506D01*
X799388Y746048D01*
X802182Y744677D01*
X810260Y739038D01*
X819099Y734923D01*
X828497Y732383D01*
X838200Y731570D01*
X847902Y732383D01*
X857300Y734923D01*
X866140Y739038D01*
X874115Y744626D01*
X880973Y751484D01*
X886561Y759460D01*
X890676Y768299D01*
X891692Y772109D01*
X893571Y775817D01*
X896772Y778459D01*
X900785Y779627D01*
X904900Y779068D01*
X908456Y776935D01*
X910844Y773531D01*
X911656Y769467D01*
X911656Y424332D01*
X910844Y420268D01*
X908456Y416915D01*
X904900Y414731D01*
X900785Y414223D01*
X896772Y415340D01*
X893571Y418033D01*
X891692Y421741D01*
X890676Y425500D01*
X886561Y434340D01*
X880973Y442315D01*
X874115Y449224D01*
X866140Y454812D01*
X857300Y458927D01*
X847902Y461416D01*
X838200Y462280D01*
X828497Y461416D01*
X819099Y458927D01*
X810260Y454812D01*
X802233Y449173D01*
X799439Y447801D01*
X796391Y447344D01*
X582523Y447344D01*
X578459Y448157D01*
X575056Y450596D01*
X572922Y454151D01*
X570636Y460705D01*
X567537Y465632D01*
X563473Y469696D01*
X558546Y472795D01*
X553110Y474675D01*
X546760Y475386D01*
X467258Y475386D01*
X460959Y474675D01*
X455472Y472795D01*
X450596Y469696D01*
X446481Y465632D01*
X443433Y460705D01*
X441299Y454659D01*
X439166Y451104D01*
X435762Y448665D01*
X431698Y447852D01*
X427634Y448665D01*
X424230Y451104D01*
X422097Y454659D01*
X419963Y460705D01*
X416915Y465632D01*
X412800Y469696D01*
X407924Y472795D01*
X402437Y474675D01*
X396138Y475386D01*
X316636Y475386D01*
X310286Y474675D01*
X304850Y472795D01*
X299923Y469696D01*
X295859Y465632D01*
X292760Y460705D01*
X290830Y455269D01*
X290118Y448919D01*
X290118Y363677D01*
X290830Y357327D01*
X292760Y351891D01*
X295859Y346964D01*
X299923Y342900D01*
X304850Y339801D01*
X308762Y338429D01*
X312318Y336296D01*
X314706Y332892D01*
X315569Y328879D01*
X315569Y304444D01*
X316382Y296011D01*
X318719Y288340D01*
X322478Y281279D01*
X327914Y274675D01*
X373481Y229057D01*
X375513Y226212D01*
X376428Y222758D01*
X376783Y218897D01*
X379272Y209499D01*
X383387Y200660D01*
X388975Y192684D01*
X395884Y185826D01*
X403860Y180238D01*
X412699Y176123D01*
X422097Y173583D01*
X431800Y172770D01*
X441502Y173583D01*
X450900Y176123D01*
X459740Y180238D01*
X467715Y185826D01*
X474573Y192684D01*
X480161Y200660D01*
X484276Y209499D01*
X486816Y218897D01*
X487680Y228600D01*
X486816Y238302D01*
X484276Y247700D01*
X480161Y256540D01*
X474573Y264515D01*
X467715Y271424D01*
X459740Y277012D01*
X450900Y281127D01*
X441502Y283616D01*
X437692Y283972D01*
X434238Y284886D01*
X431393Y286918D01*
X400354Y317906D01*
X398170Y321208D01*
X397357Y325120D01*
X397357Y328930D01*
X398221Y332994D01*
X400608Y336346D01*
X404164Y338531D01*
X407924Y339801D01*
X412800Y342900D01*
X416915Y346964D01*
X419963Y351891D01*
X422097Y357936D01*
X424230Y361492D01*
X427634Y363931D01*
X431698Y364744D01*
X435762Y363931D01*
X439166Y361492D01*
X441299Y357936D01*
X443433Y351891D01*
X446481Y346964D01*
X450596Y342900D01*
X455472Y339801D01*
X460959Y337921D01*
X467258Y337210D01*
X546760Y337210D01*
X553110Y337921D01*
X558546Y339801D01*
X563473Y342900D01*
X567537Y346964D01*
X570585Y351840D01*
X572922Y358648D01*
X575056Y362254D01*
X578459Y364642D01*
X582523Y365506D01*
X796340Y365506D01*
X799388Y365048D01*
X802182Y363677D01*
X810260Y358038D01*
X819099Y353923D01*
X823518Y352704D01*
X827430Y350723D01*
X830071Y347218D01*
X831037Y342900D01*
X830071Y338632D01*
X827430Y335127D01*
X823518Y333095D01*
X819099Y331927D01*
X810260Y327812D01*
X802284Y322224D01*
X795375Y315315D01*
X789787Y307340D01*
X785672Y298500D01*
X783183Y289102D01*
X782828Y285292D01*
X781913Y281838D01*
X779881Y278993D01*
X595630Y94691D01*
X592328Y92506D01*
X588467Y91744D01*
X582523Y91744D01*
X578459Y92557D01*
X575056Y94996D01*
X572922Y98552D01*
X570636Y105105D01*
X567537Y110032D01*
X563473Y114096D01*
X558546Y117195D01*
X553110Y119075D01*
X546760Y119786D01*
X467258Y119786D01*
X460959Y119075D01*
X455472Y117195D01*
X450596Y114096D01*
X446481Y110032D01*
X443433Y105105D01*
X441299Y99060D01*
X439166Y95504D01*
X435762Y93065D01*
X431698Y92252D01*
X427634Y93065D01*
X424230Y95504D01*
X422097Y99060D01*
X419963Y105105D01*
X416915Y110032D01*
X412800Y114096D01*
X407924Y117195D01*
X402437Y119075D01*
X396138Y119786D01*
X316636Y119786D01*
X310286Y119075D01*
X304850Y117195D01*
X299923Y114096D01*
X295859Y110032D01*
X292760Y105105D01*
X290830Y99669D01*
X290118Y93319D01*
X290118Y8077D01*
X290830Y1727D01*
X292760Y-3708D01*
X295859Y-8636D01*
X299923Y-12700D01*
X304850Y-15798D01*
X308762Y-17170D01*
X312318Y-19304D01*
X314706Y-22707D01*
X315569Y-26720D01*
X315569Y-51155D01*
X316382Y-59588D01*
X318719Y-67259D01*
X322478Y-74320D01*
X327914Y-80924D01*
X373481Y-126542D01*
X375513Y-129387D01*
X376428Y-132842D01*
X376783Y-136702D01*
X379272Y-146100D01*
X383387Y-154940D01*
X388975Y-162915D01*
X395884Y-169773D01*
X403860Y-175361D01*
X412699Y-179476D01*
X422097Y-182016D01*
X431800Y-182829D01*
X441502Y-182016D01*
X450900Y-179476D01*
X459740Y-175361D01*
X467715Y-169773D01*
X474573Y-162915D01*
X480161Y-154940D01*
X484276Y-146100D01*
X486816Y-136702D01*
X487680Y-127000D01*
X486816Y-117297D01*
X484276Y-107899D01*
X480161Y-99060D01*
X474573Y-91084D01*
X467715Y-84175D01*
X459740Y-78587D01*
X450900Y-74472D01*
X441502Y-71983D01*
X437692Y-71628D01*
X434238Y-70713D01*
X431393Y-68681D01*
X400354Y-37693D01*
X398170Y-34391D01*
X397357Y-30480D01*
X397357Y-26670D01*
X398221Y-22606D01*
X400608Y-19253D01*
X404164Y-17068D01*
X407924Y-15798D01*
X412800Y-12700D01*
X416915Y-8636D01*
X419963Y-3708D01*
X422097Y2336D01*
X424230Y5892D01*
X427634Y8331D01*
X431698Y9144D01*
X435762Y8331D01*
X439166Y5892D01*
X441299Y2336D01*
X443433Y-3708D01*
X446481Y-8636D01*
X450596Y-12700D01*
X455472Y-15798D01*
X460959Y-17678D01*
X467258Y-18389D01*
X546760Y-18389D01*
X553110Y-17678D01*
X558546Y-15798D01*
X563473Y-12700D01*
X567537Y-8636D01*
X570585Y-3759D01*
X572922Y3048D01*
X575056Y6654D01*
X578459Y9042D01*
X582523Y9906D01*
X609092Y9906D01*
X617575Y10769D01*
X625246Y13055D01*
X632307Y16865D01*
X638860Y22250D01*
X837742Y221132D01*
X840638Y223164D01*
X844042Y224078D01*
X847902Y224383D01*
X857300Y226923D01*
X866140Y231038D01*
X874115Y236626D01*
X880973Y243484D01*
X886561Y251460D01*
X890676Y260299D01*
X891692Y264109D01*
X893571Y267817D01*
X896772Y270459D01*
X900785Y271627D01*
X904900Y271068D01*
X908456Y268935D01*
X910844Y265531D01*
X911656Y261467D01*
X911656Y-839571D01*
X911199Y-842619D01*
X909828Y-845362D01*
X904189Y-853440D01*
X900074Y-862279D01*
X897534Y-871677D01*
X896721Y-881380D01*
X897534Y-891082D01*
X900074Y-900480D01*
X904189Y-909319D01*
X909777Y-917295D01*
X916686Y-924153D01*
X924661Y-929741D01*
X933450Y-933856D01*
X942898Y-936396D01*
X952601Y-937260D01*
X962253Y-936396D01*
X971702Y-933856D01*
X980490Y-929741D01*
X988466Y-924153D01*
X995375Y-917295D01*
X1000963Y-909319D01*
X1005078Y-900480D01*
X1007618Y-891082D01*
X1008430Y-881380D01*
X1007618Y-871677D01*
X1005078Y-862279D01*
X1000963Y-853440D01*
X995324Y-845413D01*
X993952Y-842619D01*
X993495Y-839571D01*
X993495Y-595172D01*
X994308Y-591108D01*
X996696Y-587756D01*
X1000150Y-585622D01*
X1004214Y-585012D01*
X1008176Y-586079D01*
X1011428Y-588619D01*
X1013358Y-592226D01*
X1014831Y-597001D01*
X1018590Y-604062D01*
X1024026Y-610666D01*
X1633728Y-1220368D01*
X1635912Y-1223670D01*
X1636674Y-1227531D01*
X1636674Y-2185212D01*
X1635912Y-2189124D01*
X1633728Y-2192426D01*
X1444650Y-2381504D01*
X1439214Y-2388057D01*
X1435455Y-2395118D01*
X1433118Y-2402789D01*
X1432306Y-2411272D01*
X1432306Y-2421940D01*
X1431798Y-2425039D01*
X1430477Y-2427782D01*
X1424838Y-2435860D01*
X1420723Y-2444648D01*
X1418183Y-2454097D01*
X1417320Y-2463800D01*
X1418183Y-2473452D01*
X1420723Y-2482900D01*
X1424838Y-2491689D01*
X1430426Y-2499664D01*
X1437284Y-2506573D01*
X1445260Y-2512161D01*
X1454099Y-2516276D01*
X1463497Y-2518816D01*
G37*
G36*
X203200Y-2138629D02*
G01*
X212902Y-2137816D01*
X222300Y-2135276D01*
X231140Y-2131161D01*
X239115Y-2125573D01*
X245973Y-2118664D01*
X251561Y-2110689D01*
X255676Y-2101900D01*
X258216Y-2092452D01*
X259079Y-2082800D01*
X258216Y-2073097D01*
X255676Y-2063648D01*
X251561Y-2054860D01*
X245922Y-2046782D01*
X244602Y-2044039D01*
X244094Y-2040940D01*
X244094Y-1769008D01*
X244602Y-1765909D01*
X245922Y-1763166D01*
X251561Y-1755089D01*
X255676Y-1746300D01*
X258216Y-1736852D01*
X259079Y-1727200D01*
X258216Y-1717497D01*
X255676Y-1708048D01*
X251561Y-1699260D01*
X245973Y-1691284D01*
X239115Y-1684375D01*
X231140Y-1678787D01*
X222300Y-1674672D01*
X212902Y-1672132D01*
X203200Y-1671320D01*
X193497Y-1672132D01*
X184099Y-1674672D01*
X175260Y-1678787D01*
X167284Y-1684375D01*
X160426Y-1691284D01*
X154838Y-1699260D01*
X150723Y-1708048D01*
X148183Y-1717497D01*
X147320Y-1727200D01*
X148183Y-1736852D01*
X150723Y-1746300D01*
X154838Y-1755089D01*
X160477Y-1763166D01*
X161798Y-1765909D01*
X162306Y-1769008D01*
X162306Y-2040940D01*
X161798Y-2044039D01*
X160477Y-2046782D01*
X154838Y-2054860D01*
X150723Y-2063648D01*
X148183Y-2073097D01*
X147320Y-2082800D01*
X148183Y-2092452D01*
X150723Y-2101900D01*
X154838Y-2110689D01*
X160426Y-2118664D01*
X167284Y-2125573D01*
X175260Y-2131161D01*
X184099Y-2135276D01*
X193497Y-2137816D01*
G37*
G36*
X1193800Y-1859229D02*
G01*
X1203502Y-1858416D01*
X1212900Y-1855876D01*
X1221740Y-1851761D01*
X1229715Y-1846173D01*
X1236573Y-1839264D01*
X1242161Y-1831289D01*
X1246276Y-1822500D01*
X1248816Y-1813052D01*
X1249680Y-1803400D01*
X1248816Y-1793697D01*
X1246276Y-1784248D01*
X1242161Y-1775460D01*
X1236573Y-1767484D01*
X1229715Y-1760575D01*
X1221740Y-1754987D01*
X1212900Y-1750872D01*
X1203502Y-1748332D01*
X1193800Y-1747520D01*
X1184097Y-1748332D01*
X1174699Y-1750872D01*
X1165860Y-1754987D01*
X1157782Y-1760626D01*
X1155039Y-1761998D01*
X1151991Y-1762455D01*
X1111656Y-1762455D01*
X1108049Y-1761794D01*
X1104900Y-1759915D01*
X971905Y-1641093D01*
X969365Y-1637690D01*
X968502Y-1633524D01*
X968502Y-1406855D01*
X967638Y-1398422D01*
X965352Y-1390751D01*
X961542Y-1383690D01*
X956157Y-1377086D01*
X191465Y-612444D01*
X189280Y-609142D01*
X188518Y-605231D01*
X188518Y-524865D01*
X189280Y-521004D01*
X191465Y-517702D01*
X194767Y-515518D01*
X198678Y-514705D01*
X202539Y-515518D01*
X205841Y-517702D01*
X848106Y-1159967D01*
X854710Y-1165352D01*
X861771Y-1169162D01*
X869442Y-1171448D01*
X877874Y-1172311D01*
X960780Y-1172311D01*
X963828Y-1172768D01*
X966622Y-1174140D01*
X974648Y-1179779D01*
X983487Y-1183894D01*
X992886Y-1186434D01*
X1002588Y-1187246D01*
X1012291Y-1186434D01*
X1021689Y-1183894D01*
X1030528Y-1179779D01*
X1038504Y-1174191D01*
X1045362Y-1167282D01*
X1050950Y-1159306D01*
X1055065Y-1150518D01*
X1057605Y-1141069D01*
X1058468Y-1131417D01*
X1057605Y-1121714D01*
X1055065Y-1112266D01*
X1050950Y-1103477D01*
X1045362Y-1095502D01*
X1038504Y-1088593D01*
X1030528Y-1083005D01*
X1021689Y-1078890D01*
X1012291Y-1076350D01*
X1002588Y-1075537D01*
X992886Y-1076350D01*
X983487Y-1078890D01*
X974648Y-1083005D01*
X966622Y-1088644D01*
X963828Y-1090015D01*
X960780Y-1090472D01*
X898550Y-1090472D01*
X894638Y-1089710D01*
X891336Y-1087526D01*
X271475Y-467614D01*
X269290Y-464312D01*
X268478Y-460451D01*
X268478Y368096D01*
X267665Y376580D01*
X265328Y384251D01*
X261569Y391312D01*
X256133Y397865D01*
X-389636Y1043686D01*
X-396240Y1049070D01*
X-403301Y1052880D01*
X-410972Y1055166D01*
X-419404Y1056030D01*
X-1655267Y1056030D01*
X-1659128Y1056792D01*
X-1662430Y1058976D01*
X-1685137Y1081735D01*
X-1687372Y1085088D01*
X-1688084Y1089050D01*
X-1687271Y1092962D01*
X-1684934Y1096264D01*
X-1681530Y1098397D01*
X-1677568Y1099058D01*
X-1673656Y1098092D01*
X-1664004Y1093622D01*
X-1654606Y1091082D01*
X-1644904Y1090269D01*
X-1635201Y1091082D01*
X-1625803Y1093622D01*
X-1616964Y1097737D01*
X-1608937Y1103376D01*
X-1606143Y1104747D01*
X-1603095Y1105204D01*
X-87376Y1105204D01*
X-84429Y1104747D01*
X-80365Y1103528D01*
X-72390Y1102766D01*
X-64465Y1103528D01*
X-56794Y1105865D01*
X-49733Y1109624D01*
X-43129Y1115060D01*
X157175Y1315313D01*
X162560Y1321917D01*
X166319Y1328978D01*
X168656Y1336649D01*
X169519Y1345133D01*
X169519Y1358747D01*
X170281Y1362659D01*
X172567Y1366012D01*
X176326Y1368348D01*
X189077Y1375359D01*
X200863Y1383944D01*
X211480Y1393901D01*
X220725Y1405077D01*
X228549Y1417370D01*
X234746Y1430578D01*
X239217Y1444396D01*
X241960Y1458671D01*
X242874Y1473200D01*
X241960Y1487728D01*
X239217Y1502054D01*
X234746Y1515872D01*
X228549Y1529029D01*
X220725Y1541322D01*
X211480Y1552549D01*
X200863Y1562506D01*
X189077Y1571040D01*
X176326Y1578051D01*
X162814Y1583436D01*
X148691Y1587042D01*
X134264Y1588871D01*
X119735Y1588871D01*
X105257Y1587042D01*
X91186Y1583436D01*
X77622Y1578051D01*
X64871Y1571040D01*
X53136Y1562506D01*
X42519Y1552549D01*
X33223Y1541322D01*
X25450Y1529029D01*
X19253Y1515872D01*
X14732Y1502054D01*
X11988Y1487728D01*
X11074Y1473200D01*
X11988Y1458671D01*
X14732Y1444396D01*
X19253Y1430578D01*
X25450Y1417370D01*
X33223Y1405077D01*
X42519Y1393901D01*
X53136Y1383944D01*
X64871Y1375359D01*
X76657Y1368907D01*
X79552Y1366520D01*
X81381Y1363268D01*
X81889Y1359560D01*
X81076Y1355902D01*
X78943Y1352804D01*
X-83870Y1189990D01*
X-87172Y1187805D01*
X-91084Y1187043D01*
X-1603095Y1187043D01*
X-1606143Y1187500D01*
X-1608886Y1188872D01*
X-1616964Y1194511D01*
X-1625803Y1198626D01*
X-1635201Y1201166D01*
X-1644904Y1201978D01*
X-1655216Y1201115D01*
X-1659280Y1201572D01*
X-1662836Y1203604D01*
X-1665274Y1206906D01*
X-1666239Y1210919D01*
X-1665528Y1214983D01*
X-1663242Y1218387D01*
X-1653438Y1228242D01*
X-1650136Y1230426D01*
X-1646275Y1231188D01*
X-1465427Y1231188D01*
X-1456944Y1232052D01*
X-1449273Y1234338D01*
X-1442212Y1238148D01*
X-1435658Y1243533D01*
X-1317955Y1361236D01*
X-1314704Y1363421D01*
X-1310894Y1364183D01*
X-1291742Y1359357D01*
X-1277264Y1357579D01*
X-1262735Y1357579D01*
X-1248308Y1359357D01*
X-1234186Y1363014D01*
X-1220673Y1368348D01*
X-1207922Y1375359D01*
X-1196136Y1383944D01*
X-1185519Y1393901D01*
X-1176274Y1405077D01*
X-1168450Y1417370D01*
X-1162253Y1430578D01*
X-1157782Y1444396D01*
X-1155039Y1458671D01*
X-1154125Y1473200D01*
X-1155039Y1487728D01*
X-1157782Y1502054D01*
X-1162253Y1515872D01*
X-1168450Y1529029D01*
X-1176274Y1541322D01*
X-1185519Y1552549D01*
X-1196136Y1562506D01*
X-1207922Y1571040D01*
X-1220673Y1578051D01*
X-1234186Y1583436D01*
X-1248308Y1587042D01*
X-1262735Y1588871D01*
X-1277264Y1588871D01*
X-1291742Y1587042D01*
X-1305814Y1583436D01*
X-1319377Y1578051D01*
X-1332128Y1571040D01*
X-1343863Y1562506D01*
X-1354480Y1552549D01*
X-1363776Y1541322D01*
X-1371549Y1529029D01*
X-1377746Y1515872D01*
X-1382268Y1502054D01*
X-1385011Y1487728D01*
X-1385925Y1473200D01*
X-1385011Y1458671D01*
X-1382268Y1444396D01*
X-1377746Y1430578D01*
X-1376527Y1427886D01*
X-1375562Y1423873D01*
X-1376273Y1419809D01*
X-1378508Y1416354D01*
X-1478889Y1315974D01*
X-1482191Y1313789D01*
X-1486052Y1313027D01*
X-1595628Y1313027D01*
X-1599539Y1313789D01*
X-1602790Y1315974D01*
X-1605026Y1319276D01*
X-1605788Y1323187D01*
X-1605026Y1327048D01*
X-1602790Y1330350D01*
X-1571955Y1361236D01*
X-1568704Y1363421D01*
X-1564894Y1364183D01*
X-1545742Y1359357D01*
X-1531264Y1357579D01*
X-1516735Y1357579D01*
X-1502308Y1359357D01*
X-1488186Y1363014D01*
X-1474673Y1368348D01*
X-1461922Y1375359D01*
X-1450136Y1383944D01*
X-1439519Y1393901D01*
X-1430274Y1405077D01*
X-1422450Y1417370D01*
X-1416253Y1430578D01*
X-1411782Y1444396D01*
X-1409039Y1458671D01*
X-1408125Y1473200D01*
X-1409039Y1487728D01*
X-1411782Y1502054D01*
X-1416253Y1515872D01*
X-1422450Y1529029D01*
X-1430274Y1541322D01*
X-1439519Y1552549D01*
X-1450136Y1562506D01*
X-1461922Y1571040D01*
X-1474673Y1578051D01*
X-1488186Y1583436D01*
X-1502308Y1587042D01*
X-1516735Y1588871D01*
X-1531264Y1588871D01*
X-1545742Y1587042D01*
X-1559814Y1583436D01*
X-1573377Y1578051D01*
X-1586128Y1571040D01*
X-1597863Y1562506D01*
X-1608480Y1552549D01*
X-1617776Y1541322D01*
X-1625549Y1529029D01*
X-1631746Y1515872D01*
X-1636268Y1502054D01*
X-1639011Y1487728D01*
X-1639925Y1473200D01*
X-1639011Y1458671D01*
X-1636268Y1444396D01*
X-1631746Y1430578D01*
X-1630527Y1427886D01*
X-1629562Y1423873D01*
X-1630273Y1419809D01*
X-1632508Y1416354D01*
X-1676349Y1372514D01*
X-1679651Y1370279D01*
X-1683562Y1369517D01*
X-1693824Y1369517D01*
X-1697736Y1370330D01*
X-1701088Y1372565D01*
X-1703273Y1375968D01*
X-1703984Y1379880D01*
X-1703070Y1383842D01*
X-1700784Y1387094D01*
X-1693519Y1393901D01*
X-1684274Y1405077D01*
X-1676450Y1417370D01*
X-1670253Y1430578D01*
X-1665782Y1444396D01*
X-1663039Y1458671D01*
X-1662125Y1473200D01*
X-1663039Y1487728D01*
X-1665782Y1502054D01*
X-1670253Y1515872D01*
X-1676450Y1529029D01*
X-1684274Y1541322D01*
X-1693519Y1552549D01*
X-1704136Y1562506D01*
X-1715922Y1571040D01*
X-1728673Y1578051D01*
X-1742186Y1583436D01*
X-1756308Y1587042D01*
X-1770735Y1588871D01*
X-1785264Y1588871D01*
X-1799742Y1587042D01*
X-1813814Y1583436D01*
X-1827377Y1578051D01*
X-1840128Y1571040D01*
X-1851863Y1562506D01*
X-1862480Y1552549D01*
X-1871776Y1541322D01*
X-1879549Y1529029D01*
X-1885746Y1515872D01*
X-1890268Y1502054D01*
X-1893011Y1487728D01*
X-1893925Y1473200D01*
X-1893011Y1458671D01*
X-1890268Y1444396D01*
X-1885746Y1430578D01*
X-1879549Y1417370D01*
X-1871776Y1405077D01*
X-1862480Y1393901D01*
X-1853387Y1385316D01*
X-1851050Y1382014D01*
X-1850186Y1378102D01*
X-1850898Y1374089D01*
X-1853133Y1370736D01*
X-1943506Y1280414D01*
X-1948891Y1273810D01*
X-1952650Y1266748D01*
X-1954987Y1259078D01*
X-1955800Y1250594D01*
X-1955800Y1006602D01*
X-1954987Y998169D01*
X-1952650Y990498D01*
X-1948891Y983437D01*
X-1943506Y976833D01*
X-1756714Y790041D01*
X-1750110Y784656D01*
X-1743049Y780846D01*
X-1735378Y778560D01*
X-1726895Y777697D01*
X-469849Y777697D01*
X-465937Y776935D01*
X-462635Y774750D01*
X23723Y288391D01*
X25908Y285089D01*
X26670Y281178D01*
X26670Y-795883D01*
X27533Y-804367D01*
X30022Y-812596D01*
X30327Y-817016D01*
X28752Y-821182D01*
X25501Y-824230D01*
X21285Y-825652D01*
X16865Y-825093D01*
X13106Y-822706D01*
X9601Y-819200D01*
X1574Y-813562D01*
X-7366Y-809447D01*
X-16814Y-806907D01*
X-26619Y-806043D01*
X-36423Y-806907D01*
X-45872Y-809447D01*
X-54813Y-813562D01*
X-63449Y-819658D01*
X-66192Y-820978D01*
X-69291Y-821486D01*
X-481787Y-821486D01*
X-486105Y-820521D01*
X-489610Y-817778D01*
X-491642Y-813866D01*
X-491794Y-809447D01*
X-490270Y-801319D01*
X-490270Y-793394D01*
X-491693Y-785571D01*
X-494588Y-778205D01*
X-498754Y-771448D01*
X-504088Y-765556D01*
X-510438Y-760780D01*
X-517550Y-757224D01*
X-525170Y-755091D01*
X-533552Y-754278D01*
X-671474Y-754278D01*
X-679856Y-755091D01*
X-687476Y-757224D01*
X-694588Y-760780D01*
X-700938Y-765556D01*
X-706272Y-771448D01*
X-710438Y-778205D01*
X-713333Y-785571D01*
X-714756Y-793394D01*
X-714756Y-801319D01*
X-713333Y-809142D01*
X-710438Y-816508D01*
X-705408Y-824433D01*
X-704037Y-827938D01*
X-704037Y-831748D01*
X-705408Y-835304D01*
X-710438Y-843229D01*
X-713333Y-850595D01*
X-714756Y-858367D01*
X-714756Y-866343D01*
X-713333Y-874115D01*
X-710438Y-881481D01*
X-705408Y-889406D01*
X-704037Y-892962D01*
X-704037Y-896772D01*
X-705408Y-900277D01*
X-710438Y-908253D01*
X-713333Y-915568D01*
X-714756Y-923391D01*
X-714756Y-931316D01*
X-713333Y-939139D01*
X-710438Y-946505D01*
X-705408Y-954430D01*
X-704037Y-957935D01*
X-704037Y-961745D01*
X-705408Y-965301D01*
X-710438Y-973226D01*
X-713333Y-980592D01*
X-714756Y-988415D01*
X-714756Y-996340D01*
X-713333Y-1004112D01*
X-710438Y-1011478D01*
X-705408Y-1019403D01*
X-704037Y-1022959D01*
X-704037Y-1026769D01*
X-705408Y-1030274D01*
X-710438Y-1038250D01*
X-713333Y-1045565D01*
X-714756Y-1053388D01*
X-714756Y-1061313D01*
X-713333Y-1069136D01*
X-710438Y-1076553D01*
X-706272Y-1083259D01*
X-700938Y-1089152D01*
X-694588Y-1093927D01*
X-687476Y-1097483D01*
X-679856Y-1099667D01*
X-671474Y-1100429D01*
X-660704Y-1100429D01*
X-656793Y-1101191D01*
X-653491Y-1103376D01*
X-651306Y-1106678D01*
X-650544Y-1110589D01*
X-650544Y-1251610D01*
X-651205Y-1255217D01*
X-653135Y-1258366D01*
X-656031Y-1260652D01*
X-660349Y-1261821D01*
X-665835Y-1263700D01*
X-670712Y-1266799D01*
X-674827Y-1270863D01*
X-677875Y-1275791D01*
X-679805Y-1281226D01*
X-680516Y-1287576D01*
X-680516Y-1366418D01*
X-679805Y-1372768D01*
X-677875Y-1378204D01*
X-674827Y-1383131D01*
X-670712Y-1387195D01*
X-665835Y-1390294D01*
X-660349Y-1392174D01*
X-654050Y-1392885D01*
X-565200Y-1392885D01*
X-558850Y-1392174D01*
X-553415Y-1390294D01*
X-548487Y-1387195D01*
X-544423Y-1383131D01*
X-541324Y-1378204D01*
X-540105Y-1374698D01*
X-537972Y-1371142D01*
X-534568Y-1368755D01*
X-530504Y-1367891D01*
X-430123Y-1367891D01*
X-426720Y-1368450D01*
X-423773Y-1370126D01*
X-421487Y-1372666D01*
X-419100Y-1376476D01*
X-415035Y-1380540D01*
X-410108Y-1383639D01*
X-404672Y-1385570D01*
X-398322Y-1386281D01*
X-313080Y-1386281D01*
X-306730Y-1385570D01*
X-301294Y-1383639D01*
X-296367Y-1380540D01*
X-292303Y-1376476D01*
X-289204Y-1371549D01*
X-287832Y-1367637D01*
X-285699Y-1364081D01*
X-282295Y-1361643D01*
X-278231Y-1360830D01*
X-255371Y-1360830D01*
X-251307Y-1361643D01*
X-247904Y-1364081D01*
X-245770Y-1367637D01*
X-244398Y-1371549D01*
X-241300Y-1376476D01*
X-237236Y-1380540D01*
X-232308Y-1383639D01*
X-226872Y-1385570D01*
X-220522Y-1386281D01*
X-135280Y-1386281D01*
X-128930Y-1385570D01*
X-123494Y-1383639D01*
X-118567Y-1380540D01*
X-114503Y-1376476D01*
X-111404Y-1371549D01*
X-110032Y-1367637D01*
X-107899Y-1364081D01*
X-104495Y-1361643D01*
X-100431Y-1360830D01*
X-77571Y-1360830D01*
X-73507Y-1361643D01*
X-70104Y-1364081D01*
X-67970Y-1367637D01*
X-66598Y-1371549D01*
X-63500Y-1376476D01*
X-59436Y-1380540D01*
X-54508Y-1383639D01*
X-49072Y-1385570D01*
X-42722Y-1386281D01*
X42519Y-1386281D01*
X48869Y-1385570D01*
X54305Y-1383639D01*
X59232Y-1380540D01*
X63296Y-1376476D01*
X66395Y-1371549D01*
X68275Y-1366113D01*
X68986Y-1359763D01*
X68986Y-1280261D01*
X69240Y-1274673D01*
X71221Y-1271016D01*
X74523Y-1268476D01*
X78536Y-1267510D01*
X82651Y-1268171D01*
X86106Y-1270457D01*
X124307Y-1308658D01*
X126492Y-1311960D01*
X127304Y-1315821D01*
X127304Y-1374038D01*
X128016Y-1380337D01*
X129895Y-1385824D01*
X132994Y-1390700D01*
X137058Y-1394815D01*
X141986Y-1397863D01*
X147421Y-1399794D01*
X153771Y-1400505D01*
X252628Y-1400505D01*
X258927Y-1399794D01*
X264414Y-1397863D01*
X269290Y-1394815D01*
X273405Y-1390700D01*
X276453Y-1385824D01*
X278384Y-1380337D01*
X279095Y-1374038D01*
X279095Y-1285189D01*
X278384Y-1278839D01*
X276453Y-1273403D01*
X273405Y-1268476D01*
X269290Y-1264412D01*
X264414Y-1261313D01*
X258927Y-1259382D01*
X252628Y-1258671D01*
X194259Y-1258671D01*
X190398Y-1257909D01*
X187096Y-1255725D01*
X179222Y-1247851D01*
X176987Y-1244549D01*
X176225Y-1240637D01*
X176987Y-1236776D01*
X179222Y-1233474D01*
X182524Y-1231290D01*
X186385Y-1230477D01*
X252628Y-1230477D01*
X258927Y-1229766D01*
X264414Y-1227886D01*
X269290Y-1224788D01*
X273405Y-1220724D01*
X276453Y-1215796D01*
X278384Y-1210360D01*
X279095Y-1204010D01*
X279095Y-1118463D01*
X280060Y-1114145D01*
X282702Y-1110691D01*
X286613Y-1108659D01*
X291033Y-1108456D01*
X295097Y-1110132D01*
X302260Y-1115161D01*
X311099Y-1119276D01*
X320497Y-1121816D01*
X330200Y-1122629D01*
X339902Y-1121816D01*
X349300Y-1119276D01*
X358140Y-1115161D01*
X366115Y-1109573D01*
X372973Y-1102664D01*
X378561Y-1094689D01*
X382676Y-1085900D01*
X385216Y-1076452D01*
X386080Y-1066800D01*
X385216Y-1057097D01*
X382676Y-1047648D01*
X378561Y-1038860D01*
X372973Y-1030884D01*
X366115Y-1023975D01*
X358140Y-1018387D01*
X349300Y-1014272D01*
X343763Y-1012799D01*
X341325Y-1011783D01*
X339242Y-1010158D01*
X111455Y-782421D01*
X109270Y-779119D01*
X108508Y-775208D01*
X108508Y-669645D01*
X109270Y-665784D01*
X111455Y-662482D01*
X114757Y-660298D01*
X118668Y-659485D01*
X122529Y-660298D01*
X125831Y-662482D01*
X883716Y-1420317D01*
X885901Y-1423619D01*
X886663Y-1427530D01*
X886714Y-1658467D01*
X887933Y-1666392D01*
X890625Y-1673961D01*
X894791Y-1680819D01*
X898804Y-1685442D01*
X1064666Y-1833676D01*
X1071219Y-1838502D01*
X1078484Y-1841906D01*
X1086256Y-1843836D01*
X1092555Y-1844293D01*
X1151991Y-1844293D01*
X1155039Y-1844751D01*
X1157833Y-1846122D01*
X1165860Y-1851761D01*
X1174699Y-1855876D01*
X1184097Y-1858416D01*
G37*
G36*
X-671474Y-710438D02*
G01*
X-533552Y-710438D01*
X-525170Y-709625D01*
X-517550Y-707491D01*
X-510438Y-703935D01*
X-504088Y-699160D01*
X-498754Y-693267D01*
X-494588Y-686511D01*
X-491693Y-679145D01*
X-490270Y-671322D01*
X-490270Y-663397D01*
X-491743Y-655421D01*
X-491591Y-651002D01*
X-489559Y-647090D01*
X-486054Y-644347D01*
X-481736Y-643382D01*
X-254508Y-643382D01*
X-246024Y-642569D01*
X-238353Y-640232D01*
X-231292Y-636473D01*
X-225145Y-631393D01*
X-220014Y-625195D01*
X-216255Y-618134D01*
X-213918Y-610463D01*
X-213106Y-601980D01*
X-213106Y-228650D01*
X-213918Y-220167D01*
X-216255Y-212496D01*
X-220065Y-205435D01*
X-225450Y-198882D01*
X-297129Y-127457D01*
X-299364Y-124155D01*
X-300126Y-120294D01*
X-299364Y-116382D01*
X-297180Y-113080D01*
X-294284Y-110235D01*
X-291236Y-105308D01*
X-289306Y-99872D01*
X-288594Y-93522D01*
X-288594Y-8280D01*
X-289306Y-1930D01*
X-291236Y3505D01*
X-294284Y8432D01*
X-298399Y12496D01*
X-303276Y15595D01*
X-307238Y16967D01*
X-310540Y18897D01*
X-312877Y21894D01*
X-313994Y25552D01*
X-314655Y32512D01*
X-316992Y40182D01*
X-320751Y47244D01*
X-326186Y53797D01*
X-402539Y130200D01*
X-409143Y135585D01*
X-416204Y139395D01*
X-423875Y141681D01*
X-432308Y142544D01*
X-567791Y142544D01*
X-570839Y143002D01*
X-573633Y144373D01*
X-581660Y150012D01*
X-590499Y154127D01*
X-599897Y156667D01*
X-609600Y157480D01*
X-619302Y156667D01*
X-628700Y154127D01*
X-637540Y150012D01*
X-645515Y144424D01*
X-652373Y137515D01*
X-657961Y129539D01*
X-662076Y120751D01*
X-664616Y111302D01*
X-665480Y101600D01*
X-664616Y91948D01*
X-662076Y82499D01*
X-657961Y73710D01*
X-652373Y65735D01*
X-645515Y58826D01*
X-637540Y53238D01*
X-628700Y49123D01*
X-619302Y46583D01*
X-609600Y45770D01*
X-599897Y46583D01*
X-590499Y49123D01*
X-581660Y53238D01*
X-573633Y58877D01*
X-570839Y60248D01*
X-567791Y60706D01*
X-452983Y60706D01*
X-449072Y59943D01*
X-445770Y57759D01*
X-413105Y25044D01*
X-410870Y21742D01*
X-410108Y17881D01*
X-410870Y13970D01*
X-413105Y10668D01*
X-415340Y8432D01*
X-418439Y3505D01*
X-420370Y-1930D01*
X-421081Y-8280D01*
X-421081Y-93522D01*
X-420370Y-99872D01*
X-418439Y-105308D01*
X-415340Y-110235D01*
X-411276Y-114300D01*
X-406349Y-117398D01*
X-403250Y-118465D01*
X-399897Y-120396D01*
X-397560Y-123393D01*
X-396494Y-127050D01*
X-395681Y-134975D01*
X-393344Y-142595D01*
X-389585Y-149707D01*
X-384200Y-156260D01*
X-297891Y-242163D01*
X-295706Y-245465D01*
X-294894Y-249377D01*
X-294894Y-291388D01*
X-295706Y-295300D01*
X-297891Y-298602D01*
X-301193Y-300786D01*
X-305054Y-301548D01*
X-340461Y-301548D01*
X-344068Y-300888D01*
X-347218Y-299008D01*
X-349453Y-296113D01*
X-350570Y-292658D01*
X-349504Y-279400D01*
X-350367Y-269748D01*
X-352755Y-260451D01*
X-356768Y-251663D01*
X-362153Y-243636D01*
X-368808Y-236677D01*
X-376580Y-230936D01*
X-385216Y-226618D01*
X-394411Y-223774D01*
X-403961Y-222554D01*
X-413613Y-222961D01*
X-423062Y-224993D01*
X-432003Y-228600D01*
X-440232Y-233629D01*
X-442823Y-235915D01*
X-445922Y-237794D01*
X-449529Y-238455D01*
X-512724Y-238455D01*
X-525170Y-235102D01*
X-533552Y-234289D01*
X-671474Y-234289D01*
X-679856Y-235102D01*
X-687476Y-237236D01*
X-694588Y-240792D01*
X-700938Y-245567D01*
X-706272Y-251460D01*
X-710438Y-258165D01*
X-713333Y-265582D01*
X-714756Y-273405D01*
X-714756Y-281330D01*
X-713333Y-289153D01*
X-710438Y-296468D01*
X-705408Y-304444D01*
X-704037Y-307949D01*
X-704037Y-311759D01*
X-705408Y-315315D01*
X-710438Y-323240D01*
X-713333Y-330606D01*
X-714756Y-338378D01*
X-714756Y-346354D01*
X-713333Y-354126D01*
X-710438Y-361492D01*
X-705408Y-369417D01*
X-704037Y-372973D01*
X-704037Y-376783D01*
X-705408Y-380288D01*
X-710438Y-388213D01*
X-713333Y-395579D01*
X-714756Y-403402D01*
X-714756Y-411327D01*
X-713333Y-419150D01*
X-710438Y-426466D01*
X-705408Y-434441D01*
X-704037Y-437946D01*
X-704037Y-441756D01*
X-705408Y-445312D01*
X-710438Y-453237D01*
X-713333Y-460603D01*
X-714756Y-468376D01*
X-714756Y-476351D01*
X-713333Y-484124D01*
X-710438Y-491490D01*
X-705408Y-499414D01*
X-704037Y-502970D01*
X-704037Y-506780D01*
X-705408Y-510285D01*
X-710438Y-518210D01*
X-713333Y-525576D01*
X-714756Y-533400D01*
X-714756Y-541324D01*
X-713333Y-549148D01*
X-710438Y-556463D01*
X-705408Y-564438D01*
X-704037Y-567944D01*
X-704037Y-571754D01*
X-705408Y-575310D01*
X-710438Y-583234D01*
X-713333Y-590600D01*
X-714756Y-598373D01*
X-714756Y-606348D01*
X-713333Y-614121D01*
X-710438Y-621487D01*
X-705408Y-629412D01*
X-704037Y-632968D01*
X-704037Y-636778D01*
X-705408Y-640283D01*
X-710438Y-648258D01*
X-713333Y-655574D01*
X-714756Y-663397D01*
X-714756Y-671322D01*
X-713333Y-679145D01*
X-710438Y-686511D01*
X-706272Y-693267D01*
X-700938Y-699160D01*
X-694588Y-703935D01*
X-687476Y-707491D01*
X-679856Y-709625D01*
G37*
G36*
X1943201Y-267055D02*
G01*
X1961997Y-267055D01*
X1980742Y-265125D01*
X1999183Y-261366D01*
X2017166Y-255727D01*
X2034489Y-248259D01*
X2050948Y-239115D01*
X2066391Y-228396D01*
X2080666Y-216103D01*
X2093671Y-202488D01*
X2105152Y-187553D01*
X2115159Y-171602D01*
X2123440Y-154686D01*
X2129993Y-137007D01*
X2134666Y-118821D01*
X2137562Y-100177D01*
X2138476Y-81381D01*
X2137562Y-62585D01*
X2134666Y-43942D01*
X2129993Y-25755D01*
X2123440Y-8077D01*
X2115159Y8839D01*
X2105152Y24790D01*
X2093671Y39725D01*
X2080666Y53340D01*
X2066391Y65633D01*
X2050948Y76352D01*
X2034489Y85496D01*
X2017166Y92964D01*
X1999183Y98602D01*
X1980742Y102362D01*
X1961997Y104292D01*
X1943201Y104292D01*
X1924456Y102362D01*
X1906016Y98602D01*
X1888032Y92964D01*
X1870710Y85496D01*
X1854250Y76352D01*
X1838807Y65633D01*
X1824532Y53340D01*
X1811528Y39725D01*
X1800047Y24790D01*
X1790039Y8839D01*
X1781759Y-8077D01*
X1775206Y-25755D01*
X1770532Y-43942D01*
X1767636Y-62585D01*
X1766722Y-81381D01*
X1767636Y-100177D01*
X1770532Y-118821D01*
X1775206Y-137007D01*
X1781759Y-154686D01*
X1790039Y-171602D01*
X1800047Y-187553D01*
X1811528Y-202488D01*
X1824532Y-216103D01*
X1838807Y-228396D01*
X1854250Y-239115D01*
X1870710Y-248259D01*
X1888032Y-255727D01*
X1906016Y-261366D01*
X1924456Y-265125D01*
G37*
G36*
X-177800Y71170D02*
G01*
X-168097Y71983D01*
X-158699Y74523D01*
X-149860Y78638D01*
X-141884Y84226D01*
X-135026Y91084D01*
X-129438Y99060D01*
X-125323Y107899D01*
X-122783Y117297D01*
X-121920Y127000D01*
X-122783Y136702D01*
X-125323Y146100D01*
X-129438Y154940D01*
X-135026Y162915D01*
X-141884Y169824D01*
X-149860Y175412D01*
X-158699Y179527D01*
X-168097Y182016D01*
X-171907Y182372D01*
X-175361Y183286D01*
X-178206Y185318D01*
X-529488Y536600D01*
X-536092Y541985D01*
X-543153Y545744D01*
X-550824Y548081D01*
X-559308Y548944D01*
X-2340610Y548944D01*
X-2344521Y549706D01*
X-2347823Y551891D01*
X-2442514Y646633D01*
X-2444750Y649935D01*
X-2445512Y653796D01*
X-2445512Y726440D01*
X-2446223Y732790D01*
X-2448102Y738225D01*
X-2451201Y743153D01*
X-2455316Y747217D01*
X-2460193Y750316D01*
X-2466289Y752449D01*
X-2469845Y754583D01*
X-2472232Y757936D01*
X-2473096Y762000D01*
X-2472232Y766064D01*
X-2469845Y769467D01*
X-2466289Y771601D01*
X-2460193Y773734D01*
X-2455316Y776833D01*
X-2451201Y780897D01*
X-2448102Y785825D01*
X-2446223Y791260D01*
X-2445512Y797610D01*
X-2445512Y877112D01*
X-2446223Y883412D01*
X-2448102Y888898D01*
X-2451201Y893775D01*
X-2455316Y897890D01*
X-2460193Y900937D01*
X-2466746Y903224D01*
X-2470048Y905154D01*
X-2472436Y908151D01*
X-2473502Y911860D01*
X-2474518Y922375D01*
X-2476855Y930046D01*
X-2480614Y937107D01*
X-2486050Y943660D01*
X-2750108Y1207770D01*
X-2752344Y1211072D01*
X-2753106Y1214983D01*
X-2753106Y1347165D01*
X-2752344Y1351026D01*
X-2750108Y1354328D01*
X-2746806Y1356512D01*
X-2742946Y1357325D01*
X-2704592Y1357325D01*
X-2698242Y1358036D01*
X-2692806Y1359916D01*
X-2687878Y1363014D01*
X-2683814Y1367078D01*
X-2680716Y1372006D01*
X-2678836Y1377442D01*
X-2678125Y1383792D01*
X-2678125Y1562658D01*
X-2678836Y1568958D01*
X-2680716Y1574444D01*
X-2683814Y1579321D01*
X-2687878Y1583436D01*
X-2692806Y1586484D01*
X-2698242Y1588414D01*
X-2704592Y1589125D01*
X-2883458Y1589125D01*
X-2889758Y1588414D01*
X-2895244Y1586484D01*
X-2900121Y1583436D01*
X-2904236Y1579321D01*
X-2907284Y1574444D01*
X-2909214Y1568958D01*
X-2909925Y1562658D01*
X-2909925Y1383792D01*
X-2909214Y1377442D01*
X-2907284Y1372006D01*
X-2904236Y1367078D01*
X-2900121Y1363014D01*
X-2895244Y1359916D01*
X-2889758Y1358036D01*
X-2883458Y1357325D01*
X-2845054Y1357325D01*
X-2841193Y1356512D01*
X-2837891Y1354328D01*
X-2835706Y1351026D01*
X-2834894Y1347165D01*
X-2834944Y1194308D01*
X-2834081Y1185824D01*
X-2831744Y1178204D01*
X-2827985Y1171092D01*
X-2822600Y1164539D01*
X-2571851Y913841D01*
X-2569819Y910844D01*
X-2568905Y907338D01*
X-2569311Y903732D01*
X-2570988Y900480D01*
X-2573934Y897890D01*
X-2577998Y893775D01*
X-2581097Y888898D01*
X-2583027Y883412D01*
X-2583738Y877112D01*
X-2583738Y797610D01*
X-2583027Y791260D01*
X-2581097Y785825D01*
X-2577998Y780897D01*
X-2573934Y776833D01*
X-2569006Y773734D01*
X-2562961Y771601D01*
X-2559405Y769467D01*
X-2557018Y766064D01*
X-2556154Y762000D01*
X-2557018Y757936D01*
X-2559405Y754583D01*
X-2562961Y752449D01*
X-2569006Y750316D01*
X-2573934Y747217D01*
X-2577998Y743153D01*
X-2581097Y738225D01*
X-2583027Y732790D01*
X-2583738Y726440D01*
X-2583738Y646938D01*
X-2583027Y640638D01*
X-2581097Y635152D01*
X-2577998Y630275D01*
X-2573934Y626160D01*
X-2569006Y623062D01*
X-2563571Y621182D01*
X-2557221Y620471D01*
X-2536291Y620471D01*
X-2532380Y619709D01*
X-2529078Y617474D01*
X-2391054Y479450D01*
X-2384450Y474065D01*
X-2377389Y470255D01*
X-2369718Y467918D01*
X-2361285Y467106D01*
X-579932Y467106D01*
X-576072Y466343D01*
X-572770Y464108D01*
X-236118Y127457D01*
X-234086Y124612D01*
X-233171Y121158D01*
X-232816Y117297D01*
X-230327Y107899D01*
X-226212Y99060D01*
X-220624Y91084D01*
X-213715Y84226D01*
X-205740Y78638D01*
X-196900Y74523D01*
X-187502Y71983D01*
G37*
G36*
X1371498Y73050D02*
G01*
X1385163Y73964D01*
X1398574Y76657D01*
X1411528Y81026D01*
X1423822Y87071D01*
X1435201Y94691D01*
X1445463Y103733D01*
X1454505Y113995D01*
X1462125Y125374D01*
X1468170Y137668D01*
X1472539Y150622D01*
X1475232Y164033D01*
X1476146Y177698D01*
X1475232Y191363D01*
X1472539Y204774D01*
X1468170Y217728D01*
X1462125Y230022D01*
X1454505Y241401D01*
X1445463Y251663D01*
X1435201Y260705D01*
X1423822Y268325D01*
X1411528Y274370D01*
X1398574Y278739D01*
X1385163Y281432D01*
X1371498Y282346D01*
X1357833Y281432D01*
X1344422Y278739D01*
X1331468Y274370D01*
X1319174Y268325D01*
X1307795Y260705D01*
X1297533Y251663D01*
X1288491Y241401D01*
X1280871Y230022D01*
X1274826Y217728D01*
X1270457Y204774D01*
X1267764Y191363D01*
X1266850Y177698D01*
X1267764Y164033D01*
X1270457Y150622D01*
X1274826Y137668D01*
X1280871Y125374D01*
X1288491Y113995D01*
X1297533Y103733D01*
X1307795Y94691D01*
X1319174Y87071D01*
X1331468Y81026D01*
X1344422Y76657D01*
X1357833Y73964D01*
G37*
G36*
X-50800Y147370D02*
G01*
X-41097Y148183D01*
X-31699Y150723D01*
X-22860Y154838D01*
X-14884Y160426D01*
X-8026Y167284D01*
X-2438Y175260D01*
X1676Y184099D01*
X4216Y193497D01*
X5080Y203200D01*
X4216Y212902D01*
X1676Y222300D01*
X-2438Y231140D01*
X-8026Y239115D01*
X-14884Y246024D01*
X-22860Y251612D01*
X-31699Y255727D01*
X-41097Y258216D01*
X-44907Y258571D01*
X-48361Y259486D01*
X-51206Y261518D01*
X-453288Y663600D01*
X-459892Y668985D01*
X-466953Y672744D01*
X-474624Y675081D01*
X-483108Y675944D01*
X-2232152Y675944D01*
X-2236012Y676706D01*
X-2239314Y678891D01*
X-2241550Y682193D01*
X-2242312Y686104D01*
X-2242312Y726440D01*
X-2243023Y732790D01*
X-2244902Y738225D01*
X-2248001Y743153D01*
X-2252116Y747217D01*
X-2256993Y750316D01*
X-2263089Y752449D01*
X-2266645Y754583D01*
X-2269032Y757936D01*
X-2269896Y762000D01*
X-2269032Y766064D01*
X-2266645Y769467D01*
X-2263089Y771601D01*
X-2256993Y773734D01*
X-2252116Y776833D01*
X-2248001Y780897D01*
X-2244902Y785825D01*
X-2243023Y791260D01*
X-2242312Y797610D01*
X-2242312Y877112D01*
X-2243023Y883412D01*
X-2244902Y888898D01*
X-2248001Y893775D01*
X-2252116Y897890D01*
X-2256993Y900937D01*
X-2263648Y903224D01*
X-2267204Y905357D01*
X-2269642Y908761D01*
X-2270506Y912825D01*
X-2270506Y1015542D01*
X-2271318Y1023975D01*
X-2273655Y1031646D01*
X-2277414Y1038707D01*
X-2282850Y1045311D01*
X-2496108Y1258570D01*
X-2498293Y1261872D01*
X-2499106Y1265732D01*
X-2499106Y1358138D01*
X-2498293Y1362049D01*
X-2496058Y1365351D01*
X-2492654Y1367586D01*
X-2490673Y1368348D01*
X-2477922Y1375359D01*
X-2466136Y1383944D01*
X-2455519Y1393901D01*
X-2446274Y1405077D01*
X-2438450Y1417370D01*
X-2432253Y1430578D01*
X-2427782Y1444396D01*
X-2425039Y1458671D01*
X-2424125Y1473200D01*
X-2425039Y1487728D01*
X-2427782Y1502054D01*
X-2432253Y1515872D01*
X-2438450Y1529029D01*
X-2446274Y1541322D01*
X-2455519Y1552549D01*
X-2466136Y1562506D01*
X-2477922Y1571040D01*
X-2490673Y1578051D01*
X-2504186Y1583436D01*
X-2518308Y1587042D01*
X-2532735Y1588871D01*
X-2547264Y1588871D01*
X-2561742Y1587042D01*
X-2575814Y1583436D01*
X-2589377Y1578051D01*
X-2602128Y1571040D01*
X-2613863Y1562506D01*
X-2624480Y1552549D01*
X-2633776Y1541322D01*
X-2641549Y1529029D01*
X-2647746Y1515872D01*
X-2652268Y1502054D01*
X-2655011Y1487728D01*
X-2655925Y1473200D01*
X-2655011Y1458671D01*
X-2652268Y1444396D01*
X-2647746Y1430578D01*
X-2641549Y1417370D01*
X-2633776Y1405077D01*
X-2624480Y1393901D01*
X-2613863Y1383944D01*
X-2602128Y1375359D01*
X-2589377Y1368348D01*
X-2587345Y1367536D01*
X-2583942Y1365351D01*
X-2581706Y1362049D01*
X-2580894Y1358087D01*
X-2580894Y1245108D01*
X-2580081Y1236624D01*
X-2577744Y1228953D01*
X-2573985Y1221892D01*
X-2568549Y1215339D01*
X-2355291Y1002030D01*
X-2353106Y998728D01*
X-2352294Y994867D01*
X-2352294Y912825D01*
X-2353157Y908761D01*
X-2355596Y905357D01*
X-2359152Y903224D01*
X-2365857Y900937D01*
X-2370734Y897890D01*
X-2374798Y893775D01*
X-2377897Y888898D01*
X-2379827Y883412D01*
X-2380538Y877112D01*
X-2380538Y797610D01*
X-2379827Y791260D01*
X-2377897Y785825D01*
X-2374798Y780897D01*
X-2370734Y776833D01*
X-2365806Y773734D01*
X-2359761Y771601D01*
X-2356205Y769467D01*
X-2353818Y766064D01*
X-2352954Y762000D01*
X-2353818Y757936D01*
X-2356205Y754583D01*
X-2359761Y752449D01*
X-2365806Y750316D01*
X-2370734Y747217D01*
X-2374798Y743153D01*
X-2377897Y738225D01*
X-2379827Y732790D01*
X-2380538Y726440D01*
X-2380538Y646938D01*
X-2379827Y640638D01*
X-2377897Y635152D01*
X-2374798Y630275D01*
X-2370734Y626160D01*
X-2365806Y623062D01*
X-2360371Y621182D01*
X-2354021Y620471D01*
X-2307234Y620471D01*
X-2303322Y619709D01*
X-2300071Y617474D01*
X-2288997Y606450D01*
X-2282444Y601065D01*
X-2275382Y597255D01*
X-2267712Y594918D01*
X-2259228Y594106D01*
X-503732Y594106D01*
X-499872Y593344D01*
X-496570Y591108D01*
X-109118Y203657D01*
X-107086Y200812D01*
X-106172Y197358D01*
X-105816Y193497D01*
X-103327Y184099D01*
X-99212Y175260D01*
X-93624Y167284D01*
X-86715Y160426D01*
X-78740Y154838D01*
X-69900Y150723D01*
X-60502Y148183D01*
G37*
G36*
X1371498Y327050D02*
G01*
X1385163Y327964D01*
X1398574Y330657D01*
X1411528Y335026D01*
X1423822Y341071D01*
X1435201Y348691D01*
X1445463Y357733D01*
X1454505Y367995D01*
X1462125Y379374D01*
X1468170Y391668D01*
X1472539Y404622D01*
X1475232Y418033D01*
X1476146Y431698D01*
X1475232Y445363D01*
X1472539Y458774D01*
X1468170Y471728D01*
X1462125Y484022D01*
X1454505Y495401D01*
X1445463Y505663D01*
X1435201Y514705D01*
X1423822Y522325D01*
X1411528Y528370D01*
X1398574Y532739D01*
X1385163Y535432D01*
X1371498Y536346D01*
X1357833Y535432D01*
X1344422Y532739D01*
X1331468Y528370D01*
X1319174Y522325D01*
X1307795Y514705D01*
X1297533Y505663D01*
X1288491Y495401D01*
X1280871Y484022D01*
X1274826Y471728D01*
X1270457Y458774D01*
X1267764Y445363D01*
X1266850Y431698D01*
X1267764Y418033D01*
X1270457Y404622D01*
X1274826Y391668D01*
X1280871Y379374D01*
X1288491Y367995D01*
X1297533Y357733D01*
X1307795Y348691D01*
X1319174Y341071D01*
X1331468Y335026D01*
X1344422Y330657D01*
X1357833Y327964D01*
G37*
G36*
X1293317Y581050D02*
G01*
X1449679Y581050D01*
X1455978Y581761D01*
X1461465Y583692D01*
X1466342Y586740D01*
X1470456Y590854D01*
X1473504Y595731D01*
X1475435Y601218D01*
X1476146Y607517D01*
X1476146Y763879D01*
X1475435Y770178D01*
X1473504Y775665D01*
X1470456Y780542D01*
X1466342Y784656D01*
X1461465Y787704D01*
X1455978Y789635D01*
X1449679Y790346D01*
X1293317Y790346D01*
X1287018Y789635D01*
X1281531Y787704D01*
X1276654Y784656D01*
X1272540Y780542D01*
X1269492Y775665D01*
X1267561Y770178D01*
X1266850Y763879D01*
X1266850Y607517D01*
X1267561Y601218D01*
X1269492Y595731D01*
X1272540Y590854D01*
X1276654Y586740D01*
X1281531Y583692D01*
X1287018Y581761D01*
G37*
G36*
X-216458Y1357325D02*
G01*
X-37592Y1357325D01*
X-31242Y1358036D01*
X-25806Y1359916D01*
X-20878Y1363014D01*
X-16814Y1367078D01*
X-13716Y1372006D01*
X-11836Y1377442D01*
X-11125Y1383792D01*
X-11125Y1562658D01*
X-11836Y1568958D01*
X-13716Y1574444D01*
X-16814Y1579321D01*
X-20878Y1583436D01*
X-25806Y1586484D01*
X-31242Y1588414D01*
X-37592Y1589125D01*
X-216458Y1589125D01*
X-222758Y1588414D01*
X-228244Y1586484D01*
X-233121Y1583436D01*
X-237236Y1579321D01*
X-240284Y1574444D01*
X-242214Y1568958D01*
X-242925Y1562658D01*
X-242925Y1383792D01*
X-242214Y1377442D01*
X-240284Y1372006D01*
X-237236Y1367078D01*
X-233121Y1363014D01*
X-228244Y1359916D01*
X-222758Y1358036D01*
G37*
G36*
X-1023264Y1357579D02*
G01*
X-1008735Y1357579D01*
X-994308Y1359357D01*
X-980186Y1363014D01*
X-966673Y1368348D01*
X-953922Y1375359D01*
X-942136Y1383944D01*
X-931519Y1393901D01*
X-922274Y1405077D01*
X-914450Y1417370D01*
X-908253Y1430578D01*
X-903782Y1444396D01*
X-901039Y1458671D01*
X-900125Y1473200D01*
X-901039Y1487728D01*
X-903782Y1502054D01*
X-908253Y1515872D01*
X-914450Y1529029D01*
X-922274Y1541322D01*
X-931519Y1552549D01*
X-942136Y1562506D01*
X-953922Y1571040D01*
X-966673Y1578051D01*
X-980186Y1583436D01*
X-994308Y1587042D01*
X-1008735Y1588871D01*
X-1023264Y1588871D01*
X-1037742Y1587042D01*
X-1051814Y1583436D01*
X-1065377Y1578051D01*
X-1078128Y1571040D01*
X-1089863Y1562506D01*
X-1100480Y1552549D01*
X-1109776Y1541322D01*
X-1117549Y1529029D01*
X-1123746Y1515872D01*
X-1128268Y1502054D01*
X-1131011Y1487728D01*
X-1131925Y1473200D01*
X-1131011Y1458671D01*
X-1128268Y1444396D01*
X-1123746Y1430578D01*
X-1117549Y1417370D01*
X-1109776Y1405077D01*
X-1100480Y1393901D01*
X-1089863Y1383944D01*
X-1078128Y1375359D01*
X-1065377Y1368348D01*
X-1051814Y1363014D01*
X-1037742Y1359357D01*
G37*
G36*
X-2293264Y1357579D02*
G01*
X-2278735Y1357579D01*
X-2264308Y1359357D01*
X-2250186Y1363014D01*
X-2236673Y1368348D01*
X-2223922Y1375359D01*
X-2212136Y1383944D01*
X-2201519Y1393901D01*
X-2192274Y1405077D01*
X-2184450Y1417370D01*
X-2178253Y1430578D01*
X-2173782Y1444396D01*
X-2171039Y1458671D01*
X-2170125Y1473200D01*
X-2171039Y1487728D01*
X-2173782Y1502054D01*
X-2178253Y1515872D01*
X-2184450Y1529029D01*
X-2192274Y1541322D01*
X-2201519Y1552549D01*
X-2212136Y1562506D01*
X-2223922Y1571040D01*
X-2236673Y1578051D01*
X-2250186Y1583436D01*
X-2264308Y1587042D01*
X-2278735Y1588871D01*
X-2293264Y1588871D01*
X-2307742Y1587042D01*
X-2321814Y1583436D01*
X-2335377Y1578051D01*
X-2348128Y1571040D01*
X-2359863Y1562506D01*
X-2370480Y1552549D01*
X-2379776Y1541322D01*
X-2387549Y1529029D01*
X-2393746Y1515872D01*
X-2398268Y1502054D01*
X-2401011Y1487728D01*
X-2401925Y1473200D01*
X-2401011Y1458671D01*
X-2398268Y1444396D01*
X-2393746Y1430578D01*
X-2387549Y1417370D01*
X-2379776Y1405077D01*
X-2370480Y1393901D01*
X-2359863Y1383944D01*
X-2348128Y1375359D01*
X-2335377Y1368348D01*
X-2321814Y1363014D01*
X-2307742Y1359357D01*
G37*
G36*
X373735Y1357579D02*
G01*
X388264Y1357579D01*
X402691Y1359357D01*
X416814Y1363014D01*
X430326Y1368348D01*
X443077Y1375359D01*
X454863Y1383944D01*
X465480Y1393901D01*
X474726Y1405077D01*
X482549Y1417370D01*
X488746Y1430578D01*
X493217Y1444396D01*
X495960Y1458671D01*
X496874Y1473200D01*
X495960Y1487728D01*
X493217Y1502054D01*
X488746Y1515872D01*
X482549Y1529029D01*
X474726Y1541322D01*
X465480Y1552549D01*
X454863Y1562506D01*
X443077Y1571040D01*
X430326Y1578051D01*
X416814Y1583436D01*
X402691Y1587042D01*
X388264Y1588871D01*
X373735Y1588871D01*
X359257Y1587042D01*
X345186Y1583436D01*
X331622Y1578051D01*
X318871Y1571040D01*
X307136Y1562506D01*
X296519Y1552549D01*
X287223Y1541322D01*
X279450Y1529029D01*
X273253Y1515872D01*
X268732Y1502054D01*
X265988Y1487728D01*
X265074Y1473200D01*
X265988Y1458671D01*
X268732Y1444396D01*
X273253Y1430578D01*
X279450Y1417370D01*
X287223Y1405077D01*
X296519Y1393901D01*
X307136Y1383944D01*
X318871Y1375359D01*
X331622Y1368348D01*
X345186Y1363014D01*
X359257Y1359357D01*
G37*
G36*
X1389735Y1357579D02*
G01*
X1404264Y1357579D01*
X1418691Y1359357D01*
X1432814Y1363014D01*
X1446326Y1368348D01*
X1459077Y1375359D01*
X1470863Y1383944D01*
X1481480Y1393901D01*
X1490726Y1405077D01*
X1498549Y1417370D01*
X1504746Y1430578D01*
X1509217Y1444396D01*
X1511960Y1458671D01*
X1512874Y1473200D01*
X1511960Y1487728D01*
X1509217Y1502054D01*
X1504746Y1515872D01*
X1498549Y1529029D01*
X1490726Y1541322D01*
X1481480Y1552549D01*
X1470863Y1562506D01*
X1459077Y1571040D01*
X1446326Y1578051D01*
X1432814Y1583436D01*
X1418691Y1587042D01*
X1404264Y1588871D01*
X1389735Y1588871D01*
X1375257Y1587042D01*
X1361186Y1583436D01*
X1347622Y1578051D01*
X1334871Y1571040D01*
X1323136Y1562506D01*
X1312519Y1552549D01*
X1303223Y1541322D01*
X1295450Y1529029D01*
X1289253Y1515872D01*
X1284732Y1502054D01*
X1281988Y1487728D01*
X1281074Y1473200D01*
X1281988Y1458671D01*
X1284732Y1444396D01*
X1289253Y1430578D01*
X1295450Y1417370D01*
X1303223Y1405077D01*
X1312519Y1393901D01*
X1323136Y1383944D01*
X1334871Y1375359D01*
X1347622Y1368348D01*
X1361186Y1363014D01*
X1375257Y1359357D01*
G37*
G36*
X1643735Y1357579D02*
G01*
X1658264Y1357579D01*
X1672691Y1359357D01*
X1686814Y1363014D01*
X1700326Y1368348D01*
X1713077Y1375359D01*
X1724863Y1383944D01*
X1735480Y1393901D01*
X1744725Y1405077D01*
X1752549Y1417370D01*
X1758746Y1430578D01*
X1763217Y1444396D01*
X1765960Y1458671D01*
X1766874Y1473200D01*
X1765960Y1487728D01*
X1763217Y1502054D01*
X1758746Y1515872D01*
X1752549Y1529029D01*
X1744725Y1541322D01*
X1735480Y1552549D01*
X1724863Y1562506D01*
X1713077Y1571040D01*
X1700326Y1578051D01*
X1686814Y1583436D01*
X1672691Y1587042D01*
X1658264Y1588871D01*
X1643735Y1588871D01*
X1629257Y1587042D01*
X1615186Y1583436D01*
X1601622Y1578051D01*
X1588871Y1571040D01*
X1577136Y1562506D01*
X1566519Y1552549D01*
X1557223Y1541322D01*
X1549450Y1529029D01*
X1543253Y1515872D01*
X1538732Y1502054D01*
X1535988Y1487728D01*
X1535074Y1473200D01*
X1535988Y1458671D01*
X1538732Y1444396D01*
X1543253Y1430578D01*
X1549450Y1417370D01*
X1557223Y1405077D01*
X1566519Y1393901D01*
X1577136Y1383944D01*
X1588871Y1375359D01*
X1601622Y1368348D01*
X1615186Y1363014D01*
X1629257Y1359357D01*
G37*
G36*
X-515264Y1357579D02*
G01*
X-500735Y1357579D01*
X-486308Y1359357D01*
X-472185Y1363014D01*
X-458673Y1368348D01*
X-445922Y1375359D01*
X-434136Y1383944D01*
X-423519Y1393901D01*
X-414274Y1405077D01*
X-406450Y1417370D01*
X-400253Y1430578D01*
X-395782Y1444396D01*
X-393039Y1458671D01*
X-392125Y1473200D01*
X-393039Y1487728D01*
X-395782Y1502054D01*
X-400253Y1515872D01*
X-406450Y1529029D01*
X-414274Y1541322D01*
X-423519Y1552549D01*
X-434136Y1562506D01*
X-445922Y1571040D01*
X-458673Y1578051D01*
X-472185Y1583436D01*
X-486308Y1587042D01*
X-500735Y1588871D01*
X-515264Y1588871D01*
X-529742Y1587042D01*
X-543814Y1583436D01*
X-557377Y1578051D01*
X-570128Y1571040D01*
X-581863Y1562506D01*
X-592480Y1552549D01*
X-601776Y1541322D01*
X-609549Y1529029D01*
X-615746Y1515872D01*
X-620268Y1502054D01*
X-623011Y1487728D01*
X-623925Y1473200D01*
X-623011Y1458671D01*
X-620268Y1444396D01*
X-615746Y1430578D01*
X-609549Y1417370D01*
X-601776Y1405077D01*
X-592480Y1393901D01*
X-581863Y1383944D01*
X-570128Y1375359D01*
X-557377Y1368348D01*
X-543814Y1363014D01*
X-529742Y1359357D01*
G37*
G36*
X-769264Y1357579D02*
G01*
X-754735Y1357579D01*
X-740308Y1359357D01*
X-726186Y1363014D01*
X-712673Y1368348D01*
X-699922Y1375359D01*
X-688136Y1383944D01*
X-677519Y1393901D01*
X-668274Y1405077D01*
X-660450Y1417370D01*
X-654253Y1430578D01*
X-649782Y1444396D01*
X-647039Y1458671D01*
X-646125Y1473200D01*
X-647039Y1487728D01*
X-649782Y1502054D01*
X-654253Y1515872D01*
X-660450Y1529029D01*
X-668274Y1541322D01*
X-677519Y1552549D01*
X-688136Y1562506D01*
X-699922Y1571040D01*
X-712673Y1578051D01*
X-726186Y1583436D01*
X-740308Y1587042D01*
X-754735Y1588871D01*
X-769264Y1588871D01*
X-783742Y1587042D01*
X-797814Y1583436D01*
X-811377Y1578051D01*
X-824128Y1571040D01*
X-835863Y1562506D01*
X-846480Y1552549D01*
X-855776Y1541322D01*
X-863549Y1529029D01*
X-869746Y1515872D01*
X-874268Y1502054D01*
X-877011Y1487728D01*
X-877925Y1473200D01*
X-877011Y1458671D01*
X-874268Y1444396D01*
X-869746Y1430578D01*
X-863549Y1417370D01*
X-855776Y1405077D01*
X-846480Y1393901D01*
X-835863Y1383944D01*
X-824128Y1375359D01*
X-811377Y1368348D01*
X-797814Y1363014D01*
X-783742Y1359357D01*
G37*

%LPD*%
G36*
X-1863496Y1016762D02*
G01*
X-1867357Y1017524D01*
X-1871014Y1020064D01*
X-1873250Y1023366D01*
X-1874012Y1027277D01*
X-1874012Y1229969D01*
X-1873250Y1233830D01*
X-1870659Y1237488D01*
X-1867357Y1239723D01*
X-1863496Y1240485D01*
X-1859584Y1239723D01*
X-1856282Y1237488D01*
X-1854098Y1234186D01*
X-1853336Y1230325D01*
X-1853336Y1026921D01*
X-1854098Y1023010D01*
X-1856282Y1019708D01*
X-1859584Y1017524D01*
G37*

%LPD*%
G36*
X900785Y287223D02*
G01*
X896772Y288340D01*
X893571Y291033D01*
X891692Y294741D01*
X890676Y298500D01*
X886561Y307340D01*
X880973Y315315D01*
X874115Y322224D01*
X866140Y327812D01*
X857300Y331927D01*
X852881Y333095D01*
X848969Y335127D01*
X846277Y338632D01*
X845362Y342900D01*
X846277Y347218D01*
X848969Y350723D01*
X852881Y352704D01*
X857300Y353923D01*
X866140Y358038D01*
X874115Y363626D01*
X880973Y370484D01*
X886561Y378460D01*
X890676Y387299D01*
X891692Y391109D01*
X893571Y394817D01*
X896772Y397459D01*
X900785Y398627D01*
X904900Y398068D01*
X908456Y395935D01*
X910844Y392531D01*
X911656Y388467D01*
X911656Y297332D01*
X910844Y293268D01*
X908456Y289915D01*
X904900Y287731D01*
G37*

%LPD*%
G36*
X-341274Y-431546D02*
G01*
X-344881Y-430885D01*
X-348030Y-428955D01*
X-350316Y-426059D01*
X-351383Y-422503D01*
X-351078Y-418846D01*
X-350367Y-416001D01*
X-349554Y-406400D01*
X-350824Y-392430D01*
X-349758Y-388874D01*
X-347472Y-385978D01*
X-344322Y-384048D01*
X-340715Y-383387D01*
X-305054Y-383387D01*
X-301193Y-384149D01*
X-297891Y-386334D01*
X-295656Y-389636D01*
X-294894Y-393547D01*
X-294894Y-421385D01*
X-295656Y-425297D01*
X-297891Y-428599D01*
X-301193Y-430784D01*
X-305054Y-431546D01*
G37*

%LPD*%
G36*
X-339598Y-561594D02*
G01*
X-343255Y-560933D01*
X-346405Y-559003D01*
X-348640Y-556056D01*
X-349707Y-552551D01*
X-348996Y-547065D01*
X-348132Y-537464D01*
X-348996Y-527862D01*
X-349707Y-522427D01*
X-348640Y-518871D01*
X-346354Y-515975D01*
X-343204Y-514045D01*
X-339598Y-513384D01*
X-305104Y-513384D01*
X-301193Y-514146D01*
X-297891Y-516331D01*
X-295706Y-519633D01*
X-294944Y-523544D01*
X-294944Y-551434D01*
X-295706Y-555294D01*
X-297891Y-558596D01*
X-301193Y-560832D01*
X-305104Y-561594D01*
G37*

%LPD*%
G36*
X266903Y-1091184D02*
G01*
X262534Y-1090676D01*
X258978Y-1089406D01*
X251155Y-1088644D01*
X247345Y-1087475D01*
X244297Y-1084986D01*
X242417Y-1081481D01*
X240944Y-1076553D01*
X237185Y-1069492D01*
X231749Y-1062888D01*
X32207Y-863346D01*
X30175Y-860450D01*
X29260Y-857046D01*
X28854Y-852576D01*
X26314Y-843127D01*
X24333Y-838860D01*
X23418Y-834948D01*
X24079Y-830986D01*
X26212Y-827582D01*
X29514Y-825246D01*
X33426Y-824433D01*
X37388Y-825195D01*
X40741Y-827379D01*
X271424Y-1058113D01*
X273812Y-1061821D01*
X275183Y-1076452D01*
X275691Y-1078433D01*
X275894Y-1082802D01*
X274269Y-1086866D01*
X271018Y-1089812D01*
G37*

%LPD*%
G36*
X-278333Y-1278991D02*
G01*
X-282397Y-1278128D01*
X-285800Y-1275740D01*
X-287934Y-1272184D01*
X-289204Y-1268476D01*
X-292303Y-1263599D01*
X-296367Y-1259484D01*
X-301294Y-1256436D01*
X-307340Y-1254302D01*
X-310896Y-1252169D01*
X-313334Y-1248765D01*
X-314147Y-1244701D01*
X-313334Y-1240637D01*
X-310896Y-1237234D01*
X-307340Y-1235100D01*
X-301294Y-1232966D01*
X-296367Y-1229918D01*
X-292303Y-1225804D01*
X-289204Y-1220927D01*
X-287324Y-1215440D01*
X-286613Y-1209141D01*
X-286613Y-1129639D01*
X-287324Y-1123289D01*
X-289204Y-1117854D01*
X-292303Y-1112926D01*
X-296367Y-1108862D01*
X-301294Y-1105763D01*
X-307898Y-1103477D01*
X-311454Y-1101344D01*
X-313842Y-1097940D01*
X-314706Y-1093876D01*
X-314706Y-1067308D01*
X-315518Y-1058824D01*
X-317855Y-1051153D01*
X-321614Y-1044092D01*
X-327050Y-1037488D01*
X-371094Y-993444D01*
X-373126Y-990549D01*
X-374040Y-987145D01*
X-375107Y-977493D01*
X-374091Y-973937D01*
X-371805Y-970991D01*
X-368655Y-969060D01*
X-364998Y-968400D01*
X-312877Y-968400D01*
X-308965Y-969162D01*
X-305663Y-971346D01*
X-221691Y-1055319D01*
X-219506Y-1058621D01*
X-218744Y-1062532D01*
X-218744Y-1093876D01*
X-219608Y-1097940D01*
X-221996Y-1101344D01*
X-225602Y-1103477D01*
X-232359Y-1105763D01*
X-237236Y-1108862D01*
X-241300Y-1112926D01*
X-244398Y-1117854D01*
X-246278Y-1123289D01*
X-246989Y-1129639D01*
X-246989Y-1209141D01*
X-246278Y-1215440D01*
X-244398Y-1220927D01*
X-241300Y-1225804D01*
X-237236Y-1229918D01*
X-232308Y-1232966D01*
X-226263Y-1235100D01*
X-222707Y-1237234D01*
X-220268Y-1240637D01*
X-219456Y-1244701D01*
X-220268Y-1248765D01*
X-222707Y-1252169D01*
X-226263Y-1254302D01*
X-232308Y-1256436D01*
X-237236Y-1259484D01*
X-241300Y-1263599D01*
X-244398Y-1268476D01*
X-245668Y-1272184D01*
X-247802Y-1275740D01*
X-251206Y-1278128D01*
X-255270Y-1278991D01*
G37*

%LPD*%
G36*
X-100533Y-1278991D02*
G01*
X-104597Y-1278128D01*
X-108000Y-1275740D01*
X-110134Y-1272184D01*
X-111404Y-1268476D01*
X-114503Y-1263599D01*
X-118567Y-1259484D01*
X-123494Y-1256436D01*
X-129539Y-1254302D01*
X-133096Y-1252169D01*
X-135534Y-1248765D01*
X-136347Y-1244701D01*
X-135534Y-1240637D01*
X-133096Y-1237234D01*
X-129539Y-1235100D01*
X-123494Y-1232966D01*
X-118567Y-1229918D01*
X-114503Y-1225804D01*
X-111404Y-1220927D01*
X-109524Y-1215440D01*
X-108813Y-1209141D01*
X-108813Y-1129639D01*
X-109524Y-1123289D01*
X-111404Y-1117854D01*
X-114503Y-1112926D01*
X-118567Y-1108862D01*
X-123494Y-1105763D01*
X-130098Y-1103477D01*
X-133654Y-1101344D01*
X-136042Y-1097940D01*
X-136906Y-1093876D01*
X-136906Y-1041857D01*
X-137769Y-1033424D01*
X-140055Y-1025753D01*
X-143865Y-1018692D01*
X-149250Y-1012088D01*
X-240690Y-920648D01*
X-242925Y-917346D01*
X-243687Y-913434D01*
X-242925Y-909574D01*
X-240690Y-906271D01*
X-237439Y-904087D01*
X-233527Y-903274D01*
X-69291Y-903274D01*
X-66192Y-903782D01*
X-63449Y-905103D01*
X-54813Y-911199D01*
X-45872Y-915314D01*
X-36423Y-917854D01*
X-31953Y-918260D01*
X-28549Y-919175D01*
X-25654Y-921207D01*
X135128Y-1081989D01*
X137312Y-1085291D01*
X138125Y-1089152D01*
X137312Y-1093063D01*
X135128Y-1096365D01*
X132994Y-1098499D01*
X129895Y-1103376D01*
X128016Y-1108862D01*
X127304Y-1115161D01*
X127304Y-1171397D01*
X126492Y-1175258D01*
X124307Y-1178560D01*
X121005Y-1180795D01*
X117144Y-1181557D01*
X113233Y-1180795D01*
X109931Y-1178560D01*
X71983Y-1140612D01*
X69799Y-1137310D01*
X68986Y-1133449D01*
X68986Y-1129639D01*
X68275Y-1123289D01*
X66395Y-1117854D01*
X63296Y-1112926D01*
X59232Y-1108862D01*
X54305Y-1105763D01*
X48869Y-1103833D01*
X42519Y-1103122D01*
X-42722Y-1103122D01*
X-49072Y-1103833D01*
X-54508Y-1105763D01*
X-59436Y-1108862D01*
X-63500Y-1112926D01*
X-66598Y-1117854D01*
X-68478Y-1123289D01*
X-69189Y-1129639D01*
X-69189Y-1209141D01*
X-68478Y-1215440D01*
X-66598Y-1220927D01*
X-63500Y-1225804D01*
X-59436Y-1229918D01*
X-54508Y-1232966D01*
X-48463Y-1235100D01*
X-44907Y-1237234D01*
X-42468Y-1240637D01*
X-41656Y-1244701D01*
X-42468Y-1248765D01*
X-44907Y-1252169D01*
X-48463Y-1254302D01*
X-54508Y-1256436D01*
X-59436Y-1259484D01*
X-63500Y-1263599D01*
X-66598Y-1268476D01*
X-67868Y-1272184D01*
X-70002Y-1275740D01*
X-73406Y-1278128D01*
X-77470Y-1278991D01*
G37*

%LPD*%
G36*
X-530504Y-1286103D02*
G01*
X-534568Y-1285240D01*
X-537972Y-1282852D01*
X-540105Y-1279296D01*
X-541324Y-1275791D01*
X-544423Y-1270863D01*
X-548487Y-1266799D01*
X-553415Y-1263700D01*
X-563219Y-1260652D01*
X-566115Y-1258366D01*
X-568045Y-1255217D01*
X-568706Y-1251610D01*
X-568706Y-1110589D01*
X-567944Y-1106678D01*
X-565759Y-1103376D01*
X-562457Y-1101191D01*
X-558546Y-1100429D01*
X-533552Y-1100429D01*
X-525170Y-1099667D01*
X-517550Y-1097483D01*
X-510438Y-1093927D01*
X-504088Y-1089152D01*
X-498754Y-1083259D01*
X-494588Y-1076553D01*
X-491693Y-1069136D01*
X-490270Y-1061313D01*
X-490270Y-1053388D01*
X-491743Y-1045413D01*
X-491591Y-1040993D01*
X-489559Y-1037082D01*
X-486054Y-1034338D01*
X-481787Y-1033373D01*
X-472592Y-1033373D01*
X-469493Y-1033881D01*
X-466750Y-1035202D01*
X-458114Y-1041298D01*
X-449173Y-1045413D01*
X-439724Y-1047953D01*
X-435254Y-1048359D01*
X-431850Y-1049274D01*
X-428955Y-1051306D01*
X-399491Y-1080770D01*
X-397306Y-1084072D01*
X-396544Y-1087932D01*
X-396544Y-1093876D01*
X-397357Y-1097940D01*
X-399796Y-1101344D01*
X-403402Y-1103477D01*
X-410159Y-1105763D01*
X-415035Y-1108862D01*
X-419100Y-1112926D01*
X-422198Y-1117854D01*
X-424078Y-1123289D01*
X-424789Y-1129639D01*
X-424789Y-1209141D01*
X-424078Y-1215440D01*
X-422198Y-1220927D01*
X-419100Y-1225804D01*
X-415035Y-1229918D01*
X-410108Y-1232966D01*
X-404063Y-1235100D01*
X-400507Y-1237234D01*
X-398068Y-1240637D01*
X-397256Y-1244701D01*
X-398068Y-1248765D01*
X-400507Y-1252169D01*
X-404063Y-1254302D01*
X-410108Y-1256436D01*
X-415035Y-1259484D01*
X-419100Y-1263599D01*
X-422198Y-1268476D01*
X-424078Y-1273962D01*
X-424434Y-1277061D01*
X-425500Y-1280566D01*
X-427786Y-1283512D01*
X-430936Y-1285443D01*
X-434543Y-1286103D01*
G37*

%LPD*%
G36*
X-3043783Y-3403600D02*
G01*
X-3047695Y-3402787D01*
X-3050997Y-3400602D01*
X-3095040Y-3356559D01*
X-3097225Y-3353257D01*
X-3098038Y-3349396D01*
X-3098038Y-2953562D01*
X-3098800Y-2239416D01*
X-3098038Y-2235504D01*
X-3095853Y-2232202D01*
X-3050997Y-2187346D01*
X-3047695Y-2185162D01*
X-3043783Y-2184400D01*
X-1610156Y-2184400D01*
X-1606296Y-2185162D01*
X-1603044Y-2187295D01*
X-1600809Y-2190496D01*
X-1599996Y-2194306D01*
X-1593342Y-2493213D01*
X-1594053Y-2497175D01*
X-1596237Y-2500528D01*
X-1599590Y-2502814D01*
X-1603502Y-2503576D01*
X-2247036Y-2503576D01*
X-2248662Y-2504186D01*
X-2666238Y-2894838D01*
X-2667000Y-2896565D01*
X-2667000Y-3348583D01*
X-2667762Y-3352444D01*
X-2669997Y-3355746D01*
X-2714853Y-3400602D01*
X-2718155Y-3402787D01*
X-2722016Y-3403600D01*
G37*

%LPD*%
G36*
X-1549400Y-254000D02*
G01*
X-1574800Y-279400D01*
X-1574800Y-406400D01*
X-1549400Y-431800D01*
X-1092200Y-431800D01*
X-1092200Y-381000D01*
X-1320800Y-381000D01*
X-1371600Y-279400D01*
X-1422400Y-254000D01*
G37*
G36*
X-1320800Y-838200D02*
G01*
X-1346200Y-889000D01*
X-1397000Y-1016000D01*
X-1524000Y-1016000D01*
X-1549400Y-1066800D01*
X-1549400Y-1168400D01*
X-1524000Y-1193800D01*
X-1371600Y-1193800D01*
X-1346200Y-1168400D01*
X-1346200Y-1117600D01*
X-1295400Y-914400D01*
X-1270000Y-889000D01*
X-1092200Y-889000D01*
X-1092200Y-838200D01*
G37*
D10*
X-602500Y-862396D02*
G01*
X-26603Y-862396D01*
X203212Y-1727189D02*
G01*
X203212Y-2082789D01*
X203212Y-2082789D01*
X-602424Y-927496D02*
G01*
X-291703Y-927496D01*
X-177810Y-1041389D01*
X-177810Y-1169276D01*
D11*
X-2404097Y-876315D02*
G01*
X-2404097Y-812789D01*
X-2666987Y-812789D01*
X-2404099Y-876312D02*
G01*
X-2404099Y-749312D01*
D10*
X507123Y50810D02*
G01*
X609612Y50810D01*
X838212Y279410D01*
D12*
X-3047398Y-3181400D02*
G01*
X-3047398Y-3146399D01*
D10*
X507123Y406410D02*
G01*
X838212Y406410D01*
X838212Y406410D01*
D12*
X-2404097Y-495315D02*
G01*
X-2404097Y-622315D01*
D13*
X-1175575Y-472480D02*
G01*
X-1584919Y-472480D01*
X-1778000Y-279400D01*
X-2962379Y-279400D01*
X-2971787Y-269991D01*
D10*
X-406387Y-279389D02*
G01*
X-431787Y-279389D01*
X-431787Y-279389D01*
X-602424Y-407482D02*
G01*
X-406400Y-406400D01*
X-602424Y-342483D02*
G01*
X-253987Y-342483D01*
X-253987Y-472480D01*
X-602424Y-472480D01*
X507123Y787410D02*
G01*
X838212Y787410D01*
X838212Y787410D01*
X-602424Y-992494D02*
G01*
X-429905Y-992494D01*
X-429905Y-992494D02*
G01*
X-429905Y-992494D01*
X-355600Y-1066800D01*
X-355610Y-1169276D01*
X-10Y-1319923D02*
G01*
X-177810Y-1319923D01*
X-355610Y-1319923D02*
G01*
X-177810Y-1319923D01*
X-3031401Y-1879589D02*
G01*
X-3021723Y-1889267D01*
X-3021723Y-2108189D01*
X-355600Y-127000D02*
G01*
X-254000Y-228168D01*
X-253987Y-368797D02*
G01*
X-254000Y-228168D01*
X-355600Y-50800D02*
G01*
X-355600Y-127000D01*
X636602Y1468602D02*
G01*
X636602Y1284599D01*
X952601Y968601D01*
X952601Y-856399D01*
D12*
X-965187Y-2514589D02*
G01*
X-796996Y-2346398D01*
X-614898Y-2346398D01*
D10*
X-1644898Y1146101D02*
G01*
X-74899Y1146101D01*
X-72400Y1143601D01*
X128602Y1344602D01*
X128602Y1468602D01*
X1144612Y1468612D02*
G01*
X1144612Y-448401D01*
X1803412Y-1107201D01*
X1803412Y-1600189D01*
X-2539987Y1473210D02*
G01*
X-2539987Y1244587D01*
X-2311400Y1016000D01*
X-2311387Y837321D01*
X-2514587Y837321D02*
G01*
X-2514587Y914387D01*
X-2794000Y1193800D01*
X-2793987Y1473210D01*
X-602424Y-1057493D02*
G01*
X-609610Y-1064679D01*
X-609610Y-1327010D01*
X1377602Y-343400D02*
G01*
X1977600Y-943399D01*
X1977600Y-2381399D01*
X1602600Y-2756400D01*
X596402Y-2756400D01*
X254012Y-3098789D01*
X50812Y-3098789D01*
D11*
X-2362200Y-1701800D02*
G01*
X-2362200Y-1600200D01*
X-2362197Y-1600197D01*
D13*
X-2378722Y-1460489D02*
G01*
X-2378722Y-1333489D01*
X-1175575Y-732500D02*
G01*
X-1392897Y-732500D01*
X-1422387Y-761989D01*
X-1422387Y-812789D01*
X-1600187Y-990589D01*
X-1600187Y-1142989D01*
X-1676387Y-1219189D01*
X-2311387Y-1219189D01*
X-2378722Y-1286525D01*
X-2378722Y-1333489D01*
X-1863077Y-749315D02*
G01*
X-1816084Y-749315D01*
X-1701800Y-863600D01*
X-1701800Y-965200D01*
X-1758810Y-1022210D01*
X-1758810Y-1066789D01*
X-1837702Y-1587489D02*
G01*
X-1714512Y-1587489D01*
X-1631810Y-1670192D01*
X-1631810Y-1844626D01*
X-1717573Y-1930389D01*
X-1784210Y-1930389D01*
D11*
X-2666987Y-812789D02*
G01*
X-2928988Y-812789D01*
X-2971787Y-769990D01*
D10*
X-1441589Y-1346189D02*
G01*
X-1441589Y-1523989D01*
X-1837702Y-1333489D02*
G01*
X-1587487Y-1333489D01*
X-1574787Y-1346189D01*
X-1574787Y-1346189D02*
G01*
X-1441589Y-1346189D01*
X-1441589Y-1346189D01*
X-1863077Y-495315D02*
G01*
X-2044712Y-495315D01*
X-2133587Y-584189D01*
X-1600187Y-761989D02*
G01*
X-1739861Y-622315D01*
X-1863077Y-622315D01*
X-1837702Y-1333489D02*
G01*
X-2070087Y-1333489D01*
X-2133587Y-1396989D01*
D11*
X-2387600Y-1651000D02*
G01*
X-2378722Y-1650989D01*
X-2590787Y-1650989D01*
X-2971787Y-1269989D01*
D13*
X-1549387Y-634989D02*
G01*
X-1803387Y-380989D01*
X-2336787Y-380989D01*
X-2404097Y-448299D01*
X-2404097Y-495315D01*
D10*
X-1837702Y-1460489D02*
G01*
X-1651000Y-1460489D01*
X-1651000Y-1460489D02*
G01*
X-1625587Y-1484238D01*
X-1625587Y-1524015D01*
X-1498587Y-1650989D01*
X-1371587Y-1650989D01*
X-1193787Y-1828789D01*
D13*
X-1549387Y-634989D02*
G01*
X-1516875Y-667501D01*
X-1175575Y-667501D01*
D10*
X-602424Y-277484D02*
G01*
X-600519Y-279389D01*
X-406387Y-279389D01*
X-602424Y-537479D02*
G01*
X-405023Y-537479D01*
X-355610Y-1319923D02*
G01*
X-362696Y-1327010D01*
X-609610Y-1327010D01*
X-614898Y-2803598D02*
G01*
X-600598Y-2817898D01*
X-127398Y-3291098D01*
X-127398Y-3327400D01*
D12*
X-895210Y-2793989D02*
G01*
X-868489Y-2792669D01*
X-608596Y-2792669D01*
D10*
X-1175651Y-212384D02*
G01*
X-1187589Y-200446D01*
X-1187589Y203210D01*
X-1047610Y203210D02*
G01*
X-1047610Y57010D01*
X-990600Y0D01*
X-990600Y-228600D01*
X-1039383Y-277383D01*
X-1175651Y-277383D01*
X-1175651Y-342381D02*
G01*
X-1257818Y-342381D01*
X-1352410Y-247789D01*
X-1352410Y203210D01*
X-1492389Y203210D02*
G01*
X-1492389Y-272227D01*
X-1525663Y-305501D01*
X-26603Y-862396D02*
G01*
X-26603Y-862396D01*
X203200Y-1092200D01*
X203200Y-1159510D01*
X203200Y-1329690D02*
G01*
X42890Y-1169380D01*
X-88Y-1169380D01*
X-2311387Y686673D02*
G01*
X-2259713Y635000D01*
X-482577Y635000D01*
X-50787Y203210D01*
X-2514587Y686673D02*
G01*
X-2514660Y660905D01*
X-2361755Y508000D01*
X-558777Y508000D01*
X-177787Y127010D01*
X-602424Y-602503D02*
G01*
X-254000Y-602503D01*
X-254000Y-457200D01*
X356476Y787410D02*
G01*
X356476Y635000D01*
X356476Y406410D02*
G01*
X356476Y303946D01*
X431812Y228610D01*
X356476Y50810D02*
G01*
X356476Y-51653D01*
X431812Y-126989D01*
X1002601Y-1131407D02*
G01*
X877404Y-1131407D01*
X227596Y-481599D01*
X227596Y368589D01*
X-418909Y1015095D01*
X-1676387Y1015095D01*
X-1749894Y1088603D01*
X-1749894Y1189593D01*
X-1667395Y1272092D01*
X-1464906Y1272092D01*
X-1268387Y1468612D01*
X-1522387Y1468612D02*
G01*
X-1662391Y1328607D01*
X-1732394Y1328607D01*
X-1812404Y1248597D01*
X-1812404Y1021090D01*
X-1709889Y918601D01*
X-435546Y918601D01*
X147612Y335467D01*
X147612Y-626404D01*
X927595Y-1406387D01*
X927595Y-1656400D01*
X1092200Y-1803400D01*
X1143000Y-1803400D01*
X1193812Y-1803389D01*
X330212Y-1066789D02*
G01*
X330212Y-1059009D01*
X67602Y-796399D01*
X67602Y302326D01*
X-448673Y818601D01*
X-1727398Y818601D01*
X-1914898Y1006101D01*
X-1914898Y1251099D01*
X-1776399Y1389600D01*
X-1776399Y1422598D01*
X-1753395Y1445600D01*
X-609587Y101610D02*
G01*
X-431812Y101610D01*
X-354723Y24521D01*
X-354723Y-50815D01*
X1473212Y-2463789D02*
G01*
X1473212Y-2410787D01*
X1677601Y-2206398D01*
X1677601Y-1206398D01*
X1052601Y-581398D01*
X1052601Y981737D02*
G01*
X890602Y1143736D01*
X890602Y1468602D01*
X1052601Y-581398D02*
G01*
X1052601Y981737D01*
D14*
X-2971800Y-1270000D02*
G01*
X-2963799Y-1270000D01*
D15*
G01*
X507036Y787283D03*
G01*
X356386Y787283D03*
G01*
X507036Y406283D03*
G01*
X356386Y406283D03*
G01*
X507036Y50683D03*
G01*
X356386Y50683D03*
D16*
G01*
X-1441691Y-1346316D03*
G01*
X-1301686Y-1346316D03*
G01*
X-1441691Y-1524116D03*
G01*
X-1301686Y-1524116D03*
G01*
X-1784286Y-1930516D03*
G01*
X-1924291Y-1930516D03*
G01*
X-1758886Y-1066916D03*
G01*
X-1898891Y-1066916D03*
G01*
X-1035291Y-2794116D03*
G01*
X-895286Y-2794116D03*
D17*
G01*
X-3022688Y-2259841D03*
D18*
G01*
X-3022688Y-2109180D03*
D19*
G01*
X-354813Y-50916D03*
G01*
X-204163Y-50916D03*
D17*
G01*
X-355688Y-1169391D03*
D18*
G01*
X-355688Y-1320053D03*
D17*
G01*
X-177888Y-1169391D03*
D18*
G01*
X-177888Y-1320053D03*
D17*
G01*
X-2311400Y837324D03*
D18*
G01*
X-2311387Y686673D03*
D17*
G01*
X-2514600Y837324D03*
D18*
G01*
X-2514587Y686673D03*
D20*
G01*
X49796Y-2565389D03*
D21*
G01*
X-608596Y-2338110D03*
G01*
X-608596Y-2792669D03*
D22*
G01*
X-2861398Y-1879589D03*
G01*
X-3031401Y-1879589D03*
D16*
G01*
X-1187589Y203210D03*
G01*
X-1047610Y203210D03*
G01*
X-1352410Y203210D03*
G01*
X-1492389Y203210D03*
D23*
G01*
X-1650987Y-2349210D03*
G01*
X-1650987Y-2883194D03*
D24*
G01*
X-609587Y-1327012D03*
G01*
X-609587Y-1466992D03*
D25*
G01*
X-2404097Y-495315D03*
G01*
X-2404097Y-622315D03*
G01*
X-2404097Y-749315D03*
G01*
X-2404097Y-876315D03*
G01*
X-1863077Y-495315D03*
G01*
X-1863077Y-622315D03*
G01*
X-1863077Y-749315D03*
G01*
X-1863077Y-876315D03*
G01*
X-2378722Y-1333489D03*
G01*
X-2378722Y-1460489D03*
G01*
X-2378722Y-1587489D03*
G01*
X-2378722Y-1714489D03*
G01*
X-1837702Y-1333489D03*
G01*
X-1837702Y-1460489D03*
G01*
X-1837702Y-1587489D03*
G01*
X-1837702Y-1714489D03*
D26*
G01*
X-1175651Y-212384D03*
G01*
X-1175651Y-277383D03*
G01*
X-1175651Y-342381D03*
G01*
X-1175651Y-407380D03*
G01*
X-1175651Y-472379D03*
G01*
X-1175651Y-537377D03*
G01*
X-1175651Y-602401D03*
G01*
X-1175651Y-667400D03*
G01*
X-1175651Y-732398D03*
G01*
X-1175651Y-797397D03*
G01*
X-1175651Y-862396D03*
G01*
X-1175651Y-927394D03*
G01*
X-1175651Y-992393D03*
G01*
X-1175651Y-1057391D03*
G01*
X-602500Y-212384D03*
G01*
X-602500Y-277383D03*
G01*
X-602500Y-342381D03*
G01*
X-602500Y-407380D03*
G01*
X-602500Y-472379D03*
G01*
X-602500Y-537377D03*
G01*
X-602500Y-602401D03*
G01*
X-602500Y-667400D03*
G01*
X-602500Y-732398D03*
G01*
X-602500Y-797397D03*
G01*
X-602500Y-862396D03*
G01*
X-602500Y-927394D03*
G01*
X-602500Y-992393D03*
G01*
X-602500Y-1057391D03*
D27*
G01*
X-889076Y-634875D03*
D17*
G01*
X-88Y-1169391D03*
D18*
G01*
X-88Y-1320053D03*
D28*
G01*
X203212Y-1159601D03*
G01*
X203212Y-1329603D03*
D29*
G01*
X1371511Y-330316D03*
G01*
X1371511Y-76316D03*
G01*
X1371511Y177683D03*
G01*
X1371511Y431683D03*
D30*
G01*
X1371511Y685683D03*
D31*
G01*
X-1904987Y-3327389D03*
D32*
G01*
X-1650987Y-3327389D03*
G01*
X-1396987Y-3327389D03*
G01*
X-1142987Y-3327389D03*
G01*
X-888987Y-3327389D03*
G01*
X-634987Y-3327389D03*
G01*
X-380987Y-3327389D03*
G01*
X-126987Y-3327389D03*
G01*
X1651012Y-3327389D03*
G01*
X1397012Y-3327389D03*
G01*
X1143012Y-3327389D03*
G01*
X889012Y-3327389D03*
G01*
X635012Y-3327389D03*
D31*
G01*
X381012Y-3327389D03*
D32*
G01*
X-507987Y1473210D03*
G01*
X-761987Y1473210D03*
G01*
X-1015987Y1473210D03*
G01*
X-1269987Y1473210D03*
G01*
X-1523987Y1473210D03*
G01*
X-1777987Y1473210D03*
G01*
X-2031987Y1473210D03*
G01*
X-2285987Y1473210D03*
G01*
X-2539987Y1473210D03*
D31*
G01*
X-2793987Y1473210D03*
G01*
X-126987Y1473210D03*
D32*
G01*
X127012Y1473210D03*
G01*
X381012Y1473210D03*
G01*
X635012Y1473210D03*
G01*
X889012Y1473210D03*
G01*
X1143012Y1473210D03*
G01*
X1397012Y1473210D03*
G01*
X1651012Y1473210D03*
D33*
G01*
X-2887586Y-3174989D03*
G01*
X-2387587Y-3174989D03*
G01*
X-2971787Y-1269989D03*
G01*
X-2971787Y-769990D03*
G01*
X-2971787Y-269991D03*
D34*
G01*
X1952612Y-81396D03*
G01*
X1952612Y-2881391D03*
D35*
G01*
X-939076Y-484901D03*
G01*
X-839076Y-484901D03*
G01*
X-939076Y-584901D03*
G01*
X-839076Y-584901D03*
G01*
X-939076Y-684900D03*
G01*
X-839076Y-684900D03*
G01*
X-939076Y-784900D03*
G01*
X-839076Y-784900D03*
G01*
X838212Y-685789D03*
G01*
X431812Y-126989D03*
G01*
X640092Y1103589D03*
G01*
X-177787Y127010D03*
G01*
X838212Y279410D03*
G01*
X838212Y406410D03*
G01*
X838212Y787410D03*
G01*
X-1644891Y1146108D03*
D36*
G01*
X-965187Y-2514589D03*
D35*
G01*
X1803412Y-1600189D03*
G01*
X852589Y-2031405D03*
G01*
X-2616187Y-1955789D03*
G01*
X-3047987Y-1727189D03*
G01*
X1473212Y-2463789D03*
G01*
X1193812Y-1803389D03*
G01*
X1655102Y966099D03*
G01*
X2072601Y-408904D03*
G01*
X2072601Y-2573898D03*
G01*
X1701812Y-2362189D03*
G01*
X50812Y-3098789D03*
G01*
X-2616187Y-1803389D03*
D37*
G01*
X-3149587Y482610D03*
G01*
X-3149587Y1295410D03*
D35*
G01*
X330212Y-1066789D03*
G01*
X852589Y-1831406D03*
D37*
G01*
X-2311387Y381010D03*
D35*
G01*
X1002601Y-1131407D03*
G01*
X952588Y-881395D03*
G01*
X-609587Y101610D03*
G01*
X203212Y-1727189D03*
G01*
X203212Y-2082789D03*
G01*
X-101587Y-406389D03*
D38*
G01*
X-2108187Y-838189D03*
G01*
X-2641587Y-126989D03*
G01*
X-2641587Y-507989D03*
G01*
X-2133587Y-1549389D03*
G01*
X-1422387Y-304789D03*
G01*
X-1396987Y-380989D03*
G01*
X-1525663Y-305501D03*
G01*
X-1498587Y-380989D03*
G01*
X-1498587Y-1066789D03*
G01*
X-1422387Y-1066789D03*
G01*
X-1396987Y-1142989D03*
G01*
X-1473187Y-1142989D03*
G01*
X-2133587Y-1396989D03*
G01*
X-2133587Y-584189D03*
G01*
X-26606Y-862396D03*
G01*
X-429907Y-992494D03*
G01*
X-1041387Y-1727189D03*
G01*
X406412Y-1727189D03*
G01*
X-1193787Y-1828789D03*
G01*
X-863587Y-1981189D03*
G01*
X-2463787Y-1092189D03*
D35*
G01*
X-2336787Y-2336789D03*
G01*
X-2108187Y-2336815D03*
G01*
X-50787Y203210D03*
G01*
X356476Y635010D03*
G01*
X431812Y228610D03*
D39*
G01*
X-888987Y228610D03*
G01*
X-2692387Y787410D03*
G01*
X-2641587Y254010D03*
G01*
X-2158987Y1143010D03*
G01*
X-2057387Y939810D03*
G01*
X101612Y812810D03*
G01*
X-888987Y1270010D03*
G01*
X1524012Y-3073389D03*
G01*
X1016012Y-3073389D03*
G01*
X482612Y-3073389D03*
G01*
X-533387Y-3149589D03*
G01*
X-101587Y-2971789D03*
G01*
X-812787Y-2590789D03*
G01*
X-1600187Y-761989D03*
G01*
X-1574787Y-1346189D03*
G01*
X-406387Y-279389D03*
G01*
X-406387Y-406389D03*
G01*
X-405015Y-537479D03*
M02*
