G04 Layer: BottomLayer*
G04 EasyEDA v6.5.42, 2024-06-23 11:48:01*
G04 8461acd9e52441dfa5b1607b254f294a,2865ae9118a24060a17af6d01c9bcc73,10*
G04 Gerber Generator version 0.2*
G04 Scale: 100 percent, Rotated: No, Reflected: No *
G04 Dimensions in millimeters *
G04 leading zeros omitted , absolute positions ,4 integer and 5 decimal *
%FSLAX45Y45*%
%MOMM*%

%AMMACRO1*21,1,$1,$2,0,0,$3*%
%ADD10C,0.3000*%
%ADD11C,0.5000*%
%ADD12MACRO1,1.524X1.524X90.0000*%
%ADD13MACRO1,1.524X1.524X-90.0000*%
%ADD14MACRO1,1.524X1.524X0.0000*%
%ADD15MACRO1,1.524X1.524X65.0003*%
%ADD16MACRO1,1.524X1.524X64.9999*%
%ADD17MACRO1,1.524X1.524X-115.0001*%
%ADD18MACRO1,1.524X1.524X-114.9997*%
%ADD19C,1.5748*%
%ADD20R,1.5748X1.5748*%
%ADD21R,1.8000X1.8000*%
%ADD22C,1.8000*%
%ADD23C,4.0000*%
%ADD24C,3.2000*%
%ADD25C,0.6000*%
%ADD26C,0.8000*%
%ADD27C,0.5000*%
%ADD28C,0.6096*%
%ADD29C,0.6200*%
%ADD30C,0.0185*%

%LPD*%
G36*
X-3119323Y-3505200D02*
G01*
X-3122320Y-3504742D01*
X-3125063Y-3503422D01*
X-3127248Y-3501390D01*
X-3223564Y-3380994D01*
X-3225241Y-3377996D01*
X-3225749Y-3374542D01*
X-3204464Y-1348181D01*
X-3203600Y-1344218D01*
X-3201263Y-1340866D01*
X-3197860Y-1338732D01*
X-3193846Y-1338122D01*
X-3189884Y-1339088D01*
X-3186684Y-1341526D01*
X-3184652Y-1345031D01*
X-3182467Y-1351584D01*
X-3174034Y-1370685D01*
X-3163874Y-1388922D01*
X-3152089Y-1406093D01*
X-3138728Y-1422146D01*
X-3123996Y-1436928D01*
X-3107944Y-1450238D01*
X-3090722Y-1462024D01*
X-3072485Y-1472184D01*
X-3053435Y-1480616D01*
X-3033623Y-1487271D01*
X-3013303Y-1492046D01*
X-2992678Y-1494942D01*
X-2971800Y-1495856D01*
X-2950972Y-1494942D01*
X-2930296Y-1492046D01*
X-2909976Y-1487271D01*
X-2890215Y-1480616D01*
X-2871114Y-1472184D01*
X-2852877Y-1462024D01*
X-2835656Y-1450238D01*
X-2819603Y-1436928D01*
X-2804871Y-1422146D01*
X-2791561Y-1406093D01*
X-2779776Y-1388922D01*
X-2769616Y-1370685D01*
X-2761183Y-1351584D01*
X-2754528Y-1331823D01*
X-2749753Y-1311503D01*
X-2746857Y-1290828D01*
X-2745892Y-1270000D01*
X-2746857Y-1249121D01*
X-2749753Y-1228496D01*
X-2754528Y-1208176D01*
X-2761183Y-1188364D01*
X-2769616Y-1169314D01*
X-2779776Y-1151077D01*
X-2791561Y-1133856D01*
X-2804871Y-1117803D01*
X-2819603Y-1103020D01*
X-2835656Y-1089710D01*
X-2852877Y-1077925D01*
X-2871114Y-1067765D01*
X-2890215Y-1059332D01*
X-2909976Y-1052728D01*
X-2930296Y-1047953D01*
X-2950972Y-1045057D01*
X-2971800Y-1044092D01*
X-2992678Y-1045057D01*
X-3013303Y-1047953D01*
X-3033623Y-1052728D01*
X-3053435Y-1059332D01*
X-3072485Y-1067765D01*
X-3090722Y-1077925D01*
X-3107944Y-1089710D01*
X-3123996Y-1103020D01*
X-3138728Y-1117803D01*
X-3152089Y-1133856D01*
X-3163874Y-1151077D01*
X-3174034Y-1169314D01*
X-3182467Y-1188364D01*
X-3185007Y-1193393D01*
X-3188258Y-1195832D01*
X-3192221Y-1196797D01*
X-3196234Y-1196086D01*
X-3199688Y-1193901D01*
X-3201974Y-1190548D01*
X-3202736Y-1186535D01*
X-3200400Y-965149D01*
X-3200400Y-859078D01*
X-3199638Y-855218D01*
X-3197504Y-851966D01*
X-3194253Y-849731D01*
X-3190392Y-848918D01*
X-3186531Y-849630D01*
X-3183229Y-851763D01*
X-3180943Y-854964D01*
X-3174034Y-870661D01*
X-3163874Y-888898D01*
X-3152089Y-906119D01*
X-3138728Y-922172D01*
X-3123996Y-936904D01*
X-3107944Y-950264D01*
X-3090722Y-962050D01*
X-3072485Y-972210D01*
X-3053435Y-980643D01*
X-3033623Y-987247D01*
X-3013303Y-992022D01*
X-2992678Y-994918D01*
X-2971800Y-995883D01*
X-2950972Y-994918D01*
X-2930296Y-992022D01*
X-2909976Y-987247D01*
X-2890215Y-980643D01*
X-2871114Y-972210D01*
X-2852877Y-962050D01*
X-2835656Y-950264D01*
X-2819603Y-936904D01*
X-2804871Y-922172D01*
X-2791561Y-906119D01*
X-2779776Y-888898D01*
X-2769616Y-870661D01*
X-2761183Y-851611D01*
X-2754528Y-831799D01*
X-2749753Y-811479D01*
X-2746857Y-790854D01*
X-2745892Y-769975D01*
X-2746857Y-749147D01*
X-2749753Y-728472D01*
X-2754528Y-708152D01*
X-2761183Y-688390D01*
X-2769616Y-669290D01*
X-2779776Y-651052D01*
X-2791561Y-633831D01*
X-2804871Y-617778D01*
X-2819603Y-603046D01*
X-2835656Y-589737D01*
X-2852877Y-577900D01*
X-2871114Y-567791D01*
X-2890215Y-559358D01*
X-2909976Y-552704D01*
X-2930296Y-547928D01*
X-2950972Y-545033D01*
X-2971800Y-544068D01*
X-2992678Y-545033D01*
X-3013303Y-547928D01*
X-3033623Y-552704D01*
X-3053435Y-559358D01*
X-3072485Y-567791D01*
X-3090722Y-577900D01*
X-3107944Y-589737D01*
X-3123996Y-603046D01*
X-3138728Y-617778D01*
X-3152089Y-633831D01*
X-3163874Y-651052D01*
X-3174034Y-669290D01*
X-3180943Y-684987D01*
X-3183229Y-688238D01*
X-3186531Y-690321D01*
X-3190392Y-691032D01*
X-3194253Y-690219D01*
X-3197504Y-688035D01*
X-3199638Y-684733D01*
X-3200400Y-680872D01*
X-3200400Y-359105D01*
X-3199638Y-355244D01*
X-3197504Y-351942D01*
X-3194253Y-349758D01*
X-3190392Y-348945D01*
X-3186531Y-349656D01*
X-3183229Y-351739D01*
X-3180943Y-354990D01*
X-3174034Y-370687D01*
X-3163874Y-388924D01*
X-3152089Y-406095D01*
X-3138728Y-422148D01*
X-3123996Y-436930D01*
X-3107944Y-450240D01*
X-3090722Y-462026D01*
X-3072485Y-472185D01*
X-3053435Y-480618D01*
X-3033623Y-487273D01*
X-3013303Y-492048D01*
X-2992678Y-494944D01*
X-2971800Y-495858D01*
X-2950972Y-494944D01*
X-2930296Y-492048D01*
X-2909976Y-487273D01*
X-2890215Y-480618D01*
X-2871114Y-472185D01*
X-2852877Y-462026D01*
X-2835656Y-450240D01*
X-2819603Y-436930D01*
X-2804871Y-422148D01*
X-2791561Y-406095D01*
X-2779776Y-388924D01*
X-2769616Y-370687D01*
X-2761183Y-351586D01*
X-2754528Y-331825D01*
X-2749753Y-311505D01*
X-2746857Y-290830D01*
X-2745892Y-270002D01*
X-2746857Y-249123D01*
X-2749753Y-228498D01*
X-2754528Y-208178D01*
X-2761183Y-188366D01*
X-2769616Y-169316D01*
X-2779776Y-151079D01*
X-2791561Y-133858D01*
X-2804871Y-117805D01*
X-2819603Y-103022D01*
X-2835656Y-89712D01*
X-2852877Y-77927D01*
X-2871114Y-67767D01*
X-2890215Y-59334D01*
X-2909976Y-52730D01*
X-2930296Y-47955D01*
X-2950972Y-45059D01*
X-2971800Y-44094D01*
X-2992678Y-45059D01*
X-3013303Y-47955D01*
X-3033623Y-52730D01*
X-3053435Y-59334D01*
X-3072485Y-67767D01*
X-3090722Y-77927D01*
X-3107944Y-89712D01*
X-3123996Y-103022D01*
X-3138728Y-117805D01*
X-3152089Y-133858D01*
X-3163874Y-151079D01*
X-3174034Y-169316D01*
X-3180943Y-185013D01*
X-3183229Y-188214D01*
X-3186531Y-190347D01*
X-3190392Y-191058D01*
X-3194253Y-190246D01*
X-3197504Y-188010D01*
X-3199638Y-184759D01*
X-3200400Y-180898D01*
X-3200400Y1494383D01*
X-3199638Y1498295D01*
X-3197453Y1501597D01*
X-3050997Y1648002D01*
X-3047695Y1650238D01*
X-3043783Y1651000D01*
X1729384Y1624787D01*
X1733245Y1623974D01*
X1736496Y1621790D01*
X1830578Y1527708D01*
X1832813Y1524406D01*
X1833575Y1520545D01*
X1833575Y375767D01*
X1834286Y374040D01*
X2181961Y26365D01*
X2184146Y23063D01*
X2184958Y19151D01*
X2184958Y-3019653D01*
X2184146Y-3023565D01*
X2181961Y-3026867D01*
X1711553Y-3497275D01*
X1708251Y-3499459D01*
X1704390Y-3500272D01*
G37*

%LPC*%
G36*
X-1994458Y-3443274D02*
G01*
X-1815592Y-3443274D01*
X-1809242Y-3442563D01*
X-1803806Y-3440684D01*
X-1798878Y-3437585D01*
X-1794814Y-3433521D01*
X-1791716Y-3428593D01*
X-1789836Y-3423158D01*
X-1789125Y-3416808D01*
X-1789125Y-3237941D01*
X-1789836Y-3231642D01*
X-1791716Y-3226155D01*
X-1794814Y-3221278D01*
X-1798878Y-3217164D01*
X-1803806Y-3214116D01*
X-1809242Y-3212185D01*
X-1815592Y-3211474D01*
X-1994458Y-3211474D01*
X-2000757Y-3212185D01*
X-2006244Y-3214116D01*
X-2011121Y-3217164D01*
X-2015236Y-3221278D01*
X-2018284Y-3226155D01*
X-2020214Y-3231642D01*
X-2020925Y-3237941D01*
X-2020925Y-3416808D01*
X-2020214Y-3423158D01*
X-2018284Y-3428593D01*
X-2015236Y-3433521D01*
X-2011121Y-3437585D01*
X-2006244Y-3440684D01*
X-2000757Y-3442563D01*
G37*
G36*
X291541Y-3443274D02*
G01*
X470408Y-3443274D01*
X476758Y-3442563D01*
X482193Y-3440684D01*
X487121Y-3437585D01*
X491185Y-3433521D01*
X494284Y-3428593D01*
X496163Y-3423158D01*
X496874Y-3416808D01*
X496874Y-3237941D01*
X496163Y-3231642D01*
X494284Y-3226155D01*
X491185Y-3221278D01*
X487121Y-3217164D01*
X482193Y-3214116D01*
X476758Y-3212185D01*
X470408Y-3211474D01*
X433679Y-3211474D01*
X429768Y-3210712D01*
X426466Y-3208477D01*
X424281Y-3205226D01*
X423519Y-3201314D01*
X423519Y-3061868D01*
X422656Y-3053435D01*
X420319Y-3045764D01*
X416559Y-3038703D01*
X411175Y-3032099D01*
X279146Y-2900121D01*
X276910Y-2896666D01*
X276199Y-2892653D01*
X277114Y-2888640D01*
X279552Y-2885338D01*
X283108Y-2883306D01*
X290068Y-2880969D01*
X294894Y-2877921D01*
X299008Y-2873806D01*
X302056Y-2868930D01*
X303987Y-2863443D01*
X304698Y-2857144D01*
X304698Y-2840888D01*
X305460Y-2836976D01*
X307695Y-2833674D01*
X310946Y-2831490D01*
X314858Y-2830728D01*
X318770Y-2831490D01*
X322021Y-2833674D01*
X592683Y-3104337D01*
X594918Y-3107639D01*
X595680Y-3111550D01*
X595680Y-3211626D01*
X594868Y-3215589D01*
X592632Y-3218891D01*
X589280Y-3221075D01*
X585622Y-3222548D01*
X572871Y-3229559D01*
X561136Y-3238093D01*
X550519Y-3248050D01*
X541223Y-3259277D01*
X533450Y-3271570D01*
X527253Y-3284728D01*
X522732Y-3298545D01*
X519988Y-3312871D01*
X519074Y-3327400D01*
X519988Y-3341928D01*
X522732Y-3356203D01*
X527253Y-3370021D01*
X533450Y-3383229D01*
X541223Y-3395522D01*
X550519Y-3406698D01*
X561136Y-3416655D01*
X572871Y-3425240D01*
X585622Y-3432251D01*
X599186Y-3437585D01*
X613257Y-3441242D01*
X627735Y-3443020D01*
X642264Y-3443020D01*
X656691Y-3441242D01*
X670814Y-3437585D01*
X684326Y-3432251D01*
X697077Y-3425240D01*
X708863Y-3416655D01*
X719480Y-3406698D01*
X728726Y-3395522D01*
X736549Y-3383229D01*
X742746Y-3370021D01*
X747217Y-3356203D01*
X749960Y-3341928D01*
X750874Y-3327400D01*
X749960Y-3312871D01*
X747217Y-3298545D01*
X742746Y-3284728D01*
X736549Y-3271570D01*
X728726Y-3259277D01*
X719480Y-3248050D01*
X708863Y-3238093D01*
X697077Y-3229559D01*
X683920Y-3222345D01*
X680567Y-3220161D01*
X678281Y-3216859D01*
X677519Y-3212896D01*
X677519Y-3090875D01*
X676656Y-3082391D01*
X674319Y-3074771D01*
X670560Y-3067710D01*
X665175Y-3061106D01*
X387654Y-2783636D01*
X385470Y-2780334D01*
X384708Y-2776423D01*
X384708Y-2453741D01*
X383844Y-2445308D01*
X381558Y-2437638D01*
X377748Y-2430576D01*
X372364Y-2423972D01*
X307695Y-2359304D01*
X305460Y-2356002D01*
X304698Y-2352090D01*
X304698Y-2305862D01*
X303987Y-2299563D01*
X302056Y-2294077D01*
X299008Y-2289200D01*
X294894Y-2285085D01*
X290017Y-2282037D01*
X284530Y-2280107D01*
X278231Y-2279396D01*
X254254Y-2279396D01*
X250393Y-2278634D01*
X247091Y-2276398D01*
X244906Y-2273147D01*
X244094Y-2269236D01*
X244094Y-2124608D01*
X244602Y-2121509D01*
X245922Y-2118766D01*
X251561Y-2110689D01*
X255676Y-2101900D01*
X258216Y-2092452D01*
X259079Y-2082800D01*
X258216Y-2073097D01*
X255676Y-2063648D01*
X251561Y-2054860D01*
X245973Y-2046884D01*
X239115Y-2039975D01*
X231140Y-2034387D01*
X222300Y-2030272D01*
X212902Y-2027732D01*
X203200Y-2026920D01*
X193497Y-2027732D01*
X184099Y-2030272D01*
X175260Y-2034387D01*
X167284Y-2039975D01*
X160426Y-2046884D01*
X154838Y-2054860D01*
X150723Y-2063648D01*
X148183Y-2073097D01*
X147320Y-2082800D01*
X148183Y-2092452D01*
X150723Y-2101900D01*
X154838Y-2110689D01*
X160477Y-2118766D01*
X161798Y-2121509D01*
X162306Y-2124608D01*
X162306Y-2269236D01*
X161544Y-2273147D01*
X159308Y-2276398D01*
X156006Y-2278634D01*
X152146Y-2279396D01*
X126949Y-2279396D01*
X120650Y-2280107D01*
X115163Y-2282037D01*
X110286Y-2285085D01*
X106172Y-2289200D01*
X103124Y-2294077D01*
X101193Y-2299563D01*
X100482Y-2305862D01*
X100482Y-2457145D01*
X101193Y-2463444D01*
X103124Y-2468930D01*
X106172Y-2473807D01*
X109372Y-2478379D01*
X109880Y-2482799D01*
X108458Y-2487066D01*
X104851Y-2493010D01*
X102412Y-2495753D01*
X99212Y-2497429D01*
X95554Y-2497886D01*
X91998Y-2497023D01*
X89001Y-2494940D01*
X69291Y-2475230D01*
X67056Y-2471928D01*
X66294Y-2468016D01*
X66294Y-2159457D01*
X65481Y-2151024D01*
X63144Y-2143353D01*
X59385Y-2136292D01*
X53949Y-2129688D01*
X-275539Y-1800199D01*
X-282143Y-1794814D01*
X-289204Y-1791004D01*
X-296875Y-1788718D01*
X-305308Y-1787855D01*
X-1151128Y-1787855D01*
X-1154226Y-1787398D01*
X-1156970Y-1786026D01*
X-1165606Y-1779981D01*
X-1174546Y-1775815D01*
X-1183995Y-1773275D01*
X-1193800Y-1772412D01*
X-1203604Y-1773275D01*
X-1213053Y-1775815D01*
X-1221994Y-1779981D01*
X-1230020Y-1785620D01*
X-1236980Y-1792528D01*
X-1242618Y-1800606D01*
X-1246733Y-1809496D01*
X-1249273Y-1818995D01*
X-1250137Y-1828800D01*
X-1249273Y-1838553D01*
X-1246733Y-1848053D01*
X-1242618Y-1856943D01*
X-1236980Y-1865020D01*
X-1230020Y-1871929D01*
X-1221994Y-1877568D01*
X-1213053Y-1881733D01*
X-1203604Y-1884273D01*
X-1193800Y-1885137D01*
X-1183995Y-1884273D01*
X-1174546Y-1881733D01*
X-1165606Y-1877568D01*
X-1156970Y-1871522D01*
X-1154226Y-1870151D01*
X-1151128Y-1869693D01*
X-325983Y-1869693D01*
X-322072Y-1870456D01*
X-318770Y-1872640D01*
X-18491Y-2172919D01*
X-16256Y-2176221D01*
X-15494Y-2180132D01*
X-15494Y-2488692D01*
X-14681Y-2497124D01*
X-12344Y-2504795D01*
X-8585Y-2511856D01*
X-3200Y-2518460D01*
X85953Y-2607564D01*
X92506Y-2612999D01*
X97586Y-2615692D01*
X100431Y-2617978D01*
X102311Y-2621076D01*
X102971Y-2624683D01*
X102971Y-2654655D01*
X103682Y-2660954D01*
X105613Y-2666441D01*
X111404Y-2675128D01*
X112166Y-2679039D01*
X111404Y-2682900D01*
X109169Y-2686202D01*
X106172Y-2689199D01*
X103124Y-2694076D01*
X101193Y-2699562D01*
X100482Y-2705862D01*
X100482Y-2857144D01*
X101193Y-2863443D01*
X103124Y-2868930D01*
X106172Y-2873806D01*
X110286Y-2877921D01*
X115163Y-2880969D01*
X120650Y-2882900D01*
X126949Y-2883611D01*
X153212Y-2883611D01*
X157429Y-2884525D01*
X160883Y-2887065D01*
X162966Y-2890824D01*
X164846Y-2897022D01*
X168605Y-2904083D01*
X173990Y-2910687D01*
X338683Y-3075330D01*
X340918Y-3078632D01*
X341680Y-3082544D01*
X341680Y-3201314D01*
X340918Y-3205226D01*
X338683Y-3208477D01*
X335432Y-3210712D01*
X331520Y-3211474D01*
X291541Y-3211474D01*
X285242Y-3212185D01*
X279755Y-3214116D01*
X274878Y-3217164D01*
X270764Y-3221278D01*
X267716Y-3226155D01*
X265785Y-3231642D01*
X265074Y-3237941D01*
X265074Y-3416808D01*
X265785Y-3423158D01*
X267716Y-3428593D01*
X270764Y-3433521D01*
X274878Y-3437585D01*
X279755Y-3440684D01*
X285242Y-3442563D01*
G37*
G36*
X-1404264Y-3443020D02*
G01*
X-1389735Y-3443020D01*
X-1375308Y-3441242D01*
X-1361186Y-3437585D01*
X-1347673Y-3432251D01*
X-1334922Y-3425240D01*
X-1323136Y-3416655D01*
X-1312519Y-3406698D01*
X-1303274Y-3395522D01*
X-1295450Y-3383229D01*
X-1289253Y-3370021D01*
X-1284782Y-3356203D01*
X-1282039Y-3341928D01*
X-1281125Y-3327400D01*
X-1282039Y-3312871D01*
X-1284782Y-3298545D01*
X-1289253Y-3284728D01*
X-1295450Y-3271570D01*
X-1303274Y-3259277D01*
X-1312519Y-3248050D01*
X-1323136Y-3238093D01*
X-1334922Y-3229559D01*
X-1347673Y-3222548D01*
X-1361186Y-3217164D01*
X-1375308Y-3213557D01*
X-1389735Y-3211728D01*
X-1404264Y-3211728D01*
X-1418742Y-3213557D01*
X-1432814Y-3217164D01*
X-1446377Y-3222548D01*
X-1459128Y-3229559D01*
X-1470863Y-3238093D01*
X-1481480Y-3248050D01*
X-1490776Y-3259277D01*
X-1498549Y-3271570D01*
X-1504746Y-3284728D01*
X-1509268Y-3298545D01*
X-1512011Y-3312871D01*
X-1512925Y-3327400D01*
X-1512011Y-3341928D01*
X-1509268Y-3356203D01*
X-1504746Y-3370021D01*
X-1498549Y-3383229D01*
X-1490776Y-3395522D01*
X-1481480Y-3406698D01*
X-1470863Y-3416655D01*
X-1459128Y-3425240D01*
X-1446377Y-3432251D01*
X-1432814Y-3437585D01*
X-1418742Y-3441242D01*
G37*
G36*
X-134264Y-3443020D02*
G01*
X-119735Y-3443020D01*
X-105308Y-3441242D01*
X-91186Y-3437585D01*
X-77673Y-3432251D01*
X-64922Y-3425240D01*
X-53136Y-3416655D01*
X-42519Y-3406698D01*
X-33274Y-3395522D01*
X-25450Y-3383229D01*
X-19253Y-3370021D01*
X-14782Y-3356203D01*
X-12039Y-3341928D01*
X-11125Y-3327400D01*
X-12039Y-3312871D01*
X-14782Y-3298545D01*
X-19253Y-3284728D01*
X-25450Y-3271570D01*
X-33274Y-3259277D01*
X-42519Y-3248050D01*
X-53136Y-3238093D01*
X-64922Y-3229559D01*
X-77673Y-3222548D01*
X-91186Y-3217164D01*
X-105308Y-3213557D01*
X-119735Y-3211728D01*
X-134264Y-3211728D01*
X-148742Y-3213557D01*
X-162814Y-3217164D01*
X-176377Y-3222548D01*
X-189128Y-3229559D01*
X-200863Y-3238093D01*
X-211480Y-3248050D01*
X-220776Y-3259277D01*
X-228549Y-3271570D01*
X-234746Y-3284728D01*
X-239267Y-3298545D01*
X-242011Y-3312871D01*
X-242925Y-3327400D01*
X-242011Y-3341928D01*
X-239267Y-3356203D01*
X-234746Y-3370021D01*
X-228549Y-3383229D01*
X-220776Y-3395522D01*
X-211480Y-3406698D01*
X-200863Y-3416655D01*
X-189128Y-3425240D01*
X-176377Y-3432251D01*
X-162814Y-3437585D01*
X-148742Y-3441242D01*
G37*
G36*
X-1658264Y-3443020D02*
G01*
X-1643735Y-3443020D01*
X-1629308Y-3441242D01*
X-1615186Y-3437585D01*
X-1601673Y-3432251D01*
X-1588922Y-3425240D01*
X-1577136Y-3416655D01*
X-1566519Y-3406698D01*
X-1557274Y-3395522D01*
X-1549450Y-3383229D01*
X-1543253Y-3370021D01*
X-1538782Y-3356203D01*
X-1536039Y-3341928D01*
X-1535125Y-3327400D01*
X-1536039Y-3312871D01*
X-1538782Y-3298545D01*
X-1543253Y-3284728D01*
X-1549450Y-3271570D01*
X-1557274Y-3259277D01*
X-1566519Y-3248050D01*
X-1577136Y-3238093D01*
X-1588922Y-3229559D01*
X-1601673Y-3222548D01*
X-1615186Y-3217164D01*
X-1629308Y-3213557D01*
X-1643735Y-3211728D01*
X-1658264Y-3211728D01*
X-1672742Y-3213557D01*
X-1686814Y-3217164D01*
X-1700377Y-3222548D01*
X-1713128Y-3229559D01*
X-1724863Y-3238093D01*
X-1735480Y-3248050D01*
X-1744776Y-3259277D01*
X-1752549Y-3271570D01*
X-1758746Y-3284728D01*
X-1763268Y-3298545D01*
X-1766011Y-3312871D01*
X-1766925Y-3327400D01*
X-1766011Y-3341928D01*
X-1763268Y-3356203D01*
X-1758746Y-3370021D01*
X-1752549Y-3383229D01*
X-1744776Y-3395522D01*
X-1735480Y-3406698D01*
X-1724863Y-3416655D01*
X-1713128Y-3425240D01*
X-1700377Y-3432251D01*
X-1686814Y-3437585D01*
X-1672742Y-3441242D01*
G37*
G36*
X-1150264Y-3443020D02*
G01*
X-1135735Y-3443020D01*
X-1121308Y-3441242D01*
X-1107186Y-3437585D01*
X-1093673Y-3432251D01*
X-1080922Y-3425240D01*
X-1069136Y-3416655D01*
X-1058519Y-3406698D01*
X-1049274Y-3395522D01*
X-1041450Y-3383229D01*
X-1035253Y-3370021D01*
X-1030782Y-3356203D01*
X-1028039Y-3341928D01*
X-1027125Y-3327400D01*
X-1028039Y-3312871D01*
X-1030782Y-3298545D01*
X-1035253Y-3284728D01*
X-1037844Y-3279190D01*
X-1038809Y-3275177D01*
X-1038098Y-3271113D01*
X-1035862Y-3267710D01*
X-593445Y-2825242D01*
X-590143Y-2823057D01*
X-586282Y-2822295D01*
X-509625Y-2822295D01*
X-505714Y-2823057D01*
X-502462Y-2825242D01*
X-500227Y-2828544D01*
X-499465Y-2832455D01*
X-499465Y-2857144D01*
X-498754Y-2863443D01*
X-496824Y-2868930D01*
X-493776Y-2873806D01*
X-489661Y-2877921D01*
X-484784Y-2880969D01*
X-479298Y-2882900D01*
X-472998Y-2883611D01*
X-321716Y-2883611D01*
X-315417Y-2882900D01*
X-309930Y-2880969D01*
X-305054Y-2877921D01*
X-300939Y-2873806D01*
X-297891Y-2868930D01*
X-295960Y-2863443D01*
X-295249Y-2857144D01*
X-295249Y-2705862D01*
X-295960Y-2699562D01*
X-297891Y-2694076D01*
X-303631Y-2685389D01*
X-304444Y-2681528D01*
X-303631Y-2677617D01*
X-301447Y-2674315D01*
X-298450Y-2671318D01*
X-295402Y-2666441D01*
X-293471Y-2660954D01*
X-292760Y-2654655D01*
X-292760Y-2611374D01*
X-291998Y-2607513D01*
X-289814Y-2604211D01*
X-286562Y-2602026D01*
X-282651Y-2601214D01*
X-278790Y-2601976D01*
X-275488Y-2604109D01*
X-273253Y-2607360D01*
X-244906Y-2673502D01*
X-244094Y-2677464D01*
X-244094Y-2849016D01*
X-244856Y-2852928D01*
X-247091Y-2856230D01*
X-369570Y-2978708D01*
X-372872Y-2980893D01*
X-376732Y-2981655D01*
X-609092Y-2981655D01*
X-617575Y-2982518D01*
X-625246Y-2984804D01*
X-632307Y-2988614D01*
X-638860Y-2993999D01*
X-856132Y-3211271D01*
X-858977Y-3213252D01*
X-862380Y-3214217D01*
X-881735Y-3211728D01*
X-896264Y-3211728D01*
X-910742Y-3213557D01*
X-924814Y-3217164D01*
X-938377Y-3222548D01*
X-951128Y-3229559D01*
X-962863Y-3238093D01*
X-973480Y-3248050D01*
X-982776Y-3259277D01*
X-990549Y-3271570D01*
X-996746Y-3284728D01*
X-1001268Y-3298545D01*
X-1004011Y-3312871D01*
X-1004925Y-3327400D01*
X-1004011Y-3341928D01*
X-1001268Y-3356203D01*
X-996746Y-3370021D01*
X-990549Y-3383229D01*
X-982776Y-3395522D01*
X-973480Y-3406698D01*
X-962863Y-3416655D01*
X-951128Y-3425240D01*
X-938377Y-3432251D01*
X-924814Y-3437585D01*
X-910742Y-3441242D01*
X-896264Y-3443020D01*
X-881735Y-3443020D01*
X-867308Y-3441242D01*
X-853186Y-3437585D01*
X-839673Y-3432251D01*
X-826922Y-3425240D01*
X-815136Y-3416655D01*
X-804519Y-3406698D01*
X-795274Y-3395522D01*
X-787450Y-3383229D01*
X-781253Y-3370021D01*
X-776782Y-3356203D01*
X-774039Y-3341928D01*
X-773125Y-3327400D01*
X-774039Y-3312871D01*
X-776782Y-3298545D01*
X-781253Y-3284728D01*
X-789584Y-3267151D01*
X-789787Y-3263747D01*
X-788822Y-3260445D01*
X-786841Y-3257702D01*
X-595630Y-3066440D01*
X-592328Y-3064256D01*
X-588467Y-3063494D01*
X-356108Y-3063494D01*
X-347624Y-3062630D01*
X-339953Y-3060344D01*
X-332892Y-3056534D01*
X-326339Y-3051149D01*
X-174650Y-2899460D01*
X-169214Y-2892856D01*
X-165455Y-2885795D01*
X-163118Y-2878124D01*
X-162306Y-2869692D01*
X-162306Y-2667508D01*
X-163118Y-2659075D01*
X-165811Y-2650388D01*
X-241757Y-2473147D01*
X-246481Y-2464968D01*
X-252221Y-2458618D01*
X-291947Y-2422347D01*
X-294386Y-2418943D01*
X-295249Y-2414828D01*
X-295249Y-2305862D01*
X-295960Y-2299563D01*
X-297891Y-2294077D01*
X-300939Y-2289200D01*
X-305054Y-2285085D01*
X-309930Y-2282037D01*
X-315417Y-2280107D01*
X-321716Y-2279396D01*
X-472998Y-2279396D01*
X-479298Y-2280107D01*
X-484784Y-2282037D01*
X-489661Y-2285085D01*
X-493776Y-2289200D01*
X-496824Y-2294077D01*
X-498754Y-2299563D01*
X-499465Y-2305862D01*
X-499465Y-2457145D01*
X-498754Y-2463444D01*
X-496824Y-2468930D01*
X-493776Y-2473807D01*
X-491032Y-2477363D01*
X-490067Y-2480614D01*
X-490270Y-2484018D01*
X-491591Y-2487168D01*
X-494334Y-2491587D01*
X-496265Y-2497074D01*
X-496976Y-2503373D01*
X-496976Y-2527960D01*
X-497738Y-2531821D01*
X-499973Y-2535123D01*
X-503224Y-2537358D01*
X-507136Y-2538120D01*
X-676452Y-2538120D01*
X-680313Y-2537358D01*
X-683615Y-2535123D01*
X-777240Y-2441498D01*
X-779475Y-2438196D01*
X-780237Y-2434285D01*
X-779475Y-2430424D01*
X-777240Y-2427122D01*
X-680008Y-2329840D01*
X-676706Y-2327656D01*
X-672846Y-2326894D01*
X-610108Y-2326894D01*
X-601624Y-2326030D01*
X-593953Y-2323744D01*
X-586892Y-2319934D01*
X-580339Y-2314549D01*
X-494030Y-2228240D01*
X-490728Y-2226056D01*
X-486867Y-2225294D01*
X-300583Y-2225294D01*
X-296672Y-2226056D01*
X-293370Y-2228240D01*
X-170891Y-2350770D01*
X-168656Y-2354021D01*
X-167894Y-2357932D01*
X-167894Y-2489098D01*
X-166827Y-2498394D01*
X-164236Y-2505964D01*
X-160020Y-2513380D01*
X-42824Y-2677464D01*
X-41402Y-2680258D01*
X-40894Y-2683357D01*
X-40894Y-3047492D01*
X-40081Y-3055924D01*
X-37744Y-3063595D01*
X-33985Y-3070656D01*
X-28549Y-3077260D01*
X-7518Y-3098342D01*
X-5486Y-3101187D01*
X-4572Y-3104642D01*
X-4216Y-3108502D01*
X-1727Y-3117900D01*
X2387Y-3126740D01*
X7975Y-3134715D01*
X14884Y-3141573D01*
X22860Y-3147161D01*
X31699Y-3151276D01*
X41097Y-3153816D01*
X50800Y-3154629D01*
X60502Y-3153816D01*
X69900Y-3151276D01*
X78740Y-3147161D01*
X86715Y-3141573D01*
X93573Y-3134715D01*
X99161Y-3126740D01*
X103276Y-3117900D01*
X105816Y-3108502D01*
X106680Y-3098800D01*
X105816Y-3089097D01*
X103276Y-3079699D01*
X99161Y-3070860D01*
X93573Y-3062884D01*
X86715Y-3055975D01*
X78740Y-3050387D01*
X69900Y-3046272D01*
X60502Y-3043783D01*
X56692Y-3043428D01*
X53238Y-3042513D01*
X50393Y-3040481D01*
X43891Y-3034030D01*
X41706Y-3030728D01*
X40894Y-3026816D01*
X40894Y-2667101D01*
X39827Y-2657805D01*
X37236Y-2650185D01*
X33020Y-2642819D01*
X-84175Y-2478735D01*
X-85598Y-2475890D01*
X-86106Y-2472791D01*
X-86106Y-2337257D01*
X-86918Y-2328824D01*
X-89255Y-2321153D01*
X-93014Y-2314092D01*
X-98450Y-2307488D01*
X-250139Y-2155799D01*
X-256743Y-2150414D01*
X-263804Y-2146604D01*
X-271475Y-2144318D01*
X-279908Y-2143455D01*
X-507492Y-2143455D01*
X-515975Y-2144318D01*
X-523646Y-2146604D01*
X-530707Y-2150414D01*
X-537260Y-2155799D01*
X-623570Y-2242108D01*
X-626872Y-2244293D01*
X-630732Y-2245055D01*
X-693470Y-2245055D01*
X-701954Y-2245918D01*
X-709625Y-2248204D01*
X-716686Y-2252014D01*
X-723239Y-2257399D01*
X-835101Y-2369261D01*
X-838403Y-2371445D01*
X-842264Y-2372258D01*
X-846175Y-2371445D01*
X-849477Y-2369261D01*
X-1353108Y-1865630D01*
X-1355293Y-1862328D01*
X-1356106Y-1858416D01*
X-1356106Y-1524457D01*
X-1356918Y-1516024D01*
X-1359255Y-1508353D01*
X-1363014Y-1501292D01*
X-1368450Y-1494688D01*
X-1515414Y-1347724D01*
X-1517446Y-1344828D01*
X-1518310Y-1341424D01*
X-1518767Y-1336548D01*
X-1521155Y-1327251D01*
X-1525168Y-1318463D01*
X-1530553Y-1310436D01*
X-1537208Y-1303477D01*
X-1544980Y-1297736D01*
X-1553616Y-1293418D01*
X-1562811Y-1290574D01*
X-1572361Y-1289354D01*
X-1582013Y-1289761D01*
X-1591462Y-1291793D01*
X-1600403Y-1295400D01*
X-1608632Y-1300429D01*
X-1615846Y-1306830D01*
X-1621942Y-1314348D01*
X-1626616Y-1322730D01*
X-1629816Y-1331823D01*
X-1631442Y-1341374D01*
X-1631442Y-1350975D01*
X-1629816Y-1360525D01*
X-1626616Y-1369618D01*
X-1621942Y-1378000D01*
X-1615846Y-1385519D01*
X-1608632Y-1391920D01*
X-1600403Y-1396949D01*
X-1591462Y-1400556D01*
X-1582013Y-1402588D01*
X-1579930Y-1402689D01*
X-1576273Y-1403502D01*
X-1573174Y-1405636D01*
X-1440891Y-1537919D01*
X-1438656Y-1541221D01*
X-1437894Y-1545132D01*
X-1437894Y-1879092D01*
X-1437081Y-1887524D01*
X-1434744Y-1895195D01*
X-1430985Y-1902256D01*
X-1425549Y-1908860D01*
X-726846Y-2607564D01*
X-720293Y-2612999D01*
X-713232Y-2616758D01*
X-705561Y-2619095D01*
X-697077Y-2619908D01*
X-507136Y-2619908D01*
X-503224Y-2620721D01*
X-499973Y-2622905D01*
X-497738Y-2626207D01*
X-496976Y-2630068D01*
X-496976Y-2654655D01*
X-496265Y-2660954D01*
X-494334Y-2666441D01*
X-488543Y-2675128D01*
X-487781Y-2679039D01*
X-488543Y-2682900D01*
X-490778Y-2686202D01*
X-493776Y-2689199D01*
X-496824Y-2694076D01*
X-498754Y-2699562D01*
X-499465Y-2705862D01*
X-499465Y-2730296D01*
X-500227Y-2734208D01*
X-502462Y-2737510D01*
X-505714Y-2739694D01*
X-509625Y-2740456D01*
X-606907Y-2740456D01*
X-615391Y-2741320D01*
X-623062Y-2743606D01*
X-630123Y-2747416D01*
X-636676Y-2752801D01*
X-1098194Y-3214319D01*
X-1101039Y-3216351D01*
X-1104442Y-3217265D01*
X-1107897Y-3217011D01*
X-1121308Y-3213557D01*
X-1135735Y-3211728D01*
X-1150264Y-3211728D01*
X-1164742Y-3213557D01*
X-1178814Y-3217164D01*
X-1192377Y-3222548D01*
X-1205128Y-3229559D01*
X-1216863Y-3238093D01*
X-1227480Y-3248050D01*
X-1236776Y-3259277D01*
X-1244549Y-3271570D01*
X-1250746Y-3284728D01*
X-1255268Y-3298545D01*
X-1258011Y-3312871D01*
X-1258925Y-3327400D01*
X-1258011Y-3341928D01*
X-1255268Y-3356203D01*
X-1250746Y-3370021D01*
X-1244549Y-3383229D01*
X-1236776Y-3395522D01*
X-1227480Y-3406698D01*
X-1216863Y-3416655D01*
X-1205128Y-3425240D01*
X-1192377Y-3432251D01*
X-1178814Y-3437585D01*
X-1164742Y-3441242D01*
G37*
G36*
X881735Y-3443020D02*
G01*
X896264Y-3443020D01*
X910691Y-3441242D01*
X924814Y-3437585D01*
X938326Y-3432251D01*
X951077Y-3425240D01*
X962863Y-3416655D01*
X973480Y-3406698D01*
X982726Y-3395522D01*
X990549Y-3383229D01*
X996746Y-3370021D01*
X1001217Y-3356203D01*
X1003960Y-3341928D01*
X1004874Y-3327400D01*
X1003960Y-3312871D01*
X1001217Y-3298545D01*
X996746Y-3284728D01*
X990549Y-3271570D01*
X982726Y-3259277D01*
X973480Y-3248050D01*
X962863Y-3238093D01*
X951077Y-3229559D01*
X937920Y-3222345D01*
X934567Y-3220161D01*
X932281Y-3216859D01*
X931519Y-3212896D01*
X931519Y-2994863D01*
X930656Y-2986430D01*
X928319Y-2978759D01*
X924560Y-2971698D01*
X919175Y-2965094D01*
X782675Y-2828594D01*
X780440Y-2825292D01*
X779678Y-2821432D01*
X779678Y-2705862D01*
X778967Y-2699562D01*
X777036Y-2694076D01*
X771296Y-2685389D01*
X770483Y-2681528D01*
X771296Y-2677617D01*
X773480Y-2674315D01*
X776478Y-2671318D01*
X779526Y-2666441D01*
X781456Y-2660954D01*
X782167Y-2654655D01*
X782167Y-2503373D01*
X781456Y-2497074D01*
X779526Y-2491587D01*
X776478Y-2486710D01*
X773734Y-2483154D01*
X772769Y-2479903D01*
X772972Y-2476500D01*
X774293Y-2473350D01*
X777036Y-2468930D01*
X778967Y-2463444D01*
X779678Y-2457145D01*
X779678Y-2432456D01*
X780440Y-2428544D01*
X782675Y-2425242D01*
X785926Y-2423058D01*
X789838Y-2422296D01*
X810818Y-2422296D01*
X814730Y-2423058D01*
X818032Y-2425242D01*
X870508Y-2477770D01*
X872693Y-2481021D01*
X873506Y-2484932D01*
X873506Y-2742692D01*
X874318Y-2751124D01*
X876655Y-2758795D01*
X880414Y-2765856D01*
X885850Y-2772460D01*
X1100734Y-2987344D01*
X1102918Y-2990646D01*
X1103680Y-2994507D01*
X1103680Y-3211626D01*
X1102918Y-3215589D01*
X1100632Y-3218891D01*
X1097280Y-3221075D01*
X1093622Y-3222548D01*
X1080871Y-3229559D01*
X1069136Y-3238093D01*
X1058519Y-3248050D01*
X1049223Y-3259277D01*
X1041450Y-3271570D01*
X1035253Y-3284728D01*
X1030732Y-3298545D01*
X1027988Y-3312871D01*
X1027074Y-3327400D01*
X1027988Y-3341928D01*
X1030732Y-3356203D01*
X1035253Y-3370021D01*
X1041450Y-3383229D01*
X1049223Y-3395522D01*
X1058519Y-3406698D01*
X1069136Y-3416655D01*
X1080871Y-3425240D01*
X1093622Y-3432251D01*
X1107186Y-3437585D01*
X1121257Y-3441242D01*
X1135735Y-3443020D01*
X1150264Y-3443020D01*
X1164691Y-3441242D01*
X1178814Y-3437585D01*
X1192326Y-3432251D01*
X1205077Y-3425240D01*
X1216863Y-3416655D01*
X1227480Y-3406698D01*
X1236726Y-3395522D01*
X1244549Y-3383229D01*
X1250746Y-3370021D01*
X1255217Y-3356203D01*
X1257960Y-3341928D01*
X1258874Y-3327400D01*
X1257960Y-3312871D01*
X1255217Y-3298545D01*
X1250746Y-3284728D01*
X1244549Y-3271570D01*
X1236726Y-3259277D01*
X1227480Y-3248050D01*
X1216863Y-3238093D01*
X1205077Y-3229559D01*
X1191920Y-3222345D01*
X1188567Y-3220161D01*
X1186281Y-3216859D01*
X1185519Y-3212896D01*
X1185519Y-2973882D01*
X1184656Y-2965399D01*
X1182370Y-2957728D01*
X1178560Y-2950667D01*
X1173175Y-2944114D01*
X958291Y-2729230D01*
X956106Y-2725928D01*
X955294Y-2722016D01*
X955294Y-2464257D01*
X954481Y-2455824D01*
X952144Y-2448153D01*
X948385Y-2441092D01*
X942949Y-2434488D01*
X861263Y-2352802D01*
X854659Y-2347417D01*
X847598Y-2343607D01*
X839927Y-2341321D01*
X831494Y-2340457D01*
X789838Y-2340457D01*
X785926Y-2339695D01*
X782675Y-2337511D01*
X780440Y-2334209D01*
X779678Y-2330297D01*
X779678Y-2305862D01*
X778967Y-2299563D01*
X777036Y-2294077D01*
X773988Y-2289200D01*
X769874Y-2285085D01*
X764997Y-2282037D01*
X759510Y-2280107D01*
X753211Y-2279396D01*
X728624Y-2279396D01*
X724763Y-2278634D01*
X721461Y-2276398D01*
X719277Y-2273147D01*
X718464Y-2269236D01*
X718464Y-1868627D01*
X717651Y-1860194D01*
X715314Y-1852523D01*
X711555Y-1845462D01*
X706120Y-1838858D01*
X155854Y-1288592D01*
X153670Y-1285290D01*
X152908Y-1281430D01*
X152908Y-1165758D01*
X152196Y-1159408D01*
X150266Y-1153972D01*
X144475Y-1145286D01*
X143713Y-1141374D01*
X144475Y-1137513D01*
X147167Y-1133703D01*
X150266Y-1128776D01*
X152196Y-1123340D01*
X152908Y-1116990D01*
X152908Y-965758D01*
X152196Y-959408D01*
X150266Y-953973D01*
X147167Y-949096D01*
X143103Y-944981D01*
X138176Y-941882D01*
X132740Y-940003D01*
X126441Y-939292D01*
X101854Y-939292D01*
X97993Y-938479D01*
X94691Y-936294D01*
X92506Y-932992D01*
X91694Y-929132D01*
X91694Y-914908D01*
X90881Y-906424D01*
X88544Y-898753D01*
X84785Y-891692D01*
X79349Y-885139D01*
X28041Y-833831D01*
X21488Y-828395D01*
X17018Y-826008D01*
X14630Y-824230D01*
X9601Y-819200D01*
X1574Y-813562D01*
X-7366Y-809447D01*
X-16814Y-806907D01*
X-26619Y-806043D01*
X-36423Y-806907D01*
X-45872Y-809447D01*
X-54813Y-813562D01*
X-62839Y-819200D01*
X-69799Y-826160D01*
X-75438Y-834186D01*
X-79552Y-843127D01*
X-82092Y-852576D01*
X-82956Y-862380D01*
X-82092Y-872185D01*
X-79552Y-881634D01*
X-75438Y-890574D01*
X-69799Y-898601D01*
X-62839Y-905560D01*
X-54813Y-911199D01*
X-45872Y-915314D01*
X-36423Y-917854D01*
X-26619Y-918718D01*
X-16814Y-917854D01*
X-12039Y-916584D01*
X-8534Y-916279D01*
X-5130Y-917194D01*
X-2235Y-919226D01*
X508Y-921918D01*
X2692Y-925220D01*
X3454Y-929132D01*
X2692Y-932992D01*
X508Y-936294D01*
X-2794Y-938479D01*
X-6705Y-939292D01*
X-24841Y-939292D01*
X-31140Y-940003D01*
X-36626Y-941882D01*
X-41503Y-944981D01*
X-45618Y-949096D01*
X-48717Y-953973D01*
X-50596Y-959408D01*
X-51308Y-965758D01*
X-51308Y-1116990D01*
X-50596Y-1123340D01*
X-48717Y-1128776D01*
X-42926Y-1137513D01*
X-42164Y-1141374D01*
X-42926Y-1145286D01*
X-48717Y-1153972D01*
X-50596Y-1159408D01*
X-51308Y-1165758D01*
X-51308Y-1316990D01*
X-50596Y-1323340D01*
X-48717Y-1328775D01*
X-45618Y-1333703D01*
X-41503Y-1337767D01*
X-36626Y-1340866D01*
X-31140Y-1342796D01*
X-24841Y-1343507D01*
X90881Y-1343507D01*
X94742Y-1344269D01*
X98044Y-1346454D01*
X633679Y-1882089D01*
X635914Y-1885391D01*
X636676Y-1889302D01*
X636676Y-2269236D01*
X635914Y-2273147D01*
X633679Y-2276398D01*
X630377Y-2278634D01*
X626516Y-2279396D01*
X601929Y-2279396D01*
X595630Y-2280107D01*
X590143Y-2282037D01*
X585266Y-2285085D01*
X581152Y-2289200D01*
X578104Y-2294077D01*
X576173Y-2299563D01*
X575462Y-2305862D01*
X575462Y-2457145D01*
X576173Y-2463444D01*
X578104Y-2468930D01*
X581152Y-2473807D01*
X583895Y-2477363D01*
X584860Y-2480614D01*
X584657Y-2484018D01*
X583336Y-2487168D01*
X580593Y-2491587D01*
X578662Y-2497074D01*
X577951Y-2503373D01*
X576834Y-2506980D01*
X574497Y-2509926D01*
X571195Y-2511806D01*
X567486Y-2512364D01*
X563778Y-2511552D01*
X560679Y-2509418D01*
X526491Y-2475230D01*
X524256Y-2471928D01*
X523493Y-2468016D01*
X523493Y-2184908D01*
X522681Y-2176424D01*
X520344Y-2168753D01*
X516585Y-2161692D01*
X511149Y-2155139D01*
X-148539Y-1495399D01*
X-155092Y-1490014D01*
X-162153Y-1486204D01*
X-169824Y-1483918D01*
X-178308Y-1483055D01*
X-690067Y-1483055D01*
X-693928Y-1482293D01*
X-697230Y-1480108D01*
X-1443939Y-733399D01*
X-1450492Y-728014D01*
X-1457553Y-724204D01*
X-1465224Y-721918D01*
X-1473708Y-721055D01*
X-1556867Y-721055D01*
X-1560068Y-720547D01*
X-1562912Y-719074D01*
X-1570380Y-713536D01*
X-1579016Y-709218D01*
X-1588211Y-706374D01*
X-1597761Y-705154D01*
X-1607413Y-705561D01*
X-1616862Y-707593D01*
X-1625803Y-711200D01*
X-1634032Y-716229D01*
X-1641246Y-722630D01*
X-1647342Y-730148D01*
X-1652016Y-738530D01*
X-1655216Y-747623D01*
X-1656842Y-757174D01*
X-1656842Y-766775D01*
X-1655216Y-776325D01*
X-1652016Y-785418D01*
X-1647342Y-793800D01*
X-1641246Y-801319D01*
X-1634032Y-807720D01*
X-1625803Y-812749D01*
X-1616862Y-816356D01*
X-1607413Y-818388D01*
X-1597761Y-818794D01*
X-1588211Y-817575D01*
X-1579016Y-814730D01*
X-1570380Y-810412D01*
X-1562912Y-804875D01*
X-1560068Y-803402D01*
X-1556867Y-802894D01*
X-1494332Y-802894D01*
X-1490472Y-803656D01*
X-1487170Y-805840D01*
X-740460Y-1552549D01*
X-733907Y-1557934D01*
X-726846Y-1561744D01*
X-719175Y-1564030D01*
X-710692Y-1564894D01*
X-198932Y-1564894D01*
X-195072Y-1565656D01*
X-191770Y-1567840D01*
X438708Y-2198370D01*
X440943Y-2201672D01*
X441706Y-2205532D01*
X441706Y-2488692D01*
X442518Y-2497124D01*
X444855Y-2504795D01*
X448614Y-2511856D01*
X453999Y-2518460D01*
X543153Y-2607564D01*
X549706Y-2612999D01*
X556768Y-2616758D01*
X564438Y-2619095D01*
X568807Y-2619502D01*
X572363Y-2620568D01*
X575310Y-2622804D01*
X577291Y-2625953D01*
X577951Y-2629611D01*
X577951Y-2654655D01*
X578662Y-2660954D01*
X580593Y-2666441D01*
X586384Y-2675128D01*
X587146Y-2679039D01*
X586384Y-2682900D01*
X584149Y-2686202D01*
X581152Y-2689199D01*
X578104Y-2694076D01*
X576173Y-2699562D01*
X575462Y-2705862D01*
X575462Y-2857144D01*
X576173Y-2863443D01*
X578104Y-2868930D01*
X581152Y-2873806D01*
X585266Y-2877921D01*
X590143Y-2880969D01*
X595630Y-2882900D01*
X601929Y-2883611D01*
X717753Y-2883611D01*
X721664Y-2884373D01*
X724916Y-2886608D01*
X846683Y-3008376D01*
X848918Y-3011627D01*
X849680Y-3015538D01*
X849680Y-3211626D01*
X848868Y-3215589D01*
X846632Y-3218891D01*
X843280Y-3221075D01*
X839622Y-3222548D01*
X826871Y-3229559D01*
X815136Y-3238093D01*
X804519Y-3248050D01*
X795223Y-3259277D01*
X787450Y-3271570D01*
X781253Y-3284728D01*
X776732Y-3298545D01*
X773988Y-3312871D01*
X773074Y-3327400D01*
X773988Y-3341928D01*
X776732Y-3356203D01*
X781253Y-3370021D01*
X787450Y-3383229D01*
X795223Y-3395522D01*
X804519Y-3406698D01*
X815136Y-3416655D01*
X826871Y-3425240D01*
X839622Y-3432251D01*
X853186Y-3437585D01*
X867257Y-3441242D01*
G37*
G36*
X1389735Y-3443020D02*
G01*
X1404264Y-3443020D01*
X1418691Y-3441242D01*
X1432814Y-3437585D01*
X1446326Y-3432251D01*
X1459077Y-3425240D01*
X1470863Y-3416655D01*
X1481480Y-3406698D01*
X1490726Y-3395522D01*
X1498549Y-3383229D01*
X1504746Y-3370021D01*
X1509217Y-3356203D01*
X1511960Y-3341928D01*
X1512874Y-3327400D01*
X1511960Y-3312871D01*
X1509217Y-3298545D01*
X1504746Y-3284728D01*
X1498549Y-3271570D01*
X1490726Y-3259277D01*
X1481480Y-3248050D01*
X1470863Y-3238093D01*
X1459077Y-3229559D01*
X1445920Y-3222345D01*
X1442567Y-3220161D01*
X1440281Y-3216859D01*
X1439519Y-3212896D01*
X1439519Y-3052876D01*
X1438656Y-3044444D01*
X1436370Y-3036773D01*
X1432560Y-3029712D01*
X1427175Y-3023108D01*
X1096467Y-2692400D01*
X1094282Y-2689098D01*
X1093520Y-2685237D01*
X1093520Y-2190546D01*
X1094435Y-2186381D01*
X1096975Y-2182926D01*
X1100734Y-2180844D01*
X1105052Y-2180488D01*
X1115060Y-2184196D01*
X1121359Y-2184908D01*
X1272641Y-2184908D01*
X1278940Y-2184196D01*
X1284630Y-2182164D01*
X1288389Y-2181606D01*
X1292047Y-2182469D01*
X1295196Y-2184603D01*
X1297330Y-2187702D01*
X1298143Y-2191410D01*
X1297584Y-2195118D01*
X1295603Y-2200808D01*
X1294892Y-2207158D01*
X1294892Y-2358390D01*
X1295603Y-2364740D01*
X1297482Y-2370175D01*
X1300581Y-2375103D01*
X1304696Y-2379167D01*
X1309573Y-2382266D01*
X1315059Y-2384196D01*
X1321358Y-2384907D01*
X1346657Y-2384907D01*
X1350314Y-2385568D01*
X1353464Y-2387549D01*
X1355750Y-2390495D01*
X1356918Y-2395524D01*
X1359255Y-2403195D01*
X1363014Y-2410256D01*
X1368399Y-2416860D01*
X1414881Y-2463342D01*
X1416913Y-2466238D01*
X1417828Y-2469642D01*
X1418183Y-2473452D01*
X1420723Y-2482900D01*
X1424838Y-2491689D01*
X1430426Y-2499664D01*
X1437284Y-2506573D01*
X1445260Y-2512161D01*
X1454099Y-2516276D01*
X1463497Y-2518816D01*
X1473200Y-2519629D01*
X1482902Y-2518816D01*
X1492300Y-2516276D01*
X1501140Y-2512161D01*
X1509115Y-2506573D01*
X1515973Y-2499664D01*
X1521561Y-2491689D01*
X1525676Y-2482900D01*
X1528216Y-2473452D01*
X1529080Y-2463800D01*
X1528216Y-2454097D01*
X1525676Y-2444648D01*
X1521561Y-2435860D01*
X1515973Y-2427884D01*
X1509115Y-2420975D01*
X1501140Y-2415387D01*
X1492300Y-2411272D01*
X1482902Y-2408732D01*
X1479042Y-2408428D01*
X1475638Y-2407513D01*
X1472742Y-2405481D01*
X1469136Y-2401874D01*
X1467053Y-2398776D01*
X1466189Y-2395067D01*
X1466748Y-2391359D01*
X1468628Y-2388057D01*
X1471574Y-2385720D01*
X1475181Y-2384602D01*
X1478940Y-2384196D01*
X1484376Y-2382266D01*
X1489303Y-2379167D01*
X1493367Y-2375103D01*
X1496466Y-2370175D01*
X1498396Y-2364740D01*
X1499108Y-2358390D01*
X1499108Y-2207158D01*
X1498396Y-2200808D01*
X1496364Y-2195118D01*
X1495806Y-2191410D01*
X1496669Y-2187702D01*
X1498803Y-2184603D01*
X1501902Y-2182469D01*
X1505610Y-2181606D01*
X1509318Y-2182164D01*
X1515059Y-2184196D01*
X1521358Y-2184908D01*
X1672640Y-2184908D01*
X1678939Y-2184196D01*
X1684375Y-2182266D01*
X1689303Y-2179167D01*
X1693367Y-2175103D01*
X1696466Y-2170176D01*
X1698396Y-2164740D01*
X1699107Y-2158390D01*
X1699107Y-2133854D01*
X1699869Y-2129942D01*
X1702054Y-2126640D01*
X1705356Y-2124456D01*
X1709267Y-2123694D01*
X1756867Y-2123694D01*
X1760728Y-2124456D01*
X1764030Y-2126640D01*
X1810308Y-2172919D01*
X1812543Y-2176221D01*
X1813306Y-2180132D01*
X1813306Y-2341016D01*
X1812543Y-2344928D01*
X1810308Y-2348230D01*
X1622450Y-2536088D01*
X1617014Y-2542692D01*
X1613255Y-2549753D01*
X1610918Y-2557424D01*
X1610106Y-2565857D01*
X1610106Y-3212287D01*
X1609293Y-3216198D01*
X1607058Y-3219551D01*
X1603654Y-3221736D01*
X1601622Y-3222548D01*
X1588871Y-3229559D01*
X1577136Y-3238093D01*
X1566519Y-3248050D01*
X1557223Y-3259277D01*
X1549450Y-3271570D01*
X1543253Y-3284728D01*
X1538732Y-3298545D01*
X1535988Y-3312871D01*
X1535074Y-3327400D01*
X1535988Y-3341928D01*
X1538732Y-3356203D01*
X1543253Y-3370021D01*
X1549450Y-3383229D01*
X1557223Y-3395522D01*
X1566519Y-3406698D01*
X1577136Y-3416655D01*
X1588871Y-3425240D01*
X1601622Y-3432251D01*
X1615186Y-3437585D01*
X1629257Y-3441242D01*
X1643735Y-3443020D01*
X1658264Y-3443020D01*
X1672691Y-3441242D01*
X1686814Y-3437585D01*
X1700326Y-3432251D01*
X1713077Y-3425240D01*
X1724863Y-3416655D01*
X1735480Y-3406698D01*
X1744725Y-3395522D01*
X1752549Y-3383229D01*
X1758746Y-3370021D01*
X1763217Y-3356203D01*
X1765960Y-3341928D01*
X1766874Y-3327400D01*
X1765960Y-3312871D01*
X1763217Y-3298545D01*
X1758746Y-3284728D01*
X1752549Y-3271570D01*
X1744725Y-3259277D01*
X1735480Y-3248050D01*
X1724863Y-3238093D01*
X1713077Y-3229559D01*
X1700326Y-3222548D01*
X1698345Y-3221736D01*
X1694942Y-3219551D01*
X1692706Y-3216249D01*
X1691893Y-3212287D01*
X1691893Y-2586532D01*
X1692706Y-2582621D01*
X1694891Y-2579319D01*
X1882749Y-2391460D01*
X1888185Y-2384856D01*
X1891944Y-2377795D01*
X1894281Y-2370124D01*
X1895093Y-2361692D01*
X1895093Y-2159457D01*
X1894281Y-2151024D01*
X1891944Y-2143353D01*
X1888185Y-2136292D01*
X1882749Y-2129688D01*
X1807260Y-2054199D01*
X1800707Y-2048814D01*
X1793646Y-2045004D01*
X1785975Y-2042718D01*
X1777492Y-2041855D01*
X1709267Y-2041855D01*
X1705356Y-2041093D01*
X1702054Y-2038908D01*
X1699869Y-2035606D01*
X1699107Y-2031695D01*
X1699107Y-2007158D01*
X1698396Y-2000808D01*
X1696466Y-1995373D01*
X1693367Y-1990496D01*
X1689303Y-1986381D01*
X1684375Y-1983282D01*
X1678939Y-1981403D01*
X1672640Y-1980692D01*
X1521358Y-1980692D01*
X1515059Y-1981403D01*
X1509572Y-1983282D01*
X1500886Y-1989074D01*
X1496974Y-1989836D01*
X1493113Y-1989074D01*
X1489303Y-1986381D01*
X1484376Y-1983282D01*
X1478940Y-1981403D01*
X1472641Y-1980692D01*
X1448054Y-1980692D01*
X1444193Y-1979879D01*
X1440891Y-1977694D01*
X1438706Y-1974392D01*
X1437894Y-1970532D01*
X1437894Y-1926132D01*
X1438706Y-1922221D01*
X1440891Y-1918919D01*
X1537970Y-1821840D01*
X1541272Y-1819656D01*
X1545132Y-1818893D01*
X1879092Y-1818893D01*
X1887575Y-1818030D01*
X1895246Y-1815744D01*
X1902307Y-1811934D01*
X1908860Y-1806549D01*
X1984349Y-1731060D01*
X1989785Y-1724456D01*
X1993544Y-1717395D01*
X1995881Y-1709724D01*
X1996693Y-1701292D01*
X1996693Y-555396D01*
X1995881Y-546963D01*
X1993544Y-539292D01*
X1989785Y-532231D01*
X1984400Y-525627D01*
X1751482Y-292404D01*
X1749247Y-289102D01*
X1748485Y-285242D01*
X1748485Y-108559D01*
X1749399Y-104343D01*
X1751990Y-100888D01*
X1755749Y-98806D01*
X1760067Y-98450D01*
X1764080Y-99974D01*
X1767179Y-102971D01*
X1768703Y-106984D01*
X1770532Y-118821D01*
X1775206Y-137007D01*
X1781759Y-154686D01*
X1790039Y-171602D01*
X1800047Y-187553D01*
X1811528Y-202488D01*
X1824532Y-216103D01*
X1838807Y-228396D01*
X1854250Y-239115D01*
X1870710Y-248259D01*
X1888032Y-255727D01*
X1906016Y-261366D01*
X1924456Y-265125D01*
X1943201Y-267055D01*
X1961997Y-267055D01*
X1980742Y-265125D01*
X1999183Y-261366D01*
X2017166Y-255727D01*
X2034489Y-248259D01*
X2050948Y-239115D01*
X2066391Y-228396D01*
X2080666Y-216103D01*
X2093671Y-202488D01*
X2105152Y-187553D01*
X2115159Y-171602D01*
X2123440Y-154686D01*
X2129993Y-137007D01*
X2134666Y-118821D01*
X2137562Y-100177D01*
X2138476Y-81381D01*
X2137562Y-62585D01*
X2134666Y-43942D01*
X2129993Y-25755D01*
X2123440Y-8077D01*
X2115159Y8839D01*
X2105152Y24790D01*
X2093671Y39725D01*
X2080666Y53340D01*
X2066391Y65633D01*
X2050948Y76352D01*
X2034489Y85496D01*
X2017166Y92964D01*
X1999183Y98602D01*
X1980742Y102362D01*
X1961997Y104292D01*
X1943201Y104292D01*
X1924456Y102362D01*
X1906016Y98602D01*
X1888032Y92964D01*
X1870710Y85496D01*
X1854250Y76352D01*
X1838807Y65633D01*
X1824532Y53340D01*
X1811528Y39725D01*
X1800047Y24790D01*
X1790039Y8839D01*
X1781759Y-8077D01*
X1775206Y-25755D01*
X1770532Y-43942D01*
X1768703Y-55778D01*
X1767179Y-59791D01*
X1764080Y-62788D01*
X1760067Y-64312D01*
X1755749Y-63957D01*
X1751990Y-61874D01*
X1749399Y-58419D01*
X1748485Y-54203D01*
X1748485Y286105D01*
X1747672Y294589D01*
X1745335Y302260D01*
X1741576Y309321D01*
X1736140Y315874D01*
X1472590Y579424D01*
X1470660Y582218D01*
X1469694Y585470D01*
X1469898Y588873D01*
X1471168Y592023D01*
X1473504Y595731D01*
X1475435Y601218D01*
X1476146Y607517D01*
X1476146Y763879D01*
X1475435Y770178D01*
X1473504Y775665D01*
X1470456Y780542D01*
X1466342Y784656D01*
X1461465Y787704D01*
X1455978Y789635D01*
X1449679Y790346D01*
X1321917Y790346D01*
X1318006Y791108D01*
X1314754Y793343D01*
X1292047Y816000D01*
X1285494Y821385D01*
X1278432Y825195D01*
X1270762Y827481D01*
X1262278Y828344D01*
X880008Y828344D01*
X876909Y828802D01*
X874166Y830173D01*
X866140Y835812D01*
X857300Y839927D01*
X847902Y842416D01*
X838200Y843280D01*
X828497Y842416D01*
X819099Y839927D01*
X810260Y835812D01*
X802284Y830224D01*
X795375Y823315D01*
X789787Y815340D01*
X785672Y806500D01*
X783183Y797102D01*
X782320Y787400D01*
X783183Y777697D01*
X785672Y768299D01*
X789787Y759460D01*
X795375Y751484D01*
X802284Y744626D01*
X810260Y739038D01*
X819099Y734923D01*
X828497Y732383D01*
X838200Y731570D01*
X847902Y732383D01*
X857300Y734923D01*
X866140Y739038D01*
X874166Y744677D01*
X876960Y746048D01*
X880008Y746506D01*
X1241602Y746506D01*
X1245514Y745744D01*
X1248816Y743559D01*
X1263853Y728472D01*
X1266088Y725170D01*
X1266850Y721309D01*
X1266850Y607517D01*
X1267561Y601218D01*
X1269492Y595731D01*
X1272540Y590854D01*
X1276654Y586740D01*
X1281531Y583692D01*
X1287018Y581761D01*
X1293317Y581050D01*
X1326540Y581050D01*
X1330401Y580288D01*
X1333703Y578053D01*
X1335938Y574802D01*
X1336700Y570890D01*
X1336700Y559104D01*
X1337513Y550672D01*
X1340256Y541782D01*
X1340713Y537921D01*
X1339646Y534162D01*
X1337208Y531114D01*
X1333855Y529183D01*
X1331468Y528370D01*
X1319174Y522325D01*
X1307795Y514705D01*
X1297533Y505663D01*
X1288491Y495401D01*
X1280871Y484022D01*
X1274826Y471728D01*
X1270457Y458774D01*
X1269796Y455523D01*
X1268526Y452272D01*
X1266291Y449630D01*
X1263243Y447903D01*
X1259840Y447344D01*
X880008Y447344D01*
X876909Y447801D01*
X874166Y449173D01*
X866140Y454812D01*
X857300Y458927D01*
X847902Y461416D01*
X838200Y462280D01*
X828497Y461416D01*
X819099Y458927D01*
X810260Y454812D01*
X802284Y449224D01*
X795375Y442315D01*
X789787Y434340D01*
X785672Y425500D01*
X783183Y416102D01*
X782320Y406400D01*
X783183Y396697D01*
X785672Y387299D01*
X789787Y378460D01*
X795375Y370484D01*
X802284Y363626D01*
X810260Y358038D01*
X819099Y353923D01*
X823518Y352704D01*
X827430Y350723D01*
X830071Y347218D01*
X831037Y342900D01*
X830071Y338632D01*
X827430Y335127D01*
X823518Y333095D01*
X819099Y331927D01*
X810260Y327812D01*
X802284Y322224D01*
X795375Y315315D01*
X789787Y307340D01*
X785672Y298500D01*
X783183Y289102D01*
X782320Y279400D01*
X783183Y269697D01*
X785672Y260299D01*
X789787Y251460D01*
X795375Y243484D01*
X802284Y236626D01*
X810260Y231038D01*
X819099Y226923D01*
X828497Y224383D01*
X838200Y223570D01*
X847902Y224383D01*
X857300Y226923D01*
X866140Y231038D01*
X874166Y236677D01*
X876960Y238048D01*
X880008Y238506D01*
X1220622Y238506D01*
X1224534Y237744D01*
X1227785Y235559D01*
X1264767Y198577D01*
X1267104Y194970D01*
X1267714Y190703D01*
X1266850Y177698D01*
X1267764Y164033D01*
X1270457Y150622D01*
X1274826Y137668D01*
X1280871Y125374D01*
X1288491Y113995D01*
X1297533Y103733D01*
X1307795Y94691D01*
X1319174Y87071D01*
X1331468Y81026D01*
X1344422Y76657D01*
X1357833Y73964D01*
X1371498Y73050D01*
X1385163Y73964D01*
X1398574Y76657D01*
X1411528Y81026D01*
X1423822Y87071D01*
X1435201Y94691D01*
X1445869Y104038D01*
X1449120Y105968D01*
X1452880Y106578D01*
X1456588Y105714D01*
X1459738Y103581D01*
X1483715Y79654D01*
X1485900Y76352D01*
X1486662Y72440D01*
X1486662Y-284226D01*
X1485696Y-288645D01*
X1482902Y-292150D01*
X1478838Y-294132D01*
X1474317Y-294182D01*
X1470253Y-292252D01*
X1467408Y-288747D01*
X1462125Y-277977D01*
X1454505Y-266598D01*
X1445463Y-256336D01*
X1435201Y-247294D01*
X1423822Y-239674D01*
X1411528Y-233629D01*
X1398574Y-229260D01*
X1385163Y-226567D01*
X1371498Y-225653D01*
X1357833Y-226567D01*
X1344422Y-229260D01*
X1331468Y-233629D01*
X1319174Y-239674D01*
X1307795Y-247294D01*
X1297533Y-256336D01*
X1288491Y-266598D01*
X1280871Y-277977D01*
X1274826Y-290271D01*
X1273048Y-295605D01*
X1270914Y-299161D01*
X1267510Y-301599D01*
X1263396Y-302463D01*
X1227632Y-302463D01*
X1219149Y-303326D01*
X1211478Y-305612D01*
X1204366Y-309422D01*
X1197813Y-314807D01*
X1175512Y-337108D01*
X1172210Y-339293D01*
X1168349Y-340055D01*
X904646Y-340055D01*
X900430Y-339140D01*
X896975Y-336550D01*
X894892Y-332790D01*
X894587Y-328472D01*
X896112Y-324408D01*
X903782Y-316839D01*
X907084Y-311404D01*
X970991Y-174345D01*
X973023Y-168300D01*
X973632Y-162560D01*
X972921Y-156819D01*
X970940Y-151384D01*
X967790Y-146507D01*
X963625Y-142443D01*
X958189Y-139141D01*
X893267Y-108864D01*
X890168Y-106629D01*
X888136Y-103428D01*
X887425Y-99669D01*
X887425Y67411D01*
X886561Y75844D01*
X884275Y83515D01*
X880465Y90576D01*
X875080Y97180D01*
X400354Y571906D01*
X398170Y575208D01*
X397357Y579069D01*
X397357Y593191D01*
X397865Y596239D01*
X399186Y599033D01*
X404825Y607060D01*
X408940Y615899D01*
X411480Y625297D01*
X412343Y635000D01*
X411480Y644702D01*
X408940Y654100D01*
X404825Y662940D01*
X399237Y670915D01*
X392379Y677824D01*
X384403Y683412D01*
X375564Y687527D01*
X366166Y690016D01*
X356463Y690880D01*
X346760Y690016D01*
X337362Y687527D01*
X328523Y683412D01*
X320548Y677824D01*
X313690Y670915D01*
X308102Y662940D01*
X303987Y654100D01*
X301447Y644702D01*
X300583Y635000D01*
X301447Y625297D01*
X303987Y615899D01*
X308102Y607060D01*
X313740Y599033D01*
X315061Y596239D01*
X315569Y593191D01*
X315569Y558444D01*
X316382Y549960D01*
X318719Y542290D01*
X322478Y535228D01*
X327914Y528675D01*
X802640Y53949D01*
X804824Y50647D01*
X805586Y46736D01*
X805586Y-65481D01*
X804773Y-69494D01*
X802386Y-72898D01*
X793292Y-78435D01*
X789228Y-82600D01*
X785926Y-88036D01*
X722020Y-225094D01*
X719988Y-231140D01*
X719378Y-237134D01*
X718312Y-240792D01*
X715975Y-243738D01*
X712724Y-245668D01*
X709015Y-246278D01*
X705307Y-245516D01*
X702157Y-243433D01*
X697839Y-239217D01*
X692404Y-235864D01*
X627481Y-205587D01*
X624382Y-203352D01*
X622350Y-200152D01*
X621639Y-196392D01*
X621639Y79197D01*
X620776Y87680D01*
X618490Y95351D01*
X614680Y102412D01*
X609295Y108966D01*
X490067Y228193D01*
X488035Y231089D01*
X487121Y234492D01*
X486816Y238302D01*
X484276Y247700D01*
X480161Y256540D01*
X474573Y264515D01*
X467715Y271424D01*
X459740Y277012D01*
X450900Y281127D01*
X441502Y283616D01*
X431800Y284480D01*
X422097Y283616D01*
X412699Y281127D01*
X403860Y277012D01*
X395884Y271424D01*
X388975Y264515D01*
X383387Y256540D01*
X379272Y247700D01*
X376783Y238302D01*
X375920Y228600D01*
X376783Y218897D01*
X379272Y209499D01*
X383387Y200660D01*
X388975Y192684D01*
X395884Y185826D01*
X403860Y180238D01*
X412699Y176123D01*
X422097Y173583D01*
X425958Y173278D01*
X429361Y172364D01*
X432257Y170332D01*
X536854Y65735D01*
X539038Y62433D01*
X539800Y58572D01*
X539800Y-162255D01*
X538988Y-166268D01*
X536600Y-169621D01*
X532384Y-172059D01*
X527507Y-175209D01*
X523443Y-179324D01*
X520141Y-184759D01*
X456234Y-321868D01*
X454202Y-327863D01*
X453643Y-333654D01*
X454355Y-339394D01*
X456336Y-344830D01*
X459435Y-349707D01*
X463600Y-353720D01*
X469036Y-357022D01*
X606094Y-420979D01*
X612140Y-423011D01*
X618185Y-423570D01*
X621792Y-424637D01*
X624789Y-426974D01*
X626719Y-430225D01*
X627329Y-433933D01*
X626516Y-437642D01*
X624433Y-440791D01*
X620217Y-445109D01*
X616864Y-450545D01*
X588518Y-511403D01*
X586232Y-514502D01*
X582930Y-516585D01*
X579120Y-517245D01*
X575360Y-516432D01*
X572109Y-514248D01*
X420878Y-362966D01*
X419100Y-360578D01*
X418084Y-357784D01*
X399592Y-265328D01*
X399542Y-261569D01*
X400812Y-258114D01*
X445312Y-183946D01*
X447243Y-181610D01*
X449783Y-179933D01*
X459740Y-175361D01*
X467715Y-169773D01*
X474573Y-162915D01*
X480161Y-154940D01*
X484276Y-146100D01*
X486816Y-136702D01*
X487680Y-127000D01*
X486816Y-117297D01*
X484276Y-107899D01*
X480161Y-99060D01*
X474573Y-91084D01*
X467715Y-84175D01*
X459740Y-78587D01*
X450900Y-74472D01*
X441502Y-71983D01*
X431800Y-71120D01*
X422097Y-71983D01*
X412699Y-74472D01*
X403860Y-78587D01*
X395884Y-84175D01*
X388975Y-91084D01*
X383387Y-99060D01*
X379272Y-107899D01*
X376783Y-117297D01*
X375920Y-127000D01*
X376682Y-135585D01*
X376428Y-138734D01*
X375259Y-141681D01*
X320751Y-232511D01*
X317144Y-240182D01*
X315163Y-247954D01*
X314756Y-256082D01*
X315569Y-262382D01*
X340766Y-388518D01*
X343255Y-396595D01*
X347014Y-403656D01*
X352399Y-410260D01*
X532993Y-590804D01*
X539546Y-596239D01*
X546404Y-599897D01*
X549300Y-602183D01*
X551129Y-605383D01*
X553059Y-610616D01*
X556209Y-615492D01*
X560324Y-619506D01*
X565759Y-622808D01*
X702868Y-686765D01*
X708863Y-688797D01*
X714654Y-689356D01*
X720394Y-688644D01*
X725830Y-686663D01*
X730707Y-683514D01*
X734720Y-679348D01*
X738022Y-673963D01*
X801979Y-536854D01*
X804011Y-530809D01*
X804570Y-525068D01*
X802995Y-514756D01*
X803960Y-510895D01*
X806297Y-507695D01*
X810361Y-505409D01*
X815187Y-502259D01*
X819251Y-498093D01*
X822553Y-492658D01*
X852830Y-427735D01*
X855065Y-424637D01*
X858316Y-422605D01*
X862076Y-421893D01*
X1172108Y-421893D01*
X1176020Y-422656D01*
X1179271Y-424840D01*
X1181506Y-428142D01*
X1182268Y-432054D01*
X1181506Y-435914D01*
X1179271Y-439216D01*
X875030Y-743508D01*
X871728Y-745693D01*
X867867Y-746455D01*
X575411Y-746455D01*
X571500Y-745693D01*
X568198Y-743508D01*
X198526Y-373786D01*
X196291Y-370382D01*
X195580Y-366318D01*
X196494Y-362305D01*
X222808Y-306019D01*
X224790Y-299974D01*
X225399Y-294233D01*
X223824Y-283870D01*
X224739Y-280009D01*
X227126Y-276809D01*
X230479Y-274777D01*
X234492Y-273354D01*
X239318Y-270205D01*
X243382Y-266039D01*
X246684Y-260604D01*
X310591Y-123545D01*
X312623Y-117500D01*
X313232Y-111760D01*
X312521Y-106019D01*
X310540Y-100584D01*
X307390Y-95707D01*
X303225Y-91643D01*
X297789Y-88341D01*
X160731Y-24434D01*
X154686Y-22402D01*
X148945Y-21793D01*
X143205Y-22555D01*
X137769Y-24536D01*
X132892Y-27635D01*
X128828Y-31800D01*
X125526Y-37236D01*
X113893Y-62179D01*
X111607Y-65328D01*
X108356Y-67360D01*
X104495Y-68021D01*
X100736Y-67208D01*
X97485Y-65074D01*
X-6908Y39370D01*
X-9093Y42672D01*
X-9906Y46532D01*
X-9906Y161442D01*
X-9398Y164490D01*
X-8077Y167233D01*
X-2438Y175260D01*
X1676Y184099D01*
X4216Y193497D01*
X5080Y203200D01*
X4216Y212902D01*
X1676Y222300D01*
X-2438Y231140D01*
X-8026Y239115D01*
X-14884Y246024D01*
X-22860Y251612D01*
X-31699Y255727D01*
X-41097Y258216D01*
X-50800Y259079D01*
X-60502Y258216D01*
X-69900Y255727D01*
X-78740Y251612D01*
X-86715Y246024D01*
X-93624Y239115D01*
X-99212Y231140D01*
X-103327Y222300D01*
X-105816Y212902D01*
X-106680Y203200D01*
X-105816Y193497D01*
X-103327Y184099D01*
X-99212Y175260D01*
X-93522Y167233D01*
X-92202Y164439D01*
X-91694Y161391D01*
X-91694Y25908D01*
X-90881Y17424D01*
X-88544Y9753D01*
X-84785Y2692D01*
X-79349Y-3860D01*
X65938Y-149199D01*
X68224Y-152654D01*
X68935Y-156667D01*
X67970Y-160680D01*
X61620Y-174294D01*
X59588Y-180340D01*
X59029Y-186080D01*
X60553Y-196443D01*
X59639Y-200304D01*
X57302Y-203454D01*
X53898Y-205536D01*
X49936Y-206959D01*
X45059Y-210108D01*
X40995Y-214274D01*
X37693Y-219710D01*
X-26212Y-356768D01*
X-28244Y-362813D01*
X-28803Y-368554D01*
X-28092Y-374294D01*
X-27127Y-378663D01*
X-27635Y-382066D01*
X-29260Y-385064D01*
X-31750Y-387350D01*
X-35458Y-389737D01*
X-38608Y-391058D01*
X-42062Y-391312D01*
X-45364Y-390347D01*
X-48158Y-388366D01*
X-132740Y-303784D01*
X-134924Y-300482D01*
X-135737Y-296621D01*
X-135737Y86868D01*
X-135229Y89966D01*
X-133908Y92710D01*
X-129438Y99060D01*
X-125323Y107899D01*
X-122783Y117297D01*
X-121920Y127000D01*
X-122783Y136702D01*
X-125323Y146100D01*
X-129438Y154940D01*
X-135026Y162915D01*
X-141884Y169824D01*
X-149860Y175412D01*
X-158699Y179527D01*
X-168097Y182016D01*
X-177800Y182880D01*
X-187502Y182016D01*
X-196900Y179527D01*
X-205740Y175412D01*
X-213715Y169824D01*
X-220624Y162915D01*
X-226212Y154940D01*
X-230327Y146100D01*
X-232816Y136702D01*
X-233679Y127000D01*
X-232816Y117297D01*
X-230327Y107899D01*
X-226212Y99060D01*
X-218287Y87731D01*
X-217525Y83820D01*
X-217525Y-317246D01*
X-216712Y-325729D01*
X-214375Y-333400D01*
X-210616Y-340461D01*
X-205181Y-347014D01*
X-83210Y-469036D01*
X-80924Y-472490D01*
X-80213Y-476504D01*
X-81178Y-480517D01*
X-107442Y-536854D01*
X-109474Y-542848D01*
X-110032Y-548640D01*
X-109321Y-554380D01*
X-107340Y-559816D01*
X-104190Y-564692D01*
X-100076Y-568706D01*
X-94640Y-572008D01*
X42468Y-635965D01*
X48463Y-637997D01*
X54254Y-638556D01*
X59994Y-637844D01*
X65430Y-635863D01*
X70307Y-632714D01*
X74320Y-628548D01*
X77622Y-623163D01*
X141579Y-486054D01*
X143611Y-480009D01*
X144170Y-474268D01*
X143459Y-468528D01*
X142443Y-464159D01*
X143002Y-460806D01*
X144627Y-457809D01*
X147116Y-455472D01*
X150774Y-453135D01*
X153974Y-451764D01*
X157378Y-451561D01*
X160680Y-452475D01*
X163474Y-454456D01*
X524967Y-815949D01*
X531571Y-821334D01*
X538632Y-825144D01*
X546303Y-827430D01*
X554736Y-828294D01*
X888492Y-828294D01*
X896975Y-827430D01*
X902411Y-825804D01*
X906830Y-825449D01*
X910996Y-827074D01*
X914095Y-830275D01*
X915466Y-834542D01*
X914908Y-838962D01*
X912520Y-842721D01*
X909777Y-845464D01*
X904189Y-853440D01*
X900074Y-862279D01*
X897534Y-871677D01*
X896721Y-881380D01*
X897534Y-891082D01*
X900074Y-900480D01*
X904189Y-909319D01*
X909777Y-917295D01*
X916686Y-924153D01*
X924661Y-929741D01*
X933450Y-933856D01*
X942898Y-936396D01*
X952601Y-937260D01*
X962253Y-936396D01*
X971702Y-933856D01*
X980490Y-929741D01*
X988568Y-924153D01*
X991311Y-922782D01*
X994359Y-922274D01*
X1090218Y-922274D01*
X1094130Y-923086D01*
X1097381Y-925271D01*
X1099616Y-928573D01*
X1100378Y-932434D01*
X1100378Y-982014D01*
X1101090Y-988314D01*
X1103020Y-993800D01*
X1106068Y-998677D01*
X1110183Y-1002792D01*
X1115060Y-1005840D01*
X1120546Y-1007770D01*
X1126845Y-1008481D01*
X1278128Y-1008481D01*
X1284427Y-1007770D01*
X1290116Y-1005789D01*
X1293876Y-1005230D01*
X1297584Y-1006043D01*
X1300683Y-1008176D01*
X1302816Y-1011275D01*
X1303629Y-1014984D01*
X1303070Y-1018743D01*
X1301089Y-1024432D01*
X1300378Y-1030732D01*
X1300378Y-1080312D01*
X1299616Y-1084224D01*
X1297381Y-1087475D01*
X1294130Y-1089710D01*
X1290218Y-1090472D01*
X1044397Y-1090472D01*
X1041349Y-1090015D01*
X1038555Y-1088644D01*
X1030528Y-1083005D01*
X1021689Y-1078890D01*
X1012291Y-1076350D01*
X1002588Y-1075537D01*
X992886Y-1076350D01*
X983487Y-1078890D01*
X974648Y-1083005D01*
X966673Y-1088593D01*
X959815Y-1095502D01*
X954227Y-1103477D01*
X950112Y-1112266D01*
X947572Y-1121714D01*
X946708Y-1131417D01*
X947572Y-1141069D01*
X950112Y-1150518D01*
X954227Y-1159306D01*
X959815Y-1167282D01*
X966673Y-1174191D01*
X974648Y-1179779D01*
X983487Y-1183894D01*
X992886Y-1186434D01*
X1002588Y-1187246D01*
X1012291Y-1186434D01*
X1021689Y-1183894D01*
X1030528Y-1179779D01*
X1038606Y-1174140D01*
X1041349Y-1172768D01*
X1044397Y-1172311D01*
X1290218Y-1172311D01*
X1293825Y-1172972D01*
X1296974Y-1174902D01*
X1299260Y-1177798D01*
X1300327Y-1181354D01*
X1301089Y-1188313D01*
X1303020Y-1193800D01*
X1306068Y-1198676D01*
X1310182Y-1202791D01*
X1315059Y-1205839D01*
X1320546Y-1207770D01*
X1326845Y-1208481D01*
X1478127Y-1208481D01*
X1484426Y-1207770D01*
X1489913Y-1205839D01*
X1494790Y-1202791D01*
X1498904Y-1198676D01*
X1501952Y-1193800D01*
X1503883Y-1188313D01*
X1504594Y-1182014D01*
X1504594Y-1030732D01*
X1503883Y-1024432D01*
X1501902Y-1018743D01*
X1501343Y-1014984D01*
X1502156Y-1011275D01*
X1504289Y-1008176D01*
X1507388Y-1006043D01*
X1511096Y-1005230D01*
X1514856Y-1005789D01*
X1520545Y-1007770D01*
X1526844Y-1008481D01*
X1551533Y-1008481D01*
X1555394Y-1009243D01*
X1558696Y-1011478D01*
X1560931Y-1014730D01*
X1561693Y-1018641D01*
X1561693Y-1185214D01*
X1560931Y-1189126D01*
X1558696Y-1192428D01*
X1505661Y-1245463D01*
X1502359Y-1247698D01*
X1498447Y-1248460D01*
X1270101Y-1248460D01*
X1261668Y-1249273D01*
X1253998Y-1251610D01*
X1246936Y-1255369D01*
X1240332Y-1260805D01*
X1163624Y-1337513D01*
X1160322Y-1339697D01*
X1156411Y-1340459D01*
X665988Y-1340459D01*
X662076Y-1339697D01*
X658774Y-1337513D01*
X388518Y-1067206D01*
X386486Y-1064310D01*
X385572Y-1060907D01*
X385216Y-1057097D01*
X382676Y-1047648D01*
X378561Y-1038860D01*
X372973Y-1030884D01*
X366115Y-1023975D01*
X358140Y-1018387D01*
X349300Y-1014272D01*
X339902Y-1011732D01*
X330200Y-1010919D01*
X320497Y-1011732D01*
X311099Y-1014272D01*
X302260Y-1018387D01*
X294284Y-1023975D01*
X287426Y-1030884D01*
X281838Y-1038860D01*
X277723Y-1047648D01*
X275183Y-1057097D01*
X274320Y-1066800D01*
X275183Y-1076452D01*
X277723Y-1085900D01*
X281838Y-1094689D01*
X287426Y-1102664D01*
X294284Y-1109573D01*
X302260Y-1115161D01*
X311099Y-1119276D01*
X320497Y-1121816D01*
X324358Y-1122121D01*
X327761Y-1123035D01*
X330657Y-1125067D01*
X615543Y-1409954D01*
X622096Y-1415338D01*
X629158Y-1419148D01*
X636828Y-1421434D01*
X645312Y-1422298D01*
X1098397Y-1422298D01*
X1102664Y-1423212D01*
X1106119Y-1425803D01*
X1108151Y-1429613D01*
X1108456Y-1433931D01*
X1106932Y-1437944D01*
X1102969Y-1444091D01*
X1101090Y-1449527D01*
X1100378Y-1455826D01*
X1100378Y-1529943D01*
X1099616Y-1533804D01*
X1097381Y-1537106D01*
X1024026Y-1610512D01*
X1018641Y-1617065D01*
X1014831Y-1624126D01*
X1012545Y-1631797D01*
X1011682Y-1640281D01*
X1011682Y-2705862D01*
X1012545Y-2714345D01*
X1014831Y-2722016D01*
X1018641Y-2729077D01*
X1024026Y-2735630D01*
X1354734Y-3066338D01*
X1356918Y-3069640D01*
X1357680Y-3073552D01*
X1357680Y-3211626D01*
X1356918Y-3215589D01*
X1354632Y-3218891D01*
X1351280Y-3221075D01*
X1347622Y-3222548D01*
X1334871Y-3229559D01*
X1323136Y-3238093D01*
X1312519Y-3248050D01*
X1303223Y-3259277D01*
X1295450Y-3271570D01*
X1289253Y-3284728D01*
X1284732Y-3298545D01*
X1281988Y-3312871D01*
X1281074Y-3327400D01*
X1281988Y-3341928D01*
X1284732Y-3356203D01*
X1289253Y-3370021D01*
X1295450Y-3383229D01*
X1303223Y-3395522D01*
X1312519Y-3406698D01*
X1323136Y-3416655D01*
X1334871Y-3425240D01*
X1347622Y-3432251D01*
X1361186Y-3437585D01*
X1375257Y-3441242D01*
G37*
G36*
X-3047746Y-3429508D02*
G01*
X-2730804Y-3429508D01*
X-2724759Y-3428847D01*
X-2719273Y-3426917D01*
X-2714345Y-3423818D01*
X-2712008Y-3421684D01*
X-2636215Y-3345891D01*
X-2632405Y-3341166D01*
X-2629865Y-3335934D01*
X-2628595Y-3330295D01*
X-2628392Y-3327095D01*
X-2628392Y-2959912D01*
X-2627731Y-2956356D01*
X-2625902Y-2953258D01*
X-2546248Y-2862275D01*
X-2227478Y-2543454D01*
X-2224176Y-2541270D01*
X-2220264Y-2540508D01*
X-2057958Y-2540508D01*
X-2051659Y-2539796D01*
X-2046224Y-2537866D01*
X-2041347Y-2534818D01*
X-2036318Y-2529636D01*
X-1837283Y-2264308D01*
X-1834032Y-2261463D01*
X-1829917Y-2260244D01*
X-1825599Y-2260854D01*
X-1821992Y-2263190D01*
X-1610969Y-2474214D01*
X-1607515Y-2477363D01*
X-1604010Y-2480056D01*
X-1600250Y-2482443D01*
X-1596339Y-2484526D01*
X-1592224Y-2486202D01*
X-1588008Y-2487523D01*
X-1583639Y-2488488D01*
X-1579270Y-2489098D01*
X-1574596Y-2489301D01*
X-1407668Y-2489301D01*
X-1403807Y-2490063D01*
X-1400505Y-2492248D01*
X-1398270Y-2495550D01*
X-1397508Y-2499461D01*
X-1397508Y-2513990D01*
X-1396796Y-2520340D01*
X-1394917Y-2525776D01*
X-1389126Y-2534513D01*
X-1388364Y-2538374D01*
X-1389126Y-2542286D01*
X-1394917Y-2550972D01*
X-1396796Y-2556408D01*
X-1397508Y-2562758D01*
X-1397508Y-2713990D01*
X-1396796Y-2720340D01*
X-1394917Y-2725775D01*
X-1391818Y-2730703D01*
X-1387703Y-2734767D01*
X-1382826Y-2737866D01*
X-1377340Y-2739796D01*
X-1371041Y-2740507D01*
X-1219758Y-2740507D01*
X-1213459Y-2739796D01*
X-1208024Y-2737866D01*
X-1203096Y-2734767D01*
X-1199032Y-2730703D01*
X-1195933Y-2725775D01*
X-1194003Y-2720340D01*
X-1193292Y-2713990D01*
X-1193292Y-2689453D01*
X-1192530Y-2685542D01*
X-1190345Y-2682240D01*
X-1187043Y-2680055D01*
X-1183132Y-2679293D01*
X-1089507Y-2679293D01*
X-1081024Y-2678430D01*
X-1073353Y-2676144D01*
X-1066292Y-2672334D01*
X-1059738Y-2666949D01*
X-976071Y-2583332D01*
X-972921Y-2581198D01*
X-969213Y-2580335D01*
X-957224Y-2579979D01*
X-946861Y-2577846D01*
X-936955Y-2574086D01*
X-927760Y-2568803D01*
X-919581Y-2562098D01*
X-912520Y-2554173D01*
X-906881Y-2545181D01*
X-902716Y-2535428D01*
X-900176Y-2525166D01*
X-899312Y-2514600D01*
X-900176Y-2503982D01*
X-902716Y-2493721D01*
X-906881Y-2483967D01*
X-912520Y-2474976D01*
X-919581Y-2467051D01*
X-927760Y-2460345D01*
X-936955Y-2455062D01*
X-946861Y-2451303D01*
X-957275Y-2449169D01*
X-967841Y-2448763D01*
X-978357Y-2450033D01*
X-988568Y-2452979D01*
X-998118Y-2457500D01*
X-1006856Y-2463546D01*
X-1014526Y-2470912D01*
X-1020876Y-2479344D01*
X-1025804Y-2488742D01*
X-1029157Y-2498801D01*
X-1030884Y-2509266D01*
X-1030884Y-2518156D01*
X-1031646Y-2522067D01*
X-1033830Y-2525369D01*
X-1102969Y-2594508D01*
X-1106271Y-2596692D01*
X-1110132Y-2597454D01*
X-1183132Y-2597454D01*
X-1187043Y-2596692D01*
X-1190345Y-2594508D01*
X-1192530Y-2591206D01*
X-1193292Y-2587294D01*
X-1193292Y-2562758D01*
X-1194003Y-2556408D01*
X-1195933Y-2550972D01*
X-1201724Y-2542286D01*
X-1202486Y-2538374D01*
X-1201724Y-2534513D01*
X-1199032Y-2530703D01*
X-1195933Y-2525776D01*
X-1194003Y-2520340D01*
X-1193292Y-2513990D01*
X-1193292Y-2362758D01*
X-1194003Y-2356408D01*
X-1195933Y-2350973D01*
X-1199032Y-2346096D01*
X-1203096Y-2341981D01*
X-1208024Y-2338882D01*
X-1213459Y-2337003D01*
X-1219758Y-2336292D01*
X-1371041Y-2336292D01*
X-1377340Y-2337003D01*
X-1382826Y-2338882D01*
X-1387703Y-2341981D01*
X-1391818Y-2346096D01*
X-1394917Y-2350973D01*
X-1396796Y-2356408D01*
X-1397508Y-2362758D01*
X-1397508Y-2377287D01*
X-1398270Y-2381199D01*
X-1400505Y-2384501D01*
X-1403807Y-2386685D01*
X-1407668Y-2387447D01*
X-1549552Y-2387447D01*
X-1553413Y-2386685D01*
X-1556715Y-2384501D01*
X-1762353Y-2178862D01*
X-1764385Y-2175916D01*
X-1765300Y-2172411D01*
X-1764893Y-2168804D01*
X-1763268Y-2165604D01*
X-1732178Y-2124100D01*
X-1729333Y-2119477D01*
X-1727403Y-2113940D01*
X-1726692Y-2107590D01*
X-1726692Y-1292301D01*
X-1726031Y-1288592D01*
X-1724050Y-1285443D01*
X-1721104Y-1283208D01*
X-1647037Y-1246174D01*
X-1642516Y-1245108D01*
X-1397304Y-1245108D01*
X-1391259Y-1244447D01*
X-1385773Y-1242517D01*
X-1380845Y-1239418D01*
X-1378508Y-1237284D01*
X-1328115Y-1186891D01*
X-1324305Y-1182166D01*
X-1321765Y-1176934D01*
X-1320495Y-1171295D01*
X-1320292Y-1168095D01*
X-1320292Y-1041653D01*
X-1320952Y-1035608D01*
X-1322882Y-1030173D01*
X-1325981Y-1025245D01*
X-1328115Y-1022858D01*
X-1378508Y-972464D01*
X-1383233Y-968654D01*
X-1388465Y-966165D01*
X-1394104Y-964844D01*
X-1397304Y-964692D01*
X-1686864Y-964692D01*
X-1690776Y-963879D01*
X-1694078Y-961694D01*
X-1723745Y-932027D01*
X-1725930Y-928725D01*
X-1726692Y-924864D01*
X-1726692Y-571449D01*
X-1726133Y-568096D01*
X-1724456Y-565099D01*
X-1641602Y-461518D01*
X-1638096Y-458673D01*
X-1633677Y-457708D01*
X-1371904Y-457708D01*
X-1365859Y-457047D01*
X-1360373Y-455117D01*
X-1355445Y-452018D01*
X-1353108Y-449884D01*
X-1328115Y-424891D01*
X-1324305Y-420166D01*
X-1321765Y-414934D01*
X-1320495Y-409295D01*
X-1320292Y-406095D01*
X-1320292Y-254558D01*
X-1321003Y-248208D01*
X-1322933Y-242773D01*
X-1326032Y-237896D01*
X-1330096Y-233781D01*
X-1335227Y-230581D01*
X-1338326Y-229311D01*
X-1416354Y-203403D01*
X-1422958Y-202692D01*
X-1777441Y-202692D01*
X-1783740Y-203403D01*
X-1789226Y-205282D01*
X-1794052Y-208330D01*
X-1799132Y-213563D01*
X-1875383Y-315214D01*
X-2002028Y-492556D01*
X-2004466Y-496620D01*
X-2006396Y-502208D01*
X-2007107Y-508558D01*
X-2007107Y-1762455D01*
X-2007971Y-1766468D01*
X-2010308Y-1769821D01*
X-2445766Y-2181098D01*
X-2449017Y-2183180D01*
X-2452776Y-2183892D01*
X-2590546Y-2183892D01*
X-2596591Y-2184552D01*
X-2602026Y-2186432D01*
X-2606954Y-2189530D01*
X-2609342Y-2191664D01*
X-3116935Y-2699258D01*
X-3120745Y-2704033D01*
X-3123234Y-2709214D01*
X-3124555Y-2714904D01*
X-3124708Y-2718054D01*
X-3124708Y-3352495D01*
X-3124047Y-3358540D01*
X-3122117Y-3364026D01*
X-3119069Y-3368903D01*
X-3116935Y-3371291D01*
X-3066542Y-3421684D01*
X-3061766Y-3425494D01*
X-3056585Y-3428034D01*
X-3050895Y-3429304D01*
G37*
G36*
X1943201Y-3067050D02*
G01*
X1961997Y-3067050D01*
X1980742Y-3065119D01*
X1999183Y-3061360D01*
X2017166Y-3055721D01*
X2034489Y-3048254D01*
X2050948Y-3039110D01*
X2066391Y-3028391D01*
X2080666Y-3016097D01*
X2093671Y-3002483D01*
X2105152Y-2987548D01*
X2115159Y-2971596D01*
X2123440Y-2954680D01*
X2129993Y-2937002D01*
X2134666Y-2918815D01*
X2137562Y-2900172D01*
X2138476Y-2881376D01*
X2137562Y-2862580D01*
X2134666Y-2843936D01*
X2129993Y-2825750D01*
X2123440Y-2808071D01*
X2115159Y-2791155D01*
X2105152Y-2775204D01*
X2093671Y-2760268D01*
X2080666Y-2746654D01*
X2066391Y-2734360D01*
X2050948Y-2723642D01*
X2034489Y-2714498D01*
X2017166Y-2707030D01*
X1999183Y-2701391D01*
X1980742Y-2697632D01*
X1961997Y-2695702D01*
X1943201Y-2695702D01*
X1924456Y-2697632D01*
X1906016Y-2701391D01*
X1888032Y-2707030D01*
X1870710Y-2714498D01*
X1854250Y-2723642D01*
X1838807Y-2734360D01*
X1824532Y-2746654D01*
X1811528Y-2760268D01*
X1800047Y-2775204D01*
X1790039Y-2791155D01*
X1781759Y-2808071D01*
X1775206Y-2825750D01*
X1770532Y-2843936D01*
X1767636Y-2862580D01*
X1766722Y-2881376D01*
X1767636Y-2900172D01*
X1770532Y-2918815D01*
X1775206Y-2937002D01*
X1781759Y-2954680D01*
X1790039Y-2971596D01*
X1800047Y-2987548D01*
X1811528Y-3002483D01*
X1824532Y-3016097D01*
X1838807Y-3028391D01*
X1854250Y-3039110D01*
X1870710Y-3048254D01*
X1888032Y-3055721D01*
X1906016Y-3061360D01*
X1924456Y-3065119D01*
G37*
G36*
X203200Y-1783029D02*
G01*
X212902Y-1782216D01*
X222300Y-1779676D01*
X231140Y-1775561D01*
X239115Y-1769973D01*
X245973Y-1763064D01*
X251561Y-1755089D01*
X255676Y-1746300D01*
X258216Y-1736852D01*
X259079Y-1727200D01*
X258216Y-1717497D01*
X255676Y-1708048D01*
X251561Y-1699260D01*
X245922Y-1691182D01*
X244602Y-1688439D01*
X244094Y-1685340D01*
X244094Y-1673656D01*
X243281Y-1665224D01*
X240944Y-1657553D01*
X237185Y-1650492D01*
X231749Y-1643888D01*
X-123545Y-1288592D01*
X-125730Y-1285290D01*
X-126492Y-1281430D01*
X-126492Y-1165758D01*
X-127203Y-1159408D01*
X-129133Y-1153972D01*
X-134924Y-1145286D01*
X-135686Y-1141374D01*
X-134924Y-1137513D01*
X-132232Y-1133703D01*
X-129133Y-1128776D01*
X-127203Y-1123340D01*
X-126492Y-1116990D01*
X-126492Y-965758D01*
X-127203Y-959408D01*
X-129133Y-953973D01*
X-132232Y-949096D01*
X-136296Y-944981D01*
X-141224Y-941882D01*
X-146659Y-940003D01*
X-152958Y-939292D01*
X-304241Y-939292D01*
X-310540Y-940003D01*
X-316026Y-941882D01*
X-320903Y-944981D01*
X-325018Y-949096D01*
X-328117Y-953973D01*
X-329996Y-959408D01*
X-330708Y-965758D01*
X-330708Y-990295D01*
X-331470Y-994206D01*
X-333705Y-997508D01*
X-337007Y-999693D01*
X-340868Y-1000455D01*
X-359867Y-1000455D01*
X-363728Y-999693D01*
X-367030Y-997508D01*
X-371094Y-993444D01*
X-373126Y-990549D01*
X-374040Y-987145D01*
X-374446Y-982675D01*
X-376986Y-973226D01*
X-381101Y-964285D01*
X-386740Y-956259D01*
X-393700Y-949299D01*
X-401726Y-943660D01*
X-410667Y-939546D01*
X-420116Y-937006D01*
X-429920Y-936142D01*
X-439724Y-937006D01*
X-449173Y-939546D01*
X-458114Y-943660D01*
X-466140Y-949299D01*
X-473100Y-956259D01*
X-478739Y-964285D01*
X-482854Y-973226D01*
X-485393Y-982675D01*
X-486257Y-992479D01*
X-485393Y-1002284D01*
X-482854Y-1011732D01*
X-478739Y-1020673D01*
X-473100Y-1028700D01*
X-466140Y-1035659D01*
X-458114Y-1041298D01*
X-449173Y-1045413D01*
X-439724Y-1047953D01*
X-435254Y-1048359D01*
X-431850Y-1049274D01*
X-428955Y-1051306D01*
X-410311Y-1069949D01*
X-403707Y-1075334D01*
X-396646Y-1079144D01*
X-388975Y-1081481D01*
X-380492Y-1082294D01*
X-340868Y-1082294D01*
X-337007Y-1083056D01*
X-333705Y-1085291D01*
X-331470Y-1088542D01*
X-330708Y-1092454D01*
X-330708Y-1116990D01*
X-329996Y-1123340D01*
X-328117Y-1128776D01*
X-322326Y-1137513D01*
X-321564Y-1141374D01*
X-322326Y-1145286D01*
X-328117Y-1153972D01*
X-329996Y-1159408D01*
X-330708Y-1165758D01*
X-330708Y-1316990D01*
X-329996Y-1323340D01*
X-328117Y-1328775D01*
X-325018Y-1333703D01*
X-320903Y-1337767D01*
X-316026Y-1340866D01*
X-310540Y-1342796D01*
X-304241Y-1343507D01*
X-188518Y-1343507D01*
X-184658Y-1344269D01*
X-181356Y-1346454D01*
X155600Y-1683461D01*
X157632Y-1686356D01*
X158546Y-1689760D01*
X158242Y-1693265D01*
X156768Y-1696466D01*
X154838Y-1699260D01*
X150723Y-1708048D01*
X148183Y-1717497D01*
X147320Y-1727200D01*
X148183Y-1736852D01*
X150723Y-1746300D01*
X154838Y-1755089D01*
X160426Y-1763064D01*
X167284Y-1769973D01*
X175260Y-1775561D01*
X184099Y-1779676D01*
X193497Y-1782216D01*
G37*
G36*
X-2133600Y-1453337D02*
G01*
X-2123795Y-1452473D01*
X-2114346Y-1449933D01*
X-2105406Y-1445768D01*
X-2097379Y-1440129D01*
X-2090420Y-1433220D01*
X-2084781Y-1425143D01*
X-2080666Y-1416253D01*
X-2078126Y-1406753D01*
X-2077262Y-1397000D01*
X-2078126Y-1387195D01*
X-2080666Y-1377696D01*
X-2084781Y-1368806D01*
X-2090420Y-1360728D01*
X-2097379Y-1353820D01*
X-2105406Y-1348181D01*
X-2114346Y-1344015D01*
X-2123795Y-1341475D01*
X-2128266Y-1341069D01*
X-2131669Y-1340154D01*
X-2134565Y-1338173D01*
X-2191308Y-1281379D01*
X-2193544Y-1278077D01*
X-2194306Y-1274216D01*
X-2194306Y-706932D01*
X-2193544Y-703072D01*
X-2191308Y-699770D01*
X-2134565Y-642975D01*
X-2131669Y-640994D01*
X-2128266Y-640080D01*
X-2123795Y-639673D01*
X-2114346Y-637133D01*
X-2105406Y-632968D01*
X-2097379Y-627329D01*
X-2090420Y-620420D01*
X-2084781Y-612343D01*
X-2080666Y-603453D01*
X-2078126Y-593953D01*
X-2077262Y-584200D01*
X-2078126Y-574395D01*
X-2080666Y-564896D01*
X-2084781Y-556006D01*
X-2090420Y-547928D01*
X-2097379Y-541020D01*
X-2105406Y-535381D01*
X-2114346Y-531215D01*
X-2123795Y-528675D01*
X-2133600Y-527812D01*
X-2143404Y-528675D01*
X-2152853Y-531215D01*
X-2161794Y-535381D01*
X-2169820Y-541020D01*
X-2176780Y-547928D01*
X-2182418Y-556006D01*
X-2186533Y-564896D01*
X-2189073Y-574395D01*
X-2189480Y-578866D01*
X-2190394Y-582269D01*
X-2192426Y-585165D01*
X-2263800Y-656488D01*
X-2269185Y-663092D01*
X-2272944Y-670153D01*
X-2275281Y-677824D01*
X-2276144Y-686308D01*
X-2276144Y-1294841D01*
X-2275281Y-1303324D01*
X-2272944Y-1310995D01*
X-2269185Y-1318056D01*
X-2263800Y-1324660D01*
X-2192426Y-1395984D01*
X-2190394Y-1398879D01*
X-2189480Y-1402283D01*
X-2189073Y-1406753D01*
X-2186533Y-1416253D01*
X-2182418Y-1425143D01*
X-2176780Y-1433220D01*
X-2169820Y-1440129D01*
X-2161794Y-1445768D01*
X-2152853Y-1449933D01*
X-2143404Y-1452473D01*
G37*
G36*
X-402590Y-594309D02*
G01*
X-393039Y-593039D01*
X-383844Y-590245D01*
X-375208Y-585876D01*
X-367436Y-580136D01*
X-360781Y-573176D01*
X-355396Y-565200D01*
X-351383Y-556412D01*
X-348996Y-547065D01*
X-348132Y-537464D01*
X-348996Y-527862D01*
X-351383Y-518515D01*
X-355396Y-509727D01*
X-360781Y-501751D01*
X-367436Y-494792D01*
X-375208Y-489051D01*
X-383844Y-484682D01*
X-396798Y-480618D01*
X-399745Y-478078D01*
X-401523Y-474573D01*
X-401878Y-470662D01*
X-400710Y-466953D01*
X-398170Y-463905D01*
X-394716Y-462076D01*
X-385216Y-459130D01*
X-376580Y-454812D01*
X-368858Y-449072D01*
X-362153Y-442112D01*
X-356768Y-434136D01*
X-352806Y-425348D01*
X-350367Y-416001D01*
X-349554Y-406400D01*
X-350367Y-396798D01*
X-352806Y-387451D01*
X-356768Y-378663D01*
X-362153Y-370636D01*
X-368858Y-363677D01*
X-376580Y-357936D01*
X-385216Y-353618D01*
X-388518Y-352602D01*
X-392277Y-350520D01*
X-394817Y-347065D01*
X-395732Y-342900D01*
X-394817Y-338683D01*
X-392277Y-335280D01*
X-388518Y-333146D01*
X-385216Y-332130D01*
X-376580Y-327812D01*
X-368808Y-322072D01*
X-362153Y-315112D01*
X-356768Y-307086D01*
X-352755Y-298297D01*
X-350367Y-289001D01*
X-349910Y-284124D01*
X-349046Y-280720D01*
X-347014Y-277825D01*
X-276250Y-207060D01*
X-270814Y-200456D01*
X-267055Y-193395D01*
X-264718Y-185724D01*
X-263906Y-177292D01*
X-263906Y436067D01*
X-263093Y439978D01*
X-260908Y443280D01*
X-216814Y487324D01*
X-213563Y489559D01*
X-209651Y490321D01*
X-205740Y489559D01*
X-202488Y487324D01*
X-200253Y484022D01*
X-199491Y480161D01*
X-199491Y343001D01*
X-198780Y336702D01*
X-196850Y331216D01*
X-193802Y326339D01*
X-189687Y322224D01*
X-184810Y319176D01*
X-179324Y317246D01*
X-173024Y316534D01*
X-21742Y316534D01*
X-15443Y317246D01*
X-9956Y319176D01*
X-5080Y322224D01*
X-965Y326339D01*
X2082Y331216D01*
X4013Y336702D01*
X4724Y343001D01*
X4724Y367538D01*
X5486Y371449D01*
X7721Y374751D01*
X10972Y376936D01*
X14884Y377698D01*
X127101Y377698D01*
X135585Y378561D01*
X143205Y380847D01*
X150266Y384657D01*
X156870Y390042D01*
X256184Y489356D01*
X261569Y495909D01*
X265328Y502970D01*
X267665Y510641D01*
X268478Y519125D01*
X268478Y997458D01*
X269290Y1001369D01*
X271475Y1004671D01*
X466547Y1199743D01*
X469849Y1201928D01*
X473760Y1202690D01*
X802081Y1202690D01*
X810564Y1203553D01*
X818235Y1205890D01*
X825296Y1209649D01*
X831850Y1215034D01*
X919175Y1302359D01*
X924560Y1308912D01*
X928319Y1315974D01*
X930656Y1323644D01*
X931519Y1332128D01*
X931519Y1358747D01*
X932281Y1362659D01*
X934567Y1366012D01*
X938326Y1368348D01*
X951077Y1375359D01*
X962863Y1383944D01*
X973480Y1393901D01*
X982726Y1405077D01*
X990549Y1417370D01*
X996746Y1430578D01*
X1001217Y1444396D01*
X1003960Y1458671D01*
X1004874Y1473200D01*
X1003960Y1487728D01*
X1001217Y1502054D01*
X996746Y1515872D01*
X990549Y1529029D01*
X982726Y1541322D01*
X973480Y1552549D01*
X962863Y1562506D01*
X951077Y1571040D01*
X938326Y1578051D01*
X924814Y1583436D01*
X910691Y1587042D01*
X896264Y1588871D01*
X881735Y1588871D01*
X867257Y1587042D01*
X853186Y1583436D01*
X839622Y1578051D01*
X826871Y1571040D01*
X815136Y1562506D01*
X804519Y1552549D01*
X795223Y1541322D01*
X787450Y1529029D01*
X781253Y1515872D01*
X776732Y1502054D01*
X773988Y1487728D01*
X773074Y1473200D01*
X773988Y1458671D01*
X776732Y1444396D01*
X781253Y1430578D01*
X787450Y1417370D01*
X795223Y1405077D01*
X804519Y1393901D01*
X815136Y1383944D01*
X826871Y1375359D01*
X839622Y1368348D01*
X843280Y1366926D01*
X846632Y1364742D01*
X848868Y1361440D01*
X849680Y1357477D01*
X849680Y1352753D01*
X848918Y1348892D01*
X846683Y1345590D01*
X788619Y1287526D01*
X785317Y1285290D01*
X781456Y1284528D01*
X453085Y1284528D01*
X444601Y1283716D01*
X436930Y1281379D01*
X429869Y1277569D01*
X423316Y1272184D01*
X199034Y1047902D01*
X193598Y1041298D01*
X189839Y1034237D01*
X187502Y1026566D01*
X186690Y1018133D01*
X186690Y539750D01*
X185928Y535889D01*
X183692Y532587D01*
X113639Y462483D01*
X110337Y460298D01*
X106426Y459536D01*
X14884Y459536D01*
X10972Y460298D01*
X7721Y462483D01*
X5486Y465785D01*
X4724Y469696D01*
X4724Y494284D01*
X4013Y500583D01*
X2082Y506069D01*
X-965Y510946D01*
X-3708Y514502D01*
X-4673Y517753D01*
X-4470Y521157D01*
X-3149Y524306D01*
X-406Y528726D01*
X1524Y534212D01*
X2235Y540512D01*
X2235Y691794D01*
X1524Y698093D01*
X-406Y703580D01*
X-6146Y712266D01*
X-6959Y716127D01*
X-6146Y720039D01*
X-3962Y723341D01*
X-965Y726338D01*
X2082Y731215D01*
X4013Y736701D01*
X4724Y743000D01*
X4724Y894283D01*
X4013Y900582D01*
X2082Y906068D01*
X-965Y910945D01*
X-4419Y914400D01*
X-6604Y917702D01*
X-7366Y921562D01*
X-6604Y925474D01*
X-4419Y928776D01*
X411175Y1344320D01*
X416559Y1350924D01*
X420319Y1357985D01*
X422452Y1363319D01*
X424484Y1365554D01*
X427126Y1367078D01*
X430326Y1368348D01*
X443077Y1375359D01*
X454863Y1383944D01*
X465480Y1393901D01*
X474726Y1405077D01*
X482549Y1417370D01*
X488746Y1430578D01*
X493217Y1444396D01*
X495960Y1458671D01*
X496874Y1473200D01*
X495960Y1487728D01*
X493217Y1502054D01*
X488746Y1515872D01*
X482549Y1529029D01*
X474726Y1541322D01*
X465480Y1552549D01*
X454863Y1562506D01*
X443077Y1571040D01*
X430326Y1578051D01*
X416814Y1583436D01*
X402691Y1587042D01*
X388264Y1588871D01*
X373735Y1588871D01*
X359257Y1587042D01*
X345186Y1583436D01*
X331622Y1578051D01*
X318871Y1571040D01*
X307136Y1562506D01*
X296519Y1552549D01*
X287223Y1541322D01*
X279450Y1529029D01*
X273253Y1515872D01*
X268732Y1502054D01*
X265988Y1487728D01*
X265074Y1473200D01*
X265988Y1458671D01*
X268732Y1444396D01*
X273253Y1430578D01*
X279450Y1417370D01*
X287223Y1405077D01*
X296519Y1393901D01*
X307136Y1383944D01*
X313690Y1379169D01*
X316585Y1375918D01*
X317804Y1371752D01*
X317246Y1367434D01*
X314858Y1363776D01*
X-125171Y923747D01*
X-128473Y921512D01*
X-132334Y920750D01*
X-173024Y920750D01*
X-179324Y920038D01*
X-184810Y918108D01*
X-189687Y915060D01*
X-193802Y910945D01*
X-196850Y906068D01*
X-198780Y900582D01*
X-199491Y894283D01*
X-199491Y743000D01*
X-198780Y736701D01*
X-196850Y731215D01*
X-191058Y722528D01*
X-190296Y718616D01*
X-191058Y714756D01*
X-193294Y711454D01*
X-196291Y708456D01*
X-199339Y703580D01*
X-201269Y698093D01*
X-201980Y691794D01*
X-201980Y622096D01*
X-202742Y618236D01*
X-204978Y614934D01*
X-333349Y486511D01*
X-338785Y479907D01*
X-342544Y472846D01*
X-344881Y465175D01*
X-345694Y456742D01*
X-345694Y-156616D01*
X-346456Y-160528D01*
X-348691Y-163830D01*
X-404774Y-219913D01*
X-407873Y-222046D01*
X-411530Y-222859D01*
X-413613Y-222961D01*
X-423062Y-224993D01*
X-432003Y-228600D01*
X-440232Y-233629D01*
X-447446Y-240029D01*
X-453542Y-247548D01*
X-458216Y-255930D01*
X-461416Y-265023D01*
X-462280Y-270002D01*
X-463956Y-274066D01*
X-467207Y-277063D01*
X-471373Y-278384D01*
X-475742Y-277825D01*
X-479501Y-275437D01*
X-935939Y181000D01*
X-942492Y186385D01*
X-949553Y190144D01*
X-957224Y192481D01*
X-965708Y193344D01*
X-1198067Y193344D01*
X-1201928Y194106D01*
X-1205230Y196291D01*
X-1276908Y267970D01*
X-1279144Y271272D01*
X-1279906Y275183D01*
X-1279906Y410667D01*
X-1279144Y414528D01*
X-1276908Y417830D01*
X-1191818Y502920D01*
X-1188364Y505206D01*
X-1184300Y505917D01*
X-1180236Y504901D01*
X-1176934Y502361D01*
X-1174953Y498754D01*
X-1174597Y494284D01*
X-1174597Y343001D01*
X-1173886Y336702D01*
X-1171956Y331216D01*
X-1168908Y326339D01*
X-1164793Y322224D01*
X-1159916Y319176D01*
X-1154430Y317246D01*
X-1148130Y316534D01*
X-996848Y316534D01*
X-990549Y317246D01*
X-985062Y319176D01*
X-980186Y322224D01*
X-976071Y326339D01*
X-973023Y331216D01*
X-971092Y336702D01*
X-970381Y343001D01*
X-970381Y369214D01*
X-969467Y373380D01*
X-966927Y376834D01*
X-963168Y378917D01*
X-956767Y380847D01*
X-949706Y384657D01*
X-943152Y390042D01*
X-893826Y439318D01*
X-888441Y445922D01*
X-884682Y452983D01*
X-882345Y460654D01*
X-881481Y469087D01*
X-881481Y822452D01*
X-880719Y826363D01*
X-878535Y829665D01*
X-731824Y976325D01*
X-726440Y982929D01*
X-722680Y989990D01*
X-720344Y997661D01*
X-719480Y1006094D01*
X-719480Y1358747D01*
X-718718Y1362659D01*
X-716432Y1366012D01*
X-712673Y1368348D01*
X-699922Y1375359D01*
X-688136Y1383944D01*
X-677519Y1393901D01*
X-668274Y1405077D01*
X-660450Y1417370D01*
X-654253Y1430578D01*
X-649782Y1444396D01*
X-647039Y1458671D01*
X-646125Y1473200D01*
X-647039Y1487728D01*
X-649782Y1502054D01*
X-654253Y1515872D01*
X-660450Y1529029D01*
X-668274Y1541322D01*
X-677519Y1552549D01*
X-688136Y1562506D01*
X-699922Y1571040D01*
X-712673Y1578051D01*
X-726186Y1583436D01*
X-740308Y1587042D01*
X-754735Y1588871D01*
X-769264Y1588871D01*
X-783742Y1587042D01*
X-797814Y1583436D01*
X-811377Y1578051D01*
X-824128Y1571040D01*
X-835863Y1562506D01*
X-846480Y1552549D01*
X-855776Y1541322D01*
X-863549Y1529029D01*
X-869746Y1515872D01*
X-874268Y1502054D01*
X-877011Y1487728D01*
X-877925Y1473200D01*
X-877011Y1458671D01*
X-874268Y1444396D01*
X-869746Y1430578D01*
X-863549Y1417370D01*
X-855776Y1405077D01*
X-846480Y1393901D01*
X-835863Y1383944D01*
X-824128Y1375359D01*
X-811377Y1368348D01*
X-807720Y1366926D01*
X-804367Y1364742D01*
X-802132Y1361440D01*
X-801319Y1357477D01*
X-801319Y1026769D01*
X-802081Y1022908D01*
X-804316Y1019606D01*
X-950976Y872896D01*
X-952347Y871219D01*
X-955598Y868629D01*
X-959561Y867511D01*
X-963625Y868070D01*
X-967181Y870254D01*
X-969518Y873607D01*
X-970381Y877671D01*
X-970381Y894283D01*
X-971092Y900582D01*
X-973023Y906068D01*
X-976071Y910945D01*
X-980186Y915060D01*
X-985062Y918108D01*
X-990549Y920038D01*
X-996848Y920750D01*
X-1021334Y920750D01*
X-1025245Y921512D01*
X-1028547Y923747D01*
X-1030732Y926998D01*
X-1031494Y930910D01*
X-1031494Y947470D01*
X-1030732Y951331D01*
X-1028547Y954633D01*
X-985824Y997356D01*
X-980440Y1003909D01*
X-976680Y1010970D01*
X-974344Y1018641D01*
X-973480Y1027125D01*
X-973480Y1358747D01*
X-972718Y1362659D01*
X-970432Y1366012D01*
X-966673Y1368348D01*
X-953922Y1375359D01*
X-942136Y1383944D01*
X-931519Y1393901D01*
X-922274Y1405077D01*
X-914450Y1417370D01*
X-908253Y1430578D01*
X-903782Y1444396D01*
X-901039Y1458671D01*
X-900125Y1473200D01*
X-901039Y1487728D01*
X-903782Y1502054D01*
X-908253Y1515872D01*
X-914450Y1529029D01*
X-922274Y1541322D01*
X-931519Y1552549D01*
X-942136Y1562506D01*
X-953922Y1571040D01*
X-966673Y1578051D01*
X-980186Y1583436D01*
X-994308Y1587042D01*
X-1008735Y1588871D01*
X-1023264Y1588871D01*
X-1037742Y1587042D01*
X-1051814Y1583436D01*
X-1065377Y1578051D01*
X-1078128Y1571040D01*
X-1089863Y1562506D01*
X-1100480Y1552549D01*
X-1109776Y1541322D01*
X-1117549Y1529029D01*
X-1123746Y1515872D01*
X-1128268Y1502054D01*
X-1131011Y1487728D01*
X-1131925Y1473200D01*
X-1131011Y1458671D01*
X-1128268Y1444396D01*
X-1123746Y1430578D01*
X-1117549Y1417370D01*
X-1109776Y1405077D01*
X-1100480Y1393901D01*
X-1089863Y1383944D01*
X-1078128Y1375359D01*
X-1065377Y1368348D01*
X-1061720Y1366926D01*
X-1058367Y1364742D01*
X-1056132Y1361440D01*
X-1055319Y1357477D01*
X-1055319Y1047750D01*
X-1056081Y1043889D01*
X-1058316Y1040587D01*
X-1100988Y997915D01*
X-1106373Y991311D01*
X-1110183Y984250D01*
X-1112469Y976579D01*
X-1113332Y968095D01*
X-1113332Y930910D01*
X-1114094Y926998D01*
X-1116279Y923747D01*
X-1119581Y921512D01*
X-1123492Y920750D01*
X-1131316Y920750D01*
X-1135380Y921613D01*
X-1138732Y924001D01*
X-1140917Y927557D01*
X-1141425Y931722D01*
X-1140256Y935685D01*
X-1137158Y941476D01*
X-1134821Y949147D01*
X-1134008Y957630D01*
X-1134008Y1330604D01*
X-1134821Y1339088D01*
X-1137158Y1346758D01*
X-1140917Y1353820D01*
X-1146352Y1360373D01*
X-1176426Y1390446D01*
X-1178509Y1393545D01*
X-1179372Y1397152D01*
X-1178864Y1400860D01*
X-1168450Y1417370D01*
X-1162253Y1430578D01*
X-1157782Y1444396D01*
X-1155039Y1458671D01*
X-1154125Y1473200D01*
X-1155039Y1487728D01*
X-1157782Y1502054D01*
X-1162253Y1515872D01*
X-1168450Y1529029D01*
X-1176274Y1541322D01*
X-1185519Y1552549D01*
X-1196136Y1562506D01*
X-1207922Y1571040D01*
X-1220673Y1578051D01*
X-1234186Y1583436D01*
X-1248308Y1587042D01*
X-1262735Y1588871D01*
X-1277264Y1588871D01*
X-1291742Y1587042D01*
X-1305814Y1583436D01*
X-1319377Y1578051D01*
X-1332128Y1571040D01*
X-1343863Y1562506D01*
X-1354480Y1552549D01*
X-1363776Y1541322D01*
X-1371549Y1529029D01*
X-1377746Y1515872D01*
X-1382268Y1502054D01*
X-1385011Y1487728D01*
X-1385925Y1473200D01*
X-1385011Y1458671D01*
X-1382268Y1444396D01*
X-1377746Y1430578D01*
X-1371549Y1417370D01*
X-1363776Y1405077D01*
X-1354480Y1393901D01*
X-1343863Y1383944D01*
X-1332128Y1375359D01*
X-1319377Y1368348D01*
X-1305814Y1363014D01*
X-1291742Y1359357D01*
X-1277264Y1357579D01*
X-1263396Y1357579D01*
X-1259535Y1356766D01*
X-1256233Y1354582D01*
X-1218793Y1317142D01*
X-1216609Y1313840D01*
X-1215796Y1309979D01*
X-1215796Y978255D01*
X-1216609Y974394D01*
X-1218793Y971092D01*
X-1280972Y908913D01*
X-1286357Y902309D01*
X-1290675Y894181D01*
X-1293622Y890778D01*
X-1297686Y888949D01*
X-1302156Y889101D01*
X-1306169Y891133D01*
X-1308912Y894689D01*
X-1309827Y899109D01*
X-1305306Y1192885D01*
X-1305560Y1198473D01*
X-1305966Y1201013D01*
X-1307287Y1206296D01*
X-1308150Y1208735D01*
X-1310436Y1213662D01*
X-1311808Y1215898D01*
X-1315008Y1220266D01*
X-1316736Y1222197D01*
X-1320901Y1225956D01*
X-1447495Y1327200D01*
X-1450441Y1329385D01*
X-1454454Y1331772D01*
X-1457502Y1333195D01*
X-1461871Y1334719D01*
X-1465173Y1335532D01*
X-1469796Y1336141D01*
X-1473454Y1336344D01*
X-1606956Y1336344D01*
X-1610461Y1336954D01*
X-1613509Y1338732D01*
X-1680260Y1395018D01*
X-1682546Y1397812D01*
X-1683715Y1401216D01*
X-1683613Y1404874D01*
X-1682292Y1408226D01*
X-1676450Y1417370D01*
X-1670253Y1430578D01*
X-1665782Y1444396D01*
X-1663039Y1458671D01*
X-1662125Y1473200D01*
X-1663039Y1487728D01*
X-1665782Y1502054D01*
X-1670253Y1515872D01*
X-1676450Y1529029D01*
X-1684274Y1541322D01*
X-1693519Y1552549D01*
X-1704136Y1562506D01*
X-1715922Y1571040D01*
X-1728673Y1578051D01*
X-1742186Y1583436D01*
X-1756308Y1587042D01*
X-1770735Y1588871D01*
X-1785264Y1588871D01*
X-1799742Y1587042D01*
X-1813814Y1583436D01*
X-1827377Y1578051D01*
X-1840128Y1571040D01*
X-1851863Y1562506D01*
X-1862480Y1552549D01*
X-1871776Y1541322D01*
X-1879549Y1529029D01*
X-1885746Y1515872D01*
X-1890268Y1502054D01*
X-1893011Y1487728D01*
X-1893925Y1473200D01*
X-1893011Y1458671D01*
X-1890268Y1444396D01*
X-1885746Y1430578D01*
X-1879549Y1417370D01*
X-1871776Y1405077D01*
X-1862480Y1393901D01*
X-1851863Y1383944D01*
X-1840128Y1375359D01*
X-1827377Y1368348D01*
X-1813814Y1363014D01*
X-1799742Y1359357D01*
X-1785264Y1357579D01*
X-1770735Y1357579D01*
X-1768195Y1357884D01*
X-1764030Y1357528D01*
X-1760372Y1355547D01*
X-1652219Y1264310D01*
X-1648256Y1261364D01*
X-1645412Y1259636D01*
X-1641195Y1257604D01*
X-1638096Y1256487D01*
X-1633524Y1255268D01*
X-1630222Y1254760D01*
X-1625346Y1254506D01*
X-1491132Y1254506D01*
X-1487779Y1253947D01*
X-1484782Y1252270D01*
X-1391310Y1177493D01*
X-1389227Y1175258D01*
X-1387906Y1172464D01*
X-1387500Y1169416D01*
X-1392986Y809955D01*
X-1393799Y806145D01*
X-1395984Y802894D01*
X-1487271Y711606D01*
X-1490573Y709422D01*
X-1494485Y708609D01*
X-1498346Y709422D01*
X-1501648Y711606D01*
X-1505102Y715060D01*
X-1509979Y718108D01*
X-1515465Y720039D01*
X-1521764Y720750D01*
X-1673047Y720750D01*
X-1679346Y720039D01*
X-1685036Y718058D01*
X-1688795Y717499D01*
X-1692503Y718312D01*
X-1695602Y720445D01*
X-1697736Y723544D01*
X-1698548Y727252D01*
X-1697989Y731012D01*
X-1696008Y736701D01*
X-1695297Y743000D01*
X-1695297Y894283D01*
X-1696008Y900582D01*
X-1697939Y906068D01*
X-1700987Y910945D01*
X-1705102Y915060D01*
X-1709978Y918108D01*
X-1715465Y920038D01*
X-1721764Y920750D01*
X-1746351Y920750D01*
X-1750212Y921512D01*
X-1753514Y923747D01*
X-1755749Y926998D01*
X-1756511Y930910D01*
X-1756511Y972464D01*
X-1755749Y976325D01*
X-1753514Y979627D01*
X-1645361Y1087831D01*
X-1642465Y1089863D01*
X-1639062Y1090777D01*
X-1635201Y1091082D01*
X-1625803Y1093622D01*
X-1616964Y1097737D01*
X-1608988Y1103325D01*
X-1602130Y1110234D01*
X-1596542Y1118209D01*
X-1592427Y1126998D01*
X-1589887Y1136446D01*
X-1589024Y1146098D01*
X-1589887Y1155801D01*
X-1592427Y1165250D01*
X-1596542Y1174038D01*
X-1602130Y1182014D01*
X-1608988Y1188923D01*
X-1616964Y1194511D01*
X-1625803Y1198626D01*
X-1635201Y1201166D01*
X-1644904Y1201978D01*
X-1654606Y1201166D01*
X-1664004Y1198626D01*
X-1672843Y1194511D01*
X-1680819Y1188923D01*
X-1687677Y1182014D01*
X-1693265Y1174038D01*
X-1697380Y1165250D01*
X-1699920Y1155801D01*
X-1700275Y1151991D01*
X-1701190Y1148588D01*
X-1703222Y1145692D01*
X-1826006Y1022908D01*
X-1831390Y1016304D01*
X-1835150Y1009243D01*
X-1837486Y1001572D01*
X-1838299Y993140D01*
X-1838299Y930910D01*
X-1839112Y926998D01*
X-1841296Y923747D01*
X-1844598Y921512D01*
X-1848459Y920750D01*
X-1873046Y920750D01*
X-1879346Y920038D01*
X-1884832Y918108D01*
X-1889709Y915060D01*
X-1893824Y910945D01*
X-1896872Y906068D01*
X-1898802Y900582D01*
X-1899513Y894283D01*
X-1899513Y743000D01*
X-1898802Y736701D01*
X-1896872Y731215D01*
X-1891080Y722528D01*
X-1890318Y718616D01*
X-1891080Y714756D01*
X-1893824Y710946D01*
X-1896872Y706069D01*
X-1898802Y700582D01*
X-1899513Y694283D01*
X-1899513Y669696D01*
X-1900275Y665835D01*
X-1902510Y662533D01*
X-1905762Y660298D01*
X-1909673Y659536D01*
X-1946300Y659536D01*
X-1954733Y658723D01*
X-1962404Y656386D01*
X-1969465Y652627D01*
X-1976069Y647192D01*
X-2060549Y562711D01*
X-2065985Y556107D01*
X-2069744Y549046D01*
X-2072081Y541375D01*
X-2072893Y532942D01*
X-2072893Y305308D01*
X-2072081Y296824D01*
X-2069744Y289153D01*
X-2065985Y282092D01*
X-2060549Y275539D01*
X-1832660Y47650D01*
X-1826107Y42265D01*
X-1819046Y38455D01*
X-1811375Y36169D01*
X-1802892Y35306D01*
X-1039876Y35306D01*
X-1035964Y34544D01*
X-1032662Y32359D01*
X-464667Y-535686D01*
X-462838Y-538226D01*
X-461822Y-541172D01*
X-460044Y-551840D01*
X-456844Y-560882D01*
X-452170Y-569315D01*
X-446074Y-576834D01*
X-438861Y-583184D01*
X-430631Y-588264D01*
X-421690Y-591820D01*
X-412242Y-593852D01*
G37*
G36*
X-609600Y45770D02*
G01*
X-599897Y46583D01*
X-590499Y49123D01*
X-581660Y53238D01*
X-573684Y58826D01*
X-566826Y65735D01*
X-561238Y73710D01*
X-557123Y82499D01*
X-554583Y91948D01*
X-553720Y101600D01*
X-554583Y111302D01*
X-557123Y120751D01*
X-561238Y129539D01*
X-566826Y137515D01*
X-573684Y144424D01*
X-581660Y150012D01*
X-590499Y154127D01*
X-599897Y156667D01*
X-603758Y156972D01*
X-607161Y157886D01*
X-610057Y159918D01*
X-743508Y293370D01*
X-745693Y296672D01*
X-746506Y300583D01*
X-746506Y461467D01*
X-745693Y465378D01*
X-743508Y468680D01*
X-716940Y495198D01*
X-713689Y497433D01*
X-709777Y498195D01*
X-705866Y497433D01*
X-702614Y495198D01*
X-700379Y491896D01*
X-699617Y488035D01*
X-699617Y343001D01*
X-698906Y336702D01*
X-696976Y331216D01*
X-693928Y326339D01*
X-689813Y322224D01*
X-684936Y319176D01*
X-679450Y317246D01*
X-673150Y316534D01*
X-521868Y316534D01*
X-515569Y317246D01*
X-510082Y319176D01*
X-505206Y322224D01*
X-501091Y326339D01*
X-498043Y331216D01*
X-496112Y336702D01*
X-495401Y343001D01*
X-495401Y383540D01*
X-494639Y387451D01*
X-492404Y390753D01*
X-368858Y514350D01*
X-363423Y520903D01*
X-359664Y527964D01*
X-357327Y535635D01*
X-356514Y544118D01*
X-356514Y1175461D01*
X-355752Y1179372D01*
X-353517Y1182624D01*
X-181864Y1354328D01*
X-178562Y1356512D01*
X-174650Y1357325D01*
X-37592Y1357325D01*
X-31242Y1358036D01*
X-25806Y1359916D01*
X-20878Y1363014D01*
X-16814Y1367078D01*
X-13716Y1372006D01*
X-11836Y1377442D01*
X-11125Y1383792D01*
X-11125Y1562658D01*
X-11836Y1568958D01*
X-13716Y1574444D01*
X-16814Y1579321D01*
X-20878Y1583436D01*
X-25806Y1586484D01*
X-31242Y1588414D01*
X-37592Y1589125D01*
X-216458Y1589125D01*
X-222758Y1588414D01*
X-228244Y1586484D01*
X-233121Y1583436D01*
X-237236Y1579321D01*
X-240284Y1574444D01*
X-242214Y1568958D01*
X-242925Y1562658D01*
X-242925Y1413154D01*
X-243687Y1409293D01*
X-245871Y1405991D01*
X-426008Y1225905D01*
X-431393Y1219301D01*
X-435152Y1212240D01*
X-437489Y1204569D01*
X-438302Y1196136D01*
X-438302Y564743D01*
X-439115Y560882D01*
X-441299Y557580D01*
X-487324Y511556D01*
X-490626Y509371D01*
X-494538Y508558D01*
X-498398Y509371D01*
X-501853Y511708D01*
X-503834Y514502D01*
X-504799Y517753D01*
X-504596Y521157D01*
X-503275Y524306D01*
X-500532Y528726D01*
X-498601Y534212D01*
X-497890Y540512D01*
X-497890Y691794D01*
X-498601Y698093D01*
X-500532Y703580D01*
X-506272Y712266D01*
X-507085Y716127D01*
X-506272Y720039D01*
X-504088Y723341D01*
X-501091Y726338D01*
X-498043Y731215D01*
X-496112Y736701D01*
X-495401Y743000D01*
X-495401Y894283D01*
X-496112Y900582D01*
X-498043Y906068D01*
X-501091Y910945D01*
X-505206Y915060D01*
X-510082Y918108D01*
X-515569Y920038D01*
X-521868Y920750D01*
X-546354Y920750D01*
X-550214Y921512D01*
X-553516Y923747D01*
X-555752Y926998D01*
X-556514Y930910D01*
X-556514Y1172464D01*
X-555752Y1176324D01*
X-553516Y1179626D01*
X-477824Y1255318D01*
X-472440Y1261922D01*
X-468680Y1268984D01*
X-466343Y1276654D01*
X-465480Y1285138D01*
X-465480Y1358747D01*
X-464718Y1362659D01*
X-462432Y1366012D01*
X-458673Y1368348D01*
X-445922Y1375359D01*
X-434136Y1383944D01*
X-423519Y1393901D01*
X-414274Y1405077D01*
X-406450Y1417370D01*
X-400253Y1430578D01*
X-395782Y1444396D01*
X-393039Y1458671D01*
X-392125Y1473200D01*
X-393039Y1487728D01*
X-395782Y1502054D01*
X-400253Y1515872D01*
X-406450Y1529029D01*
X-414274Y1541322D01*
X-423519Y1552549D01*
X-434136Y1562506D01*
X-445922Y1571040D01*
X-458673Y1578051D01*
X-472185Y1583436D01*
X-486308Y1587042D01*
X-500735Y1588871D01*
X-515264Y1588871D01*
X-529742Y1587042D01*
X-543814Y1583436D01*
X-557377Y1578051D01*
X-570128Y1571040D01*
X-581863Y1562506D01*
X-592480Y1552549D01*
X-601776Y1541322D01*
X-609549Y1529029D01*
X-615746Y1515872D01*
X-620268Y1502054D01*
X-623011Y1487728D01*
X-623925Y1473200D01*
X-623011Y1458671D01*
X-620268Y1444396D01*
X-615746Y1430578D01*
X-609549Y1417370D01*
X-601776Y1405077D01*
X-592480Y1393901D01*
X-581863Y1383944D01*
X-570128Y1375359D01*
X-557377Y1368348D01*
X-553720Y1366926D01*
X-550367Y1364742D01*
X-548132Y1361440D01*
X-547319Y1357477D01*
X-547319Y1305763D01*
X-548081Y1301902D01*
X-550316Y1298600D01*
X-626008Y1222908D01*
X-631393Y1216304D01*
X-635152Y1209243D01*
X-637489Y1201572D01*
X-638302Y1193139D01*
X-638302Y930910D01*
X-639114Y926998D01*
X-641299Y923747D01*
X-644601Y921512D01*
X-648462Y920750D01*
X-673150Y920750D01*
X-679450Y920038D01*
X-684936Y918108D01*
X-689813Y915060D01*
X-693928Y910945D01*
X-696976Y906068D01*
X-698906Y900582D01*
X-699617Y894283D01*
X-699617Y743000D01*
X-698906Y736701D01*
X-696976Y731215D01*
X-691184Y722528D01*
X-690422Y718616D01*
X-691184Y714756D01*
X-693420Y711454D01*
X-696417Y708456D01*
X-699465Y703580D01*
X-701395Y698093D01*
X-702106Y691794D01*
X-702106Y629970D01*
X-702868Y626110D01*
X-705104Y622808D01*
X-815949Y511911D01*
X-821385Y505307D01*
X-825144Y498246D01*
X-827481Y490575D01*
X-828294Y482142D01*
X-828294Y279908D01*
X-827481Y271475D01*
X-825144Y263804D01*
X-821385Y256743D01*
X-815949Y250139D01*
X-667918Y102057D01*
X-665886Y99161D01*
X-664972Y95758D01*
X-664616Y91948D01*
X-662076Y82499D01*
X-657961Y73710D01*
X-652373Y65735D01*
X-645515Y58826D01*
X-637540Y53238D01*
X-628700Y49123D01*
X-619302Y46583D01*
G37*
G36*
X-2883458Y1357325D02*
G01*
X-2704592Y1357325D01*
X-2698242Y1358036D01*
X-2692806Y1359916D01*
X-2687878Y1363014D01*
X-2683814Y1367078D01*
X-2680716Y1372006D01*
X-2678836Y1377442D01*
X-2678125Y1383792D01*
X-2678125Y1562658D01*
X-2678836Y1568958D01*
X-2680716Y1574444D01*
X-2683814Y1579321D01*
X-2687878Y1583436D01*
X-2692806Y1586484D01*
X-2698242Y1588414D01*
X-2704592Y1589125D01*
X-2883458Y1589125D01*
X-2889758Y1588414D01*
X-2895244Y1586484D01*
X-2900121Y1583436D01*
X-2904236Y1579321D01*
X-2907284Y1574444D01*
X-2909214Y1568958D01*
X-2909925Y1562658D01*
X-2909925Y1383792D01*
X-2909214Y1377442D01*
X-2907284Y1372006D01*
X-2904236Y1367078D01*
X-2900121Y1363014D01*
X-2895244Y1359916D01*
X-2889758Y1358036D01*
G37*
G36*
X1389735Y1357579D02*
G01*
X1404264Y1357579D01*
X1418691Y1359357D01*
X1432814Y1363014D01*
X1446326Y1368348D01*
X1459077Y1375359D01*
X1470863Y1383944D01*
X1481480Y1393901D01*
X1490726Y1405077D01*
X1498549Y1417370D01*
X1504746Y1430578D01*
X1509217Y1444396D01*
X1511960Y1458671D01*
X1512874Y1473200D01*
X1511960Y1487728D01*
X1509217Y1502054D01*
X1504746Y1515872D01*
X1498549Y1529029D01*
X1490726Y1541322D01*
X1481480Y1552549D01*
X1470863Y1562506D01*
X1459077Y1571040D01*
X1446326Y1578051D01*
X1432814Y1583436D01*
X1418691Y1587042D01*
X1404264Y1588871D01*
X1389735Y1588871D01*
X1375257Y1587042D01*
X1361186Y1583436D01*
X1347622Y1578051D01*
X1334871Y1571040D01*
X1323136Y1562506D01*
X1312519Y1552549D01*
X1303223Y1541322D01*
X1295450Y1529029D01*
X1289253Y1515872D01*
X1284732Y1502054D01*
X1281988Y1487728D01*
X1281074Y1473200D01*
X1281988Y1458671D01*
X1284732Y1444396D01*
X1289253Y1430578D01*
X1295450Y1417370D01*
X1303223Y1405077D01*
X1312519Y1393901D01*
X1323136Y1383944D01*
X1334871Y1375359D01*
X1347622Y1368348D01*
X1361186Y1363014D01*
X1375257Y1359357D01*
G37*
G36*
X-2547264Y1357579D02*
G01*
X-2532735Y1357579D01*
X-2518308Y1359357D01*
X-2504186Y1363014D01*
X-2490673Y1368348D01*
X-2477922Y1375359D01*
X-2466136Y1383944D01*
X-2455519Y1393901D01*
X-2446274Y1405077D01*
X-2438450Y1417370D01*
X-2432253Y1430578D01*
X-2427782Y1444396D01*
X-2425039Y1458671D01*
X-2424125Y1473200D01*
X-2425039Y1487728D01*
X-2427782Y1502054D01*
X-2432253Y1515872D01*
X-2438450Y1529029D01*
X-2446274Y1541322D01*
X-2455519Y1552549D01*
X-2466136Y1562506D01*
X-2477922Y1571040D01*
X-2490673Y1578051D01*
X-2504186Y1583436D01*
X-2518308Y1587042D01*
X-2532735Y1588871D01*
X-2547264Y1588871D01*
X-2561742Y1587042D01*
X-2575814Y1583436D01*
X-2589377Y1578051D01*
X-2602128Y1571040D01*
X-2613863Y1562506D01*
X-2624480Y1552549D01*
X-2633776Y1541322D01*
X-2641549Y1529029D01*
X-2647746Y1515872D01*
X-2652268Y1502054D01*
X-2655011Y1487728D01*
X-2655925Y1473200D01*
X-2655011Y1458671D01*
X-2652268Y1444396D01*
X-2647746Y1430578D01*
X-2641549Y1417370D01*
X-2633776Y1405077D01*
X-2624480Y1393901D01*
X-2613863Y1383944D01*
X-2602128Y1375359D01*
X-2589377Y1368348D01*
X-2575814Y1363014D01*
X-2561742Y1359357D01*
G37*
G36*
X-2293264Y1357579D02*
G01*
X-2278735Y1357579D01*
X-2264308Y1359357D01*
X-2250186Y1363014D01*
X-2236673Y1368348D01*
X-2223922Y1375359D01*
X-2212136Y1383944D01*
X-2201519Y1393901D01*
X-2192274Y1405077D01*
X-2184450Y1417370D01*
X-2178253Y1430578D01*
X-2173782Y1444396D01*
X-2171039Y1458671D01*
X-2170125Y1473200D01*
X-2171039Y1487728D01*
X-2173782Y1502054D01*
X-2178253Y1515872D01*
X-2184450Y1529029D01*
X-2192274Y1541322D01*
X-2201519Y1552549D01*
X-2212136Y1562506D01*
X-2223922Y1571040D01*
X-2236673Y1578051D01*
X-2250186Y1583436D01*
X-2264308Y1587042D01*
X-2278735Y1588871D01*
X-2293264Y1588871D01*
X-2307742Y1587042D01*
X-2321814Y1583436D01*
X-2335377Y1578051D01*
X-2348128Y1571040D01*
X-2359863Y1562506D01*
X-2370480Y1552549D01*
X-2379776Y1541322D01*
X-2387549Y1529029D01*
X-2393746Y1515872D01*
X-2398268Y1502054D01*
X-2401011Y1487728D01*
X-2401925Y1473200D01*
X-2401011Y1458671D01*
X-2398268Y1444396D01*
X-2393746Y1430578D01*
X-2387549Y1417370D01*
X-2379776Y1405077D01*
X-2370480Y1393901D01*
X-2359863Y1383944D01*
X-2348128Y1375359D01*
X-2335377Y1368348D01*
X-2321814Y1363014D01*
X-2307742Y1359357D01*
G37*
G36*
X119735Y1357579D02*
G01*
X134264Y1357579D01*
X148691Y1359357D01*
X162814Y1363014D01*
X176326Y1368348D01*
X189077Y1375359D01*
X200863Y1383944D01*
X211480Y1393901D01*
X220725Y1405077D01*
X228549Y1417370D01*
X234746Y1430578D01*
X239217Y1444396D01*
X241960Y1458671D01*
X242874Y1473200D01*
X241960Y1487728D01*
X239217Y1502054D01*
X234746Y1515872D01*
X228549Y1529029D01*
X220725Y1541322D01*
X211480Y1552549D01*
X200863Y1562506D01*
X189077Y1571040D01*
X176326Y1578051D01*
X162814Y1583436D01*
X148691Y1587042D01*
X134264Y1588871D01*
X119735Y1588871D01*
X105257Y1587042D01*
X91186Y1583436D01*
X77622Y1578051D01*
X64871Y1571040D01*
X53136Y1562506D01*
X42519Y1552549D01*
X33223Y1541322D01*
X25450Y1529029D01*
X19253Y1515872D01*
X14732Y1502054D01*
X11988Y1487728D01*
X11074Y1473200D01*
X11988Y1458671D01*
X14732Y1444396D01*
X19253Y1430578D01*
X25450Y1417370D01*
X33223Y1405077D01*
X42519Y1393901D01*
X53136Y1383944D01*
X64871Y1375359D01*
X77622Y1368348D01*
X91186Y1363014D01*
X105257Y1359357D01*
G37*
G36*
X1135735Y1357579D02*
G01*
X1150264Y1357579D01*
X1164691Y1359357D01*
X1178814Y1363014D01*
X1192326Y1368348D01*
X1205077Y1375359D01*
X1216863Y1383944D01*
X1227480Y1393901D01*
X1236726Y1405077D01*
X1244549Y1417370D01*
X1250746Y1430578D01*
X1255217Y1444396D01*
X1257960Y1458671D01*
X1258874Y1473200D01*
X1257960Y1487728D01*
X1255217Y1502054D01*
X1250746Y1515872D01*
X1244549Y1529029D01*
X1236726Y1541322D01*
X1227480Y1552549D01*
X1216863Y1562506D01*
X1205077Y1571040D01*
X1192326Y1578051D01*
X1178814Y1583436D01*
X1164691Y1587042D01*
X1150264Y1588871D01*
X1135735Y1588871D01*
X1121257Y1587042D01*
X1107186Y1583436D01*
X1093622Y1578051D01*
X1080871Y1571040D01*
X1069136Y1562506D01*
X1058519Y1552549D01*
X1049223Y1541322D01*
X1041450Y1529029D01*
X1035253Y1515872D01*
X1030732Y1502054D01*
X1027988Y1487728D01*
X1027074Y1473200D01*
X1027988Y1458671D01*
X1030732Y1444396D01*
X1035253Y1430578D01*
X1041450Y1417370D01*
X1049223Y1405077D01*
X1058519Y1393901D01*
X1069136Y1383944D01*
X1080871Y1375359D01*
X1093622Y1368348D01*
X1107186Y1363014D01*
X1121257Y1359357D01*
G37*
G36*
X627735Y1357579D02*
G01*
X642264Y1357579D01*
X656691Y1359357D01*
X670814Y1363014D01*
X684326Y1368348D01*
X697077Y1375359D01*
X708863Y1383944D01*
X719480Y1393901D01*
X728726Y1405077D01*
X736549Y1417370D01*
X742746Y1430578D01*
X747217Y1444396D01*
X749960Y1458671D01*
X750874Y1473200D01*
X749960Y1487728D01*
X747217Y1502054D01*
X742746Y1515872D01*
X736549Y1529029D01*
X728726Y1541322D01*
X719480Y1552549D01*
X708863Y1562506D01*
X697077Y1571040D01*
X684326Y1578051D01*
X670814Y1583436D01*
X656691Y1587042D01*
X642264Y1588871D01*
X627735Y1588871D01*
X613257Y1587042D01*
X599186Y1583436D01*
X585622Y1578051D01*
X572871Y1571040D01*
X561136Y1562506D01*
X550519Y1552549D01*
X541223Y1541322D01*
X533450Y1529029D01*
X527253Y1515872D01*
X522732Y1502054D01*
X519988Y1487728D01*
X519074Y1473200D01*
X519988Y1458671D01*
X522732Y1444396D01*
X527253Y1430578D01*
X533450Y1417370D01*
X541223Y1405077D01*
X550519Y1393901D01*
X561136Y1383944D01*
X572871Y1375359D01*
X585622Y1368348D01*
X599186Y1363014D01*
X613257Y1359357D01*
G37*
G36*
X-1531264Y1357579D02*
G01*
X-1516735Y1357579D01*
X-1502308Y1359357D01*
X-1488186Y1363014D01*
X-1474673Y1368348D01*
X-1461922Y1375359D01*
X-1450136Y1383944D01*
X-1439519Y1393901D01*
X-1430274Y1405077D01*
X-1422450Y1417370D01*
X-1416253Y1430578D01*
X-1411782Y1444396D01*
X-1409039Y1458671D01*
X-1408125Y1473200D01*
X-1409039Y1487728D01*
X-1411782Y1502054D01*
X-1416253Y1515872D01*
X-1422450Y1529029D01*
X-1430274Y1541322D01*
X-1439519Y1552549D01*
X-1450136Y1562506D01*
X-1461922Y1571040D01*
X-1474673Y1578051D01*
X-1488186Y1583436D01*
X-1502308Y1587042D01*
X-1516735Y1588871D01*
X-1531264Y1588871D01*
X-1545742Y1587042D01*
X-1559814Y1583436D01*
X-1573377Y1578051D01*
X-1586128Y1571040D01*
X-1597863Y1562506D01*
X-1608480Y1552549D01*
X-1617776Y1541322D01*
X-1625549Y1529029D01*
X-1631746Y1515872D01*
X-1636268Y1502054D01*
X-1639011Y1487728D01*
X-1639925Y1473200D01*
X-1639011Y1458671D01*
X-1636268Y1444396D01*
X-1631746Y1430578D01*
X-1625549Y1417370D01*
X-1617776Y1405077D01*
X-1608480Y1393901D01*
X-1597863Y1383944D01*
X-1586128Y1375359D01*
X-1573377Y1368348D01*
X-1559814Y1363014D01*
X-1545742Y1359357D01*
G37*
G36*
X1643735Y1357579D02*
G01*
X1658264Y1357579D01*
X1672691Y1359357D01*
X1686814Y1363014D01*
X1700326Y1368348D01*
X1713077Y1375359D01*
X1724863Y1383944D01*
X1735480Y1393901D01*
X1744725Y1405077D01*
X1752549Y1417370D01*
X1758746Y1430578D01*
X1763217Y1444396D01*
X1765960Y1458671D01*
X1766874Y1473200D01*
X1765960Y1487728D01*
X1763217Y1502054D01*
X1758746Y1515872D01*
X1752549Y1529029D01*
X1744725Y1541322D01*
X1735480Y1552549D01*
X1724863Y1562506D01*
X1713077Y1571040D01*
X1700326Y1578051D01*
X1686814Y1583436D01*
X1672691Y1587042D01*
X1658264Y1588871D01*
X1643735Y1588871D01*
X1629257Y1587042D01*
X1615186Y1583436D01*
X1601622Y1578051D01*
X1588871Y1571040D01*
X1577136Y1562506D01*
X1566519Y1552549D01*
X1557223Y1541322D01*
X1549450Y1529029D01*
X1543253Y1515872D01*
X1538732Y1502054D01*
X1535988Y1487728D01*
X1535074Y1473200D01*
X1535988Y1458671D01*
X1538732Y1444396D01*
X1543253Y1430578D01*
X1549450Y1417370D01*
X1557223Y1405077D01*
X1566519Y1393901D01*
X1577136Y1383944D01*
X1588871Y1375359D01*
X1601622Y1368348D01*
X1615186Y1363014D01*
X1629257Y1359357D01*
G37*

%LPD*%
G36*
X-1685137Y459536D02*
G01*
X-1689049Y460298D01*
X-1692300Y462483D01*
X-1694535Y465785D01*
X-1695297Y469696D01*
X-1695297Y494284D01*
X-1696008Y500583D01*
X-1697989Y506272D01*
X-1698548Y510032D01*
X-1697736Y513740D01*
X-1695602Y516839D01*
X-1692503Y518972D01*
X-1688795Y519785D01*
X-1685036Y519226D01*
X-1679346Y517245D01*
X-1673047Y516534D01*
X-1521764Y516534D01*
X-1515465Y517245D01*
X-1509979Y519176D01*
X-1504899Y522376D01*
X-1502156Y523392D01*
X-1501140Y526135D01*
X-1497939Y531215D01*
X-1496009Y536702D01*
X-1495298Y543001D01*
X-1495298Y594207D01*
X-1494383Y598424D01*
X-1491843Y601878D01*
X-1488084Y603961D01*
X-1481785Y605840D01*
X-1474724Y609650D01*
X-1468120Y615035D01*
X-1323797Y759358D01*
X-1318818Y765352D01*
X-1314907Y772414D01*
X-1313129Y777900D01*
X-1311148Y781456D01*
X-1307896Y783945D01*
X-1303934Y784961D01*
X-1299921Y784352D01*
X-1296466Y782167D01*
X-1294130Y778814D01*
X-1293317Y774801D01*
X-1293317Y709777D01*
X-1294079Y705866D01*
X-1296314Y702564D01*
X-1485341Y513537D01*
X-1488846Y511251D01*
X-1490014Y510082D01*
X-1492300Y506577D01*
X-1536395Y462483D01*
X-1539697Y460298D01*
X-1543558Y459536D01*
G37*

%LPD*%
G36*
X1656537Y201726D02*
G01*
X1652625Y202539D01*
X1649323Y204724D01*
X1471168Y382879D01*
X1469034Y385978D01*
X1468221Y389636D01*
X1468729Y393344D01*
X1472539Y404622D01*
X1475232Y418033D01*
X1476146Y431698D01*
X1475892Y435305D01*
X1476451Y439318D01*
X1478534Y442823D01*
X1481836Y445211D01*
X1485798Y446125D01*
X1489811Y445363D01*
X1493215Y443128D01*
X1663700Y272643D01*
X1665935Y269341D01*
X1666697Y265480D01*
X1666697Y211886D01*
X1665935Y208025D01*
X1663700Y204724D01*
X1660398Y202539D01*
G37*

%LPD*%
G36*
X-1782267Y117144D02*
G01*
X-1786128Y117906D01*
X-1789430Y120091D01*
X-1988108Y318770D01*
X-1990293Y322072D01*
X-1991106Y325932D01*
X-1991106Y512267D01*
X-1990293Y516178D01*
X-1988108Y519480D01*
X-1932838Y574751D01*
X-1929536Y576935D01*
X-1925624Y577748D01*
X-1909673Y577748D01*
X-1905762Y576935D01*
X-1902510Y574751D01*
X-1900275Y571449D01*
X-1899513Y567588D01*
X-1899513Y543001D01*
X-1898802Y536702D01*
X-1896872Y531215D01*
X-1891080Y522528D01*
X-1890318Y518617D01*
X-1891080Y514756D01*
X-1893824Y510946D01*
X-1896872Y506069D01*
X-1898802Y500583D01*
X-1899513Y494284D01*
X-1899513Y343001D01*
X-1898802Y336702D01*
X-1896872Y331216D01*
X-1893824Y326339D01*
X-1889709Y322224D01*
X-1884832Y319176D01*
X-1879346Y317246D01*
X-1873046Y316534D01*
X-1721764Y316534D01*
X-1715465Y317246D01*
X-1709978Y319176D01*
X-1705102Y322224D01*
X-1700987Y326339D01*
X-1697939Y331216D01*
X-1696008Y336702D01*
X-1695297Y343001D01*
X-1695297Y367538D01*
X-1694535Y371449D01*
X-1692300Y374751D01*
X-1689049Y376936D01*
X-1685137Y377698D01*
X-1522933Y377698D01*
X-1514449Y378561D01*
X-1506778Y380847D01*
X-1499717Y384657D01*
X-1493113Y390042D01*
X-1223822Y659333D01*
X-1218438Y665937D01*
X-1214678Y672998D01*
X-1212342Y680669D01*
X-1211478Y689102D01*
X-1211478Y858469D01*
X-1210716Y862330D01*
X-1208532Y865632D01*
X-1191920Y882243D01*
X-1188669Y884428D01*
X-1184757Y885190D01*
X-1180846Y884428D01*
X-1177594Y882243D01*
X-1175359Y878941D01*
X-1174597Y875030D01*
X-1174597Y743000D01*
X-1173886Y736701D01*
X-1171956Y731215D01*
X-1166164Y722528D01*
X-1165402Y718616D01*
X-1166164Y714756D01*
X-1168400Y711454D01*
X-1171397Y708456D01*
X-1174445Y703580D01*
X-1176375Y698093D01*
X-1177086Y691794D01*
X-1177086Y637590D01*
X-1177848Y633730D01*
X-1180084Y630428D01*
X-1349400Y461111D01*
X-1354785Y454507D01*
X-1358544Y447446D01*
X-1360881Y439775D01*
X-1361744Y431292D01*
X-1361744Y254508D01*
X-1360881Y246024D01*
X-1358544Y238404D01*
X-1354785Y231292D01*
X-1349400Y224739D01*
X-1259128Y134467D01*
X-1256944Y131165D01*
X-1256131Y127304D01*
X-1256944Y123393D01*
X-1259128Y120091D01*
X-1262430Y117906D01*
X-1266291Y117144D01*
G37*

%LPD*%
G36*
X1575968Y97231D02*
G01*
X1572006Y98298D01*
X1568754Y100838D01*
X1566773Y104444D01*
X1565351Y109270D01*
X1561541Y116332D01*
X1556156Y122885D01*
X1485849Y193192D01*
X1479296Y198577D01*
X1477162Y199694D01*
X1474216Y202082D01*
X1472336Y205435D01*
X1468170Y217728D01*
X1462125Y230022D01*
X1454505Y241401D01*
X1445463Y251663D01*
X1435201Y260705D01*
X1423822Y268325D01*
X1411528Y274370D01*
X1398574Y278739D01*
X1385163Y281432D01*
X1371498Y282346D01*
X1357833Y281432D01*
X1344422Y278739D01*
X1331468Y274370D01*
X1320038Y268732D01*
X1316024Y267716D01*
X1311910Y268376D01*
X1308404Y270662D01*
X1271066Y308000D01*
X1264462Y313385D01*
X1257401Y317195D01*
X1249730Y319481D01*
X1241298Y320344D01*
X880008Y320344D01*
X876909Y320802D01*
X874166Y322173D01*
X866140Y327812D01*
X857300Y331927D01*
X852881Y333095D01*
X848969Y335127D01*
X846277Y338632D01*
X845362Y342900D01*
X846277Y347218D01*
X848969Y350723D01*
X852881Y352704D01*
X857300Y353923D01*
X866140Y358038D01*
X874166Y363677D01*
X876960Y365048D01*
X880008Y365506D01*
X1286052Y365506D01*
X1290269Y364591D01*
X1293723Y362051D01*
X1297533Y357733D01*
X1307795Y348691D01*
X1319174Y341071D01*
X1331468Y335026D01*
X1344422Y330657D01*
X1357833Y327964D01*
X1371498Y327050D01*
X1385163Y327964D01*
X1403146Y331470D01*
X1406753Y330606D01*
X1409852Y328472D01*
X1583690Y154635D01*
X1585925Y151333D01*
X1586687Y147472D01*
X1586687Y107391D01*
X1585874Y103378D01*
X1583486Y100025D01*
X1580032Y97840D01*
G37*

%LPD*%
G36*
X994410Y-840486D02*
G01*
X991362Y-840028D01*
X988568Y-838657D01*
X980490Y-833018D01*
X971702Y-828903D01*
X962253Y-826363D01*
X952601Y-825500D01*
X942898Y-826363D01*
X929081Y-830021D01*
X925118Y-829411D01*
X921715Y-827227D01*
X919378Y-823976D01*
X918565Y-820013D01*
X919276Y-816051D01*
X921512Y-812698D01*
X1255674Y-478535D01*
X1261059Y-471982D01*
X1264869Y-464921D01*
X1267155Y-457250D01*
X1268018Y-448767D01*
X1268018Y-396849D01*
X1268933Y-392633D01*
X1271473Y-389178D01*
X1275232Y-387096D01*
X1279499Y-386740D01*
X1283512Y-388213D01*
X1286611Y-391160D01*
X1288491Y-394004D01*
X1297533Y-404266D01*
X1307795Y-413308D01*
X1319174Y-420928D01*
X1331468Y-426974D01*
X1344422Y-431342D01*
X1357833Y-434035D01*
X1371498Y-434949D01*
X1385163Y-434035D01*
X1398574Y-431342D01*
X1411528Y-426974D01*
X1423822Y-420928D01*
X1435201Y-413308D01*
X1445463Y-404266D01*
X1454505Y-394004D01*
X1462125Y-382625D01*
X1467408Y-371856D01*
X1470253Y-368350D01*
X1474317Y-366420D01*
X1478838Y-366471D01*
X1482902Y-368452D01*
X1485696Y-371957D01*
X1486662Y-376377D01*
X1486662Y-599033D01*
X1485900Y-602894D01*
X1483715Y-606196D01*
X1374038Y-715924D01*
X1368602Y-722477D01*
X1364843Y-729538D01*
X1362506Y-737209D01*
X1361694Y-745693D01*
X1361694Y-794105D01*
X1360932Y-798017D01*
X1358696Y-801268D01*
X1355394Y-803503D01*
X1351534Y-804265D01*
X1326845Y-804265D01*
X1320546Y-804976D01*
X1315059Y-806907D01*
X1306372Y-812698D01*
X1302512Y-813460D01*
X1298600Y-812698D01*
X1294790Y-809955D01*
X1289913Y-806907D01*
X1284427Y-804976D01*
X1278128Y-804265D01*
X1126845Y-804265D01*
X1120546Y-804976D01*
X1115060Y-806907D01*
X1110183Y-809955D01*
X1106068Y-814069D01*
X1103020Y-818946D01*
X1101090Y-824433D01*
X1100328Y-831443D01*
X1099261Y-834948D01*
X1096975Y-837895D01*
X1093825Y-839825D01*
X1090218Y-840486D01*
G37*

%LPD*%
G36*
X1562912Y-1328470D02*
G01*
X1559001Y-1327658D01*
X1555699Y-1325473D01*
X1553514Y-1322171D01*
X1552752Y-1318310D01*
X1553514Y-1314399D01*
X1555699Y-1311097D01*
X1631188Y-1235659D01*
X1636572Y-1229106D01*
X1640332Y-1221994D01*
X1642668Y-1214374D01*
X1643481Y-1205890D01*
X1643481Y-1018641D01*
X1644294Y-1014730D01*
X1646478Y-1011478D01*
X1649780Y-1009243D01*
X1653641Y-1008481D01*
X1678127Y-1008481D01*
X1684426Y-1007770D01*
X1689912Y-1005840D01*
X1694789Y-1002792D01*
X1698904Y-998677D01*
X1701952Y-993800D01*
X1703882Y-988314D01*
X1704593Y-982014D01*
X1704593Y-830732D01*
X1703882Y-824433D01*
X1701952Y-818946D01*
X1698904Y-814069D01*
X1694789Y-809955D01*
X1689912Y-806907D01*
X1684426Y-804976D01*
X1678127Y-804265D01*
X1526844Y-804265D01*
X1520545Y-804976D01*
X1515059Y-806907D01*
X1506372Y-812698D01*
X1502511Y-813460D01*
X1498600Y-812698D01*
X1494790Y-809955D01*
X1489913Y-806907D01*
X1484426Y-804976D01*
X1478127Y-804265D01*
X1453642Y-804265D01*
X1449781Y-803503D01*
X1446479Y-801268D01*
X1444294Y-798017D01*
X1443482Y-794105D01*
X1443482Y-766318D01*
X1444294Y-762457D01*
X1446479Y-759155D01*
X1556156Y-649478D01*
X1561541Y-642874D01*
X1565351Y-635812D01*
X1567688Y-628142D01*
X1568500Y-619709D01*
X1568500Y-495147D01*
X1569313Y-491134D01*
X1571701Y-487781D01*
X1575155Y-485597D01*
X1579219Y-484987D01*
X1583182Y-486054D01*
X1586433Y-488594D01*
X1588363Y-492201D01*
X1589836Y-497027D01*
X1593596Y-504088D01*
X1599031Y-510641D01*
X1808683Y-720344D01*
X1810918Y-723646D01*
X1811680Y-727557D01*
X1811680Y-1110234D01*
X1810918Y-1114094D01*
X1808683Y-1117396D01*
X1600657Y-1325473D01*
X1597355Y-1327658D01*
X1593443Y-1328470D01*
G37*

%LPD*%
G36*
X1300886Y-1436268D02*
G01*
X1297482Y-1436065D01*
X1294333Y-1434744D01*
X1289913Y-1432001D01*
X1284427Y-1430070D01*
X1278128Y-1429359D01*
X1211630Y-1429359D01*
X1207566Y-1428546D01*
X1204214Y-1426159D01*
X1202029Y-1422603D01*
X1201470Y-1418539D01*
X1202588Y-1414576D01*
X1205179Y-1411325D01*
X1206855Y-1409954D01*
X1283563Y-1333246D01*
X1286865Y-1331061D01*
X1290777Y-1330248D01*
X1396339Y-1330248D01*
X1400200Y-1331061D01*
X1403502Y-1333246D01*
X1405686Y-1336548D01*
X1406499Y-1340408D01*
X1405686Y-1344320D01*
X1403502Y-1347622D01*
X1374038Y-1377086D01*
X1368602Y-1383690D01*
X1364843Y-1390751D01*
X1362506Y-1398422D01*
X1361694Y-1406855D01*
X1361694Y-1416710D01*
X1360932Y-1420622D01*
X1358696Y-1423873D01*
X1355394Y-1426108D01*
X1351534Y-1426870D01*
X1324356Y-1426870D01*
X1318056Y-1427581D01*
X1312570Y-1429512D01*
X1307693Y-1432560D01*
X1304137Y-1435303D01*
G37*

%LPD*%
G36*
X1502511Y-1438554D02*
G01*
X1498600Y-1437792D01*
X1495298Y-1435557D01*
X1492300Y-1432560D01*
X1486662Y-1429054D01*
X1483563Y-1426006D01*
X1482039Y-1421942D01*
X1482293Y-1417624D01*
X1484376Y-1413814D01*
X1487830Y-1411173D01*
X1492097Y-1410258D01*
X1517345Y-1410258D01*
X1521307Y-1411071D01*
X1524609Y-1413357D01*
X1526794Y-1416761D01*
X1527505Y-1420774D01*
X1526540Y-1424686D01*
X1524152Y-1427937D01*
X1520698Y-1430020D01*
X1515059Y-1432001D01*
X1506372Y-1437792D01*
G37*

%LPD*%
G36*
X1296974Y-1989836D02*
G01*
X1293114Y-1989074D01*
X1289304Y-1986381D01*
X1284376Y-1983282D01*
X1278940Y-1981403D01*
X1272641Y-1980692D01*
X1248054Y-1980692D01*
X1244142Y-1979879D01*
X1240891Y-1977694D01*
X1238656Y-1974392D01*
X1237894Y-1970532D01*
X1237894Y-1840636D01*
X1238351Y-1837588D01*
X1239723Y-1834794D01*
X1242161Y-1831289D01*
X1246276Y-1822500D01*
X1248816Y-1813052D01*
X1249680Y-1803400D01*
X1248816Y-1793697D01*
X1246276Y-1784248D01*
X1242161Y-1775460D01*
X1236573Y-1767484D01*
X1229715Y-1760575D01*
X1221740Y-1754987D01*
X1212900Y-1750872D01*
X1203502Y-1748332D01*
X1193800Y-1747520D01*
X1184097Y-1748332D01*
X1174699Y-1750872D01*
X1165860Y-1754987D01*
X1157884Y-1760575D01*
X1151026Y-1767484D01*
X1145438Y-1775460D01*
X1141323Y-1784248D01*
X1138783Y-1793697D01*
X1137920Y-1803400D01*
X1138783Y-1813052D01*
X1141323Y-1822500D01*
X1145438Y-1831289D01*
X1151026Y-1839264D01*
X1153109Y-1841398D01*
X1155293Y-1844700D01*
X1156055Y-1848561D01*
X1156055Y-1970532D01*
X1155293Y-1974392D01*
X1153109Y-1977694D01*
X1149807Y-1979879D01*
X1145895Y-1980692D01*
X1121359Y-1980692D01*
X1115060Y-1981403D01*
X1105052Y-1985060D01*
X1100734Y-1984756D01*
X1096975Y-1982673D01*
X1094435Y-1979218D01*
X1093520Y-1975002D01*
X1093520Y-1660906D01*
X1094282Y-1657045D01*
X1096467Y-1653743D01*
X1114247Y-1636014D01*
X1116685Y-1634185D01*
X1119530Y-1633220D01*
X1122527Y-1633067D01*
X1126845Y-1633575D01*
X1278128Y-1633575D01*
X1284427Y-1632864D01*
X1289913Y-1630933D01*
X1294790Y-1627886D01*
X1298346Y-1625142D01*
X1301597Y-1624177D01*
X1305001Y-1624380D01*
X1308150Y-1625701D01*
X1312570Y-1628444D01*
X1318056Y-1630375D01*
X1324356Y-1631086D01*
X1475638Y-1631086D01*
X1481937Y-1630375D01*
X1487424Y-1628444D01*
X1496110Y-1622704D01*
X1500022Y-1621891D01*
X1503883Y-1622704D01*
X1507185Y-1624888D01*
X1510182Y-1627886D01*
X1515059Y-1630933D01*
X1520545Y-1632864D01*
X1526844Y-1633575D01*
X1678127Y-1633575D01*
X1684426Y-1632864D01*
X1689912Y-1630933D01*
X1694789Y-1627886D01*
X1698904Y-1623771D01*
X1701952Y-1618894D01*
X1703882Y-1613408D01*
X1704593Y-1607108D01*
X1704593Y-1575054D01*
X1705356Y-1571142D01*
X1707591Y-1567891D01*
X1710842Y-1565656D01*
X1714754Y-1564894D01*
X1725269Y-1564894D01*
X1728520Y-1565452D01*
X1731467Y-1566976D01*
X1733702Y-1569415D01*
X1746351Y-1588312D01*
X1747723Y-1591462D01*
X1747977Y-1594866D01*
X1747520Y-1600200D01*
X1748383Y-1609852D01*
X1750923Y-1619300D01*
X1755038Y-1628089D01*
X1760626Y-1636064D01*
X1767484Y-1642973D01*
X1775460Y-1648561D01*
X1784299Y-1652676D01*
X1793697Y-1655216D01*
X1803400Y-1656029D01*
X1813102Y-1655216D01*
X1822500Y-1652676D01*
X1831339Y-1648561D01*
X1839315Y-1642973D01*
X1846173Y-1636064D01*
X1851761Y-1628089D01*
X1855876Y-1619300D01*
X1858416Y-1609852D01*
X1859280Y-1600200D01*
X1858416Y-1590497D01*
X1855876Y-1581048D01*
X1851761Y-1572260D01*
X1846173Y-1564284D01*
X1839315Y-1557375D01*
X1831339Y-1551787D01*
X1822500Y-1547672D01*
X1820164Y-1547063D01*
X1816862Y-1545488D01*
X1814372Y-1542897D01*
X1786889Y-1501698D01*
X1781505Y-1495094D01*
X1775307Y-1490014D01*
X1768246Y-1486255D01*
X1760575Y-1483918D01*
X1752142Y-1483055D01*
X1714754Y-1483055D01*
X1710842Y-1482293D01*
X1707591Y-1480108D01*
X1705356Y-1476806D01*
X1704593Y-1472895D01*
X1704593Y-1455826D01*
X1703882Y-1449527D01*
X1701952Y-1444040D01*
X1698904Y-1439164D01*
X1694789Y-1435049D01*
X1689912Y-1432001D01*
X1684426Y-1430070D01*
X1678127Y-1429359D01*
X1625396Y-1429359D01*
X1621383Y-1428546D01*
X1618030Y-1426159D01*
X1615846Y-1422704D01*
X1615236Y-1418640D01*
X1616303Y-1414678D01*
X1618843Y-1411427D01*
X1622450Y-1409496D01*
X1630273Y-1407109D01*
X1637334Y-1403350D01*
X1643888Y-1397914D01*
X1881174Y-1160678D01*
X1886559Y-1154074D01*
X1890318Y-1147013D01*
X1892655Y-1139342D01*
X1893519Y-1130909D01*
X1893519Y-706882D01*
X1892655Y-698398D01*
X1890318Y-690727D01*
X1886559Y-683666D01*
X1881174Y-677113D01*
X1671472Y-467410D01*
X1669288Y-464108D01*
X1668475Y-460248D01*
X1668475Y-349656D01*
X1669288Y-345795D01*
X1671472Y-342493D01*
X1674774Y-340258D01*
X1678686Y-339496D01*
X1682546Y-340309D01*
X1685848Y-342493D01*
X1911908Y-568858D01*
X1914143Y-572160D01*
X1914906Y-576021D01*
X1914906Y-1680616D01*
X1914143Y-1684528D01*
X1911908Y-1687830D01*
X1865630Y-1734108D01*
X1862328Y-1736293D01*
X1858467Y-1737055D01*
X1524508Y-1737055D01*
X1516024Y-1737918D01*
X1508353Y-1740204D01*
X1501292Y-1744014D01*
X1494739Y-1749399D01*
X1368450Y-1875688D01*
X1363014Y-1882292D01*
X1359255Y-1889353D01*
X1356918Y-1897024D01*
X1356106Y-1905457D01*
X1356106Y-1970532D01*
X1355344Y-1974392D01*
X1353108Y-1977694D01*
X1349806Y-1979879D01*
X1345946Y-1980692D01*
X1321358Y-1980692D01*
X1315059Y-1981403D01*
X1309573Y-1983282D01*
X1300886Y-1989074D01*
G37*

%LPD*%
G36*
X-1778000Y-228600D02*
G01*
X-1854200Y-330200D01*
X-1981200Y-508000D01*
X-1981200Y-1778000D01*
X-2438400Y-2209800D01*
X-2590800Y-2209800D01*
X-3098800Y-2717800D01*
X-3098800Y-3352800D01*
X-3048000Y-3403600D01*
X-2730500Y-3403600D01*
X-2654300Y-3327400D01*
X-2654300Y-2946400D01*
X-2565400Y-2844800D01*
X-2235200Y-2514600D01*
X-2057400Y-2514600D01*
X-1752600Y-2108200D01*
X-1752600Y-1270000D01*
X-1651000Y-1219200D01*
X-1397000Y-1219200D01*
X-1346200Y-1168400D01*
X-1346200Y-1041400D01*
X-1397000Y-990600D01*
X-1701800Y-990600D01*
X-1752600Y-939800D01*
X-1752600Y-558800D01*
X-1651000Y-431800D01*
X-1371600Y-431800D01*
X-1346200Y-406400D01*
X-1346200Y-254000D01*
X-1422400Y-228600D01*
G37*
D10*
X1144612Y-3327389D02*
G01*
X1144612Y-2973390D01*
X914412Y-2743189D01*
X914412Y-2463789D01*
X831989Y-2381392D01*
X677608Y-2381392D01*
X1574812Y-1523989D02*
G01*
X1752600Y-1524000D01*
X1803412Y-1600189D01*
X330212Y-1066789D02*
G01*
X644822Y-1381399D01*
X1177599Y-1381399D01*
X1269626Y-1289375D01*
X1519626Y-1289375D01*
X1602602Y-1206398D01*
X1602602Y-906396D01*
X-228600Y-1041400D02*
G01*
X-381000Y-1041400D01*
X-429905Y-992494D01*
X203212Y-2082789D02*
G01*
X203212Y-2380909D01*
X202603Y-2381519D01*
X-228587Y-1241389D02*
G01*
X203212Y-1673189D01*
X203212Y-1727189D01*
X-1523987Y-761989D02*
G01*
X-1600187Y-761989D01*
X-1600187Y-761989D01*
X-26603Y-862396D02*
G01*
X-1203Y-862396D01*
X50812Y-914412D01*
X50812Y-1041389D01*
X50812Y-1241389D02*
G01*
X677583Y-1868159D01*
X677583Y-2381519D01*
X-1776387Y1468612D02*
G01*
X-1776387Y1422587D01*
X-1625600Y1295400D01*
X-1473200Y1295400D01*
X-1346200Y1193800D01*
X-1352410Y788603D01*
X-1497393Y643595D01*
X-1597393Y643595D01*
X1402603Y-906396D02*
G01*
X1402603Y-745197D01*
X1527601Y-620199D01*
X1527601Y93601D01*
X1456601Y164599D01*
X1377602Y164599D01*
X382602Y-3327400D02*
G01*
X382602Y-3061401D01*
X202600Y-2881398D01*
X202600Y-2756397D01*
X890602Y-3327400D02*
G01*
X890602Y-2994400D01*
X677600Y-2781399D01*
X677600Y-2781399D01*
X-97401Y418602D02*
G01*
X127601Y418602D01*
X227601Y518601D01*
X227601Y1018600D01*
X452600Y1243601D01*
X802601Y1243601D01*
X890602Y1331602D01*
X890602Y1468602D01*
X-97401Y818601D02*
G01*
X-97401Y893599D01*
X382602Y1373601D01*
X382602Y1468602D01*
X-597400Y818601D02*
G01*
X-597400Y1193599D01*
X-506397Y1284602D01*
X-506397Y1468602D01*
X-1072400Y418599D02*
G01*
X-972400Y418599D01*
X-922398Y468599D01*
X-922398Y843600D01*
X-760397Y1005603D01*
X-760397Y1468602D01*
X-1072400Y818603D02*
G01*
X-1072400Y968598D01*
X-1014397Y1026601D01*
X-1014397Y1468602D01*
X202600Y-2356398D02*
G01*
X202600Y-2381399D01*
X271924Y-2381399D01*
X343799Y-2453274D01*
X343799Y-2797596D01*
X636602Y-3090400D01*
X636602Y-3327400D01*
X952601Y-881400D02*
G01*
X1177604Y-881400D01*
X1202603Y-906396D01*
X1002601Y-1131399D02*
G01*
X1377604Y-1131399D01*
X1402603Y-1106401D01*
X-1797397Y443600D02*
G01*
X-1772399Y418599D01*
X-1522399Y418599D01*
X-1252397Y688601D01*
X-1252397Y879601D01*
X-1174899Y957102D01*
X-1174899Y1331102D01*
X-1252397Y1408600D01*
X-1252397Y1452603D01*
X-1268397Y1468602D01*
X838212Y787410D02*
G01*
X1262788Y787410D01*
X1377599Y672599D01*
X1402600Y-1531401D02*
G01*
X1402600Y-1406398D01*
X1439626Y-1369374D01*
X1614627Y-1369374D01*
X1852599Y-1131399D01*
X1852599Y-706396D01*
X1627601Y-481398D01*
X1627601Y168600D01*
X1377602Y418599D01*
X-599986Y616137D02*
G01*
X-653859Y616137D01*
X-787387Y482610D01*
X-787387Y279410D01*
X-609587Y101610D01*
X838212Y406410D02*
G01*
X1377607Y406410D01*
X1377607Y418602D01*
X-1797397Y843600D02*
G01*
X-1797397Y993599D01*
X-1644898Y1146101D01*
D11*
X-1295387Y-2438389D02*
G01*
X-1574810Y-2438389D01*
X-1854200Y-2159000D01*
D10*
X-965200Y-2514600D02*
G01*
X-1015987Y-2565389D01*
X-1088986Y-2638389D01*
X-1295387Y-2638389D01*
X1398612Y-3327389D02*
G01*
X1398612Y-3052409D01*
X1052614Y-2706385D01*
X1052614Y-1639788D01*
X1160995Y-1531406D01*
X1202601Y-1531406D01*
X1193800Y-1803400D02*
G01*
X1197000Y-1806600D01*
X1197000Y-2032000D01*
X1377607Y718601D02*
G01*
X1377607Y558606D01*
X1435595Y558606D01*
X1707603Y286598D01*
X1707603Y-306390D01*
X1955812Y-554903D01*
X1955812Y-1701789D01*
X1879612Y-1777989D01*
X1524012Y-1777989D01*
X1397012Y-1904989D01*
X1397012Y-2031989D01*
X1397000Y-2231999D02*
G01*
X1397000Y-2387577D01*
X1473212Y-2463789D01*
X1596986Y-2031989D02*
G01*
X1596986Y-2082789D01*
X1778012Y-2082789D01*
X1854212Y-2158989D01*
X1854212Y-2362189D01*
X1651012Y-2565389D01*
X1651012Y-3327364D01*
X-2133587Y-584189D02*
G01*
X-2235200Y-685802D01*
X-2235200Y-1295377D01*
X-2133587Y-1396989D01*
X-99860Y616137D02*
G01*
X-145859Y616137D01*
X-304787Y457210D01*
X-304787Y-177789D01*
X-406387Y-279389D01*
X-1143393Y-3327389D02*
G01*
X-1143393Y-3317407D01*
X-607402Y-2781391D01*
X-397395Y-2781391D01*
X-1797392Y618627D02*
G01*
X-1946770Y618627D01*
X-2031987Y533410D01*
X-2031987Y304784D01*
X-1803387Y76210D01*
X-1018705Y76210D01*
X-405015Y-537479D01*
X-1074966Y616137D02*
G01*
X-1136462Y616137D01*
X-1320800Y431800D01*
X-1320800Y254000D01*
X-1219200Y152400D01*
X-965200Y152400D01*
X-406400Y-406400D01*
X356476Y635000D02*
G01*
X356476Y557923D01*
X846518Y67881D01*
X846518Y-199735D01*
X-597400Y418602D02*
G01*
X-522396Y418602D01*
X-397398Y543600D01*
X-397398Y1196601D01*
X-125397Y1468602D01*
X-176618Y126121D02*
G01*
X-176618Y-317769D01*
X17081Y-511469D01*
X-50787Y203210D02*
G01*
X-50787Y25384D01*
X123532Y-148935D01*
X186118Y-148935D01*
X431812Y-126989D02*
G01*
X355600Y-254000D01*
X381012Y-380989D01*
X562267Y-562269D01*
X677481Y-562269D01*
X431812Y228610D02*
G01*
X580732Y79689D01*
X580732Y-296484D01*
X838212Y279410D02*
G01*
X1241788Y279410D01*
X1377599Y143598D01*
X1377599Y164599D01*
X98285Y-331409D02*
G01*
X554266Y-787389D01*
X889012Y-787389D01*
X1227112Y-449290D01*
X1227112Y-343397D01*
X762012Y-380989D02*
G01*
X1189512Y-380989D01*
X1227101Y-343400D01*
X1377602Y-343400D01*
X-1193787Y-1828789D02*
G01*
X-304812Y-1828789D01*
X25412Y-2158989D01*
X25412Y-2489189D01*
X115227Y-2579029D01*
X205092Y-2579029D01*
X-397344Y-2381519D02*
G01*
X-279400Y-2489200D01*
X-203187Y-2667015D01*
X-203187Y-2870189D01*
X-355587Y-3022589D01*
X-609587Y-3022589D01*
X-888987Y-3301989D01*
X-888987Y-3327389D01*
X-842276Y-2434325D02*
G01*
X-693966Y-2285989D01*
X-609587Y-2285989D01*
X-507987Y-2184389D01*
X-279412Y-2184389D01*
X-126987Y-2336789D01*
X-126987Y-2489189D01*
X12Y-2667015D01*
X12Y-3047989D01*
X50812Y-3098789D01*
X680072Y-2579029D02*
G01*
X572427Y-2579029D01*
X482612Y-2489189D01*
X482612Y-2184415D01*
X-177787Y-1523989D01*
X-711187Y-1523989D01*
X-1473187Y-761989D01*
X-1523987Y-761989D01*
X-394855Y-2579029D02*
G01*
X-697572Y-2579029D01*
X-1396987Y-1879589D01*
X-1396987Y-1523989D01*
X-1574787Y-1346189D01*
D12*
G01*
X-397344Y-2781518D03*
G01*
X-394855Y-2579029D03*
G01*
X-397344Y-2381519D03*
D13*
G01*
X50800Y-1241399D03*
G01*
X50800Y-1041400D03*
G01*
X-228600Y-1041400D03*
G01*
X-228600Y-1241399D03*
D12*
G01*
X677583Y-2781518D03*
G01*
X680072Y-2579029D03*
G01*
X677583Y-2381519D03*
G01*
X202603Y-2781518D03*
G01*
X205092Y-2579029D03*
G01*
X202603Y-2381519D03*
D14*
G01*
X1602498Y-1531482D03*
G01*
X1400009Y-1528993D03*
G01*
X1202499Y-1531482D03*
D13*
G01*
X-597496Y818626D03*
G01*
X-599986Y616137D03*
G01*
X-597496Y418627D03*
G01*
X-1072476Y818626D03*
G01*
X-1074966Y616137D03*
G01*
X-1072476Y418627D03*
G01*
X-97370Y818626D03*
G01*
X-99860Y616137D03*
G01*
X-97370Y418627D03*
D14*
G01*
X1402499Y-1106388D03*
G01*
X1202499Y-906388D03*
G01*
X1402499Y-906388D03*
G01*
X1602498Y-906388D03*
D13*
G01*
X-1597393Y618627D03*
G01*
X-1797392Y418627D03*
G01*
X-1797392Y618627D03*
G01*
X-1797392Y818626D03*
D14*
G01*
X1397000Y-2282799D03*
G01*
X1197000Y-2082800D03*
G01*
X1397000Y-2082800D03*
G01*
X1596999Y-2082800D03*
D13*
G01*
X-1295400Y-2638399D03*
G01*
X-1295400Y-2438400D03*
D15*
G01*
X580739Y-296476D03*
D16*
G01*
X846523Y-199739D03*
D15*
G01*
X762000Y-381000D03*
D16*
G01*
X677476Y-562260D03*
D17*
G01*
X186123Y-148939D03*
D18*
G01*
X98291Y-331403D03*
D17*
G01*
X17076Y-511460D03*
D19*
G01*
X1371511Y-330316D03*
G01*
X1371511Y-76316D03*
G01*
X1371511Y177683D03*
G01*
X1371511Y431683D03*
D20*
G01*
X1371511Y685683D03*
D21*
G01*
X-1904987Y-3327389D03*
D22*
G01*
X-1650987Y-3327389D03*
G01*
X-1396987Y-3327389D03*
G01*
X-1142987Y-3327389D03*
G01*
X-888987Y-3327389D03*
G01*
X-634987Y-3327389D03*
G01*
X-380987Y-3327389D03*
G01*
X-126987Y-3327389D03*
G01*
X1651012Y-3327389D03*
G01*
X1397012Y-3327389D03*
G01*
X1143012Y-3327389D03*
G01*
X889012Y-3327389D03*
G01*
X635012Y-3327389D03*
D21*
G01*
X381012Y-3327389D03*
D22*
G01*
X-507987Y1473210D03*
G01*
X-761987Y1473210D03*
G01*
X-1015987Y1473210D03*
G01*
X-1269987Y1473210D03*
G01*
X-1523987Y1473210D03*
G01*
X-1777987Y1473210D03*
G01*
X-2031987Y1473210D03*
G01*
X-2285987Y1473210D03*
G01*
X-2539987Y1473210D03*
D21*
G01*
X-2793987Y1473210D03*
G01*
X-126987Y1473210D03*
D22*
G01*
X127012Y1473210D03*
G01*
X381012Y1473210D03*
G01*
X635012Y1473210D03*
G01*
X889012Y1473210D03*
G01*
X1143012Y1473210D03*
G01*
X1397012Y1473210D03*
G01*
X1651012Y1473210D03*
D23*
G01*
X-2887586Y-3174989D03*
G01*
X-2387587Y-3174989D03*
G01*
X-2971787Y-1269989D03*
G01*
X-2971787Y-769990D03*
G01*
X-2971787Y-269991D03*
D24*
G01*
X1952612Y-81396D03*
G01*
X1952612Y-2881391D03*
D25*
G01*
X-939076Y-484901D03*
G01*
X-839076Y-484901D03*
G01*
X-939076Y-584901D03*
G01*
X-839076Y-584901D03*
G01*
X-939076Y-684900D03*
G01*
X-839076Y-684900D03*
G01*
X-939076Y-784900D03*
G01*
X-839076Y-784900D03*
G01*
X838212Y-685789D03*
G01*
X431812Y-126989D03*
G01*
X640092Y1103589D03*
G01*
X-177787Y127010D03*
G01*
X838212Y279410D03*
G01*
X838212Y406410D03*
G01*
X838212Y787410D03*
G01*
X-1644891Y1146108D03*
D26*
G01*
X-965187Y-2514589D03*
D25*
G01*
X1803412Y-1600189D03*
G01*
X852589Y-2031405D03*
G01*
X-2616187Y-1955789D03*
G01*
X-3047987Y-1727189D03*
G01*
X1473212Y-2463789D03*
G01*
X1193812Y-1803389D03*
G01*
X1655102Y966099D03*
G01*
X2072601Y-408904D03*
G01*
X2072601Y-2573898D03*
G01*
X1701812Y-2362189D03*
G01*
X50812Y-3098789D03*
G01*
X-2616187Y-1803389D03*
D27*
G01*
X-3149587Y482610D03*
G01*
X-3149587Y1295410D03*
D25*
G01*
X330212Y-1066789D03*
G01*
X852589Y-1831406D03*
D27*
G01*
X-2311387Y381010D03*
D25*
G01*
X1002601Y-1131407D03*
G01*
X952588Y-881395D03*
G01*
X-609587Y101610D03*
G01*
X203212Y-1727189D03*
G01*
X203212Y-2082789D03*
G01*
X-101587Y-406389D03*
D28*
G01*
X-2108187Y-838189D03*
G01*
X-2641587Y-126989D03*
G01*
X-2641587Y-507989D03*
G01*
X-2133587Y-1549389D03*
G01*
X-1422387Y-304789D03*
G01*
X-1396987Y-380989D03*
G01*
X-1525663Y-305501D03*
G01*
X-1498587Y-380989D03*
G01*
X-1498587Y-1066789D03*
G01*
X-1422387Y-1066789D03*
G01*
X-1396987Y-1142989D03*
G01*
X-1473187Y-1142989D03*
G01*
X-2133587Y-1396989D03*
G01*
X-2133587Y-584189D03*
G01*
X-26606Y-862396D03*
G01*
X-429907Y-992494D03*
G01*
X-1041387Y-1727189D03*
G01*
X406412Y-1727189D03*
G01*
X-1193787Y-1828789D03*
G01*
X-863587Y-1981189D03*
G01*
X-2463787Y-1092189D03*
D25*
G01*
X-2336787Y-2336789D03*
G01*
X-2108187Y-2336815D03*
G01*
X-50787Y203210D03*
G01*
X356476Y635010D03*
G01*
X431812Y228610D03*
D29*
G01*
X-888987Y228610D03*
G01*
X-2692387Y787410D03*
G01*
X-2641587Y254010D03*
G01*
X-2158987Y1143010D03*
G01*
X-2057387Y939810D03*
G01*
X101612Y812810D03*
G01*
X-888987Y1270010D03*
G01*
X1524012Y-3073389D03*
G01*
X1016012Y-3073389D03*
G01*
X482612Y-3073389D03*
G01*
X-533387Y-3149589D03*
G01*
X-101587Y-2971789D03*
G01*
X-812787Y-2590789D03*
G01*
X-1600187Y-761989D03*
G01*
X-1574787Y-1346189D03*
G01*
X-406387Y-279389D03*
G01*
X-406387Y-406389D03*
G01*
X-405015Y-537479D03*
M02*
