G04 Layer: TopSilkscreenLayer*
G04 EasyEDA v6.5.42, 2024-06-23 11:48:01*
G04 8461acd9e52441dfa5b1607b254f294a,2865ae9118a24060a17af6d01c9bcc73,10*
G04 Gerber Generator version 0.2*
G04 Scale: 100 percent, Rotated: No, Reflected: No *
G04 Dimensions in millimeters *
G04 leading zeros omitted , absolute positions ,4 integer and 5 decimal *
%FSLAX45Y45*%
%MOMM*%

%ADD10C,0.2540*%
%ADD11C,0.4000*%
%ADD12C,0.5000*%
%ADD13C,0.2450*%
%ADD14C,0.1524*%
%ADD15C,0.2032*%
%ADD16C,0.2030*%
%ADD17C,0.1500*%
%ADD18C,0.3000*%
%ADD19C,0.0142*%

%LPD*%
D10*
X-2832199Y1142202D02*
G01*
X-2839565Y1134836D01*
X-2843121Y1123914D01*
X-2843121Y1109436D01*
X-2839565Y1098514D01*
X-2832199Y1091148D01*
X-2824833Y1091148D01*
X-2817721Y1094958D01*
X-2813911Y1098514D01*
X-2810355Y1105880D01*
X-2802989Y1127470D01*
X-2799433Y1134836D01*
X-2795877Y1138392D01*
X-2788511Y1142202D01*
X-2777589Y1142202D01*
X-2770477Y1134836D01*
X-2766667Y1123914D01*
X-2766667Y1109436D01*
X-2770477Y1098514D01*
X-2777589Y1091148D01*
X-2824833Y1220688D02*
G01*
X-2832199Y1217132D01*
X-2839565Y1209766D01*
X-2843121Y1202400D01*
X-2843121Y1187922D01*
X-2839565Y1180556D01*
X-2832199Y1173444D01*
X-2824833Y1169888D01*
X-2813911Y1166078D01*
X-2795877Y1166078D01*
X-2784955Y1169888D01*
X-2777589Y1173444D01*
X-2770477Y1180556D01*
X-2766667Y1187922D01*
X-2766667Y1202400D01*
X-2770477Y1209766D01*
X-2777589Y1217132D01*
X-2784955Y1220688D01*
X-2843121Y1244564D02*
G01*
X-2766667Y1244564D01*
X-2766667Y1244564D02*
G01*
X-2766667Y1288252D01*
X1397624Y-2579712D02*
G01*
X1493128Y-2616288D01*
X1397624Y-2579712D02*
G01*
X1493128Y-2543390D01*
X1461378Y-2602572D02*
G01*
X1461378Y-2557106D01*
X1429628Y-2513418D02*
G01*
X1493128Y-2513418D01*
X1456806Y-2513418D02*
G01*
X1443090Y-2508846D01*
X1433946Y-2499956D01*
X1429628Y-2490812D01*
X1429628Y-2477096D01*
X1397624Y-2392514D02*
G01*
X1493128Y-2392514D01*
X1443090Y-2392514D02*
G01*
X1433946Y-2401658D01*
X1429628Y-2410802D01*
X1429628Y-2424264D01*
X1433946Y-2433408D01*
X1443090Y-2442552D01*
X1456806Y-2447124D01*
X1465950Y-2447124D01*
X1479412Y-2442552D01*
X1488556Y-2433408D01*
X1493128Y-2424264D01*
X1493128Y-2410802D01*
X1488556Y-2401658D01*
X1479412Y-2392514D01*
X1429628Y-2362542D02*
G01*
X1474840Y-2362542D01*
X1488556Y-2357970D01*
X1493128Y-2348826D01*
X1493128Y-2335364D01*
X1488556Y-2326220D01*
X1474840Y-2312504D01*
X1429628Y-2312504D02*
G01*
X1493128Y-2312504D01*
X1397624Y-2282532D02*
G01*
X1402196Y-2277960D01*
X1397624Y-2273388D01*
X1393052Y-2277960D01*
X1397624Y-2282532D01*
X1429628Y-2277960D02*
G01*
X1493128Y-2277960D01*
X1429628Y-2243416D02*
G01*
X1493128Y-2243416D01*
X1447662Y-2243416D02*
G01*
X1433946Y-2229954D01*
X1429628Y-2220810D01*
X1429628Y-2207094D01*
X1433946Y-2197950D01*
X1447662Y-2193378D01*
X1493128Y-2193378D01*
X1429628Y-2140800D02*
G01*
X1433946Y-2149944D01*
X1443090Y-2158834D01*
X1456806Y-2163406D01*
X1465950Y-2163406D01*
X1479412Y-2158834D01*
X1488556Y-2149944D01*
X1493128Y-2140800D01*
X1493128Y-2127084D01*
X1488556Y-2117940D01*
X1479412Y-2109050D01*
X1465950Y-2104478D01*
X1456806Y-2104478D01*
X1443090Y-2109050D01*
X1433946Y-2117940D01*
X1429628Y-2127084D01*
X1429628Y-2140800D01*
X1397624Y-2004402D02*
G01*
X1493128Y-2004402D01*
X1397624Y-1940648D02*
G01*
X1493128Y-1940648D01*
X1443090Y-2004402D02*
G01*
X1443090Y-1940648D01*
X1456806Y-1910676D02*
G01*
X1456806Y-1856320D01*
X1447662Y-1856320D01*
X1438518Y-1860638D01*
X1433946Y-1865210D01*
X1429628Y-1874354D01*
X1429628Y-1888070D01*
X1433946Y-1897214D01*
X1443090Y-1906104D01*
X1456806Y-1910676D01*
X1465950Y-1910676D01*
X1479412Y-1906104D01*
X1488556Y-1897214D01*
X1493128Y-1888070D01*
X1493128Y-1874354D01*
X1488556Y-1865210D01*
X1479412Y-1856320D01*
X1429628Y-1771738D02*
G01*
X1493128Y-1771738D01*
X1443090Y-1771738D02*
G01*
X1433946Y-1780628D01*
X1429628Y-1789772D01*
X1429628Y-1803488D01*
X1433946Y-1812632D01*
X1443090Y-1821776D01*
X1456806Y-1826094D01*
X1465950Y-1826094D01*
X1479412Y-1821776D01*
X1488556Y-1812632D01*
X1493128Y-1803488D01*
X1493128Y-1789772D01*
X1488556Y-1780628D01*
X1479412Y-1771738D01*
X1397624Y-1687156D02*
G01*
X1493128Y-1687156D01*
X1443090Y-1687156D02*
G01*
X1433946Y-1696300D01*
X1429628Y-1705190D01*
X1429628Y-1718906D01*
X1433946Y-1728050D01*
X1443090Y-1737194D01*
X1456806Y-1741766D01*
X1465950Y-1741766D01*
X1479412Y-1737194D01*
X1488556Y-1728050D01*
X1493128Y-1718906D01*
X1493128Y-1705190D01*
X1488556Y-1696300D01*
X1479412Y-1687156D01*
X1456806Y-1657184D02*
G01*
X1456806Y-1602574D01*
X1447662Y-1602574D01*
X1438518Y-1607146D01*
X1433946Y-1611718D01*
X1429628Y-1620862D01*
X1429628Y-1634324D01*
X1433946Y-1643468D01*
X1443090Y-1652612D01*
X1456806Y-1657184D01*
X1465950Y-1657184D01*
X1479412Y-1652612D01*
X1488556Y-1643468D01*
X1493128Y-1634324D01*
X1493128Y-1620862D01*
X1488556Y-1611718D01*
X1479412Y-1602574D01*
X1429628Y-1572602D02*
G01*
X1493128Y-1572602D01*
X1456806Y-1572602D02*
G01*
X1443090Y-1568030D01*
X1433946Y-1558886D01*
X1429628Y-1549742D01*
X1429628Y-1536280D01*
X1443090Y-1456270D02*
G01*
X1433946Y-1460842D01*
X1429628Y-1474304D01*
X1429628Y-1488020D01*
X1433946Y-1501736D01*
X1443090Y-1506308D01*
X1452234Y-1501736D01*
X1456806Y-1492592D01*
X1461378Y-1469732D01*
X1465950Y-1460842D01*
X1474840Y-1456270D01*
X1479412Y-1456270D01*
X1488556Y-1460842D01*
X1493128Y-1474304D01*
X1493128Y-1488020D01*
X1488556Y-1501736D01*
X1479412Y-1506308D01*
X1397624Y-1356194D02*
G01*
X1493128Y-1356194D01*
X1397624Y-1356194D02*
G01*
X1397624Y-1315300D01*
X1402196Y-1301584D01*
X1406768Y-1297012D01*
X1415912Y-1292440D01*
X1425056Y-1292440D01*
X1433946Y-1297012D01*
X1438518Y-1301584D01*
X1443090Y-1315300D01*
X1443090Y-1356194D01*
X1443090Y-1324444D02*
G01*
X1493128Y-1292440D01*
X1397624Y-1253578D02*
G01*
X1397624Y-1203540D01*
X1433946Y-1230718D01*
X1433946Y-1217002D01*
X1438518Y-1208112D01*
X1443090Y-1203540D01*
X1456806Y-1198968D01*
X1465950Y-1198968D01*
X1479412Y-1203540D01*
X1488556Y-1212684D01*
X1493128Y-1226146D01*
X1493128Y-1239862D01*
X1488556Y-1253578D01*
X1483984Y-1257896D01*
X1474840Y-1262468D01*
X1599300Y-2616288D02*
G01*
X1694804Y-2616288D01*
X1599300Y-2616288D02*
G01*
X1599300Y-2575394D01*
X1603872Y-2561678D01*
X1608444Y-2557106D01*
X1617588Y-2552534D01*
X1626478Y-2552534D01*
X1635622Y-2557106D01*
X1640194Y-2561678D01*
X1644766Y-2575394D01*
X1644766Y-2616288D02*
G01*
X1644766Y-2575394D01*
X1649338Y-2561678D01*
X1653910Y-2557106D01*
X1662800Y-2552534D01*
X1676516Y-2552534D01*
X1685660Y-2557106D01*
X1690232Y-2561678D01*
X1694804Y-2575394D01*
X1694804Y-2616288D01*
X1599300Y-2522562D02*
G01*
X1694804Y-2522562D01*
X1694804Y-2522562D02*
G01*
X1694804Y-2467952D01*
X1599300Y-2437980D02*
G01*
X1694804Y-2437980D01*
X1599300Y-2437980D02*
G01*
X1599300Y-2406230D01*
X1603872Y-2392514D01*
X1613016Y-2383370D01*
X1621906Y-2379052D01*
X1635622Y-2374480D01*
X1658482Y-2374480D01*
X1671944Y-2379052D01*
X1681088Y-2383370D01*
X1690232Y-2392514D01*
X1694804Y-2406230D01*
X1694804Y-2437980D01*
X1621906Y-2276182D02*
G01*
X1613016Y-2280754D01*
X1603872Y-2289898D01*
X1599300Y-2299042D01*
X1599300Y-2317076D01*
X1603872Y-2326220D01*
X1613016Y-2335364D01*
X1621906Y-2339936D01*
X1635622Y-2344254D01*
X1658482Y-2344254D01*
X1671944Y-2339936D01*
X1681088Y-2335364D01*
X1690232Y-2326220D01*
X1694804Y-2317076D01*
X1694804Y-2299042D01*
X1690232Y-2289898D01*
X1681088Y-2280754D01*
X1671944Y-2276182D01*
X1631050Y-2176106D02*
G01*
X1694804Y-2176106D01*
X1649338Y-2176106D02*
G01*
X1635622Y-2162644D01*
X1631050Y-2153500D01*
X1631050Y-2139784D01*
X1635622Y-2130640D01*
X1649338Y-2126322D01*
X1694804Y-2126322D01*
X1649338Y-2126322D02*
G01*
X1635622Y-2112606D01*
X1631050Y-2103462D01*
X1631050Y-2089746D01*
X1635622Y-2080856D01*
X1649338Y-2076284D01*
X1694804Y-2076284D01*
X1631050Y-2023452D02*
G01*
X1635622Y-2032596D01*
X1644766Y-2041740D01*
X1658482Y-2046312D01*
X1667372Y-2046312D01*
X1681088Y-2041740D01*
X1690232Y-2032596D01*
X1694804Y-2023452D01*
X1694804Y-2009736D01*
X1690232Y-2000846D01*
X1681088Y-1991702D01*
X1667372Y-1987130D01*
X1658482Y-1987130D01*
X1644766Y-1991702D01*
X1635622Y-2000846D01*
X1631050Y-2009736D01*
X1631050Y-2023452D01*
X1599300Y-1943442D02*
G01*
X1676516Y-1943442D01*
X1690232Y-1938870D01*
X1694804Y-1929726D01*
X1694804Y-1920836D01*
X1631050Y-1957158D02*
G01*
X1631050Y-1925408D01*
X1631050Y-1868004D02*
G01*
X1635622Y-1877148D01*
X1644766Y-1886292D01*
X1658482Y-1890864D01*
X1667372Y-1890864D01*
X1681088Y-1886292D01*
X1690232Y-1877148D01*
X1694804Y-1868004D01*
X1694804Y-1854288D01*
X1690232Y-1845398D01*
X1681088Y-1836254D01*
X1667372Y-1831682D01*
X1658482Y-1831682D01*
X1644766Y-1836254D01*
X1635622Y-1845398D01*
X1631050Y-1854288D01*
X1631050Y-1868004D01*
X1631050Y-1801710D02*
G01*
X1694804Y-1801710D01*
X1658482Y-1801710D02*
G01*
X1644766Y-1797138D01*
X1635622Y-1787994D01*
X1631050Y-1778850D01*
X1631050Y-1765388D01*
X1581012Y-1633562D02*
G01*
X1590156Y-1642452D01*
X1603872Y-1651596D01*
X1621906Y-1660740D01*
X1644766Y-1665312D01*
X1662800Y-1665312D01*
X1685660Y-1660740D01*
X1703948Y-1651596D01*
X1717410Y-1642452D01*
X1726554Y-1633562D01*
X1599300Y-1594446D02*
G01*
X1599300Y-1544408D01*
X1635622Y-1571586D01*
X1635622Y-1558124D01*
X1640194Y-1548980D01*
X1644766Y-1544408D01*
X1658482Y-1539836D01*
X1667372Y-1539836D01*
X1681088Y-1544408D01*
X1690232Y-1553552D01*
X1694804Y-1567014D01*
X1694804Y-1580730D01*
X1690232Y-1594446D01*
X1685660Y-1599018D01*
X1676516Y-1603590D01*
X1599300Y-1473542D02*
G01*
X1694804Y-1509864D01*
X1599300Y-1473542D02*
G01*
X1694804Y-1437220D01*
X1662800Y-1496148D02*
G01*
X1662800Y-1450682D01*
X1631050Y-1406994D02*
G01*
X1694804Y-1406994D01*
X1649338Y-1406994D02*
G01*
X1635622Y-1393532D01*
X1631050Y-1384388D01*
X1631050Y-1370672D01*
X1635622Y-1361528D01*
X1649338Y-1357210D01*
X1694804Y-1357210D01*
X1649338Y-1357210D02*
G01*
X1635622Y-1343494D01*
X1631050Y-1334350D01*
X1631050Y-1320634D01*
X1635622Y-1311744D01*
X1649338Y-1307172D01*
X1694804Y-1307172D01*
X1631050Y-1277200D02*
G01*
X1726554Y-1277200D01*
X1644766Y-1277200D02*
G01*
X1635622Y-1268056D01*
X1631050Y-1258912D01*
X1631050Y-1245196D01*
X1635622Y-1236306D01*
X1644766Y-1227162D01*
X1658482Y-1222590D01*
X1667372Y-1222590D01*
X1681088Y-1227162D01*
X1690232Y-1236306D01*
X1694804Y-1245196D01*
X1694804Y-1258912D01*
X1690232Y-1268056D01*
X1681088Y-1277200D01*
X1644766Y-1142580D02*
G01*
X1635622Y-1147152D01*
X1631050Y-1160868D01*
X1631050Y-1174330D01*
X1635622Y-1188046D01*
X1644766Y-1192618D01*
X1653910Y-1188046D01*
X1658482Y-1178902D01*
X1662800Y-1156296D01*
X1667372Y-1147152D01*
X1676516Y-1142580D01*
X1681088Y-1142580D01*
X1690232Y-1147152D01*
X1694804Y-1160868D01*
X1694804Y-1174330D01*
X1690232Y-1188046D01*
X1681088Y-1192618D01*
X1631050Y-1042504D02*
G01*
X1694804Y-1042504D01*
X1649338Y-1042504D02*
G01*
X1635622Y-1029042D01*
X1631050Y-1019898D01*
X1631050Y-1006182D01*
X1635622Y-997038D01*
X1649338Y-992466D01*
X1694804Y-992466D01*
X1649338Y-992466D02*
G01*
X1635622Y-979004D01*
X1631050Y-969860D01*
X1631050Y-956144D01*
X1635622Y-947000D01*
X1649338Y-942682D01*
X1694804Y-942682D01*
X1631050Y-858100D02*
G01*
X1694804Y-858100D01*
X1644766Y-858100D02*
G01*
X1635622Y-866990D01*
X1631050Y-876134D01*
X1631050Y-889850D01*
X1635622Y-898994D01*
X1644766Y-908138D01*
X1658482Y-912456D01*
X1667372Y-912456D01*
X1681088Y-908138D01*
X1690232Y-898994D01*
X1694804Y-889850D01*
X1694804Y-876134D01*
X1690232Y-866990D01*
X1681088Y-858100D01*
X1631050Y-828128D02*
G01*
X1694804Y-778090D01*
X1631050Y-778090D02*
G01*
X1694804Y-828128D01*
X1581012Y-748118D02*
G01*
X1590156Y-738974D01*
X1603872Y-729830D01*
X1621906Y-720686D01*
X1644766Y-716114D01*
X1662800Y-716114D01*
X1685660Y-720686D01*
X1703948Y-729830D01*
X1717410Y-738974D01*
X1726554Y-748118D01*
X1800976Y-2616288D02*
G01*
X1896226Y-2616288D01*
X1800976Y-2616288D02*
G01*
X1800976Y-2557106D01*
X1846442Y-2616288D02*
G01*
X1846442Y-2579712D01*
X1896226Y-2616288D02*
G01*
X1896226Y-2557106D01*
X1832726Y-2527134D02*
G01*
X1896226Y-2527134D01*
X1851014Y-2527134D02*
G01*
X1837298Y-2513418D01*
X1832726Y-2504274D01*
X1832726Y-2490812D01*
X1837298Y-2481668D01*
X1851014Y-2477096D01*
X1896226Y-2477096D01*
X1846442Y-2392514D02*
G01*
X1837298Y-2401658D01*
X1832726Y-2410802D01*
X1832726Y-2424264D01*
X1837298Y-2433408D01*
X1846442Y-2442552D01*
X1859904Y-2447124D01*
X1869048Y-2447124D01*
X1882764Y-2442552D01*
X1891908Y-2433408D01*
X1896226Y-2424264D01*
X1896226Y-2410802D01*
X1891908Y-2401658D01*
X1882764Y-2392514D01*
X1832726Y-2339936D02*
G01*
X1837298Y-2348826D01*
X1846442Y-2357970D01*
X1859904Y-2362542D01*
X1869048Y-2362542D01*
X1882764Y-2357970D01*
X1891908Y-2348826D01*
X1896226Y-2339936D01*
X1896226Y-2326220D01*
X1891908Y-2317076D01*
X1882764Y-2307932D01*
X1869048Y-2303360D01*
X1859904Y-2303360D01*
X1846442Y-2307932D01*
X1837298Y-2317076D01*
X1832726Y-2326220D01*
X1832726Y-2339936D01*
X1800976Y-2219032D02*
G01*
X1896226Y-2219032D01*
X1846442Y-2219032D02*
G01*
X1837298Y-2227922D01*
X1832726Y-2237066D01*
X1832726Y-2250782D01*
X1837298Y-2259926D01*
X1846442Y-2268816D01*
X1859904Y-2273388D01*
X1869048Y-2273388D01*
X1882764Y-2268816D01*
X1891908Y-2259926D01*
X1896226Y-2250782D01*
X1896226Y-2237066D01*
X1891908Y-2227922D01*
X1882764Y-2219032D01*
X1859904Y-2188806D02*
G01*
X1859904Y-2134450D01*
X1851014Y-2134450D01*
X1841870Y-2139022D01*
X1837298Y-2143594D01*
X1832726Y-2152484D01*
X1832726Y-2166200D01*
X1837298Y-2175344D01*
X1846442Y-2184488D01*
X1859904Y-2188806D01*
X1869048Y-2188806D01*
X1882764Y-2184488D01*
X1891908Y-2175344D01*
X1896226Y-2166200D01*
X1896226Y-2152484D01*
X1891908Y-2143594D01*
X1882764Y-2134450D01*
X1832726Y-2104478D02*
G01*
X1896226Y-2104478D01*
X1859904Y-2104478D02*
G01*
X1846442Y-2099906D01*
X1837298Y-2090762D01*
X1832726Y-2081618D01*
X1832726Y-2067902D01*
X1782688Y-1956142D02*
G01*
X1928230Y-2037930D01*
X1800976Y-1926170D02*
G01*
X1896226Y-1926170D01*
X1800976Y-1862670D02*
G01*
X1896226Y-1862670D01*
X1846442Y-1926170D02*
G01*
X1846442Y-1862670D01*
X1832726Y-1778088D02*
G01*
X1896226Y-1778088D01*
X1846442Y-1778088D02*
G01*
X1837298Y-1787232D01*
X1832726Y-1796122D01*
X1832726Y-1809838D01*
X1837298Y-1818982D01*
X1846442Y-1828126D01*
X1859904Y-1832444D01*
X1869048Y-1832444D01*
X1882764Y-1828126D01*
X1891908Y-1818982D01*
X1896226Y-1809838D01*
X1896226Y-1796122D01*
X1891908Y-1787232D01*
X1882764Y-1778088D01*
X1800976Y-1748116D02*
G01*
X1896226Y-1748116D01*
X1800976Y-1717890D02*
G01*
X1896226Y-1717890D01*
X2025258Y-2547962D02*
G01*
X2016114Y-2552534D01*
X2006970Y-2561678D01*
X2002398Y-2570822D01*
X2002398Y-2588856D01*
X2006970Y-2598000D01*
X2016114Y-2607144D01*
X2025258Y-2611716D01*
X2038974Y-2616288D01*
X2061580Y-2616288D01*
X2075296Y-2611716D01*
X2084186Y-2607144D01*
X2093330Y-2598000D01*
X2097902Y-2588856D01*
X2097902Y-2570822D01*
X2093330Y-2561678D01*
X2084186Y-2552534D01*
X2075296Y-2547962D01*
X2034402Y-2517990D02*
G01*
X2079868Y-2517990D01*
X2093330Y-2513418D01*
X2097902Y-2504274D01*
X2097902Y-2490812D01*
X2093330Y-2481668D01*
X2079868Y-2467952D01*
X2034402Y-2467952D02*
G01*
X2097902Y-2467952D01*
X2034402Y-2437980D02*
G01*
X2097902Y-2437980D01*
X2061580Y-2437980D02*
G01*
X2047864Y-2433408D01*
X2038974Y-2424264D01*
X2034402Y-2415374D01*
X2034402Y-2401658D01*
X2034402Y-2371686D02*
G01*
X2097902Y-2371686D01*
X2061580Y-2371686D02*
G01*
X2047864Y-2367114D01*
X2038974Y-2357970D01*
X2034402Y-2348826D01*
X2034402Y-2335364D01*
X2061580Y-2305392D02*
G01*
X2061580Y-2250782D01*
X2052436Y-2250782D01*
X2043292Y-2255354D01*
X2038974Y-2259926D01*
X2034402Y-2268816D01*
X2034402Y-2282532D01*
X2038974Y-2291676D01*
X2047864Y-2300820D01*
X2061580Y-2305392D01*
X2070724Y-2305392D01*
X2084186Y-2300820D01*
X2093330Y-2291676D01*
X2097902Y-2282532D01*
X2097902Y-2268816D01*
X2093330Y-2259926D01*
X2084186Y-2250782D01*
X2034402Y-2220810D02*
G01*
X2097902Y-2220810D01*
X2052436Y-2220810D02*
G01*
X2038974Y-2207094D01*
X2034402Y-2197950D01*
X2034402Y-2184488D01*
X2038974Y-2175344D01*
X2052436Y-2170772D01*
X2097902Y-2170772D01*
X2002398Y-2127084D02*
G01*
X2079868Y-2127084D01*
X2093330Y-2122512D01*
X2097902Y-2113368D01*
X2097902Y-2104478D01*
X2034402Y-2140800D02*
G01*
X2034402Y-2109050D01*
X2016114Y-1940648D02*
G01*
X2006970Y-1949792D01*
X2002398Y-1963508D01*
X2002398Y-1981542D01*
X2006970Y-1995258D01*
X2016114Y-2004402D01*
X2025258Y-2004402D01*
X2034402Y-1999830D01*
X2038974Y-1995258D01*
X2043292Y-1986114D01*
X2052436Y-1958936D01*
X2057008Y-1949792D01*
X2061580Y-1945220D01*
X2070724Y-1940648D01*
X2084186Y-1940648D01*
X2093330Y-1949792D01*
X2097902Y-1963508D01*
X2097902Y-1981542D01*
X2093330Y-1995258D01*
X2084186Y-2004402D01*
X2061580Y-1910676D02*
G01*
X2061580Y-1856320D01*
X2052436Y-1856320D01*
X2043292Y-1860638D01*
X2038974Y-1865210D01*
X2034402Y-1874354D01*
X2034402Y-1888070D01*
X2038974Y-1897214D01*
X2047864Y-1906104D01*
X2061580Y-1910676D01*
X2070724Y-1910676D01*
X2084186Y-1906104D01*
X2093330Y-1897214D01*
X2097902Y-1888070D01*
X2097902Y-1874354D01*
X2093330Y-1865210D01*
X2084186Y-1856320D01*
X2034402Y-1826094D02*
G01*
X2097902Y-1826094D01*
X2052436Y-1826094D02*
G01*
X2038974Y-1812632D01*
X2034402Y-1803488D01*
X2034402Y-1789772D01*
X2038974Y-1780628D01*
X2052436Y-1776310D01*
X2097902Y-1776310D01*
X2047864Y-1696300D02*
G01*
X2038974Y-1700618D01*
X2034402Y-1714334D01*
X2034402Y-1728050D01*
X2038974Y-1741766D01*
X2047864Y-1746084D01*
X2057008Y-1741766D01*
X2061580Y-1732622D01*
X2066152Y-1709762D01*
X2070724Y-1700618D01*
X2079868Y-1696300D01*
X2084186Y-1696300D01*
X2093330Y-1700618D01*
X2097902Y-1714334D01*
X2097902Y-1728050D01*
X2093330Y-1741766D01*
X2084186Y-1746084D01*
X2061580Y-1666074D02*
G01*
X2061580Y-1611718D01*
X2052436Y-1611718D01*
X2043292Y-1616290D01*
X2038974Y-1620862D01*
X2034402Y-1629752D01*
X2034402Y-1643468D01*
X2038974Y-1652612D01*
X2047864Y-1661756D01*
X2061580Y-1666074D01*
X2070724Y-1666074D01*
X2084186Y-1661756D01*
X2093330Y-1652612D01*
X2097902Y-1643468D01*
X2097902Y-1629752D01*
X2093330Y-1620862D01*
X2084186Y-1611718D01*
X2002398Y-1511642D02*
G01*
X2097902Y-1511642D01*
X2034402Y-1481670D02*
G01*
X2097902Y-1481670D01*
X2052436Y-1481670D02*
G01*
X2038974Y-1467954D01*
X2034402Y-1458810D01*
X2034402Y-1445348D01*
X2038974Y-1436204D01*
X2052436Y-1431632D01*
X2097902Y-1431632D01*
X2002398Y-1401660D02*
G01*
X2097902Y-1401660D01*
X2002398Y-1371688D02*
G01*
X2006970Y-1367116D01*
X2002398Y-1362544D01*
X1997826Y-1367116D01*
X2002398Y-1371688D01*
X2034402Y-1367116D02*
G01*
X2097902Y-1367116D01*
X2034402Y-1332572D02*
G01*
X2097902Y-1332572D01*
X2052436Y-1332572D02*
G01*
X2038974Y-1318856D01*
X2034402Y-1309712D01*
X2034402Y-1296250D01*
X2038974Y-1287106D01*
X2052436Y-1282534D01*
X2097902Y-1282534D01*
X2061580Y-1252562D02*
G01*
X2061580Y-1197952D01*
X2052436Y-1197952D01*
X2043292Y-1202524D01*
X2038974Y-1207096D01*
X2034402Y-1216240D01*
X2034402Y-1229956D01*
X2038974Y-1238846D01*
X2047864Y-1247990D01*
X2061580Y-1252562D01*
X2070724Y-1252562D01*
X2084186Y-1247990D01*
X2093330Y-1238846D01*
X2097902Y-1229956D01*
X2097902Y-1216240D01*
X2093330Y-1207096D01*
X2084186Y-1197952D01*
X1090815Y-3048091D02*
G01*
X1236357Y-2992465D01*
X1090815Y-2937093D02*
G01*
X1236357Y-2992465D01*
X1090815Y-2877657D02*
G01*
X1090815Y-2801457D01*
X1146187Y-2842859D01*
X1146187Y-2822285D01*
X1153299Y-2808315D01*
X1160157Y-2801457D01*
X1180985Y-2794345D01*
X1194701Y-2794345D01*
X1215529Y-2801457D01*
X1229499Y-2815173D01*
X1236357Y-2836001D01*
X1236357Y-2856829D01*
X1229499Y-2877657D01*
X1222387Y-2884515D01*
X1208671Y-2891373D01*
X1201559Y-2741767D02*
G01*
X1208671Y-2748625D01*
X1215529Y-2741767D01*
X1208671Y-2734909D01*
X1201559Y-2741767D01*
X1125359Y-2682331D02*
G01*
X1118501Y-2682331D01*
X1104785Y-2675219D01*
X1097673Y-2668361D01*
X1090815Y-2654645D01*
X1090815Y-2626705D01*
X1097673Y-2612989D01*
X1104785Y-2606131D01*
X1118501Y-2599019D01*
X1132471Y-2599019D01*
X1146187Y-2606131D01*
X1167015Y-2619847D01*
X1236357Y-2689189D01*
X1236357Y-2592161D01*
X-2159000Y893450D02*
G01*
X-2159000Y817250D01*
X-2159000Y893450D02*
G01*
X-2126234Y893450D01*
X-2115312Y889894D01*
X-2111756Y886338D01*
X-2108200Y878972D01*
X-2108200Y868050D01*
X-2111756Y860684D01*
X-2115312Y857128D01*
X-2126234Y853572D01*
X-2159000Y853572D01*
X-2084070Y893450D02*
G01*
X-2084070Y838840D01*
X-2080514Y828172D01*
X-2073148Y820806D01*
X-2062225Y817250D01*
X-2055114Y817250D01*
X-2044192Y820806D01*
X-2036825Y828172D01*
X-2033270Y838840D01*
X-2033270Y893450D01*
X-2009140Y893450D02*
G01*
X-2009140Y817250D01*
X-2009140Y817250D02*
G01*
X-1965452Y817250D01*
X-1941575Y893450D02*
G01*
X-1941575Y817250D01*
X-1941575Y817250D02*
G01*
X-1897888Y817250D01*
X-2159000Y711840D02*
G01*
X-2159000Y635640D01*
X-2131314Y693806D02*
G01*
X-2131314Y697362D01*
X-2127757Y704728D01*
X-2124202Y708284D01*
X-2116836Y711840D01*
X-2102357Y711840D01*
X-2094992Y708284D01*
X-2091436Y704728D01*
X-2087625Y697362D01*
X-2087625Y689996D01*
X-2091436Y682884D01*
X-2098548Y671962D01*
X-2135124Y635640D01*
X-2084070Y635640D01*
X-2005584Y693806D02*
G01*
X-2009140Y700918D01*
X-2016505Y708284D01*
X-2023872Y711840D01*
X-2038350Y711840D01*
X-2045462Y708284D01*
X-2052828Y700918D01*
X-2056384Y693806D01*
X-2060194Y682884D01*
X-2060194Y664596D01*
X-2056384Y653674D01*
X-2052828Y646562D01*
X-2045462Y639196D01*
X-2038350Y635640D01*
X-2023872Y635640D01*
X-2016505Y639196D01*
X-2009140Y646562D01*
X-2005584Y653674D01*
X-3124301Y-2622169D02*
G01*
X-3080613Y-2736723D01*
X-3036925Y-2622169D02*
G01*
X-3080613Y-2736723D01*
X-2919069Y-2649347D02*
G01*
X-2924657Y-2638425D01*
X-2935579Y-2627503D01*
X-2946501Y-2622169D01*
X-2968091Y-2622169D01*
X-2979013Y-2627503D01*
X-2989935Y-2638425D01*
X-2995523Y-2649347D01*
X-3000857Y-2665857D01*
X-3000857Y-2693035D01*
X-2995523Y-2709291D01*
X-2989935Y-2720213D01*
X-2979013Y-2731135D01*
X-2968091Y-2736723D01*
X-2946501Y-2736723D01*
X-2935579Y-2731135D01*
X-2924657Y-2720213D01*
X-2919069Y-2709291D01*
X-2801213Y-2649347D02*
G01*
X-2806801Y-2638425D01*
X-2817723Y-2627503D01*
X-2828645Y-2622169D01*
X-2850489Y-2622169D01*
X-2861411Y-2627503D01*
X-2872079Y-2638425D01*
X-2877667Y-2649347D01*
X-2883001Y-2665857D01*
X-2883001Y-2693035D01*
X-2877667Y-2709291D01*
X-2872079Y-2720213D01*
X-2861411Y-2731135D01*
X-2850489Y-2736723D01*
X-2828645Y-2736723D01*
X-2817723Y-2731135D01*
X-2806801Y-2720213D01*
X-2801213Y-2709291D01*
D11*
X-3123067Y863511D02*
G01*
X-2980065Y863511D01*
X-3123067Y863511D02*
G01*
X-3123067Y952157D01*
X-3054995Y863511D02*
G01*
X-3054995Y918121D01*
X-3123067Y1038263D02*
G01*
X-3116463Y1024547D01*
X-3102747Y1010831D01*
X-3089031Y1003973D01*
X-3068711Y997115D01*
X-3034421Y997115D01*
X-3014101Y1003973D01*
X-3000385Y1010831D01*
X-2986923Y1024547D01*
X-2980065Y1038263D01*
X-2980065Y1065441D01*
X-2986923Y1079157D01*
X-3000385Y1092619D01*
X-3014101Y1099477D01*
X-3034421Y1106335D01*
X-3068711Y1106335D01*
X-3089031Y1099477D01*
X-3102747Y1092619D01*
X-3116463Y1079157D01*
X-3123067Y1065441D01*
X-3123067Y1038263D01*
X-3089031Y1253655D02*
G01*
X-3102747Y1246797D01*
X-3116463Y1233081D01*
X-3123067Y1219619D01*
X-3123067Y1192187D01*
X-3116463Y1178725D01*
X-3102747Y1165009D01*
X-3089031Y1158151D01*
X-3068711Y1151293D01*
X-3034421Y1151293D01*
X-3014101Y1158151D01*
X-3000385Y1165009D01*
X-2986923Y1178725D01*
X-2980065Y1192187D01*
X-2980065Y1219619D01*
X-2986923Y1233081D01*
X-3000385Y1246797D01*
X-3014101Y1253655D01*
D10*
X-2872115Y177711D02*
G01*
X-2729113Y177711D01*
X-2851795Y177711D02*
G01*
X-2865511Y191427D01*
X-2872115Y205143D01*
X-2872115Y225463D01*
X-2865511Y239179D01*
X-2851795Y252895D01*
X-2831221Y259499D01*
X-2817759Y259499D01*
X-2797185Y252895D01*
X-2783723Y239179D01*
X-2776865Y225463D01*
X-2776865Y205143D01*
X-2783723Y191427D01*
X-2797185Y177711D01*
X-2872115Y304711D02*
G01*
X-2776865Y304711D01*
X-2831221Y304711D02*
G01*
X-2851795Y311315D01*
X-2865511Y325031D01*
X-2872115Y338747D01*
X-2872115Y359067D01*
X-2872115Y438315D02*
G01*
X-2865511Y424599D01*
X-2851795Y410883D01*
X-2831221Y404279D01*
X-2817759Y404279D01*
X-2797185Y410883D01*
X-2783723Y424599D01*
X-2776865Y438315D01*
X-2776865Y458635D01*
X-2783723Y472351D01*
X-2797185Y486067D01*
X-2817759Y492925D01*
X-2831221Y492925D01*
X-2851795Y486067D01*
X-2865511Y472351D01*
X-2872115Y458635D01*
X-2872115Y438315D01*
X-2919867Y565061D02*
G01*
X-2913263Y571919D01*
X-2919867Y578777D01*
X-2926725Y571919D01*
X-2919867Y565061D01*
X-2872115Y571919D02*
G01*
X-2756291Y571919D01*
X-2735971Y565061D01*
X-2729113Y551345D01*
X-2729113Y537883D01*
X-2831221Y623735D02*
G01*
X-2831221Y705523D01*
X-2844937Y705523D01*
X-2858653Y698665D01*
X-2865511Y691807D01*
X-2872115Y678345D01*
X-2872115Y657771D01*
X-2865511Y644055D01*
X-2851795Y630593D01*
X-2831221Y623735D01*
X-2817759Y623735D01*
X-2797185Y630593D01*
X-2783723Y644055D01*
X-2776865Y657771D01*
X-2776865Y678345D01*
X-2783723Y691807D01*
X-2797185Y705523D01*
X-2851795Y832269D02*
G01*
X-2865511Y818807D01*
X-2872115Y805091D01*
X-2872115Y784517D01*
X-2865511Y771055D01*
X-2851795Y757339D01*
X-2831221Y750481D01*
X-2817759Y750481D01*
X-2797185Y757339D01*
X-2783723Y771055D01*
X-2776865Y784517D01*
X-2776865Y805091D01*
X-2783723Y818807D01*
X-2797185Y832269D01*
X-2919867Y897801D02*
G01*
X-2804043Y897801D01*
X-2783723Y904659D01*
X-2776865Y918375D01*
X-2776865Y931837D01*
X-2872115Y877227D02*
G01*
X-2872115Y924979D01*
X-3128147Y247815D02*
G01*
X-3141863Y234099D01*
X-3148467Y213779D01*
X-3148467Y186601D01*
X-3141863Y166027D01*
X-3128147Y152311D01*
X-3114431Y152311D01*
X-3100715Y159169D01*
X-3094111Y166027D01*
X-3087253Y179743D01*
X-3073537Y220637D01*
X-3066679Y234099D01*
X-3059821Y240957D01*
X-3046359Y247815D01*
X-3025785Y247815D01*
X-3012323Y234099D01*
X-3005465Y213779D01*
X-3005465Y186601D01*
X-3012323Y166027D01*
X-3025785Y152311D01*
X-3148467Y292773D02*
G01*
X-3141863Y299631D01*
X-3148467Y306489D01*
X-3155325Y299631D01*
X-3148467Y292773D01*
X-3100715Y299631D02*
G01*
X-3005465Y299631D01*
X-3100715Y351447D02*
G01*
X-3005465Y351447D01*
X-3073537Y351447D02*
G01*
X-3094111Y372021D01*
X-3100715Y385483D01*
X-3100715Y406057D01*
X-3094111Y419773D01*
X-3073537Y426377D01*
X-3005465Y426377D01*
X-3073537Y426377D02*
G01*
X-3094111Y446951D01*
X-3100715Y460667D01*
X-3100715Y480987D01*
X-3094111Y494703D01*
X-3073537Y501561D01*
X-3005465Y501561D01*
X-3100715Y546519D02*
G01*
X-2957713Y546519D01*
X-3080395Y546519D02*
G01*
X-3094111Y560235D01*
X-3100715Y573697D01*
X-3100715Y594271D01*
X-3094111Y607733D01*
X-3080395Y621449D01*
X-3059821Y628307D01*
X-3046359Y628307D01*
X-3025785Y621449D01*
X-3012323Y607733D01*
X-3005465Y594271D01*
X-3005465Y573697D01*
X-3012323Y560235D01*
X-3025785Y546519D01*
X-3148467Y673265D02*
G01*
X-3005465Y673265D01*
X-3059821Y718223D02*
G01*
X-3059821Y800011D01*
X-3073537Y800011D01*
X-3087253Y793407D01*
X-3094111Y786549D01*
X-3100715Y772833D01*
X-3100715Y752513D01*
X-3094111Y738797D01*
X-3080395Y725081D01*
X-3059821Y718223D01*
X-3046359Y718223D01*
X-3025785Y725081D01*
X-3012323Y738797D01*
X-3005465Y752513D01*
X-3005465Y772833D01*
X-3012323Y786549D01*
X-3025785Y800011D01*
X813371Y-1420098D02*
G01*
X794829Y-1438640D01*
X785431Y-1466326D01*
X785431Y-1503156D01*
X794829Y-1530842D01*
X813371Y-1549384D01*
X831659Y-1549384D01*
X850201Y-1540240D01*
X859345Y-1530842D01*
X868743Y-1512554D01*
X887031Y-1456928D01*
X896429Y-1438640D01*
X905573Y-1429242D01*
X924115Y-1420098D01*
X951801Y-1420098D01*
X970343Y-1438640D01*
X979487Y-1466326D01*
X979487Y-1503156D01*
X970343Y-1530842D01*
X951801Y-1549384D01*
X785431Y-1359138D02*
G01*
X979487Y-1359138D01*
X887031Y-1359138D02*
G01*
X859345Y-1331452D01*
X850201Y-1312910D01*
X850201Y-1285224D01*
X859345Y-1266682D01*
X887031Y-1257538D01*
X979487Y-1257538D01*
X785431Y-1196578D02*
G01*
X794829Y-1187434D01*
X785431Y-1178036D01*
X776287Y-1187434D01*
X785431Y-1196578D01*
X850201Y-1187434D02*
G01*
X979487Y-1187434D01*
X905573Y-1117076D02*
G01*
X905573Y-1006332D01*
X887031Y-1006332D01*
X868743Y-1015476D01*
X859345Y-1024874D01*
X850201Y-1043162D01*
X850201Y-1070848D01*
X859345Y-1089390D01*
X877887Y-1107932D01*
X905573Y-1117076D01*
X924115Y-1117076D01*
X951801Y-1107932D01*
X970343Y-1089390D01*
X979487Y-1070848D01*
X979487Y-1043162D01*
X970343Y-1024874D01*
X951801Y-1006332D01*
X785431Y-945372D02*
G01*
X979487Y-945372D01*
X785431Y-773668D02*
G01*
X979487Y-773668D01*
X877887Y-773668D02*
G01*
X859345Y-791956D01*
X850201Y-810498D01*
X850201Y-838184D01*
X859345Y-856726D01*
X877887Y-875268D01*
X905573Y-884412D01*
X924115Y-884412D01*
X951801Y-875268D01*
X970343Y-856726D01*
X979487Y-838184D01*
X979487Y-810498D01*
X970343Y-791956D01*
X951801Y-773668D01*
D12*
X785431Y-2133584D02*
G01*
X979487Y-2133584D01*
X785431Y-2133584D02*
G01*
X785431Y-2013442D01*
X877887Y-2133584D02*
G01*
X877887Y-2059670D01*
X785431Y-1897110D02*
G01*
X794829Y-1915652D01*
X813371Y-1934194D01*
X831659Y-1943338D01*
X859345Y-1952482D01*
X905573Y-1952482D01*
X933259Y-1943338D01*
X951801Y-1934194D01*
X970343Y-1915652D01*
X979487Y-1897110D01*
X979487Y-1860280D01*
X970343Y-1841738D01*
X951801Y-1823196D01*
X933259Y-1814052D01*
X905573Y-1804908D01*
X859345Y-1804908D01*
X831659Y-1814052D01*
X813371Y-1823196D01*
X794829Y-1841738D01*
X785431Y-1860280D01*
X785431Y-1897110D01*
X831659Y-1605264D02*
G01*
X813371Y-1614408D01*
X794829Y-1632950D01*
X785431Y-1651492D01*
X785431Y-1688322D01*
X794829Y-1706864D01*
X813371Y-1725406D01*
X831659Y-1734550D01*
X859345Y-1743948D01*
X905573Y-1743948D01*
X933259Y-1734550D01*
X951801Y-1725406D01*
X970343Y-1706864D01*
X979487Y-1688322D01*
X979487Y-1651492D01*
X970343Y-1632950D01*
X951801Y-1614408D01*
X933259Y-1605264D01*
D10*
X813295Y-2944098D02*
G01*
X794753Y-2962640D01*
X785609Y-2990326D01*
X785609Y-3027156D01*
X794753Y-3054842D01*
X813295Y-3073384D01*
X831837Y-3073384D01*
X850125Y-3064240D01*
X859523Y-3054842D01*
X868667Y-3036554D01*
X887209Y-2980928D01*
X896353Y-2962640D01*
X905497Y-2953242D01*
X924039Y-2944098D01*
X951725Y-2944098D01*
X970267Y-2962640D01*
X979411Y-2990326D01*
X979411Y-3027156D01*
X970267Y-3054842D01*
X951725Y-3073384D01*
X785609Y-2883138D02*
G01*
X794753Y-2873994D01*
X785609Y-2864596D01*
X776211Y-2873994D01*
X785609Y-2883138D01*
X850125Y-2873994D02*
G01*
X979411Y-2873994D01*
X850125Y-2803636D02*
G01*
X979411Y-2803636D01*
X887209Y-2803636D02*
G01*
X859523Y-2775950D01*
X850125Y-2757408D01*
X850125Y-2729722D01*
X859523Y-2711434D01*
X887209Y-2702036D01*
X979411Y-2702036D01*
X887209Y-2702036D02*
G01*
X859523Y-2674350D01*
X850125Y-2655808D01*
X850125Y-2628122D01*
X859523Y-2609834D01*
X887209Y-2600436D01*
X979411Y-2600436D01*
X850125Y-2539476D02*
G01*
X1044181Y-2539476D01*
X877811Y-2539476D02*
G01*
X859523Y-2521188D01*
X850125Y-2502646D01*
X850125Y-2474960D01*
X859523Y-2456418D01*
X877811Y-2437876D01*
X905497Y-2428732D01*
X924039Y-2428732D01*
X951725Y-2437876D01*
X970267Y-2456418D01*
X979411Y-2474960D01*
X979411Y-2502646D01*
X970267Y-2521188D01*
X951725Y-2539476D01*
X785609Y-2367772D02*
G01*
X979411Y-2367772D01*
X905497Y-2306812D02*
G01*
X905497Y-2196068D01*
X887209Y-2196068D01*
X868667Y-2205212D01*
X859523Y-2214356D01*
X850125Y-2232898D01*
X850125Y-2260584D01*
X859523Y-2279126D01*
X877811Y-2297668D01*
X905497Y-2306812D01*
X924039Y-2306812D01*
X951725Y-2297668D01*
X970267Y-2279126D01*
X979411Y-2260584D01*
X979411Y-2232898D01*
X970267Y-2214356D01*
X951725Y-2196068D01*
X-1299855Y1041326D02*
G01*
X-1223655Y1041326D01*
X-1299855Y1041326D02*
G01*
X-1223655Y1070536D01*
X-1299855Y1099492D02*
G01*
X-1223655Y1070536D01*
X-1299855Y1099492D02*
G01*
X-1223655Y1099492D01*
X-1299855Y1145466D02*
G01*
X-1296299Y1138100D01*
X-1288933Y1130734D01*
X-1281821Y1127178D01*
X-1270899Y1123622D01*
X-1252611Y1123622D01*
X-1241689Y1127178D01*
X-1234577Y1130734D01*
X-1227211Y1138100D01*
X-1223655Y1145466D01*
X-1223655Y1159944D01*
X-1227211Y1167310D01*
X-1234577Y1174422D01*
X-1241689Y1178232D01*
X-1252611Y1181788D01*
X-1270899Y1181788D01*
X-1281821Y1178232D01*
X-1288933Y1174422D01*
X-1296299Y1167310D01*
X-1299855Y1159944D01*
X-1299855Y1145466D01*
X-1288933Y1256718D02*
G01*
X-1296299Y1249352D01*
X-1299855Y1238430D01*
X-1299855Y1223952D01*
X-1296299Y1213030D01*
X-1288933Y1205664D01*
X-1281821Y1205664D01*
X-1274455Y1209474D01*
X-1270899Y1213030D01*
X-1267089Y1220396D01*
X-1259977Y1242240D01*
X-1256421Y1249352D01*
X-1252611Y1252908D01*
X-1245499Y1256718D01*
X-1234577Y1256718D01*
X-1227211Y1249352D01*
X-1223655Y1238430D01*
X-1223655Y1223952D01*
X-1227211Y1213030D01*
X-1234577Y1205664D01*
X-1299855Y1280594D02*
G01*
X-1223655Y1280594D01*
X-1553872Y1041496D02*
G01*
X-1477672Y1041496D01*
X-1553872Y1041496D02*
G01*
X-1477672Y1070452D01*
X-1553872Y1099662D02*
G01*
X-1477672Y1070452D01*
X-1553872Y1099662D02*
G01*
X-1477672Y1099662D01*
X-1553872Y1123538D02*
G01*
X-1477672Y1123538D01*
X-1542950Y1198468D02*
G01*
X-1550316Y1191102D01*
X-1553872Y1180434D01*
X-1553872Y1165702D01*
X-1550316Y1154780D01*
X-1542950Y1147668D01*
X-1535838Y1147668D01*
X-1528472Y1151224D01*
X-1524916Y1154780D01*
X-1521106Y1162146D01*
X-1513994Y1183990D01*
X-1510184Y1191102D01*
X-1506628Y1194912D01*
X-1499516Y1198468D01*
X-1488594Y1198468D01*
X-1481228Y1191102D01*
X-1477672Y1180434D01*
X-1477672Y1165702D01*
X-1481228Y1154780D01*
X-1488594Y1147668D01*
X-1553872Y1244442D02*
G01*
X-1550316Y1237076D01*
X-1542950Y1229710D01*
X-1535838Y1226154D01*
X-1524916Y1222598D01*
X-1506628Y1222598D01*
X-1495706Y1226154D01*
X-1488594Y1229710D01*
X-1481228Y1237076D01*
X-1477672Y1244442D01*
X-1477672Y1258920D01*
X-1481228Y1266032D01*
X-1488594Y1273398D01*
X-1495706Y1276954D01*
X-1506628Y1280764D01*
X-1524916Y1280764D01*
X-1535838Y1276954D01*
X-1542950Y1273398D01*
X-1550316Y1266032D01*
X-1553872Y1258920D01*
X-1553872Y1244442D01*
X-1796930Y1117605D02*
G01*
X-1804296Y1110493D01*
X-1807852Y1099571D01*
X-1807852Y1085093D01*
X-1804296Y1074171D01*
X-1796930Y1066805D01*
X-1789818Y1066805D01*
X-1782452Y1070361D01*
X-1778896Y1074171D01*
X-1775086Y1081283D01*
X-1767974Y1103127D01*
X-1764418Y1110493D01*
X-1760608Y1114049D01*
X-1753496Y1117605D01*
X-1742574Y1117605D01*
X-1735208Y1110493D01*
X-1731652Y1099571D01*
X-1731652Y1085093D01*
X-1735208Y1074171D01*
X-1742574Y1066805D01*
X-1789818Y1196345D02*
G01*
X-1796930Y1192535D01*
X-1804296Y1185423D01*
X-1807852Y1178057D01*
X-1807852Y1163579D01*
X-1804296Y1156213D01*
X-1796930Y1149101D01*
X-1789818Y1145291D01*
X-1778896Y1141735D01*
X-1760608Y1141735D01*
X-1749686Y1145291D01*
X-1742574Y1149101D01*
X-1735208Y1156213D01*
X-1731652Y1163579D01*
X-1731652Y1178057D01*
X-1735208Y1185423D01*
X-1742574Y1192535D01*
X-1749686Y1196345D01*
X-1807852Y1220221D02*
G01*
X-1731652Y1220221D01*
X-1807852Y1271275D02*
G01*
X-1757052Y1220221D01*
X-1775086Y1238509D02*
G01*
X-1731652Y1271275D01*
X-2562306Y1128963D02*
G01*
X-2569672Y1121597D01*
X-2573228Y1110675D01*
X-2573228Y1096197D01*
X-2569672Y1085275D01*
X-2562306Y1077909D01*
X-2555194Y1077909D01*
X-2547828Y1081719D01*
X-2544272Y1085275D01*
X-2540462Y1092641D01*
X-2533350Y1114485D01*
X-2529540Y1121597D01*
X-2525984Y1125407D01*
X-2518618Y1128963D01*
X-2507950Y1128963D01*
X-2500584Y1121597D01*
X-2497028Y1110675D01*
X-2497028Y1096197D01*
X-2500584Y1085275D01*
X-2507950Y1077909D01*
X-2573228Y1152839D02*
G01*
X-2497028Y1152839D01*
X-2573228Y1152839D02*
G01*
X-2573228Y1178493D01*
X-2569672Y1189415D01*
X-2562306Y1196527D01*
X-2555194Y1200083D01*
X-2544272Y1203893D01*
X-2525984Y1203893D01*
X-2515062Y1200083D01*
X-2507950Y1196527D01*
X-2500584Y1189415D01*
X-2497028Y1178493D01*
X-2497028Y1152839D01*
X-2573228Y1256979D02*
G01*
X-2497028Y1227769D01*
X-2573228Y1256979D02*
G01*
X-2497028Y1285935D01*
X-2522428Y1238691D02*
G01*
X-2522428Y1275013D01*
X1366977Y1168463D02*
G01*
X1443431Y1168463D01*
X1366977Y1143063D02*
G01*
X1366977Y1193863D01*
X1366977Y1217993D02*
G01*
X1443431Y1268793D01*
X1366977Y1268793D02*
G01*
X1443431Y1217993D01*
X1620989Y1143000D02*
G01*
X1697443Y1143000D01*
X1620989Y1143000D02*
G01*
X1620989Y1175765D01*
X1624799Y1186687D01*
X1628355Y1190243D01*
X1635721Y1193800D01*
X1642833Y1193800D01*
X1650199Y1190243D01*
X1653755Y1186687D01*
X1657565Y1175765D01*
X1657565Y1143000D01*
X1657565Y1168400D02*
G01*
X1697443Y1193800D01*
X1620989Y1217929D02*
G01*
X1697443Y1268729D01*
X1620989Y1268729D02*
G01*
X1697443Y1217929D01*
X304711Y614060D02*
G01*
X304711Y537860D01*
X304711Y614060D02*
G01*
X337477Y614060D01*
X348399Y610504D01*
X351955Y606948D01*
X355765Y599582D01*
X355765Y588660D01*
X351955Y581294D01*
X348399Y577738D01*
X337477Y574182D01*
X304711Y574182D01*
X379641Y614060D02*
G01*
X379641Y559450D01*
X383451Y548782D01*
X390563Y541416D01*
X401485Y537860D01*
X408851Y537860D01*
X419773Y541416D01*
X426885Y548782D01*
X430695Y559450D01*
X430695Y614060D01*
X454571Y614060D02*
G01*
X454571Y537860D01*
X454571Y537860D02*
G01*
X498259Y537860D01*
X522135Y614060D02*
G01*
X522135Y537860D01*
X522135Y537860D02*
G01*
X565823Y537860D01*
X645833Y614060D02*
G01*
X645833Y537860D01*
X645833Y614060D02*
G01*
X678599Y614060D01*
X689521Y610504D01*
X693077Y606948D01*
X696887Y599582D01*
X696887Y592216D01*
X693077Y585104D01*
X689521Y581294D01*
X678599Y577738D01*
X645833Y577738D02*
G01*
X678599Y577738D01*
X689521Y574182D01*
X693077Y570372D01*
X696887Y563260D01*
X696887Y552338D01*
X693077Y544972D01*
X689521Y541416D01*
X678599Y537860D01*
X645833Y537860D01*
X304863Y969685D02*
G01*
X304863Y893485D01*
X304863Y969685D02*
G01*
X337629Y969685D01*
X348297Y966129D01*
X352107Y962573D01*
X355663Y955207D01*
X355663Y944285D01*
X352107Y936919D01*
X348297Y933363D01*
X337629Y929807D01*
X304863Y929807D01*
X379793Y969685D02*
G01*
X379793Y915075D01*
X383349Y904153D01*
X390715Y897041D01*
X401637Y893485D01*
X408749Y893485D01*
X419671Y897041D01*
X427037Y904153D01*
X430593Y915075D01*
X430593Y969685D01*
X454723Y969685D02*
G01*
X454723Y893485D01*
X454723Y893485D02*
G01*
X498157Y893485D01*
X522287Y969685D02*
G01*
X522287Y893485D01*
X522287Y893485D02*
G01*
X565975Y893485D01*
X674941Y969685D02*
G01*
X645985Y893485D01*
X674941Y969685D02*
G01*
X704151Y893485D01*
X656907Y918885D02*
G01*
X693229Y918885D01*
X-2033904Y1109616D02*
G01*
X-2043049Y1105044D01*
X-2052193Y1095900D01*
X-2056765Y1086756D01*
X-2056765Y1068722D01*
X-2052193Y1059578D01*
X-2043049Y1050434D01*
X-2033904Y1045862D01*
X-2020443Y1041290D01*
X-1997582Y1041290D01*
X-1983867Y1045862D01*
X-1974977Y1050434D01*
X-1965832Y1059578D01*
X-1961261Y1068722D01*
X-1961261Y1086756D01*
X-1965832Y1095900D01*
X-1974977Y1105044D01*
X-1983867Y1109616D01*
X-1997582Y1109616D01*
X-1997582Y1086756D02*
G01*
X-1997582Y1109616D01*
X-2056765Y1139588D02*
G01*
X-1961261Y1139588D01*
X-2056765Y1139588D02*
G01*
X-1961261Y1203088D01*
X-2056765Y1203088D02*
G01*
X-1961261Y1203088D01*
X-2056765Y1233314D02*
G01*
X-1961261Y1233314D01*
X-2056765Y1233314D02*
G01*
X-2056765Y1265064D01*
X-2052193Y1278780D01*
X-2043049Y1287670D01*
X-2033904Y1292242D01*
X-2020443Y1296814D01*
X-1997582Y1296814D01*
X-1983867Y1292242D01*
X-1974977Y1287670D01*
X-1965832Y1278780D01*
X-1961261Y1265064D01*
X-1961261Y1233314D01*
X-896213Y-3043555D02*
G01*
X-932535Y-3043555D01*
X-936091Y-3076321D01*
X-932535Y-3072511D01*
X-921613Y-3068955D01*
X-910691Y-3068955D01*
X-899769Y-3072511D01*
X-892403Y-3079877D01*
X-888847Y-3090799D01*
X-888847Y-3097911D01*
X-892403Y-3108833D01*
X-899769Y-3116199D01*
X-910691Y-3119755D01*
X-921613Y-3119755D01*
X-932535Y-3116199D01*
X-936091Y-3112643D01*
X-939901Y-3105277D01*
X-864971Y-3043555D02*
G01*
X-835761Y-3119755D01*
X-806805Y-3043555D02*
G01*
X-835761Y-3119755D01*
X-566775Y-3046044D02*
G01*
X-571347Y-3036900D01*
X-580491Y-3027756D01*
X-589635Y-3023184D01*
X-607669Y-3023184D01*
X-616813Y-3027756D01*
X-625957Y-3036900D01*
X-630529Y-3046044D01*
X-635101Y-3059760D01*
X-635101Y-3082366D01*
X-630529Y-3096082D01*
X-625957Y-3105226D01*
X-616813Y-3114116D01*
X-607669Y-3118688D01*
X-589635Y-3118688D01*
X-580491Y-3114116D01*
X-571347Y-3105226D01*
X-566775Y-3096082D01*
X-566775Y-3082366D01*
X-589635Y-3082366D02*
G01*
X-566775Y-3082366D01*
X-536803Y-3023184D02*
G01*
X-536803Y-3118688D01*
X-536803Y-3023184D02*
G01*
X-473303Y-3118688D01*
X-473303Y-3023184D02*
G01*
X-473303Y-3118688D01*
X-443077Y-3023184D02*
G01*
X-443077Y-3118688D01*
X-443077Y-3023184D02*
G01*
X-411327Y-3023184D01*
X-397865Y-3027756D01*
X-388721Y-3036900D01*
X-384149Y-3046044D01*
X-379577Y-3059760D01*
X-379577Y-3082366D01*
X-384149Y-3096082D01*
X-388721Y-3105226D01*
X-397865Y-3114116D01*
X-411327Y-3118688D01*
X-443077Y-3118688D01*
X-203098Y-3043529D02*
G01*
X-174142Y-3119729D01*
X-144932Y-3043529D02*
G01*
X-174142Y-3119729D01*
X-121056Y-3043529D02*
G01*
X-121056Y-3119729D01*
X-96926Y-3043529D02*
G01*
X-96926Y-3119729D01*
X-96926Y-3043529D02*
G01*
X-46126Y-3119729D01*
X-46126Y-3043529D02*
G01*
X-46126Y-3119729D01*
X914311Y-280024D02*
G01*
X950887Y-375528D01*
X987209Y-280024D02*
G01*
X950887Y-375528D01*
X1017181Y-280024D02*
G01*
X1017181Y-375528D01*
X1017181Y-280024D02*
G01*
X1048931Y-280024D01*
X1062647Y-284596D01*
X1071791Y-293740D01*
X1076109Y-302884D01*
X1080681Y-316346D01*
X1080681Y-339206D01*
X1076109Y-352922D01*
X1071791Y-361812D01*
X1062647Y-370956D01*
X1048931Y-375528D01*
X1017181Y-375528D01*
X1110653Y-280024D02*
G01*
X1110653Y-375528D01*
X1110653Y-280024D02*
G01*
X1142657Y-280024D01*
X1156119Y-284596D01*
X1165263Y-293740D01*
X1169835Y-302884D01*
X1174407Y-316346D01*
X1174407Y-339206D01*
X1169835Y-352922D01*
X1165263Y-361812D01*
X1156119Y-370956D01*
X1142657Y-375528D01*
X1110653Y-375528D01*
X995845Y-8244D02*
G01*
X991273Y899D01*
X982129Y10043D01*
X972985Y14615D01*
X954951Y14615D01*
X945807Y10043D01*
X936663Y899D01*
X932091Y-8244D01*
X927519Y-21960D01*
X927519Y-44566D01*
X932091Y-58282D01*
X936663Y-67426D01*
X945807Y-76316D01*
X954951Y-80888D01*
X972985Y-80888D01*
X982129Y-76316D01*
X991273Y-67426D01*
X995845Y-58282D01*
X995845Y-44566D01*
X972985Y-44566D02*
G01*
X995845Y-44566D01*
X1025817Y14615D02*
G01*
X1025817Y-80888D01*
X1025817Y14615D02*
G01*
X1089317Y-80888D01*
X1089317Y14615D02*
G01*
X1089317Y-80888D01*
X1119543Y14615D02*
G01*
X1119543Y-80888D01*
X1119543Y14615D02*
G01*
X1151293Y14615D01*
X1164755Y10043D01*
X1173899Y899D01*
X1178471Y-8244D01*
X1183043Y-21960D01*
X1183043Y-44566D01*
X1178471Y-58282D01*
X1173899Y-67426D01*
X1164755Y-76316D01*
X1151293Y-80888D01*
X1119543Y-80888D01*
X937679Y524393D02*
G01*
X937679Y429143D01*
X937679Y524393D02*
G01*
X978573Y524393D01*
X992035Y520075D01*
X996607Y515503D01*
X1001179Y506359D01*
X1001179Y497215D01*
X996607Y488071D01*
X992035Y483499D01*
X978573Y479181D01*
X937679Y479181D02*
G01*
X978573Y479181D01*
X992035Y474609D01*
X996607Y470037D01*
X1001179Y460893D01*
X1001179Y447177D01*
X996607Y438033D01*
X992035Y433715D01*
X978573Y429143D01*
X937679Y429143D01*
X1112939Y542681D02*
G01*
X1031151Y397139D01*
X1143165Y524393D02*
G01*
X1179487Y429143D01*
X1215809Y524393D02*
G01*
X1179487Y429143D01*
X968921Y794395D02*
G01*
X932599Y699145D01*
X968921Y794395D02*
G01*
X1005243Y699145D01*
X946315Y730895D02*
G01*
X991781Y730895D01*
X1117257Y812683D02*
G01*
X1035215Y667141D01*
X1147229Y794395D02*
G01*
X1147229Y726323D01*
X1151801Y712607D01*
X1160691Y703717D01*
X1174407Y699145D01*
X1183551Y699145D01*
X1197267Y703717D01*
X1206157Y712607D01*
X1210729Y726323D01*
X1210729Y794395D01*
X947585Y279537D02*
G01*
X947585Y184033D01*
X1059345Y297571D02*
G01*
X977557Y152283D01*
X1089317Y279537D02*
G01*
X1112177Y184033D01*
X1134783Y279537D02*
G01*
X1112177Y184033D01*
X1134783Y279537D02*
G01*
X1157643Y184033D01*
X1180249Y279537D02*
G01*
X1157643Y184033D01*
X-2356472Y-2649357D02*
G01*
X-2362060Y-2638435D01*
X-2372982Y-2627513D01*
X-2383904Y-2622179D01*
X-2405748Y-2622179D01*
X-2416670Y-2627513D01*
X-2427592Y-2638435D01*
X-2432926Y-2649357D01*
X-2438514Y-2665867D01*
X-2438514Y-2693045D01*
X-2432926Y-2709301D01*
X-2427592Y-2720223D01*
X-2416670Y-2731145D01*
X-2405748Y-2736733D01*
X-2383904Y-2736733D01*
X-2372982Y-2731145D01*
X-2362060Y-2720223D01*
X-2356472Y-2709301D01*
X-2356472Y-2693045D01*
X-2383904Y-2693045D02*
G01*
X-2356472Y-2693045D01*
X-2320658Y-2622179D02*
G01*
X-2320658Y-2736733D01*
X-2320658Y-2622179D02*
G01*
X-2244204Y-2736733D01*
X-2244204Y-2622179D02*
G01*
X-2244204Y-2736733D01*
X-2208136Y-2622179D02*
G01*
X-2208136Y-2736733D01*
X-2208136Y-2622179D02*
G01*
X-2170036Y-2622179D01*
X-2153780Y-2627513D01*
X-2142858Y-2638435D01*
X-2137270Y-2649357D01*
X-2131936Y-2665867D01*
X-2131936Y-2693045D01*
X-2137270Y-2709301D01*
X-2142858Y-2720223D01*
X-2153780Y-2731145D01*
X-2170036Y-2736733D01*
X-2208136Y-2736733D01*
X-3210394Y-3341740D02*
G01*
X-3210394Y-3423528D01*
X-3251288Y-3382634D02*
G01*
X-3169500Y-3382634D01*
X-1262722Y-3043544D02*
G01*
X-1222844Y-3043544D01*
X-1244434Y-3072500D01*
X-1233512Y-3072500D01*
X-1226400Y-3076310D01*
X-1222844Y-3079866D01*
X-1219034Y-3090788D01*
X-1219034Y-3097900D01*
X-1222844Y-3108822D01*
X-1229956Y-3116188D01*
X-1240878Y-3119744D01*
X-1251800Y-3119744D01*
X-1262722Y-3116188D01*
X-1266278Y-3112632D01*
X-1270088Y-3105266D01*
X-1191348Y-3101710D02*
G01*
X-1195158Y-3105266D01*
X-1191348Y-3108822D01*
X-1187792Y-3105266D01*
X-1191348Y-3101710D01*
X-1156550Y-3043544D02*
G01*
X-1116418Y-3043544D01*
X-1138262Y-3072500D01*
X-1127340Y-3072500D01*
X-1120228Y-3076310D01*
X-1116418Y-3079866D01*
X-1112862Y-3090788D01*
X-1112862Y-3097900D01*
X-1116418Y-3108822D01*
X-1123784Y-3116188D01*
X-1134706Y-3119744D01*
X-1145628Y-3119744D01*
X-1156550Y-3116188D01*
X-1160106Y-3112632D01*
X-1163916Y-3105266D01*
X-1088986Y-3043544D02*
G01*
X-1059776Y-3119744D01*
X-1030820Y-3043544D02*
G01*
X-1059776Y-3119744D01*
X-3098888Y-1651624D02*
G01*
X-3098888Y-1747128D01*
X-3098888Y-1651624D02*
G01*
X-3057994Y-1651624D01*
X-3044278Y-1656196D01*
X-3039706Y-1660768D01*
X-3035134Y-1669912D01*
X-3035134Y-1683628D01*
X-3039706Y-1692518D01*
X-3044278Y-1697090D01*
X-3057994Y-1701662D01*
X-3098888Y-1701662D01*
X-2977984Y-1651624D02*
G01*
X-2986874Y-1656196D01*
X-2996018Y-1665340D01*
X-3000590Y-1674484D01*
X-3005162Y-1687946D01*
X-3005162Y-1710806D01*
X-3000590Y-1724522D01*
X-2996018Y-1733412D01*
X-2986874Y-1742556D01*
X-2977984Y-1747128D01*
X-2959696Y-1747128D01*
X-2950552Y-1742556D01*
X-2941408Y-1733412D01*
X-2937090Y-1724522D01*
X-2932518Y-1710806D01*
X-2932518Y-1687946D01*
X-2937090Y-1674484D01*
X-2941408Y-1665340D01*
X-2950552Y-1656196D01*
X-2959696Y-1651624D01*
X-2977984Y-1651624D01*
X-2902546Y-1651624D02*
G01*
X-2879686Y-1747128D01*
X-2857080Y-1651624D02*
G01*
X-2879686Y-1747128D01*
X-2857080Y-1651624D02*
G01*
X-2834220Y-1747128D01*
X-2811614Y-1651624D02*
G01*
X-2834220Y-1747128D01*
X-2781642Y-1651624D02*
G01*
X-2781642Y-1747128D01*
X-2781642Y-1651624D02*
G01*
X-2722460Y-1651624D01*
X-2781642Y-1697090D02*
G01*
X-2745066Y-1697090D01*
X-2781642Y-1747128D02*
G01*
X-2722460Y-1747128D01*
X-2692488Y-1651624D02*
G01*
X-2692488Y-1747128D01*
X-2692488Y-1651624D02*
G01*
X-2651594Y-1651624D01*
X-2637878Y-1656196D01*
X-2633306Y-1660768D01*
X-2628734Y-1669912D01*
X-2628734Y-1679056D01*
X-2633306Y-1687946D01*
X-2637878Y-1692518D01*
X-2651594Y-1697090D01*
X-2692488Y-1697090D01*
X-2660738Y-1697090D02*
G01*
X-2628734Y-1747128D01*
X356234Y-1397101D02*
G01*
X451738Y-1397101D01*
X356234Y-1397101D02*
G01*
X356234Y-1337919D01*
X401700Y-1397101D02*
G01*
X401700Y-1360525D01*
X356234Y-1271625D02*
G01*
X451738Y-1307947D01*
X356234Y-1271625D02*
G01*
X451738Y-1235303D01*
X419988Y-1294231D02*
G01*
X419988Y-1248765D01*
X356234Y-1205077D02*
G01*
X451738Y-1205077D01*
X451738Y-1205077D02*
G01*
X451738Y-1150721D01*
X356234Y-1120749D02*
G01*
X424560Y-1120749D01*
X438023Y-1116177D01*
X447167Y-1107033D01*
X451738Y-1093317D01*
X451738Y-1084173D01*
X447167Y-1070711D01*
X438023Y-1061567D01*
X424560Y-1056995D01*
X356234Y-1056995D01*
X356234Y-995273D02*
G01*
X451738Y-995273D01*
X356234Y-1027023D02*
G01*
X356234Y-963269D01*
X304711Y258455D02*
G01*
X304711Y182255D01*
X304711Y258455D02*
G01*
X337477Y258455D01*
X348399Y254899D01*
X351955Y251343D01*
X355765Y243977D01*
X355765Y233055D01*
X351955Y225689D01*
X348399Y222133D01*
X337477Y218577D01*
X304711Y218577D01*
X379641Y258455D02*
G01*
X379641Y204099D01*
X383451Y193177D01*
X390563Y185811D01*
X401485Y182255D01*
X408851Y182255D01*
X419773Y185811D01*
X426885Y193177D01*
X430695Y204099D01*
X430695Y258455D01*
X454571Y258455D02*
G01*
X454571Y182255D01*
X454571Y182255D02*
G01*
X498259Y182255D01*
X522135Y258455D02*
G01*
X522135Y182255D01*
X522135Y182255D02*
G01*
X565823Y182255D01*
X645833Y258455D02*
G01*
X645833Y182255D01*
X-2759798Y-2388732D02*
G01*
X-2780372Y-2395336D01*
X-2787230Y-2409052D01*
X-2787230Y-2422768D01*
X-2780372Y-2436484D01*
X-2766656Y-2443088D01*
X-2739478Y-2449946D01*
X-2718904Y-2456804D01*
X-2705442Y-2470520D01*
X-2698584Y-2483982D01*
X-2698584Y-2504556D01*
X-2705442Y-2518272D01*
X-2712300Y-2524876D01*
X-2732620Y-2531734D01*
X-2759798Y-2531734D01*
X-2780372Y-2524876D01*
X-2787230Y-2518272D01*
X-2794088Y-2504556D01*
X-2794088Y-2483982D01*
X-2787230Y-2470520D01*
X-2773514Y-2456804D01*
X-2753194Y-2449946D01*
X-2725762Y-2443088D01*
X-2712300Y-2436484D01*
X-2705442Y-2422768D01*
X-2705442Y-2409052D01*
X-2712300Y-2395336D01*
X-2732620Y-2388732D01*
X-2759798Y-2388732D01*
X-2653626Y-2470520D02*
G01*
X-2530944Y-2470520D01*
X-2472270Y-2388732D02*
G01*
X-2397086Y-2388732D01*
X-2437980Y-2443088D01*
X-2417660Y-2443088D01*
X-2403944Y-2449946D01*
X-2397086Y-2456804D01*
X-2390482Y-2477378D01*
X-2390482Y-2490840D01*
X-2397086Y-2511414D01*
X-2410802Y-2524876D01*
X-2431376Y-2531734D01*
X-2451696Y-2531734D01*
X-2472270Y-2524876D01*
X-2478874Y-2518272D01*
X-2485732Y-2504556D01*
X-2263482Y-2388732D02*
G01*
X-2331808Y-2388732D01*
X-2338666Y-2449946D01*
X-2331808Y-2443088D01*
X-2311234Y-2436484D01*
X-2290914Y-2436484D01*
X-2270340Y-2443088D01*
X-2256624Y-2456804D01*
X-2250020Y-2477378D01*
X-2250020Y-2490840D01*
X-2256624Y-2511414D01*
X-2270340Y-2524876D01*
X-2290914Y-2531734D01*
X-2311234Y-2531734D01*
X-2331808Y-2524876D01*
X-2338666Y-2518272D01*
X-2345270Y-2504556D01*
X-2204808Y-2388732D02*
G01*
X-2150452Y-2531734D01*
X-2095842Y-2388732D02*
G01*
X-2150452Y-2531734D01*
X-2565488Y-2134732D02*
G01*
X-2565488Y-2277734D01*
X-2520276Y-2182484D02*
G01*
X-2520276Y-2277734D01*
X-2520276Y-2209662D02*
G01*
X-2499956Y-2189088D01*
X-2486240Y-2182484D01*
X-2465920Y-2182484D01*
X-2452204Y-2189088D01*
X-2445346Y-2209662D01*
X-2445346Y-2277734D01*
X-2400388Y-2182484D02*
G01*
X-2400388Y-2325486D01*
X-2400388Y-2202804D02*
G01*
X-2386672Y-2189088D01*
X-2373210Y-2182484D01*
X-2352636Y-2182484D01*
X-2338920Y-2189088D01*
X-2325458Y-2202804D01*
X-2318600Y-2223378D01*
X-2318600Y-2236840D01*
X-2325458Y-2257414D01*
X-2338920Y-2270876D01*
X-2352636Y-2277734D01*
X-2373210Y-2277734D01*
X-2386672Y-2270876D01*
X-2400388Y-2257414D01*
X-2273642Y-2182484D02*
G01*
X-2273642Y-2250556D01*
X-2266784Y-2270876D01*
X-2253068Y-2277734D01*
X-2232748Y-2277734D01*
X-2219032Y-2270876D01*
X-2198458Y-2250556D01*
X-2198458Y-2182484D02*
G01*
X-2198458Y-2277734D01*
X-2133180Y-2134732D02*
G01*
X-2133180Y-2250556D01*
X-2126322Y-2270876D01*
X-2112606Y-2277734D01*
X-2099144Y-2277734D01*
X-2153500Y-2182484D02*
G01*
X-2105748Y-2182484D01*
X1550047Y-431891D02*
G01*
X1645551Y-431891D01*
X1550047Y-431891D02*
G01*
X1550047Y-390997D01*
X1554619Y-377281D01*
X1559191Y-372709D01*
X1568335Y-368137D01*
X1581797Y-368137D01*
X1590941Y-372709D01*
X1595513Y-377281D01*
X1600085Y-390997D01*
X1600085Y-431891D01*
X1677301Y-338165D02*
G01*
X1677301Y-256377D01*
X1550047Y-226405D02*
G01*
X1645551Y-226405D01*
X1550047Y-226405D02*
G01*
X1550047Y-167223D01*
X1595513Y-226405D02*
G01*
X1595513Y-190083D01*
X1645551Y-226405D02*
G01*
X1645551Y-167223D01*
X1550047Y-137251D02*
G01*
X1645551Y-137251D01*
X1550047Y-137251D02*
G01*
X1645551Y-73497D01*
X1550047Y-73497D02*
G01*
X1645551Y-73497D01*
X1572907Y24546D02*
G01*
X1563763Y19974D01*
X1554619Y10830D01*
X1550047Y1940D01*
X1550047Y-16347D01*
X1554619Y-25491D01*
X1563763Y-34635D01*
X1572907Y-38953D01*
X1586369Y-43525D01*
X1609229Y-43525D01*
X1622945Y-38953D01*
X1631835Y-34635D01*
X1640979Y-25491D01*
X1645551Y-16347D01*
X1645551Y1940D01*
X1640979Y10830D01*
X1631835Y19974D01*
X1622945Y24546D01*
X-1139278Y-1334378D02*
G01*
X-1142834Y-1327266D01*
X-1150200Y-1319900D01*
X-1157312Y-1316344D01*
X-1172044Y-1316344D01*
X-1179156Y-1319900D01*
X-1186522Y-1327266D01*
X-1190078Y-1334378D01*
X-1193888Y-1345300D01*
X-1193888Y-1363588D01*
X-1190078Y-1374510D01*
X-1186522Y-1381622D01*
X-1179156Y-1388988D01*
X-1172044Y-1392544D01*
X-1157312Y-1392544D01*
X-1150200Y-1388988D01*
X-1142834Y-1381622D01*
X-1139278Y-1374510D01*
X-1115148Y-1316344D02*
G01*
X-1115148Y-1392544D01*
X-1115148Y-1316344D02*
G01*
X-1082636Y-1316344D01*
X-1071714Y-1319900D01*
X-1067904Y-1323456D01*
X-1064348Y-1330822D01*
X-1064348Y-1338188D01*
X-1067904Y-1345300D01*
X-1071714Y-1349110D01*
X-1082636Y-1352666D01*
X-1115148Y-1352666D02*
G01*
X-1082636Y-1352666D01*
X-1071714Y-1356222D01*
X-1067904Y-1359778D01*
X-1064348Y-1367144D01*
X-1064348Y-1378066D01*
X-1067904Y-1385432D01*
X-1071714Y-1388988D01*
X-1082636Y-1392544D01*
X-1115148Y-1392544D01*
X-1040218Y-1316344D02*
G01*
X-1011262Y-1352666D01*
X-1011262Y-1392544D01*
X-982052Y-1316344D02*
G01*
X-1011262Y-1352666D01*
X-958176Y-1316344D02*
G01*
X-958176Y-1392544D01*
X-958176Y-1316344D02*
G01*
X-925410Y-1316344D01*
X-914488Y-1319900D01*
X-910932Y-1323456D01*
X-907122Y-1330822D01*
X-907122Y-1341744D01*
X-910932Y-1349110D01*
X-914488Y-1352666D01*
X-925410Y-1356222D01*
X-958176Y-1356222D01*
X-883246Y-1330822D02*
G01*
X-875880Y-1327266D01*
X-864958Y-1316344D01*
X-864958Y-1392544D01*
X-1139278Y-1512178D02*
G01*
X-1142834Y-1505066D01*
X-1150200Y-1497700D01*
X-1157312Y-1494144D01*
X-1172044Y-1494144D01*
X-1179156Y-1497700D01*
X-1186522Y-1505066D01*
X-1190078Y-1512178D01*
X-1193888Y-1523100D01*
X-1193888Y-1541388D01*
X-1190078Y-1552310D01*
X-1186522Y-1559422D01*
X-1179156Y-1566788D01*
X-1172044Y-1570344D01*
X-1157312Y-1570344D01*
X-1150200Y-1566788D01*
X-1142834Y-1559422D01*
X-1139278Y-1552310D01*
X-1115148Y-1494144D02*
G01*
X-1115148Y-1570344D01*
X-1115148Y-1494144D02*
G01*
X-1082636Y-1494144D01*
X-1071714Y-1497700D01*
X-1067904Y-1501256D01*
X-1064348Y-1508622D01*
X-1064348Y-1515988D01*
X-1067904Y-1523100D01*
X-1071714Y-1526910D01*
X-1082636Y-1530466D01*
X-1115148Y-1530466D02*
G01*
X-1082636Y-1530466D01*
X-1071714Y-1534022D01*
X-1067904Y-1537578D01*
X-1064348Y-1544944D01*
X-1064348Y-1555866D01*
X-1067904Y-1563232D01*
X-1071714Y-1566788D01*
X-1082636Y-1570344D01*
X-1115148Y-1570344D01*
X-1040218Y-1494144D02*
G01*
X-1011262Y-1530466D01*
X-1011262Y-1570344D01*
X-982052Y-1494144D02*
G01*
X-1011262Y-1530466D01*
X-958176Y-1494144D02*
G01*
X-958176Y-1570344D01*
X-958176Y-1494144D02*
G01*
X-925410Y-1494144D01*
X-914488Y-1497700D01*
X-910932Y-1501256D01*
X-907122Y-1508622D01*
X-907122Y-1519544D01*
X-910932Y-1526910D01*
X-914488Y-1530466D01*
X-925410Y-1534022D01*
X-958176Y-1534022D01*
X-879690Y-1512178D02*
G01*
X-879690Y-1508622D01*
X-875880Y-1501256D01*
X-872324Y-1497700D01*
X-864958Y-1494144D01*
X-850480Y-1494144D01*
X-843368Y-1497700D01*
X-839558Y-1501256D01*
X-836002Y-1508622D01*
X-836002Y-1515988D01*
X-839558Y-1523100D01*
X-846924Y-1534022D01*
X-883246Y-1570344D01*
X-832446Y-1570344D01*
X-1662798Y-1977481D02*
G01*
X-1669910Y-1981037D01*
X-1677276Y-1988403D01*
X-1680832Y-1995515D01*
X-1680832Y-2010247D01*
X-1677276Y-2017359D01*
X-1669910Y-2024725D01*
X-1662798Y-2028281D01*
X-1651876Y-2032091D01*
X-1633588Y-2032091D01*
X-1622666Y-2028281D01*
X-1615554Y-2024725D01*
X-1608188Y-2017359D01*
X-1604632Y-2010247D01*
X-1604632Y-1995515D01*
X-1608188Y-1988403D01*
X-1615554Y-1981037D01*
X-1622666Y-1977481D01*
X-1680832Y-1953351D02*
G01*
X-1604632Y-1953351D01*
X-1680832Y-1953351D02*
G01*
X-1680832Y-1906107D01*
X-1644510Y-1953351D02*
G01*
X-1644510Y-1924395D01*
X-1666354Y-1882231D02*
G01*
X-1669910Y-1874865D01*
X-1680832Y-1863943D01*
X-1604632Y-1863943D01*
X-1637398Y-1113881D02*
G01*
X-1644510Y-1117437D01*
X-1651876Y-1124803D01*
X-1655432Y-1131915D01*
X-1655432Y-1146647D01*
X-1651876Y-1153759D01*
X-1644510Y-1161125D01*
X-1637398Y-1164681D01*
X-1626476Y-1168491D01*
X-1608188Y-1168491D01*
X-1597266Y-1164681D01*
X-1590154Y-1161125D01*
X-1582788Y-1153759D01*
X-1579232Y-1146647D01*
X-1579232Y-1131915D01*
X-1582788Y-1124803D01*
X-1590154Y-1117437D01*
X-1597266Y-1113881D01*
X-1655432Y-1089751D02*
G01*
X-1579232Y-1089751D01*
X-1655432Y-1089751D02*
G01*
X-1655432Y-1042507D01*
X-1619110Y-1089751D02*
G01*
X-1619110Y-1060795D01*
X-1637398Y-1014821D02*
G01*
X-1640954Y-1014821D01*
X-1648320Y-1011265D01*
X-1651876Y-1007709D01*
X-1655432Y-1000343D01*
X-1655432Y-985865D01*
X-1651876Y-978499D01*
X-1648320Y-974943D01*
X-1640954Y-971387D01*
X-1633588Y-971387D01*
X-1626476Y-974943D01*
X-1615554Y-982309D01*
X-1579232Y-1018631D01*
X-1579232Y-967577D01*
X-1040980Y-2618602D02*
G01*
X-1044536Y-2611236D01*
X-1051902Y-2604124D01*
X-1059268Y-2600314D01*
X-1073746Y-2600314D01*
X-1081112Y-2604124D01*
X-1088224Y-2611236D01*
X-1091780Y-2618602D01*
X-1095590Y-2629524D01*
X-1095590Y-2647812D01*
X-1091780Y-2658734D01*
X-1088224Y-2665846D01*
X-1081112Y-2673212D01*
X-1073746Y-2676768D01*
X-1059268Y-2676768D01*
X-1051902Y-2673212D01*
X-1044536Y-2665846D01*
X-1040980Y-2658734D01*
X-1017104Y-2600314D02*
G01*
X-1017104Y-2676768D01*
X-1017104Y-2676768D02*
G01*
X-973416Y-2676768D01*
X-949286Y-2615046D02*
G01*
X-942174Y-2611236D01*
X-931252Y-2600314D01*
X-931252Y-2676768D01*
X-2925432Y-2235291D02*
G01*
X-2849232Y-2235291D01*
X-2925432Y-2235291D02*
G01*
X-2925432Y-2202525D01*
X-2921876Y-2191603D01*
X-2918320Y-2187793D01*
X-2910954Y-2184237D01*
X-2903588Y-2184237D01*
X-2896476Y-2187793D01*
X-2892666Y-2191603D01*
X-2889110Y-2202525D01*
X-2889110Y-2235291D01*
X-2889110Y-2209637D02*
G01*
X-2849232Y-2184237D01*
X-2910954Y-2160361D02*
G01*
X-2914510Y-2152995D01*
X-2925432Y-2142073D01*
X-2849232Y-2142073D01*
X-425538Y130439D02*
G01*
X-425538Y54239D01*
X-425538Y130439D02*
G01*
X-392772Y130439D01*
X-381850Y126883D01*
X-378294Y123327D01*
X-374738Y115961D01*
X-374738Y108849D01*
X-378294Y101483D01*
X-381850Y97927D01*
X-392772Y94117D01*
X-425538Y94117D01*
X-400138Y94117D02*
G01*
X-374738Y54239D01*
X-347052Y112405D02*
G01*
X-347052Y115961D01*
X-343496Y123327D01*
X-339686Y126883D01*
X-332574Y130439D01*
X-317842Y130439D01*
X-310730Y126883D01*
X-306920Y123327D01*
X-303364Y115961D01*
X-303364Y108849D01*
X-306920Y101483D01*
X-314286Y90561D01*
X-350608Y54239D01*
X-299808Y54239D01*
D13*
X-369633Y-1054496D02*
G01*
X-293433Y-1054496D01*
X-369633Y-1054496D02*
G01*
X-369633Y-1021984D01*
X-366077Y-1011062D01*
X-362521Y-1007252D01*
X-355155Y-1003696D01*
X-347789Y-1003696D01*
X-340677Y-1007252D01*
X-336867Y-1011062D01*
X-333311Y-1021984D01*
X-333311Y-1054496D01*
X-333311Y-1029096D02*
G01*
X-293433Y-1003696D01*
X-369633Y-936132D02*
G01*
X-369633Y-972454D01*
X-336867Y-976010D01*
X-340677Y-972454D01*
X-344233Y-961532D01*
X-344233Y-950610D01*
X-340677Y-939688D01*
X-333311Y-932322D01*
X-322389Y-928766D01*
X-315277Y-928766D01*
X-304355Y-932322D01*
X-296989Y-939688D01*
X-293433Y-950610D01*
X-293433Y-961532D01*
X-296989Y-972454D01*
X-300545Y-976010D01*
X-307911Y-979566D01*
X-201383Y-1067755D02*
G01*
X-125183Y-1067755D01*
X-201383Y-1067755D02*
G01*
X-201383Y-1034989D01*
X-197827Y-1024067D01*
X-194271Y-1020511D01*
X-186905Y-1016955D01*
X-179793Y-1016955D01*
X-172427Y-1020511D01*
X-168871Y-1024067D01*
X-165061Y-1034989D01*
X-165061Y-1067755D01*
X-165061Y-1042355D02*
G01*
X-125183Y-1016955D01*
X-190461Y-949137D02*
G01*
X-197827Y-952947D01*
X-201383Y-963869D01*
X-201383Y-970981D01*
X-197827Y-981903D01*
X-186905Y-989269D01*
X-168871Y-992825D01*
X-150583Y-992825D01*
X-136105Y-989269D01*
X-128739Y-981903D01*
X-125183Y-970981D01*
X-125183Y-967425D01*
X-128739Y-956503D01*
X-136105Y-949137D01*
X-147027Y-945581D01*
X-150583Y-945581D01*
X-161505Y-949137D01*
X-168871Y-956503D01*
X-172427Y-967425D01*
X-172427Y-970981D01*
X-168871Y-981903D01*
X-161505Y-989269D01*
X-150583Y-992825D01*
D10*
X-198208Y-2129398D02*
G01*
X-198208Y-2205852D01*
X-198208Y-2205852D02*
G01*
X-154520Y-2205852D01*
X-130644Y-2143876D02*
G01*
X-123278Y-2140320D01*
X-112356Y-2129398D01*
X-112356Y-2205852D01*
X-2722412Y-1930438D02*
G01*
X-2645958Y-1930438D01*
X-2722412Y-1930438D02*
G01*
X-2722412Y-1905038D01*
X-2718602Y-1894116D01*
X-2711490Y-1886750D01*
X-2704124Y-1883194D01*
X-2693202Y-1879384D01*
X-2675168Y-1879384D01*
X-2664246Y-1883194D01*
X-2656880Y-1886750D01*
X-2649514Y-1894116D01*
X-2645958Y-1905038D01*
X-2645958Y-1930438D01*
X-2707680Y-1855508D02*
G01*
X-2711490Y-1848142D01*
X-2722412Y-1837220D01*
X-2645958Y-1837220D01*
X-1164691Y367410D02*
G01*
X-1168247Y374523D01*
X-1175613Y381888D01*
X-1182725Y385444D01*
X-1197457Y385444D01*
X-1204569Y381888D01*
X-1211935Y374523D01*
X-1215491Y367410D01*
X-1219301Y356488D01*
X-1219301Y338200D01*
X-1215491Y327278D01*
X-1211935Y320166D01*
X-1204569Y312800D01*
X-1197457Y309244D01*
X-1182725Y309244D01*
X-1175613Y312800D01*
X-1168247Y320166D01*
X-1164691Y327278D01*
X-1122527Y385444D02*
G01*
X-1133449Y381888D01*
X-1137005Y374523D01*
X-1137005Y367410D01*
X-1133449Y360044D01*
X-1126083Y356488D01*
X-1111605Y352678D01*
X-1100683Y349123D01*
X-1093317Y342010D01*
X-1089761Y334644D01*
X-1089761Y323723D01*
X-1093317Y316356D01*
X-1097127Y312800D01*
X-1108049Y309244D01*
X-1122527Y309244D01*
X-1133449Y312800D01*
X-1137005Y316356D01*
X-1140561Y323723D01*
X-1140561Y334644D01*
X-1137005Y342010D01*
X-1129639Y349123D01*
X-1118717Y352678D01*
X-1104239Y356488D01*
X-1097127Y360044D01*
X-1093317Y367410D01*
X-1093317Y374523D01*
X-1097127Y381888D01*
X-1108049Y385444D01*
X-1122527Y385444D01*
X-1418678Y367421D02*
G01*
X-1422234Y374533D01*
X-1429600Y381899D01*
X-1436712Y385455D01*
X-1451444Y385455D01*
X-1458556Y381899D01*
X-1465922Y374533D01*
X-1469478Y367421D01*
X-1473288Y356499D01*
X-1473288Y338211D01*
X-1469478Y327289D01*
X-1465922Y320177D01*
X-1458556Y312811D01*
X-1451444Y309255D01*
X-1436712Y309255D01*
X-1429600Y312811D01*
X-1422234Y320177D01*
X-1418678Y327289D01*
X-1343748Y385455D02*
G01*
X-1380070Y309255D01*
X-1394548Y385455D02*
G01*
X-1343748Y385455D01*
D13*
X-773818Y-1367856D02*
G01*
X-780930Y-1371412D01*
X-788296Y-1378778D01*
X-791852Y-1386144D01*
X-791852Y-1400622D01*
X-788296Y-1407734D01*
X-780930Y-1415100D01*
X-773818Y-1418656D01*
X-762896Y-1422466D01*
X-744608Y-1422466D01*
X-733686Y-1418656D01*
X-726574Y-1415100D01*
X-719208Y-1407734D01*
X-715652Y-1400622D01*
X-715652Y-1386144D01*
X-719208Y-1378778D01*
X-726574Y-1371412D01*
X-733686Y-1367856D01*
X-791852Y-1300292D02*
G01*
X-791852Y-1336614D01*
X-759086Y-1340170D01*
X-762896Y-1336614D01*
X-766452Y-1325692D01*
X-766452Y-1314770D01*
X-762896Y-1303848D01*
X-755530Y-1296482D01*
X-744608Y-1292926D01*
X-737496Y-1292926D01*
X-726574Y-1296482D01*
X-719208Y-1303848D01*
X-715652Y-1314770D01*
X-715652Y-1325692D01*
X-719208Y-1336614D01*
X-722764Y-1340170D01*
X-730130Y-1343726D01*
X-2256891Y-343763D02*
G01*
X-2260447Y-336651D01*
X-2267813Y-329285D01*
X-2274925Y-325729D01*
X-2289657Y-325729D01*
X-2296769Y-329285D01*
X-2304135Y-336651D01*
X-2307691Y-343763D01*
X-2311501Y-354685D01*
X-2311501Y-372973D01*
X-2307691Y-383895D01*
X-2304135Y-391007D01*
X-2296769Y-398373D01*
X-2289657Y-401929D01*
X-2274925Y-401929D01*
X-2267813Y-398373D01*
X-2260447Y-391007D01*
X-2256891Y-383895D01*
X-2181961Y-336651D02*
G01*
X-2189327Y-329285D01*
X-2200249Y-325729D01*
X-2214727Y-325729D01*
X-2225649Y-329285D01*
X-2232761Y-336651D01*
X-2232761Y-343763D01*
X-2229205Y-351129D01*
X-2225649Y-354685D01*
X-2218283Y-358495D01*
X-2196439Y-365607D01*
X-2189327Y-369417D01*
X-2185517Y-372973D01*
X-2181961Y-380339D01*
X-2181961Y-391007D01*
X-2189327Y-398373D01*
X-2200249Y-401929D01*
X-2214727Y-401929D01*
X-2225649Y-398373D01*
X-2232761Y-391007D01*
X-2154275Y-343763D02*
G01*
X-2154275Y-340207D01*
X-2150719Y-332841D01*
X-2147163Y-329285D01*
X-2139797Y-325729D01*
X-2125319Y-325729D01*
X-2117953Y-329285D01*
X-2114397Y-332841D01*
X-2110587Y-340207D01*
X-2110587Y-347573D01*
X-2114397Y-354685D01*
X-2121509Y-365607D01*
X-2157831Y-401929D01*
X-2107031Y-401929D01*
X-2256866Y-1181989D02*
G01*
X-2260422Y-1174876D01*
X-2267788Y-1167511D01*
X-2275154Y-1163955D01*
X-2289632Y-1163955D01*
X-2296744Y-1167511D01*
X-2304110Y-1174876D01*
X-2307666Y-1181989D01*
X-2311476Y-1192911D01*
X-2311476Y-1211199D01*
X-2307666Y-1222121D01*
X-2304110Y-1229233D01*
X-2296744Y-1236599D01*
X-2289632Y-1240155D01*
X-2275154Y-1240155D01*
X-2267788Y-1236599D01*
X-2260422Y-1229233D01*
X-2256866Y-1222121D01*
X-2181936Y-1174876D02*
G01*
X-2189302Y-1167511D01*
X-2200224Y-1163955D01*
X-2214702Y-1163955D01*
X-2225624Y-1167511D01*
X-2232736Y-1174876D01*
X-2232736Y-1181989D01*
X-2229180Y-1189355D01*
X-2225624Y-1192911D01*
X-2218258Y-1196721D01*
X-2196414Y-1203833D01*
X-2189302Y-1207389D01*
X-2185492Y-1211199D01*
X-2181936Y-1218311D01*
X-2181936Y-1229233D01*
X-2189302Y-1236599D01*
X-2200224Y-1240155D01*
X-2214702Y-1240155D01*
X-2225624Y-1236599D01*
X-2232736Y-1229233D01*
X-2158060Y-1178433D02*
G01*
X-2150694Y-1174876D01*
X-2139772Y-1163955D01*
X-2139772Y-1240155D01*
D10*
X-1193888Y24775D02*
G01*
X-1193888Y-70728D01*
X-1193888Y24775D02*
G01*
X-1161884Y24775D01*
X-1148422Y20203D01*
X-1139278Y11059D01*
X-1134706Y1915D01*
X-1130134Y-11546D01*
X-1130134Y-34406D01*
X-1134706Y-48122D01*
X-1139278Y-57012D01*
X-1148422Y-66156D01*
X-1161884Y-70728D01*
X-1193888Y-70728D01*
X-1100162Y24775D02*
G01*
X-1100162Y-70728D01*
X-1100162Y24775D02*
G01*
X-1059268Y24775D01*
X-1045552Y20203D01*
X-1040980Y15631D01*
X-1036408Y6487D01*
X-1036408Y-2656D01*
X-1040980Y-11546D01*
X-1045552Y-16118D01*
X-1059268Y-20690D01*
X-1100162Y-20690D01*
X-1068412Y-20690D02*
G01*
X-1036408Y-70728D01*
X-1006436Y24775D02*
G01*
X-970114Y-70728D01*
X-933792Y24775D02*
G01*
X-970114Y-70728D01*
X-880960Y24775D02*
G01*
X-894676Y20203D01*
X-899248Y11059D01*
X-899248Y1915D01*
X-894676Y-7228D01*
X-885532Y-11546D01*
X-867498Y-16118D01*
X-853782Y-20690D01*
X-844638Y-29834D01*
X-840066Y-38978D01*
X-840066Y-52440D01*
X-844638Y-61584D01*
X-849210Y-66156D01*
X-862926Y-70728D01*
X-880960Y-70728D01*
X-894676Y-66156D01*
X-899248Y-61584D01*
X-903820Y-52440D01*
X-903820Y-38978D01*
X-899248Y-29834D01*
X-890104Y-20690D01*
X-876642Y-16118D01*
X-858354Y-11546D01*
X-849210Y-7228D01*
X-844638Y1915D01*
X-844638Y11059D01*
X-849210Y20203D01*
X-862926Y24775D01*
X-880960Y24775D01*
X-800950Y24775D02*
G01*
X-751166Y24775D01*
X-778344Y-11546D01*
X-764628Y-11546D01*
X-755738Y-16118D01*
X-751166Y-20690D01*
X-746594Y-34406D01*
X-746594Y-43550D01*
X-751166Y-57012D01*
X-760056Y-66156D01*
X-773772Y-70728D01*
X-787488Y-70728D01*
X-800950Y-66156D01*
X-805522Y-61584D01*
X-810094Y-52440D01*
X-716622Y6487D02*
G01*
X-707478Y11059D01*
X-693762Y24775D01*
X-693762Y-70728D01*
X-654646Y24775D02*
G01*
X-604608Y24775D01*
X-632040Y-11546D01*
X-618324Y-11546D01*
X-609180Y-16118D01*
X-604608Y-20690D01*
X-600290Y-34406D01*
X-600290Y-43550D01*
X-604608Y-57012D01*
X-613752Y-66156D01*
X-627468Y-70728D01*
X-641184Y-70728D01*
X-654646Y-66156D01*
X-659218Y-61584D01*
X-663790Y-52440D01*
D13*
X-29832Y-1066891D02*
G01*
X46367Y-1066891D01*
X-29832Y-1066891D02*
G01*
X-29832Y-1034125D01*
X-26276Y-1023203D01*
X-22720Y-1019393D01*
X-15354Y-1015837D01*
X-7988Y-1015837D01*
X-876Y-1019393D01*
X2933Y-1023203D01*
X6489Y-1034125D01*
X6489Y-1066891D01*
X6489Y-1041237D02*
G01*
X46367Y-1015837D01*
X-29832Y-984595D02*
G01*
X-29832Y-944717D01*
X-876Y-966307D01*
X-876Y-955639D01*
X2933Y-948273D01*
X6489Y-944717D01*
X17411Y-940907D01*
X24523Y-940907D01*
X35445Y-944717D01*
X42811Y-951829D01*
X46367Y-962751D01*
X46367Y-973673D01*
X42811Y-984595D01*
X39255Y-988151D01*
X31889Y-991961D01*
D10*
X173344Y-1016088D02*
G01*
X249544Y-1016088D01*
X173344Y-1016088D02*
G01*
X173344Y-990434D01*
X176900Y-979512D01*
X184266Y-972400D01*
X191378Y-968844D01*
X202300Y-965034D01*
X220588Y-965034D01*
X231510Y-968844D01*
X238622Y-972400D01*
X245988Y-979512D01*
X249544Y-990434D01*
X249544Y-1016088D01*
X191378Y-937348D02*
G01*
X187822Y-937348D01*
X180456Y-933792D01*
X176900Y-930236D01*
X173344Y-922870D01*
X173344Y-908392D01*
X176900Y-901026D01*
X180456Y-897470D01*
X187822Y-893914D01*
X195188Y-893914D01*
X202300Y-897470D01*
X213222Y-904836D01*
X249544Y-941158D01*
X249544Y-890104D01*
G36*
X-2957423Y-1843582D02*
G01*
X-2958388Y-1915617D01*
X-2932430Y-1879600D01*
G37*
G36*
X-1812696Y-2847187D02*
G01*
X-1812696Y-2926384D01*
X-1792884Y-2926384D01*
X-1792884Y-2847187D01*
G37*
G36*
X-1812696Y-2306015D02*
G01*
X-1812696Y-2385212D01*
X-1792884Y-2385212D01*
X-1792884Y-2306015D01*
G37*
G36*
X-1868779Y-2335682D02*
G01*
X-1868779Y-2355494D01*
X-1736801Y-2355494D01*
X-1736801Y-2335682D01*
G37*
G36*
X203200Y-1230630D02*
G01*
X167182Y-1255623D01*
X239166Y-1256588D01*
G37*
X1498511Y-457316D02*
G01*
X1498511Y622183D01*
X1498511Y553839D02*
G01*
X1244511Y553839D01*
X1498511Y622183D02*
G01*
X1498511Y812683D01*
X1244511Y812683D01*
X1244511Y-457316D01*
X1498511Y-457316D01*
D14*
X474332Y721222D02*
G01*
X570219Y721222D01*
X570219Y853343D01*
X474332Y853343D01*
X389089Y721222D02*
G01*
X293202Y721222D01*
X293202Y853343D01*
X389089Y853343D01*
X474332Y340222D02*
G01*
X570219Y340222D01*
X570219Y472343D01*
X474332Y472343D01*
X389089Y340222D02*
G01*
X293202Y340222D01*
X293202Y472343D01*
X389089Y472343D01*
X474332Y-15377D02*
G01*
X570219Y-15377D01*
X570219Y116743D01*
X474332Y116743D01*
X389089Y-15377D02*
G01*
X293202Y-15377D01*
X293202Y116743D01*
X389089Y116743D01*
D10*
X-1510690Y-1386293D02*
G01*
X-1510690Y-1306291D01*
X-1399715Y-1417279D02*
G01*
X-1479712Y-1417279D01*
X-1399715Y-1275313D02*
G01*
X-1479712Y-1275313D01*
X-1342125Y-1417861D02*
G01*
X-1262126Y-1417861D01*
X-1231143Y-1386878D02*
G01*
X-1231143Y-1306880D01*
X-1342125Y-1275900D02*
G01*
X-1262126Y-1275900D01*
X-1510690Y-1564093D02*
G01*
X-1510690Y-1484091D01*
X-1399715Y-1595079D02*
G01*
X-1479712Y-1595079D01*
X-1399715Y-1453113D02*
G01*
X-1479712Y-1453113D01*
X-1342125Y-1595661D02*
G01*
X-1262126Y-1595661D01*
X-1231143Y-1564678D02*
G01*
X-1231143Y-1484680D01*
X-1342125Y-1453700D02*
G01*
X-1262126Y-1453700D01*
X-1715287Y-1890539D02*
G01*
X-1715287Y-1970542D01*
X-1826262Y-1859554D02*
G01*
X-1746265Y-1859554D01*
X-1826262Y-2001520D02*
G01*
X-1746265Y-2001520D01*
X-1883851Y-1858972D02*
G01*
X-1963851Y-1858972D01*
X-1994834Y-1889955D02*
G01*
X-1994834Y-1969952D01*
X-1883851Y-2000933D02*
G01*
X-1963851Y-2000933D01*
X-1689887Y-1026939D02*
G01*
X-1689887Y-1106942D01*
X-1800862Y-995954D02*
G01*
X-1720865Y-995954D01*
X-1800862Y-1137920D02*
G01*
X-1720865Y-1137920D01*
X-1858451Y-995372D02*
G01*
X-1938451Y-995372D01*
X-1969434Y-1026355D02*
G01*
X-1969434Y-1106352D01*
X-1858451Y-1137333D02*
G01*
X-1938451Y-1137333D01*
X-1104290Y-2834093D02*
G01*
X-1104290Y-2754091D01*
X-993315Y-2865079D02*
G01*
X-1073312Y-2865079D01*
X-993315Y-2723113D02*
G01*
X-1073312Y-2723113D01*
X-935725Y-2865661D02*
G01*
X-855726Y-2865661D01*
X-824743Y-2834678D02*
G01*
X-824743Y-2754680D01*
X-935725Y-2723700D02*
G01*
X-855726Y-2723700D01*
D14*
X-3088749Y-2227138D02*
G01*
X-3088749Y-2323025D01*
X-2956628Y-2323025D01*
X-2956628Y-2227138D01*
X-3088749Y-2141895D02*
G01*
X-3088749Y-2046008D01*
X-2956628Y-2046008D01*
X-2956628Y-2141895D01*
X-322110Y15143D02*
G01*
X-417997Y15143D01*
X-417997Y-116977D01*
X-322110Y-116977D01*
X-236867Y15143D02*
G01*
X-140980Y15143D01*
X-140980Y-116977D01*
X-236867Y-116977D01*
X-289628Y-1202095D02*
G01*
X-289628Y-1106208D01*
X-421749Y-1106208D01*
X-421749Y-1202095D01*
X-289628Y-1287338D02*
G01*
X-289628Y-1383225D01*
X-421749Y-1383225D01*
X-421749Y-1287338D01*
X-111828Y-1202095D02*
G01*
X-111828Y-1106208D01*
X-243949Y-1106208D01*
X-243949Y-1202095D01*
X-111828Y-1287338D02*
G01*
X-111828Y-1383225D01*
X-243949Y-1383225D01*
X-243949Y-1287338D01*
X-2245339Y804621D02*
G01*
X-2245339Y900508D01*
X-2377460Y900508D01*
X-2377460Y804621D01*
X-2245339Y719378D02*
G01*
X-2245339Y623491D01*
X-2377460Y623491D01*
X-2377460Y719378D01*
X-2448539Y804621D02*
G01*
X-2448539Y900508D01*
X-2580660Y900508D01*
X-2580660Y804621D01*
X-2448539Y719378D02*
G01*
X-2448539Y623491D01*
X-2580660Y623491D01*
X-2580660Y719378D01*
D10*
X-2056996Y-3205403D02*
G01*
X24998Y-3205403D01*
X24996Y-3205403D02*
G01*
X24998Y-3449396D01*
X24998Y-3449396D02*
G01*
X-2056996Y-3449396D01*
X-2056996Y-3449396D02*
G01*
X-2056998Y-3205403D01*
D15*
X444500Y-3200400D02*
G01*
X254000Y-3200400D01*
X254000Y-3454400D01*
X1778000Y-3454400D01*
X1778000Y-3200400D01*
D16*
X1778000Y-3200400D02*
G01*
X444500Y-3200400D01*
D15*
X-2730500Y1600200D02*
G01*
X-2921000Y1600200D01*
X-2921000Y1346200D01*
X-381000Y1346200D01*
X-381000Y1600200D01*
D16*
X-381000Y1600200D02*
G01*
X-2730500Y1600200D01*
D10*
X-278996Y1595196D02*
G01*
X1802998Y1595196D01*
X1802996Y1595196D02*
G01*
X1802998Y1351203D01*
X1802998Y1351203D02*
G01*
X-278996Y1351203D01*
X-278996Y1351203D02*
G01*
X-278998Y1595196D01*
D14*
X-425025Y-2231440D02*
G01*
X-425025Y-2900680D01*
X171716Y-2900680D02*
G01*
X-425025Y-2900680D01*
X171716Y-2231440D02*
G01*
X-425025Y-2231440D01*
D17*
X-2909399Y-1806600D02*
G01*
X-2794401Y-1806600D01*
X-2794401Y-1951598D01*
X-2914401Y-1951598D01*
X-2976399Y-1952599D02*
G01*
X-3100400Y-1952599D01*
X-3100400Y-1807601D01*
X-2976399Y-1807601D01*
X-2794401Y-1806600D02*
G01*
X-2791399Y-1806600D01*
X-2771399Y-1826600D01*
X-2771399Y-1928599D01*
X-2774401Y-1931598D01*
X-2794401Y-1951598D01*
D10*
X-1256601Y163222D02*
G01*
X-1256601Y243225D01*
X-1145626Y132237D02*
G01*
X-1225623Y132237D01*
X-1145626Y274203D02*
G01*
X-1225623Y274203D01*
X-1088036Y131655D02*
G01*
X-1008037Y131655D01*
X-977054Y162638D02*
G01*
X-977054Y242636D01*
X-1088036Y273616D02*
G01*
X-1008037Y273616D01*
X-1283398Y243177D02*
G01*
X-1283398Y163174D01*
X-1394373Y274162D02*
G01*
X-1314376Y274162D01*
X-1394373Y132196D02*
G01*
X-1314376Y132196D01*
X-1451963Y274744D02*
G01*
X-1531962Y274744D01*
X-1562945Y243761D02*
G01*
X-1562945Y163763D01*
X-1451963Y132783D02*
G01*
X-1531962Y132783D01*
D14*
X-1724926Y-2951761D02*
G01*
X-1988566Y-2953766D01*
X-1988566Y-2418080D01*
X-1849120Y-2278634D01*
X-1719579Y-2279970D01*
X-1580230Y-2953148D02*
G01*
X-1313383Y-2953816D01*
X-1313383Y-2418196D01*
X-1452996Y-2278583D01*
X-1582420Y-2278583D01*
D10*
X-649577Y-1257998D02*
G01*
X-569574Y-1257998D01*
X-680562Y-1368973D02*
G01*
X-680562Y-1288976D01*
X-538596Y-1368973D02*
G01*
X-538596Y-1288976D01*
X-681144Y-1426563D02*
G01*
X-681144Y-1506562D01*
X-650161Y-1537545D02*
G01*
X-570163Y-1537545D01*
X-539183Y-1426563D02*
G01*
X-539183Y-1506562D01*
X-2137600Y-3554999D02*
G01*
X-2137600Y-2795000D01*
X-3137601Y-2795000D01*
X-3137601Y-3554999D01*
X-2137600Y-3554999D01*
X-2591800Y-19999D02*
G01*
X-3351799Y-19999D01*
X-3351799Y-1519999D01*
X-2591800Y-1519999D01*
X-2591800Y-19999D01*
X-2283599Y-435800D02*
G01*
X-2206256Y-435800D01*
X-1983600Y-435800D02*
G01*
X-2060971Y-435800D01*
X-1983600Y-435800D02*
G01*
X-1943100Y-435800D01*
X-1943100Y-444941D01*
X-2283599Y-935799D02*
G01*
X-2324100Y-935799D01*
X-2324100Y-926658D01*
X-2283599Y-435800D02*
G01*
X-2324100Y-435800D01*
X-2324100Y-444941D01*
X-1983600Y-935799D02*
G01*
X-1943100Y-935799D01*
X-1943100Y-926658D01*
X-1983600Y-935799D02*
G01*
X-2283599Y-935799D01*
X-2258199Y-1274000D02*
G01*
X-2180856Y-1274000D01*
X-1958200Y-1274000D02*
G01*
X-2035571Y-1274000D01*
X-1958200Y-1274000D02*
G01*
X-1917700Y-1274000D01*
X-1917700Y-1283141D01*
X-2258199Y-1773999D02*
G01*
X-2298700Y-1773999D01*
X-2298700Y-1764858D01*
X-2258199Y-1274000D02*
G01*
X-2298700Y-1274000D01*
X-2298700Y-1283141D01*
X-1958200Y-1773999D02*
G01*
X-1917700Y-1773999D01*
X-1917700Y-1764858D01*
X-1958200Y-1773999D02*
G01*
X-2258199Y-1773999D01*
D14*
X-1066215Y-142255D02*
G01*
X-711936Y-142255D01*
X-711936Y-1127495D01*
X-1066215Y-1127495D01*
X-1066215Y-142255D01*
X65971Y-1202095D02*
G01*
X65971Y-1106208D01*
X-66149Y-1106208D01*
X-66149Y-1202095D01*
X65971Y-1287338D02*
G01*
X65971Y-1383225D01*
X-66149Y-1383225D01*
X-66149Y-1287338D01*
D17*
X130200Y-1207599D02*
G01*
X130200Y-1092601D01*
X275198Y-1092601D01*
X275198Y-1212601D01*
X276199Y-1274599D02*
G01*
X276199Y-1398600D01*
X131201Y-1398600D01*
X131201Y-1274599D01*
X130200Y-1092601D02*
G01*
X130200Y-1089599D01*
X150200Y-1069599D01*
X252199Y-1069599D01*
X255198Y-1072601D01*
X275198Y-1092601D01*
D10*
G75*
G01*
X-1231138Y-1386878D02*
G02*
X-1262121Y-1417861I-30983J0D01*
G75*
G01*
X-1262121Y-1275895D02*
G02*
X-1231138Y-1306881I0J-30983D01*
G75*
G01*
X-1479707Y-1417279D02*
G02*
X-1510690Y-1386294I0J30983D01*
G75*
G01*
X-1510690Y-1306297D02*
G02*
X-1479707Y-1275314I30983J0D01*
G75*
G01*
X-1231138Y-1564678D02*
G02*
X-1262121Y-1595661I-30983J0D01*
G75*
G01*
X-1262121Y-1453695D02*
G02*
X-1231138Y-1484681I0J-30983D01*
G75*
G01*
X-1479707Y-1595079D02*
G02*
X-1510690Y-1564094I0J30983D01*
G75*
G01*
X-1510690Y-1484097D02*
G02*
X-1479707Y-1453114I30983J0D01*
G75*
G01*
X-1994840Y-1889956D02*
G02*
X-1963857Y-1858973I30983J0D01*
G75*
G01*
X-1963857Y-2000938D02*
G02*
X-1994840Y-1969953I0J30983D01*
G75*
G01*
X-1746270Y-1859554D02*
G02*
X-1715287Y-1890540I0J-30983D01*
G75*
G01*
X-1715287Y-1970537D02*
G02*
X-1746270Y-2001520I-30983J0D01*
G75*
G01*
X-1969440Y-1026356D02*
G02*
X-1938457Y-995373I30983J0D01*
G75*
G01*
X-1938457Y-1137338D02*
G02*
X-1969440Y-1106353I0J30983D01*
G75*
G01*
X-1720870Y-995954D02*
G02*
X-1689887Y-1026940I0J-30983D01*
G75*
G01*
X-1689887Y-1106937D02*
G02*
X-1720870Y-1137920I-30983J0D01*
G75*
G01*
X-824738Y-2834678D02*
G02*
X-855721Y-2865661I-30983J0D01*
G75*
G01*
X-855721Y-2723695D02*
G02*
X-824738Y-2754681I0J-30983D01*
G75*
G01*
X-1073307Y-2865079D02*
G02*
X-1104290Y-2834094I0J30983D01*
G75*
G01*
X-1104290Y-2754097D02*
G02*
X-1073307Y-2723114I30983J0D01*
G75*
G01*
X-977049Y162639D02*
G02*
X-1008032Y131656I-30983J0D01*
G75*
G01*
X-1008032Y273621D02*
G02*
X-977049Y242636I0J-30982D01*
G75*
G01*
X-1225619Y132237D02*
G02*
X-1256602Y163223I0J30983D01*
G75*
G01*
X-1256602Y243220D02*
G02*
X-1225619Y274203I30983J0D01*
G75*
G01*
X-1562951Y243761D02*
G02*
X-1531968Y274744I30983J0D01*
G75*
G01*
X-1531968Y132778D02*
G02*
X-1562951Y163764I0J30983D01*
G75*
G01*
X-1314381Y274163D02*
G02*
X-1283399Y243177I0J-30983D01*
G75*
G01*
X-1283399Y163180D02*
G02*
X-1314381Y132197I-30982J0D01*
G75*
G01*
X-650161Y-1537551D02*
G02*
X-681144Y-1506568I0J30983D01*
G75*
G01*
X-539179Y-1506568D02*
G02*
X-570164Y-1537551I-30982J0D01*
G75*
G01*
X-680563Y-1288981D02*
G02*
X-649577Y-1257999I30983J0D01*
G75*
G01*
X-569580Y-1257999D02*
G02*
X-538597Y-1288981I0J-30982D01*
G75*
G01*
X-2206257Y-435801D02*
G03*
X-2060971Y-436291I72657J3981D01*
G75*
G01*
X-2180857Y-1274001D02*
G03*
X-2035571Y-1274491I72657J3981D01*
D18*
G75*
G01
X-2385276Y-431815D02*
G03X-2385276Y-431815I-15011J0D01*
G75*
G01
X-2359901Y-1269990D02*
G03X-2359901Y-1269990I-15011J0D01*
G75*
G01
X-975957Y-212385D02*
G03X-975957Y-212385I-15011J0D01*
G75*
G01
X-1160640Y-150002D02*
G03X-1160640Y-150002I-15011J0D01*
M02*
